<svg width="455" height="400" viewBox="0 0 455 400" fill="none" xmlns="http://www.w3.org/2000/svg">
<path d="M51.9801 94.586C39.0117 82.5448 0.181001 75.703 0.181001 75.703C95.1957 75.9711 113.55 122.789 113.55 122.789C113.55 122.789 64.9666 106.596 51.9801 94.586Z" fill="#FAFAFA"/>
<path d="M28.8793 110.893C28.8793 110.893 53.7217 121.919 80.0918 122.656C106.462 123.394 133.338 130.658 133.338 130.658C133.338 130.658 95.0591 158.428 28.8793 110.893Z" fill="#FAFAFA"/>
<path d="M96.0288 78.2613C119.106 96.6143 132.414 126.546 132.414 126.546C74.894 96.7934 70.7939 34.4008 70.7939 34.4008C70.7939 34.4008 72.952 59.9082 96.0288 78.2613Z" fill="#FAFAFA"/>
<path d="M172.628 142.862C172.628 142.862 140.461 150.97 128.598 159.155C116.734 167.339 94.4679 179.407 70.4087 170.686C70.4087 170.686 84.5186 174.872 101.314 161.474C118.11 148.075 150.297 133.405 172.628 142.862Z" fill="#FAFAFA"/>
<path d="M152.089 12.1268C152.089 12.1268 151.949 12.0041 151.904 11.936C151.904 11.936 151.999 11.9906 152.089 12.1268Z" fill="#FAFAFA"/>
<path d="M277.023 141.102C276.389 154.894 282.728 172.902 282.728 172.902C266.867 161.643 256.636 145.276 250.217 128.36C253.001 149.55 250.669 161.313 250.669 161.313C228.437 145.889 218.581 100.119 217.744 83.4594C216.907 66.8002 186.982 3.01391 186.982 3.01391C186.982 3.01391 202.202 -0.672851 230.209 61.4643C234.763 71.5793 238.371 81.0669 241.251 89.8414C240.377 81.7555 240.221 74.5458 240.428 68.9771C241.357 44.99 220.234 0.205157 220.234 0.205157C250.547 12.561 277.67 127.36 277.068 141.17L277.023 141.102Z" fill="#FAFAFA"/>
<path d="M253.207 219.017C233.046 241.647 180.746 252.095 173.745 240.153C173.745 240.153 198.655 245.192 217.665 222.659C234.83 202.31 249.613 177.307 285.925 179.879C275.885 175.207 265.682 170.821 255.428 166.743C248.564 172.238 220.614 194.861 204.327 213.607C186.36 234.254 140.096 238.226 129.855 216.375C129.855 216.375 154.519 232.185 173.062 211.49C190.538 191.994 207.471 159.8 249.058 164.264C238.926 160.34 228.712 156.706 218.533 153.303C215.382 154.316 190.418 162.644 175.052 179.055C158.623 196.582 105.826 208.261 83.0867 186.9C83.0867 186.9 101.881 197.232 129.332 182.96C156.429 168.863 173.266 143.439 217.071 152.842C205.878 149.152 194.698 145.806 183.617 142.727C183.855 143.707 183.989 144.205 183.989 144.205C182.451 143.364 181.043 142.513 179.623 141.613C173.903 140.055 168.193 138.629 162.545 137.239C162.911 137.702 163.219 138.047 163.417 138.287C163.187 138.029 162.866 137.634 162.45 137.184C152.56 134.747 142.786 132.546 133.243 130.604C142.524 132.269 152.035 134.193 161.6 136.317C158.341 132.97 151.372 126.692 140.161 121.053C123.926 112.865 105.822 75.5866 103.606 63.8228C101.39 52.059 91.9525 25.362 91.9525 25.362C91.9525 25.362 118.377 61.9431 128.746 85.5518C137.365 105.164 155.813 128.863 161.795 136.344C166.741 137.416 171.713 138.587 176.749 139.794C147.993 120.327 149.632 92.8299 138.889 64.3718C127.309 33.705 109.832 17.852 109.832 17.852C128.181 22.8724 155.996 61.7268 165.838 85.9597C173.985 106.102 181.079 132.843 183.253 141.381C190.834 143.291 198.442 145.302 206.072 147.494C180.137 130.743 173.737 89.1491 170.082 58.6946C166.204 26.1326 153.608 13.5892 151.931 12.0358C192.005 46.0505 214.806 136.543 218.284 151.096C255.32 162.384 292.596 177.138 327.159 195.811C322.784 184.872 308.927 145.187 319.244 105.148C331.358 58.0935 335.629 58.9458 334.3 15.4189C334.3 15.4189 360.24 60.4002 349.505 102.559C339.072 143.459 329.226 171.383 328.494 196.494C336.808 201.016 344.913 205.756 352.872 210.749C336.482 178.921 339.314 136.731 356.239 104.405C374.233 69.9967 379.819 44.4294 379.819 44.4294C379.819 44.4294 378.483 120.468 370.104 140.849C361.761 161.168 357.674 200.994 356.564 213.122C359.641 215.1 362.731 217.128 365.722 219.183C355.229 184.422 376.117 140.722 392.897 128.157C410.876 114.68 435.345 86.3083 435.345 86.3083C435.345 86.3083 393.878 167.524 382.025 182.877C373.268 194.236 370.027 212.64 368.929 221.447C373.05 224.32 377.104 227.238 381.071 230.233C367.483 197.486 389.948 174.072 405.336 161.803C422.114 148.436 448.705 109.697 448.705 109.697C448.705 109.697 430.057 164.459 410.075 182.304C394.461 196.213 388.369 223.175 386.431 234.323C391.113 237.981 395.672 241.779 400.094 245.668C395.752 236.432 390.924 219.46 402.861 202.639C420.48 177.832 448.646 171.849 458.69 156.637C458.69 156.637 447.145 182.237 430.181 193.727C412.401 205.76 415.772 243.677 406.552 251.441C434.022 276.741 456.484 306.286 470.88 340.634C478.282 359.21 483.159 378.738 485.874 398.582L475.236 399.719C473.077 380.741 468.855 362.053 462.203 344.076C449.958 313.028 430.934 285.711 407.376 261.815C391.967 263.118 347.545 270.044 341.825 306.994C341.825 306.994 335.923 280.01 362.608 263.402C378.735 253.369 393.626 254.802 402.882 257.464C399.473 254.158 395.964 250.879 392.4 247.694C382.579 248.583 344.443 253.221 338.185 271.451C331.001 292.393 311.124 297.66 311.124 297.66C311.124 297.66 319.74 286.767 324.583 273.202C329.257 260.003 351.507 239.162 391.496 246.922C386.716 242.702 381.813 238.622 376.774 234.632C372.063 236.307 358.776 240.81 344.189 243.469C325.961 246.818 311.6 281.502 283.899 286.235C283.899 286.235 305.868 263.463 310.293 252.312C314.6 241.514 331.649 222.321 374.554 232.851C365.236 225.603 355.486 218.739 345.419 212.282C338.923 215.671 312.577 230.073 305.387 243.764C297.168 259.393 270.286 280.817 249.774 278.389C249.774 278.389 273.976 267.938 280.964 251.813C287.669 236.326 316.438 208.022 343.491 211.091C336.057 206.357 328.478 201.877 320.725 197.551C314.223 201.61 294.242 214.907 287.91 227.911C280.267 243.491 234.551 267.706 217.104 252.461C217.104 252.461 244.981 250.061 257.508 228.692C268.329 210.218 294.783 192.255 314.259 193.92C307.782 190.453 301.215 187.144 294.561 183.913C286.861 188.885 268.553 201.541 253.067 218.894L253.207 219.017Z" fill="#FAFAFA"/>
<path d="M310.022 65.3874C314.048 98.4981 305.156 183.51 305.156 183.51C279.239 152.866 281.992 107.807 285.498 57.9156C289.005 8.02367 271.808 2.31704 271.808 2.31704C278.053 -1.80637 306.046 32.2633 310.054 65.4056L310.022 65.3874Z" fill="#FAFAFA"/>
</svg>
