<svg width="39" height="50" viewBox="0 0 39 50" fill="none" xmlns="http://www.w3.org/2000/svg">
<g clip-path="url(#clip0_133_33756)">
<path d="M20.73 35.8122C21.271 31.6029 24.6111 28.6131 27.4644 25.6627C30.3178 22.7123 33.1576 19.9192 36.065 17.0999C36.7682 16.418 37.4849 15.723 38.1881 15.0543C39.4863 13.8085 37.4849 11.8547 36.1867 13.1135C34.1583 15.0543 32.1569 17.0081 30.169 18.9751C27.3292 21.7812 24.3947 24.5743 21.866 27.6559C19.797 30.1867 18.2959 32.5864 17.8767 35.8253C17.782 36.5728 18.5934 37.1891 19.2966 37.2022C20.1486 37.2022 20.6219 36.5596 20.7165 35.8253L20.73 35.8122Z" fill="#CFCFCF" fill-opacity="0.998047"/>
<path d="M20.7299 35.8122C20.3377 32.7962 19.0531 30.5669 17.1734 28.1804C16.1051 26.8297 14.9151 25.5578 13.7251 24.312C10.7771 21.2305 7.73442 18.2407 4.67825 15.2771C3.92097 14.5428 3.17721 13.8216 2.41993 13.1004C1.12173 11.8546 -0.89318 13.7954 0.41854 15.0411C5.13803 19.552 9.99274 24.076 14.2524 29.0065C15.8211 30.8292 17.552 33.124 17.8901 35.8122C17.9848 36.5596 18.4716 37.1759 19.31 37.189C19.9997 37.189 20.8246 36.5465 20.7299 35.8122Z" fill="#CFCFCF" fill-opacity="0.998047"/>
<path d="M10.8594 49.9998H26.9922C28.8178 49.9998 28.8178 47.2461 26.9922 47.2461H10.8594C9.03384 47.2461 9.03384 49.9998 10.8594 49.9998Z" fill="#CFCFCF" fill-opacity="0.998047"/>
<path d="M1.65044 15.1209H37.6213C39.4469 15.1209 39.4469 12.3672 37.6213 12.3672H1.65044C-0.175147 12.3672 -0.175147 15.1209 1.65044 15.1209Z" fill="#CFCFCF" fill-opacity="0.998047"/>
<path d="M9.99311 21.1517C11.697 19.6962 13.9959 20.3256 15.7674 21.3353C17.2955 22.2139 18.3503 23.4858 20.1082 24.0104C23.9082 25.125 28.8711 23.853 31.7109 21.2042C33.0361 19.9715 31.0212 18.0308 29.7095 19.2634C27.4106 21.414 22.0691 22.8433 19.405 20.5878C16.2136 17.8866 11.5888 16.1425 7.9782 19.211C6.59887 20.3912 8.61378 22.3319 9.97959 21.1517H9.99311Z" fill="#CFCFCF" fill-opacity="0.998047"/>
<path d="M21.0555 33.2289C21.8398 24.8759 22.6241 16.5229 23.4085 8.16988C23.5166 6.97659 23.6248 5.79642 23.7465 4.60314L22.7053 5.92755C25.802 4.8654 28.8988 3.80324 31.9955 2.74108C33.7129 2.151 32.9691 -0.510947 31.2382 0.0922522C28.1415 1.15441 25.0447 2.21656 21.948 3.27872C21.2989 3.50164 20.9608 3.9606 20.9067 4.60314C20.1224 12.9561 19.3381 21.3091 18.5538 29.6621C18.4456 30.8554 18.3374 32.0356 18.2157 33.2289C18.0534 34.9991 20.8932 34.986 21.0555 33.2289Z" fill="#CFCFCF" fill-opacity="0.998047"/>
<path d="M17.8906 35.3902V48.4901C17.8906 50.2604 20.7304 50.2604 20.7304 48.4901V35.3902C20.7304 33.6199 17.8906 33.6199 17.8906 35.3902Z" fill="#CFCFCF" fill-opacity="0.998047"/>
</g>
<defs>
<clipPath id="clip0_133_33756">
<rect width="39" height="50" fill="white"/>
</clipPath>
</defs>
</svg>
