<svg width="33" height="50" viewBox="0 0 33 50" fill="none" xmlns="http://www.w3.org/2000/svg">
<g clip-path="url(#clip0_133_33744)">
<path d="M15.9866 18.9292V17.3679C15.9866 16.8474 15.9402 16.3046 15.9959 15.7841L15.9449 16.143C15.9588 16.0757 15.9727 16.0129 16.0005 15.9501L15.8614 16.2732C15.8892 16.2103 15.9217 16.1565 15.9634 16.0982L15.7455 16.3719C15.8011 16.3046 15.8614 16.2462 15.931 16.1924L15.6481 16.4033C15.7223 16.3494 15.8011 16.3046 15.8846 16.2687L15.5507 16.4033C15.6434 16.3674 15.7316 16.3449 15.8289 16.327L15.4579 16.3763C15.8568 16.327 16.2788 16.3629 16.6776 16.3629C17.0764 16.3629 17.4984 16.327 17.8972 16.3763L17.5262 16.327C17.6236 16.3449 17.7117 16.3674 17.8045 16.4033L17.4706 16.2687C17.5541 16.3046 17.6329 16.3494 17.7071 16.4033L17.4242 16.1924C17.4938 16.2462 17.5541 16.3046 17.6097 16.3719L17.3918 16.0982C17.4335 16.152 17.466 16.2103 17.4938 16.2732L17.3547 15.9501C17.3778 16.0129 17.3964 16.0757 17.4103 16.143L17.3593 15.7841C17.4149 16.3046 17.3686 16.8474 17.3686 17.3679V18.9292C17.3686 19.6335 18.0085 20.3065 18.7598 20.2751C19.5111 20.2437 20.151 19.6829 20.151 18.9292V16.7846C20.151 16.493 20.1557 16.1969 20.151 15.9053C20.1371 15.3489 19.9377 14.9003 19.5806 14.4696C19.1633 13.9716 18.5326 13.7517 17.8972 13.6844C17.5587 13.6486 17.2016 13.671 16.8631 13.671C16.4689 13.671 16.0701 13.671 15.6759 13.671C14.6093 13.68 13.5241 14.3215 13.2737 15.3803C13.1902 15.7393 13.2088 16.1072 13.2088 16.475V18.9336C13.2088 19.638 13.8488 20.311 14.6 20.2796C15.3513 20.2482 15.9912 19.6874 15.9912 18.9336L15.9866 18.9292Z" fill="#CFCFCF" fill-opacity="0.998047"/>
<path d="M30.217 34.0432C30.1892 39.5391 26.572 44.6582 21.2436 46.5156C18.4611 47.4847 15.5488 47.5969 12.7524 46.8386C9.95605 46.0804 7.69298 44.6089 5.84728 42.4643C2.21617 38.256 1.75706 31.9569 4.6972 27.2102C7.63733 22.4635 13.564 19.9062 19.1382 21.0009C21.9624 21.5573 24.4295 22.8718 26.405 24.8593C27.3789 25.8419 28.1116 26.8379 28.7794 28.1165C29.3915 29.283 29.8321 30.6514 30.0732 32.0736C30.1011 32.2486 30.1382 32.5581 30.166 32.8677C30.1985 33.258 30.2124 33.6528 30.2124 34.0432C30.2216 35.775 33.0041 35.7794 32.9948 34.0432C32.9577 27.3583 28.5939 21.3554 22.1247 19.0269C15.7065 16.7118 8.11499 18.7083 3.77898 23.8319C-0.55702 28.9555 -1.28973 36.5107 2.3321 42.2983C5.93539 48.0545 12.9936 50.9976 19.7967 49.6965C26.5998 48.3955 31.7381 43.07 32.763 36.6543C32.9021 35.7884 32.9856 34.9225 32.9902 34.0432C32.9995 32.3114 30.217 32.3069 30.2077 34.0432H30.217Z" fill="#CFCFCF" fill-opacity="0.998047"/>
<path d="M15.6546 20.7701C19.2022 22.8563 21.8224 26.1988 22.8844 30.093C23.9788 34.1084 23.3388 38.4603 21.1221 42.0226C19.9396 43.9249 18.3119 45.5894 16.4291 46.8321C15.8076 47.2404 15.534 48.0166 15.9282 48.6716C16.2853 49.2638 17.2081 49.5644 17.8296 49.1561C21.892 46.4732 24.8599 42.3546 25.8106 37.6573C26.7659 32.933 25.8106 27.9126 23.0003 23.9151C21.4421 21.6988 19.4202 19.8369 17.0551 18.4461C15.5201 17.5443 14.1196 19.8728 15.65 20.7701H15.6546Z" fill="#CFCFCF" fill-opacity="0.998047"/>
<path d="M15.7817 18.4455C11.608 20.8996 8.4731 24.8702 7.24882 29.4599C6.00135 34.1393 6.7387 39.2359 9.31712 43.3859C10.7547 45.6965 12.7071 47.6436 15.0073 49.16C15.6287 49.5683 16.5515 49.2722 16.9086 48.6755C17.3121 48.0115 17.0338 47.2443 16.4078 46.836C12.9575 44.5569 10.5507 41.0171 9.72057 37.0286C8.89047 33.0401 9.82723 28.7061 12.2341 25.2784C13.5047 23.4704 15.2391 21.9181 17.1822 20.774C18.7079 19.8767 17.3121 17.5482 15.7771 18.45L15.7817 18.4455Z" fill="#CFCFCF" fill-opacity="0.998047"/>
<path d="M17.8723 47.9439V19.7732C17.8723 18.0414 15.0898 18.0369 15.0898 19.7732V29.2801C15.0898 34.3363 15.0898 39.3926 15.0898 44.4444V47.9394C15.0898 49.6712 17.8723 49.6756 17.8723 47.9394V47.9439Z" fill="#CFCFCF" fill-opacity="0.998047"/>
<path d="M1.3599 35.7544H31.6099C33.4 35.7544 33.4046 33.0625 31.6099 33.0625H1.3599C-0.430148 33.0625 -0.434785 35.7544 1.3599 35.7544Z" fill="#CFCFCF" fill-opacity="0.998047"/>
<path d="M4.38334 28.0708H29.342C31.1321 28.0708 31.1367 25.3789 29.342 25.3789H4.38334C2.59329 25.3789 2.58865 28.0708 4.38334 28.0708Z" fill="#CFCFCF" fill-opacity="0.998047"/>
<path d="M4.75834 43.438H27.4493C29.2394 43.438 29.244 40.7461 27.4493 40.7461H4.75834C2.96829 40.7461 2.96365 43.438 4.75834 43.438Z" fill="#CFCFCF" fill-opacity="0.998047"/>
<path d="M18 14.2583V1.74165C18 0.801161 17.31 0 16.5 0C15.69 0 15 0.795356 15 1.74165V14.2583C15 15.1988 15.69 16 16.5 16C17.31 16 18 15.2046 18 14.2583Z" fill="#CFCFCF" fill-opacity="0.998047"/>
</g>
<defs>
<clipPath id="clip0_133_33744">
<rect width="33" height="50" fill="white"/>
</clipPath>
</defs>
</svg>
