<svg width="37" height="37" viewBox="0 0 37 37" fill="none" xmlns="http://www.w3.org/2000/svg">
<path d="M12.999 29.5011V5.66681L34.9986 2V25.8342" stroke="#CFCFCF" stroke-opacity="0.998047" stroke-width="3" stroke-linecap="round" stroke-linejoin="round"/>
<path d="M7.49989 35.0004C10.5374 35.0004 12.9998 32.5379 12.9998 29.5002C12.9998 26.4625 10.5374 24 7.49989 24C4.46239 24 2 26.4625 2 29.5002C2 32.5379 4.46239 35.0004 7.49989 35.0004Z" stroke="#CFCFCF" stroke-opacity="0.998047" stroke-width="3" stroke-linecap="round" stroke-linejoin="round"/>
<path d="M29.4999 31.3364C32.5374 31.3364 34.9998 28.8738 34.9998 25.8361C34.9998 22.7985 32.5374 20.3359 29.4999 20.3359C26.4624 20.3359 24 22.7985 24 25.8361C24 28.8738 26.4624 31.3364 29.4999 31.3364Z" stroke="#CFCFCF" stroke-opacity="0.998047" stroke-width="3" stroke-linecap="round" stroke-linejoin="round"/>
</svg>
