<svg width="29" height="41" viewBox="0 0 29 41" fill="none" xmlns="http://www.w3.org/2000/svg">
<g clip-path="url(#clip0_43_5695)">
<path d="M13.5308 13.1698V11.7698C13.5308 11.2998 13.4908 10.8198 13.5308 10.3498L13.4908 10.6298C13.4908 10.6298 13.5108 10.5598 13.5108 10.5198C13.5108 10.4198 13.4108 10.7298 13.4608 10.6498C13.5508 10.4798 13.3908 10.7498 13.3808 10.7298C13.3808 10.7298 13.4508 10.6498 13.4608 10.6498C13.5108 10.5798 13.2808 10.7598 13.3608 10.7298C13.3708 10.7298 13.4508 10.6598 13.4608 10.6698C13.4608 10.6698 13.2008 10.7598 13.3508 10.7198C13.4008 10.7098 13.4508 10.6998 13.5008 10.6898L13.2208 10.7298C13.5708 10.6898 13.9308 10.7198 14.2808 10.7198C14.6308 10.7198 14.9908 10.6898 15.3408 10.7298L15.0608 10.6898C15.1208 10.6998 15.3508 10.7798 15.1708 10.7098C14.9908 10.6398 15.1308 10.7098 15.1708 10.7198C15.3108 10.7898 15.0208 10.5698 15.0908 10.6498C15.1108 10.6698 15.1308 10.6998 15.1508 10.7198C15.2408 10.7998 15.0008 10.4998 15.0808 10.6298C15.1508 10.7498 15.0208 10.4998 15.0308 10.4998L15.0608 10.6298L15.0208 10.3498C15.0708 10.8098 15.0208 11.2998 15.0208 11.7698V13.1698C15.0208 13.7198 15.5008 14.2498 16.0708 14.2198C16.6408 14.1898 17.1208 13.7598 17.1208 13.1698V11.2498C17.1208 10.9898 17.1208 10.7198 17.1208 10.4598C17.1108 10.0098 16.9508 9.63981 16.6708 9.28981C16.3408 8.87981 15.8308 8.68981 15.3208 8.62981C15.0308 8.59981 14.7208 8.61981 14.4208 8.61981C14.0808 8.61981 13.7408 8.61981 13.3908 8.61981C12.5308 8.61981 11.6608 9.15981 11.4608 10.0298C11.3908 10.3398 11.4108 10.6598 11.4108 10.9698V13.1698C11.4108 13.7198 11.8908 14.2498 12.4608 14.2198C13.0308 14.1898 13.5108 13.7598 13.5108 13.1698H13.5308Z" fill="white"/>
<path d="M26.1594 26.69C26.0894 31.72 22.9594 36.36 18.1594 38.04C13.3594 39.72 8.05939 38.23 4.82939 34.37C1.59939 30.51 1.18939 24.83 3.76939 20.52C6.34939 16.21 11.5894 13.84 16.5594 14.89C22.1394 16.07 26.0894 21.02 26.1594 26.69C26.1794 28.04 28.2794 28.04 28.2594 26.69C28.1794 20.8 24.5594 15.53 19.0294 13.43C13.4994 11.33 6.98939 13.1 3.23939 17.65C-0.510614 22.2 -1.09061 28.82 1.94939 33.92C4.98939 39.02 10.9694 41.65 16.7794 40.58C23.4194 39.35 28.1694 33.36 28.2494 26.69C28.2694 25.34 26.1694 25.34 26.1494 26.69H26.1594Z" fill="white"/>
<path d="M13.48 14.6801C17.46 17.1401 20.08 21.4101 20.26 26.1201C20.44 30.8301 18.12 35.5201 14.15 38.2701C13.05 39.0301 14.1 40.8601 15.21 40.0801C19.77 36.9201 22.57 31.7101 22.36 26.1201C22.15 20.5301 19.17 15.7301 14.54 12.8701C13.39 12.1601 12.33 13.9701 13.48 14.6801Z" fill="white"/>
<path d="M13.5791 12.8701C8.94912 15.7301 5.96912 20.6601 5.75912 26.1201C5.54912 31.5801 8.33912 36.9201 12.9091 40.0801C14.0191 40.8501 15.0691 39.0301 13.9691 38.2701C10.0091 35.5201 7.67912 30.9501 7.85912 26.1201C8.03912 21.2901 10.6491 17.1401 14.6391 14.6801C15.7891 13.9701 14.7291 12.1501 13.5791 12.8701Z" fill="white"/>
<path d="M15.1586 39.1302V13.9202C15.1586 12.5702 13.0586 12.5702 13.0586 13.9202V39.1202C13.0586 40.4702 15.1586 40.4702 15.1586 39.1202V39.1302Z" fill="white"/>
<path d="M1.02031 28.0702H27.2103C28.5603 28.0702 28.5603 25.9702 27.2103 25.9702H1.02031C-0.329687 25.9702 -0.329687 28.0702 1.02031 28.0702Z" fill="white"/>
<path d="M3.64141 21.1898H25.2414C26.5914 21.1898 26.5914 19.0898 25.2414 19.0898H3.64141C2.29141 19.0898 2.29141 21.1898 3.64141 21.1898Z" fill="white"/>
<path d="M3.96953 34.9398H23.6095C24.9595 34.9398 24.9595 32.8398 23.6095 32.8398H3.96953C2.61953 32.8398 2.61953 34.9398 3.96953 34.9398Z" fill="white"/>
<path d="M15.1586 9.67006V1.01006C15.1586 -0.339941 13.0586 -0.339941 13.0586 1.01006V9.66006C13.0586 11.0101 15.1586 11.0101 15.1586 9.66006V9.67006Z" fill="white"/>
</g>
<defs>
<clipPath id="clip0_43_5695">
<rect width="28.26" height="40.81" fill="white"/>
</clipPath>
</defs>
</svg>
