<svg width="30" height="30" viewBox="0 0 30 30" fill="none" xmlns="http://www.w3.org/2000/svg">
<g clip-path="url(#clip0_43_5705)">
<path d="M23.3391 23.3501C19.6691 26.9501 14.0191 28.0701 9.30906 25.8601C4.59906 23.6501 1.67906 18.6101 2.13906 13.3701C2.59906 8.13012 6.50906 3.71012 11.5591 2.46012C16.6091 1.21012 22.0691 3.33012 24.9191 7.68012C28.1591 12.6101 27.4391 19.1601 23.3391 23.3501C22.3891 24.3201 23.8791 25.8001 24.8191 24.8301C29.0891 20.4701 30.2591 13.9301 27.7091 8.38012C25.1591 2.83012 19.1291 -0.559879 13.0991 0.0801211C7.06906 0.720121 1.88906 5.10012 0.41906 11.0201C-1.05094 16.9401 1.37906 23.1801 6.37906 26.6001C12.0991 30.5201 19.9191 29.6401 24.8191 24.8401C25.7891 23.8901 24.2991 22.4101 23.3391 23.3601V23.3501Z" fill="white"/>
<path d="M26.6801 12.1201C23.3501 20.4001 13.0601 23.6001 4.88012 22.2801C3.56012 22.0701 2.99012 24.0901 4.32012 24.3001C13.7501 25.8301 24.9101 22.1301 28.7001 12.6801C29.2001 11.4301 27.1701 10.8801 26.6801 12.1201Z" fill="white"/>
<path d="M23.6998 5.70011C20.2898 13.8501 9.98981 17.2601 1.80981 15.7901C0.489806 15.5501 -0.0801938 17.5801 1.24981 17.8101C10.6698 19.5101 21.8198 15.5501 25.7198 6.25011C26.2398 5.01011 24.2098 4.46011 23.6998 5.69011V5.70011Z" fill="white"/>
</g>
<defs>
<clipPath id="clip0_43_5705">
<rect width="29.05" height="29.06" fill="white"/>
</clipPath>
</defs>
</svg>
