<svg width="44" height="45" viewBox="0 0 44 45" fill="none" xmlns="http://www.w3.org/2000/svg">
<g clip-path="url(#clip0_42_5341)">
<path d="M21.8447 42.596V21.5464C21.8447 20.9476 21.8447 20.3488 21.8447 19.7457C21.8447 19.0981 21.84 18.455 21.8211 17.8075C21.7975 16.9515 21.873 15.9225 21.5993 15.0931C21.1982 13.8601 19.8391 14.0685 18.7773 14.0685H14.4642C11.8451 14.0685 9.21662 14.0242 6.59757 14.0685C5.8614 14.0818 5.21018 14.3613 4.98367 15.0931C4.70525 15.989 4.78075 17.0756 4.75716 17.9937C4.73828 18.7965 4.73828 19.5993 4.73828 20.4065V42.5916C4.73828 44.3036 7.56968 44.308 7.56968 42.5916V21.0008C7.56968 20.5662 7.56968 20.1315 7.56968 19.6924C7.56968 19.0005 7.57912 18.3131 7.598 17.6212C7.61216 17.1599 7.62631 16.6986 7.66406 16.2418C7.67822 16.0733 7.6971 15.9003 7.71125 15.7318C7.71125 15.7362 7.64047 16.0688 7.69238 15.8826C7.73957 15.7185 7.7962 15.7805 7.59328 16.0733L7.08363 16.5523H7.09306C6.85711 16.6055 6.61645 16.6676 6.3805 16.7297H20.1977L19.4852 16.5478H19.4946C19.3247 16.3926 19.1548 16.2374 18.985 16.0777C18.7962 15.8072 18.8434 15.7273 18.9 15.9446C18.7915 15.5233 18.8859 15.8826 18.9 16.0156C18.9378 16.4325 18.9566 16.8539 18.9708 17.2752C18.9991 18.0691 19.0086 18.863 19.0086 19.6569C19.0086 19.9585 19.0086 20.2646 19.0086 20.5662V42.5916C19.0086 44.3036 21.84 44.308 21.84 42.5916L21.8447 42.596Z" fill="#CFCFCF" fill-opacity="0.998047"/>
<path d="M16.7242 40.4139V36.5109C16.7242 35.9388 16.7242 35.3711 16.7242 34.7989C16.7242 33.6502 16.8658 32.0092 15.1575 31.9648C14.3836 31.9471 13.6049 31.9648 12.8263 31.9648C11.925 31.9648 10.6603 31.7697 10.1223 32.6301C9.76366 33.2067 9.86747 34.107 9.86747 34.7457C9.86747 34.8521 9.86747 34.963 9.86747 35.0695V41.4119C9.86747 42.1082 10.5187 42.7735 11.2832 42.7425C12.0477 42.7114 12.6989 42.157 12.6989 41.4119V35.105C12.6989 34.9852 12.6989 34.8699 12.6989 34.7501C12.6989 34.5018 12.6989 34.2578 12.7083 34.0095C12.7083 33.8631 12.7225 33.7167 12.7272 33.5704C12.7272 33.5349 12.7413 33.4905 12.7366 33.455C12.7461 33.3752 12.7366 33.4107 12.7225 33.5482C12.713 33.6946 12.6658 33.832 12.5762 33.9607L11.354 34.6215H15.2471L14.0249 33.9607C13.9164 33.7921 13.8598 33.6147 13.8598 33.4196C13.8598 33.4684 13.8692 33.5216 13.8692 33.5704C13.8739 33.7167 13.8833 33.8631 13.8881 34.0095C13.8928 34.2534 13.8975 34.5018 13.8975 34.7457C13.8975 34.8743 13.8975 35.0074 13.8975 35.136V40.4095C13.8975 41.1058 14.5487 41.7711 15.3132 41.7401C16.0777 41.709 16.7289 41.1546 16.7289 40.4095L16.7242 40.4139Z" fill="#CFCFCF" fill-opacity="0.998047"/>
<path d="M15.2745 19.3288V21.2537C15.2745 21.3247 15.2745 21.3956 15.2745 21.4666C15.2745 21.4799 15.2745 21.4888 15.2745 21.5021C15.2745 21.542 15.2745 21.5819 15.2745 21.6218C15.2745 21.4888 15.317 21.369 15.3925 21.2537L15.9021 20.7747L15.8738 20.7924L16.5864 20.6106H10.0128L10.7254 20.7924L10.6971 20.7747L11.2067 21.2537C11.2822 21.3646 11.32 21.4888 11.3247 21.6218C11.3247 21.5819 11.3247 21.542 11.3247 21.5021C11.3247 21.4888 11.3247 21.4799 11.3247 21.4666C11.3247 21.3956 11.3247 21.3247 11.3247 21.2537V19.3288C11.3247 18.6325 10.6735 17.9672 9.90899 17.9982C9.14451 18.0293 8.49329 18.5837 8.49329 19.3288C8.49329 20.0739 8.43666 20.8989 8.50273 21.6751C8.57823 22.5133 9.05485 23.223 10.027 23.2717C10.0978 23.2717 10.1685 23.2717 10.2393 23.2717H16.1522C16.6336 23.2717 17.063 23.2717 17.4783 22.9701C18.2239 22.429 18.1153 21.4843 18.1153 20.6949V19.3288C18.1153 18.6325 17.4641 17.9672 16.6996 17.9982C15.9352 18.0293 15.2839 18.5837 15.2839 19.3288H15.2745Z" fill="#CFCFCF" fill-opacity="0.998047"/>
<path d="M11.8875 1.97377C14.3083 5.65945 16.7292 9.34514 19.15 13.0308C19.7776 13.9888 20.41 14.9469 21.0376 15.9049L22.2598 13.9046H3.95953L5.18176 15.9049C7.60261 12.2192 10.0235 8.53349 12.4443 4.8478C13.0719 3.88979 13.7043 2.93178 14.3319 1.97377C15.2899 0.514569 12.8454 -0.824875 11.8875 0.629886C9.46661 4.31557 7.04576 8.00126 4.62491 11.687C3.99729 12.645 3.36494 13.603 2.73731 14.561C2.17103 15.4259 2.9072 16.5613 3.95953 16.5613H22.2598C23.3122 16.5613 24.0483 15.4259 23.4821 14.561C21.0612 10.8753 18.6404 7.18961 16.2195 3.50392C15.5919 2.54591 14.9595 1.5879 14.3319 0.629886C13.3787 -0.824875 10.9248 0.510134 11.8875 1.97377Z" fill="#CFCFCF" fill-opacity="0.998047"/>
<path d="M20.2492 25.6002H6.33758L7.75328 26.9308V22.1141L6.33758 23.4447H20.2445L18.8288 22.1141V26.9308C18.8288 28.6428 21.6602 28.6473 21.6602 26.9308V22.1141C21.6602 21.3956 21.0137 20.7836 20.2445 20.7836H6.33758C5.5731 20.7836 4.92188 21.3912 4.92188 22.1141V26.9308C4.92188 27.6493 5.56838 28.2614 6.33758 28.2614H20.2445C22.066 28.2614 22.0707 25.6002 20.2445 25.6002H20.2492Z" fill="#CFCFCF" fill-opacity="0.998047"/>
<path d="M33.4052 40.2277C32.5935 39.8019 32.2443 39.5535 31.5978 38.9459C30.9136 38.3072 30.4794 37.7573 29.9792 36.9545C28.8231 35.1005 28.4361 32.9761 27.4451 31.0556C26.0766 28.3989 23.618 26.2833 20.4704 25.7466C19.3001 25.547 18.1345 25.5204 16.9548 25.6003C16.1903 25.649 15.5391 26.1768 15.5391 26.9308C15.5391 27.6139 16.1903 28.3102 16.9548 28.2614C17.3842 28.2348 17.8136 28.2126 18.2431 28.2126C18.4648 28.2126 18.6819 28.217 18.9037 28.2304C19.017 28.2348 19.1349 28.2437 19.2482 28.2525C19.4039 28.2658 19.772 28.3235 19.4039 28.2614C19.9749 28.3545 20.5318 28.4654 21.0792 28.6517C21.1736 28.6827 21.5464 28.8424 21.216 28.696C21.3434 28.7537 21.4709 28.8069 21.5983 28.8646C21.8908 29.0065 22.174 29.1662 22.4477 29.3392C22.509 29.3791 22.5704 29.4234 22.6364 29.4633C22.9432 29.6629 22.4949 29.3525 22.6742 29.49C22.7969 29.5875 22.9196 29.6851 23.0376 29.7871C23.3396 30.0488 23.618 30.3327 23.8775 30.6298C23.9011 30.6564 24.038 30.825 23.9106 30.6697C23.9672 30.7407 24.0238 30.8117 24.0757 30.8871C24.189 31.0379 24.2975 31.1931 24.4014 31.3483C24.6562 31.7298 24.878 32.1289 25.0856 32.5325C25.5292 33.4196 25.8029 34.4619 26.1663 35.4243C26.5296 36.3868 26.9874 37.3891 27.5489 38.2939C28.6249 40.0192 30.1208 41.5405 31.9895 42.5207C33.5798 43.3545 35.0097 41.0571 33.4194 40.2233L33.4052 40.2277Z" fill="#CFCFCF" fill-opacity="0.998047"/>
<path d="M20.9805 23.4402C21.4241 23.3914 21.8677 23.3693 22.3112 23.387C22.4858 23.3914 22.6604 23.4092 22.8351 23.4225C23.255 23.458 22.5661 23.3604 22.9766 23.4447C23.104 23.4713 23.2362 23.489 23.3636 23.5201C23.7505 23.6043 24.1281 23.7152 24.4961 23.8527C24.2838 23.7729 24.8123 23.9946 24.8878 24.0301C25.0907 24.1277 25.2889 24.2341 25.4824 24.3494C25.6759 24.4648 25.8741 24.5889 26.0581 24.7176C25.8977 24.6023 26.0864 24.7397 26.11 24.7575C26.2044 24.8285 26.2941 24.9039 26.3837 24.9792C26.7801 25.3075 27.1435 25.6623 27.4833 26.0393C28.0307 26.6513 28.6253 27.5872 29.0594 28.421C29.5927 29.4588 29.8994 30.5677 30.343 31.6366C30.7866 32.7054 31.2585 33.6812 31.9239 34.5904C32.9762 36.0363 34.34 37.1717 36.0907 37.8015C37.5395 38.3249 39.1486 38.3604 40.6776 38.214L39.4554 36.2137C38.2237 37.8725 36.9873 39.5357 35.7557 41.1945C35.3168 41.7844 35.6424 42.6714 36.2653 43.013C36.9732 43.3988 37.7613 43.1283 38.2001 42.534C39.4318 40.8752 40.6682 39.212 41.8998 37.5532C42.485 36.7681 41.7158 35.4509 40.6776 35.5529C40.0358 35.615 39.3893 35.6504 38.7428 35.6194C38.5918 35.6105 38.4455 35.5972 38.2992 35.5884C37.9547 35.5617 38.5399 35.6416 38.1293 35.5662C37.7943 35.5041 37.464 35.4376 37.1431 35.3355C37.0628 35.3089 36.5532 35.1049 36.893 35.2557C36.7467 35.1892 36.6004 35.1271 36.4588 35.0561C36.3172 34.9852 36.1662 34.9009 36.0294 34.8166C35.9492 34.7678 35.8737 34.7146 35.7934 34.6658C35.5009 34.4795 35.8642 34.7412 35.6613 34.5682C34.9487 33.9606 34.5854 33.5748 34.1276 32.8917C32.8346 30.9447 32.4052 28.6516 31.2726 26.6292C30.2722 24.8418 28.8565 23.2273 27.0397 22.123C25.2229 21.0186 23.0899 20.5529 20.9899 20.7835C20.2302 20.8678 19.5742 21.3379 19.5742 22.1141C19.5742 22.7705 20.2254 23.5289 20.9899 23.4447L20.9805 23.4402Z" fill="#CFCFCF" fill-opacity="0.998047"/>
<path d="M0.175488 41.2789C0.930528 42.6804 2.2896 43.7183 3.90822 44.1219C5.692 44.5654 7.56073 44.2594 9.23598 43.5941C10.6422 43.0308 11.8409 42.4054 13.2802 42.0107C14.0588 41.7978 14.5213 41.7135 15.3046 41.7535C15.4839 41.7623 15.7718 41.8156 16.088 41.9131C16.2248 41.9575 16.6401 42.1526 16.8524 42.3034C17.5367 42.7957 18.0841 43.4256 18.792 43.9001C19.3771 44.2904 20.0614 44.6009 20.7598 44.7694C22.3359 45.1553 23.9876 44.867 25.5024 44.4013C27.1682 43.8913 28.8057 43.2171 30.5328 42.9022C30.5847 42.8933 30.9481 42.8312 30.7546 42.8578C30.9245 42.8357 31.0991 42.8224 31.269 42.8135C31.4389 42.8046 31.6088 42.8046 31.7787 42.809C31.8542 42.809 32.3402 42.849 32.1373 42.8224C32.8499 42.9111 33.5105 43.1461 34.1193 43.4389C35.4878 44.0864 36.7997 44.8138 38.3475 44.9735C40.3389 45.1775 42.1086 44.1396 43.5856 43.0086C44.1802 42.5562 44.0858 41.5982 43.5856 41.1281C43.0005 40.5781 42.1793 40.6713 41.5848 41.1281C41.2733 41.3676 40.9477 41.5849 40.6032 41.7756C40.2587 41.9664 39.9944 42.0994 39.7443 42.1748C39.6075 42.2147 39.4659 42.2502 39.3291 42.2857C39.263 42.3034 39.1922 42.3123 39.1262 42.3256C39.1497 42.3212 39.3385 42.3079 39.1733 42.3212C39.0223 42.3345 38.876 42.3389 38.725 42.3389C38.6495 42.3389 38.2814 42.299 38.4183 42.3212C38.5551 42.3433 38.2012 42.2724 38.121 42.2546C38.003 42.2236 37.8803 42.1926 37.7624 42.1526C37.6444 42.1127 37.5264 42.0728 37.4084 42.0284C37.6538 42.1172 37.2291 41.9486 37.1536 41.9176C36.6109 41.6736 36.0871 41.3986 35.5491 41.1458C34.1476 40.4805 32.6375 40.0503 31.0519 40.1745C29.4663 40.2987 27.9799 40.7866 26.4887 41.2789C25.6204 41.5672 24.7521 41.8732 23.8602 42.0905C23.1382 42.2635 22.7937 42.33 22.0811 42.2946C22.0103 42.2946 21.9443 42.2857 21.8735 42.2813C21.6422 42.268 22.0717 42.3212 21.8452 42.2813C21.713 42.2546 21.5809 42.2325 21.4535 42.197C21.0382 42.0905 21.0948 42.1038 20.7834 41.9397C20.1746 41.6204 19.8537 41.3365 19.3346 40.8487C18.103 39.6866 16.5174 39.0214 14.7525 39.0923C13.1292 39.1588 11.6144 39.6999 10.1467 40.3076C8.67913 40.9152 7.30118 41.6515 5.80526 41.6781C5.09269 41.6914 4.4981 41.5849 3.94597 41.2966C3.32778 40.9773 2.97858 40.5914 2.62937 39.9439C2.28016 39.2963 1.32221 39.1189 0.694578 39.4649C0.000884436 39.8463 -0.159562 40.6402 0.184926 41.2833H0.175488V41.2789Z" fill="#CFCFCF" fill-opacity="0.998047"/>
</g>
<defs>
<clipPath id="clip0_42_5341">
<rect width="44" height="45" fill="white"/>
</clipPath>
</defs>
</svg>
