<svg width="39" height="35" viewBox="0 0 39 35" fill="none" xmlns="http://www.w3.org/2000/svg">
<g clip-path="url(#clip0_42_5334)">
<path d="M39.0014 7.65708C38.9616 4.73786 37.3347 1.95621 34.7078 0.723309C31.7477 -0.667521 28.2651 0.0100624 26.0263 2.45038L27.8372 2.21094C22.6432 -0.708278 16.3546 -0.708278 11.1606 2.21094L12.9715 2.45038C10.5636 -0.173344 6.58347 -0.805076 3.57352 1.11559C0.76755 2.9038 -0.64041 6.48022 0.284963 9.75606C0.827252 11.6767 2.11083 13.2815 3.78248 14.2954L3.09591 12.5683C1.86208 16.9751 2.32476 21.7233 4.42924 25.7735C6.25511 29.2786 9.27999 32.0756 12.8472 33.6192C16.4143 35.1629 20.8671 35.4584 24.7327 34.1694C28.5984 32.8805 31.7078 30.3689 33.8621 26.9962C36.5636 22.7575 37.2601 17.4184 35.9019 12.5734L35.2153 14.3005C37.5337 12.8994 38.9566 10.4235 38.9964 7.66217C39.0263 5.69565 36.0412 5.69565 36.0113 7.66217C35.9865 9.34849 35.1307 10.7954 33.7078 11.6614C33.1457 12.0028 32.8372 12.7364 33.0213 13.3885C33.3347 14.5042 33.5437 15.6352 33.5934 16.7968C33.6133 17.2961 33.6133 17.8005 33.5934 18.2997C33.5735 18.6716 33.5188 19.2932 33.4939 19.4613C33.2452 21.2342 32.7228 22.8492 31.9516 24.3063C30.4093 27.2306 27.9666 29.5435 24.9964 30.8274C21.877 32.1724 18.3845 32.315 15.1357 31.2502C12.1457 30.2721 9.41929 28.1374 7.71282 25.4526C5.43919 21.8863 4.78745 17.617 5.97651 13.3834C6.16058 12.7313 5.8571 11.9977 5.28994 11.6564C4.09591 10.9329 3.28496 9.82738 3.03621 8.3958C2.8173 7.11705 3.17054 5.79245 3.94168 4.79391C4.31481 4.31501 4.74267 3.9431 5.28994 3.62724C5.76257 3.35213 6.43919 3.12287 6.89193 3.06683C8.43422 2.88852 9.81233 3.46421 10.8621 4.6054C11.3248 5.10977 12.1009 5.16581 12.673 4.84485C16.9218 2.45548 22.086 2.45548 26.3347 4.84485C26.9019 5.16581 27.683 5.10468 28.1457 4.6054C28.877 3.81064 29.7576 3.26043 30.8223 3.08211C31.7327 2.92928 32.683 3.10249 33.3546 3.42855C35.0362 4.24878 35.9964 5.83321 36.0213 7.65198C36.0462 9.6185 39.0312 9.6236 39.0064 7.65198L39.0014 7.65708Z" fill="#CFCFCF" fill-opacity="0.998047"/>
<path d="M23.3923 19.9505C23.3426 18.4782 22.0391 17.5765 20.7356 17.3268C19.9595 17.1791 19.2281 17.174 18.447 17.2963C17.8849 17.3829 17.2878 17.5714 16.8152 17.9025C16.2033 18.3254 15.7356 18.896 15.6361 19.6652C15.5416 20.3938 15.8052 21.1325 16.3426 21.6318C17.2978 22.5131 18.7356 22.8188 19.9893 22.6864C20.7306 22.6048 21.4868 22.452 22.1286 22.0393C22.86 21.5655 23.3575 20.8574 23.3873 19.9556C23.4122 19.1558 22.6809 18.3916 21.8948 18.4273C21.064 18.4629 20.4321 19.0997 20.4023 19.9556C20.4023 19.9862 20.4023 20.0117 20.3973 20.0423L20.452 19.6347C20.4421 19.6907 20.4271 19.7468 20.4072 19.8028L20.5565 19.436C20.5266 19.5073 20.4868 19.5685 20.4421 19.6347L20.6759 19.3239C20.6112 19.4054 20.5366 19.4767 20.457 19.5379L20.7605 19.2984C20.6162 19.4105 20.462 19.4971 20.2978 19.5685L20.656 19.4156C20.3674 19.5379 20.064 19.6143 19.7555 19.6602L20.1535 19.6041C19.7207 19.6602 19.2829 19.6602 18.85 19.6041L19.248 19.6602C18.9396 19.6143 18.6361 19.5379 18.3475 19.4156L18.7057 19.5685C18.5416 19.492 18.3873 19.4054 18.2431 19.2984L18.5465 19.5379C18.4669 19.4717 18.3973 19.4003 18.3276 19.3239L18.5615 19.6347C18.5167 19.5735 18.4769 19.5073 18.447 19.436L18.5963 19.8028C18.5764 19.7468 18.5615 19.6958 18.5515 19.6347L18.6062 20.0423C18.6013 19.9862 18.6013 19.9302 18.6062 19.869L18.5515 20.2766C18.5615 20.2206 18.5764 20.1645 18.5963 20.1085L18.447 20.4753C18.4769 20.404 18.5167 20.3428 18.5615 20.2766L18.3276 20.5874C18.3923 20.5059 18.4669 20.4345 18.5465 20.3734L18.2431 20.6128C18.3873 20.5008 18.5416 20.4142 18.7057 20.3428L18.3475 20.4957C18.6361 20.3734 18.9396 20.297 19.248 20.2511L18.85 20.3072C19.2829 20.2511 19.7207 20.2511 20.1535 20.3072L19.7555 20.2511C20.064 20.297 20.3674 20.3734 20.656 20.4957L20.2978 20.3428C20.462 20.4193 20.6162 20.5059 20.7605 20.6128L20.457 20.3734C20.5366 20.4396 20.6062 20.511 20.6759 20.5874L20.4421 20.2766C20.4868 20.3377 20.5266 20.404 20.5565 20.4753L20.4072 20.1085C20.4271 20.1645 20.4421 20.2155 20.452 20.2766L20.3973 19.869C20.3973 19.8996 20.4023 19.9251 20.4023 19.9556C20.4271 20.7555 21.0689 21.5197 21.8948 21.484C22.7207 21.4484 23.4172 20.8115 23.3873 19.9556L23.3923 19.9505Z" fill="#CFCFCF" fill-opacity="0.998047"/>
<path d="M28.1944 13.8014C28.1944 13.6078 28.1596 13.4142 28.1297 13.2257C28.1198 13.1543 28.1048 13.083 28.0849 13.0168C28.0053 12.7722 27.9108 12.5175 27.7616 12.3086C27.6571 12.1609 27.5526 12.008 27.4282 11.8756C27.3039 11.7431 27.1446 11.631 27.0004 11.519C26.8014 11.3661 26.5626 11.2693 26.3287 11.1827C26.2641 11.1572 26.1944 11.1369 26.1297 11.1216C25.9407 11.0859 25.7466 11.0554 25.5526 11.0452C25.4879 11.0452 25.4183 11.0452 25.3536 11.0554C25.1645 11.0757 24.9655 11.091 24.7815 11.1471C24.6073 11.198 24.4382 11.2795 24.274 11.3559C24.2093 11.3865 24.1496 11.4171 24.0949 11.4527C23.8859 11.5903 23.677 11.7533 23.5128 11.9469C23.3984 12.0845 23.284 12.2322 23.1894 12.385C23.0949 12.5379 23.0302 12.7315 22.9606 12.9098C22.866 13.1543 22.8412 13.4193 22.8163 13.6842C22.8113 13.7555 22.8063 13.8319 22.8163 13.9083C22.8312 14.1019 22.8511 14.3057 22.8959 14.4942C22.9108 14.5605 22.9307 14.6216 22.9556 14.6827C23.0252 14.8559 23.0899 15.0444 23.1844 15.2075C23.279 15.3705 23.3934 15.508 23.5078 15.6507C23.5526 15.7067 23.5974 15.7577 23.6471 15.8035C23.8312 15.9717 24.0352 16.1449 24.2641 16.2519C24.4282 16.3283 24.5974 16.4098 24.7715 16.4607C24.9556 16.5168 25.1546 16.5321 25.3437 16.5524C25.6024 16.583 25.866 16.5372 26.1198 16.4913C26.1994 16.476 26.274 16.4556 26.3486 16.4251C26.5228 16.3538 26.7118 16.2875 26.876 16.1856C27.0402 16.0837 27.1894 15.9615 27.3337 15.8341C27.3884 15.7832 27.4432 15.7322 27.4879 15.6762C27.7665 15.345 27.9208 15.0648 28.07 14.6572C28.0949 14.5859 28.1148 14.5095 28.1297 14.4331C28.1646 14.2293 28.1994 14.0153 28.2044 13.8064C28.2093 13.4193 28.0352 13.0015 27.7665 12.7264C27.4979 12.4513 27.0849 12.2628 26.7118 12.2781C26.3387 12.2933 25.9257 12.4258 25.6571 12.7264C25.3884 13.027 25.2243 13.3887 25.2193 13.8064C25.2193 13.8625 25.2193 13.9185 25.2093 13.9746L25.2641 13.567C25.2491 13.6791 25.2193 13.781 25.1795 13.8829L25.3287 13.5161C25.284 13.6129 25.2342 13.7046 25.1695 13.7912L25.4034 13.4804C25.3437 13.5568 25.279 13.623 25.2044 13.6842L25.5078 13.4447C25.4233 13.511 25.3337 13.567 25.2392 13.6078L25.5974 13.4549C25.4979 13.4957 25.3934 13.5262 25.2889 13.5415L25.6869 13.4855C25.5775 13.5008 25.468 13.5008 25.3536 13.4855L25.7516 13.5415C25.6422 13.5262 25.5427 13.4957 25.4432 13.4549L25.8014 13.6078C25.7068 13.5619 25.6173 13.511 25.5327 13.4447L25.8362 13.6842C25.7616 13.623 25.6969 13.5568 25.6372 13.4804L25.871 13.7912C25.8063 13.7046 25.7516 13.6129 25.7118 13.5161L25.8611 13.8829C25.8213 13.781 25.7914 13.674 25.7765 13.567L25.8312 13.9746C25.8163 13.8625 25.8163 13.7504 25.8312 13.6332L25.7765 14.0408C25.7914 13.9287 25.8213 13.8268 25.8611 13.7249L25.7118 14.0917C25.7566 13.9949 25.8063 13.9032 25.871 13.8166L25.6372 14.1274C25.6969 14.051 25.7616 13.9848 25.8362 13.9236L25.5327 14.1631C25.6173 14.0968 25.7068 14.0408 25.8014 14L25.4432 14.1529C25.5427 14.1121 25.6471 14.0816 25.7516 14.0663L25.3536 14.1223C25.4631 14.107 25.5725 14.107 25.6869 14.1223L25.2889 14.0663C25.3984 14.0816 25.4979 14.1121 25.5974 14.1529L25.2392 14C25.3337 14.0459 25.4233 14.0968 25.5078 14.1631L25.2044 13.9236C25.279 13.9848 25.3437 14.051 25.4034 14.1274L25.1695 13.8166C25.2342 13.9032 25.2889 13.9949 25.3287 14.0917L25.1795 13.7249C25.2193 13.8268 25.2491 13.9338 25.2641 14.0408L25.2093 13.6332C25.2143 13.6893 25.2193 13.7453 25.2193 13.8014C25.2243 14.1987 25.3835 14.6012 25.6571 14.8814C25.9158 15.1463 26.3387 15.345 26.7118 15.3297C27.0849 15.3145 27.4979 15.182 27.7665 14.8814C28.0352 14.5808 28.2093 14.214 28.2044 13.8014H28.1944Z" fill="#CFCFCF" fill-opacity="0.998047"/>
<path d="M16.3839 13.8014C16.3839 13.6078 16.349 13.4142 16.3192 13.2257C16.3092 13.1543 16.2943 13.083 16.2744 13.0168C16.1948 12.7722 16.1003 12.5175 15.951 12.3086C15.8465 12.1609 15.7421 12.008 15.6177 11.8756C15.4933 11.7431 15.3341 11.631 15.1898 11.519C14.9908 11.3661 14.752 11.2693 14.5182 11.1827C14.4535 11.1572 14.3839 11.1369 14.3192 11.1216C14.1301 11.0859 13.9361 11.0554 13.7421 11.0452C13.6774 11.0452 13.6077 11.0452 13.5431 11.0554C13.354 11.0757 13.155 11.091 12.9709 11.1471C12.7968 11.198 12.6276 11.2795 12.4635 11.3559C12.3988 11.3865 12.3391 11.4171 12.2844 11.4527C12.0754 11.5903 11.8664 11.7533 11.7023 11.9469C11.5878 12.0845 11.4734 12.2322 11.3789 12.385C11.2844 12.5379 11.2197 12.7315 11.15 12.9098C11.0555 13.1543 11.0306 13.4193 11.0057 13.6842C11.0008 13.7555 10.9958 13.8319 11.0057 13.9083C11.0207 14.1019 11.0406 14.3057 11.0853 14.4942C11.1003 14.5605 11.1202 14.6216 11.145 14.6827C11.2147 14.8559 11.2794 15.0444 11.3739 15.2075C11.4684 15.3705 11.5829 15.508 11.6973 15.6507C11.7421 15.7067 11.7868 15.7577 11.8366 15.8035C12.0207 15.9717 12.2247 16.1449 12.4535 16.2519C12.6177 16.3283 12.7868 16.4098 12.961 16.4607C13.145 16.5168 13.3441 16.5321 13.5331 16.5524C13.7918 16.583 14.0555 16.5372 14.3092 16.4913C14.3888 16.476 14.4635 16.4556 14.5381 16.4251C14.7122 16.3538 14.9013 16.2875 15.0654 16.1856C15.2296 16.0837 15.3789 15.9615 15.5232 15.8341C15.5779 15.7832 15.6326 15.7322 15.6774 15.6762C15.956 15.345 16.1102 15.0648 16.2595 14.6572C16.2844 14.5859 16.3043 14.5095 16.3192 14.4331C16.354 14.2293 16.3888 14.0153 16.3938 13.8064C16.3988 13.4193 16.2246 13.0015 15.956 12.7264C15.6873 12.4513 15.2744 12.2628 14.9013 12.2781C14.5281 12.2933 14.1152 12.4258 13.8465 12.7264C13.5779 13.027 13.4137 13.3887 13.4087 13.8064C13.4087 13.8625 13.4087 13.9185 13.3988 13.9746L13.4535 13.567C13.4386 13.6791 13.4087 13.781 13.3689 13.8829L13.5182 13.5161C13.4734 13.6129 13.4237 13.7046 13.359 13.7912L13.5928 13.4804C13.5331 13.5568 13.4684 13.623 13.3938 13.6842L13.6973 13.4447C13.6127 13.511 13.5232 13.567 13.4286 13.6078L13.7868 13.4549C13.6873 13.4957 13.5829 13.5262 13.4784 13.5415L13.8764 13.4855C13.7669 13.5008 13.6575 13.5008 13.5431 13.4855L13.9411 13.5415C13.8316 13.5262 13.7321 13.4957 13.6326 13.4549L13.9908 13.6078C13.8963 13.5619 13.8067 13.511 13.7222 13.4447L14.0256 13.6842C13.951 13.623 13.8863 13.5568 13.8266 13.4804L14.0605 13.7912C13.9958 13.7046 13.9411 13.6129 13.9013 13.5161L14.0505 13.8829C14.0107 13.781 13.9809 13.674 13.9659 13.567L14.0207 13.9746C14.0057 13.8625 14.0057 13.7504 14.0207 13.6332L13.9659 14.0408C13.9809 13.9287 14.0107 13.8268 14.0505 13.7249L13.9013 14.0917C13.946 13.9949 13.9958 13.9032 14.0605 13.8166L13.8266 14.1274C13.8863 14.051 13.951 13.9848 14.0256 13.9236L13.7222 14.1631C13.8067 14.0968 13.8963 14.0408 13.9908 14L13.6326 14.1529C13.7321 14.1121 13.8366 14.0816 13.9411 14.0663L13.5431 14.1223C13.6525 14.107 13.762 14.107 13.8764 14.1223L13.4784 14.0663C13.5878 14.0816 13.6873 14.1121 13.7868 14.1529L13.4286 14C13.5232 14.0459 13.6127 14.0968 13.6973 14.1631L13.3938 13.9236C13.4684 13.9848 13.5331 14.051 13.5928 14.1274L13.359 13.8166C13.4237 13.9032 13.4784 13.9949 13.5182 14.0917L13.3689 13.7249C13.4087 13.8268 13.4386 13.9338 13.4535 14.0408L13.3988 13.6332C13.4038 13.6893 13.4087 13.7453 13.4087 13.8014C13.4137 14.1987 13.5729 14.6012 13.8465 14.8814C14.1052 15.1463 14.5281 15.345 14.9013 15.3297C15.2744 15.3145 15.6873 15.182 15.956 14.8814C16.2246 14.5808 16.3988 14.214 16.3938 13.8014H16.3839Z" fill="#CFCFCF" fill-opacity="0.998047"/>
<path d="M18.005 21.1783C18.0199 22.9869 18.8209 24.7649 20.3334 25.7532C22.005 26.8486 24.1941 26.4512 25.5423 25.0196C26.0846 24.4439 26.1443 23.425 25.5423 22.8595C24.9403 22.294 24.01 22.243 23.4329 22.8595C23.3582 22.9359 23.2786 23.0072 23.204 23.0837C23.005 23.2823 23.5125 22.8646 23.2289 23.0633C23.0697 23.1754 22.9005 23.2671 22.7214 23.3435L23.0796 23.1906C22.8657 23.2772 22.6418 23.3384 22.413 23.369L22.811 23.3129C22.602 23.3384 22.3931 23.3384 22.1841 23.3129L22.5821 23.369C22.3533 23.3384 22.1393 23.2772 21.9254 23.1906L22.2836 23.3435C22.1095 23.2671 21.9453 23.1805 21.7911 23.0735C21.7463 23.0429 21.5672 22.9053 21.7911 23.0786C21.8358 23.1091 22.015 23.2518 21.7911 23.0786C21.7164 23.0123 21.6518 22.9461 21.5821 22.8748C21.5523 22.8442 21.3831 22.6863 21.3881 22.6506C21.3881 22.6506 21.6169 22.9767 21.5025 22.7984C21.4727 22.7525 21.4378 22.7067 21.408 22.6557C21.2886 22.4672 21.1941 22.2736 21.1045 22.0698L21.2538 22.4366C21.1145 22.0953 21.0249 21.7438 20.9702 21.3821L21.0249 21.7896C21 21.5858 20.9851 21.3821 20.9851 21.1783C20.9801 20.3784 20.3035 19.6142 19.4926 19.6499C18.6816 19.6855 17.9951 20.3224 18 21.1783H18.005Z" fill="#CFCFCF" fill-opacity="0.998047"/>
<path d="M18.194 21.1784C18.194 21.3821 18.1791 21.5859 18.1542 21.7897L18.2089 21.3821C18.1542 21.749 18.0647 22.0954 17.9254 22.4367L18.0746 22.0699C17.995 22.2635 17.9005 22.4469 17.791 22.6252C17.7114 22.7577 17.4577 23.0124 17.791 22.6456C17.7263 22.7169 17.6666 22.7984 17.597 22.8698C17.5273 22.9411 17.4627 23.0073 17.388 23.0736C17.3781 23.0786 17.2885 23.1551 17.2885 23.1551C17.2786 23.1398 17.6418 22.9003 17.4129 23.0481C17.2438 23.1602 17.0796 23.257 16.8955 23.3385L17.2537 23.1856C17.0398 23.2722 16.8258 23.3334 16.597 23.3639L16.995 23.3079C16.786 23.3334 16.5771 23.3334 16.3681 23.3079L16.7661 23.3639C16.5373 23.3334 16.3184 23.2722 16.0995 23.1856L16.4577 23.3385C16.2786 23.2621 16.1094 23.1703 15.9502 23.0583C15.6666 22.8596 16.1741 23.2722 15.9751 23.0786C15.9005 23.0022 15.8209 22.9309 15.7462 22.8545C15.204 22.2788 14.1741 22.2533 13.6368 22.8545C13.0995 23.4556 13.0597 24.3982 13.6368 25.0146C14.9851 26.4462 17.1791 26.8436 18.8457 25.7482C20.3582 24.7548 21.1592 22.9819 21.1741 21.1733C21.1791 20.3734 20.4826 19.6092 19.6816 19.6449C18.8806 19.6805 18.194 20.3174 18.189 21.1733L18.194 21.1784Z" fill="#CFCFCF" fill-opacity="0.998047"/>
</g>
<defs>
<clipPath id="clip0_42_5334">
<rect width="39" height="35" fill="white"/>
</clipPath>
</defs>
</svg>
