<svg width="37" height="41" viewBox="0 0 37 41" fill="none" xmlns="http://www.w3.org/2000/svg">
<g clip-path="url(#clip0_42_5327)">
<path d="M4.80727 18.1916V27.0121C4.80727 30.1342 4.79267 33.2514 4.80727 36.3734C4.80727 37.1749 4.817 37.9763 4.84134 38.7728C4.85594 39.3333 4.84134 39.9233 5.19664 40.3903C5.8099 41.1868 7.06562 40.9705 7.95631 40.9705H10.789C11.4168 40.9705 12.0301 40.8476 12.3805 40.2379C12.6288 39.8102 12.6093 39.2546 12.6239 38.7728C12.7164 35.3803 12.658 31.9779 12.658 28.5855C12.658 25.193 12.7212 21.7808 12.658 18.3785C12.658 18.3146 12.658 18.2506 12.658 18.1867C12.658 16.2889 9.73768 16.284 9.73768 18.1867V34.4609C9.73768 34.8296 9.73768 35.1984 9.73768 35.5671C9.73768 36.4423 9.73282 37.3224 9.71335 38.1975C9.71335 38.463 9.70361 38.7285 9.69388 38.9989C9.69388 39.0874 9.68414 39.1759 9.68414 39.2644C9.68414 39.6676 9.46512 39.348 9.85936 38.7433L11.12 38.0107H6.34529L7.60588 38.7433C8.1656 39.6037 7.76649 39.6381 7.78596 39.3283C7.78596 39.2546 7.77623 39.171 7.77623 39.0924C7.76649 38.8957 7.76162 38.6941 7.75676 38.4974C7.74216 37.7501 7.73242 37.0028 7.73242 36.2554C7.73242 35.7441 7.73242 35.2377 7.73242 34.7264V18.1818C7.73242 16.284 4.81214 16.2791 4.81214 18.1818L4.80727 18.1916Z" fill="#CFCFCF" fill-opacity="0.998047"/>
<path d="M9.71078 19.2339C10.363 18.4178 10.2218 17.1984 10.2316 16.2004C10.2316 15.925 10.2316 15.6497 10.2316 15.3744V2.4583C10.2316 0.560468 7.31128 0.555551 7.31128 2.4583V14.9564C7.31128 15.2023 7.31128 15.453 7.31128 15.6989C7.31128 16.0824 7.31128 16.4609 7.30154 16.8444C7.29668 17.105 7.29181 17.3607 7.27721 17.6213C7.27234 17.7245 7.25774 17.8278 7.25774 17.931C7.25774 18.2162 7.31614 17.636 7.27721 17.7934L7.65198 17.1444L7.64224 17.1542C7.15066 17.7737 7.04358 18.6341 7.64224 19.2388C8.15329 19.7551 9.20946 19.8633 9.70591 19.2388L9.71078 19.2339Z" fill="#CFCFCF" fill-opacity="0.998047"/>
<path d="M24.7643 18.1916V27.0121C24.7643 30.1342 24.7497 33.2514 24.7643 36.3734C24.7643 37.1749 24.774 37.9763 24.7984 38.7728C24.813 39.3333 24.7984 39.9233 25.1537 40.3903C25.7669 41.1868 27.0227 40.9705 27.9133 40.9705H30.746C31.3739 40.9705 31.9871 40.8476 32.3376 40.2379C32.5858 39.8102 32.5663 39.2546 32.5809 38.7728C32.6734 35.3803 32.615 31.9779 32.615 28.5855C32.615 25.193 32.6783 21.7808 32.615 18.3785C32.615 18.3146 32.615 18.2506 32.615 18.1867C32.615 16.2889 29.6947 16.284 29.6947 18.1867V34.4609C29.6947 34.8296 29.6947 35.1984 29.6947 35.5671C29.6947 36.4423 29.6898 37.3224 29.6704 38.1975C29.6704 38.463 29.6606 38.7285 29.6509 38.9989C29.6509 39.0874 29.6412 39.1759 29.6412 39.2644C29.6412 39.6676 29.4222 39.348 29.8164 38.7433L31.077 38.0107H26.3023L27.5629 38.7433C28.1226 39.6037 27.7235 39.6381 27.743 39.3283C27.743 39.2546 27.7333 39.171 27.7333 39.0924C27.7235 38.8957 27.7187 38.6941 27.7138 38.4974C27.6992 37.7501 27.6895 37.0028 27.6895 36.2554C27.6895 35.7441 27.6895 35.2377 27.6895 34.7264V18.1818C27.6895 16.284 24.7692 16.2791 24.7692 18.1818L24.7643 18.1916Z" fill="#CFCFCF" fill-opacity="0.998047"/>
<path d="M34.0804 9.83326C34.0658 11.2493 33.7446 12.6554 33.0632 13.8551C32.6982 14.4992 32.4451 14.8335 31.9194 15.3448C31.4717 15.7824 31.0726 16.0725 30.4009 16.3773C30.2451 16.4462 30.3717 16.3872 30.4009 16.3773C30.3328 16.4068 30.2597 16.4314 30.1916 16.456C30.0505 16.5052 29.9044 16.5494 29.7584 16.5887C29.6124 16.6281 29.4664 16.6576 29.3155 16.6871C29.1452 16.7166 29.2961 16.692 29.3301 16.6871C29.2036 16.7018 29.077 16.7117 28.9505 16.7166C28.2155 16.7461 27.9771 16.7018 27.247 16.4609C27.174 16.4363 27.1058 16.4117 27.0377 16.3822C27.0669 16.397 27.1934 16.4511 27.0377 16.3822C26.9014 16.3183 26.7651 16.2495 26.6337 16.1757C26.478 16.0872 26.3271 15.9987 26.1811 15.8955C26.1178 15.8512 26.0545 15.807 25.9913 15.7627C25.7868 15.6152 26.1178 15.8709 25.9231 15.7087C25.4072 15.2809 24.9789 14.7991 24.6771 14.3467C23.1343 12.0113 22.9201 8.73193 24.1417 6.25885C24.7355 5.05427 25.5045 4.14468 26.5656 3.53502C27.0864 3.2351 27.4757 3.08269 28.1912 2.97452C27.9771 3.00894 28.347 2.96469 28.4054 2.95977C28.5611 2.94994 28.712 2.94994 28.8677 2.95485C28.97 2.95485 29.0722 2.96469 29.1744 2.9696C29.1744 2.9696 29.4226 2.9991 29.2815 2.97944C29.1403 2.95977 29.3837 2.9991 29.3885 2.9991C29.4859 3.01877 29.5832 3.03844 29.6806 3.06302C30.9022 3.36294 31.9924 4.19385 32.7031 5.25093C33.6327 6.6276 34.0512 8.17143 34.0658 9.83326C34.0853 11.7311 37.0056 11.736 36.9861 9.83326C36.9521 6.14085 35.161 2.18785 31.6566 0.648941C28.1523 -0.889973 24.3754 0.604691 22.2436 3.69727C20.1118 6.78985 19.9073 11.4263 21.6157 14.8974C23.2267 18.1719 26.7457 20.3156 30.3814 19.465C34.6304 18.4718 36.9472 13.9485 36.9861 9.83326C37.0056 7.93543 34.0853 7.93051 34.0658 9.83326H34.0804Z" fill="#CFCFCF" fill-opacity="0.998047"/>
<path d="M13.7734 1.86875C14.7079 4.57783 14.8345 7.63599 14.3185 10.3451C14.2115 10.9006 14.08 11.4513 13.9146 11.9921C13.7101 12.6608 13.569 13.0246 13.3062 13.5458C12.8 14.5488 12.4544 15.0454 11.6075 15.7681C11.4129 15.9353 11.8801 15.5813 11.5345 15.8271C11.4275 15.9058 11.3155 15.9796 11.2036 16.0484C11.0137 16.1664 10.8191 16.2696 10.6195 16.368C10.8969 16.2303 10.5027 16.4122 10.4735 16.4221C10.3908 16.4516 10.3031 16.4811 10.2155 16.5056C9.95271 16.5843 9.68015 16.6482 9.40759 16.6925C9.71909 16.6433 9.24698 16.7023 9.22264 16.7023C9.10096 16.7121 8.97442 16.7171 8.85274 16.7171C8.7408 16.7171 8.62398 16.7171 8.51204 16.7121C8.46337 16.7121 8.03993 16.6482 8.37576 16.7072C8.1616 16.6679 7.94745 16.6187 7.73816 16.5548C7.61162 16.5155 7.48994 16.4712 7.36339 16.427C7.60188 16.5204 7.29525 16.3926 7.22711 16.3581C7.02756 16.2549 6.82801 16.1418 6.63819 16.014C6.52138 15.9353 6.40943 15.8566 6.29749 15.7731C6.52138 15.9501 6.16121 15.6501 6.15634 15.6403C5.79617 15.3207 5.3484 14.8241 5.18291 14.598C4.45771 13.6097 3.97586 12.5871 3.62056 11.471C2.6374 8.36365 2.70554 4.95641 3.76658 1.87366C4.02454 1.12142 3.46968 0.261 2.74448 0.0594175C1.9414 -0.161832 1.20646 0.33475 0.948503 1.09192C-0.205009 4.43033 -0.297485 8.21615 0.622405 11.6332C1.35734 14.362 2.84669 17.1006 5.27539 18.6346C7.47047 20.021 10.3372 19.9719 12.5566 18.664C14.776 17.3562 16.1924 14.8094 16.8689 12.297C17.8375 8.69307 17.8083 4.61716 16.5915 1.087C16.3335 0.33475 15.5937 -0.161832 14.7955 0.0545008C14.0703 0.256084 13.5155 1.11158 13.7734 1.86875Z" fill="#CFCFCF" fill-opacity="0.998047"/>
<path d="M14.6112 6.88335C14.6015 8.9926 14.3727 10.9838 13.5696 12.98C13.5648 12.9948 13.4674 13.216 13.375 13.4078C13.2873 13.5897 13.1949 13.7667 13.0975 13.9437C12.9905 14.1354 12.8736 14.3223 12.752 14.5042C12.6984 14.5828 12.6449 14.6615 12.5913 14.7402C12.5329 14.8237 12.5378 14.8188 12.6059 14.7254C12.5621 14.7795 12.5183 14.8336 12.4745 14.8877C12.2214 15.1876 11.9538 15.4629 11.6617 15.7186C11.4476 15.9054 11.5936 15.7776 11.6423 15.7382C11.5546 15.8071 11.4622 15.871 11.3697 15.93C11.1847 16.0529 10.9901 16.1611 10.7954 16.2692C10.737 16.3037 10.4693 16.4266 10.7175 16.3184C10.6348 16.3528 10.552 16.3872 10.4644 16.4167C10.2941 16.4757 10.1188 16.5298 9.94362 16.5741C9.83168 16.6036 9.71973 16.6282 9.60292 16.6478C9.56399 16.6577 9.27682 16.7019 9.44718 16.6773C9.65646 16.6478 9.18435 16.697 9.21355 16.697C9.06754 16.7068 8.91666 16.7117 8.77064 16.7117C8.56622 16.7117 8.35694 16.7019 8.15252 16.6872C8.05517 16.6773 7.95296 16.6724 7.85562 16.6577C8.10871 16.6921 7.80208 16.6429 7.73881 16.6331C7.53439 16.5888 7.32997 16.5446 7.12555 16.4807C7.03794 16.4561 6.95033 16.4266 6.86759 16.3971C6.80919 16.3774 6.44902 16.2201 6.71671 16.3479C6.37601 16.1906 6.06451 16.0037 5.75788 15.7923C5.55346 15.6497 6.00124 16.0185 5.69461 15.7432C5.63134 15.6842 5.5632 15.6301 5.49992 15.5711C5.33931 15.4236 5.18843 15.2662 5.04241 15.104C4.98401 15.0352 4.70171 14.6664 4.85259 14.8828C4.73092 14.7156 4.61897 14.5484 4.5119 14.3714C4.40482 14.1944 4.30261 14.0076 4.20527 13.8208C4.16146 13.7372 4.11766 13.6487 4.07872 13.5651C4.07872 13.5651 3.89377 13.1472 3.99111 13.3832C3.09556 11.2493 2.93494 9.14501 2.93007 6.87843C2.92521 4.98552 5.5586e-05 4.9806 0.00978987 6.88335C0.0243913 11.0822 0.817735 16.5151 4.88666 18.7227C6.77025 19.7453 9.21355 19.9912 11.2383 19.2635C13.263 18.5358 14.8497 16.9625 15.828 15.0352C17.0935 12.5277 17.5169 9.67109 17.5315 6.88335C17.5412 4.98552 14.6209 4.9806 14.6112 6.88335Z" fill="#CFCFCF" fill-opacity="0.998047"/>
</g>
<defs>
<clipPath id="clip0_42_5327">
<rect width="37" height="41" fill="white"/>
</clipPath>
</defs>
</svg>
