<svg width="40" height="37" viewBox="0 0 40 37" fill="none" xmlns="http://www.w3.org/2000/svg">
<g clip-path="url(#clip0_42_5360)">
<path d="M6.49585 19.7032C5.84819 16.1945 6.56559 12.4794 8.51851 9.41869C10.3867 6.4889 13.2912 4.39475 16.5095 3.49366C19.5186 2.65298 22.8516 2.84931 25.6962 4.07257C28.9245 5.46196 31.5002 8.00917 32.9998 11.241C34.6588 14.8202 34.6239 18.933 33.1741 22.6078C32.8752 23.3679 33.5029 24.264 34.2203 24.4654C35.0723 24.702 35.7598 24.1734 36.0587 23.4082C39.2023 15.4343 35.7548 5.96536 28.232 1.95829C20.7093 -2.04879 11.9162 0.0352937 6.91433 6.5191C3.84047 10.496 2.69961 15.5602 3.61628 20.5036C3.76574 21.304 4.72227 21.7621 5.45462 21.5607C6.2866 21.3292 6.6453 20.5086 6.50083 19.7032H6.49585Z" fill="#CFCFCF" fill-opacity="0.998047"/>
<path d="M2.54629 27.0427C4.5291 25.3412 6.93538 24.9234 9.47616 25.1449C12.017 25.3664 14.7819 26.348 17.253 27.3498C19.724 28.3515 22.2847 29.7157 24.9899 30.3601C27.6951 31.0044 30.6394 31.09 33.3048 30.1839C36.1196 29.2274 38.4561 27.2642 39.8162 24.581C40.1848 23.8561 40.0055 22.94 39.2781 22.5171C38.6105 22.1244 37.6042 22.3308 37.2355 23.0608C36.6526 24.2136 36.0847 24.9485 35.1132 25.8144C34.8591 26.0409 34.3659 26.3782 33.9176 26.6349C33.3148 26.9772 33.0407 27.0981 32.4329 27.2994C30.0466 28.0898 27.5008 27.9538 25.0248 27.2491C22.4292 26.5091 20.0528 25.2204 17.4373 24.1934C14.8218 23.1665 12.1116 22.3208 9.29681 22.1093C6.04361 21.8627 2.93488 22.7638 0.433943 24.9083C-0.183818 25.4368 -0.104107 26.499 0.433943 27.0427C1.04672 27.6619 1.92853 27.5712 2.54629 27.0427Z" fill="#CFCFCF" fill-opacity="0.998047"/>
<path d="M8.56899 32.6556C9.66003 32.1119 11.0649 32.2227 12.3901 32.5851C14.0192 33.0281 15.5387 33.7732 17.0333 34.5484C18.6624 35.3891 20.2765 36.3757 22.08 36.7785C23.8835 37.1812 25.8214 37.0352 27.5452 36.1643C28.2676 35.7968 28.4718 34.7699 28.0832 34.1004C27.6548 33.3604 26.763 33.1892 26.0407 33.5567C24.7453 34.2111 23.196 34.0601 21.7363 33.5315C20.1371 32.9526 18.6574 31.9609 17.123 31.226C14.0142 29.7309 10.3824 28.3868 7.06942 30.048C6.34704 30.4104 6.14777 31.4475 6.53138 32.1119C6.9648 32.857 7.85159 33.0181 8.57397 32.6556H8.56899Z" fill="#CFCFCF" fill-opacity="0.998047"/>
<path d="M13.337 19.0437C19.3353 15.8421 25.4083 12.1119 29.0052 6.09624C30.0016 4.42998 27.416 2.90971 26.4246 4.57093C23.1066 10.1335 17.3575 13.4862 11.8275 16.4361C11.1151 16.8187 10.8959 17.8205 11.2894 18.5001C11.7129 19.23 12.6196 19.4263 13.332 19.0437H13.337Z" fill="#CFCFCF" fill-opacity="0.998047"/>
<path d="M18.9269 21.5254C24.7757 18.3993 30.2159 14.4023 33.6834 8.58797C34.6798 6.91668 32.0941 5.39641 31.1027 7.06267C27.8993 12.439 22.8178 16.0333 17.4173 18.9178C16.7049 19.3004 16.4857 20.3021 16.8793 20.9817C17.3028 21.7116 18.2095 21.908 18.9219 21.5254H18.9269Z" fill="#CFCFCF" fill-opacity="0.998047"/>
</g>
<defs>
<clipPath id="clip0_42_5360">
<rect width="40" height="37" fill="white"/>
</clipPath>
</defs>
</svg>
