<svg width="33" height="46" viewBox="0 0 33 46" fill="none" xmlns="http://www.w3.org/2000/svg">
<g clip-path="url(#clip0_42_5350)">
<path d="M15.9866 14.931V13.3697C15.9866 12.8493 15.9402 12.3064 15.9959 11.786L15.9449 12.1449C15.9588 12.0776 15.9727 12.0148 16.0005 11.952L15.8614 12.275C15.8892 12.2122 15.9217 12.1583 15.9634 12.1L15.7455 12.3737C15.8011 12.3064 15.8614 12.2481 15.931 12.1942L15.6481 12.4051C15.7223 12.3513 15.8011 12.3064 15.8846 12.2705L15.5507 12.4051C15.6434 12.3692 15.7316 12.3468 15.8289 12.3288L15.4579 12.3782C15.8568 12.3288 16.2788 12.3647 16.6776 12.3647C17.0764 12.3647 17.4984 12.3288 17.8972 12.3782L17.5262 12.3288C17.6236 12.3468 17.7117 12.3692 17.8045 12.4051L17.4706 12.2705C17.5541 12.3064 17.6329 12.3513 17.7071 12.4051L17.4242 12.1942C17.4938 12.2481 17.5541 12.3064 17.6097 12.3737L17.3918 12.1C17.4335 12.1538 17.466 12.2122 17.4938 12.275L17.3547 11.952C17.3778 12.0148 17.3964 12.0776 17.4103 12.1449L17.3593 11.786C17.4149 12.3064 17.3686 12.8493 17.3686 13.3697V14.931C17.3686 15.6354 18.0085 16.3083 18.7598 16.2769C19.5111 16.2455 20.151 15.6847 20.151 14.931V12.7864C20.151 12.4948 20.1557 12.1987 20.151 11.9071C20.1371 11.3508 19.9377 10.9021 19.5806 10.4714C19.1633 9.97341 18.5326 9.75357 17.8972 9.68628C17.5587 9.65038 17.2016 9.67282 16.8631 9.67282C16.4689 9.67282 16.0701 9.67282 15.6759 9.67282C14.6093 9.68179 13.5241 10.3234 13.2737 11.3822C13.1902 11.7411 13.2088 12.109 13.2088 12.4769V14.9355C13.2088 15.6399 13.8488 16.3128 14.6 16.2814C15.3513 16.25 15.9912 15.6892 15.9912 14.9355L15.9866 14.931Z" fill="#CFCFCF" fill-opacity="0.998047"/>
<path d="M30.217 30.0416C30.1892 35.5375 26.572 40.6566 21.2436 42.514C18.4611 43.4831 15.5488 43.5953 12.7524 42.8371C9.95605 42.0788 7.69298 40.6073 5.84728 38.4627C2.21617 34.2544 1.75706 27.9554 4.6972 23.2086C7.63733 18.4619 13.564 15.9046 19.1382 16.9993C21.9624 17.5557 24.4295 18.8702 26.405 20.8577C27.3789 21.8403 28.1116 22.8363 28.7794 24.1149C29.3915 25.2814 29.8321 26.6498 30.0732 28.072C30.1011 28.247 30.1382 28.5565 30.166 28.8661C30.1985 29.2564 30.2124 29.6513 30.2124 30.0416C30.2216 31.7734 33.0041 31.7778 32.9948 30.0416C32.9577 23.3567 28.5939 17.3538 22.1247 15.0253C15.7065 12.7103 8.11499 14.7067 3.77898 19.8303C-0.55702 24.9539 -1.28973 32.5091 2.3321 38.2967C5.93539 44.0529 12.9936 46.996 19.7967 45.6949C26.5998 44.3939 31.7381 39.0684 32.763 32.6527C32.9021 31.7868 32.9856 30.9209 32.9902 30.0416C32.9995 28.3098 30.217 28.3053 30.2077 30.0416H30.217Z" fill="#CFCFCF" fill-opacity="0.998047"/>
<path d="M15.6546 16.7705C19.2022 18.8567 21.8224 22.1991 22.8844 26.0934C23.9788 30.1088 23.3388 34.4607 21.1221 38.023C19.9396 39.9253 18.3119 41.5897 16.4291 42.8325C15.8076 43.2408 15.534 44.0169 15.9282 44.672C16.2853 45.2642 17.2081 45.5648 17.8296 45.1565C21.892 42.4736 24.8599 38.355 25.8106 33.6576C26.7659 28.9333 25.8106 23.913 23.0003 19.9155C21.4421 17.6992 19.4202 15.8373 17.0551 14.4465C15.5201 13.5447 14.1196 15.8732 15.65 16.7705H15.6546Z" fill="#CFCFCF" fill-opacity="0.998047"/>
<path d="M15.7817 14.4465C11.608 16.9006 8.4731 20.8712 7.24882 25.4608C6.00135 30.1402 6.7387 35.2369 9.31712 39.3869C10.7547 41.6974 12.7071 43.6446 15.0073 45.161C15.6287 45.5693 16.5515 45.2732 16.9086 44.6765C17.3121 44.0125 17.0338 43.2453 16.4078 42.837C12.9575 40.5579 10.5507 37.018 9.72057 33.0295C8.89047 29.0411 9.82723 24.7071 12.2341 21.2794C13.5047 19.4714 15.2391 17.919 17.1822 16.775C18.7079 15.8777 17.3121 13.5492 15.7771 14.451L15.7817 14.4465Z" fill="#CFCFCF" fill-opacity="0.998047"/>
<path d="M17.8723 43.9452V15.7745C17.8723 14.0427 15.0898 14.0382 15.0898 15.7745V25.2814C15.0898 30.3377 15.0898 35.3939 15.0898 40.4457V43.9407C15.0898 45.6725 17.8723 45.677 17.8723 43.9407V43.9452Z" fill="#CFCFCF" fill-opacity="0.998047"/>
<path d="M1.35795 31.7554H31.6079C33.398 31.7554 33.4026 29.0635 31.6079 29.0635H1.35795C-0.432101 29.0635 -0.436739 31.7554 1.35795 31.7554Z" fill="#CFCFCF" fill-opacity="0.998047"/>
<path d="M4.38334 24.0701H29.342C31.1321 24.0701 31.1367 21.3782 29.342 21.3782H4.38334C2.59329 21.3782 2.58865 24.0701 4.38334 24.0701Z" fill="#CFCFCF" fill-opacity="0.998047"/>
<path d="M4.75834 39.4363H27.4493C29.2394 39.4363 29.244 36.7444 27.4493 36.7444H4.75834C2.96829 36.7444 2.96365 39.4363 4.75834 39.4363Z" fill="#CFCFCF" fill-opacity="0.998047"/>
<path d="M17.8723 11.0188V1.34595C17.8723 0.619136 17.2323 0 16.4811 0C15.7298 0 15.0898 0.614649 15.0898 1.34595V11.0188C15.0898 11.7456 15.7298 12.3648 16.4811 12.3648C17.2323 12.3648 17.8723 11.7501 17.8723 11.0188Z" fill="#CFCFCF" fill-opacity="0.998047"/>
</g>
<defs>
<clipPath id="clip0_42_5350">
<rect width="33" height="46" fill="white"/>
</clipPath>
</defs>
</svg>
