<svg width="34" height="31" viewBox="0 0 34 31" fill="none" xmlns="http://www.w3.org/2000/svg">
<g clip-path="url(#clip0_43_5640)">
<path d="M1.82988 26.8402C6.76988 22.5302 13.6799 26.9302 18.6199 28.9502C23.8799 31.1002 30.2599 30.2202 32.9899 24.7402C33.5899 23.5302 31.7799 22.4702 31.1799 23.6802C29.9099 26.2202 27.6199 27.8002 24.7699 27.9802C21.6599 28.1702 18.9699 26.8002 16.2099 25.5802C11.1499 23.3402 5.05988 21.2502 0.349884 25.3502C-0.670116 26.2402 0.819884 27.7202 1.82988 26.8302V26.8402Z" fill="white"/>
<path d="M3.86962 2.1C4.89962 2.1 5.92962 2.03 6.88962 2.49C8.24962 3.15 9.10962 4.53 9.17962 6.03C9.21962 6.95 9.17962 7.88 9.17962 8.8V24.55C9.17962 25.9 11.2796 25.9 11.2796 24.55V8.31C11.2796 7.01 11.3996 5.6 10.9996 4.35C10.4896 2.74 9.32962 1.35 7.80962 0.61C6.54962 0 5.23962 0 3.86962 0C2.49962 0 2.51962 2.1 3.86962 2.1Z" fill="white"/>
<path d="M17.7098 2.1C19.1298 2.1 20.4698 2.08 21.6198 3.08C22.5798 3.91 22.9998 5.07 23.0298 6.3C23.0598 7.63 23.0298 8.97 23.0298 10.31V28.55C23.0298 29.9 25.1298 29.9 25.1298 28.55C25.1298 21.11 25.3598 13.63 25.1298 6.19C25.0698 4.17 24.1698 2.31 22.5098 1.12C21.0398 0.0700001 19.4398 0 17.7098 0C16.3598 0 16.3598 2.1 17.7098 2.1Z" fill="white"/>
<path d="M24.0791 9.95996H10.2391C8.88906 9.95996 8.88906 12.06 10.2391 12.06H24.0791C25.4291 12.06 25.4291 9.95996 24.0791 9.95996Z" fill="white"/>
<path d="M24.0791 16.6899H10.5691C9.21914 16.6899 9.21914 18.7899 10.5691 18.7899H24.0791C25.4291 18.7899 25.4291 16.6899 24.0791 16.6899Z" fill="white"/>
<path d="M24.0791 22.6899H10.5691C9.21914 22.6899 9.21914 24.7899 10.5691 24.7899H24.0791C25.4291 24.7899 25.4291 22.6899 24.0791 22.6899Z" fill="white"/>
</g>
<defs>
<clipPath id="clip0_43_5640">
<rect width="33.11" height="30.03" fill="white"/>
</clipPath>
</defs>
</svg>
