<svg width="38" height="38" viewBox="0 0 38 38" fill="none" xmlns="http://www.w3.org/2000/svg">
<g clip-path="url(#clip0_43_5674)">
<path d="M32.2507 18.4602C35.6307 15.0202 38.4907 9.71015 36.4607 4.85015C34.6507 0.540153 29.8007 -0.819847 25.5707 0.460153C20.3707 2.04015 15.9607 6.66015 14.1407 11.7202C12.7307 15.6402 13.1707 20.7802 17.3207 22.8402C22.4707 25.3902 28.5707 22.0802 32.2507 18.4602C33.2107 17.5102 31.7307 16.0302 30.7707 16.9802C27.9907 19.7202 23.7207 22.3902 19.6307 21.4502C16.0007 20.6202 14.9607 16.9702 15.7507 13.6802C16.8207 9.23015 20.3107 5.21015 24.3707 3.19015C27.5107 1.63015 31.9107 1.40015 34.0407 4.70015C36.6907 8.81015 33.7407 13.9602 30.7807 16.9702C29.8307 17.9302 31.3107 19.4202 32.2607 18.4502L32.2507 18.4602Z" fill="white"/>
<path d="M0.488576 32.2002C0.00857565 32.7702 -0.241424 33.4502 0.308576 34.0802C0.488576 34.2802 0.688576 34.4602 0.868576 34.6402L2.83858 36.6102C2.97858 36.7502 3.11858 36.9102 3.26858 37.0402C3.89858 37.5502 4.57858 37.3502 5.13858 36.8402C5.35858 36.6402 5.55858 36.4202 5.76858 36.2102L13.3986 28.5802C14.2086 27.7702 15.0186 26.9602 15.8286 26.1502C16.2286 25.7502 16.2286 25.0702 15.8286 24.6702C14.7686 23.6102 13.7186 22.5602 12.6586 21.5002C12.2586 21.1002 11.5786 21.1002 11.1786 21.5002C8.05858 24.6202 4.94858 27.7302 1.82858 30.8502C1.37858 31.3002 0.928576 31.7502 0.478576 32.2002C-0.481424 33.1602 1.00858 34.6402 1.95858 33.6802C5.07858 30.5602 8.18858 27.4502 11.3086 24.3302C11.7586 23.8802 12.2086 23.4302 12.6586 22.9802H11.1786C12.2386 24.0402 13.2886 25.0902 14.3486 26.1502V24.6702C11.2086 27.8102 8.06858 30.9502 4.92858 34.0902C4.52858 34.4902 4.07858 35.1502 3.56858 35.4102L4.09858 35.2702H4.00858C4.25858 35.3702 4.49858 35.4702 4.74858 35.5702C3.74858 34.5702 2.75858 33.5802 1.75858 32.5802L2.06858 33.3202V33.2302C2.01858 33.4102 1.96858 33.5802 1.91858 33.7602L1.95858 33.6802C2.81858 32.6502 1.34858 31.1602 0.478576 32.2002H0.488576Z" fill="white"/>
<path d="M18.1494 20.8499C22.7994 16.1999 27.4494 11.5499 32.0894 6.90987C32.7494 6.24987 33.4094 5.58987 34.0694 4.92987C35.0294 3.96987 33.5394 2.48987 32.5894 3.44987C27.9394 8.09987 23.2894 12.7499 18.6494 17.3899C17.9894 18.0499 17.3294 18.7099 16.6694 19.3699C15.7094 20.3299 17.1994 21.8099 18.1494 20.8499Z" fill="white"/>
<path d="M21.5791 23.4201C25.9591 19.0401 30.3291 14.6701 34.7091 10.2901C35.3291 9.67011 35.9591 9.04011 36.5791 8.42011C37.5391 7.46011 36.0491 5.98011 35.0991 6.94011C30.7191 11.3201 26.3491 15.6901 21.9691 20.0701C21.3491 20.6901 20.7191 21.3201 20.0991 21.9401C19.1391 22.9001 20.6291 24.3801 21.5791 23.4201Z" fill="white"/>
<path d="M15.5791 17.4201C19.9591 13.0401 24.3291 8.67011 28.7091 4.29011C29.3291 3.67011 29.9591 3.04011 30.5791 2.42011C31.5391 1.46011 30.0491 -0.0198931 29.0991 0.940107C24.7191 5.32011 20.3491 9.69011 15.9691 14.0701C15.3491 14.6901 14.7191 15.3201 14.0991 15.9401C13.1391 16.9001 14.6291 18.3801 15.5791 17.4201Z" fill="white"/>
<path d="M14.86 12.1201C17.78 15.0401 20.7 17.9601 23.61 20.8701C24.03 21.2901 24.44 21.7001 24.86 22.1201C25.82 23.0801 27.3 21.5901 26.34 20.6401C23.42 17.7201 20.5 14.8001 17.59 11.8901C17.17 11.4701 16.76 11.0601 16.34 10.6401C15.38 9.68008 13.9 11.1701 14.86 12.1201Z" fill="white"/>
<path d="M17.1803 8.4399C20.4803 11.7399 23.7703 15.0299 27.0703 18.3299C27.5403 18.7999 28.0103 19.2699 28.4803 19.7399C29.4403 20.6999 30.9203 19.2099 29.9603 18.2599C26.6603 14.9599 23.3703 11.6699 20.0703 8.3699C19.6003 7.8999 19.1303 7.4299 18.6603 6.9599C17.7003 5.9999 16.2203 7.4899 17.1803 8.4399Z" fill="white"/>
<path d="M20.1803 5.4399C23.4803 8.7399 26.7703 12.0299 30.0703 15.3299C30.5403 15.7999 31.0103 16.2699 31.4803 16.7399C32.4403 17.6999 33.9203 16.2099 32.9603 15.2599C29.6603 11.9599 26.3703 8.6699 23.0703 5.3699C22.6003 4.8999 22.1303 4.4299 21.6603 3.9599C20.7003 2.9999 19.2203 4.4899 20.1803 5.4399Z" fill="white"/>
<path d="M24.36 3.62008C26.97 6.23008 29.58 8.84008 32.19 11.4501C32.56 11.8201 32.93 12.1901 33.3 12.5601C34.26 13.5201 35.74 12.0301 34.78 11.0801C32.17 8.47008 29.56 5.86008 26.95 3.25008C26.58 2.88008 26.21 2.51008 25.84 2.14008C24.88 1.18008 23.4 2.67008 24.36 3.62008Z" fill="white"/>
<path d="M13.7109 18.4502C13.3209 19.8902 12.9409 21.3402 12.5509 22.7802C12.5009 22.9902 12.4409 23.1902 12.3909 23.4002C12.1709 24.2202 12.9109 24.8402 13.6809 24.6902C15.2309 24.4002 16.7709 24.1102 18.3209 23.8202L18.9909 23.6902C19.5309 23.5902 19.8909 22.9102 19.7209 22.4002C19.5309 21.8202 19.0109 21.5602 18.4309 21.6702C16.8809 21.9602 15.3409 22.2502 13.7909 22.5402L13.1209 22.6702L14.4109 23.9602C14.8009 22.5202 15.1809 21.0702 15.5709 19.6302C15.6209 19.4202 15.6809 19.2202 15.7309 19.0102C15.8709 18.4802 15.5509 17.8402 15.0009 17.7202C14.4509 17.6002 13.8609 17.8902 13.7109 18.4502Z" fill="white"/>
</g>
<defs>
<clipPath id="clip0_43_5674">
<rect width="37.13" height="37.34" fill="white"/>
</clipPath>
</defs>
</svg>
