<svg width="33" height="29" viewBox="0 0 33 29" fill="none" xmlns="http://www.w3.org/2000/svg">
<path d="M33 28.9353H0V26.9947H33V28.9353ZM16.5 15.8817C23.174 15.889 28.5822 20.7443 28.5904 26.7353V29H4.40962V26.736C4.41781 20.7443 9.82596 15.889 16.4993 15.8817H16.5L16.5 15.8817ZM26.4289 27.0594V26.736C26.4289 21.8131 21.9835 17.8223 16.5 17.8223C11.0165 17.8223 6.57121 21.8131 6.57121 26.736V27.0594H26.4289ZM17.5807 16.852H15.4192V14.3809H17.5807V16.852ZM16.5 10.9526C17.853 10.9526 18.9498 11.9373 18.9498 13.1519C18.9498 14.3666 17.853 15.3513 16.5 15.3513C15.147 15.3513 14.0502 14.3666 14.0502 13.1519C14.0502 11.9373 15.147 10.9526 16.5 10.9526ZM16.5 13.4107C16.6592 13.4107 16.7882 13.2948 16.7882 13.1519C16.7882 13.0091 16.6591 12.8932 16.5 12.8932C16.3408 12.8932 16.2118 13.0091 16.2118 13.1519C16.2118 13.2948 16.3409 13.4107 16.5 13.4107ZM7.62311 11.4623C4.56952 9.54244 5.35921 7.78297 5.88233 6.61861C6.08576 6.2827 6.20536 5.88291 6.20536 5.45811C6.20536 5.44678 6.20526 5.43545 6.2051 5.42412V5.42586C6.13163 5.02863 5.68347 4.57198 4.87503 4.07L6.10424 2.47355C9.20535 4.3999 8.40993 6.16975 7.88681 7.34181C7.68257 7.6799 7.56249 8.08207 7.56249 8.50943C7.56249 8.51739 7.56249 8.52532 7.56258 8.53325V8.53203C7.63321 8.92664 8.07127 9.37943 8.85954 9.87751L7.62311 11.4623ZM17.2522 9.00684C14.1626 7.08307 14.9667 5.31064 15.4984 4.13727C15.7063 3.79677 15.8286 3.39123 15.8286 2.96004C15.8286 2.95365 15.8285 2.94725 15.8285 2.94092V2.94191C15.7579 2.54602 15.3155 2.09196 14.5142 1.59384L15.7478 0C18.8374 1.92374 18.0333 3.69614 17.5015 4.86957C17.2937 5.21004 17.1715 5.61558 17.1715 6.04677V6.06595V6.06494C17.2421 6.46085 17.6845 6.91494 18.4857 7.41303L17.2522 9.00684ZM26.8942 11.4791C23.7959 9.5541 24.5971 7.78169 25.1275 6.60829C25.3344 6.26852 25.4561 5.86394 25.4561 5.43382C25.4561 5.42693 25.4561 5.42005 25.456 5.41319V5.41421C25.3839 5.01832 24.9416 4.56425 24.1418 4.06614L25.3738 2.4723C28.4606 4.39345 27.6593 6.16455 27.1305 7.33664C26.9235 7.67604 26.8018 8.08024 26.8018 8.50989C26.8018 8.51727 26.8018 8.52459 26.8019 8.53192V8.53075C26.8739 8.92798 27.3192 9.38204 28.1233 9.88144L26.8942 11.4791Z" fill="#233038" fill-opacity="0.8"/>
<path d="M32.973 28.9083H28.6173V27.0217H32.973V28.9083ZM28.5634 26.7353V26.9677H26.4558V26.736C26.4558 21.7955 21.9956 17.7953 16.5 17.7953C11.0044 17.7953 6.54425 21.7956 6.54425 26.736V26.9677H4.43658V26.736C4.44428 21.0966 9.25056 16.4626 15.3922 15.9548V16.852V16.8789H15.4192H17.5807H17.6077V16.852V15.9548C23.7497 16.4628 28.5557 21.0967 28.5634 26.7353ZM26.4558 27.0217H28.5634V28.9083H4.43658V27.0217H6.54425V27.0594V27.0863H6.57121H26.4289H26.4558V27.0594V27.0217ZM6.59816 27.0217H26.4019V27.0324H6.59816V27.0217ZM0.0269547 27.0217H4.38267V28.9083H0.0269547V27.0217ZM4.43658 28.9622H28.5634V28.973H4.43658V28.9622ZM15.4461 16.825V15.9504C15.7932 15.9232 16.1444 15.909 16.4993 15.9086H16.5H16.5167C16.8661 15.9095 17.212 15.9236 17.5538 15.9505V16.825H15.4461ZM17.5538 15.1672V15.8964C17.2065 15.8692 16.8551 15.8551 16.5 15.8547L16.4279 15.8546L16.4283 15.855C16.0976 15.8571 15.77 15.871 15.4461 15.8964V15.1671C15.7661 15.3026 16.1234 15.3782 16.5 15.3782C16.8766 15.3782 17.2338 15.3026 17.5538 15.1672ZM18.9228 13.1519C18.9228 13.9924 18.3895 14.7235 17.6077 15.0846V14.3809V14.354H17.5807H15.4192H15.3922V14.3809V15.0845C14.6104 14.7235 14.0772 13.9923 14.0772 13.1519C14.0772 11.9548 15.1591 10.9795 16.5 10.9795C17.8409 10.9795 18.9228 11.9548 18.9228 13.1519ZM16.5 15.3243C16.122 15.3243 15.7645 15.2468 15.4461 15.1086V14.4079H17.5538V15.1087C17.2354 15.2468 16.878 15.3243 16.5 15.3243ZM7.53563 8.53203V8.53325L7.53563 8.53358L7.55457 8.53347L7.53605 8.53678C7.5727 8.74156 7.70391 8.95808 7.92255 9.18468C8.1368 9.40675 8.43688 9.64043 8.82001 9.88436L7.61686 11.4265C6.1095 10.4737 5.55496 9.56441 5.43813 8.7533C5.32062 7.93743 5.64442 7.21393 5.90625 6.63116C6.11162 6.29146 6.23231 5.88739 6.23231 5.45811L6.23205 5.42412L6.23205 5.42373L6.21599 5.42385L6.23161 5.42096C6.19348 5.21482 6.05895 4.99669 5.83492 4.76834C5.61528 4.54446 5.30767 4.3088 4.91454 4.06287L6.11071 2.50933C7.64181 3.46544 8.20669 4.37906 8.32795 5.1945C8.44984 6.01419 8.12511 6.74175 7.86335 7.32823L7.86287 7.3293C7.6567 7.67117 7.53553 8.0776 7.53553 8.50943L7.53563 8.53203ZM17.1658 6.06595L17.1449 6.06967C17.1816 6.27518 17.314 6.49238 17.5353 6.71948C17.7523 6.94207 18.0567 7.17613 18.4462 7.42011L17.2458 8.97107C15.7205 8.01627 15.1606 7.10272 15.044 6.28684C14.9267 5.46617 15.2562 4.73722 15.5223 4.1499C15.7321 3.8056 15.8555 3.39575 15.8555 2.96004L15.8554 2.94191V2.94092L15.8554 2.94078L15.8345 2.94084L15.855 2.93717C15.8184 2.73168 15.686 2.51449 15.4646 2.28739C15.2477 2.06481 14.9433 1.83076 14.5538 1.58676L15.7542 0.0357714C17.2795 0.990555 17.8393 1.9041 17.956 2.71997C18.0733 3.54063 17.7438 4.2696 17.4777 4.85694C17.2679 5.20121 17.1445 5.61106 17.1445 6.04677V6.06494V6.06595H17.1658ZM26.775 8.53075V8.53192L26.775 8.53227L26.7942 8.53215L26.7754 8.53556C26.8128 8.74172 26.9462 8.95923 27.1688 9.18664C27.387 9.40955 27.6929 9.64394 28.0838 9.88857L26.8878 11.4433C25.3581 10.4879 24.7954 9.574 24.6768 8.75797C24.5575 7.93716 24.8859 7.20821 25.1514 6.62089C25.3603 6.27732 25.4831 5.86844 25.4831 5.43382L25.483 5.41421V5.41319L25.483 5.41293L25.4625 5.41303L25.4825 5.40938C25.4451 5.20394 25.3124 4.98678 25.0911 4.75969C24.8741 4.53712 24.5701 4.30307 24.1813 4.05907L25.3803 2.50807C26.9041 3.46157 27.464 4.37414 27.5813 5.18921C27.6994 6.00906 27.3713 6.73736 27.1066 7.32404C26.8977 7.66723 26.7749 8.07573 26.7749 8.50989L26.775 8.53075ZM16.5 13.4376C16.6712 13.4376 16.8151 13.3124 16.8151 13.1519C16.8151 12.9915 16.6712 12.8662 16.5 12.8662C16.3287 12.8662 16.1848 12.9915 16.1848 13.1519C16.1848 13.3124 16.3288 13.4376 16.5 13.4376Z" stroke="#233038" stroke-opacity="0.8" stroke-width="0.0539094"/>
</svg>
