<svg width="31" height="29" viewBox="0 0 31 29" fill="none" xmlns="http://www.w3.org/2000/svg">
<g clip-path="url(#clip0_636_119014)">
<path d="M30.9827 4.64321C30.937 4.39427 30.8071 4.1918 30.6068 4.06235C30.1044 3.73374 29.3386 3.96941 28.8678 4.59674L24.2305 10.7572C23.5911 10.495 22.8709 10.329 22.1472 10.3556L25.316 1.67583C25.4671 1.25761 25.4565 0.832748 25.2879 0.500826C25.1685 0.2718 24.9823 0.112478 24.7504 0.0394551C24.1707 -0.146421 23.5067 0.281758 23.2397 1.00867L20.3555 8.9084C19.5509 8.34082 18.3494 7.51433 16.8318 7.51433C15.0436 7.51433 13.4029 8.39392 12.4895 9.82783C12.1523 9.76144 11.808 9.72825 11.4602 9.72825C9.70711 9.72825 8.08755 10.5747 7.15305 11.9621C6.53825 11.6534 5.8567 11.4908 5.15056 11.4908C2.84945 11.4908 0.980452 13.1935 0.903163 15.3676C0.899649 15.5037 0.938294 15.6132 1.01558 15.6995C0.713453 15.8257 0.460506 16.0182 0.281336 16.2737C-0.0453869 16.7384 -0.0805184 17.3359 0.179454 17.9134L4.45144 27.3433C4.88004 28.286 6.0183 28.9963 7.10386 28.9963H21.8169C22.9025 28.9963 24.0443 28.286 24.4693 27.3433L28.7413 17.9134C29.0013 17.3392 28.9662 16.7418 28.6395 16.2737C28.4462 15.9983 28.1687 15.7925 27.8385 15.6696C27.9333 15.5435 27.9228 15.4074 27.9193 15.361C27.8806 14.1461 27.3853 12.616 26.1311 11.8028L30.6701 5.77506C30.9441 5.41327 31.06 4.99837 30.9933 4.63657L30.9827 4.64321ZM21.4902 12.1679C21.838 11.9588 22.5266 12.0086 23.1589 12.1679L20.6189 15.5402H20.2465L21.4761 12.1712C21.4761 12.1712 21.4867 12.1679 21.4902 12.1646V12.1679ZM26.8794 17.3691L22.6847 26.6264C22.5617 26.8986 22.1191 27.1741 21.8064 27.1741H7.09684C6.78417 27.1741 6.34151 26.8986 6.21855 26.6264L2.02386 17.3691H26.8759H26.8794ZM2.61055 15.424C2.65974 14.1329 3.7734 13.1205 5.14353 13.1205C5.78644 13.1205 6.40475 13.3495 6.87551 13.7677C6.98442 13.864 7.30763 14.1494 7.77136 13.9702C8.09809 13.8408 8.22105 13.5619 8.25969 13.469C8.82179 12.1878 10.076 11.358 11.4496 11.358C11.8853 11.358 12.2787 11.4244 12.63 11.5571C12.7495 11.6036 13.0305 11.7098 13.3186 11.5571C13.5856 11.4144 13.6699 11.2119 13.7191 11.1057C14.2215 9.93404 15.4406 9.16398 16.8247 9.14407C16.8353 9.14407 16.8458 9.14407 16.8564 9.14407C17.8822 9.14407 18.8799 9.8411 19.6388 10.4485C19.6669 10.4718 19.7055 10.5016 19.7512 10.5315L17.9208 15.5468H2.59299C2.60353 15.5103 2.61055 15.4705 2.61055 15.424ZM23.3065 15.5468L25.1087 13.1504C25.6744 13.5321 26.1627 14.7137 26.1908 15.3809C26.1908 15.4406 26.2084 15.497 26.2294 15.5468H23.3065Z" fill="#233038" fill-opacity="0.8"/>
<path d="M27.6549 16.8691L27.3348 17.5755L23.1403 26.8322L27.6549 16.8691ZM27.6549 16.8691H26.8794M27.6549 16.8691H26.8794M26.8794 16.8691H26.8759H2.02386H1.24836M26.8794 16.8691H1.24836M1.24836 16.8691L1.56843 17.5755M1.24836 16.8691L1.56843 17.5755M1.56843 17.5755L5.76289 26.8322C5.88131 27.0944 6.11424 27.2971 6.32211 27.4266C6.5326 27.5578 6.81376 27.6741 7.09684 27.6741H21.8064C22.0895 27.6741 22.3706 27.5578 22.5811 27.4266M1.56843 17.5755L22.5811 27.4266M22.5811 27.4266C22.7888 27.2972 23.0216 27.0946 23.1401 26.8327L22.5811 27.4266ZM30.4909 4.73344L30.5115 4.84583C30.5104 5.02611 30.4408 5.24957 30.2715 5.47318L30.2706 5.47429L25.7316 11.502L25.409 11.9305L25.859 12.2223C26.923 12.9121 27.3837 14.2507 27.4195 15.3769L27.4199 15.3878L27.4203 15.3938L27.0361 15.9047L27.6642 16.1383C27.9082 16.229 28.0999 16.3755 28.2296 16.5602C28.442 16.8646 28.4831 17.2715 28.2858 17.7072L24.0139 27.137L24.0135 27.1378C23.6746 27.8894 22.7191 28.4963 21.8169 28.4963H7.10386C6.20269 28.4963 5.24934 27.8902 4.9066 27.1364L0.635392 17.7082C0.635311 17.708 0.63523 17.7078 0.635149 17.7077C0.436997 17.267 0.479739 16.8609 0.690356 16.5613L0.690753 16.5608C0.809016 16.3921 0.982134 16.2553 1.20821 16.1609L1.85733 15.8899L1.40296 15.3826C1.40296 15.3825 1.40296 15.3823 1.40296 15.3822C1.47148 13.5043 3.09342 11.9908 5.15056 11.9908C5.77928 11.9908 6.38395 12.1354 6.92869 12.4089L7.32194 12.6064L7.56775 12.2414C8.40526 10.998 9.86603 10.2283 11.4602 10.2283C11.7761 10.2283 12.088 10.2584 12.393 10.3184L12.7278 10.3843L12.9112 10.0965C13.7282 8.814 15.2056 8.01433 16.8318 8.01433C18.1733 8.01433 19.2561 8.74469 20.0672 9.31696L20.6011 9.69359L20.8251 9.07989L23.7091 1.18106C23.9231 0.598441 24.3696 0.442434 24.5977 0.515583L24.6002 0.516363C24.6973 0.546946 24.7815 0.612289 24.8433 0.729665C24.9366 0.915115 24.9591 1.19175 24.846 1.50532C24.8459 1.50554 24.8458 1.50575 24.8458 1.50597L21.6775 10.1841L21.4225 10.8825L22.1655 10.8552C22.8029 10.8319 23.4516 10.9782 24.0407 11.2198L24.3978 11.3663L24.6299 11.0579L29.2673 4.89745L29.2677 4.89685C29.6528 4.38369 30.1399 4.35442 30.3331 4.48079L30.3354 4.48225C30.4104 4.53078 30.468 4.6086 30.4909 4.73344ZM22.2284 11.5298C22.1513 11.5282 22.0713 11.5291 21.9902 11.5338V11.0042L21.2269 11.7255L21.0909 11.7683L21.0065 11.9998L19.7768 15.3688L19.5318 16.0402H20.2465H20.6189H20.8683L21.0183 15.841L23.5583 12.4687L24.0115 11.867L23.2811 11.683C22.9386 11.5967 22.57 11.537 22.2284 11.5298ZM2.11091 15.405L2.11055 15.4145V15.4153L1.92824 16.0468H2.59299H17.9208H18.2706L18.3905 15.7183L20.2209 10.7029L20.3569 10.3302L20.0249 10.1131C19.9982 10.0956 19.9747 10.0775 19.9574 10.0632L19.9574 10.0631L19.9512 10.0582C19.564 9.7482 19.0959 9.39892 18.5817 9.12663C18.0688 8.8551 17.4805 8.64407 16.8564 8.64407H16.8563H16.8562H16.8562H16.8561H16.856H16.856H16.8559H16.8559H16.8558H16.8557H16.8557H16.8556H16.8556H16.8555H16.8554H16.8554H16.8553H16.8552H16.8552H16.8551H16.8551H16.855H16.8549H16.8549H16.8548H16.8548H16.8547H16.8546H16.8546H16.8545H16.8544H16.8544H16.8543H16.8543H16.8542H16.8541H16.8541H16.854H16.8539H16.8539H16.8538H16.8538H16.8537H16.8536H16.8536H16.8535H16.8535H16.8534H16.8533H16.8533H16.8532H16.8531H16.8531H16.853H16.853H16.8529H16.8528H16.8528H16.8527H16.8527H16.8526H16.8525H16.8525H16.8524H16.8523H16.8523H16.8522H16.8522H16.8521H16.852H16.852H16.8519H16.8519H16.8518H16.8517H16.8517H16.8516H16.8515H16.8515H16.8514H16.8514H16.8513H16.8512H16.8512H16.8511H16.851H16.851H16.8509H16.8509H16.8508H16.8507H16.8507H16.8506H16.8506H16.8505H16.8504H16.8504H16.8503H16.8502H16.8502H16.8501H16.8501H16.85H16.8499H16.8499H16.8498H16.8498H16.8497H16.8496H16.8496H16.8495H16.8494H16.8494H16.8493H16.8493H16.8492H16.8491H16.8491H16.849H16.8489H16.8489H16.8488H16.8488H16.8487H16.8486H16.8486H16.8485H16.8485H16.8484H16.8483H16.8483H16.8482H16.8481H16.8481H16.848H16.848H16.8479H16.8478H16.8478H16.8477H16.8477H16.8476H16.8475H16.8475H16.8474H16.8473H16.8473H16.8472H16.8472H16.8471H16.847H16.847H16.8469H16.8468H16.8468H16.8467H16.8467H16.8466H16.8465H16.8465H16.8464H16.8464H16.8463H16.8462H16.8462H16.8461H16.846H16.846H16.8459H16.8459H16.8458H16.8457H16.8457H16.8456H16.8456H16.8455H16.8454H16.8454H16.8453H16.8452H16.8452H16.8451H16.8451H16.845H16.8449H16.8449H16.8448H16.8447H16.8447H16.8446H16.8446H16.8445H16.8444H16.8444H16.8443H16.8443H16.8442H16.8441H16.8441H16.844H16.8439H16.8439H16.8438H16.8438H16.8437H16.8436H16.8436H16.8435H16.8435H16.8434H16.8433H16.8433H16.8432H16.8431H16.8431H16.843H16.843H16.8429H16.8428H16.8428H16.8427H16.8426H16.8426H16.8425H16.8425H16.8424H16.8423H16.8423H16.8422H16.8422H16.8421H16.842H16.842H16.8419H16.8418H16.8418H16.8417H16.8417H16.8416H16.8415H16.8415H16.8414H16.8414H16.8413H16.8412H16.8412H16.8411H16.841H16.841H16.8409H16.8409H16.8408H16.8407H16.8407H16.8406H16.8405H16.8405H16.8404H16.8404H16.8403H16.8402H16.8402H16.8401H16.8401H16.84H16.8399H16.8399H16.8398H16.8397H16.8397H16.8396H16.8396H16.8395H16.8394H16.8394H16.8393H16.8393H16.8392H16.8391H16.8391H16.839H16.8389H16.8389H16.8388H16.8388H16.8387H16.8386H16.8386H16.8385H16.8384H16.8384H16.8383H16.8383H16.8382H16.8381H16.8381H16.838H16.838H16.8379H16.8378H16.8378H16.8377H16.8376H16.8376H16.8375H16.8375H16.8374H16.8373H16.8373H16.8372H16.8372H16.8371H16.837H16.837H16.8369H16.8368H16.8368H16.8367H16.8367H16.8366H16.8365H16.8365H16.8364H16.8363H16.8363H16.8362H16.8362H16.8361H16.836H16.836H16.8359H16.8359H16.8358H16.8357H16.8357H16.8356H16.8355H16.8355H16.8354H16.8354H16.8353H16.8352H16.8352H16.8351H16.8351H16.835H16.8349H16.8349H16.8348H16.8347H16.8347H16.8346H16.8346H16.8345H16.8344H16.8344H16.8343H16.8342H16.8342H16.8341H16.8341H16.834H16.8339H16.8339H16.8338H16.8338H16.8337H16.8336H16.8336H16.8335H16.8334H16.8334H16.8333H16.8333H16.8332H16.8331H16.8331H16.833H16.833H16.8329H16.8328H16.8328H16.8327H16.8326H16.8326H16.8325H16.8325H16.8324H16.8323H16.8323H16.8322H16.8321H16.8321H16.832H16.832H16.8319H16.8318H16.8318H16.8317H16.8317H16.8316H16.8315H16.8315H16.8314H16.8313H16.8313H16.8312H16.8312H16.8311H16.831H16.831H16.8309H16.8309H16.8308H16.8307H16.8307H16.8306H16.8305H16.8305H16.8304H16.8304H16.8303H16.8302H16.8302H16.8301H16.8301H16.83H16.8299H16.8299H16.8298H16.8297H16.8297H16.8296H16.8296H16.8295H16.8294H16.8294H16.8293H16.8292H16.8292H16.8291H16.8291H16.829H16.8289H16.8289H16.8288H16.8288H16.8287H16.8286H16.8286H16.8285H16.8284H16.8284H16.8283H16.8283H16.8282H16.8281H16.8281H16.828H16.828H16.8279H16.8278H16.8278H16.8277H16.8276H16.8276H16.8275H16.8275H16.8274H16.8273H16.8273H16.8272H16.8271H16.8271H16.827H16.827H16.8269H16.8268H16.8268H16.8267H16.8267H16.8266H16.8265H16.8265H16.8264H16.8263H16.8263H16.8262H16.8262H16.8261H16.826H16.826H16.8259H16.8259H16.8258H16.8257H16.8257H16.8256H16.8255H16.8255H16.8254H16.8254H16.8253H16.8252H16.8252H16.8251H16.825H16.825H16.8249H16.8249H16.8248H16.8247V8.64402L16.8175 8.64412C15.2602 8.66653 13.8526 9.53365 13.2625 10.9019L13.2621 10.9027C13.2357 10.9597 13.2227 10.9878 13.1989 11.0199C13.1782 11.0479 13.1455 11.0826 13.0838 11.1157C13.0479 11.1345 13.0113 11.1398 12.9655 11.1348C12.9139 11.1291 12.8657 11.1123 12.8113 11.0912L12.8113 11.0911L12.8068 11.0894C12.3907 10.9322 11.9361 10.858 11.4496 10.858C9.87285 10.858 8.44176 11.8095 7.80182 13.2681L7.80173 13.2681L7.79801 13.277C7.77011 13.3441 7.71553 13.4536 7.58909 13.5046C7.49274 13.5413 7.42835 13.529 7.37617 13.5081C7.31018 13.4817 7.25727 13.4378 7.20698 13.3934C6.64145 12.8913 5.90403 12.6205 5.14353 12.6205C3.53136 12.6205 2.17131 13.8194 2.11091 15.405ZM22.9069 15.2463L22.3049 16.0468H23.3065H26.2294H26.9841L26.69 15.3522C26.6708 14.9335 26.5171 14.4092 26.3055 13.9495C26.0977 13.4979 25.7867 13.0047 25.3884 12.7359L24.9947 12.4702L24.7091 12.8498L22.9069 15.2463Z" stroke="#233038" stroke-opacity="0.8"/>
</g>
<defs>
<clipPath id="clip0_636_119014">
<rect width="31" height="29" fill="white"/>
</clipPath>
</defs>
</svg>
