<svg width="30" height="29" viewBox="0 0 30 29" fill="none" xmlns="http://www.w3.org/2000/svg">
<mask id="path-1-inside-1_636_119002" fill="white">
<path d="M12.1632 1.21574L10.2188 0.745958L10.2321 0.69433L12.1765 1.16416L12.1632 1.21574ZM29.2354 19.1242L28.7492 17.2451L28.8027 17.2322L29.2888 19.1113L29.2354 19.1242ZM3.13828 29H3.12093C1.39742 28.9963 0.00152381 27.6459 5.86079e-05 25.9801V25.98C0 25.9752 0 25.9696 0 25.9641C0 25.5507 0.0869155 25.1569 0.244043 24.7988L0.236424 24.8184L8.36921 5.67868H9.93571C17.7854 5.67868 24.1497 11.8244 24.1581 19.4087V20.9117L4.32019 28.7728C3.97095 28.9164 3.56474 28.9999 3.13836 29L3.13828 29ZM9.71262 7.61457L2.08861 25.5541C2.03457 25.6757 2.00313 25.8173 2.00313 25.966V25.9698V25.9696V25.9709C2.00313 26.5702 2.50505 27.0562 3.12474 27.0576H3.12488L3.13288 28.0256V27.0576H3.13368C3.28614 27.0576 3.4314 27.0277 3.56345 26.9737L3.55621 26.9763L22.1548 19.6069V19.4108C22.1381 12.8979 16.6757 7.62338 9.93644 7.6146H9.93556L9.71262 7.61457ZM25.611 22.8438H25.6043C23.6951 22.8237 22.1556 21.3233 22.1556 19.4755C22.1556 19.4536 22.1558 19.4318 22.1562 19.4101L22.1562 19.4133C22.151 16.1502 20.7864 13.1961 18.5806 11.0508L18.5812 11.0514C16.3818 8.91255 13.3359 7.58872 9.97011 7.58872H9.93377H9.93562C9.91499 7.58917 9.89067 7.58943 9.86632 7.58943C8.9249 7.58943 8.07101 7.22735 7.44558 6.63942L7.44637 6.64016C6.80168 6.03427 6.3974 5.19228 6.38337 4.25898V4.24607C6.38638 1.90219 8.35162 0.00288867 10.7766 0H11.2563C21.3248 0.65386 29.3233 8.38832 29.9893 18.0615L29.9925 18.1201C29.9973 18.1934 30 18.2791 30 18.3653C30 18.4516 29.9973 18.5373 29.9919 18.6222L29.9925 18.6106C29.9834 20.9431 28.0297 22.8317 25.6172 22.8412H25.6164L25.611 22.8438ZM9.93565 5.65285C17.7905 5.65285 24.158 11.8067 24.158 19.3978V19.4278V19.4263V19.4457C24.1578 19.4549 24.1577 19.4658 24.1577 19.4768C24.1577 20.2604 24.8087 20.897 25.6165 20.9092H25.6177C26.9304 20.8997 27.9908 19.8691 27.9908 18.599V18.5854V18.5861V18.5215C27.9936 18.4801 27.9953 18.4316 27.9953 18.3828C27.9953 18.334 27.9936 18.2856 27.9904 18.2375L27.9908 18.244C27.3678 9.50383 20.1969 2.55985 11.2158 1.93918L11.1576 1.93592H10.777C9.45928 1.93739 8.39113 2.96792 8.38655 4.24055V4.24097C8.39359 4.63723 8.56507 4.9935 8.8376 5.24991L8.83789 5.25019C9.10239 5.49964 9.46435 5.65348 9.86353 5.65348C9.87854 5.65348 9.89354 5.65328 9.90845 5.65285L9.90626 5.65291L9.93565 5.65285ZM12.473 9.82152C13.7268 9.82152 14.7432 10.8038 14.7432 12.0156C14.7432 13.2273 13.7268 14.2096 12.473 14.2096C11.2192 14.2096 10.2028 13.2273 10.2028 12.0155C10.2028 10.8038 11.2192 9.82149 12.473 9.82149L12.473 9.82152ZM12.473 12.2737C12.6205 12.2737 12.7401 12.1581 12.7401 12.0156C12.7401 11.873 12.6205 11.7575 12.473 11.7575C12.3255 11.7575 12.2059 11.873 12.2059 12.0156C12.2059 12.1581 12.3255 12.2737 12.473 12.2737H12.473ZM12.473 19.6818C13.7268 19.6818 14.7432 20.6641 14.7432 21.8758C14.7432 23.0876 13.7268 24.0699 12.473 24.0699C11.2192 24.0699 10.2028 23.0876 10.2028 21.8758C10.2028 20.6641 11.2192 19.6818 12.473 19.6818H12.473ZM12.473 22.134C12.6205 22.134 12.7401 22.0184 12.7401 21.8759C12.7401 21.7333 12.6205 21.6178 12.473 21.6178C12.3255 21.6178 12.2059 21.7333 12.2059 21.8759C12.2059 22.0184 12.3255 22.134 12.473 22.134L12.473 22.134ZM15.5806 18.9771L14.4668 17.3665L18.2862 14.9014L19.3999 16.5121L15.5806 18.9771ZM7.10454 26.806H5.10138V23.1019H7.10454V26.806ZM12.473 17.9137H8.65357V15.9777H12.4729L12.473 17.9137Z"/>
</mask>
<path d="M12.1632 1.21574L10.2188 0.745958L10.2321 0.69433L12.1765 1.16416L12.1632 1.21574ZM29.2354 19.1242L28.7492 17.2451L28.8027 17.2322L29.2888 19.1113L29.2354 19.1242ZM3.13828 29H3.12093C1.39742 28.9963 0.00152381 27.6459 5.86079e-05 25.9801V25.98C0 25.9752 0 25.9696 0 25.9641C0 25.5507 0.0869155 25.1569 0.244043 24.7988L0.236424 24.8184L8.36921 5.67868H9.93571C17.7854 5.67868 24.1497 11.8244 24.1581 19.4087V20.9117L4.32019 28.7728C3.97095 28.9164 3.56474 28.9999 3.13836 29L3.13828 29ZM9.71262 7.61457L2.08861 25.5541C2.03457 25.6757 2.00313 25.8173 2.00313 25.966V25.9698V25.9696V25.9709C2.00313 26.5702 2.50505 27.0562 3.12474 27.0576H3.12488L3.13288 28.0256V27.0576H3.13368C3.28614 27.0576 3.4314 27.0277 3.56345 26.9737L3.55621 26.9763L22.1548 19.6069V19.4108C22.1381 12.8979 16.6757 7.62338 9.93644 7.6146H9.93556L9.71262 7.61457ZM25.611 22.8438H25.6043C23.6951 22.8237 22.1556 21.3233 22.1556 19.4755C22.1556 19.4536 22.1558 19.4318 22.1562 19.4101L22.1562 19.4133C22.151 16.1502 20.7864 13.1961 18.5806 11.0508L18.5812 11.0514C16.3818 8.91255 13.3359 7.58872 9.97011 7.58872H9.93377H9.93562C9.91499 7.58917 9.89067 7.58943 9.86632 7.58943C8.9249 7.58943 8.07101 7.22735 7.44558 6.63942L7.44637 6.64016C6.80168 6.03427 6.3974 5.19228 6.38337 4.25898V4.24607C6.38638 1.90219 8.35162 0.00288867 10.7766 0H11.2563C21.3248 0.65386 29.3233 8.38832 29.9893 18.0615L29.9925 18.1201C29.9973 18.1934 30 18.2791 30 18.3653C30 18.4516 29.9973 18.5373 29.9919 18.6222L29.9925 18.6106C29.9834 20.9431 28.0297 22.8317 25.6172 22.8412H25.6164L25.611 22.8438ZM9.93565 5.65285C17.7905 5.65285 24.158 11.8067 24.158 19.3978V19.4278V19.4263V19.4457C24.1578 19.4549 24.1577 19.4658 24.1577 19.4768C24.1577 20.2604 24.8087 20.897 25.6165 20.9092H25.6177C26.9304 20.8997 27.9908 19.8691 27.9908 18.599V18.5854V18.5861V18.5215C27.9936 18.4801 27.9953 18.4316 27.9953 18.3828C27.9953 18.334 27.9936 18.2856 27.9904 18.2375L27.9908 18.244C27.3678 9.50383 20.1969 2.55985 11.2158 1.93918L11.1576 1.93592H10.777C9.45928 1.93739 8.39113 2.96792 8.38655 4.24055V4.24097C8.39359 4.63723 8.56507 4.9935 8.8376 5.24991L8.83789 5.25019C9.10239 5.49964 9.46435 5.65348 9.86353 5.65348C9.87854 5.65348 9.89354 5.65328 9.90845 5.65285L9.90626 5.65291L9.93565 5.65285ZM12.473 9.82152C13.7268 9.82152 14.7432 10.8038 14.7432 12.0156C14.7432 13.2273 13.7268 14.2096 12.473 14.2096C11.2192 14.2096 10.2028 13.2273 10.2028 12.0155C10.2028 10.8038 11.2192 9.82149 12.473 9.82149L12.473 9.82152ZM12.473 12.2737C12.6205 12.2737 12.7401 12.1581 12.7401 12.0156C12.7401 11.873 12.6205 11.7575 12.473 11.7575C12.3255 11.7575 12.2059 11.873 12.2059 12.0156C12.2059 12.1581 12.3255 12.2737 12.473 12.2737H12.473ZM12.473 19.6818C13.7268 19.6818 14.7432 20.6641 14.7432 21.8758C14.7432 23.0876 13.7268 24.0699 12.473 24.0699C11.2192 24.0699 10.2028 23.0876 10.2028 21.8758C10.2028 20.6641 11.2192 19.6818 12.473 19.6818H12.473ZM12.473 22.134C12.6205 22.134 12.7401 22.0184 12.7401 21.8759C12.7401 21.7333 12.6205 21.6178 12.473 21.6178C12.3255 21.6178 12.2059 21.7333 12.2059 21.8759C12.2059 22.0184 12.3255 22.134 12.473 22.134L12.473 22.134ZM15.5806 18.9771L14.4668 17.3665L18.2862 14.9014L19.3999 16.5121L15.5806 18.9771ZM7.10454 26.806H5.10138V23.1019H7.10454V26.806ZM12.473 17.9137H8.65357V15.9777H12.4729L12.473 17.9137Z" fill="#233038" fill-opacity="0.8" stroke="#233038" stroke-opacity="0.8" stroke-width="0.0952218" mask="url(#path-1-inside-1_636_119002)"/>
</svg>
