<svg width="28" height="29" viewBox="0 0 28 29" fill="none" xmlns="http://www.w3.org/2000/svg">
<path d="M19.5549 18.9597L16.6466 18.7643C16.6544 18.6821 16.6588 18.5865 16.6588 18.49C16.6588 18.3935 16.6544 18.2979 16.6456 18.2033L16.6465 18.2158V18.1187C16.6465 16.8235 15.4319 15.7735 13.9336 15.7735C12.4353 15.7735 11.2207 16.8235 11.2207 18.1187V18.2171C11.2129 18.2992 11.2084 18.3948 11.2084 18.4913C11.2084 18.5878 11.2129 18.6834 11.2216 18.778L11.2207 18.7656L8.31237 18.961C8.30025 18.8277 8.29343 18.6722 8.29343 18.5153C8.29343 18.3585 8.30031 18.203 8.31374 18.0492L8.31234 18.0696C8.31234 15.3817 10.8329 13.2027 13.9424 13.2027C17.0518 13.2027 19.5724 15.3817 19.5724 18.0696C19.5795 18.1718 19.5835 18.2913 19.5835 18.4116C19.5835 18.6046 19.5731 18.7955 19.5528 18.9839L19.5549 18.9597ZM23.3706 29H4.63387L0 18.2978L0.0174943 18.0317C0.195319 15.4612 2.65024 13.4348 5.65266 13.4348C8.65508 13.4348 11.1099 15.4612 11.2871 18.0182L11.2878 18.0317L8.37068 18.1805C8.28452 16.9387 7.09836 15.9597 5.64775 15.9597C4.29466 15.9597 3.17169 16.8114 2.95718 17.9285L2.95498 17.9422L6.6554 26.4783H21.349L25.045 17.9422C24.8283 16.8114 23.7053 15.9597 22.3523 15.9597C20.9016 15.9597 19.7155 16.9386 19.6297 18.174L19.6294 18.1805L16.7122 18.0317C16.89 15.4612 19.345 13.4348 22.3474 13.4348C25.3499 13.4348 27.8047 15.4612 27.9818 18.0182L27.9825 18.0317L28 18.2977L23.3706 29ZM9.76947 27.8942L8.38385 18.2611L11.2776 17.951L12.6632 27.584L9.76947 27.8942ZM18.235 27.8942L15.3411 27.584L16.7268 17.951L19.6205 18.2611L18.235 27.8942ZM26.6042 15.7609H23.6871V13.3006C23.6871 12.2849 22.9413 11.4198 21.8973 11.092L21.8784 11.0868L20.9041 10.7905V9.68348C20.9016 7.7206 19.0616 6.12999 16.7912 6.12786H16.4117V3.60611H16.791C20.429 3.60789 23.4216 5.99481 23.7895 9.0559L23.7921 9.08207C25.4894 9.94057 26.6115 11.5088 26.6115 13.3035L26.6042 15.7609ZM4.3173 15.7609H1.40026V13.3653C1.40117 11.5734 2.52041 10.0077 4.18731 9.16131L4.21384 9.14885C4.54368 6.03078 7.55085 3.60656 11.2143 3.60104H11.5942V6.12277H11.2149C8.9434 6.1256 7.10324 7.71816 7.10324 9.6822V10.8535L6.12599 11.1498C5.06316 11.4823 4.31737 12.3472 4.31737 13.3627L4.3173 15.7609ZM14.0022 0C16.3463 0 18.2466 1.64272 18.2466 3.66912C18.2466 5.69553 16.3463 7.33827 14.0022 7.33827C11.6581 7.33827 9.75783 5.6955 9.75783 3.66909C9.76029 1.64363 11.6593 0.00218066 14.0022 0ZM14.0022 4.81652C14.7353 4.81652 15.3295 4.30279 15.3295 3.66912C15.3295 3.03546 14.7352 2.52175 14.0022 2.52175C13.2692 2.52175 12.6749 3.03548 12.6749 3.66915C12.6757 4.30259 13.2696 4.81578 14.0022 4.81652ZM18.1737 10.9444H15.3878V8.42266H18.1736L18.1737 10.9444ZM12.6165 12.1548H9.83069V9.63307H12.6165V12.1548Z" fill="#233038" fill-opacity="0.8"/>
<path d="M22.3523 15.9133C20.9819 15.9133 19.8356 16.7766 19.6162 17.9192C19.5771 16.7924 19.1005 15.7626 18.3293 14.9511C19.3459 14.0444 20.7691 13.4812 22.3474 13.4812C22.7927 13.4812 23.2257 13.526 23.6407 13.6107V15.7609V15.8073H23.6871H26.6042H26.6504L26.6506 15.761L26.6521 15.2246C27.3926 15.9928 27.8621 16.9619 27.9355 18.0214L27.9362 18.0343L27.9362 18.0347L27.953 18.2896L23.3401 28.9536H4.66433L0.0470264 18.2896L0.0637745 18.0349C0.0637762 18.0349 0.0637778 18.0348 0.0637795 18.0348C0.137685 16.9668 0.609785 15.992 1.35387 15.2209V15.7609V15.8073H1.40026H4.3173H4.36369L4.36369 15.7609L4.36375 13.6099C4.7774 13.5257 5.2089 13.4812 5.65266 13.4812C7.19946 13.4812 8.59724 14.0222 9.60921 14.8953C8.88297 15.637 8.40619 16.5682 8.29232 17.5925C7.93527 16.6142 6.88247 15.9133 5.64775 15.9133C4.27686 15.9133 3.13112 16.7767 2.91162 17.9198L2.9116 17.9198L2.91137 17.9212L2.90917 17.9349L2.90703 17.9483L2.91242 17.9607L6.61283 26.4967L6.62495 26.5247H6.6554H9.5256L9.72355 27.9008L9.72992 27.9451L9.77441 27.9403L12.6682 27.6302L12.716 27.625L12.7092 27.5774L12.5577 26.5247H15.4467L15.2952 27.5774L15.2884 27.625L15.3362 27.6302L18.23 27.9403L18.2745 27.9451L18.2809 27.9008L18.4788 26.5247H21.349H21.3795L21.3916 26.4967L25.0875 17.9606L25.0932 17.9475L25.0905 17.9335C24.8689 16.7768 23.7233 15.9133 22.3523 15.9133ZM4.25998 9.15373C4.54059 6.50093 6.77908 4.34831 9.71364 3.78915C9.74594 4.67247 10.1335 5.47622 10.7555 6.09868C8.6798 6.29883 7.05685 7.82169 7.05685 9.6822V10.8191L6.11252 11.1054L6.11214 11.1055C5.03444 11.4427 4.27098 12.3226 4.27098 13.3627L4.27097 13.5347C3.16742 13.7732 2.19033 14.2909 1.44665 14.9979V13.3653C1.44755 11.5942 2.55371 10.0431 4.20766 9.203L4.23356 9.19084L4.25723 9.17973L4.25998 9.15373ZM1.44665 15.1272C2.18035 14.4048 3.15873 13.8733 4.27097 13.6295L4.27091 15.7145H1.44665V15.1272ZM16.65 18.811L19.4673 19.0003L18.3984 26.4319H15.5537L16.65 18.811ZM19.4806 18.9082L16.6968 18.7212C16.7022 18.6492 16.7052 18.5699 16.7052 18.49C16.7052 18.4702 16.705 18.4503 16.7047 18.4306L16.755 18.0803L18.1733 18.1527L19.536 18.2987C19.5368 18.3359 19.5372 18.3737 19.5372 18.4116C19.5372 18.4488 19.5368 18.486 19.536 18.5231L19.4806 18.9082ZM23.7334 15.7145V13.6304C24.8471 13.8752 25.8263 14.4082 26.5596 15.131L26.5579 15.7145H23.7334ZM8.36519 17.8358C8.42581 16.7419 8.9095 15.7418 9.67915 14.9567C10.5052 15.6951 11.0609 16.6596 11.2104 17.7303C11.199 17.7909 11.1902 17.8523 11.1842 17.9144L9.82792 18.0597L8.41332 18.1319C8.40418 18.0313 8.38799 17.9325 8.36519 17.8358ZM9.80901 27.8433L9.61934 26.5247H12.464L12.6105 27.543L9.80901 27.8433ZM19.5261 18.0728C19.5274 18.091 19.5286 18.1097 19.5296 18.1289L18.1806 18.0601L16.7691 17.9089C16.8797 16.7928 17.4259 15.7848 18.2605 15.0136C19.0517 15.8462 19.526 16.9111 19.526 18.0696H19.5259L19.5261 18.0728ZM13.9424 13.2491C15.6486 13.2491 17.1728 13.9088 18.1959 14.9468C17.3524 15.7264 16.7971 16.745 16.6791 17.8773C16.5393 16.665 15.3577 15.7271 13.9336 15.7271C12.6603 15.7271 11.581 16.4768 11.2667 17.502C11.0738 16.4949 10.5284 15.5923 9.74485 14.8909C10.7671 13.8852 12.267 13.2491 13.9424 13.2491ZM11.2671 18.2038L12.4507 26.4319H9.606L8.53592 18.9925L11.2238 18.8119L11.2216 18.7785L11.2679 18.7746L11.2678 18.7738L11.267 18.7622L11.2636 18.7162L11.2631 18.7162C11.2576 18.6419 11.2548 18.5669 11.2548 18.4913C11.2548 18.3961 11.2592 18.302 11.2669 18.2215L11.2671 18.2215V18.2171V18.2038ZM11.1621 18.4913C11.1621 18.569 11.1649 18.646 11.1705 18.7225L8.52267 18.9004L8.43662 18.3021L9.83522 18.1523L11.1746 18.0839C11.1744 18.0955 11.1743 18.1071 11.1743 18.1187V18.2149C11.1665 18.2981 11.1621 18.3943 11.1621 18.4913ZM8.42983 18.9067L8.35474 18.9117C8.34516 18.7904 8.33982 18.6535 8.33982 18.5153C8.33982 18.4462 8.34117 18.3774 8.34384 18.3088L8.42983 18.9067ZM26.56 15.002C25.8166 14.2943 24.8385 13.7751 23.7334 13.5356V13.3006C23.7334 12.2605 22.9703 11.3802 21.9112 11.0478L21.9112 11.0477L21.9096 11.0473L21.8919 11.0425L21.8907 11.0421L20.9505 10.7561V9.68348V9.68342C20.9481 7.82229 19.3221 6.30011 17.2446 6.10306C17.8684 5.48075 18.2575 4.6765 18.2907 3.79238C21.2024 4.34311 23.4304 6.45966 23.7434 9.0609C23.7434 9.06108 23.7435 9.06126 23.7435 9.06144L23.7459 9.08658L23.7484 9.11196L23.7711 9.12347C25.4559 9.97563 26.565 11.5294 26.5651 13.3034C26.5651 13.3034 26.5651 13.3034 26.5651 13.3035L26.56 15.002ZM18.2002 3.66912C18.2002 3.67333 18.2002 3.67753 18.2002 3.68173C17.7447 3.60193 17.2734 3.55996 16.791 3.55972H16.4117H16.3653V3.60611V6.12786V6.17425H16.4117H16.7912C16.8706 6.17433 16.9495 6.17636 17.0278 6.18031C16.2651 6.86488 15.1929 7.29188 14.0022 7.29188C12.8088 7.29188 11.7345 6.86293 10.9714 6.17563C11.052 6.17144 11.1332 6.16926 11.215 6.16916H11.5942H11.6406V6.12277V3.60104V3.55465H11.5942H11.2143H11.2142C10.7315 3.55538 10.26 3.5979 9.80424 3.67834C9.80423 3.67528 9.80422 3.67221 9.80422 3.66915C9.80664 1.67537 11.6784 0.048563 14.0022 0.0463907C16.3273 0.0464014 18.2002 1.67446 18.2002 3.66912ZM16.7912 6.08147H16.4581V3.6525H16.791C17.2732 3.65274 17.7439 3.69509 18.1984 3.7755C18.1687 4.66426 17.7671 5.47473 17.122 6.09301C17.0128 6.08547 16.9025 6.08158 16.7912 6.08147H16.7912ZM11.2143 3.64743H11.5478V6.07638H11.2149H11.2149C11.1014 6.07652 10.989 6.0806 10.8778 6.08846C10.2346 5.46998 9.8347 4.66004 9.8059 3.77214C10.2607 3.69107 10.7317 3.64816 11.2143 3.64743ZM15.3939 27.543L15.5404 26.5247H18.3851L18.1954 27.8433L15.3939 27.543ZM14.0022 4.86291H14.0022C14.7543 4.86291 15.3759 4.33452 15.3759 3.66912C15.3759 3.00372 14.7543 2.47536 14.0022 2.47536C13.2501 2.47536 12.6285 3.00375 12.6285 3.66915V3.66921C12.6294 4.33433 13.2505 4.86216 14.0022 4.86291ZM18.1273 10.898H15.4341V8.46905H18.1272L18.1273 10.898ZM12.5701 12.1084H9.87708V9.67946H12.5701V12.1084Z" stroke="#233038" stroke-opacity="0.8" stroke-width="0.0927815"/>
</svg>
