<svg width="29" height="39" viewBox="0 0 29 39" fill="none" xmlns="http://www.w3.org/2000/svg">
<g clip-path="url(#clip0_440_120438)">
<path d="M15.4149 27.9322C15.8172 24.6489 18.3009 22.3169 20.4226 20.0156C22.5443 17.7142 24.6559 15.5356 26.8178 13.3366C27.3407 12.8047 27.8737 12.2626 28.3966 11.741C29.3619 10.7693 27.8737 9.24532 26.9083 10.2272C25.4 11.741 23.9118 13.265 22.4337 14.7992C20.322 16.988 18.14 19.1666 16.2596 21.5703C14.7211 23.5443 13.6049 25.4161 13.2932 27.9424C13.2228 28.5254 13.8262 29.0061 14.3491 29.0164C14.9825 29.0164 15.3345 28.5152 15.4049 27.9424L15.4149 27.9322Z" fill="#CFCFCF" fill-opacity="0.998047"/>
<path d="M15.415 27.9324C15.1234 25.5799 14.1681 23.8411 12.7704 21.9796C11.976 20.9261 11.0911 19.934 10.2063 18.9623C8.01416 16.5587 5.75167 14.2266 3.47914 11.9151C2.91603 11.3423 2.36298 10.7798 1.79987 10.2172C0.834545 9.24553 -0.663721 10.7593 0.31166 11.731C3.82102 15.2495 7.43094 18.7782 10.5984 22.624C11.7649 24.0457 13.052 25.8356 13.3033 27.9324C13.3737 28.5154 13.7357 28.9961 14.3592 29.0063C14.872 29.0063 15.4854 28.5052 15.415 27.9324Z" fill="#CFCFCF" fill-opacity="0.998047"/>
<path d="M8.07476 38.9995H20.0709C21.4284 38.9995 21.4284 36.8516 20.0709 36.8516H8.07476C6.71727 36.8516 6.71727 38.9995 8.07476 38.9995Z" fill="#CFCFCF" fill-opacity="0.998047"/>
<path d="M1.22661 11.7924H27.9742C29.3317 11.7924 29.3317 9.64453 27.9742 9.64453H1.22661C-0.130876 9.64453 -0.130876 11.7924 1.22661 11.7924Z" fill="#CFCFCF" fill-opacity="0.998047"/>
<path d="M7.43098 16.4981C8.69797 15.3628 10.4074 15.8537 11.7247 16.6413C12.8609 17.3266 13.6453 18.3187 14.9525 18.7278C17.7781 19.5972 21.4684 18.6051 23.5801 16.539C24.5655 15.5776 23.0672 14.0638 22.0919 15.0252C20.3824 16.7027 16.4105 17.8175 14.4296 16.0583C12.0565 13.9513 8.61753 12.5909 5.93271 14.9843C4.90706 15.9049 6.40532 17.4186 7.42093 16.4981H7.43098Z" fill="#CFCFCF" fill-opacity="0.998047"/>
<path d="M15.6562 25.9174C16.2394 19.4021 16.8226 12.8868 17.4058 6.37141C17.4863 5.44065 17.5667 4.52012 17.6572 3.58935L16.8829 4.6224C19.1857 3.79392 21.4884 2.96543 23.7911 2.13695C25.0681 1.67669 24.5151 -0.399633 23.228 0.070863C20.9253 0.899344 18.6225 1.72783 16.3198 2.55631C15.8372 2.73019 15.5858 3.08817 15.5456 3.58935C14.9624 10.1047 14.3791 16.62 13.7959 23.1354C13.7155 24.0661 13.635 24.9867 13.5445 25.9174C13.4239 27.2982 15.5355 27.288 15.6562 25.9174Z" fill="#CFCFCF" fill-opacity="0.998047"/>
<path d="M13.3034 27.6059V37.8239C13.3034 39.2047 15.4151 39.2047 15.4151 37.8239V27.6059C15.4151 26.2251 13.3034 26.2251 13.3034 27.6059Z" fill="#CFCFCF" fill-opacity="0.998047"/>
</g>
<defs>
<clipPath id="clip0_440_120438">
<rect width="29" height="39" fill="white"/>
</clipPath>
</defs>
</svg>
