<svg width="37" height="40" viewBox="0 0 37 40" fill="none" xmlns="http://www.w3.org/2000/svg">
<g clip-path="url(#clip0_440_120446)">
<path d="M27.7609 34.3945C26.1003 34.2501 24.0034 33.6951 22.5025 34.672C21.2678 35.4714 19.6285 38.4689 18.0106 37.4253C16.531 36.4705 15.6156 34.6498 13.7528 34.3723C12.369 34.1613 9.28214 35.5713 8.4093 34.0947C7.53646 32.6182 7.96223 30.531 6.86586 29.0767C6.32299 28.344 5.5353 27.9665 4.77955 27.5224C4.1196 27.145 2.83162 26.6787 2.50164 25.9015C2.17167 25.1244 2.82098 24.0142 3.10838 23.2926C3.42771 22.5044 3.84284 21.6828 3.95993 20.828C4.2154 18.8186 2.66131 17.453 2.27811 15.6212C1.89491 13.7894 5.06695 12.9679 6.09946 11.9687C7.51517 10.6143 7.23841 8.54934 7.78128 6.80635C8.37736 4.89683 10.964 5.89599 12.4329 5.9293C14.6256 5.97371 15.6901 4.08639 17.2335 2.80968C18.777 1.53296 20.2778 3.84215 21.4061 4.78581C23.0986 6.20684 25.0465 5.54073 27.0051 5.3409C29.134 5.12996 29.0169 7.94984 29.4427 9.5041C30.0175 11.569 31.8057 12.2796 33.4556 13.2454C34.4668 13.8338 34.7542 14.5221 34.3072 15.6767C33.9559 16.5871 33.5088 17.4641 33.2214 18.3967C32.455 20.8058 34.1901 22.1824 34.6904 24.3362C35.1907 26.4899 31.4225 27.2116 30.4432 28.6104C29.464 30.0092 29.9536 34.4278 27.7609 34.4056C26.3239 34.3945 26.3239 36.7259 27.7609 36.737C30.7945 36.7592 31.3267 34.0947 31.7951 31.619C31.976 30.6531 32.1251 30.0092 32.966 29.4208C33.7217 28.8879 34.5413 28.4661 35.2971 27.9443C36.468 27.1339 37.1705 25.8127 36.9683 24.3251C36.8405 23.3592 36.2977 22.4156 35.9145 21.5496C35.4993 20.6171 35.0523 19.9398 35.4355 18.9074C35.7761 17.9859 36.1912 17.0867 36.5319 16.1763C36.9683 15.0106 36.9151 13.745 36.2445 12.6792C35.6909 11.7911 34.7436 11.347 33.8814 10.8474C33.0192 10.3478 31.9867 9.97038 31.6141 8.98231C31.2948 8.11637 31.199 7.1061 30.9861 6.20685C30.7094 5.03005 30.1984 4.00868 29.1233 3.40918C28.1441 2.85408 27.1541 3.00951 26.111 3.14273C25.2701 3.24265 23.865 3.67562 23.0773 3.22044C22.3428 2.79857 21.6722 1.98814 21.0442 1.42194C20.1394 0.567099 19.2347 -0.0657066 17.9786 0.000904536C16.7971 0.0675157 15.9775 0.822442 15.1685 1.61067C14.5618 2.19907 13.7634 3.33146 12.9225 3.5535C12.0816 3.77554 10.9427 3.45358 10.1018 3.37587C7.74934 3.17604 6.00366 4.1641 5.52466 6.70643C5.35435 7.59458 5.27984 8.56044 5.00308 9.41528C4.67311 10.47 3.57673 10.8918 2.72518 11.4358C1.87362 11.9798 0.968848 12.4794 0.436627 13.4342C-0.212683 14.611 -0.0743051 15.8655 0.436627 17.0534C0.809182 17.9415 1.3414 18.8297 1.6288 19.7511C1.9162 20.6726 1.38398 21.5718 1.04336 22.4156C0.681449 23.3259 0.170517 24.2696 0.159872 25.2798C0.138583 26.6898 0.883693 27.8444 2.012 28.566C2.81033 29.0767 3.68318 29.4763 4.48151 30.0092C5.3437 30.5754 5.4395 31.3304 5.65239 32.2962C5.86528 33.2621 5.98237 34.2612 6.40815 35.105C7.0681 36.4261 8.39865 37.1366 9.80372 37.0478C10.6766 36.9923 11.56 36.8258 12.4222 36.7259C13.3802 36.6037 13.9444 36.848 14.6682 37.4919C16.5203 39.1461 18.596 41.1666 21.0229 39.1572C21.7148 38.591 22.3322 37.9138 22.9815 37.2921C23.684 36.6148 24.2482 36.415 25.2062 36.5038L27.7609 36.7259C29.1978 36.848 29.1872 34.5166 27.7609 34.3945Z" fill="#CFCFCF" fill-opacity="0.998047"/>
<path d="M9.80351 16.3419C9.94189 16.1865 10.1441 16.1087 10.3996 16.1087C10.538 16.1087 10.6657 16.1309 10.7934 16.1643C10.9105 16.2087 11.0276 16.2642 11.1234 16.3308L11.5918 14.9764C11.4215 14.8542 11.2192 14.7654 10.9744 14.7099C10.7296 14.6544 10.4848 14.6211 10.2293 14.6211C9.46289 14.6211 8.87744 14.8431 8.46231 15.2761C8.04718 15.7091 7.84494 16.2864 7.84494 17.008V17.2966H6.89758V18.7288H7.84494V23.5803H9.6332V18.7288H11.166V17.2966H9.59062V17.0191C9.59062 16.7082 9.66513 16.4751 9.80351 16.3197V16.3419Z" fill="#CFCFCF" fill-opacity="0.998047"/>
<path d="M13.8165 18.0512V17.163H12.1134V23.591H13.9017V20.5602C13.9017 19.9496 14.0507 19.4944 14.3487 19.2058C14.6468 18.9171 15.0406 18.7728 15.5303 18.7728C15.5941 18.7728 15.658 18.7728 15.7219 18.7728C15.7857 18.7728 15.8496 18.7728 15.9241 18.795V17.0742C15.3387 17.0742 14.849 17.1963 14.4445 17.4295C14.1784 17.5849 13.9762 17.8069 13.8059 18.0623L13.8165 18.0512Z" fill="#CFCFCF" fill-opacity="0.998047"/>
<path d="M21.3955 17.4739C20.9058 17.2074 20.363 17.0742 19.7669 17.0742C19.1708 17.0742 18.5854 17.2185 18.0851 17.4961C17.5848 17.7736 17.2016 18.1733 16.9142 18.6618C16.6268 19.1503 16.4884 19.7276 16.4884 20.3715C16.4884 21.0154 16.6374 21.5705 16.9248 22.0701C17.2122 22.5696 17.6274 22.9582 18.1596 23.2469C18.6918 23.5355 19.3092 23.6798 20.0117 23.6798C20.5652 23.6798 21.0655 23.591 21.4913 23.4134C21.9171 23.2358 22.2683 22.9804 22.5557 22.6474L21.6084 21.5705C21.4061 21.7814 21.1719 21.9368 20.9271 22.0368C20.6823 22.1367 20.3949 22.1922 20.0649 22.1922C19.703 22.1922 19.3837 22.1256 19.1069 21.9812C18.8408 21.8369 18.6279 21.6371 18.4789 21.3706C18.3938 21.2263 18.3405 21.0709 18.3086 20.8933H22.9602C22.9602 20.8155 22.9709 20.7267 22.9815 20.6379C22.9921 20.5491 22.9921 20.4603 22.9921 20.3937C22.9921 19.7054 22.8538 19.1059 22.5664 18.6063C22.279 18.1067 21.8958 17.7292 21.4168 17.4628L21.3955 17.4739ZM18.9686 18.6951C19.2027 18.5508 19.4688 18.4842 19.7775 18.4842C20.0862 18.4842 20.3523 18.5508 20.5759 18.6951C20.81 18.8394 20.9803 19.0281 21.1187 19.2724C21.2039 19.4389 21.2465 19.6165 21.2784 19.8164H18.266C18.298 19.6165 18.3405 19.4278 18.4257 19.2724C18.5534 19.017 18.7344 18.8283 18.9686 18.684V18.6951Z" fill="#CFCFCF" fill-opacity="0.998047"/>
<path d="M29.7726 18.6174C29.4852 18.1178 29.102 17.7403 28.623 17.4739C28.1334 17.2074 27.5905 17.0742 26.9944 17.0742C26.3983 17.0742 25.8022 17.2185 25.3126 17.4961C24.8123 17.7736 24.4291 18.1733 24.1417 18.6618C23.8543 19.1614 23.7159 19.7276 23.7159 20.3715C23.7159 21.0154 23.865 21.5705 24.1524 22.0701C24.4398 22.5696 24.8549 22.9582 25.3871 23.2469C25.9193 23.5355 26.5367 23.6798 27.2392 23.6798C27.7928 23.6798 28.293 23.591 28.7188 23.4134C29.1446 23.2358 29.4959 22.9804 29.7833 22.6474L28.8359 21.5705C28.6337 21.7814 28.3995 21.9368 28.1547 22.0368C27.9098 22.1367 27.6224 22.1922 27.2925 22.1922C26.9306 22.1922 26.6112 22.1256 26.3345 21.9812C26.0684 21.8369 25.8555 21.6371 25.7064 21.3706C25.6213 21.2263 25.5681 21.0709 25.5361 20.8933H30.1877C30.1877 20.8155 30.1984 20.7267 30.209 20.6379C30.209 20.5491 30.2197 20.4603 30.2197 20.3937C30.2197 19.7054 30.0813 19.1059 29.7939 18.6063L29.7726 18.6174ZM26.1961 18.684C26.4303 18.5397 26.6964 18.4731 27.0051 18.4731C27.3138 18.4731 27.5799 18.5397 27.8034 18.684C28.0376 18.8283 28.2079 19.017 28.3463 19.2613C28.4314 19.4278 28.474 19.6054 28.5059 19.8053H25.4936C25.5255 19.6054 25.5681 19.4167 25.6532 19.2613C25.781 19.0059 25.9619 18.8172 26.1961 18.6729V18.684Z" fill="#CFCFCF" fill-opacity="0.998047"/>
</g>
<defs>
<clipPath id="clip0_440_120446">
<rect width="37" height="40" fill="white"/>
</clipPath>
</defs>
</svg>
