<svg width="33" height="39" viewBox="0 0 33 39" fill="none" xmlns="http://www.w3.org/2000/svg">
<g clip-path="url(#clip0_440_120434)">
<path d="M30.8993 0.58355C28.7669 3.60848 28.1502 7.27081 27.9098 10.9223C27.6693 14.5739 27.8261 18.2794 26.4777 21.6392C25.0352 25.2259 21.6798 27.4406 18.1362 28.3265C15.2303 29.0611 12.199 28.845 9.28258 29.5365C5.1223 30.5196 2.27909 33.6309 0.167596 37.3149C-0.553658 38.568 1.33833 39.7132 2.05958 38.46C3.98293 35.111 6.44983 32.4318 10.2547 31.6431C13.2024 31.0273 16.2338 31.2218 19.1606 30.4007C22.5892 29.4392 25.8923 27.311 27.7321 24.1024C29.5718 20.8938 29.7599 17.3287 29.9481 13.8284C30.1676 9.60433 30.3035 5.283 32.8017 1.7287C33.638 0.55114 31.7251 -0.583209 30.9098 0.58355H30.8993Z" fill="#CFCFCF" fill-opacity="0.998047"/>
<path d="M31.5577 0.0642098C26.2162 1.87917 20.6448 2.76504 15.7737 5.86559C13.15 7.52931 10.704 9.7764 9.10473 12.5204C7.50543 15.2645 6.82599 18.4299 6.60647 21.5412C6.38696 24.6526 6.57512 27.7855 7.83992 30.5188C8.4462 31.8368 10.3382 30.6808 9.73191 29.3736C8.42529 26.5432 8.52982 22.8268 8.9793 19.8127C9.56466 15.9343 11.1535 12.6933 13.9758 10.0465C19.0769 5.27141 25.8399 4.38554 32.1222 2.24648C33.4601 1.79274 32.8852 -0.400333 31.5368 0.0642098H31.5577Z" fill="#CFCFCF" fill-opacity="0.998047"/>
<path d="M17.3415 15.7406C16.2126 21.434 12.1777 25.5392 8.01744 29.1367C6.93033 30.0766 8.48782 31.6755 9.56448 30.7356C14.007 26.9005 18.2509 22.3955 19.453 16.3348C19.7352 14.9088 17.6237 14.3038 17.3415 15.7298V15.7406Z" fill="#CFCFCF" fill-opacity="0.998047"/>
</g>
<defs>
<clipPath id="clip0_440_120434">
<rect width="33" height="39" fill="white"/>
</clipPath>
</defs>
</svg>
