<svg width="33" height="29" viewBox="0 0 33 29" fill="none" xmlns="http://www.w3.org/2000/svg">
<g clip-path="url(#clip0_1367_87687)">
<path d="M5.97781 11.9927L6.69091 12.5265L7.30328 11.8797C9.71367 9.33344 13.9665 6.4375 18.7401 6.4375C22.3777 6.4375 25.7296 8.11815 28.2041 10.0736C29.4354 11.0467 30.4204 12.0655 31.0881 12.9304C31.4226 13.3637 31.6655 13.743 31.8198 14.0452C31.9638 14.327 31.9931 14.4693 31.9987 14.4964C31.9991 14.498 31.9993 14.4992 31.9995 14.5C31.9993 14.5008 31.9991 14.502 31.9987 14.5036C31.9931 14.5307 31.9638 14.673 31.8198 14.9548C31.6655 15.257 31.4226 15.6363 31.0881 16.0696C30.4204 16.9345 29.4354 17.9533 28.2041 18.9264C25.7296 20.8819 22.3777 22.5625 18.7401 22.5625C13.9664 22.5625 9.71326 19.6666 7.29603 17.1244L6.68405 16.4808L5.97266 17.0125L1.04738 20.6938L2.37967 14.7176L2.42808 14.5004L2.37986 14.2833L1.05287 8.30615L5.97781 11.9927ZM0.935683 20.7448C0.935693 20.7448 0.935994 20.7449 0.936548 20.7453L0.935683 20.7448ZM0.94297 8.25227C0.942958 8.25226 0.943237 8.25206 0.943841 8.25171L0.94297 8.25227ZM21.3724 14.5C21.3724 15.8107 22.4497 16.8594 23.7474 16.8594C25.0536 16.8594 26.1224 15.808 26.1224 14.5C26.1224 13.1836 25.0508 12.1406 23.7474 12.1406C22.4524 12.1406 21.3724 13.181 21.3724 14.5Z" stroke="#233038" stroke-opacity="0.8" stroke-width="2"/>
</g>
<defs>
<clipPath id="clip0_1367_87687">
<rect width="33" height="29" fill="white"/>
</clipPath>
</defs>
</svg>
