<svg width="43" height="33" viewBox="0 0 43 33" fill="none" xmlns="http://www.w3.org/2000/svg">
<g clip-path="url(#clip0_959_126635)">
<path d="M22.3468 30.5186C14.9434 23.0424 14.777 9.34595 22.3468 1.88955H20.7897C28.3204 9.49429 28.193 22.8842 20.7897 30.5186C19.8007 31.547 21.3577 33.1194 22.3468 32.0909C30.5825 23.6061 30.7294 8.78227 22.3468 0.31718C21.9257 -0.108052 21.2206 -0.0981633 20.7897 0.31718C12.3679 8.61415 12.554 23.7643 20.7897 32.0909C21.7984 33.1095 23.3554 31.5273 22.3468 30.5186Z" fill="#F8F8F8"/>
<path d="M35.1664 22.6758C37.3796 23.6549 39.436 24.9602 41.1302 26.7106V25.1382C36.0869 30.2509 28.429 31.8332 21.6034 30.1322C20.2227 29.7861 19.6351 31.9321 21.0159 32.2782C28.5955 34.167 37.0858 32.387 42.6872 26.7106C43.1083 26.2854 43.1083 25.5734 42.6872 25.1382C40.8756 23.2593 38.6526 21.7957 36.273 20.7475C34.9901 20.1838 33.864 22.0924 35.1566 22.666L35.1664 22.6758Z" fill="#F8F8F8"/>
<path d="M6.72836 20.7483C4.34872 21.7965 2.13556 23.2502 0.314108 25.139C-0.0971877 25.5742 -0.106981 26.2862 0.314108 26.7114C5.91557 32.3878 14.4059 34.1678 21.9855 32.279C23.3663 31.9329 22.7787 29.7869 21.3979 30.133C14.5724 31.834 6.91443 30.2517 1.87116 25.139V26.7114C3.5653 24.961 5.62178 23.6458 7.83495 22.6766C9.12759 22.1031 8.01122 20.1846 6.71857 20.7582L6.72836 20.7483Z" fill="#F8F8F8"/>
<path d="M27.9868 15.0312C31.3262 12.6183 35.302 11.0558 39.4542 11.1151L38.3574 10.0076C38.3672 19.7286 30.6015 28.3222 21.269 30.0231C19.8784 30.2803 20.466 32.4163 21.8566 32.1691C32.139 30.3 40.5705 20.6582 40.5607 10.0076C40.5607 9.40433 40.0613 8.89998 39.4639 8.89998C34.9495 8.84065 30.5232 10.4921 26.89 13.1226C25.7443 13.9434 26.8411 15.8817 28.0064 15.0411L27.9868 15.0312Z" fill="#F8F8F8"/>
<path d="M16.2371 13.0933C12.5942 10.4628 8.16787 8.81135 3.6632 8.87069C3.06585 8.87069 2.56641 9.37503 2.56641 9.97827C2.55662 20.619 10.9882 30.2707 21.2706 32.1398C22.6612 32.387 23.2487 30.251 21.8581 29.9939C12.5256 28.3028 4.75999 19.7092 4.76979 9.97827L3.673 11.0859C7.82513 11.0364 11.7912 12.589 15.1403 15.0019C16.2959 15.8326 17.3927 13.9043 16.2567 13.0835L16.2371 13.0933Z" fill="#F8F8F8"/>
</g>
<defs>
<clipPath id="clip0_959_126635">
<rect width="43" height="33" fill="white"/>
</clipPath>
</defs>
</svg>
