<svg width="20" height="20" viewBox="0 0 20 20" fill="none" xmlns="http://www.w3.org/2000/svg">
<mask id="mask0_1946_129119" style="mask-type:alpha" maskUnits="userSpaceOnUse" x="0" y="0" width="20" height="20">
<rect width="20" height="20" fill="#D9D9D9"/>
</mask>
<g mask="url(#mask0_1946_129119)">
<path d="M3.59109 17.9168C3.16839 17.9168 2.8112 17.771 2.51953 17.4793C2.22786 17.1876 2.08203 16.8304 2.08203 16.4077V13.3335H3.33201V16.4104C3.33201 16.4745 3.35872 16.5333 3.41214 16.5867C3.46557 16.6401 3.52434 16.6668 3.58845 16.6668H6.66534V17.9168H3.59109ZM2.08203 6.66681V3.59256C2.08203 3.16985 2.22786 2.81266 2.51953 2.521C2.8112 2.22933 3.16839 2.0835 3.59109 2.0835H6.66534V3.33348H3.58845C3.52434 3.33348 3.46557 3.36018 3.41214 3.4136C3.35872 3.46703 3.33201 3.5258 3.33201 3.58991V6.66681H2.08203ZM13.332 17.9168V16.6668H16.4089C16.473 16.6668 16.5318 16.6401 16.5852 16.5867C16.6386 16.5333 16.6653 16.4745 16.6653 16.4104V13.3335H17.9153V16.4077C17.9153 16.8304 17.7695 17.1876 17.4778 17.4793C17.1862 17.771 16.829 17.9168 16.4063 17.9168H13.332ZM16.6653 6.66681V3.58991C16.6653 3.5258 16.6386 3.46703 16.5852 3.4136C16.5318 3.36018 16.473 3.33348 16.4089 3.33348H13.332V2.0835H16.4063C16.829 2.0835 17.1862 2.22933 17.4778 2.521C17.7695 2.81266 17.9153 3.16985 17.9153 3.59256V6.66681H16.6653ZM9.99772 9.95206C9.35414 9.95206 8.81146 9.73118 8.36968 9.28941C7.92791 8.84764 7.70703 8.30496 7.70703 7.66137C7.70703 7.0304 7.92791 6.49055 8.36968 6.04183C8.81146 5.59312 9.35414 5.36877 9.99772 5.36877C10.6287 5.36877 11.1685 5.59312 11.6173 6.04183C12.066 6.49055 12.2903 7.0304 12.2903 7.66137C12.2903 8.30496 12.066 8.84764 11.6173 9.28941C11.1685 9.73118 10.6287 9.95206 9.99772 9.95206ZM9.99868 8.7021C10.2882 8.7021 10.5342 8.60227 10.7367 8.4026C10.9391 8.20295 11.0404 7.95555 11.0404 7.66041C11.0404 7.37087 10.9391 7.12487 10.7367 6.92241C10.5342 6.71996 10.2869 6.61873 9.99468 6.61873C9.70247 6.61873 9.45647 6.71996 9.25668 6.92241C9.05689 7.12487 8.95699 7.37221 8.95699 7.66441C8.95699 7.95662 9.05682 8.20262 9.25647 8.40241C9.45614 8.6022 9.70354 8.7021 9.99868 8.7021ZM5.20703 14.6315V13.2565C5.20703 12.999 5.27204 12.7568 5.40205 12.53C5.53205 12.3031 5.7085 12.1222 5.93139 11.9873C6.5489 11.623 7.20034 11.3476 7.8857 11.1612C8.57106 10.9748 9.27539 10.8816 9.99868 10.8816C10.722 10.8816 11.4263 10.9748 12.1117 11.1612C12.797 11.3476 13.4485 11.623 14.066 11.9873C14.2889 12.1222 14.4653 12.3031 14.5953 12.53C14.7253 12.7568 14.7903 12.999 14.7903 13.2565V14.6315H5.20703ZM9.99868 12.1315C9.40252 12.1315 8.81225 12.2116 8.22784 12.3719C7.64343 12.5322 7.07878 12.7672 6.53391 13.077V13.3896H13.4635V13.069C12.9239 12.7592 12.3606 12.5255 11.7735 12.3679C11.1864 12.2103 10.5948 12.1315 9.99868 12.1315Z" fill="#AAAAAA"/>
</g>
</svg>
