<?xml version="1.0" encoding="utf-8"?>
<!-- Generator: Adobe Illustrator 27.1.1, SVG Export Plug-In . SVG Version: 6.00 Build 0)  -->
<svg version="1.1" id="Слой_1" xmlns="http://www.w3.org/2000/svg" xmlns:xlink="http://www.w3.org/1999/xlink" x="0px" y="0px"
	 viewBox="0 0 263 121" style="enable-background:new 0 0 263 121;" xml:space="preserve">
<style type="text/css">
	.st0{fill:#D9D4D4;}
</style>
<path class="st0" d="M8.2,89.1c-3.6,0-7.6-2.5-7.8-2.6C0.2,86.3,0,86,0,85.7s0.2-0.6,0.4-0.8c0.2-0.1,5.2-3.3,9-2.5
	c1.6,0.3,2.7,1.6,2.7,3.3s-1.1,2.9-2.7,3.3C9.1,89,8.6,89.1,8.2,89.1z M2.8,85.7c1.6,0.8,4.3,1.9,6.3,1.5c0.9-0.2,1.3-0.9,1.3-1.5
	s-0.3-1.3-1.3-1.5C7,83.8,4.4,84.9,2.8,85.7z"/>
<path class="st0" d="M254.8,89.1c-0.4,0-0.9,0-1.3-0.1c-1.6-0.3-2.7-1.6-2.7-3.3s1.1-2.9,2.7-3.3c3.9-0.8,8.8,2.4,9,2.5
	c0.3,0.2,0.4,0.5,0.4,0.8s-0.2,0.6-0.4,0.8C262.4,86.6,258.4,89.1,254.8,89.1z M253.9,84.2c-0.9,0.2-1.3,0.9-1.3,1.5
	s0.3,1.3,1.3,1.5c2,0.4,4.6-0.6,6.4-1.5C258.7,84.9,256,83.8,253.9,84.2L253.9,84.2z"/>
<path class="st0" d="M251.7,86.6H11.3c-0.5,0-0.9-0.4-0.9-0.9s0.4-0.9,0.9-0.9h240.4c0.5,0,0.9,0.4,0.9,0.9S252.2,86.6,251.7,86.6
	L251.7,86.6z"/>
<path class="st0" d="M154.2,110.3c-1.8,0-3.5-0.5-5.1-1.4c-3.3-2-5-5.7-4.5-9.5c0.3-2.1,1.5-4,3.3-5.3c2.7-1.9,5.7-2.1,8.1-0.7
	c2.2,1.3,3.4,3.9,3.1,6.4c-0.2,1.4-0.9,2.7-2.1,3.6s-2.6,1.3-4,1.1c-0.5-0.1-0.8-0.5-0.8-1c0.1-0.5,0.5-0.8,1-0.8
	c0.9,0.1,1.9-0.1,2.6-0.7s1.2-1.4,1.4-2.4c0.2-1.9-0.6-3.7-2.2-4.7c-1.8-1.1-4-0.9-6.2,0.6c-1.4,1-2.3,2.5-2.5,4.1
	c-0.4,3.1,1,6.1,3.7,7.8c2.9,1.8,6.6,1.5,10.1-0.9c2.4-1.7,3.9-4.1,4.3-6.8c0-0.3,0.1-0.6,0.1-0.9c0.2-3.8-1.5-7.4-4.7-9.8
	c-3.4-2.5-7.7-3.1-11.6-1.7l-0.4,0.2c-3,1-6.7,3.4-9.9,6.2c-9.4,8.5-18,5.8-18.8,5.4c-4.1-1-6.6-5.2-5.6-9.3
	c0.8-3.4,4.2-5.4,7.6-4.6c1.4,0.3,2.6,1.3,3.3,2.6c1,1.9,0.9,3.9-0.2,5.4c-1.1,1.3-2.8,1.9-4.5,1.5c-0.5-0.1-0.8-0.6-0.7-1.1
	c0.1-0.5,0.6-0.8,1.1-0.7c1,0.2,2-0.1,2.6-0.9c0.7-0.9,0.7-2.2,0.1-3.4c-0.4-0.9-1.2-1.5-2.1-1.7c-2.4-0.6-4.8,0.9-5.4,3.3
	c-0.8,3.1,1.2,6.3,4.3,7.1c0,0,0.1,0,0.1,0c0.3,0.1,8.2,2.9,17-5.1c3.4-3,7.3-5.5,10.5-6.6l0.4-0.1c4.5-1.7,9.4-0.9,13.3,1.9
	c3.7,2.7,5.7,6.8,5.4,11.3c0,0.3-0.1,0.7-0.1,1c-0.4,3.3-2.2,6.1-5.1,8.1C159,109.6,156.5,110.3,154.2,110.3L154.2,110.3z"/>
<path class="st0" d="M108.8,110.3c-2.3,0-4.7-0.8-7-2.3c-2.8-1.9-4.6-4.8-5-8.1c0-0.3-0.1-0.7-0.1-1c-0.2-4.5,1.7-8.6,5.4-11.3
	c3.9-2.8,8.8-3.6,13.3-1.9l0.4,0.1c3.2,1.1,7.1,3.5,10.5,6.6c8.8,8,16.7,5.2,17,5.1c0,0,0.1,0,0.1,0c3.1-0.8,5.1-4,4.3-7.1
	c-0.6-2.4-3-3.9-5.4-3.3c-0.9,0.2-1.7,0.8-2.1,1.7c-0.7,1.3-0.6,2.5,0.1,3.4c0.6,0.8,1.6,1.1,2.6,0.9c0.5-0.1,1,0.2,1.1,0.7
	c0.1,0.5-0.2,1-0.7,1.1c-1.7,0.4-3.4-0.2-4.5-1.5c-1.1-1.5-1.2-3.5-0.2-5.4c0.7-1.3,1.9-2.3,3.3-2.6c3.4-0.8,6.8,1.3,7.6,4.6
	c1,4.1-1.5,8.2-5.6,9.3c-0.8,0.3-9.4,3.1-18.8-5.5c-3.2-2.8-6.9-5.2-9.9-6.2l-0.4-0.2c-3.9-1.4-8.2-0.8-11.6,1.7
	c-3.2,2.4-4.9,5.9-4.7,9.8c0,0.3,0,0.6,0.1,0.9c0.3,2.7,1.9,5.2,4.3,6.8c3.5,2.4,7.1,2.7,10.1,0.9c2.7-1.6,4.1-4.7,3.7-7.8
	c-0.2-1.6-1.1-3.1-2.5-4.1c-2.1-1.5-4.3-1.7-6.2-0.6c-1.6,1-2.5,2.8-2.2,4.7c0.1,0.9,0.6,1.8,1.4,2.4c0.8,0.6,1.7,0.8,2.7,0.7
	c0.5-0.1,1,0.3,1,0.8c0.1,0.5-0.3,0.9-0.8,1c-1.4,0.2-2.9-0.2-4-1.1s-1.9-2.2-2.1-3.6c-0.3-2.6,0.9-5.1,3.1-6.4
	c2.4-1.5,5.4-1.2,8.1,0.7c1.8,1.3,3,3.2,3.3,5.3c0.5,3.8-1.3,7.5-4.5,9.5C112.3,109.8,110.6,110.3,108.8,110.3L108.8,110.3z"/>
<path class="st0" d="M131.5,120.1c-1.4,0-2.9-1.2-3.3-4c-0.7-5.8,2.3-13.5,2.4-13.8c0.1-0.3,0.5-0.6,0.8-0.6s0.7,0.2,0.8,0.6
	c0.1,0.3,3.2,8,2.4,13.8C134.4,118.8,132.9,120.1,131.5,120.1z M131.5,105.4c-0.8,2.7-1.9,7-1.5,10.5c0.2,1.6,0.9,2.4,1.5,2.4
	s1.3-0.8,1.5-2.4C133.4,112.4,132.3,108,131.5,105.4z"/>
<path class="st0" d="M141.3,109.7c-0.5,0-1-0.2-1.4-0.4c-2.2-1.5-3.1-5.4-3.1-5.5c-0.1-0.3,0-0.6,0.2-0.8c0.2-0.2,0.5-0.3,0.8-0.2
	c0.2,0,4,0.9,5.5,3.1c0.7,1,0.6,2.3-0.3,3.2C142.6,109.4,141.9,109.7,141.3,109.7L141.3,109.7z M139,104.9c0.4,1,1,2.3,1.9,2.8
	c0.4,0.3,0.8,0,0.9-0.1c0.1-0.1,0.4-0.4,0.1-0.9C141.3,105.9,140.1,105.3,139,104.9L139,104.9z"/>
<path class="st0" d="M121.7,109.7c-0.6,0-1.2-0.2-1.7-0.7c-0.9-0.9-1-2.1-0.3-3.2c1.5-2.2,5.3-3.1,5.5-3.1c0.3-0.1,0.6,0,0.8,0.2
	c0.2,0.2,0.3,0.5,0.2,0.8c0,0.2-0.9,4-3.1,5.5C122.6,109.5,122.1,109.7,121.7,109.7L121.7,109.7z M124,104.9c-1.1,0.4-2.2,1-2.8,1.9
	c-0.3,0.4,0,0.8,0.1,0.9c0.1,0.1,0.4,0.4,0.9,0.1C122.9,107.2,123.6,105.9,124,104.9L124,104.9z"/>
<path class="st0" d="M8.2,37.8c-3.6,0-7.6-2.5-7.8-2.6C0.2,35,0,34.7,0,34.4c0-0.3,0.2-0.6,0.4-0.8c0.2-0.1,5.2-3.3,9-2.5
	c1.6,0.3,2.7,1.6,2.7,3.3s-1.1,3-2.7,3.3C9.1,37.7,8.6,37.8,8.2,37.8z M2.8,34.4c1.6,0.8,4.3,1.9,6.4,1.5c0.9-0.2,1.3-0.9,1.3-1.5
	c0-0.6-0.3-1.3-1.3-1.5C7.2,32.5,4.5,33.5,2.8,34.4L2.8,34.4z"/>
<path class="st0" d="M254.8,37.8c-0.4,0-0.9,0-1.3-0.1c-1.6-0.3-2.7-1.6-2.7-3.3s1.1-2.9,2.7-3.3c3.9-0.8,8.8,2.4,9,2.5
	c0.3,0.2,0.4,0.5,0.4,0.8c0,0.3-0.2,0.6-0.4,0.8C262.4,35.2,258.4,37.8,254.8,37.8z M254.9,32.8c-0.3,0-0.7,0-1,0.1
	c-0.9,0.2-1.3,0.9-1.3,1.5c0,0.6,0.3,1.3,1.3,1.5c2,0.4,4.6-0.6,6.4-1.5C258.9,33.7,256.8,32.8,254.9,32.8z"/>
<path class="st0" d="M251.7,35.3H11.3c-0.5,0-0.9-0.4-0.9-0.9s0.4-0.9,0.9-0.9h240.4c0.5,0,0.9,0.4,0.9,0.9S252.2,35.3,251.7,35.3
	L251.7,35.3z"/>
<path class="st0" d="M152.5,35.3c-1.6,0-3.3-0.3-4.9-0.9l-0.4-0.2c-3.2-1.1-7.1-3.5-10.5-6.6c-8.9-8.1-16.9-5.1-17-5.1
	c0,0-0.1,0-0.1,0c-3.1,0.8-5.1,4-4.3,7.1c0.6,2.4,3,3.9,5.4,3.3c0.9-0.2,1.7-0.8,2.1-1.7c0.7-1.3,0.6-2.5-0.1-3.4
	c-0.6-0.8-1.6-1.1-2.6-0.9c-0.5,0.1-1-0.2-1.1-0.7c-0.1-0.5,0.2-1,0.7-1.1c1.7-0.4,3.4,0.2,4.5,1.5c1.2,1.5,1.2,3.5,0.2,5.4
	c-0.7,1.3-1.9,2.3-3.3,2.6c-3.4,0.8-6.8-1.3-7.6-4.6c-1-4.1,1.5-8.2,5.5-9.3c0.9-0.3,9.4-3.1,18.8,5.5c3.2,2.8,6.9,5.2,9.9,6.2
	l0.4,0.2c3.9,1.4,8.2,0.8,11.6-1.7c3.2-2.4,4.9-5.9,4.7-9.8c0-0.3,0-0.6-0.1-0.9c-0.3-2.7-1.9-5.2-4.3-6.8
	c-3.4-2.4-7.1-2.7-10.1-0.9c-2.7,1.6-4.1,4.7-3.7,7.8c0.2,1.6,1.1,3.1,2.5,4c2.1,1.5,4.4,1.7,6.1,0.6c1.6-1,2.5-2.8,2.2-4.7
	c-0.1-1-0.6-1.8-1.4-2.4c-0.8-0.6-1.7-0.8-2.6-0.7c-0.5,0.1-0.9-0.3-1-0.8c-0.1-0.5,0.3-0.9,0.8-1c1.4-0.2,2.8,0.2,4,1.1
	c1.1,0.9,1.9,2.2,2.1,3.6c0.3,2.6-0.9,5.1-3.1,6.4c-2.4,1.5-5.4,1.2-8.1-0.7c-1.8-1.3-3-3.2-3.3-5.3c-0.5-3.8,1.3-7.5,4.6-9.5
	c3.5-2.2,8-1.8,12,0.9c2.8,1.9,4.6,4.8,5.1,8.1c0,0.4,0.1,0.7,0.1,1c0.2,4.5-1.7,8.6-5.4,11.3C158.4,34.3,155.5,35.3,152.5,35.3
	L152.5,35.3z"/>
<path class="st0" d="M110.5,35.3c-3,0-5.9-0.9-8.4-2.8c-3.7-2.7-5.7-6.9-5.4-11.3c0-0.3,0.1-0.7,0.1-1c0.4-3.2,2.2-6.1,5-8.1
	c4-2.7,8.5-3.1,12.1-0.9c3.3,2,5,5.7,4.5,9.5c-0.3,2.1-1.5,4-3.3,5.3c-2.7,1.9-5.7,2.1-8.1,0.7c-2.2-1.3-3.4-3.9-3.1-6.4
	c0.2-1.4,0.9-2.7,2.1-3.6c1.1-0.9,2.6-1.3,4-1.1c0.5,0.1,0.8,0.5,0.8,1s-0.5,0.8-1,0.8c-0.9-0.1-1.9,0.1-2.7,0.7
	c-0.8,0.6-1.2,1.4-1.4,2.4c-0.2,1.9,0.6,3.7,2.2,4.7c1.8,1.1,4,0.9,6.2-0.6c1.4-1,2.3-2.5,2.5-4c0.4-3.1-1-6.1-3.7-7.8
	c-2.9-1.8-6.6-1.5-10.1,0.9c-2.4,1.6-3.9,4.1-4.3,6.8c0,0.3-0.1,0.6-0.1,0.9c-0.2,3.9,1.5,7.4,4.7,9.8c3.4,2.5,7.7,3.1,11.6,1.7
	l0.4-0.1c3-1,6.7-3.4,9.9-6.2c9.4-8.5,18-5.8,18.8-5.5c4.1,1,6.6,5.2,5.6,9.3c-0.8,3.4-4.2,5.4-7.6,4.6c-1.4-0.3-2.6-1.3-3.3-2.6
	c-1-1.9-0.9-3.9,0.2-5.4c1.1-1.3,2.8-1.9,4.5-1.5c0.5,0.1,0.8,0.6,0.7,1.1s-0.6,0.8-1.1,0.7c-1-0.2-2,0.1-2.6,0.9
	c-0.7,0.9-0.7,2.1-0.1,3.4c0.4,0.9,1.2,1.5,2.1,1.7c2.4,0.6,4.8-0.9,5.4-3.3c0.8-3.1-1.2-6.3-4.3-7.1c0,0-0.1,0-0.1,0
	c-0.3-0.1-8.2-3-17,5.1c-3.4,3-7.3,5.5-10.5,6.6l-0.4,0.1C113.8,35,112.1,35.3,110.5,35.3L110.5,35.3z"/>
<path class="st0" d="M131.5,18.3c-0.4,0-0.7-0.2-0.8-0.6c-0.1-0.3-3.2-8-2.4-13.8c0.3-2.7,1.9-4,3.3-4s2.9,1.2,3.3,4
	c0.7,5.8-2.3,13.5-2.4,13.8C132.2,18.1,131.9,18.3,131.5,18.3z M131.5,1.8c-0.6,0-1.3,0.8-1.5,2.4c-0.4,3.5,0.6,7.8,1.5,10.5
	c0.8-2.7,1.9-7,1.5-10.5C132.8,2.5,132.1,1.8,131.5,1.8z"/>
<path class="st0" d="M137.7,17.4c-0.2,0-0.5-0.1-0.6-0.3c-0.2-0.2-0.3-0.5-0.2-0.8c0-0.2,0.9-4,3.1-5.5c1-0.7,2.3-0.6,3.1,0.3
	c0.9,0.9,1,2.1,0.3,3.2c-1.5,2.2-5.3,3.1-5.5,3.1C137.8,17.4,137.7,17.4,137.7,17.4L137.7,17.4z M141.3,12.2c-0.1,0-0.2,0-0.4,0.1
	c-0.8,0.6-1.5,1.8-1.9,2.8c1-0.4,2.2-1.1,2.8-1.9c0.3-0.4,0-0.8-0.1-0.9C141.7,12.3,141.5,12.2,141.3,12.2z"/>
<path class="st0" d="M125.3,17.4c-0.1,0-0.1,0-0.2,0c-0.2,0-4-0.9-5.5-3.1c-0.7-1-0.6-2.3,0.3-3.2c0.9-0.9,2.1-1,3.1-0.3
	c2.2,1.5,3.1,5.4,3.1,5.5c0.1,0.3,0,0.6-0.2,0.8C125.8,17.3,125.6,17.4,125.3,17.4L125.3,17.4z M121.7,12.2c-0.2,0-0.4,0.1-0.5,0.2
	c-0.1,0.1-0.4,0.4-0.1,0.9c0.6,0.8,1.8,1.5,2.8,1.9c-0.4-1-1-2.3-1.9-2.8C121.9,12.2,121.8,12.2,121.7,12.2z"/>
</svg>
