<?xml version="1.0" encoding="utf-8"?>
<!-- Generator: Adobe Illustrator 27.1.1, SVG Export Plug-In . SVG Version: 6.00 Build 0)  -->
<svg version="1.1" id="Слой_1" xmlns="http://www.w3.org/2000/svg" xmlns:xlink="http://www.w3.org/1999/xlink" x="0px" y="0px"
	 viewBox="0 0 32 32" style="enable-background:new 0 0 32 32;" xml:space="preserve">
<style type="text/css">
	.st0{fill:#D9D9D9;filter:url(#Adobe_OpacityMaskFilter);}
	.st1{mask:url(#mask0_2077_127785_00000078031573277648373940000016305246832859503535_);}
	.st2{fill:#F8F8F8;}
</style>
<defs>
	<filter id="Adobe_OpacityMaskFilter" filterUnits="userSpaceOnUse" x="-1.3" y="0.6" width="34.6" height="28.9">
		<feColorMatrix  type="matrix" values="1 0 0 0 0  0 1 0 0 0  0 0 1 0 0  0 0 0 1 0"/>
	</filter>
</defs>
<mask maskUnits="userSpaceOnUse" x="-1.3" y="0.6" width="34.6" height="28.9" id="mask0_2077_127785_00000078031573277648373940000016305246832859503535_">
	<rect class="st0" width="32" height="32"/>
</mask>
<g class="st1">
	<path class="st2" d="M14.5,8.3V0.6h3.1v7.7H14.5z M24.6,12.7l-2.2-2.2L28,5l2.2,2.2L24.6,12.7z M7.3,12.7L1.9,7.2L4,5l5.5,5.5
		L7.3,12.7z M16,16c3,0,6,0.6,9,1.8c2.9,1.2,5.6,3.1,7.9,5.5c0.3,0.3,0.5,0.7,0.5,1.1c0,0.4-0.2,0.8-0.5,1.1L29.3,29
		c-0.3,0.3-0.6,0.4-1,0.5s-0.7-0.1-1-0.3l-4.5-3.4c-0.2-0.2-0.4-0.3-0.5-0.5c-0.1-0.2-0.2-0.4-0.2-0.7v-4.4c-1-0.3-2-0.6-3-0.7
		c-1-0.2-2.1-0.3-3.2-0.3s-2.1,0.1-3.2,0.3c-1,0.2-2,0.4-3,0.7v4.4c0,0.3-0.1,0.5-0.2,0.7c-0.1,0.2-0.3,0.4-0.5,0.5l-4.5,3.4
		c-0.3,0.2-0.6,0.3-1,0.3S3,29.3,2.7,29l-3.6-3.5c-0.3-0.3-0.5-0.7-0.5-1.1c0-0.4,0.2-0.8,0.5-1.1C1.4,20.9,4,19.1,7,17.8
		C10,16.6,13,16,16,16z M6.7,21.2C6,21.6,5.3,22,4.6,22.5c-0.7,0.5-1.4,1.1-2.2,1.7L4,25.7l2.8-2.2V21.2z M25.3,21.3v2.3l2.8,2.2
		l1.5-1.5c-0.7-0.7-1.5-1.2-2.2-1.7C26.7,22,26,21.6,25.3,21.3z"/>
</g>
</svg>
