<?xml version="1.0" encoding="utf-8"?>
<!-- Generator: Adobe Illustrator 27.1.1, SVG Export Plug-In . SVG Version: 6.00 Build 0)  -->
<svg version="1.1" id="Слой_1" xmlns="http://www.w3.org/2000/svg" xmlns:xlink="http://www.w3.org/1999/xlink" x="0px" y="0px"
	 viewBox="0 0 780 441" style="enable-background:new 0 0 780 441;" xml:space="preserve">
<style type="text/css">
	.st0{fill:none;stroke:#AAAAAA;stroke-linecap:round;stroke-linejoin:round;stroke-dasharray:4.01,4.01;}
	.st1{clip-path:url(#SVGID_00000131365227138496058350000010010272333521129879_);}
	.st2{fill:#AAAAAA;}
	.st3{clip-path:url(#SVGID_00000100353116784296352200000015681405298297569159_);}
	.st4{clip-path:url(#SVGID_00000016068128490868866400000009092542529642497157_);}
</style>
<path class="st0" d="M780,1.1C603.5,6.1,580.8,204.6,612.4,266c40.1,78.1,130.9,48.1,100.1-22.4c-15.5-35.5-81-69.7-162.5-18
	c-70.1,44.5-69,112.9-144,181.4c-59.9,54.6-139.8,33-180.5,0c-54-43.9-57.7-133.7-13-186.4c31-36.5,78.5-44.6,107.5-24
	c26.1,18.6,26.7,67,9,96c-28.8,47.2-91.3,80-146.5,80.5c-52.9,1-123-21.5-168.5-68"/>
<g>
	<defs>
		<rect id="SVGID_1_" x="1.1" y="255.4" width="30" height="55"/>
	</defs>
	<clipPath id="SVGID_00000090276744099187977370000015342710262155095704_">
		<use xlink:href="#SVGID_1_"  style="overflow:visible;"/>
	</clipPath>
	<g style="clip-path:url(#SVGID_00000090276744099187977370000015342710262155095704_);">
		<path class="st2" d="M1.3,275.5c0.1,0.6,0.2,1.3,0.4,1.9c0.2,0.7,0.4,1.4,0.6,2.1c0.2,0.6,0.4,1.2,0.6,1.8
			c0.5,1.4,1.1,2.7,1.8,4.1c0.6,1.2,1.3,2.3,2,3.5c1.3,2.3,2.9,4.4,4.5,6.6c0.6,0.8,1.2,1.6,1.7,2.5c0.1,0.1,0.1,0.2,0.2,0.2
			c0,0.1-0.1,0.1-0.1,0.2c-0.3,0.5-0.2,1.1,0.2,1.6c0.2,0.2,0.6,0.4,0.9,0.4c0.1,0,0.2,0,0.3,0c0.2-0.1,0.4-0.2,0.6-0.3
			c0.4-0.3,0.6-0.9,0.9-1.4c0.2-0.4,0.5-0.8,0.8-1.2c0.6-0.8,1.1-1.6,1.7-2.3c0.4-0.5,0.8-1,1.1-1.5c0.4-0.5,0.8-1.1,1.1-1.6
			c0.8-1.1,1.6-2.1,2.4-3.2c1.6-2.1,3.3-4.2,4.6-6.5c1.3-2.4,2.4-4.9,3-7.6c0.2-0.9,0.3-1.7,0.4-2.6c0.1-0.8,0.1-1.6,0-2.4
			c-0.1-0.5-0.1-0.9-0.2-1.4c-0.2-1.1-0.5-2.2-1-3.2c-0.3-0.6-0.5-1.2-0.9-1.8c-0.2-0.4-0.4-0.7-0.6-1.1c-0.5-0.8-1.1-1.6-1.7-2.4
			c-1.1-1.3-2.5-2.4-4.1-3.1c-0.8-0.4-1.7-0.8-2.6-1c-0.8-0.3-1.7-0.4-2.6-0.5c-0.2,0-0.3,0-0.5,0c-0.7,0-1.4,0.1-2.1,0.2
			c-0.7,0.1-1.5,0.2-2.2,0.3c-0.3,0.1-0.7,0.1-1,0.2c-0.8,0.2-1.5,0.4-2.3,0.7c-0.8,0.3-1.4,0.9-2.1,1.4c-0.7,0.6-1.3,1.3-1.9,2
			c-0.6,0.7-1.1,1.4-1.5,2.1c-0.3,0.4-0.5,0.9-0.7,1.4c-0.3,0.6-0.6,1.3-0.8,1.9c-0.2,0.6-0.4,1.2-0.6,1.8c-0.3,1.2-0.6,2.4-0.6,3.7
			c0,0.4,0,0.8,0,1.1c0,0.4,0,0.7,0.1,1.1C1.2,274.1,1.2,274.8,1.3,275.5z M3.9,269.9c0.1-0.9,0.4-1.8,0.6-2.7
			c0.2-0.7,0.5-1.4,0.7-2.1c0.1-0.3,0.3-0.6,0.4-0.9c0.3-0.7,0.8-1.3,1.2-2c0.7-0.9,1.5-1.8,2.5-2.5c0.5-0.3,0.9-0.6,1.4-0.9
			c0.8-0.3,1.8-0.5,2.7-0.7c0.7-0.1,1.3-0.2,2-0.3c0.4,0,0.8-0.1,1.2-0.1c0.4,0,0.8,0,1.2,0.1c0.7,0.1,1.5,0.3,2.2,0.6
			c0.2,0.1,0.3,0.1,0.5,0.2c0.3,0.1,0.6,0.3,0.8,0.4c0.6,0.3,1.2,0.6,1.7,1c0.4,0.3,0.8,0.7,1.2,1c0.4,0.4,0.7,0.8,1.1,1.2
			c0.9,1.2,1.6,2.6,2.2,4c0.1,0.3,0.2,0.5,0.3,0.8c0.2,0.6,0.3,1.2,0.4,1.8c0,0.3,0.1,0.6,0.1,0.9c0.1,0.8,0.1,1.6,0,2.4
			c-0.1,0.5-0.2,1.1-0.3,1.6c-0.1,0.6-0.3,1.1-0.5,1.7c-0.3,0.9-0.6,1.8-1,2.7c-0.5,1.1-1.1,2.3-1.8,3.4c-0.7,1.2-1.6,2.3-2.4,3.4
			c-1.6,2.1-3.2,4.1-4.7,6.2c-0.4,0.6-0.8,1.2-1.2,1.7c-0.4,0.6-0.8,1.1-1.2,1.7c-0.3,0.5-0.7,1-1,1.5c-1.4-2.1-2.9-4.1-4.2-6.2
			c-0.7-1.1-1.3-2.2-1.9-3.4c-0.3-0.6-0.6-1.2-0.9-1.8c-0.3-0.6-0.6-1.2-0.9-1.8c-0.3-0.6-0.5-1.2-0.8-1.9c-0.3-0.7-0.5-1.5-0.7-2.2
			c-0.4-1.4-0.7-2.9-1-4.4C3.8,273.1,3.7,271.5,3.9,269.9L3.9,269.9z"/>
		<path class="st2" d="M8,274.9c0.3,0.7,0.7,1.3,1.1,1.9c0,0,0.1,0.1,0.1,0.1c0.1,0.1,0.2,0.3,0.3,0.4c0.1,0.2,0.3,0.5,0.4,0.7
			c0.3,0.5,0.7,0.9,1.1,1.3c0.4,0.4,0.9,0.7,1.4,1c0.3,0.1,0.6,0.3,0.9,0.4c0.3,0.1,0.6,0.2,0.9,0.3c0.4,0.1,0.8,0.1,1.2,0.2
			c0.4,0,0.8,0.1,1.2,0.1c0.5,0,1.1-0.1,1.6-0.3c0.6-0.2,1.1-0.5,1.6-0.8c1.4-0.9,2.4-2.3,3.1-3.8c0.2-0.4,0.4-0.8,0.5-1.2
			c0.1-0.2,0.1-0.4,0.2-0.6c0.1-0.2,0.1-0.4,0.2-0.7c0.1-0.2,0.1-0.4,0.1-0.6c0-0.2,0.1-0.4,0.1-0.5c0.1-0.5,0.1-0.9,0.2-1.4
			c0-0.4,0.1-0.8,0.1-1.2c0-0.4,0-0.8,0-1.2c0-0.4-0.1-0.9-0.1-1.3c0-0.2-0.1-0.4-0.1-0.6c0-0.2-0.1-0.4-0.1-0.6
			c0-0.2-0.1-0.4-0.2-0.6c-0.1-0.3-0.2-0.5-0.3-0.8c0-0.1-0.1-0.2-0.2-0.3c-0.1-0.2-0.2-0.3-0.4-0.4c-0.5-0.5-1.2-1-1.8-1.3
			c-0.5-0.3-1-0.5-1.5-0.6c-0.4-0.1-0.9-0.1-1.3-0.2c-0.4,0-0.8,0-1.2,0h0c-0.2-0.1-0.4-0.1-0.5-0.2c-0.3-0.1-0.5-0.1-0.8-0.1
			c0,0-0.1,0-0.1,0c-0.3,0-0.5,0-0.8,0.1c-0.6,0.1-1.1,0.3-1.6,0.5c-0.5,0.2-1.1,0.5-1.6,0.9c-0.2,0.1-0.4,0.2-0.5,0.4
			c-0.2,0.1-0.4,0.3-0.5,0.4c-0.4,0.3-0.7,0.6-1,0.9c-0.4,0.4-0.8,0.8-1.1,1.3c-0.5,0.7-0.7,1.5-0.9,2.2c-0.3,0.9-0.4,1.8-0.4,2.7
			c0,0.6,0.1,1.2,0.2,1.8C7.5,273.7,7.7,274.3,8,274.9L8,274.9z M9.2,270.2c0.1-0.5,0.2-1,0.4-1.5c0.1-0.3,0.2-0.5,0.3-0.8
			c0,0,0,0,0,0c0.2-0.4,0.4-0.7,0.7-1.1c0.1-0.2,0.3-0.3,0.4-0.5c0.2-0.2,0.5-0.5,0.7-0.7c0.3-0.2,0.6-0.4,1-0.6
			c0.3-0.2,0.6-0.3,1-0.5c0.2-0.1,0.4-0.1,0.5-0.2c0.1,0,0.1,0,0.2,0c0.4,0,0.8-0.1,1.2,0c0.3,0,0.6,0.1,0.9,0.2
			c0.3,0.1,0.7,0.2,1,0.3c0.6,0.2,1.1,0.4,1.7,0.6c0.4,0.2,0.8,0.4,1.1,0.7c0.2,0.1,0.3,0.3,0.5,0.4c0.2,0.3,0.4,0.7,0.6,1.1
			c0.3,0.6,0.4,1.3,0.5,2c0.1,1.1,0.1,2.2,0,3.4c0,0.3-0.1,0.5-0.2,0.8c-0.1,0.3-0.2,0.6-0.3,0.9c-0.2,0.4-0.4,0.8-0.7,1.2
			c-0.2,0.2-0.4,0.4-0.6,0.6c-0.1,0.1-0.3,0.2-0.4,0.3c-0.1,0.1-0.3,0.2-0.4,0.3c-0.1,0.1-0.3,0.2-0.4,0.3c-0.3,0.2-0.7,0.5-1.1,0.6
			c-0.3,0.1-0.5,0.2-0.8,0.3c-0.3,0.1-0.6,0.1-0.9,0.2c-0.4,0-0.7,0.1-1.1,0c-0.5-0.1-1-0.2-1.5-0.4c-0.4-0.2-0.8-0.4-1.2-0.7
			c-0.3-0.3-0.6-0.5-0.9-0.9c-0.1-0.1-0.2-0.3-0.3-0.4c-0.2-0.2-0.4-0.5-0.5-0.7c-0.3-0.4-0.5-0.8-0.7-1.2c-0.1-0.3-0.1-0.5-0.2-0.8
			c-0.2-0.7-0.3-1.4-0.4-2C9.2,271.1,9.2,270.7,9.2,270.2L9.2,270.2z"/>
		<path class="st2" d="M12.9,290.2c0,0.1,0.1,0.1,0.2,0c0,0,0.1-0.1,0.1-0.1c0,0,0-0.1,0-0.1c0,0,0.1,0,0.1-0.1c0,0,0-0.1,0-0.1
			c0-0.1,0-0.1-0.1-0.1c-0.2-0.2-0.4-0.3-0.6-0.5c0,0,0-0.1-0.1-0.1c0,0,0,0,0,0c-0.2-0.3-0.4-0.5-0.6-0.8c0,0-0.1-0.1-0.1-0.1
			c-0.1,0-0.1,0-0.1,0.1c0,0-0.1,0.1-0.1,0.1c-0.4-0.3-0.7-0.6-1.1-0.8c0,0-0.1,0-0.1,0c0,0,0,0-0.1,0c0,0-0.1,0-0.1,0.1
			c0,0,0,0.1,0,0.1c0,0.1,0,0.1,0.1,0.1c0.7,0.5,1.4,1,2.1,1.5C12.6,289.7,12.8,289.9,12.9,290.2L12.9,290.2z"/>
		<path class="st2" d="M11.9,291C11.9,291,11.9,291,11.9,291c0.1,0,0.1,0.1,0.2,0.1c0.1,0.1,0.2,0.1,0.3,0.1
			c0.1,0.1,0.3,0.1,0.4,0.2c0.1,0.1,0.2,0.2,0.2,0.2c0.1,0.1,0.2,0.1,0.2,0c0,0,0-0.1,0-0.1c0.1,0,0.3,0.1,0.4,0.1
			c0.1,0,0.3,0.1,0.4,0.1c0.1,0,0.2,0,0.3,0.1c0.1,0,0.3,0.1,0.4,0.1c0.1,0,0.2,0,0.2-0.1c0-0.1,0-0.2-0.1-0.2
			c-0.3-0.1-0.6-0.1-0.8-0.2c-0.1,0-0.3-0.1-0.4-0.1c-0.1,0-0.3-0.1-0.4-0.1c-0.1,0-0.2-0.1-0.2-0.1c-0.3-0.3-0.6-0.6-0.8-0.9
			c0-0.1,0-0.2,0-0.2c-0.1-0.1-0.1-0.1-0.2-0.2c-0.1-0.1-0.1-0.1-0.1-0.2c-0.1-0.1-0.1-0.2-0.2-0.3c0,0,0,0,0,0c0,0,0,0,0,0
			c0,0,0,0,0,0c-0.1-0.1-0.1-0.1-0.2-0.2c0,0-0.1-0.1-0.1-0.1c0,0,0,0,0,0c0,0,0,0,0,0c0-0.1-0.1-0.1-0.1-0.2c0,0-0.1-0.1-0.1-0.1
			c0,0,0,0,0,0c0,0-0.1,0-0.1,0c0,0-0.1,0.1-0.1,0.1c0,0,0,0.1,0,0.1c0,0.1,0.1,0.1,0.1,0.2c0,0,0,0,0,0c0.1,0.1,0.1,0.1,0.2,0.2
			c0,0,0,0,0,0.1c0,0,0,0,0,0c0,0,0-0.1-0.1-0.1c0,0,0,0,0,0c0,0-0.1,0-0.1,0c0,0-0.1,0.1-0.1,0.1c0,0,0,0.1,0,0.1
			c0.2,0.2,0.3,0.4,0.5,0.6c0.1,0.2,0.3,0.4,0.4,0.6C11.7,291.1,11.8,291.1,11.9,291L11.9,291z M11.3,290c0.3,0.3,0.5,0.6,0.8,0.8
			c0,0-0.1,0-0.1-0.1c0,0,0,0-0.1,0c0,0,0,0,0,0c0,0,0,0,0,0c-0.1-0.2-0.2-0.3-0.3-0.5C11.4,290.2,11.4,290.1,11.3,290L11.3,290z"/>
		<path class="st2" d="M12.3,292c0.1-0.1,0.1-0.2,0-0.2c-0.1-0.1-0.2-0.2-0.3-0.3c-0.1-0.1-0.2-0.2-0.3-0.3c0,0-0.1,0-0.1,0
			c0,0-0.1,0-0.1,0c-0.1,0.1-0.1,0.2,0,0.2c0.1,0.1,0.2,0.2,0.3,0.3c0.1,0.1,0.2,0.2,0.3,0.3C12.1,292.1,12.2,292.1,12.3,292z"/>
		<path class="st2" d="M21.8,282.5c0,0-0.1,0-0.1,0c-0.8,0.3-1.6,0.5-2.4,0.8c0.1-0.1,0.2-0.3,0.1-0.4c-0.1-0.2-0.3-0.2-0.4-0.1
			c-0.3,0.1-0.5,0.3-0.8,0.4c-0.4,0.2-0.7,0.3-1.1,0.5c-0.1,0.1-0.3,0.1-0.4,0.2c0,0,0,0,0,0c-0.2,0-0.4,0-0.7,0c-0.1,0-0.2,0-0.3,0
			c-0.2,0-0.3,0-0.5,0c-0.3,0-0.5,0-0.8-0.1c-0.4,0-0.9-0.1-1.3-0.1c0,0-0.1,0-0.1,0c-0.3-0.2-0.6-0.4-0.9-0.7
			c-0.4-0.3-0.8-0.6-1.1-0.9c-0.4-0.3-0.8-0.7-1.2-1c-0.1-0.1-0.1-0.1-0.2-0.1c-0.1,0-0.2,0-0.2,0.1c-0.1,0.1-0.1,0.4,0,0.5
			c0.4,0.3,0.7,0.6,1.1,0.9c0.3,0.2,0.5,0.4,0.8,0.6c0,0,0,0-0.1,0c-0.2-0.1-0.4-0.2-0.6-0.4c0,0,0,0,0,0c-0.3-0.2-0.5-0.5-0.8-0.7
			c-0.1-0.1-0.3-0.3-0.4-0.4c-0.1-0.1-0.3-0.3-0.4-0.4c-0.1-0.1-0.2-0.1-0.2-0.1c-0.1,0-0.2,0-0.3,0.1c-0.1,0.1-0.1,0.4,0,0.5
			c0.2,0.2,0.3,0.4,0.5,0.5c0.2,0.2,0.4,0.4,0.6,0.6c0.2,0.2,0.4,0.3,0.5,0.5c0.2,0.2,0.4,0.3,0.7,0.5c0.1,0.1,0.2,0.1,0.2,0.2
			c0,0-0.1,0-0.1,0c0,0,0,0,0,0c-0.1-0.1-0.1-0.1-0.2-0.1c0,0,0,0,0,0c-0.1,0-0.2-0.1-0.3-0.1c-0.6-0.2-1.2-0.5-1.8-0.7
			c0,0-0.1,0-0.1,0c-0.1,0-0.2,0-0.2,0.1c-0.1,0.1-0.2,0.1-0.2,0.2c0,0.1,0,0.2,0,0.3c0.1,0.1,0.1,0.1,0.2,0.2
			c0.7,0.3,1.4,0.6,2,0.8c0.1,0,0.3,0.1,0.4,0.1c0.3,0.3,0.6,0.5,1,0.7c0.3,0.2,0.6,0.3,0.9,0.5c0.2,0.1,0.4,0.2,0.6,0.3
			c0.2,0.1,0.5,0.2,0.8,0.3c0.2,0,0.3-0.1,0.4-0.2c0,0,0,0,0,0c0.1,0,0.2,0,0.2,0c0.1,0,0.2-0.1,0.3-0.1c0.4,0.1,0.8,0.2,1.2,0.3
			c-0.1,0.1-0.3,0.1-0.4,0.2c-0.1,0-0.1,0.2-0.1,0.2c0.1,0.1,0.2,0.1,0.2,0.1c0.2-0.1,0.5-0.2,0.7-0.4c0.2,0.1,0.5,0.1,0.7,0.2
			c0.4,0.1,0.7,0.2,1.1,0.2c0.1,0,0.2,0,0.3,0c0.1-0.1,0.2-0.1,0.2-0.2c0.1-0.2-0.1-0.4-0.3-0.5c-0.3-0.1-0.6-0.1-0.9-0.2
			c0.7-0.3,1.3-0.6,2-1c0.1-0.1,0.2-0.1,0.3-0.2c0.1,0,0.1-0.2,0.1-0.2c0,0-0.1-0.1-0.1-0.1c0,0,0,0,0,0c0,0-0.1,0-0.1,0
			c-0.6,0.3-1.3,0.6-1.9,0.9c-0.2,0.1-0.5,0.2-0.7,0.4c0-0.1-0.1-0.1-0.2-0.1c-0.1,0-0.2,0-0.3-0.1c-0.1,0-0.2-0.1-0.3-0.1
			c0,0,0,0-0.1,0c0.6-0.2,1.3-0.4,1.9-0.7c1.1-0.4,2.2-0.8,3.2-1.3c0.2-0.1,0.4-0.2,0.6-0.2c0.1,0,0.1-0.1,0.2-0.2
			c0.1-0.1,0.1-0.2,0-0.4C22.2,282.7,22,282.5,21.8,282.5L21.8,282.5z"/>
		<path class="st2" d="M17.4,290.3c-0.8-0.3-1.6-0.6-2.3-0.9c-0.4-0.2-0.8-0.3-1.2-0.5c0,0,0,0-0.1,0c0.2-0.1,0.4-0.1,0.7-0.2
			c0.3-0.1,0.5-0.1,0.8-0.2c0.1,0,0.2-0.1,0.3-0.1c0.2,0.1,0.4,0.2,0.7,0.2c0.1,0,0.3-0.1,0.3-0.2c0-0.1,0-0.1,0-0.2
			c0-0.1-0.1-0.1-0.1-0.1c0.3-0.1,0.5-0.2,0.8-0.3c0.1,0,0.1,0,0.1-0.1c0,0,0-0.1,0-0.2c0-0.1-0.1-0.1-0.2-0.1c0,0,0,0-0.1,0
			c-0.4,0.2-0.9,0.3-1.3,0.4c-0.4-0.1-0.7-0.3-1-0.4c-0.2-0.1-0.4-0.2-0.7-0.3c0,0,0,0,0,0c0-0.1,0-0.2-0.1-0.2
			c-0.5-0.2-1.1-0.4-1.6-0.5c-0.5-0.2-1-0.4-1.5-0.6c-0.4-0.2-0.8-0.4-1.2-0.5c-0.1,0-0.1,0-0.2,0c0,0,0,0-0.1,0
			c-0.1,0-0.1,0.1-0.2,0.1c0,0.1-0.1,0.1,0,0.2c0,0.1,0.1,0.1,0.1,0.2c0.9,0.4,1.8,0.8,2.7,1.2c0.5,0.2,1.1,0.5,1.6,0.7
			c0.4,0.2,0.9,0.4,1.3,0.5c-0.5,0.1-1.1,0.3-1.6,0.4c0,0,0,0,0,0c0,0,0-0.1,0-0.1c0-0.1-0.1-0.1-0.1-0.1c-0.2-0.2-0.4-0.3-0.7-0.5
			c0,0,0,0,0,0c-0.6-0.5-1.2-0.9-1.8-1.4c-0.1,0-0.1-0.1-0.2-0.1c-0.1,0-0.1,0-0.2,0.1c0,0-0.1,0.1-0.1,0.2c0,0.1,0,0.1,0.1,0.2
			c0.1,0.1,0.2,0.2,0.3,0.2c-0.1,0-0.1,0.1-0.1,0.1c-0.1,0.1,0,0.2,0.1,0.3c0.5,0.3,1.1,0.7,1.6,1c0,0,0,0,0,0c0,0.1,0,0.1,0,0.2
			c0,0.1,0.1,0.1,0.1,0.2c0.6,0.3,1.3,0.5,1.9,0.8c0.1,0.1,0.2,0.1,0.3,0.2c0.5,0.3,0.9,0.6,1.4,0.9c0.1,0.1,0.2,0,0.3-0.1
			c0-0.1,0-0.1,0-0.2c0.1,0,0.1,0,0.2,0.1c0.3,0.1,0.5,0.2,0.8,0.3c0.1,0,0.3-0.1,0.3-0.2C17.6,290.5,17.5,290.3,17.4,290.3
			L17.4,290.3z"/>
		<path class="st2" d="M14.8,292.3c-0.8,0-1.7,0-2.5,0c-0.1,0-0.2,0.1-0.2,0.2c0,0.1,0.1,0.2,0.2,0.2c0.8,0,1.6,0,2.5,0
			c0.1,0,0.2-0.1,0.2-0.2C14.9,292.3,14.9,292.3,14.8,292.3L14.8,292.3z"/>
	</g>
</g>
<g>
	<defs>
		<rect id="SVGID_00000052813899998415208310000018328790482141156737_" x="417" y="99.5" width="102" height="37"/>
	</defs>
	<clipPath id="SVGID_00000072967889983663765530000003351766363065103509_">
		<use xlink:href="#SVGID_00000052813899998415208310000018328790482141156737_"  style="overflow:visible;"/>
	</clipPath>
	<g style="clip-path:url(#SVGID_00000072967889983663765530000003351766363065103509_);">
		<path class="st2" d="M423.3,113.4c-3.6-0.3-6.6,2.9-6.3,6.6c0.3,3.3,4.1,6.7,7.4,5.1c0.2-0.1,0.2-0.5-0.1-0.5
			c-2.6-0.5-5.3-1.3-6-4.3c-0.7-3.1,2.2-5.8,5-6.3C423.7,113.8,423.5,113.4,423.3,113.4L423.3,113.4z"/>
		<path class="st2" d="M424.7,124.7c3.9,7.9,15.1,11.9,22.7,6.7c0.3-0.2,0.1-0.8-0.3-0.7c-8.3,2.9-16.8,1.3-22.2-6.1
			C424.8,124.5,424.6,124.6,424.7,124.7z"/>
		<path class="st2" d="M424.3,114.4c2.7-2.6,5.1-4.8,9.1-5c3.7-0.2,6,1.5,9.1,3.2c0.5,0.3,1-0.3,0.8-0.8c-3.4-7.2-17.4-5-19.8,2.1
			C423.3,114.4,423.9,114.8,424.3,114.4L424.3,114.4z"/>
		<path class="st2" d="M442.8,112.6c3.4-4.1,7.1-7.2,12.2-8.9c5.2-1.7,9.8-0.5,15,0.4c0.6,0.1,0.9-0.6,0.4-1
			c-8.8-6.3-23.8-0.1-28,9.1C442.4,112.6,442.6,112.8,442.8,112.6z"/>
		<path class="st2" d="M470.5,104.5c4.6-4.4,10-3.4,14.8,0c0.5,0.4,1.1-0.3,0.9-0.9c-3.2-6.1-13.1-4.9-16.4,0.3
			C469.5,104.4,470.1,104.9,470.5,104.5L470.5,104.5z"/>
		<path class="st2" d="M445.6,132.3c1.2-0.6,5.8,2.7,7.5,3.2c2.7,0.8,5.5,1.1,8.3,1c5.3-0.3,10-2.1,13.7-6c0.3-0.3-0.1-0.8-0.5-0.6
			c-6.5,3.8-13.6,6-21.1,4.1C451.6,133.5,447.1,129.9,445.6,132.3C445.5,132.3,445.5,132.3,445.6,132.3L445.6,132.3z"/>
		<path class="st2" d="M474,131.3c3.8,5,13.1,5.9,16.3-0.3c0.2-0.4-0.3-1.1-0.7-0.7c-4.5,3.4-10.3,4.5-14.8,0.4
			C474.5,130.4,473.7,130.8,474,131.3L474,131.3z"/>
		<path class="st2" d="M486.7,105.6c2.7-1,5.4-1.3,8.1-0.2c2.9,1.1,4,3.4,5.9,5.6c0.3,0.4,1.1,0.1,1.1-0.4
			c-0.5-6.6-10.9-8.9-15.5-5.7C486,105.1,486.2,105.8,486.7,105.6z"/>
		<path class="st2" d="M500.3,112.5c2.3-1.2,5-0.9,7.2,0.4c1,0.6,1.9,1.4,2.5,2.4c0.5,0.9,0.7,1.9,1.2,2.8c0.2,0.4,0.7,0.2,0.8-0.1
			c1.1-2.7-2.1-5.7-4.2-6.6c-2.6-1.2-5.4-1-7.6,0.8C500,112.4,500.1,112.6,500.3,112.5L500.3,112.5z"/>
		<path class="st2" d="M512.2,119.3c1.6-0.4,4.3-0.8,5.3,1.1c0.6,1.2,0,2.6-1.2,3.2c-0.3,0.2-0.2,0.6,0.1,0.7
			c2.3,0.7,3.1-2.5,2.4-4.1c-1.1-2.6-4.6-2.2-6.7-1.2C511.8,119.1,512,119.4,512.2,119.3z"/>
		<path class="st2" d="M489,130.3c5,5.1,14.4,4.4,17.6-2.5c0.2-0.6-0.5-1.3-0.9-0.7c-3.8,4.9-11.1,6.8-16.3,2.8
			C489.1,129.7,488.8,130.1,489,130.3z"/>
		<path class="st2" d="M505.1,127.9c2,2.5,5.5,2.9,8.4,1.9c2.2-0.8,5.7-3.4,4.7-6.3c-0.1-0.3-0.5-0.4-0.7-0.2
			c-1.5,1.8-2.1,3.7-4.5,4.7c-2.4,1-5,0.7-7-1C505.4,126.4,504.6,127.2,505.1,127.9z"/>
		<path class="st2" d="M428.8,111.5c-2.3,1.1-4.3,3-4.9,5.5c0,0.2,0.2,0.3,0.3,0.1c1.2-2.2,2.5-4.2,4.7-5.4
			C429,111.6,428.9,111.4,428.8,111.5z"/>
		<path class="st2" d="M431.4,110.4c-0.7,1.2-1.5,2.3-2.5,3.2c-0.9,0.9-2,1.5-2.8,2.5c-0.1,0.1,0,0.2,0.1,0.2c1.2-0.3,2.3-1.5,3-2.4
			c0.9-1,1.7-2.2,2.4-3.5C431.7,110.4,431.5,110.3,431.4,110.4L431.4,110.4z"/>
		<path class="st2" d="M432.2,111.2c-1.2,1.6-2.5,3.1-3.7,4.7c-0.2,0.3,0.2,0.6,0.4,0.3c1.3-1.5,2.4-3.1,3.6-4.7
			C432.8,111.4,432.4,111,432.2,111.2L432.2,111.2z"/>
		<path class="st2" d="M434.2,112.3c-0.6,0.8-1.3,1.6-2,2.4c-0.6,0.7-1.3,1.4-1.7,2.3c-0.1,0.2,0.1,0.5,0.3,0.3
			c0.7-0.5,1.3-1.4,1.8-2.2c0.6-0.8,1.3-1.6,2-2.5C434.9,112.4,434.4,111.9,434.2,112.3L434.2,112.3z"/>
		<path class="st2" d="M435,113.2c-0.9,1.2-1.9,2.4-2.6,3.8c-0.1,0.2,0.1,0.3,0.2,0.2c1.1-1.1,2-2.4,2.9-3.7
			C435.7,113.2,435.2,112.9,435,113.2L435,113.2z"/>
		<path class="st2" d="M423.1,115.8c-1.4,1-2.8,2-4.3,2.9c-0.3,0.2-0.1,0.8,0.3,0.6c0.9-0.3,1.7-0.7,2.5-1.1c0.2-0.1,0-0.3-0.1-0.3
			c-0.9,0.2-1.7,0.4-2.6,0.7c0.1,0.2,0.2,0.4,0.3,0.6c1.4-1,2.8-2,4.2-3C423.8,116.1,423.4,115.5,423.1,115.8z"/>
		<path class="st2" d="M423.8,115.9c-0.6,1.2-1.4,2.5-1.8,3.8c-0.1,0.3,0.3,0.4,0.5,0.2c0.8-1.1,1.3-2.5,1.9-3.7
			C424.6,115.9,424,115.5,423.8,115.9z"/>
		<path class="st2" d="M424,118.7c-0.6,0.6-1.3,1.2-1.8,1.9c-0.1,0.1,0,0.1,0.1,0.1c0.6-0.6,1.3-1.2,1.9-1.8
			C424.2,118.8,424.1,118.7,424,118.7z"/>
		<path class="st2" d="M451.6,120.7c-0.9,1.3-2,2.5-3.1,3.6c-1.1,1-2.3,1.8-3.4,2.8c-0.2,0.2,0,0.4,0.2,0.3c2.7-1.2,4.9-4.2,6.5-6.6
			C451.9,120.7,451.7,120.6,451.6,120.7L451.6,120.7z"/>
		<path class="st2" d="M456.4,121.9c-3.1,2.5-6.8,4.9-9.6,7.9c-0.1,0.1,0,0.4,0.2,0.3c3.4-2.1,6.5-5.3,9.6-7.9
			C456.8,122,456.6,121.8,456.4,121.9L456.4,121.9z"/>
		<path class="st2" d="M457.1,123.5c-1.8,1.5-3.8,3-5.4,4.7c-0.1,0.1,0,0.3,0.1,0.2c2-1.3,3.8-3,5.6-4.6
			C457.7,123.6,457.3,123.3,457.1,123.5L457.1,123.5z"/>
		<path class="st2" d="M459.7,124.1c-2.4,1.8-5.3,3.4-7.4,5.6c-0.3,0.3,0.1,0.7,0.4,0.5c2.6-1.5,5-3.7,7.4-5.5
			C460.4,124.5,460.1,123.9,459.7,124.1L459.7,124.1z"/>
		<path class="st2" d="M458.9,127c-0.7,0.5-1.4,1-2.1,1.6c-0.6,0.4-1.3,0.8-1.6,1.4c-0.1,0.2,0.1,0.5,0.3,0.4
			c0.7-0.2,1.3-0.8,1.8-1.2c0.6-0.5,1.3-1,2-1.5C459.7,127.4,459.3,126.7,458.9,127z"/>
		<path class="st2" d="M460.6,128.8c-0.9,0.6-1.8,1.2-2.7,1.9c-0.3,0.2,0,0.7,0.3,0.5c0.9-0.6,1.9-1.2,2.8-1.8
			C461.4,129.2,461,128.5,460.6,128.8L460.6,128.8z"/>
		<path class="st2" d="M451.5,129.5c3.9,2,8.6,3.9,13,3.7c0.3,0,0.3-0.4,0.1-0.5c-4.5-1.1-8.6-1.6-12.8-3.6
			C451.4,129,451.2,129.4,451.5,129.5L451.5,129.5z"/>
		<path class="st2" d="M449.4,130.8c6.7,4.3,16.7,4,22.6-1.4c0.1-0.1,0-0.2-0.1-0.2c-7.6,3.7-14.4,4.4-22.3,1.1
			C449.3,130.2,449.2,130.7,449.4,130.8L449.4,130.8z"/>
		<path class="st2" d="M480.8,120.6c-1,0.9-2,1.8-3.1,2.8c-0.9,0.8-2,1.6-2.5,2.8c-0.1,0.2,0.1,0.3,0.3,0.3c1.1-0.6,1.9-1.6,2.7-2.6
			c0.9-1,1.8-2.1,2.8-3.1C481.1,120.7,480.9,120.5,480.8,120.6z"/>
		<path class="st2" d="M484.6,119.8c-2.8,2.6-6,5.2-8.4,8.2c-0.2,0.3,0.1,0.8,0.4,0.5c3-2.4,5.6-5.6,8.3-8.4
			C485.2,119.9,484.8,119.6,484.6,119.8z"/>
		<path class="st2" d="M485.5,122.4c-1.5,0.9-2.9,2-4.1,3.3c-1.1,1.1-2.3,2.5-2.8,4c-0.1,0.2,0.2,0.3,0.3,0.2
			c1.1-1.1,1.9-2.6,2.9-3.7c1.2-1.3,2.5-2.4,3.9-3.3C486,122.7,485.8,122.3,485.5,122.4z"/>
		<path class="st2" d="M486.4,124.4c-2,2-4.3,3.9-5.8,6.3c-0.1,0.2,0.1,0.4,0.3,0.3c2.2-1.6,4-4.2,5.8-6.3
			C486.8,124.5,486.6,124.2,486.4,124.4L486.4,124.4z"/>
		<path class="st2" d="M487.2,127.1c-0.8,0.8-1.6,1.6-2.5,2.4c-0.7,0.7-1.6,1.4-2.2,2.3c-0.2,0.2,0.2,0.6,0.4,0.4
			c0.8-0.6,1.5-1.5,2.2-2.2c0.8-0.8,1.6-1.7,2.4-2.5C487.8,127.2,487.4,126.9,487.2,127.1z"/>
		<path class="st2" d="M468,115c-3.4,3.3-7.3,6.5-10.1,10.3c-0.1,0.1,0.1,0.3,0.2,0.2c3.7-2.9,6.8-6.9,10-10.4
			C468.2,115,468.1,114.9,468,115z"/>
		<path class="st2" d="M468.9,117.8c-2.7,2.3-5.9,5.1-7.5,8.3c-0.1,0.1,0.1,0.3,0.2,0.2c1.3-1.3,2.4-2.9,3.6-4.2
			c1.3-1.4,2.6-2.7,4-3.9C469.5,118,469.2,117.7,468.9,117.8z"/>
		<path class="st2" d="M469.7,120.5c-2.5,2.4-5.2,4.7-7.4,7.4c-0.1,0.1,0,0.4,0.2,0.3c2.7-2.1,5.1-4.8,7.6-7.2
			C470.4,120.7,470,120.3,469.7,120.5L469.7,120.5z"/>
		<path class="st2" d="M468,125.1c-1.7,1.3-3.9,2.5-5.3,4.1c-0.2,0.2,0,0.4,0.2,0.3c1.9-0.9,3.7-2.5,5.4-3.8
			C468.6,125.4,468.3,124.8,468,125.1z"/>
		<path class="st2" d="M432.5,121.7c0.3-0.8,0.7-1.7,1.5-2c0.4-0.2,0.7-0.2,1.1-0.4c-0.2-0.4-0.3-0.7-0.5-1.1
			c-1.5,1-2.8,2.1-3.8,3.5c-1.1,1.4-1.5,2.8-2,4.5c-0.1,0.3,0.3,0.4,0.4,0.2c0.7-1.4,1.8-2.8,2.8-4.1c1-1.2,2.1-2.3,3.3-3.2
			c0.5-0.4-0.2-1.2-0.7-0.9c-1.1,0.6-2,2.2-2.3,3.4C432.3,121.8,432.4,121.8,432.5,121.7L432.5,121.7z"/>
		<path class="st2" d="M436.9,119.7c-2.5,2.4-5.1,4.7-7.6,7.2c-0.5,0.5,0.3,1.3,0.8,0.8c2.5-2.5,4.8-5,7.2-7.6
			C437.5,119.8,437.1,119.4,436.9,119.7L436.9,119.7z"/>
		<path class="st2" d="M438.7,121.6c-0.8,1.2-1.6,2.3-2.7,3.3c-0.9,0.8-2.1,1.4-2.7,2.4c-0.1,0.2,0.1,0.3,0.2,0.3
			c1.2-0.2,2.3-1.5,3.1-2.4c0.9-1,1.9-2.2,2.4-3.5C439.1,121.6,438.8,121.4,438.7,121.6L438.7,121.6z"/>
		<path class="st2" d="M439.7,123.4c-2.2,0.7-4.4,2.3-5.1,4.7c-0.2,0.6,0.7,0.9,0.9,0.4c1.1-2,2.3-3.6,4.3-4.6
			C440.1,123.7,440,123.3,439.7,123.4L439.7,123.4z"/>
		<path class="st2" d="M426.8,123.2c-3.7,2.2,1.3,6.7,3.2,8.1c3.6,2.7,9.5,4.9,13.2,1.2c0.3-0.3-0.1-0.6-0.4-0.5
			c-3.5,1.5-6.7,1.2-10.1-0.6c-1.4-0.8-8.6-5.5-5.7-7.8C427.3,123.4,427,123.1,426.8,123.2L426.8,123.2z"/>
	</g>
</g>
<g>
	<defs>
		<rect id="SVGID_00000117671061795899047940000006141228330333086896_" x="290" y="21.6" width="164" height="59"/>
	</defs>
	<clipPath id="SVGID_00000183218616246630393580000018223908119190301373_">
		<use xlink:href="#SVGID_00000117671061795899047940000006141228330333086896_"  style="overflow:visible;"/>
	</clipPath>
	<g style="clip-path:url(#SVGID_00000183218616246630393580000018223908119190301373_);">
		<path class="st2" d="M300.1,43.6c-5.7-0.5-10.7,4.7-10.1,10.5c0.5,5.2,6.7,10.7,11.9,8.1c0.4-0.2,0.3-0.8-0.1-0.9
			c-4.2-0.8-8.6-2.1-9.6-6.9c-1.1-5,3.6-9.2,8-10C300.7,44.4,300.6,43.7,300.1,43.6L300.1,43.6z"/>
		<path class="st2" d="M302.4,61.7c6.3,12.6,24.3,19,36.4,10.7c0.5-0.4,0.2-1.3-0.4-1c-13.3,4.6-27,2.1-35.7-9.8
			C302.6,61.4,302.3,61.6,302.4,61.7z"/>
		<path class="st2" d="M301.7,45.4c4.3-4.2,8.2-7.6,14.6-7.9c6-0.3,9.7,2.4,14.7,5.1c0.9,0.5,1.7-0.4,1.3-1.3
			c-5.5-11.4-28-8-31.8,3.3C300.1,45.3,301.2,45.9,301.7,45.4L301.7,45.4z"/>
		<path class="st2" d="M331.5,42.5c5.5-6.5,11.4-11.5,19.7-14.1c8.4-2.7,15.7-0.8,24.1,0.7c0.9,0.2,1.5-1,0.6-1.6
			c-14.2-10.1-38.2-0.2-45,14.6C330.8,42.4,331.2,42.8,331.5,42.5z"/>
		<path class="st2" d="M376.1,29.5c7.4-7,16.1-5.4,23.8,0c0.9,0.6,1.8-0.6,1.4-1.4c-5.1-9.7-21-7.9-26.4,0.5
			C374.4,29.4,375.5,30.1,376.1,29.5L376.1,29.5z"/>
		<path class="st2" d="M336,73.8c1.9-0.9,9.4,4.3,12,5.1c4.3,1.3,8.8,1.8,13.3,1.6c8.5-0.4,16.1-3.3,22-9.5c0.5-0.5-0.1-1.3-0.8-1
			c-10.5,6.1-21.8,9.6-33.9,6.5C345.7,75.8,338.5,70.1,336,73.8C335.8,73.8,335.9,73.8,336,73.8L336,73.8z"/>
		<path class="st2" d="M381.7,72.3c6,8,21,9.4,26.2-0.4c0.4-0.7-0.4-1.8-1.2-1.2c-7.2,5.4-16.5,7.2-23.8,0.6
			C382.4,70.7,381.2,71.5,381.7,72.3L381.7,72.3z"/>
		<path class="st2" d="M402.1,31.3c4.3-1.6,8.7-2,13.1-0.4c4.7,1.8,6.4,5.4,9.6,8.9c0.6,0.6,1.8,0.2,1.7-0.7
			c-0.8-10.5-17.5-14.2-24.9-9.1C401,30.4,401.3,31.6,402.1,31.3z"/>
		<path class="st2" d="M423.9,42.3c3.6-1.9,8.1-1.4,11.5,0.7c1.6,1,3,2.3,4,3.9c0.9,1.4,1.1,3.1,1.9,4.5c0.3,0.6,1.1,0.4,1.3-0.2
			c1.7-4.3-3.4-9-6.8-10.6c-4.2-1.9-8.6-1.6-12.2,1.3C423.4,42.1,423.7,42.4,423.9,42.3L423.9,42.3z"/>
		<path class="st2" d="M443,53.1c2.6-0.6,7-1.2,8.5,1.7c1,2,0,4.2-1.9,5c-0.5,0.2-0.3,1,0.2,1.2c3.7,1.2,4.9-4,3.8-6.6
			c-1.8-4.2-7.4-3.5-10.8-1.9C442.5,52.8,442.7,53.2,443,53.1z"/>
		<path class="st2" d="M405.8,70.6c8,8.2,23.2,7,28.3-4c0.4-0.9-0.8-2-1.5-1.1c-6.1,7.9-17.9,10.8-26.3,4.5
			C405.9,69.6,405.4,70.3,405.8,70.6z"/>
		<path class="st2" d="M431.7,66.8c3.3,4,8.8,4.7,13.4,3c3.6-1.3,9.2-5.5,7.5-10c-0.2-0.4-0.8-0.7-1.1-0.3c-2.5,2.8-3.3,5.9-7.2,7.5
			c-3.8,1.5-8,1.1-11.2-1.6C432.1,64.4,430.8,65.8,431.7,66.8z"/>
		<path class="st2" d="M308.9,40.6c-3.6,1.8-6.8,4.8-7.8,8.7c-0.1,0.2,0.3,0.4,0.4,0.2c1.9-3.5,4.1-6.6,7.6-8.7
			C309.3,40.8,309.1,40.5,308.9,40.6z"/>
		<path class="st2" d="M313.1,39c-1.1,1.9-2.5,3.6-4,5.2c-1.4,1.4-3.3,2.5-4.5,4c-0.1,0.1,0,0.4,0.2,0.3c1.9-0.5,3.6-2.4,4.9-3.8
			c1.5-1.6,2.8-3.5,3.8-5.5C313.6,38.9,313.3,38.7,313.1,39L313.1,39z"/>
		<path class="st2" d="M314.5,40.2c-2,2.5-4.1,4.9-6,7.5c-0.3,0.4,0.4,0.9,0.7,0.6c2.1-2.4,3.9-5,5.9-7.4
			C315.4,40.4,314.8,39.8,314.5,40.2L314.5,40.2z"/>
		<path class="st2" d="M317.6,41.9c-1,1.3-2.1,2.6-3.1,3.9c-0.9,1.1-2.2,2.3-2.8,3.6c-0.1,0.3,0.2,0.8,0.5,0.5
			c1.2-0.9,2.1-2.3,3-3.4c1-1.3,2.1-2.6,3.1-3.9C318.8,42.1,318.1,41.4,317.6,41.9L317.6,41.9z"/>
		<path class="st2" d="M318.9,43.4c-1.5,2-3.1,3.9-4.2,6c-0.1,0.2,0.2,0.5,0.4,0.3c1.7-1.8,3.1-3.9,4.6-5.9
			C320.1,43.4,319.3,42.9,318.9,43.4L318.9,43.4z"/>
		<path class="st2" d="M299.8,47.5c-2.3,1.6-4.6,3.1-6.8,4.7c-0.5,0.3-0.2,1.2,0.4,1c1.4-0.5,2.7-1.2,4-1.8c0.2-0.1,0.1-0.5-0.2-0.4
			c-1.4,0.4-2.8,0.6-4.1,1.1c0.1,0.3,0.3,0.7,0.4,1c2.3-1.6,4.6-3.2,6.8-4.8C300.9,48,300.4,47.1,299.8,47.5z"/>
		<path class="st2" d="M301,47.7c-1,2-2.2,4-2.9,6.1c-0.2,0.5,0.5,0.7,0.8,0.3c1.2-1.8,2-4,3-5.9C302.2,47.6,301.3,47.1,301,47.7z"
			/>
		<path class="st2" d="M301.3,52.2c-1,1-2,1.9-3,3c-0.1,0.1,0,0.2,0.1,0.1c1-0.9,2-1.9,3-2.9C301.7,52.3,301.5,52.1,301.3,52.2z"/>
		<path class="st2" d="M345.7,55.4c-1.5,2.1-3.2,4-5.1,5.7c-1.7,1.6-3.7,2.8-5.4,4.4c-0.3,0.2,0.1,0.6,0.4,0.5
			c4.3-1.9,7.9-6.6,10.4-10.5C346.2,55.4,345.9,55.2,345.7,55.4L345.7,55.4z"/>
		<path class="st2" d="M353.4,57.3c-5.1,4-11,7.8-15.4,12.5c-0.2,0.2,0.1,0.6,0.4,0.4c5.5-3.4,10.4-8.4,15.4-12.6
			C354.1,57.4,353.7,57,353.4,57.3L353.4,57.3z"/>
		<path class="st2" d="M354.4,59.7c-2.9,2.4-6.2,4.7-8.7,7.6c-0.1,0.2,0,0.4,0.2,0.3c3.2-2,6.1-4.8,9-7.3
			C355.4,60,354.8,59.4,354.4,59.7L354.4,59.7z"/>
		<path class="st2" d="M358.7,60.8c-3.9,2.9-8.5,5.5-11.9,8.9c-0.4,0.4,0.1,1.1,0.6,0.8c4.2-2.3,8-5.8,11.9-8.8
			C359.9,61.3,359.3,60.4,358.7,60.8L358.7,60.8z"/>
		<path class="st2" d="M357.3,65.4c-1.1,0.8-2.2,1.7-3.3,2.5c-0.9,0.7-2,1.3-2.6,2.3c-0.2,0.3,0.1,0.7,0.5,0.6c1.1-0.3,2.1-1.2,3-2
			c1-0.8,2.1-1.6,3.1-2.4C358.6,66,358,64.9,357.3,65.4z"/>
		<path class="st2" d="M360.2,68.2c-1.5,1-2.9,2-4.4,3c-0.5,0.4-0.1,1.2,0.5,0.8c1.5-0.9,3-1.9,4.5-2.8
			C361.4,68.8,360.8,67.8,360.2,68.2L360.2,68.2z"/>
		<path class="st2" d="M345.4,69.4c6.3,3.2,13.8,6.2,21,5.8c0.4,0,0.6-0.7,0.1-0.8c-7.2-1.7-13.8-2.6-20.6-5.8
			C345.4,68.5,344.9,69.2,345.4,69.4L345.4,69.4z"/>
		<path class="st2" d="M342.1,71.5c10.7,6.8,26.8,6.4,36.4-2.3c0.2-0.1,0-0.4-0.2-0.3c-12.3,5.9-23.1,7-35.8,1.7
			C342,70.5,341.7,71.2,342.1,71.5L342.1,71.5z"/>
		<path class="st2" d="M392.7,55.2c-1.6,1.5-3.3,2.9-4.9,4.4c-1.5,1.3-3.1,2.6-4.1,4.4c-0.1,0.3,0.1,0.6,0.4,0.4
			c1.8-0.9,3.1-2.6,4.4-4.1c1.5-1.6,2.9-3.3,4.4-4.9C393.1,55.3,392.8,55.1,392.7,55.2z"/>
		<path class="st2" d="M398.8,53.9c-4.5,4.2-9.7,8.3-13.5,13.1c-0.3,0.4,0.1,1.2,0.6,0.8c4.9-3.8,9.1-9,13.4-13.4
			C399.6,54.1,399.1,53.6,398.8,53.9z"/>
		<path class="st2" d="M400.1,58.1c-2.4,1.5-4.7,3.2-6.6,5.2c-1.7,1.8-3.7,4-4.4,6.4c-0.1,0.3,0.3,0.5,0.5,0.3c1.8-1.8,3-4.1,4.7-6
			c1.9-2,4-3.8,6.3-5.3C401,58.5,400.6,57.8,400.1,58.1z"/>
		<path class="st2" d="M401.6,61.2c-3.1,3.1-7,6.2-9.4,10c-0.2,0.3,0.2,0.7,0.5,0.5c3.6-2.6,6.4-6.7,9.3-10
			C402.3,61.4,401.9,60.9,401.6,61.2L401.6,61.2z"/>
		<path class="st2" d="M402.9,65.5c-1.3,1.3-2.6,2.6-4,3.8c-1.2,1.2-2.5,2.3-3.5,3.6c-0.3,0.4,0.3,0.9,0.6,0.6
			c1.3-1,2.4-2.4,3.6-3.6c1.3-1.3,2.5-2.6,3.8-4C403.8,65.7,403.3,65.2,402.9,65.5z"/>
		<path class="st2" d="M372,46.2c-5.4,5.2-11.7,10.3-16.2,16.4c-0.2,0.2,0.2,0.5,0.4,0.4c6-4.6,10.9-11,16.1-16.5
			C372.4,46.3,372.1,46,372,46.2z"/>
		<path class="st2" d="M373.6,50.8c-4.3,3.6-9.5,8.1-12,13.2c-0.1,0.2,0.1,0.4,0.3,0.2c2.1-2,3.8-4.6,5.8-6.8c2-2.2,4.2-4.2,6.4-6.2
			C374.5,51,373.9,50.5,373.6,50.8z"/>
		<path class="st2" d="M374.8,55c-4,3.8-8.4,7.4-11.9,11.7c-0.2,0.2,0.1,0.6,0.3,0.4c4.4-3.3,8.2-7.7,12.2-11.5
			C375.8,55.3,375.2,54.6,374.8,55L374.8,55z"/>
		<path class="st2" d="M372,62.3c-2.8,2-6.2,3.9-8.5,6.5c-0.2,0.3,0.1,0.6,0.4,0.5c3.1-1.4,5.9-4,8.7-6.1
			C373,62.8,372.5,61.9,372,62.3z"/>
		<path class="st2" d="M314.9,56.9c0.5-1.2,1.1-2.6,2.4-3.2c0.6-0.3,1.1-0.3,1.7-0.6c-0.2-0.6-0.5-1.2-0.7-1.7
			c-2.4,1.5-4.4,3.4-6.1,5.6c-1.8,2.3-2.3,4.4-3.2,7.1c-0.1,0.4,0.5,0.7,0.7,0.3c1.1-2.2,2.9-4.5,4.5-6.5c1.5-1.9,3.4-3.6,5.3-5.1
			c0.9-0.7-0.2-2-1.1-1.5c-1.8,1-3.2,3.4-3.7,5.5C314.6,57,314.8,57.1,314.9,56.9L314.9,56.9z"/>
		<path class="st2" d="M322,53.7c-4.1,3.8-8.2,7.5-12.1,11.5c-0.8,0.8,0.4,2.1,1.3,1.3c4-3.9,7.7-8.1,11.5-12.1
			C323,53.9,322.4,53.3,322,53.7L322,53.7z"/>
		<path class="st2" d="M324.9,56.7c-1.3,1.8-2.6,3.7-4.3,5.3c-1.4,1.3-3.3,2.2-4.4,3.8c-0.2,0.2,0.1,0.5,0.4,0.5
			c2-0.3,3.7-2.4,5-3.8c1.5-1.6,3-3.5,3.9-5.5C325.5,56.7,325.1,56.5,324.9,56.7L324.9,56.7z"/>
		<path class="st2" d="M326.6,59.6c-3.6,1.1-7,3.7-8.2,7.4c-0.3,0.9,1.1,1.5,1.5,0.6c1.7-3.1,3.7-5.8,7-7.4
			C327.2,60.1,326.9,59.5,326.6,59.6L326.6,59.6z"/>
		<path class="st2" d="M305.9,59.4c-5.9,3.5,2,10.7,5.1,12.9c5.9,4.2,15.3,7.8,21.2,1.8c0.4-0.4-0.1-1-0.6-0.8
			c-5.7,2.4-10.7,2-16.2-1c-2.3-1.3-13.8-8.8-9.2-12.5C306.6,59.7,306.2,59.2,305.9,59.4L305.9,59.4z"/>
	</g>
</g>
</svg>
