<svg width="995" height="493" viewBox="0 0 995 493" fill="none" xmlns="http://www.w3.org/2000/svg">
<path d="M994.5 398C883 281.5 676.5 318.5 644.25 427C622.849 499 681.5 504 694 478.5C706.5 453 697.5 415.5 662.35 398C582.5 358.245 528.5 408.779 430 388.5C366.75 375.478 310.81 323.5 297.25 262.5C274.798 161.5 340 79 423.75 79C460 79 496 104.5 496 151C496 197.5 446.137 241 372.5 255C298.863 269 167.5 250.492 98 188C28.5 125.508 4 54 0.5 0.5" stroke="#AAAAAA" stroke-linecap="round" stroke-linejoin="round" stroke-dasharray="4.01 4.01"/>
</svg>
