<?xml version="1.0" encoding="utf-8"?>
<!-- Generator: Adobe Illustrator 27.1.1, SVG Export Plug-In . SVG Version: 6.00 Build 0)  -->
<svg version="1.1" id="Слой_1" xmlns="http://www.w3.org/2000/svg" xmlns:xlink="http://www.w3.org/1999/xlink" x="0px" y="0px"
	 viewBox="0 0 668.9 607" style="enable-background:new 0 0 668.9 607;" xml:space="preserve">
<style type="text/css">
	.st0{fill:none;stroke:#AAAAAA;stroke-linecap:round;stroke-linejoin:round;stroke-dasharray:4.01,4.01;}
	.st1{clip-path:url(#SVGID_00000069359532058196167720000011470429218378524324_);}
	.st2{fill:#AAAAAA;}
</style>
<path class="st0" d="M168.6,606.5c-79-64-109.5-212.5-79-304c30.4-91.3,125.5-194.5,289-202c80-3.7,130,32.5,161,69.5
	c70,83.5-4.5,160.8-77,102.5c-27-21.8-56.6-64-57.8-144.4C404,65.5,415.6,20.5,421.6,1.5"/>
<g>
	<defs>
		
			<rect id="SVGID_1_" x="7.8" y="350.3" transform="matrix(3.550615e-02 -0.9994 0.9994 3.550615e-02 -351.2208 468.6315)" width="118.8" height="131.9"/>
	</defs>
	<clipPath id="SVGID_00000060713359412037553630000004626878934190833079_">
		<use xlink:href="#SVGID_1_"  style="overflow:visible;"/>
	</clipPath>
	<g style="clip-path:url(#SVGID_00000060713359412037553630000004626878934190833079_);">
		<path class="st2" d="M38.2,355.8c-1.2,0.4-1.9,1-2.4,2.2c-0.4,1-0.7,2.3-0.1,3.3c0.1,0.1,0.3,0.1,0.3-0.1c0-1-0.1-2,0.4-2.9
			c0.4-0.8,1.1-1.7,1.9-2.3C38.4,355.9,38.4,355.8,38.2,355.8L38.2,355.8z"/>
		<path class="st2" d="M35.8,360.6c-0.4-0.1-0.8-0.1-1.3-0.1c-0.1,0-0.3,0.1-0.3,0.2c-0.3,0.8-0.2,1.7,0.2,2.5
			c0.3,0.6,1,1.5,1.7,1.3c0.1,0,0.2-0.2,0.1-0.3c-0.1-0.2-0.3-0.3-0.5-0.5c-0.3-0.2-0.6-0.5-0.8-0.9c-0.4-0.6-0.5-1.4-0.2-2.1
			c-0.1,0.1-0.2,0.1-0.3,0.2c0.5,0,0.9-0.1,1.3-0.1C36.1,360.9,36,360.6,35.8,360.6L35.8,360.6z"/>
		<path class="st2" d="M35.9,364.2c-0.5,0.7-0.6,1.5-0.4,2.3c0.2,0.6,0.7,1.6,1.4,1.6c0.1,0,0.2-0.2,0.2-0.3c-0.3-0.5-0.8-0.8-1-1.4
			c-0.2-0.7-0.2-1.4,0.1-2C36.4,364.2,36.1,364,35.9,364.2L35.9,364.2z"/>
		<path class="st2" d="M36.9,367.3c-2.8,2.4,3.4,10.7,4.9,12.7c1.8,2.5,3.7,4.8,5.5,7.3c1.8,2.6,3,5.5,4.9,8
			c0.2,0.3,0.7,0.1,0.7-0.3c-0.1-4.5-4.2-8.9-6.9-12.3c-1.8-2.3-3.8-4.5-5.4-7c-1.2-1.9-4.1-6.1-3.5-8.4
			C37.1,367.3,36.9,367.3,36.9,367.3L36.9,367.3z"/>
		<path class="st2" d="M39.7,356.9C39.6,356.8,39.6,356.8,39.7,356.9c0.1,0,0.2,0,0.2,0c0.4-0.1,0.7-0.2,1,0.1
			c0.8,0.5,0.6,1.7,0.6,2.5c0,1,0.2,2.1,1.2,2.5c0.1,0.1,0.3-0.1,0.2-0.3c-0.9-1.4-0.2-3.1-0.8-4.6c-0.4-1-1.6-1.5-2.5-0.9
			c-0.2,0.1-0.2,0.3-0.2,0.5c0,0,0,0-0.1,0.1C39.4,356.9,39.6,357,39.7,356.9z"/>
		<path class="st2" d="M42.7,362c0.4-0.6,0.7-1.6,1.5-1.7c0.6-0.1,1.4,0.1,1.9,0.4c1.1,0.6,1.5,1.7,1.7,2.8c0,0.1,0.2,0.1,0.3,0
			c0.4-1.4-0.7-2.6-1.8-3.2c-0.6-0.3-1.3-0.4-1.9-0.3C43.3,360.3,43.1,361.2,42.7,362C42.7,362,42.7,362,42.7,362L42.7,362z"/>
		<path class="st2" d="M47.9,363.9c0.2-0.4,0.8-1.2,1.4-1c0.3,0.1,0.7,1,0.9,1.3c0.5,0.8,0.7,1.8,1.2,2.6c0.1,0.2,0.5,0.2,0.5-0.1
			c-0.1-1.6-1.4-3.1-2.4-4.2c0,0-0.1-0.1-0.2-0.1C48.6,362.7,48.1,363.2,47.9,363.9C47.8,363.9,47.9,364,47.9,363.9L47.9,363.9z"/>
		<path class="st2" d="M45.1,368.6c-0.4-0.1-0.8-0.1-1.1,0.2c-0.4,0.3-0.2,1,0,1.4c0.3,1.1,1,2.1,2.2,2.5c0.2,0.1,0.4-0.2,0.2-0.4
			c-0.5-0.5-1-1-1.3-1.5c-0.3-0.4-1.1-1.9,0-1.9C45.2,368.9,45.2,368.7,45.1,368.6L45.1,368.6z"/>
		<path class="st2" d="M45.4,369.3c0.6,0.2,1,0.6,1.3,1.2c0.1,0.3,0.2,0.5,0.2,0.8c0,0.2-0.1,0.5,0,0.7c0,0.1,0.2,0.2,0.3,0.1
			c0.6-0.4,0.4-1.4,0.1-2c-0.4-0.7-1-1.1-1.8-1.2C45.3,369,45.2,369.2,45.4,369.3z"/>
		<path class="st2" d="M53,368.4c-0.8-1.3,1-3.2,2.2-1.7c1,1.2,0,2.8-0.3,4c-0.1,0.2,0.2,0.3,0.4,0.2c0.8-1,1.3-2.3,1-3.6
			c-0.2-0.8-0.8-1.5-1.7-1.7c-1.5-0.2-2.7,1.7-1.7,2.9C52.9,368.6,53.1,368.5,53,368.4z"/>
		<path class="st2" d="M53.5,367.2c-0.6,0.9-1.2,2.7,0.1,3.3c0.7,0.3,2.3,0.1,1.9-1c-0.1-0.2-0.3-0.2-0.4,0
			c-0.2,0.6-0.9,0.8-1.4,0.4c-0.9-0.6-0.4-2-0.1-2.7C53.7,367.2,53.6,367.1,53.5,367.2L53.5,367.2z"/>
		<path class="st2" d="M52.7,374.2c-0.9,1-1.3,2.3-1,3.6c0.2,0.9,0.8,2,1.9,1.7c0.9-0.2,1.6-1.1,1.6-1.9c0-1.1-0.9-2.4-1.8-2.9
			c-0.3-0.1-0.6,0.2-0.3,0.4c0.4,0.5,1,0.9,1.3,1.5c0.4,0.7,0.4,2.1-0.7,2.3c-1.1,0.1-1.4-1.2-1.4-2c0-0.9,0.2-1.7,0.7-2.5
			C52.9,374.3,52.8,374.1,52.7,374.2L52.7,374.2z"/>
		<path class="st2" d="M57.4,373.3c-0.1-1.4,0.3-2.8,1.5-3.7c-0.2,0-0.3-0.1-0.5-0.1c0.5,0.9,1.3,2.4,0.4,3.3
			c-0.6,0.7-1.2,0.5-1.9,0.2c-0.1,0-0.3,0-0.2,0.2c0.1,1.2,1.8,0.8,2.4,0.3c1.3-1.1,0.5-3-0.1-4.3c-0.1-0.2-0.3-0.2-0.5-0.1
			c-1.3,1-2,2.6-1.6,4.2C57,373.7,57.5,373.6,57.4,373.3z"/>
		<path class="st2" d="M50.2,386.1c0.8,1.6,1.5,3.1,2.1,4.7c0.5,1.3,0.8,2.7,1.3,4c0.1,0.1,0.3,0.1,0.3-0.1c0.1-3.1-1.5-6.5-3.4-8.8
			C50.3,385.8,50.1,385.9,50.2,386.1z"/>
		<path class="st2" d="M52.6,389.1c0.6,0.8,1,1.7,1.2,2.6c0.2,0.7,0.1,1.4,0.6,1.9c0.1,0.1,0.3,0.1,0.4,0c0.4-0.7,0.1-1.6-0.2-2.3
			c-0.4-0.9-0.9-1.7-1.6-2.5C52.8,388.5,52.4,388.8,52.6,389.1L52.6,389.1z"/>
		<path class="st2" d="M52.3,392c-0.5,6.4-9.1,8.4-14.2,9.9c-4.4,1.2-8.8,2.1-13.2,3c-4.4,0.9-8.8,1.8-13,3.3
			c-3.4,1.2-7.8,2.7-10,5.7c-0.2,0.3,0.1,0.7,0.4,0.6c2.3-0.8,4.2-2.4,6.4-3.4c2.7-1.3,5.5-2.3,8.4-3.1c5.2-1.5,10.5-2.4,15.7-3.6
			c4.4-1,23.1-4.9,19.7-12.5C52.4,391.8,52.2,391.9,52.3,392L52.3,392z"/>
		<path class="st2" d="M2.1,413.8c-1.5,1.7-0.9,3.8,0.7,5.3c3.3,3.1,9.5,1.6,13.5,1.5c5.5-0.2,11.1-0.3,16.6,0.3
			c6.1,0.6,11.4,2.6,17.2,4.4c0.8,0.2,1.2-0.8,0.6-1.3c-6.5-4.2-15.5-5-23-5.3c-4.4-0.2-8.7,0-13.1,0.2c-3.7,0.2-14.8,1.8-12.4-5.2
			C2.2,413.8,2.1,413.8,2.1,413.8L2.1,413.8z"/>
		<path class="st2" d="M45.8,421.7c2.1,0.8,3.9,2,5.8,3.2c0.1,0.1,0.2-0.1,0.1-0.2c-1.6-1.7-3.7-2.6-5.9-3.2
			C45.7,421.5,45.7,421.6,45.8,421.7z"/>
		<path class="st2" d="M45.8,420.3c1.1,0.7,2.3,1.4,3.5,2.1c1.1,0.6,2,1.4,3.2,1.8c0.3,0.1,0.4-0.2,0.3-0.4c-1.6-1.9-4.4-3.2-6.7-4
			C45.8,419.8,45.6,420.2,45.8,420.3L45.8,420.3z"/>
		<path class="st2" d="M48.1,420.5c1.1,0.5,2.2,1.3,3,2.2c0.6,0.6,1,1.7,1.9,2c0.2,0.1,0.3-0.1,0.3-0.2c0.1-1-1-2-1.7-2.6
			c-1-0.8-2.1-1.4-3.3-1.8C47.9,420,47.8,420.4,48.1,420.5L48.1,420.5z"/>
		<path class="st2" d="M49.8,420.5c0.7,0.4,1.3,0.8,1.9,1.3c0.5,0.5,1,1.1,1.5,1.5c0.1,0.1,0.4,0,0.4-0.2c-0.5-1.6-2.1-2.6-3.6-3.2
			C49.8,419.8,49.6,420.3,49.8,420.5z"/>
		<path class="st2" d="M52.1,422.7c1.1,1.5,1.8,3.2,2,5.1c0.2,1.5-0.2,2.9-0.4,4.4c0,0.2,0.3,0.3,0.4,0.1c2-3,0.4-7.5-1.8-9.9
			C52.2,422.2,52,422.5,52.1,422.7L52.1,422.7z"/>
		<path class="st2" d="M54.5,428.1c-2,5.4-4.4,10.6-6.5,15.9c-1.9,4.7-4.2,10.2-3.7,15.4c0,0.5,0.8,0.7,0.9,0.2
			c1.5-5.3,2.5-10.5,4.4-15.7c1.9-5.2,4.1-10.3,5.2-15.7C54.8,428,54.5,427.9,54.5,428.1L54.5,428.1z"/>
		<path class="st2" d="M48.7,442.9c-0.7-0.2-1.3-0.2-2,0.3c-0.6,0.5-1,1.2-0.9,1.9c0,1.3,1.5,2.8,2.9,2.3c0.2-0.1,0.2-0.4-0.1-0.5
			c-0.9-0.2-2-0.6-2-1.7c-0.1-1.1,1.1-2,2.1-2C48.8,443.2,48.9,442.9,48.7,442.9z"/>
		<path class="st2" d="M46.2,450.4c-2.2,0.5-3,4.1-0.6,5c0.2,0.1,0.3-0.2,0.2-0.3c-1.1-1.2-1.2-3.7,0.5-4.4
			C46.4,450.6,46.3,450.4,46.2,450.4z"/>
		<path class="st2" d="M45,456.5c-2,4.2-3.8,12.7-0.5,16.7c1.7,2.1,7.4,2.7,7.2-1c0-0.6-0.6-0.9-1.1-0.5c-4.1,3.4-6.5-1.1-6.4-5.2
			c0.1-3.3,1-6.5,1.2-9.8C45.4,456.5,45.1,456.3,45,456.5L45,456.5z"/>
		<path class="st2" d="M55.5,469.5c5.3-6.5,8.7-14.1,12.5-21.5c4-7.9,8.3-18.1,18.6-18.1c1,0,1.4-1.6,0.3-1.8
			c-9-1.6-14.3,7.9-17.7,14.6c-4.5,9-8,18.5-14.5,26.3C54.3,469.5,55.1,470,55.5,469.5L55.5,469.5z"/>
		<path class="st2" d="M85.7,429.3c1.2,0.2,2.4,0.3,3.5,0.9c1,0.5,1.8,1.3,2.5,2.1c0.1,0.2,0.5,0,0.4-0.2c-0.8-2.4-4-4.1-6.4-3.4
			C85.3,428.9,85.4,429.3,85.7,429.3L85.7,429.3z"/>
		<path class="st2" d="M86.2,430c1,0.8,2.2,1.5,3.3,2.2c1.1,0.8,2,1.7,3.1,2.4c0.2,0.1,0.4-0.1,0.3-0.3c-1.3-2-4.2-4.1-6.6-4.6
			C86.1,429.7,86.1,429.9,86.2,430z"/>
		<path class="st2" d="M85.2,430.7c2.3,0.9,4.1,2.1,6.1,3.5c0.2,0.1,0.4-0.1,0.2-0.3c-1.6-1.7-4-2.9-6.2-3.5
			C85.1,430.4,85,430.7,85.2,430.7L85.2,430.7z"/>
		<path class="st2" d="M89.3,430c3.6,3.2,6.1,6.6,9.1,10.3c3.3,4,7.3,7.2,11.5,10.2c3.2,2.3,18.6,16,21.7,7.4c0.1-0.3,0-0.6-0.3-0.8
			c-0.2-0.1-0.3-0.2-0.5-0.3c-0.2-0.1-0.4,0-0.5,0.2c-0.6,4.6-8.1,0.7-9.7-0.3c-2-1.2-3.8-2.7-5.7-4c-3.7-2.7-7.6-5.3-11-8.3
			c-3-2.6-5.4-5.6-7.9-8.7c-1.8-2.3-3.8-4.9-6.7-5.9C89.3,429.7,89.1,429.9,89.3,430L89.3,430z"/>
		<path class="st2" d="M99.9,415.5c5.7,6.1,11.1,12.6,16.3,19.1c2.8,3.5,5.4,7,8,10.7c2.6,3.6,6.7,8.1,5.6,12.9
			c-0.1,0.7,0.8,1,1,0.3c1.3-3.4-0.4-6.4-2.3-9.3c-2.6-4-5.5-7.8-8.4-11.5C113.9,429.7,107.2,422.5,99.9,415.5
			C100,415.4,99.9,415.5,99.9,415.5z"/>
		<path class="st2" d="M101.2,416.4c-1.7-2-2.8-4.7-2-7.3c0.6-2.1,2.2-3.2,3.5-4.8c0.4-0.5-0.2-1.1-0.7-1c-2.7,0.5-4.4,3.7-4.5,6.2
			c-0.2,3,1.2,5.5,3.7,7C101.2,416.6,101.3,416.5,101.2,416.4L101.2,416.4z"/>
		<path class="st2" d="M65.1,376.2c0-0.5-0.2-0.8-0.7-1.1c-0.1,0-0.2,0-0.3,0c-1.4,1.3-0.9,3.5,0.5,4.5c0.1,0.1,0.3,0.1,0.4,0
			c1.2-1.3,1.2-3.2,0.2-4.6c-0.1-0.1-0.3-0.1-0.4,0c-1,1-1.5,2.8-0.4,4c0.1,0.1,0.3,0,0.3-0.1c-0.4-1.2-0.4-2.4,0.6-3.4l-0.4,0
			c0.9,1.1,0.8,2.7-0.1,3.7c0.1,0,0.2,0,0.4,0c-0.6-0.4-1-1.1-1.1-1.8c-0.1-0.5,0.4-2.8,1-1.2C65,376.3,65.1,376.3,65.1,376.2z"/>
		<path class="st2" d="M67.4,379.1c-0.4,0.2-0.6,0.3-0.8,0.7c-0.2,0.4-0.3,0.8-0.3,1.2c0,0.8,0.4,1.7,1.2,2.1
			c0.2,0.1,0.4,0.1,0.5-0.1c0.6-1.1,0.8-2.3,0.4-3.4c-0.1-0.4-0.2-0.7-0.7-0.7c-0.4,0-0.8,0.2-1,0.6c-0.1,0.1,0.1,0.3,0.2,0.2
			c0.2-0.2,0.6-0.4,0.9-0.2c0.2,0.2,0.3,0.9,0.3,1.2c0,0.8-0.2,1.4-0.6,2c0.2,0,0.3-0.1,0.5-0.1c-0.5-0.4-0.8-0.9-0.8-1.6
			c0-0.5,0.1-1.3,0.5-1.7C67.6,379.2,67.5,379.1,67.4,379.1L67.4,379.1z"/>
		<path class="st2" d="M68.4,381.8c4.7,5.6,10.5,11.4,18.3,8.6c0.6-0.2,0.4-1.1-0.2-1c-2.4,0.3-4.8,1-7.1,0.4
			c-1.6-0.5-2.8-1.5-4.1-2.5c-2.3-1.8-4.4-3.8-6.7-5.6C68.4,381.5,68.3,381.7,68.4,381.8L68.4,381.8z"/>
		<path class="st2" d="M85.9,390.3c3.1-0.5,6.1-2.4,9-3.6c3.7-1.5,7.5-2.9,11.3-4.3c3.2-1.1,6.3-2.4,9.6-3.2c4.2-1,7.8-0.8,11.9-0.5
			c0.6,0,0.6-0.7,0.2-0.9c-6.6-2.9-15.1,1-21.3,3.3c-3.5,1.3-6.9,2.6-10.3,4C92.8,386.4,88.4,387.6,85.9,390.3
			C85.8,390.2,85.8,390.3,85.9,390.3L85.9,390.3z"/>
		<path class="st2" d="M127.8,379c1.2,3.8-5.1,7.9-7.6,9.7c-3.1,2.3-6.3,4.4-9.4,6.6c-4.4,3.2-10.3,7.8-11.5,13.5
			c-0.1,0.4,0.4,0.8,0.7,0.5c2.7-2.9,4.7-6.3,7.7-9c3-2.8,6.3-5.3,9.6-7.8c3.3-2.5,6.9-5.1,9.7-8.3c1.4-1.7,2.5-3.4,1.3-5.4
			C128.1,378.5,127.6,378.7,127.8,379L127.8,379z"/>
		<path class="st2" d="M102.3,404.6c-2,2.1-4.1,6.2-2.5,9.1c0.1,0.3,0.5,0.1,0.5-0.1c0.2-1.5-0.1-3.1,0.3-4.6c0.3-1.6,0.9-3,1.8-4.3
			C102.5,404.6,102.4,404.5,102.3,404.6L102.3,404.6z"/>
		<path class="st2" d="M100.3,407.5c-2,3.9,0.8,9.1,3.5,12.1c0.2,0.2,0.4,0,0.3-0.2c-0.8-1.7-1.8-3.4-2.5-5.1
			c-0.9-2.2-1.1-4.2-1-6.6C100.5,407.4,100.3,407.4,100.3,407.5L100.3,407.5z"/>
		<path class="st2" d="M71.8,399.3c-1.5,0.7-3.1,1.8-3,3.6c0.1,1.5,1.4,2.5,2.8,2.1c1.5-0.4,2.7-2,2.5-3.6c-0.2-1.1-1.7-2.8-2.8-1.7
			c-0.1,0.1-0.1,0.4,0.1,0.4c0.4,0.1,0.8,0.1,1.1,0.2c0.6,0.3,0.9,0.9,0.8,1.6c-0.1,1.1-1.3,2.4-2.5,2.2c-1.1-0.2-1.2-1.5-0.8-2.4
			c0.4-0.9,1.3-1.5,2-2.2C72.2,399.5,72,399.3,71.8,399.3L71.8,399.3z"/>
		<path class="st2" d="M62.5,395.9c-0.8,1.6,0.4,3.4,2.1,3.5c1.9,0.1,3.3-1.5,3.1-3.4c-0.2-1.6-1.7-3-3.4-2.3
			c-1.1,0.5-2.4,2.7-0.9,3.5c0.1,0.1,0.3,0,0.3-0.2c-0.2-1-0.1-1.9,0.8-2.5c1.1-0.7,2.2,0.4,2.4,1.4c0.3,1.3-0.6,2.5-1.9,2.7
			c-1.6,0.3-2.8-1.2-2.4-2.7C62.7,395.9,62.6,395.8,62.5,395.9L62.5,395.9z"/>
		<path class="st2" d="M70.5,392.6c-0.2,1.4,0.9,2.7,2.3,2.7c1.3,0,2-1.3,1.9-2.5c-0.1-1.2-1.3-2.2-2.5-1.6c-0.6,0.3-1,0.8-1.2,1.4
			c-0.2,0.7,0,1.2,0.5,1.6c0.3,0.2,0.8,0,0.5-0.4c-0.4-0.6,0.2-1.4,0.7-1.7c0.7-0.3,1.2,0.3,1.3,1c0,0.8-0.6,1.5-1.4,1.5
			c-1,0-1.8-1-1.9-2C70.8,392.4,70.5,392.4,70.5,392.6z"/>
		<path class="st2" d="M77.9,397c-1,0.9-0.3,2.4,0.8,2.8c1.4,0.6,2.8-0.6,3.2-1.8c0.2-0.6,0.4-1.3-0.1-1.8c-0.4-0.5-1.1-0.6-1.7-0.6
			c-1.2,0.1-2.4,1.1-1.8,2.4c0.1,0.2,0.5,0.2,0.6,0c0.2-0.5,0.7-1.1,1.2-1.2c0.3-0.1,0.6-0.1,0.9,0c0.4,0.2,0.3,0.5,0.1,0.9
			c-0.2,0.8-1,1.7-1.9,1.5c-0.8-0.2-1.4-1.2-1.1-2C78.2,397.1,78,396.9,77.9,397L77.9,397z"/>
		<path class="st2" d="M58.4,403.3c-0.7,1.2-0.3,2.7,1,3.3c1.2,0.6,2.6-0.3,2.9-1.6c0.3-1.2-0.5-2.5-1.8-2.3
			c-1.1,0.2-2.3,1.5-1.3,2.5c0.1,0.1,0.3,0,0.3-0.2c-0.1-0.7,0.6-1.4,1.2-1.5c0.9-0.1,1.1,0.9,0.8,1.5c-0.4,0.7-1.2,1.1-1.9,0.6
			c-0.7-0.5-1.1-1.5-0.9-2.3C58.7,403.3,58.5,403.2,58.4,403.3L58.4,403.3z"/>
		<path class="st2" d="M65.7,409.6c-0.5,1.2,0.5,2.6,1.7,2.7c1.2,0.1,1.9-1,1.8-2.1c-0.1-1.1-1.1-2-2.2-1.6c-1,0.4-2,2.1-0.8,2.8
			c0.2,0.1,0.4-0.1,0.3-0.2c-0.1-0.7,0-1.5,0.7-1.8c0.7-0.4,1.4,0.2,1.4,1c0,0.7-0.4,1.5-1.3,1.4c-0.9-0.1-1.6-1.2-1.4-2.1
			C66.1,409.5,65.8,409.4,65.7,409.6L65.7,409.6z"/>
		<path class="st2" d="M81.7,403.7c1.1-0.1,2.2,0.8,2.2,1.9c0.1,1-0.9,1.6-1.8,1.7c-1,0.1-1.7-0.5-1.6-1.5c0-0.9,0.5-1.3,1.2-1.7
			c0.4-0.3,0.2-0.9-0.3-0.9c-1.2,0.2-1.8,1.8-1.6,2.9c0.3,1.2,1.4,1.9,2.5,1.8c1.2-0.2,2.2-1.2,2-2.5c-0.2-1.3-1.5-2.2-2.8-1.9
			C81.5,403.5,81.6,403.7,81.7,403.7L81.7,403.7z"/>
		<path class="st2" d="M97.1,388.6c-0.5-0.1-0.9-0.3-1.4-0.1c-0.5,0.2-0.9,0.5-1.2,0.9c-0.7,0.9-0.9,2-0.4,3
			c0.1,0.2,0.3,0.3,0.5,0.3c2.3,0,4.2-1.7,4.5-3.9c0-0.3-0.2-0.5-0.4-0.5c-0.8-0.4-1.8-0.2-2.5,0.3c-0.5,0.4-1.2,1.3-0.7,2
			c0.1,0.1,0.2,0.1,0.3,0.1c0.4-0.3,0.5-0.8,1-1.1c0.5-0.4,1.1-0.4,1.6-0.2c-0.1-0.2-0.3-0.4-0.4-0.5c-0.2,1.6-1.7,2.8-3.3,2.8
			l0.5,0.3c-0.3-0.6-0.2-1.3,0.1-1.9c0.3-0.5,1.2-1.2,1.8-1.2C97.1,388.7,97.2,388.6,97.1,388.6L97.1,388.6z"/>
		<path class="st2" d="M102.2,391.4c-0.6,0.8-0.8,1.9-0.5,2.8c0,0.1,0.2,0.2,0.3,0.2c1.3-0.2,2.4-1.5,2.4-2.8c0-0.2-0.1-0.3-0.3-0.4
			c-1.4-0.6-3.8,1.3-2.5,2.7c0.1,0.2,0.4,0.1,0.4-0.1c0.4-1,0.8-1.9,2-1.8l-0.4-0.4c0.1,1.1-0.6,2.1-1.8,2.3l0.3,0.2
			c-0.3-0.9-0.3-1.7,0.2-2.6C102.5,391.4,102.3,391.3,102.2,391.4L102.2,391.4z"/>
		<path class="st2" d="M106.8,384.4c-1,0.1-1.2,1.3-0.8,2.1c0.6,1.1,1.9,0.9,2.6,0c0.8-1.1,0.5-2.6-0.7-3.3
			c-0.6-0.3-1.3-0.2-1.7,0.3c-0.4,0.4-0.5,1.2,0.1,1.5c0.2,0.1,0.4,0,0.4-0.2c0-0.3,0-0.6,0.3-0.8c0.4-0.2,0.9,0.2,1.1,0.5
			c0.3,0.5,0.2,1.2-0.2,1.6c-1,1.1-2-1-1-1.4C107,384.7,107,384.4,106.8,384.4z"/>
		<path class="st2" d="M116.6,384.4c-1.3,0.6-1.5,2.5-0.5,3.5c0.1,0.1,0.3,0.2,0.4,0.1c1-0.7,1.6-1.7,1.7-2.9c0-0.1-0.1-0.3-0.2-0.4
			c-0.5-0.3-1.1-0.3-1.6-0.1c-0.4,0.2-0.9,0.7-0.6,1.2c0.1,0.1,0.2,0.1,0.3,0.1c0.5-0.3,0.8-0.9,1.5-0.6c-0.1-0.1-0.1-0.2-0.2-0.4
			c0,1-0.5,1.8-1.3,2.4c0.1,0,0.3,0,0.4,0.1c-0.8-0.7-0.7-2.1,0.2-2.7C117,384.5,116.8,384.3,116.6,384.4L116.6,384.4z"/>
		<path class="st2" d="M126.1,378.5c0.8,1.2,0.6,2.6,0.2,3.9c-0.1,0.2,0.2,0.4,0.4,0.3c1.6-1.1,1.3-3.4,0-4.5
			C126.4,377.9,125.9,378.1,126.1,378.5z"/>
		<path class="st2" d="M15.2,411.9c0.1-0.4-0.2-0.7-0.6-0.8c-0.6-0.1-1,0.5-1,1.1c0,1.4,0.8,3.1,2.3,3.3c1.4,0.2,2.4-1.1,1.9-2.4
			c-0.5-1.4-2.3-1.9-3.6-1.5c-0.2,0.1-0.2,0.3,0,0.4c0.7,0.3,1.5,0.3,2.2,0.7c0.5,0.3,1,1.3,0.4,1.7c-0.7,0.4-1.4-0.3-1.7-0.9
			c-0.2-0.4-0.3-0.7-0.3-1.1c0-0.2-0.1-0.4,0-0.5c0,0,0.2-0.3,0.2-0.1C14.9,412,15.1,412,15.2,411.9L15.2,411.9z"/>
		<path class="st2" d="M29.9,409.2c-0.3,1.7,1,3.2,2.7,3.3c0.1,0,0.3-0.1,0.3-0.2c0.7-1.2,0.4-2.7-0.7-3.7c-0.6-0.5-1.1-0.6-1.7,0
			c-0.4,0.4-0.8,1.3-0.3,1.7c0.1,0.1,0.2,0.1,0.3,0c0.4-0.4,0.4-0.9,1-1.2c-0.1,0-0.3,0-0.4,0c1,0.4,1.5,1.8,1.1,2.8
			c0.1-0.1,0.2-0.1,0.3-0.2c-1.3,0-2.4-1.2-2.4-2.5C30.2,409.1,30,409,29.9,409.2L29.9,409.2z"/>
		<path class="st2" d="M39.8,411c0.2,1.2-1.1,3.9,0.8,4.5c1.5,0.5,2.9-1.4,3-2.7c0-1.4-1.4-2.7-2.8-2.4c-1.3,0.3-2.3,2.2-1.1,3.2
			c0.2,0.1,0.5,0,0.4-0.2c-0.2-0.9,0.1-2.1,1.3-2.1c1.2,0,1.9,1.4,1.5,2.4c-0.2,0.5-0.9,1.3-1.5,1.4c-0.9,0.1-1.2-0.5-1.3-1.2
			c-0.1-1,0.3-1.8,0-2.8C40,410.8,39.7,410.8,39.8,411z"/>
		<path class="st2" d="M48.3,401.7c-0.3,0.7-0.3,1.3,0.1,2c0.3,0.5,0.9,1.1,1.6,1.2c0.6,0,1.1-0.5,1.3-1c0.2-0.6,0.2-1.3-0.2-1.8
			c-0.7-1-2.6-1-3.2,0.2c-0.1,0.2-0.1,0.5,0.1,0.6c0.2,0.2,0.5,0,0.6-0.2c0.4-0.4,1.2-0.7,1.7-0.2c0.2,0.2,0.2,0.6,0.1,0.9
			c-0.1,0.4-0.3,0.5-0.6,0.4c-0.7-0.3-1.2-1.3-1.2-2.1C48.5,401.6,48.3,401.6,48.3,401.7L48.3,401.7z"/>
		<path class="st2" d="M46.6,414.3c-0.7,1.5-0.9,3.6,0.8,4.5c1.7,0.8,2.8-0.8,2.8-2.4c0-1.3-1-3.1-2.5-2.7c-1.2,0.3-2,1.8-0.9,2.6
			c0.1,0.1,0.3-0.1,0.2-0.2c-0.4-0.8,0.5-1.8,1.3-1.6c0.9,0.2,1.2,1.5,1.1,2.3c-0.1,0.6-0.3,1.3-1,1.4c-0.5,0-1-0.3-1.3-0.7
			c-0.6-0.9-0.2-2.1-0.2-3.1C46.8,414.3,46.6,414.2,46.6,414.3L46.6,414.3z"/>
		<path class="st2" d="M48.2,420.7c-1.8-1.2-4-1.3-6.1-1.7c-2.1-0.4-4.1-0.8-6.2-1.1c-4-0.6-8.1-0.9-11.7,1.2
			c-0.4,0.2-0.2,0.8,0.3,0.7c4.3-0.6,8.3-0.7,12.6-0.1c3.4,0.5,7.8,2,11.1,1.1C48.2,420.9,48.2,420.8,48.2,420.7L48.2,420.7z"/>
		<path class="st2" d="M54,422.5c0.5,1.1,1.1,2.2,1.5,3.3c0.3,1,0.4,2,0.8,2.9c0.1,0.2,0.3,0.1,0.3,0c0.6-2.1-0.7-5-2.2-6.5
			C54.2,422.1,53.9,422.3,54,422.5L54,422.5z"/>
		<path class="st2" d="M55.1,421.9c0.6,0.8,1.1,1.7,1.5,2.6c0.3,0.8,0.5,1.8,1.1,2.5c0.1,0.2,0.4,0,0.4-0.1c0.1-0.9-0.4-1.9-0.8-2.7
			c-0.5-0.9-1.1-1.7-1.7-2.5C55.3,421.5,55,421.8,55.1,421.9L55.1,421.9z"/>
		<path class="st2" d="M56.2,421.9c0.7,0.5,1.4,1.3,1.6,2.1c0.2,0.7,0,1.4,0.3,2c0,0.1,0.2,0.1,0.3,0c0.6-0.6,0.3-1.9,0-2.5
			c-0.4-0.9-1.1-1.6-2.1-2C56.1,421.5,56,421.8,56.2,421.9L56.2,421.9z"/>
		<path class="st2" d="M54.5,422.8c0.7,2.4,0.9,4.8,1.3,7.2c0,0.2,0.3,0.1,0.3,0c0.2-2.5-0.4-5-1.2-7.3
			C54.9,422.4,54.5,422.5,54.5,422.8z"/>
		<path class="st2" d="M56.3,426c-0.9,2.7-1.7,5.4-2.5,8c-0.7,2.3-1.8,4.7-2.1,7.1c0,0.3,0.4,0.4,0.6,0.2c2.6-4.3,3.5-10.4,4.2-15.3
			C56.4,425.9,56.3,425.9,56.3,426L56.3,426z"/>
		<path class="st2" d="M60.9,432c-0.7,0.7-1.1,1.8-0.5,2.7c0.5,0.7,1.7,0.9,2.4,0.4c0.7-0.6,0.6-1.6-0.1-2.2
			c-0.3-0.2-0.8-0.4-1.1-0.2c-0.2,0.1-0.4,0.6-0.6,0.8c-0.2,0.3-0.4,0.7-0.5,1c0,0.2,0.1,0.3,0.3,0.2c0.3-0.2,0.5-0.5,0.7-0.8
			c0.1-0.2,0.3-0.8,0.6-0.7c0.7,0.1,0.7,1.1,0.3,1.4c-0.5,0.3-1.2,0.1-1.6-0.4c-0.4-0.6-0.3-1.6,0.2-2.2
			C61.1,432.1,61,431.9,60.9,432L60.9,432z"/>
		<path class="st2" d="M59.7,439c-1.1,0.4-1.6,1.7-1.1,2.7c0.6,1.2,2.1,1.1,2.9,0.2c0.8-0.8,0.5-2.1-0.6-2.5c-0.5-0.2-1-0.2-1.4,0.1
			c-0.4,0.2-0.8,0.6-0.6,1.1c0,0.1,0.2,0.1,0.2,0.1c0.2-0.1,0.3-0.4,0.6-0.5c0.2-0.1,0.5-0.2,0.8-0.1c0.9,0.1,1.2,1,0.6,1.6
			c-0.6,0.6-1.6,0.6-1.9-0.3c-0.3-0.7,0-1.5,0.7-1.9C60.1,439.3,60,438.9,59.7,439L59.7,439z"/>
		<path class="st2" d="M57.5,446.8c-0.9,0.4-1.3,1.7-0.7,2.6c0.7,1,2,0.7,2.7-0.2c0.6-0.9,0.3-2.2-0.9-2.5c-0.9-0.2-2.3,0.5-2,1.6
			c0,0.1,0.3,0.2,0.3,0.1c0.3-0.5,0.7-0.9,1.3-0.9c0.8,0,1,0.7,0.7,1.3c-0.4,0.6-1.2,0.7-1.6,0.1c-0.3-0.5-0.3-1.3,0.3-1.7
			C58,447,57.8,446.6,57.5,446.8z"/>
		<path class="st2" d="M53.8,453.8c-0.8,0.6-0.6,1.9,0.2,2.4c0.8,0.6,1.9,0.2,2.4-0.7c0.4-0.9,0.1-2-1-2.2c-1-0.2-2,0.4-1.9,1.5
			c0,0.2,0.4,0.3,0.4,0.1c0.1-0.5,0.8-0.8,1.2-0.8c0.6,0.1,0.8,0.7,0.5,1.2c-0.3,0.5-0.9,0.7-1.4,0.3c-0.4-0.4-0.6-1.1-0.4-1.6
			C54,453.8,53.9,453.7,53.8,453.8z"/>
		<path class="st2" d="M50.2,459.4c-0.8,0.6-0.9,1.8-0.2,2.5c0.7,0.7,1.9,0.6,2.6,0c0.4-0.4,0.2-0.9,0.1-1.4
			c-0.2-0.5-0.4-0.9-0.9-1.2c-0.8-0.4-2.1,0.3-1.6,1.2c0.1,0.2,0.5,0.1,0.5-0.1c0-0.5,0.7-0.7,1-0.4c0.4,0.3,0.5,1,0.6,1.5
			c0-0.1,0-0.2,0-0.2c-0.4,0.5-1.2,0.7-1.7,0.3c-0.6-0.4-0.6-1.4-0.1-2C50.6,459.5,50.4,459.3,50.2,459.4L50.2,459.4z"/>
		<path class="st2" d="M48.5,464.6c-0.6,0.8-0.6,1.8,0.1,2.5c0.8,0.8,2.1,0.5,2.6-0.4c0.5-0.8,0.2-2-0.8-2.2
			c-0.8-0.2-1.9,0.2-1.9,1.2c0,0.4,0.6,0.5,0.7,0.1c0.1-0.3,0.5-0.5,0.9-0.4c0.5,0.1,0.5,0.6,0.2,1c-0.9,1-1.9-0.7-1.5-1.5
			C49,464.6,48.7,464.4,48.5,464.6L48.5,464.6z"/>
		<path class="st2" d="M57.2,465.9c-1,1.1-2.1,2.2-3.2,3.2c-1,0.9-2.3,1.8-2.9,2.9c-0.1,0.2,0,0.4,0.3,0.4c1.3-0.3,2.3-1.5,3.2-2.5
			c1.1-1.1,2.1-2.4,3.1-3.6C57.8,466.1,57.4,465.6,57.2,465.9z"/>
		<path class="st2" d="M36.8,407.8c0.5,0.9,1.5,1.9,2.7,1.4c0.8-0.3,1.3-1.3,1-2.1c-0.3-0.9-1.3-1-2-0.5c-0.4,0.2-0.6,0.6-0.7,1
			c0,0.4,0.1,0.8,0.5,0.8c0.1,0,0.2-0.1,0.2-0.1c0.1-0.2,0-0.4,0-0.6c0-0.3,0.2-0.5,0.4-0.6c0.5-0.4,1.3-0.3,1.3,0.5
			c0,0.6-0.5,1.2-1.1,1.2c-0.7-0.1-1.3-0.9-1.7-1.3C37,407.2,36.6,407.5,36.8,407.8L36.8,407.8z"/>
		<path class="st2" d="M43.6,405.2c0.2,1.5,2.4,1.8,3.2,0.6c0-0.1,0.1-0.2,0-0.3c-0.5-0.9-1.6-1.4-2.6-1.1c-0.2,0.1-0.2,0.3,0,0.3
			c0.8,0,1.6,0.3,2.1,1l0-0.3c-0.5,1-2.2,0.6-2.3-0.4C43.9,404.9,43.5,405,43.6,405.2L43.6,405.2z"/>
		<path class="st2" d="M90.9,414.4c-0.2-0.2-0.2-0.4-0.5-0.5c-0.2-0.1-0.5-0.1-0.8,0c-0.5,0.1-1,0.5-1.3,0.9
			c-0.7,1.1,0.1,2.3,1.3,2.5c1.2,0.2,2.4-0.4,2.6-1.6c0.2-1.2-0.7-2.7-2-2.6c-0.2,0-0.3,0.3-0.1,0.4c0.6,0.4,1.3,1,1.3,1.8
			c0,0.7-0.6,1.2-1.3,1.1c-0.6,0-1.2-0.5-0.9-1.2c0.2-0.5,1.1-1.1,1.7-0.7C90.9,414.6,91,414.5,90.9,414.4L90.9,414.4z"/>
		<path class="st2" d="M95.5,418.7c-1.2,0.2-2.1,1.2-2,2.5c0.1,1.2,1.2,2,2.4,1.9c1.1-0.1,2-1.1,1.8-2.2c-0.1-0.6-0.4-1.1-0.9-1.4
			c-0.4-0.3-1-0.5-1.4,0c-0.1,0.1-0.1,0.2,0,0.3c0.2,0.2,0.5,0.2,0.8,0.3c0.3,0.2,0.6,0.5,0.7,0.9c0.2,0.8-0.4,1.4-1.1,1.3
			c-1.9-0.1-1.6-2.6-0.1-3.1C96,419.2,95.8,418.7,95.5,418.7L95.5,418.7z"/>
		<path class="st2" d="M98.3,424.1c-0.8,1-0.7,2.5,0.3,3.3c1,0.8,2.5,0.4,3.1-0.7c0.6-1.1,0.1-2.4-1.2-2.6c-1-0.1-2.4,0.7-2,1.9
			c0,0.1,0.1,0.2,0.3,0.3c0.2,0.1,0.4,0,0.5-0.2c0.2-0.3,0.1-0.5,0.4-0.7c0.6-0.4,1.6-0.2,1.5,0.6c-0.1,1-1.4,1.5-2.1,0.9
			c-0.7-0.6-0.8-1.7-0.4-2.5C98.8,424.1,98.5,423.9,98.3,424.1L98.3,424.1z"/>
		<path class="st2" d="M105,429.2c0,0,0.1,0,0.1,0c0,0-0.1-0.1-0.1-0.2c0,0.1,0,0.2,0.1,0.2c0.4,0.3,0.8,0.6,0.8,1.2
			c0,0.4-0.5,0.6-0.8,0.7c-0.4,0-0.8-0.3-0.8-0.7c0-0.5,0.4-0.8,0.8-1c0.3-0.2,0.2-0.7-0.2-0.7c-0.9,0-1.5,0.9-1.5,1.8
			c0,0.9,0.8,1.5,1.6,1.5c0.9,0,1.7-0.6,1.7-1.5c0-0.8-0.7-1.9-1.7-1.7c-0.1,0-0.2,0.1-0.2,0.2c0,0,0,0,0,0
			C104.9,429,104.9,429.2,105,429.2L105,429.2z"/>
		<path class="st2" d="M108.8,434.3c-0.6,0.6-0.6,1.5,0,2.1c0.5,0.6,1.5,0.7,2,0.1c0.5-0.5,0.5-1.5,0.1-2.1
			c-0.5-0.6-1.4-0.6-1.9-0.1c-0.5,0.5-0.9,1.9,0.1,2.1c0.2,0,0.3-0.1,0.3-0.3c-0.2-0.5-0.3-1,0.2-1.4c0.5-0.4,1,0.1,1,0.6
			c0,0.5-0.4,1.1-0.9,0.8c-0.5-0.3-0.8-1.1-0.4-1.6C109.3,434.3,109,434.1,108.8,434.3L108.8,434.3z"/>
		<path class="st2" d="M113,439.1c-0.1,0.2-0.3,0.2-0.4,0.4c-0.1,0.2-0.1,0.4-0.1,0.6c0.1,0.5,0.4,0.9,0.8,1.1
			c0.9,0.5,1.8-0.2,2-1.1c0.1-0.4,0.1-0.8-0.2-1.2c-0.3-0.4-0.8-0.4-1.2-0.3c-0.5,0.1-1,0.4-1.3,0.8c-0.3,0.3-0.6,0.8-0.4,1.2
			c0.1,0.1,0.2,0.1,0.3,0c0.2-0.2,0.2-0.5,0.4-0.7c0.2-0.3,0.5-0.5,0.8-0.7c0.3-0.1,0.7-0.2,1-0.1c0.3,0.1,0.4,0.4,0.3,0.7
			c-0.1,0.6-0.7,1-1.2,0.6c-0.2-0.2-0.4-0.4-0.5-0.7c0-0.1-0.2-0.5-0.1-0.6C113.2,439.1,113.1,439,113,439.1L113,439.1z"/>
		<path class="st2" d="M117.2,443c-0.2,0-0.3-0.1-0.5,0c-0.2,0.1-0.4,0.2-0.6,0.3c-0.3,0.3-0.5,0.7-0.5,1.1c-0.1,1,0.7,1.8,1.7,1.8
			c0.9,0.1,1.7-0.7,1.8-1.5c0.1-0.8-0.4-1.8-1.4-1.7c-0.2,0-0.3,0.2-0.1,0.4c0.4,0.3,0.7,0.7,0.7,1.2c0,0.6-0.5,0.8-1.1,0.7
			c-0.5-0.1-0.7-0.4-0.6-0.9c0-0.2,0.1-0.5,0.3-0.6c0.1-0.1,0.3-0.3,0.4-0.4C117.5,443.3,117.4,443,117.2,443L117.2,443z"/>
		<path class="st2" d="M121.6,447.9c-0.5-0.2-1.2-0.1-1.6,0.2c-0.1,0.1-0.1,0.3-0.1,0.4c0.3,0.6,0.9,0.6,1.4,0.3
			c0.5-0.3,0.8-1,0.3-1.3c-0.1-0.1-0.4,0-0.4,0.2c0,0.2-0.1,0.4-0.3,0.5c-0.1,0.1-0.4,0.2-0.5,0c0,0.1,0,0.3-0.1,0.4
			c0.3-0.3,0.6-0.3,1-0.2C121.8,448.5,121.9,448,121.6,447.9L121.6,447.9z"/>
		<path class="st2" d="M57.2,380.9c-0.5,0.6-0.4,1.3,0.2,1.8c0.5,0.5,1.4,0.7,2,0.2c1.2-1.1-0.5-3.4-1.9-2.7
			c-0.1,0.1-0.2,0.2-0.2,0.3c0,0.7-0.2,1.5,0.1,2.2c0.1,0.1,0.2,0.2,0.3,0.1c0.3-0.6,0.3-1.5,0.4-2.2c-0.1,0.1-0.1,0.2-0.2,0.3
			c0.8-0.4,1.8,0.9,1,1.5c-0.7,0.6-2-0.7-1.6-1.4C57.5,380.9,57.3,380.8,57.2,380.9z"/>
		<path class="st2" d="M59.3,385.1c-0.4,1.1,0.3,2.4,1.5,2.6c1,0.2,1.7-0.9,1.7-1.8c0-0.9-0.8-1.8-1.8-1.5c-0.5,0.2-0.9,0.6-1.1,1
			c-0.2,0.5-0.1,1,0.3,1.4c0.1,0.2,0.4,0,0.3-0.2c-0.3-0.5,0.2-1.3,0.7-1.6c0.7-0.3,1.2,0.3,1.2,1c0,0.7-0.6,1.2-1.3,1
			c-0.7-0.2-1.1-1.1-0.8-1.8C60,384.9,59.4,384.7,59.3,385.1L59.3,385.1z"/>
		<path class="st2" d="M62,388.6c-0.4,0.7-0.1,1.5,0.5,2c0.6,0.5,1.6,0.7,2.2,0.1c0.3-0.3,0-0.6-0.4-0.5c-0.9,0.3-2.2-0.5-2-1.5
			C62.3,388.5,62.1,388.4,62,388.6z"/>
		<path class="st2" d="M86.7,395.5c0,0.9,0.3,1.7,1.2,2.2c0.8,0.4,1.5-0.5,1.7-1.2c0.2-0.7-0.1-1.9-1.1-1.8
			c-0.5,0.1-0.9,0.3-1.2,0.6c-0.3,0.4-0.4,0.8-0.2,1.3c0.1,0.2,0.4,0.2,0.5,0c0.3-0.4,0.6-0.9,1.1-1c-0.1-0.1-0.2-0.1-0.3-0.2
			c0.5,0.5,0.2,1.3-0.3,1.5c0.1,0,0.2,0,0.3,0c-0.7-0.2-1.3-0.7-1.4-1.5C86.9,395.3,86.7,395.3,86.7,395.5L86.7,395.5z"/>
		<path class="st2" d="M91,393.4c-0.2,1.1,1.3,1.9,2.2,1.2c0.9-0.7,0.5-2.4-0.7-2.3c-0.2,0-0.3,0.3-0.1,0.4c0.4,0.2,0.7,1,0.5,1.4
			c-0.4,0.7-1.5,0-1.5-0.7C91.3,393.2,91,393.2,91,393.4z"/>
		<path class="st2" d="M101.9,387.5c0,0.4,0,0.6,0.3,0.9c0.3,0.3,0.6,0.4,1,0.3c0.7-0.1,1.2-1,1-1.7c0-0.2-0.2-0.3-0.4-0.4
			c-0.4,0-1-0.1-1.3,0.1c-0.1,0.1-0.2,0.2-0.1,0.3c0.3,0.3,0.9,0.4,1.4,0.5c-0.1-0.1-0.3-0.2-0.4-0.2c0.1,0.2-0.1,0.6-0.4,0.6
			c-0.2,0-0.3,0-0.4-0.1c-0.1-0.1-0.3-0.2-0.3-0.4C102.2,387.2,101.9,387.3,101.9,387.5L101.9,387.5z"/>
		<path class="st2" d="M65.2,424.9c-0.1-0.5-0.3-1-0.2-1.5c0-0.2-0.2-0.2-0.3-0.1c-0.4,0.4-0.8,0.7-0.9,1.3
			c-0.1,0.5-0.1,1.1,0.1,1.6c0.3,0.9,1.9,0.6,2.5,0.1c0.7-0.5,0.9-1.5,0.3-2.2c-0.5-0.5-1.6-0.9-1.9,0c-0.1,0.2,0.1,0.3,0.3,0.3
			c0.5-0.1,1.3,0.1,1.2,0.8c-0.1,0.7-1.1,0.7-1.7,0.6l0.3,0.3c-0.3-0.7-0.3-1.9,0.2-2.5l-0.3,0c0.2,0.4,0.3,1,0.3,1.4
			C65,425,65.2,425,65.2,424.9L65.2,424.9z"/>
		<path class="st2" d="M66.5,417.2c-0.5,0.2-0.8,0.4-0.9,0.9c-0.1,0.5,0,1,0.3,1.4c0.6,0.9,1.9,0.8,2.5-0.1c0.6-0.9,0.6-2.2-0.5-2.7
			c-0.5-0.2-1-0.3-1.5-0.1c-0.6,0.2-0.9,0.5-1.2,1c-0.1,0.2,0.2,0.3,0.3,0.2c0.5-0.5,1.3-0.8,1.9-0.6c0.8,0.2,1,1.2,0.6,1.8
			c-0.4,0.6-1.2,0.6-1.5,0c-0.2-0.4-0.3-1.2,0.1-1.5C66.8,417.4,66.7,417.2,66.5,417.2L66.5,417.2z"/>
		<path class="st2" d="M67.7,413.3c-0.1,0.4,0,1,0.4,1.2c0.4,0.2,0.9-0.3,1-0.7c0-0.2,0-0.5-0.2-0.6c-0.2-0.1-0.4,0-0.4,0.2
			c0,0.2,0.1,0.5-0.1,0.7c-0.3,0.3-0.4-0.4-0.4-0.6C68,413.2,67.7,413.1,67.7,413.3L67.7,413.3z"/>
		<path class="st2" d="M75.9,411.9c-0.6-0.7-1.8-0.6-2.1,0.3c-0.1,0.2,0,0.3,0.2,0.5c0.7,0.6,1.8,0.8,2.7,0.3
			c0.7-0.4,1.1-1.3,0.9-2.1c-0.2-0.8-1-1.2-1.8-1c-0.6,0.2-1.4,0.9-0.9,1.6c0.1,0.1,0.3,0.1,0.4,0c0.2-0.2,0.3-0.5,0.7-0.5
			c0.3-0.1,0.5,0.1,0.6,0.4c0,0.4-0.2,0.8-0.5,0.9c-0.5,0.2-1.2,0-1.6-0.3c0.1,0.2,0.1,0.3,0.2,0.5c0.1-0.5,0.8-0.9,1.2-0.5
			C75.9,412.1,76,412,75.9,411.9z"/>
		<path class="st2" d="M39.1,373.5c2.7,4.3,5.4,8.5,8.4,12.6c0.1,0.1,0.2,0,0.1-0.1C44.9,381.7,42,377.6,39.1,373.5
			C39.1,373.4,39,373.4,39.1,373.5z"/>
		<path class="st2" d="M39.9,372.7c2.7,4.2,5.4,8.5,8.5,12.6c0.1,0.1,0.2,0,0.1-0.1c-2.6-4.3-5.6-8.4-8.5-12.6
			C39.9,372.5,39.8,372.6,39.9,372.7z"/>
		<path class="st2" d="M42.1,374.1c2.6,4.5,5.3,9.3,8.9,13.1c0.1,0.1,0.2,0,0.1-0.1c-2.8-4.4-6.2-8.5-8.9-13.1
			C42.1,373.9,42,374,42.1,374.1L42.1,374.1z"/>
		<path class="st2" d="M43.4,374.6c1.8,3.3,3.7,6.7,6,9.7c0.1,0.1,0.3,0,0.2-0.2c-1.6-3.3-4-6.6-6.1-9.6
			C43.4,374.5,43.3,374.5,43.4,374.6z"/>
		<path class="st2" d="M45.5,377c1.5,1.7,2.6,3.6,3.9,5.5c0.1,0.1,0.3,0.1,0.3-0.1c-0.8-2.1-2.4-4-4-5.6
			C45.6,376.7,45.4,376.9,45.5,377L45.5,377z"/>
		<path class="st2" d="M45.5,377.4c1.6,2.7,3.1,5.5,5,8c0.2,0.2,0.4,0,0.3-0.2c-1.4-2.8-3.3-5.4-5-8
			C45.7,376.9,45.3,377.2,45.5,377.4L45.5,377.4z"/>
		<path class="st2" d="M47.6,380.2c1.3,3.4,4,7.5,6.9,9.8c0.1,0.1,0.3-0.1,0.2-0.2c-1-1.5-2.2-2.8-3.3-4.2c-1.3-1.8-2.4-3.7-3.6-5.5
			C47.8,379.9,47.6,380,47.6,380.2z"/>
		<path class="st2" d="M49.2,382.3c1.5,3.6,4.6,7.4,8.3,8.9c0.1,0.1,0.3-0.2,0.2-0.2c-1.5-1.3-3.1-2.3-4.4-3.7
			c-1.5-1.5-2.7-3.2-3.8-5C49.4,382,49.2,382.1,49.2,382.3L49.2,382.3z"/>
		<path class="st2" d="M59.6,373.8c1.4,1.7,3.1,3.3,4.8,4.7c0.1,0.1,0.3-0.1,0.2-0.2c-1.4-1.7-3-3.4-4.8-4.7
			C59.7,373.5,59.5,373.7,59.6,373.8z"/>
		<path class="st2" d="M36.8,364.9c0.2,2.1,1,5,2.5,6.6c0.1,0.1,0.4,0,0.4-0.2c-0.3-1-0.9-1.9-1.3-2.8c-0.5-1.2-0.8-2.4-1.2-3.6
			C37.2,364.6,36.8,364.6,36.8,364.9z"/>
		<path class="st2" d="M37.1,365.7c0,2.9,1.2,7,3.9,8.6c0.2,0.1,0.4-0.1,0.3-0.3c-0.7-1.3-1.7-2.4-2.4-3.7c-0.7-1.5-1.1-3.1-1.4-4.7
			C37.4,365.5,37.1,365.5,37.1,365.7L37.1,365.7z"/>
		<path class="st2" d="M38.1,366.8c0.8,2.5,1.7,5.3,3.1,7.5c0.2,0.2,0.6,0.1,0.5-0.2c-0.7-2.5-2.1-5.1-3.4-7.4
			C38.3,366.6,38.1,366.6,38.1,366.8L38.1,366.8z"/>
		<path class="st2" d="M39.5,368.7c0.8,2,1.7,4.5,3.3,6.1c0.2,0.2,0.4,0,0.3-0.2c-0.8-2.1-2.2-4-3.1-6.1
			C39.8,368.1,39.3,368.3,39.5,368.7z"/>
		<path class="st2" d="M40.8,369.1c0.5,1,0.9,2,1.4,2.9c0.3,0.5,0.6,1.8,1.2,2c0.5,0.2,0.9-0.4,0.4-0.7c-0.1,0-0.1,0-0.2,0
			c0,0,0,0.1-0.1,0.1c-0.1,0.1,0.1,0.2,0.2,0.2c0,0-2.3-4.4-2.5-4.8C41.1,368.7,40.7,368.9,40.8,369.1z"/>
		<path class="st2" d="M43.3,372c0.3,0.6,0.5,1.2,0.9,1.8c0.1,0.2,0.4,0.1,0.4-0.1c-0.2-0.7-0.5-1.3-0.8-1.9
			C43.6,371.5,43.2,371.7,43.3,372L43.3,372z"/>
		<path class="st2" d="M37.5,361.7c-0.1,1.4,0.5,2.5,0.9,3.7c0,0.1,0.2,0.1,0.2-0.1c-0.3-1.2-0.9-2.4-0.9-3.6
			C37.7,361.6,37.5,361.6,37.5,361.7L37.5,361.7z"/>
		<path class="st2" d="M37.9,364.9c0.3,0.5,0.6,0.9,0.9,1.4c0,0.1,0.2,0,0.1-0.1c-0.3-0.5-0.6-0.9-0.8-1.4
			C38,364.8,37.8,364.9,37.9,364.9L37.9,364.9z"/>
		<path class="st2" d="M47.2,378c1.8,3.4,3.8,6.9,6.1,10.1c0.1,0.1,0.3,0,0.2-0.1C51.7,384.5,49.6,381.1,47.2,378
			C47.3,377.9,47.2,377.9,47.2,378L47.2,378z"/>
		<path class="st2" d="M50.3,383c1.4,2.5,2.8,5.2,4.6,7.5c0.1,0.1,0.3,0,0.3-0.2c-1.2-2.6-3.1-5-4.7-7.4
			C50.4,382.8,50.2,382.9,50.3,383L50.3,383z"/>
		<path class="st2" d="M52.2,383.8c1.4,2.3,2.6,4.8,4.1,7c0.1,0.1,0.2,0,0.2-0.1c-0.8-2.5-2.5-5-4.1-7.1
			C52.3,383.6,52.1,383.7,52.2,383.8L52.2,383.8z"/>
		<path class="st2" d="M53.5,384c1.1,2,2.1,4.2,3.5,6c0.1,0.1,0.2,0,0.2-0.1c-0.9-2.1-2.2-4.1-3.4-6C53.6,383.7,53.4,383.8,53.5,384
			L53.5,384z"/>
		<path class="st2" d="M54.8,384.5c0.9,1.7,1.8,3.6,3,5.1c0.1,0.1,0.3,0,0.2-0.2c-0.7-1.8-1.9-3.5-2.9-5.1
			C55,384.1,54.6,384.2,54.8,384.5L54.8,384.5z"/>
		<path class="st2" d="M57,386.8c0.4,0.3,0.9,0.8,1.3,1c0.1,0.1,0.2-0.1,0.1-0.2c-0.3-0.4-0.9-0.7-1.3-1
			C57,386.5,56.9,386.7,57,386.8z"/>
		<path class="st2" d="M51.5,390.6c0,1,0.1,2,0.1,3c-0.1,1.1-0.5,2.1-0.7,3.2c0,0.2,0.2,0.4,0.4,0.2c1.3-1.6,1.6-4.7,0.5-6.5
			C51.6,390.4,51.5,390.4,51.5,390.6L51.5,390.6z"/>
		<path class="st2" d="M50,391.5c0.9,2.1,0.6,3.8-0.2,5.8c-0.1,0.1,0.1,0.2,0.2,0.1c1.7-1.5,1.5-4.4,0.1-6.1
			C50.1,391.2,49.9,391.4,50,391.5L50,391.5z"/>
		<path class="st2" d="M53.6,392c-0.2,1-0.5,2-0.9,2.9c-0.4,0.9-0.9,1.8-1.2,2.8c0,0.1,0.1,0.3,0.2,0.1c1.3-1.5,1.7-3.9,2.1-5.9
			C53.8,392,53.7,391.9,53.6,392z"/>
		<path class="st2" d="M54.4,392.5c-0.2,0.8-0.5,1.7-0.9,2.5c-0.3,0.8-0.9,1.6-1.1,2.4c0,0.1,0.1,0.2,0.2,0.1
			c1.2-1.2,1.7-3.3,2.1-4.9C54.7,392.4,54.5,392.3,54.4,392.5z"/>
		<path class="st2" d="M55.3,393c-0.5,1.9-1.5,3.6-2.4,5.3c-0.1,0.1,0.1,0.3,0.2,0.2c1.4-1.5,2.1-3.5,2.5-5.4
			C55.6,392.9,55.3,392.8,55.3,393L55.3,393z"/>
		<path class="st2" d="M55.3,393.4c-0.9,1.7-2.1,3.5-2.4,5.4c0,0.2,0.2,0.3,0.3,0.1c1.2-1.5,1.8-3.6,2.4-5.4
			C55.7,393.4,55.4,393.2,55.3,393.4L55.3,393.4z"/>
		<path class="st2" d="M54.4,392.6c0.3,0.9,0.3,1.8,0.1,2.7c-0.2,0.8-0.6,1.4-0.8,2.1c0,0.2,0.1,0.4,0.3,0.3
			c1.7-0.9,1.5-3.8,0.8-5.3C54.7,392.1,54.3,392.3,54.4,392.6L54.4,392.6z"/>
		<path class="st2" d="M53.9,392.6c0.4,0.8,0.7,1.6,0.7,2.5c0,0.8-0.3,1.5-0.5,2.3c-0.1,0.3,0.3,0.5,0.5,0.3
			c1.2-1.4,0.8-3.9-0.2-5.3C54.2,392,53.8,392.3,53.9,392.6L53.9,392.6z"/>
		<path class="st2" d="M55.3,393.5c-0.1,2.1-1,3.5-2,5.3c-0.1,0.1,0.1,0.3,0.2,0.2c1.6-1.2,2.1-3.5,2.1-5.4
			C55.5,393.3,55.3,393.3,55.3,393.5z"/>
		<path class="st2" d="M53.8,397.4c-0.8,0.7-1.6,1.4-2.3,2.2c-0.1,0.1,0,0.2,0.1,0.1c0.8-0.7,1.6-1.4,2.4-2.1
			C54.2,397.5,54,397.2,53.8,397.4z"/>
		<path class="st2" d="M3.1,416c1,3.1,7.7,2.8,10.1,3c5.8,0.5,12,0.7,17.8,0c0.2,0,0.2-0.4,0-0.4c-4.4-0.3-8.9,0.2-13.3,0.1
			c-2.9-0.1-13.2,0.5-14.4-2.7C3.3,415.8,3.1,415.9,3.1,416L3.1,416z"/>
		<path class="st2" d="M8.1,417.2c4.1,0.9,8.5,1.5,12.6,1.3c0.2,0,0.2-0.2,0-0.2c-4.2-0.4-8.4-0.7-12.6-1.2
			C8.1,417,8,417.2,8.1,417.2z"/>
		<path class="st2" d="M11.7,417.7c3.7,0.3,7.5,0.6,11.3,0.5c0.2,0,0.3-0.3,0-0.4c-3.7-0.4-7.5-0.4-11.3-0.3
			C11.6,417.5,11.6,417.7,11.7,417.7L11.7,417.7z"/>
		<path class="st2" d="M16.7,417.7c4.2,0.3,8.4,0.4,12.6,0.2c0.2,0,0.3-0.3,0-0.4c-4.2-0.3-8.4-0.2-12.6,0
			C16.6,417.5,16.5,417.7,16.7,417.7z"/>
		<path class="st2" d="M21.2,417c4.4,0.6,9,1,13.5,1c0.2,0,0.2-0.2,0-0.3c-4.4-0.7-9-1-13.5-0.9C21.1,416.8,21.1,417,21.2,417z"/>
		<path class="st2" d="M26.2,416.8c3.5-0.2,6.5,0.3,9.9,0.9c0.1,0,0.2-0.2,0.1-0.2c-3-1.4-6.8-1.6-10-0.9
			C26,416.5,26,416.8,26.2,416.8L26.2,416.8z"/>
		<path class="st2" d="M28.4,415.6c2.4,0.6,5.2,1.2,7.7,1.3c0.2,0,0.2-0.2,0.1-0.3c-2.4-0.8-5.2-1.1-7.6-1.3
			C28.3,415.2,28.2,415.6,28.4,415.6L28.4,415.6z"/>
		<path class="st2" d="M29.8,414.3c1.8,0.4,3.6,1,5.4,1.1c0.2,0,0.2-0.2,0-0.3c-1.7-0.7-3.5-0.9-5.3-1.4
			C29.7,413.8,29.5,414.3,29.8,414.3L29.8,414.3z"/>
		<path class="st2" d="M33,414c0.6,0.2,1.2,0.4,1.8,0.5c0.2,0,0.2-0.2,0.1-0.3c-0.5-0.3-1.2-0.4-1.8-0.6C32.9,413.6,32.8,414,33,414
			L33,414z"/>
		<path class="st2" d="M50.3,420.1c1.1,0.6,2.2,1.2,3.2,2c1,0.7,1.9,1.7,3,2.3c0.1,0.1,0.3-0.1,0.2-0.2c-1.2-2.1-4.1-3.6-6.2-4.4
			C50.3,419.6,50.1,419.9,50.3,420.1L50.3,420.1z"/>
		<path class="st2" d="M49,419.6c3,0.7,4.9,2.6,7,4.7c0.2,0.2,0.5,0,0.4-0.3c-1.2-2.8-4.4-4.4-7.2-4.9C48.8,419,48.7,419.5,49,419.6
			L49,419.6z"/>
		<path class="st2" d="M50.8,419.3c2.4,1,4.1,2.6,6.2,4.1c0.2,0.1,0.4-0.1,0.3-0.3c-1.4-2.1-4-3.5-6.3-4.4
			C50.6,418.6,50.5,419.1,50.8,419.3L50.8,419.3z"/>
		<path class="st2" d="M51.2,419c1,0.4,2,0.9,3,1.5c0.9,0.6,1.6,1.4,2.5,1.9c0.2,0.1,0.5-0.1,0.4-0.4c-1.1-1.8-3.7-3-5.6-3.7
			C51,418.1,50.8,418.8,51.2,419L51.2,419z"/>
		<path class="st2" d="M52.6,418.8c0.9,0.4,1.9,0.9,2.8,1.5c0.9,0.6,1.7,1.3,2.6,1.8c0.3,0.2,0.6-0.2,0.4-0.4
			c-1.4-1.6-3.6-2.6-5.5-3.3C52.5,418.2,52.3,418.7,52.6,418.8z"/>
		<path class="st2" d="M54.9,419.4c0.7,0.3,1.3,0.6,1.9,1.1c0.6,0.5,1,1,1.6,1.5c0.1,0.1,0.3,0,0.2-0.2c-0.6-1.4-2.2-2.5-3.6-3
			C54.7,418.7,54.5,419.3,54.9,419.4z"/>
		<path class="st2" d="M54.4,418.2c0.8,0.3,1.5,0.7,2.2,1.2c0.6,0.4,1.2,1,1.8,1.4c0.1,0.1,0.3-0.1,0.2-0.2
			c-0.8-1.4-2.7-2.3-4.1-2.9C54.2,417.5,54.1,418,54.4,418.2L54.4,418.2z"/>
		<path class="st2" d="M55.4,418c0.6,0.1,1.2,0.3,1.7,0.7c0.5,0.3,0.8,0.8,1.2,1.2c0.2,0.2,0.4,0,0.3-0.2c-0.5-1.2-2-1.9-3.2-2.1
			C55.2,417.5,55.2,418,55.4,418L55.4,418z"/>
		<path class="st2" d="M56.8,417.4c0.8,0.3,1.5,0.7,2.1,1.3c0.5,0.5,0.9,1.1,1.3,1.7c0.1,0.1,0.2,0,0.2-0.1c-0.4-1.5-2.1-2.6-3.5-3
			C56.7,417.2,56.7,417.4,56.8,417.4z"/>
		<path class="st2" d="M49.6,415.8c2.7,0.5,4.8,1.5,7,3.1c0.1,0.1,0.2-0.1,0.1-0.2c-1.8-1.9-4.5-3-7.1-3.1
			C49.6,415.6,49.5,415.8,49.6,415.8z"/>
		<path class="st2" d="M50.1,413.2c2.4,1.8,5.2,3.6,8,4.8c0.2,0.1,0.2-0.2,0.1-0.3c-2.3-1.9-5.3-3.5-7.9-4.8
			C50.1,412.9,50,413.1,50.1,413.2L50.1,413.2z"/>
		<path class="st2" d="M52,412c1.2,0.6,2.3,1.3,3.4,2.2c1.2,0.9,2,2.1,3.1,3c0.1,0.1,0.3,0,0.2-0.2c-1.2-2.5-4.2-4.1-6.7-5.2
			C52,411.8,51.9,411.9,52,412L52,412z"/>
		<path class="st2" d="M56.4,412.6c0.4,0.5,0.9,0.9,1.4,1.4c0.1,0.1,0.3,0,0.2-0.2c-0.4-0.5-0.8-1-1.3-1.4
			C56.5,412.1,56.3,412.4,56.4,412.6L56.4,412.6z"/>
		<path class="st2" d="M50.2,425.7c-0.1-0.3-0.2-0.6-0.3-0.9c-0.2,0-0.4,0-0.5,0.1c1,1,1.8,2.1,2,3.5c0.2,1.3-0.2,2.4-0.4,3.7
			c0,0.2,0.2,0.3,0.4,0.2c2.2-2.1,0.6-6.6-1.6-8c-0.3-0.2-0.6,0.2-0.5,0.5c0.2,0.5,0.4,0.8,0.7,1.1
			C50.2,425.9,50.3,425.7,50.2,425.7z"/>
		<path class="st2" d="M51.2,424.8c0.1,2.1,0.4,4.2,0.4,6.3c-0.1,2.1-0.5,4.2-0.6,6.3c0,0.2,0.3,0.2,0.3,0.1
			c1.5-3.8,1.4-8.9,0.1-12.7C51.4,424.7,51.2,424.7,51.2,424.8z"/>
		<path class="st2" d="M52.7,424c-0.2,1.5-0.2,3-0.3,4.5c-0.1,0.8-0.1,1.5-0.2,2.3c-0.1,0.5-0.1,2.3-0.4,2.6c0.1-0.1,0-0.3-0.1-0.3
			c-0.1,0-0.1,0-0.2,0.1c-0.1,0-0.2,0.1-0.1,0.2c0,0.3,0,0.3,0.2,0.6c0.1,0.1,0.2,0.1,0.3,0.1c1.1-0.6,1-2.5,1.1-3.5
			c0.2-2.1,0.4-4.4-0.2-6.5C52.9,423.9,52.8,423.9,52.7,424L52.7,424z"/>
		<path class="st2" d="M53.8,426.3c-0.3,3.3-1,6.4-1.7,9.6c-0.1,0.5,0.6,0.7,0.7,0.2c0.3-1.7,0.8-3.5,1.5-5
			c-0.2-0.1-0.3-0.2-0.5-0.2c-0.5,2.2-1.4,4.1-2.4,6.1c-0.1,0.2,0.2,0.6,0.4,0.3c1.6-1.7,2.3-4,2.5-6.3c0-0.3-0.5-0.4-0.6-0.1
			c-0.3,1.7-1,3.4-1.7,4.9c0.2,0.1,0.5,0.2,0.7,0.3c1.1-3.1,1.5-6.5,1.7-9.8C54.6,425.8,53.8,425.8,53.8,426.3z"/>
		<path class="st2" d="M83.7,430.2c-2.6,0.5-6.1,2.9-6.9,5.6c-0.1,0.2,0.2,0.3,0.3,0.2c1-1,1.8-2.1,2.9-3c1.2-1,2.5-1.6,3.9-2.3
			C84.2,430.5,84,430.1,83.7,430.2L83.7,430.2z"/>
		<path class="st2" d="M81.6,430.9c-4.8,1.4-8.1,5.6-10.7,9.6c-3.4,5.2-6.2,10.6-11.3,14.5c-0.2,0.2,0,0.5,0.3,0.4
			c4.3-2.5,7-6.7,9.6-10.9c3.3-5.4,6.6-10.2,12.2-13.5C81.8,431,81.8,430.9,81.6,430.9L81.6,430.9z"/>
		<path class="st2" d="M78.8,433.1c-3.4,5-6.6,10.2-9.9,15.3c-3.3,5.1-7.1,9.9-10.1,15.2c-0.1,0.2,0.2,0.5,0.4,0.3
			c3.8-4.4,6.9-9.6,10.1-14.5C72.7,444.1,76,438.7,78.8,433.1C78.9,433.1,78.8,433,78.8,433.1z"/>
		<path class="st2" d="M75.4,434.7c-2.3,4.1-5.3,7.8-7.5,12c-0.1,0.1,0.1,0.3,0.2,0.2c3.3-3.3,5.5-7.9,7.5-12
			C75.6,434.7,75.5,434.6,75.4,434.7z"/>
		<path class="st2" d="M75.5,435.6c0,0.3,0,0.6,0,0.9c0,0,0.1,0,0.1,0C75.6,436.3,75.6,436,75.5,435.6
			C75.6,435.6,75.5,435.6,75.5,435.6L75.5,435.6z"/>
		<path class="st2" d="M75.5,436.5c-1,1.4-2,2.7-3,4.1c-0.9,1.2-1.9,2.4-2.5,3.7c-0.1,0.1,0.1,0.2,0.2,0.1c1.1-1,1.9-2.4,2.8-3.6
			c1-1.4,1.9-2.8,2.9-4.1C76.1,436.5,75.7,436.3,75.5,436.5L75.5,436.5z"/>
		<path class="st2" d="M75.2,438.2c-1.5,2-2.9,4-4.4,6.1c-1.2,1.8-2.7,3.5-3.6,5.5c-0.1,0.1,0.1,0.2,0.2,0.1
			c1.5-1.5,2.6-3.5,3.8-5.3c1.4-2.1,2.8-4.1,4-6.3C75.4,438.2,75.2,438,75.2,438.2L75.2,438.2z"/>
		<path class="st2" d="M71,443.9c-1.8,1.9-3.7,4.2-4.7,6.7c-0.1,0.3,0.3,0.4,0.4,0.2c1.4-2.3,2.7-4.6,4.5-6.7
			C71.5,444,71.2,443.7,71,443.9z"/>
		<path class="st2" d="M73.6,435c-4.9,5.9-7.9,13-11.3,19.9c-1.7,3.4-3.4,6.8-5.4,10c-0.9,1.4-1.9,2.8-2.9,4.2
			c-1.2,1.6-3.7,5.2-5.9,5.4c-0.3,0-0.4,0.5,0,0.6c2.8,0.3,5.1-3.6,6.6-5.5c2.6-3.4,4.7-7.2,6.6-11C65.2,450.6,68.6,442.4,73.6,435
			C73.7,435,73.6,434.9,73.6,435L73.6,435z"/>
		<path class="st2" d="M87.4,429.5c3,2.7,5.9,5.5,8.8,8.3c0.1,0.1,0.2,0,0.2-0.1c-2.4-3.2-5.5-6.1-8.8-8.3
			C87.4,429.3,87.3,429.4,87.4,429.5z"/>
		<path class="st2" d="M88.2,431.3c4.7,3.9,9.3,7.8,13.6,12.1c0.1,0.1,0.3,0,0.2-0.2c-3.8-4.6-8.5-9-13.7-12.1
			C88.2,431.1,88.1,431.3,88.2,431.3L88.2,431.3z"/>
		<path class="st2" d="M93.6,432.3c3.2,4.6,7.5,9.6,12.1,12.7c0.1,0.1,0.2-0.1,0.1-0.2c-2-2.1-4.3-4-6.3-6.1c-2-2.1-3.9-4.4-5.8-6.6
			C93.7,432.1,93.5,432.2,93.6,432.3L93.6,432.3z"/>
		<path class="st2" d="M95.4,433.7c3.2,3.5,6.5,7.1,10.1,10.1c0.1,0.1,0.2,0,0.2-0.1C102.6,440.1,99,436.8,95.4,433.7
			C95.4,433.6,95.3,433.7,95.4,433.7z"/>
		<path class="st2" d="M97.7,434.6c2.6,3.1,5.6,6.3,8.7,8.9c0.1,0.1,0.2,0,0.1-0.1c-2.6-3.2-5.6-6.2-8.7-8.9
			C97.7,434.4,97.6,434.5,97.7,434.6L97.7,434.6z"/>
		<path class="st2" d="M99.4,434.9c2.6,2.2,4.5,4.7,6.6,7.3c0.1,0.1,0.2,0,0.1-0.1c-1.5-2.9-4.2-5.3-6.7-7.4
			C99.4,434.6,99.3,434.8,99.4,434.9L99.4,434.9z"/>
		<path class="st2" d="M101.5,436.3c1.4,1.6,2.8,3.2,4.4,4.6c0.1,0.1,0.3,0,0.2-0.2c-1.3-1.7-2.9-3.2-4.3-4.7
			C101.7,435.8,101.4,436.1,101.5,436.3L101.5,436.3z"/>
		<path class="st2" d="M89.8,429.8c1.4,0.9,2.7,1.9,4,3c1,0.9,1.8,2.1,2.9,2.9c0.1,0.1,0.3-0.1,0.2-0.2
			C95.6,432.8,92.3,430.8,89.8,429.8C89.8,429.7,89.7,429.8,89.8,429.8L89.8,429.8z"/>
		<path class="st2" d="M88,428.4c3.6,2,6.5,4.4,9.5,7.3c0.1,0.1,0.3,0,0.2-0.2c-2.3-3.3-6-5.9-9.7-7.3
			C87.9,428.2,87.9,428.3,88,428.4L88,428.4z"/>
		<path class="st2" d="M68.7,383.7c1,1.4,2.5,2.6,3.9,3.7c1.4,1.1,2.8,2.3,4.5,3c0.1,0,0.2-0.1,0.1-0.2c-1.2-1.1-2.7-2-4.1-3
			c-1.5-1.1-2.8-2.5-4.3-3.6C68.8,383.5,68.7,383.6,68.7,383.7L68.7,383.7z"/>
		<path class="st2" d="M69.8,383.1c2.1,2.7,5,5.7,8.1,6.9c0.1,0,0.2-0.1,0.1-0.2c-1.3-1.1-2.8-2-4.1-3
			C72.5,385.7,71.2,384.4,69.8,383.1C69.8,383,69.7,383.1,69.8,383.1z"/>
		<path class="st2" d="M69.4,382.2c0.7,1.4,2.1,2.5,3.3,3.5c1.3,1.1,2.8,2.2,4.4,2.9c0.2,0.1,0.2-0.2,0.1-0.3
			c-1.4-1.1-2.9-2-4.2-3.1c-1.2-1-2.2-2.3-3.5-3.2C69.5,382,69.4,382.1,69.4,382.2z"/>
		<path class="st2" d="M72.2,384.8c3.9,4.5,11.6,6.7,17,3.5c0.2-0.1,0.1-0.4-0.1-0.4c-6.3,1.8-11.8,1.4-16.7-3.3
			C72.2,384.6,72.1,384.7,72.2,384.8L72.2,384.8z"/>
		<path class="st2" d="M81.1,417.2c-2.3,1.5-4.5,3.3-6.6,5.1c-0.1,0.1,0,0.2,0.1,0.1c2.3-1.5,4.6-3.2,6.5-5.2
			C81.2,417.3,81.1,417.2,81.1,417.2L81.1,417.2z"/>
		<path class="st2" d="M81,419.6c-0.8,0.4-1.6,0.9-2.3,1.5c-0.7,0.6-1.5,1.2-1.9,2c0,0.1,0,0.2,0.1,0.1c0.7-0.5,1.2-1.1,1.8-1.7
			c0.8-0.6,1.6-1.2,2.4-1.8C81.2,419.6,81.1,419.5,81,419.6L81,419.6z"/>
		<path class="st2" d="M81.9,420.9c-1.9,0.7-3.7,1.7-4.8,3.4c-0.1,0.1,0.1,0.2,0.2,0.1c1.4-1.4,2.8-2.6,4.7-3.4
			C82.1,421.1,82,420.9,81.9,420.9L81.9,420.9z"/>
		<path class="st2" d="M82.2,421.7c-1.2,0.6-2.5,1.6-3.2,2.7c0,0.1,0.1,0.2,0.1,0.1c0.5-0.4,1-0.9,1.5-1.3c0.5-0.5,1.1-0.9,1.7-1.3
			C82.5,421.9,82.4,421.6,82.2,421.7z"/>
		<path class="st2" d="M81.8,423.2c-0.3,0.3-0.6,0.6-0.9,0.9c-0.1,0.1,0,0.2,0.1,0.1c0.3-0.3,0.6-0.6,1-0.8
			C82.1,423.2,81.9,423.1,81.8,423.2z"/>
		<path class="st2" d="M76.3,424.8c-2.3,1.8-4.6,4.3-5.7,7.1c-0.1,0.1,0.1,0.2,0.2,0.1C72.6,429.4,74.1,427,76.3,424.8
			C76.4,424.8,76.3,424.7,76.3,424.8z"/>
		<path class="st2" d="M75.7,426.9c-1.1,0.8-2,1.8-2.8,2.8c-0.8,1-1.7,2.2-1.9,3.5c0,0.2,0.2,0.2,0.3,0.1c0.8-0.9,1.2-2.1,1.9-3.1
			c0.8-1.1,1.7-2.1,2.6-3.2C75.8,426.9,75.8,426.9,75.7,426.9z"/>
		<path class="st2" d="M77.5,427c-1.9,2.2-3.9,4.3-5.7,6.6c-0.1,0.2,0.1,0.4,0.3,0.2c2-2.1,3.8-4.4,5.6-6.6
			C77.9,427.1,77.7,426.8,77.5,427L77.5,427z"/>
		<path class="st2" d="M78.1,428.5c-1.2,1-2.3,2.1-3.3,3.3c-0.8,1-1.8,2-2.2,3.2c-0.1,0.2,0.2,0.4,0.3,0.2c0.9-0.8,1.5-2,2.3-3
			c1-1.2,2-2.3,3-3.4C78.4,428.6,78.2,428.4,78.1,428.5L78.1,428.5z"/>
		<path class="st2" d="M78.3,429.8c-1.5,1.9-2.9,3.8-4.2,5.7c-0.1,0.1,0.1,0.3,0.2,0.2c1.5-1.8,3-3.7,4.4-5.7
			C78.8,429.8,78.5,429.5,78.3,429.8L78.3,429.8z"/>
		<path class="st2" d="M72.1,430.5c-3,5.5-5.6,11.4-7.9,17.3c-0.1,0.1,0.2,0.2,0.2,0.1c2.9-5.6,5.6-11.4,7.8-17.4
			C72.2,430.5,72.1,430.5,72.1,430.5z"/>
		<path class="st2" d="M68.1,439.8c-2.8,5.9-5.6,11.8-8.3,17.7c-1.4,3.1-2.6,6.3-4.7,9c-2.3,3-5.6,4.9-8.6,6.9
			c-0.2,0.1,0,0.4,0.2,0.3c5.5-2.8,9.4-6.2,12-11.9c3.4-7.3,6.5-14.6,9.6-22C68.3,439.7,68.1,439.7,68.1,439.8z"/>
		<path class="st2" d="M82.8,420.5c2.9,0.8,5.4,2.3,7.4,4.5c0.1,0.1,0.2,0,0.1-0.1c-1.8-2.4-4.5-4.1-7.5-4.5
			C82.8,420.4,82.8,420.5,82.8,420.5z"/>
		<path class="st2" d="M91.6,426.3c3.4,3.1,6.8,6.2,10.5,9c0.1,0.1,0.2-0.1,0.1-0.1C98.8,432.1,95.3,429.1,91.6,426.3
			C91.7,426.2,91.6,426.3,91.6,426.3L91.6,426.3z"/>
		<path class="st2" d="M86.4,422.9c0.9,2,1.7,4.1,2.9,6c0.1,0.1,0.2,0,0.2-0.1C88.7,426.8,87.5,424.9,86.4,422.9
			C86.4,422.9,86.4,422.9,86.4,422.9z"/>
		<path class="st2" d="M88.6,423.5c0.8,1.3,1.6,2.6,2.4,3.9c0.8,1.3,1.4,2.7,2.2,4c0.1,0.1,0.2,0,0.2-0.1c-0.9-2.8-2.7-5.7-4.6-7.9
			C88.6,423.4,88.5,423.5,88.6,423.5z"/>
		<path class="st2" d="M92.5,426.4c0.7,1.1,1.4,2.2,1.9,3.3c0.5,1.2,0.9,2.4,1.4,3.6c0.1,0.1,0.2,0,0.2-0.1
			c-0.4-2.5-1.9-4.9-3.3-6.9C92.6,426.1,92.4,426.2,92.5,426.4z"/>
		<path class="st2" d="M96,429.6c1.4,2.3,2.6,4.8,4.3,7c0.1,0.1,0.3,0,0.2-0.2c-1.2-2.4-2.8-4.7-4.2-6.9
			C96.2,429.3,95.9,429.5,96,429.6z"/>
		<path class="st2" d="M100.5,434.2c6.5,8.2,14.8,14.9,24.3,19.3c0.1,0,0.1-0.1,0-0.1c-9.3-5-17.3-11.4-24.2-19.4
			C100.5,434,100.4,434.1,100.5,434.2z"/>
		<path class="st2" d="M106.7,445c4.3,3.1,8.6,6.4,13.2,9c0.1,0.1,0.2-0.1,0.1-0.1c-4.2-3.3-8.8-6.1-13.2-9.1
			C106.7,444.8,106.6,444.9,106.7,445z"/>
		<path class="st2" d="M110.7,449.1c3.7,2.8,7.6,5.4,11.9,7.2c0.1,0.1,0.2-0.1,0.1-0.2C118.6,453.8,114.5,451.7,110.7,449.1
			C110.7,449,110.7,449,110.7,449.1L110.7,449.1z"/>
		<path class="st2" d="M119.1,453.4c1,0.3,1.8,0.9,2.6,1.5c0,0,0.1,0,0.1-0.1c-0.6-0.8-1.7-1.3-2.6-1.6
			C119,453.3,119,453.4,119.1,453.4z"/>
		<path class="st2" d="M102,400.9c-3,1.9-6.4,4.4-6.9,8.2c-0.3,2.3,0.4,5,2.7,5.9c0.1,0,0.2-0.1,0.1-0.2c-2.3-2-3.1-4.7-1.8-7.6
			C97.4,404.5,99.9,402.8,102,400.9C102.2,400.9,102.1,400.8,102,400.9L102,400.9z"/>
		<path class="st2" d="M100.9,401.7c4.1-3.9,8.6-6.7,13.5-9.4c4.2-2.3,8.8-4.7,12-8.3c0.2-0.2-0.1-0.4-0.2-0.3
			c-4.4,3.5-8.9,6.4-13.8,9.1c-4.2,2.4-8.5,4.9-11.7,8.7C100.5,401.6,100.7,401.8,100.9,401.7z"/>
		<path class="st2" d="M127.1,381.6c-1.3,1.4-2.7,2.7-4.1,4c-1.4,1.3-3,2.3-4.4,3.7c-0.1,0.1,0,0.3,0.2,0.2c3.4-1.7,6.2-4.9,8.5-7.8
			C127.2,381.6,127.1,381.5,127.1,381.6z"/>
		<path class="st2" d="M126.2,379.8c-2.1,2.9-4.3,5.5-6.9,7.9c-2.4,2.2-5.1,3.9-7.7,5.9c-0.1,0.1,0,0.3,0.2,0.2
			C117.8,391.1,123,385.3,126.2,379.8C126.3,379.8,126.3,379.7,126.2,379.8L126.2,379.8z"/>
		<path class="st2" d="M96.7,399.5c-2.1,2-3.9,4.5-4.6,7.4c0,0.1,0.1,0.2,0.1,0.1c1.3-2.7,2.5-5.1,4.5-7.4
			C96.9,399.5,96.8,399.4,96.7,399.5L96.7,399.5z"/>
		<path class="st2" d="M97.8,400.7c-2.2,2.1-4.1,4.7-5.1,7.6c-0.1,0.2,0.2,0.3,0.3,0.1c1.4-2.8,2.9-5.4,4.9-7.6
			C98,400.7,97.9,400.6,97.8,400.7z"/>
		<path class="st2" d="M97.3,402.5c-1.3,1.9-2.9,3.7-3.8,5.8c-0.1,0.2,0.2,0.3,0.3,0.2c1.6-1.6,2.7-3.8,3.9-5.7
			C97.8,402.5,97.4,402.3,97.3,402.5L97.3,402.5z"/>
		<path class="st2" d="M98.5,402.5c-1.3,1.7-2.7,3.4-3.8,5.3c-0.1,0.3,0.2,0.6,0.4,0.4c1.5-1.6,2.6-3.5,3.9-5.3
			C99.3,402.5,98.8,402.1,98.5,402.5L98.5,402.5z"/>
		<path class="st2" d="M103.4,397.2c-2.7,0.7-5.9,2.7-7.1,5.3c-0.1,0.1,0.1,0.3,0.2,0.2c1-1,1.9-2.1,3-3c1.2-1,2.6-1.6,3.9-2.3
			C103.6,397.3,103.6,397.1,103.4,397.2L103.4,397.2z"/>
		<path class="st2" d="M102.7,397.5c-2,1.6-4.1,3.1-5.8,5c-0.1,0.2,0,0.5,0.2,0.3c2.1-1.4,4-3.2,6-4.9
			C103.4,397.7,103,397.3,102.7,397.5z"/>
		<path class="st2" d="M108.9,395.2c-1.9,1.1-3.7,2.4-5.5,3.6c-1.6,1.1-3.5,2.1-4.8,3.5c-0.2,0.2,0,0.5,0.3,0.4
			c2-0.9,3.8-2.5,5.5-3.7c1.6-1.1,3.2-2.3,4.8-3.5C109.2,395.4,109.1,395.2,108.9,395.2L108.9,395.2z"/>
		<path class="st2" d="M107.5,396c-3.2,1.6-6.9,4-8.9,7c-0.2,0.3,0.2,0.5,0.4,0.3c1.4-1.1,2.5-2.5,3.9-3.7c1.5-1.2,3.1-2.4,4.8-3.4
			C107.8,396.2,107.7,395.9,107.5,396z"/>
		<path class="st2" d="M116.4,388.8c-5.6,3-11.2,6.3-16.7,9.6c-0.3,0.2-0.1,0.6,0.2,0.4c5.7-2.7,11.5-6,16.6-9.7
			C116.7,389,116.6,388.7,116.4,388.8z"/>
		<path class="st2" d="M121,385.7c-2.4,1.7-4.6,3.6-7,5.3c0.2,0.2,0.3,0.4,0.5,0.6c0.4-0.5,0.7-0.9,1.1-1.4c0.1-0.1-0.1-0.2-0.1-0.2
			c-0.5,0.3-1,0.6-1.4,1c-0.4,0.3-0.1,1,0.4,0.7c2.5-1.6,5-3.5,6.9-5.8C121.3,385.8,121.1,385.6,121,385.7L121,385.7z"/>
	</g>
</g>
<circle class="st2" cx="543.5" cy="284.3" r="3.5"/>
<path class="st2" d="M544.4,320.5c-0.9-0.6-1.4-1.2-1.6-1.7c-0.1-0.6,0.1-1,0.6-1.4c0.1-0.1,0.4-0.1,0.7,0c0.4,0.1,0.7,0.2,0.8,0.4
	c0.4,0.4,0.9,0.6,1.4,0.7c0.5,0.1,1.2,0.1,2-0.2c0.9-0.3,1.5-0.6,2-1c0.5-0.4,1-1,1.6-1.7c0.4-0.6,0.7-1.1,0.9-1.6
	c0.2-0.5,0.3-1,0.2-1.5c0-0.5-0.1-0.8-0.3-1c-0.5-0.7-1.2-1.2-1.9-1.5c-0.8-0.3-1.8-0.3-3,0.1c-0.1,0-0.4,0.1-0.7,0.1
	c-0.3,0.1-0.5,0.1-0.8,0.2c-0.2,0-0.4,0.1-0.4,0.1c-0.1,0-0.3,0.1-0.3,0.1c-0.1,0-0.2,0.1-0.3,0.3c-0.1,0.2-0.3,0.6-0.5,1.2
	c-0.2,0.6-0.6,1.5-1,2.8c-0.4,1.3-0.8,2.2-1.1,2.7c-0.3,0.5-0.5,0.8-0.8,0.7c-0.2-0.1-0.5-0.3-0.8-0.7c-0.2-0.3-0.4-0.6-0.6-1
	c-0.2-0.4-0.2-0.7,0-1.1c0.1-0.2,0.2-0.4,0.2-0.5c0.1-0.2,0.1-0.4,0.2-0.8c0.1-0.3,0.3-0.8,0.6-1.6c0.3-0.8,0.7-1.7,1.1-2.7
	c0.4-1.1,0.8-2.1,1.3-3.3s0.9-2.2,1.3-3.2c0.4-1,0.8-1.8,1.1-2.5c0.3-0.6,0.5-1.1,0.5-1.4s0-0.4-0.1-0.5c0-0.1,0-0.2-0.1-0.3
	c-0.1-0.1-0.1-0.2-0.1-0.3c0-0.1,0.2-0.2,0.5-0.3c0.4-0.1,0.8-0.3,1.2-0.4s0.7-0.2,0.9-0.1c0.1,0,0.2,0,0.4,0c0.1,0,0.2-0.1,0.2-0.2
	c0.1,0,0.3,0,0.6-0.1c0.3,0,0.7,0,1.1,0c1.4,0.1,2.5,0.5,3.4,1.2c0.9,0.7,1.3,1.7,1.3,3.2c0,0.4-0.2,0.8-0.4,1.4
	c-0.3,0.6-0.6,1.1-1,1.7c-0.4,0.6-0.8,1-1.3,1.5c-0.3,0.2-0.6,0.5-0.9,0.7c-0.3,0.2-0.5,0.4-0.8,0.6c-0.2,0.1-0.3,0.2-0.3,0.2
	s0.1,0,0.2,0.1c0.2,0.1,0.3,0.1,0.5,0.2c1,0.4,1.7,0.8,2.2,1.3c0.6,0.5,1,1.3,1.2,2.2c0.1,0.3,0.1,0.7,0,1.1
	c-0.1,0.5-0.2,0.9-0.3,1.4c-0.1,0.4-0.3,0.8-0.4,1.1c-0.1,0.1-0.3,0.3-0.3,0.5c-0.1,0.1-0.1,0.2-0.1,0.2c0,0-0.1,0.2-0.2,0.5
	c-0.2,0.3-0.4,0.6-0.6,0.9c-0.2,0.3-0.4,0.6-0.7,0.9c-0.2,0.2-0.5,0.4-0.9,0.7c-0.4,0.3-0.8,0.6-1.2,0.9c-0.4,0.3-0.8,0.5-1.2,0.7
	c-0.6,0.2-1.2,0.4-2,0.5c-0.7,0.1-1.4,0.1-2,0C545.3,320.9,544.8,320.7,544.4,320.5z M546.7,307.6c0,0,0.2,0,0.5-0.1
	c0.4-0.1,0.7-0.2,1.1-0.2c0.4-0.1,0.7-0.2,0.9-0.3c0.1-0.1,0.2-0.1,0.4-0.2c0.2-0.1,0.4-0.3,0.6-0.5c0.3-0.3,0.6-0.6,0.9-0.9
	c0.3-0.4,0.7-0.7,1-1.1c0.3-0.4,0.6-0.8,0.8-1.3c0.5-0.7,0.7-1.3,0.8-1.6s-0.1-0.6-0.3-0.9c-0.2-0.2-0.4-0.4-0.8-0.5
	c-0.3-0.1-0.7-0.2-1.1-0.2c-0.4,0-0.7,0-1.1,0.1c-0.3,0.1-0.5,0.2-0.6,0.3c-0.1,0.1-0.2,0.3-0.2,0.5c0,0.2-0.1,0.4-0.2,0.6
	c-0.1,0.2-0.2,0.3-0.3,0.4c0,0.1-0.1,0.3-0.2,0.4c-0.1,0.1-0.2,0.2-0.2,0.2c0,0.1-0.1,0.3-0.4,0.8c-0.2,0.4-0.5,1-0.8,1.8
	c-0.4,0.9-0.6,1.5-0.7,1.9C546.7,307.3,546.7,307.5,546.7,307.6z M563.4,317.6c-0.6,0.4-1.3,0.6-2,0.6c-0.7,0-1.3-0.1-1.9-0.3
	c-0.6-0.2-1.1-0.6-1.5-1.1c-0.2-0.3-0.4-0.7-0.6-1.3c-0.2-0.6-0.2-1.4-0.1-2.4c0.1-1,0.4-1.9,0.9-2.9c0.5-1,1.1-1.8,1.7-2.6
	c0.7-0.7,1.4-1.3,2.2-1.5c0.3-0.1,0.6-0.2,0.9-0.2c0.3-0.1,0.7-0.1,1.2,0c0.5,0.1,0.9,0.2,1.3,0.4c0.4,0.2,0.6,0.4,0.8,0.6
	c0.3,0.3,0.5,0.7,0.7,1c0.1,0.3,0.1,0.6,0.1,0.9c-0.1,0.7-0.4,1.4-0.9,2.1c-0.5,0.8-1.1,1.3-2,1.7c-0.4,0.1-0.8,0.2-1.2,0.3
	c-0.5,0-1.1,0-2-0.2c-0.5-0.1-0.8-0.1-1,0.2c-0.1,0.2-0.2,0.6-0.2,1.2c0,0.4,0.1,0.7,0.2,1c0.1,0.3,0.4,0.5,0.8,0.6
	c0.5,0.1,0.8,0.1,1,0c0.2-0.1,0.5-0.2,0.8-0.3c0.2-0.1,0.3-0.2,0.5-0.3c0.2-0.1,0.3-0.2,0.5-0.4c0.2-0.1,0.3-0.2,0.4-0.3
	c0.1-0.1,0.2-0.1,0.3-0.2c0.1,0,0.2,0,0.3,0c0.2,0,0.4,0.1,0.7,0.4c0.2,0.2,0.3,0.4,0.4,0.7c0,0.2-0.1,0.4-0.3,0.7
	c-0.2,0.3-0.5,0.6-0.8,0.9C564.2,317.1,563.9,317.4,563.4,317.6z M563,310.7c0.1-0.1,0.4-0.2,0.6-0.4c0.3-0.2,0.5-0.5,0.8-0.7
	c0.2-0.3,0.3-0.5,0.3-0.6c0-0.2-0.2-0.4-0.5-0.6c-0.3-0.2-0.7-0.2-1.1-0.1c-0.2,0-0.4,0.2-0.6,0.3c-0.2,0.2-0.5,0.4-0.7,0.7
	c-0.2,0.2-0.4,0.5-0.6,0.7c-0.2,0.2-0.3,0.4-0.3,0.5c0.1,0.1,0.2,0.2,0.5,0.2c0.2,0.1,0.5,0.1,0.8,0.1
	C562.6,310.8,562.8,310.8,563,310.7z M569.4,318.6c-0.4,0.1-0.7,0-1.1-0.3c-0.3-0.3-0.5-0.8-0.7-1.4c-0.1-0.6-0.1-1.3,0.1-2.1
	c0.1-0.2,0.2-0.5,0.2-0.7c0.1-0.2,0.1-0.4,0.1-0.6c0-0.2,0.1-0.5,0.2-0.9c0.1-0.4,0.3-0.8,0.4-1.3c0.1-0.4,0.3-0.8,0.4-1.1
	c0.1-0.4,0.2-0.6,0.3-0.7c0.1,0,0.2-0.1,0.2-0.2c0.1-0.1,0.1-0.3,0.1-0.4c0-0.2,0-0.4,0.1-0.6c0.1-0.2,0.2-0.4,0.2-0.4
	c0-0.1,0-0.2,0.1-0.3c0.1-0.1,0.1-0.3,0.1-0.3c0-0.1,0-0.2,0.1-0.2c0.1-0.1,0.1-0.2,0.1-0.2c0.1-0.3,0.3-0.7,0.6-1.3
	c0.2-0.6,0.5-1.3,0.8-2c0.3-0.7,0.6-1.4,0.8-2.1s0.4-1.3,0.6-1.8c0.2-0.5,0.2-0.8,0.2-0.9c0-0.2,0.1-0.3,0.2-0.5
	c0.1-0.1,0.3-0.2,0.4-0.2c0.1-0.1,0.2-0.1,0.4-0.1c0.2,0,0.4-0.1,0.5-0.1c0,0,0,0,0.1,0.1c0.1,0.1,0.2,0.2,0.4,0.4
	c0.2,0.1,0.3,0.3,0.5,0.5c0.2,0.2,0.2,0.4,0.2,0.7c0,0.3,0,0.5-0.1,0.8c-0.1,0.2-0.2,0.6-0.4,1c-0.2,0.4-0.5,1-0.9,1.9
	c-0.2,0.4-0.3,0.8-0.5,1.2c-0.2,0.4-0.3,0.6-0.3,0.7s0,0.2-0.1,0.4c-0.1,0.2-0.1,0.4-0.2,0.6c-0.1,0.2-0.2,0.4-0.3,0.7
	c-0.1,0.3-0.3,0.7-0.5,1c-0.1,0.4-0.3,0.7-0.4,0.9c-0.1,0.2-0.2,0.4-0.2,0.4c0,0.1,0,0.2,0,0.2c0,0.1,0,0.2-0.1,0.2
	c-0.1,0-0.1,0.1-0.2,0.2c0,0.1,0,0.2,0,0.2c0,0.2-0.2,0.8-0.5,1.6c-0.3,1.1-0.6,2.2-0.9,3.1c-0.3,1-0.4,1.7-0.4,2.3
	c0,0.5-0.1,0.9-0.2,1.1C569.7,318.3,569.6,318.5,569.4,318.6z M576.8,318.8c-1.1,0-2-0.3-2.6-1c-0.6-0.7-0.9-1.7-0.9-3
	c0-0.7,0.1-1.6,0.4-2.4c0.3-0.9,0.7-1.8,1.1-2.6c0.5-0.8,1-1.6,1.5-2.2c0.6-0.6,1.1-1.1,1.7-1.3c0.2-0.1,0.4-0.2,0.7-0.2
	c0.2-0.1,0.5-0.1,0.7-0.1c0.2,0,0.5,0,0.8,0.1c0.3,0,0.6,0.1,0.9,0.2c0.5,0.1,0.9,0.4,1.2,0.8c0.4,0.4,0.6,1,0.6,1.8
	c0,0.2,0,0.4-0.1,0.7c0,0.2-0.1,0.5-0.2,0.7c-0.3,0.7-0.7,1.3-1.2,2c-0.5,0.6-1.1,1.1-1.7,1.3c-0.2,0.1-0.3,0.1-0.5,0.2
	c-0.1,0-0.3,0-0.5,0c-0.4,0-0.8-0.1-1.2-0.2c-0.3-0.1-0.6-0.3-0.9-0.5l-0.2-0.2l-0.2,0.3c-0.1,0.4-0.2,0.7-0.3,1
	c0,0.3-0.1,0.5-0.1,0.6c0,0.2,0,0.5,0,0.8c0,0.2,0.1,0.5,0.2,0.6c0.1,0.1,0.2,0.2,0.3,0.2c0.1,0.1,0.3,0.1,0.5,0.1
	c0.1,0,0.2,0,0.3,0c0.1,0,0.2,0,0.3-0.1c0.4-0.1,0.7-0.2,0.9-0.4c0.2-0.2,0.5-0.4,0.8-0.5l0.1-0.1l0-0.1c0.4-0.2,0.6-0.3,0.7-0.3
	c0.1-0.1,0.2-0.1,0.3-0.2c0.1-0.1,0.2-0.1,0.3-0.1c0.3,0,0.6,0,0.8,0.2c0.3,0.2,0.4,0.4,0.4,0.7c0,0.1-0.1,0.3-0.3,0.6
	c-0.2,0.3-0.4,0.5-0.7,0.8c-0.2,0.2-0.5,0.4-0.8,0.6c-0.1,0-0.1,0.1-0.2,0.1c-0.1,0-0.1,0.1-0.2,0.1h0c-0.2,0.2-0.4,0.4-0.6,0.4
	h-0.2c-0.1,0.1-0.4,0.3-0.8,0.5C577.6,318.7,577.2,318.8,576.8,318.8z M578.4,311.3c0.2,0,0.4,0,0.5-0.1c0.2-0.1,0.3-0.1,0.5-0.2
	c0.5-0.4,0.8-0.8,1-1.4c0.1-0.6,0.1-1-0.2-1.3c0-0.1-0.1-0.1-0.2-0.1c-0.1,0-0.1-0.1-0.2-0.1c-0.2,0-0.5,0.1-0.8,0.2
	c-0.3,0.1-0.5,0.4-0.8,0.6c-0.3,0.3-0.5,0.6-0.7,1l-0.4,0.7c0,0,0.1,0,0.1,0c0,0,0.1,0,0.1,0c0.2,0,0.3,0.1,0.4,0.2s0.1,0.2,0.2,0.4
	C577.9,311.3,578.1,311.3,578.4,311.3z M584.8,318c-0.3-0.1-0.6-0.3-0.8-0.5c-0.2-0.2-0.3-0.6-0.3-1.1c0-0.3,0.1-0.6,0.2-1
	c0.1-0.4,0.2-0.7,0.3-1c0.1-0.4,0.1-0.7,0.2-1.1c0.1-0.4,0.3-0.7,0.5-1.1c0.3-0.8,0.5-1.5,0.8-2.3c0.3-0.8,0.5-1.6,0.7-2.4
	c0.3-0.7,0.6-1.4,0.8-2c0.3-0.6,0.6-1.3,1-2.2c0.2-0.5,0.4-1,0.5-1.6c0.2-0.6,0.4-1.1,0.7-1.6c0.1-0.2,0.2-0.3,0.3-0.5
	c0.1-0.1,0.2-0.3,0.2-0.4c0.1-0.3,0.4-0.4,0.7-0.4c0.3,0,0.5,0.1,0.6,0.2c0.4,0.1,0.6,0.4,0.7,0.8c0.1,0.4,0.2,0.6,0.2,0.8
	c0,0.2-0.1,0.5-0.2,0.7c-0.1,0.1-0.2,0.2-0.2,0.4c-0.1,0.1-0.2,0.3-0.4,0.6c-0.1,0.3-0.2,0.5-0.2,0.8s-0.2,0.5-0.3,0.7
	c-0.1,0.2-0.2,0.5-0.3,0.7c-0.1,0.2-0.2,0.4-0.2,0.6c-0.2,0.5-0.4,0.9-0.6,1.4c-0.2,0.4-0.4,0.9-0.6,1.4c-0.2,0.5-0.3,1-0.5,1.5
	c-0.2,0.5-0.4,1-0.7,1.5c-0.1,0.2-0.2,0.5-0.2,0.8c0,0.4,0,0.7-0.1,1c-0.1,0.4-0.3,0.7-0.4,1c-0.1,0.3-0.2,0.5-0.2,0.6
	c-0.1,0.5-0.3,0.9-0.3,1.4c-0.1,0.4-0.2,0.8-0.4,1.1c0,0.5-0.1,0.8-0.4,0.9C585.5,318.2,585.2,318.2,584.8,318z M591.9,318.3
	c-0.3,0-0.6-0.1-0.7-0.2c-0.2-0.1-0.5-0.3-0.9-0.7c-0.2-0.2-0.6-0.6-0.9-1.1c-0.4-0.5-0.7-1.1-1.1-1.6c-0.4-0.6-0.7-1.1-1-1.5
	l1.7-2.2c0.3,0.3,0.5,0.6,0.7,0.9c0.2,0.3,0.3,0.5,0.4,0.6c0.5,0.7,0.8,1.3,1.1,1.7c0.3,0.4,0.5,0.8,0.7,1.1
	c0.2,0.3,0.4,0.5,0.7,0.7c0.2,0.2,0.6,0.4,1,0.7c0.1,0,0.1,0.1,0.2,0.3c0.1,0.1,0.1,0.3,0.1,0.5c0,0.2-0.2,0.5-0.5,0.6
	C592.9,318.2,592.5,318.3,591.9,318.3z M587.4,312.6c-0.1-0.4-0.2-0.7-0.1-1.2c0.1-0.5,0.3-0.8,0.5-0.9c0.1-0.1,0.2-0.2,0.2-0.3
	c0.1-0.1,0.2-0.1,0.2-0.2c0-0.1,0.1-0.2,0.3-0.3c0.2-0.1,0.4-0.3,0.5-0.4c0.3-0.2,0.7-0.5,1.1-0.7c0.4-0.3,0.8-0.6,1.2-0.9
	c0.4-0.3,0.7-0.6,1-0.8c0.3-0.2,0.4-0.4,0.5-0.4c0.1-0.1,0.2-0.1,0.4-0.2c0.2,0,0.4,0,0.6,0.1c0.2,0.1,0.4,0.2,0.6,0.4
	c0.2,0.2,0.2,0.5,0.2,0.9c0.1,0.2-0.1,0.5-0.4,0.8c-0.3,0.3-0.7,0.6-1.2,0.9c-0.2,0.1-0.4,0.3-0.7,0.5c-0.3,0.2-0.5,0.4-0.7,0.6
	c-0.1,0.1-0.4,0.2-0.7,0.4c-0.3,0.2-0.5,0.4-0.7,0.6c-0.2,0.1-0.4,0.3-0.6,0.6c-0.2,0.2-0.4,0.4-0.7,0.6c-0.7,0.6-1.1,0.9-1.2,0.9
	C587.6,313.4,587.5,313.1,587.4,312.6z M610.9,319.1c-0.7,0.2-1.4,0.3-2.2,0.4c-0.8,0.1-1.6,0-2.5-0.2c-0.9-0.2-1.7-0.5-2.6-0.9
	c0-0.2-0.1-0.4-0.3-0.6c-0.1-0.2-0.3-0.3-0.5-0.3c-0.1,0-0.2-0.1-0.3-0.3c-0.1-0.2-0.2-0.3-0.3-0.4c-0.1-0.2-0.1-0.5-0.1-0.6
	c0-0.2,0-0.4,0.1-0.7c0-0.3,0.1-0.7,0.2-1.2c0.1-0.3,0.2-0.7,0.4-1.2c0.2-0.6,0.4-1.2,0.7-1.8c0.3-0.7,0.5-1.3,0.8-2
	c0.7-1.9,1.3-3.3,1.7-4.4c0.4-1.1,0.7-1.8,0.9-2.4c0.2-0.5,0.2-0.9,0.2-1.1s-0.1-0.5-0.2-0.7c-0.1-0.4-0.1-0.7,0-1.1
	c0.1-0.3,0.4-0.5,0.8-0.7c0.4-0.2,0.9-0.4,1.4-0.7c0.5-0.2,1.1-0.4,1.6-0.6c0.5-0.2,1-0.3,1.3-0.3c0.3,0,0.7,0,1.1,0
	c0.5,0,0.9,0.1,1.4,0.2c0.5,0.1,0.9,0.2,1.2,0.4c0.3,0.1,0.5,0.3,0.6,0.4c0,0,0,0,0.1,0c0.1,0,0.1,0,0.1,0s0,0,0.1,0
	c0.1,0,0.2,0.1,0.4,0.3c0.2,0.2,0.4,0.5,0.6,1c0.2,0.5,0.2,0.9,0.1,1.2c0,0.1,0,0.2,0.1,0.4c0.1,0.2,0.1,0.4,0.2,0.6
	c0.1,0.6,0,1.2-0.2,1.9c-0.2,0.7-0.7,1.4-1.4,2.2c-0.2,0.3-0.5,0.6-0.7,0.8c-0.2,0.3-0.3,0.4-0.4,0.4c-0.2,0.2-0.4,0.4-0.5,0.6
	c-0.1,0.2-0.1,0.3,0.1,0.4c0,0,0.1,0.1,0.2,0.3c0.1,0.2,0.3,0.5,0.6,0.7c0.4,0.6,0.6,1.3,0.7,2.1c0.1,0.8,0.1,1.6-0.2,2.3
	c-0.1,0.5-0.5,1.1-1.1,1.8c-0.6,0.7-1.2,1.4-2,2C612.6,318.2,611.8,318.8,610.9,319.1z M607.7,316.6c0.7,0.1,1.4,0.1,2,0
	c0.6-0.1,1.2-0.4,1.8-0.8c0.6-0.4,1.1-1,1.5-1.7c0.6-0.7,0.9-1.3,0.8-1.8c0-0.5-0.2-1-0.5-1.5c-0.3-0.5-0.6-0.8-0.9-0.9
	c-0.3-0.1-0.6-0.1-0.9-0.1c-0.3,0.1-0.7,0.2-1.2,0.3c-0.4,0.1-0.8,0.2-1.3,0.3c-0.5,0.2-0.9,0.3-1.3,0.5c-0.4,0.1-0.7,0.2-0.8,0.2
	c0,0-0.1,0.1-0.2,0.2c-0.1,0.1-0.2,0.3-0.4,0.4c-0.1,0.1-0.2,0.2-0.2,0.3c-0.1,0-0.2,0.2-0.3,0.3c-0.1,0.2-0.2,0.4-0.2,0.6
	c0,0.2-0.1,0.4-0.1,0.6c0,0.2,0,0.2,0.1,0.2c0.1,0,0.1,0.2,0,0.5c-0.1,0.3-0.2,0.6-0.2,0.8c-0.2,0.5,0,0.9,0.5,1.1
	C606.4,316.5,607,316.6,607.7,316.6z M608.1,308.4c0.2,0,0.4-0.1,0.8-0.2c0.4-0.2,0.8-0.3,1.1-0.4c0.7-0.2,1.4-0.5,2-0.9
	s1.2-0.9,1.6-1.4c0.5-0.5,0.8-1.1,1.1-1.8c0.1-0.2,0.2-0.6,0.3-1c0.1-0.5,0.1-0.8,0-1v-0.2c-0.1-0.4-0.4-0.7-0.9-0.8
	c-0.4-0.2-1-0.2-1.6-0.2c-0.6,0-1.3,0.2-2,0.5c-0.3,0.1-0.5,0.4-0.5,0.7c-0.1,0.3-0.1,0.6-0.2,1.1c-0.1,0.5-0.2,0.9-0.3,1.1
	c-0.1,0.2-0.2,0.6-0.3,1c0,0.1-0.1,0.2-0.2,0.2c-0.1,0.1-0.1,0.2-0.1,0.3c0,0-0.1,0.1-0.2,0.4c-0.1,0.3-0.2,0.6-0.3,1
	c-0.1,0.4-0.3,0.7-0.3,0.9c-0.1,0.3-0.1,0.4-0.1,0.4s0,0.1,0,0.3C608,308.5,608,308.5,608.1,308.4z M621.3,318
	c-0.8-0.3-1.4-0.9-1.7-1.6c-0.3-0.7-0.4-1.7-0.2-3c0-0.6,0-1.1-0.1-1.3c-0.1-0.2-0.2-0.4-0.5-0.7c-0.1-0.1-0.2-0.2-0.4-0.4
	c-0.2-0.2-0.3-0.4-0.3-0.5c0-0.1,0-0.3,0.1-0.5c0.1-0.2,0.2-0.4,0.2-0.4c0.1-0.1,0.3-0.1,0.4-0.2c0.2-0.1,0.3-0.1,0.4-0.1
	c0.1,0,0.2,0.1,0.4,0.2c0.2,0.1,0.3,0.2,0.3,0.3c0.1,0.1,0.2,0.1,0.4-0.2c0.2-0.3,0.4-0.6,0.6-1c0.2-0.3,0.5-0.6,0.8-0.9
	s0.6-0.5,0.9-0.8c0.3-0.2,0.6-0.4,0.8-0.6c0.1,0,0.3-0.1,0.6-0.2c0.3-0.1,0.6-0.1,1-0.2c0.3-0.1,0.6-0.1,0.7-0.1
	c0.4,0,0.8,0.2,1.2,0.5c0.4,0.3,0.7,0.6,1,0.8c0.3,0.2,0.4,0.5,0.5,0.9c0.1,0.4,0.1,0.8,0.1,1.2c0,0.4-0.1,0.8-0.2,1.1
	c-0.1,0.2-0.3,0.5-0.7,0.9c-0.4,0.4-0.8,0.7-1.2,1.1c-0.4,0.3-0.8,0.6-1.1,0.7c-0.3,0.1-0.6,0.1-1,0.2c-0.4,0-0.7,0-1.1,0
	c-0.3,0-0.5-0.1-0.7-0.2c-0.1-0.1-0.3-0.1-0.4,0.1c-0.1,0.1-0.2,0.5-0.2,1.1c0,0.2,0,0.4,0,0.6c0,0.2,0.1,0.3,0.1,0.4
	c0.1,0.2,0.3,0.4,0.4,0.6c0.1,0.1,0.4,0.1,0.8,0.1c0.4,0,0.8-0.3,1.2-0.7c0.4-0.5,0.8-0.8,1.1-1.1c0.1-0.1,0.3-0.2,0.5-0.3
	c0.3-0.1,0.6,0,1,0.1c0.2,0.1,0.3,0.4,0.3,0.7c0,0.3-0.2,0.8-0.5,1.4c-0.1,0.1-0.2,0.4-0.5,0.7c-0.3,0.3-0.6,0.5-0.9,0.8
	c-0.3,0.3-0.6,0.5-0.8,0.6c-0.6,0.3-1.2,0.5-1.8,0.5C622.4,318.3,621.8,318.2,621.3,318z M623.6,311c0.3-0.1,0.6-0.2,0.8-0.2
	c0.2-0.1,0.4-0.2,0.7-0.4c0.2-0.2,0.4-0.5,0.7-0.8c0.1-0.2,0.1-0.4,0.1-0.6c0-0.2,0-0.3,0-0.3c-0.2-0.2-0.4-0.2-0.6-0.2
	c-0.2,0-0.4,0.1-0.6,0.3c-0.1,0.1-0.4,0.2-0.6,0.4c-0.2,0.2-0.5,0.4-0.7,0.7c-0.2,0.2-0.4,0.4-0.6,0.7c-0.1,0.2-0.1,0.3-0.1,0.3
	c0,0.1,0.1,0.1,0.3,0.2C623.3,311,623.5,311,623.6,311z M630.3,317.6c-0.1-0.2-0.3-0.3-0.6-0.5c-0.3-0.2-0.4-0.3-0.4-0.4
	s-0.1-0.2-0.2-0.4c-0.1-0.2-0.2-0.3-0.2-0.4c-0.1-0.1-0.1-0.4,0.1-0.9c0.2-0.5,0.4-1.1,0.7-1.8c0.3-0.7,0.7-1.4,1.1-2.1
	c0.2-0.2,0.3-0.4,0.5-0.7c0.2-0.3,0.3-0.4,0.4-0.5c0-0.1,0-0.2,0.1-0.2c0.1-0.1,0.1-0.1,0.2-0.1l0.2-0.5c0-0.1,0.2-0.2,0.4-0.5
	c0.2-0.2,0.5-0.5,0.8-0.8c0.3-0.3,0.6-0.6,0.9-0.9c0.3-0.3,0.6-0.5,0.8-0.6c0.4-0.3,0.9-0.4,1.3-0.4c0.5,0,0.9,0.2,1.2,0.4
	c0.1,0.1,0.2,0.2,0.4,0.4c0.2,0.2,0.5,0.4,0.7,0.6c0.3,0.2,0.5,0.4,0.7,0.6l1.1,1l-0.5,1.5c-0.3,0.8-0.3,1.6-0.2,2.2
	s0.3,1.2,0.6,1.6c0.1,0.2,0.2,0.4,0.4,0.5c0.2,0.1,0.4,0.2,0.7,0.2c0.2,0,0.3,0.1,0.5,0.2c0.1,0.1,0.2,0.3,0.2,0.5
	c0,0.5-0.1,0.9-0.3,1.1c-0.2,0.2-0.4,0.3-0.6,0.4c-0.7,0.1-1.3,0-2-0.2s-1.2-0.8-1.7-1.8c-0.1-0.1-0.2-0.4-0.3-0.7
	c-0.1-0.4-0.2-0.6-0.2-0.7c-0.1,0.1-0.2,0.2-0.3,0.4c-0.1,0.1-0.2,0.3-0.4,0.4c-1.5,1.5-2.7,2.5-3.8,2.9
	C631.9,318.1,631,318.1,630.3,317.6z M632,315c0.1,0,0.4-0.1,0.7-0.2c0.3-0.2,0.7-0.5,1.2-0.9c0.7-0.6,1.3-1.1,1.7-1.5
	s0.9-0.9,1.3-1.5l0.7-1.1c-0.2-0.5-0.4-0.8-0.6-0.9c-0.2-0.1-0.3-0.2-0.5-0.2c-0.3,0-0.6,0.2-1,0.5c-0.4,0.3-0.8,0.8-1.3,1.5
	c-0.5,0.6-1,1.4-1.5,2.4c-0.3,0.5-0.5,0.9-0.6,1.3C632.1,314.8,632,315,632,315z M648,318c-0.3,0.1-0.6,0.2-0.9,0.2
	c-0.4,0-0.8-0.1-1.4-0.3c0,0-0.2-0.1-0.4-0.3c-0.2-0.2-0.5-0.4-0.7-0.7c-0.2-0.2-0.4-0.5-0.5-0.6c-0.3-0.5-0.4-1.2-0.3-2.1
	c0.1-0.9,0.5-2,1-3.3c0.1-0.3,0.4-0.7,0.7-1.2c0.3-0.5,0.6-0.9,0.9-1.3c0.3-0.4,0.5-0.7,0.7-0.7c0,0,0.1,0,0.3-0.1
	c0.2-0.1,0.5-0.2,0.9-0.4c0.1,0,0.3-0.1,0.5-0.2c0.3-0.1,0.5-0.1,0.8-0.2c0.3-0.1,0.5-0.1,0.6-0.1c0.4,0,0.8,0.2,1.3,0.5
	c0.5,0.3,0.8,0.6,1.1,1c0.3,0.4,0.4,0.7,0.3,0.9c0,0-0.1,0.2-0.2,0.4c-0.1,0.2-0.2,0.4-0.3,0.7c-0.1,0.2-0.2,0.4-0.3,0.5
	c-0.1,0.1-0.3,0.2-0.6,0.2c-0.2,0-0.5-0.1-0.7-0.2c-0.2-0.1-0.3-0.3-0.3-0.6c0-0.2-0.2-0.3-0.5-0.5c-0.2-0.1-0.4-0.2-0.4-0.2
	c-0.2,0-0.4,0.2-0.7,0.5c-0.3,0.3-0.5,0.7-0.8,1.1c-0.4,0.4-0.6,0.8-0.8,1.2c-0.1,0.4-0.2,0.8-0.3,1.2c0,0.4-0.1,0.6-0.2,0.8
	c-0.1,0.2-0.1,0.5,0,0.8s0.2,0.5,0.3,0.5c0.2,0,0.4,0,0.7,0c0.3-0.1,0.7-0.1,1-0.2c0.4-0.1,0.7-0.2,1.1-0.3c0.4-0.1,0.7-0.2,1-0.4
	c0.4-0.2,0.7-0.3,1-0.3c0.3,0,0.5,0.1,0.7,0.1c0.2,0.1,0.3,0.3,0.3,0.5c0,0.3-0.1,0.6-0.3,0.9c-0.2,0.3-0.5,0.5-0.8,0.7
	c-0.3,0.2-0.6,0.4-0.9,0.6c-0.2,0.2-0.4,0.3-0.4,0.4c-0.1,0-0.2,0-0.3,0.1c-0.1,0-0.2,0.1-0.2,0c0,0-0.2,0-0.5,0.1s-0.6,0.1-0.9,0.2
	C648.3,317.8,648.1,317.9,648,318z M656.5,317.1c-0.1,0-0.3,0-0.5-0.2c-0.2-0.1-0.3-0.3-0.5-0.4c-0.2-0.2-0.4-0.5-0.4-0.7
	s-0.1-0.4-0.1-0.6s0-0.5,0.1-0.8c0.1-0.3,0.2-0.8,0.4-1.3c0.1-0.6,0.3-1.2,0.5-1.8c0-0.2,0.1-0.5,0.2-0.9c0.1-0.4,0.2-0.7,0.4-1
	c0.1-0.3,0.2-0.6,0.3-0.7c0.1-0.5,0.3-1,0.4-1.5c0.2-0.5,0.4-1,0.6-1.6c0.2-0.6,0.5-1.4,0.8-2.4c0.5-1.2,0.8-2.2,1-2.8
	s0.4-1.1,0.5-1.3c0.1-0.3,0.2-0.5,0.2-0.7c0-0.2,0.1-0.3,0.3-0.5c0.2-0.2,0.5-0.2,0.7-0.2c0.3,0,0.6,0.2,0.8,0.5
	c0.3,0.3,0.5,0.7,0.6,1.1c0.1,0.4,0,0.9-0.2,1.3c-0.3,0.7-0.7,1.6-1,2.5c-0.3,0.9-0.6,1.8-0.9,2.7s-0.6,1.7-0.9,2.5
	c0,0.1-0.1,0.3-0.2,0.5c-0.1,0.2-0.2,0.5-0.3,0.6c-0.1,0.2-0.2,0.3-0.2,0.5c-0.1,0.1-0.1,0.2-0.1,0.2c0,0.1-0.1,0.3-0.1,0.5
	s-0.1,0.4-0.2,0.6c0,0.1-0.1,0.2-0.1,0.4c0,0.2-0.1,0.3-0.1,0.5c0.1-0.1,0.2-0.3,0.4-0.4c0.2-0.2,0.4-0.4,0.7-0.7
	c0.3-0.3,0.6-0.5,0.9-0.7c0.2-0.2,0.5-0.4,0.7-0.6c0.2-0.2,0.4-0.3,0.6-0.5c0.2-0.1,0.3-0.2,0.3-0.2c0-0.1,0.1-0.1,0.1-0.2
	c0.1-0.1,0.1-0.1,0.2-0.2c0,0,0.1-0.1,0.2-0.2c0.1-0.1,0.2-0.2,0.3-0.2c0.2-0.1,0.4-0.2,0.6-0.3c0.2-0.1,0.4-0.1,0.7-0.2
	c0.2,0,0.4-0.1,0.7-0.1c0.2,0,0.5,0.1,0.8,0.3c0.3,0.2,0.5,0.5,0.7,0.8c0.2,0.3,0.3,0.6,0.4,1c0.1,0.4,0.1,0.8,0,1.4
	c0,0.2-0.1,0.5-0.2,0.9c-0.1,0.5-0.1,0.8-0.2,1l-0.3,1.1h0.2c0.2-0.1,0.4-0.1,0.7,0c0.2,0.1,0.3,0.1,0.3,0.1
	c0.1,0.1,0.2,0.1,0.3,0.2c0.1,0.1,0.2,0.1,0.3,0.2c0.1,0.2,0.1,0.4-0.1,0.7c-0.2,0.3-0.4,0.5-0.6,0.7c-0.5,0.3-0.9,0.5-1.3,0.6
	c-0.4,0.1-0.8,0-1.2-0.2c-0.4-0.3-0.7-0.6-0.8-1c-0.1-0.4-0.2-0.9-0.2-1.5c0.1-0.9,0.1-1.6,0.2-2c0-0.4-0.1-0.6-0.3-0.6
	c-0.2,0-0.6,0.1-1,0.4c-0.4,0.2-0.9,0.5-1.4,1c-0.5,0.4-1,0.8-1.5,1.3c-0.5,0.5-0.9,1-1.3,1.5c-0.2,0.3-0.5,0.6-0.8,0.9
	C657.2,316.9,656.9,317.1,656.5,317.1z"/>
</svg>
