<?xml version="1.0" encoding="utf-8"?>
<!-- Generator: Adobe Illustrator 27.1.1, SVG Export Plug-In . SVG Version: 6.00 Build 0)  -->
<svg version="1.1" id="Слой_1" xmlns="http://www.w3.org/2000/svg" xmlns:xlink="http://www.w3.org/1999/xlink" x="0px" y="0px"
	 viewBox="0 0 708.6 469" style="enable-background:new 0 0 708.6 469;" xml:space="preserve">
<style type="text/css">
	.st0{fill:none;stroke:#AAAAAA;stroke-linecap:round;stroke-linejoin:round;stroke-dasharray:4.01,4.01;}
	.st1{clip-path:url(#SVGID_00000152982393973848699340000011641493315597568165_);}
	.st2{fill:#AAAAAA;}
	.st3{clip-path:url(#SVGID_00000126323696301509403030000006670263548958476722_);}
	.st4{clip-path:url(#SVGID_00000152981373100198124430000000889289460724271763_);}
</style>
<path class="st0" d="M210,48.5c29.9-10.4,75.5-7.2,91,14c4.8,7.1,10,21.5,2.5,35c-11.8,21.4-44.8,12.5-44.2-15.4
	c1.1-51.4,87.2-79,122.5-81.1C447,1,484.3,23,518,64.9c31.9,39.7,34,95.3,19.9,152.3c-10.5,42.6-34.5,84.4-43.5,127.1
	c-8.9,42.3,9.8,93,64,86.2c26.5-3.3,56-37,19.5-61c-29.5-15-68.9,0.9-86,30c-9,15.1-25.5,47-29.5,68.5"/>
<g>
	<defs>
		<rect id="SVGID_1_" x="588.4" y="182.6" width="70" height="32"/>
	</defs>
	<clipPath id="SVGID_00000150085525963685765750000010118049011850619068_">
		<use xlink:href="#SVGID_1_"  style="overflow:visible;"/>
	</clipPath>
	<g style="clip-path:url(#SVGID_00000150085525963685765750000010118049011850619068_);">
		<path class="st2" d="M634.7,186.5c-3.4-3.8-8.9-4.4-13.7-3.4c-4.1,0.8-10.7,3.6-11.5,8.3c-0.1,0.4,0.3,0.8,0.8,0.6
			c3.8-2.3,6-5.7,10.7-6.8c4.8-1.1,8.9,0.3,13.4,1.8C634.7,187.1,634.8,186.7,634.7,186.5z"/>
		<path class="st2" d="M611.2,190.8c-4.1-2.1-11.7,1-11.1,6.4c0,0.3,0.4,0.5,0.6,0.2c0.9-2,1.8-3.8,3.7-5c2-1.3,4.3-1.4,6.5-0.8
			C611.3,191.7,611.6,191,611.2,190.8L611.2,190.8z"/>
		<path class="st2" d="M600.5,196c-3.3-0.4-6.4,1.6-6.8,5c0,0.2,0.2,0.3,0.3,0.1c1.4-2.4,3.8-4.3,6.5-4.7
			C600.7,196.3,600.7,196,600.5,196L600.5,196z"/>
		<path class="st2" d="M593.7,200.3c-2.2-2.4-5.4,0.9-5.2,3.4c0.1,1.6,1.3,2.9,2.6,3.6c1.7,0.9,3.3,0.9,5,0.2
			c0.4-0.1,0.4-0.8-0.1-0.7c-2,0.1-4.8-0.3-5.9-2.2c-1-1.9,1.2-4.8,3.3-3.9C593.7,200.7,593.9,200.5,593.7,200.3z"/>
		<path class="st2" d="M596,207.1c2.5,7.2,16.3,8.5,19.7,1.5c0.2-0.4-0.2-0.8-0.6-0.6c-3.1,1.8-5.5,3.4-9.2,3.3
			c-4-0.1-6.6-2.1-9.6-4.5C596.2,206.8,595.9,206.9,596,207.1L596,207.1z"/>
		<path class="st2" d="M614.9,210c3.4,5,13.8,7,17,0.7c0.3-0.5-0.3-1-0.7-0.8c-2.5,1.2-4.6,2.5-7.5,2.6c-3,0.1-5.8-1.1-8.1-3
			C615.2,209.2,614.6,209.6,614.9,210z"/>
		<path class="st2" d="M631.3,211c5.2,3.6,14.3,2.7,17.5-3.2c0.2-0.4-0.3-0.7-0.6-0.4c-5.1,4-10.3,5.7-16.5,2.9
			C631.2,210,630.8,210.7,631.3,211L631.3,211z"/>
		<path class="st2" d="M637.4,188c2.4-0.5,4.7,0.3,6.6,1.9c1.8,1.5,2.1,3.3,2.8,5.4c0.2,0.4,0.7,0.4,0.9,0c0.9-2.5-1.1-5.4-3.1-6.8
			c-2.1-1.6-4.9-2-7.3-1C636.9,187.7,637,188.1,637.4,188L637.4,188z"/>
		<path class="st2" d="M647.5,196.1c1.9-0.9,4.6-0.4,6,1.2c1.4,1.6,1.2,3.5,1,5.5c0,0.3,0.4,0.4,0.6,0.2c1.7-1.9,0.7-5.1-0.9-6.7
			c-2-1.9-4.6-1.8-6.8-0.5C647.3,196,647.4,196.2,647.5,196.1z"/>
		<path class="st2" d="M655.4,201.3c1.8,1.5,2.7,4.9,0.8,6.7c-0.9,0.9-2.3,1.2-3.4,1c-1.3-0.2-1.9-1.1-2.9-1.7
			c-0.3-0.2-0.6,0.1-0.5,0.4c0.2,1.5,2.3,2.3,3.6,2.5c1.6,0.2,3.2-0.2,4.3-1.4c2.1-2.3,1.4-6.6-1.7-7.7
			C655.5,201.1,655.4,201.2,655.4,201.3L655.4,201.3z"/>
		<path class="st2" d="M647.3,207.9c1.8,1.7,4.3,3.5,6.9,2.7c1.7-0.5,3.4-2.2,2.4-4.1c-0.1-0.2-0.5-0.2-0.6,0.1
			c-0.5,1.5-1.7,2.7-3.4,2.7c-1.7,0-3.4-1.3-4.8-2.2C647.5,206.8,646.9,207.5,647.3,207.9L647.3,207.9z"/>
		<path class="st2" d="M654.9,204c0.3,0.6,0.4,1.2,0.3,1.9c-0.1,0.6-0.3,1.1-0.4,1.7c0,0.2,0.2,0.4,0.4,0.3c1.5-0.8,1-3.1,0.1-4.2
			C655.1,203.5,654.8,203.7,654.9,204z"/>
		<path class="st2" d="M604.2,197.2c-0.5,0.5-1.2,1-1.8,1.5c-0.5,0.6-1,1.1-1.6,1.7c-0.9,1-2,2.1-2.7,3.2c-0.3,0.5,0.3,0.9,0.7,0.6
			c1.1-1,2.1-2.3,3.1-3.5c0.4-0.5,0.9-1.1,1.3-1.6c0.4-0.5,0.7-1.3,1.1-1.8C604.4,197.2,604.3,197.1,604.2,197.2L604.2,197.2z"/>
		<path class="st2" d="M605.7,197.9c-0.8,1.3-1.6,2.5-2.5,3.6c-0.9,1.1-2,2.2-2.7,3.5c-0.1,0.2,0.1,0.4,0.3,0.3
			c1.1-0.7,2-1.9,2.8-2.9c1-1.3,1.9-2.7,2.7-4.1C606.6,197.9,606,197.5,605.7,197.9z"/>
		<path class="st2" d="M607.8,198.9c-1.9,2.5-4,5-5.7,7.6c-0.2,0.3,0.3,0.7,0.5,0.4c2-2.4,3.7-5.2,5.5-7.8
			C608.3,198.9,607.9,198.7,607.8,198.9L607.8,198.9z"/>
		<path class="st2" d="M609.6,201.6c-0.8,0.8-1.7,1.7-2.5,2.5c-0.7,0.8-1.6,1.5-2.2,2.4c-0.2,0.3,0.2,0.7,0.5,0.5
			c0.9-0.6,1.6-1.5,2.3-2.3c0.8-0.9,1.6-1.7,2.4-2.6C610.3,201.8,609.9,201.3,609.6,201.6z"/>
		<path class="st2" d="M610.9,204.8C610.9,204.8,610.9,204.8,610.9,204.8C610.8,204.8,610.8,204.8,610.9,204.8z"/>
		<path class="st2" d="M611.5,202.7c-0.5,0.8-1,1.7-1.5,2.5c-0.5,0.7-1.1,1.5-1.3,2.4c-0.1,0.4,0.3,0.6,0.6,0.3
			c0.7-0.6,1-1.5,1.5-2.2c0.5-0.8,1-1.7,1.5-2.5C612.6,202.7,611.8,202.2,611.5,202.7L611.5,202.7z"/>
		<path class="st2" d="M625.9,200c-1.6,1.4-3.2,2.8-4.7,4.3c-1.4,1.3-3,2.5-4,4.1c-0.1,0.2,0.1,0.4,0.3,0.3c1.7-0.9,3-2.5,4.3-3.8
			c1.5-1.5,3-3,4.5-4.5C626.5,200.1,626.1,199.8,625.9,200L625.9,200z"/>
		<path class="st2" d="M625.6,202.5c-2.5,2.5-5.2,5-7.5,7.7c-0.2,0.3,0.1,0.6,0.4,0.4c2.6-2.4,4.9-5.3,7.3-7.9
			C625.9,202.6,625.7,202.4,625.6,202.5z"/>
		<path class="st2" d="M625.7,205.4c-1.1,0.6-2.1,1.4-3,2.3c-0.7,0.7-1.6,1.7-1.7,2.8c0,0.1,0.2,0.2,0.3,0.1c0.8-0.6,1.3-1.6,2-2.4
			c0.8-0.9,1.8-1.6,2.9-2.1C626.6,205.9,626.2,205.1,625.7,205.4L625.7,205.4z"/>
		<path class="st2" d="M629.5,205.5c-2.4,2.2-5,4.3-7.1,6.7c-0.3,0.4,0.2,0.9,0.6,0.6c0.7-0.7,1.5-1.4,2.3-2.1
			c0.1-0.1,0-0.4-0.2-0.3c-0.8,0.6-1.7,1.2-2.6,1.7c0.2,0.2,0.3,0.4,0.5,0.6c2.5-2.1,4.6-4.6,6.9-6.9
			C630,205.6,629.7,205.3,629.5,205.5L629.5,205.5z"/>
		<path class="st2" d="M629.3,208.2c-0.3,0.3-0.6,0.7-0.9,1c-0.4,0.5,0.2,1.1,0.7,0.7c0.3-0.3,0.7-0.6,1-0.9
			C630.7,208.5,629.8,207.7,629.3,208.2L629.3,208.2z"/>
		<path class="st2" d="M621.9,204.4c-1.1,0.6-2.2,1.3-3.2,2c-0.9,0.6-1.8,1.2-2.4,2.1c-0.2,0.2,0.1,0.5,0.4,0.5
			c1.1-0.3,2-1.2,2.9-1.9c0.9-0.7,1.8-1.5,2.6-2.3C622.5,204.6,622.2,204.3,621.9,204.4L621.9,204.4z"/>
		<path class="st2" d="M622.1,204.7c-1.3,0.9-2.6,1.9-3.8,2.9c-0.1,0,0,0.1,0.1,0.1c1.3-0.9,2.5-1.9,3.8-2.9
			C622.2,204.8,622.2,204.6,622.1,204.7z"/>
		<path class="st2" d="M623.8,205.5c-0.7,0.7-1.5,1.4-2.2,2c-0.6,0.6-1.4,1.1-1.7,1.9c-0.1,0.2,0.2,0.5,0.4,0.4
			c0.8-0.3,1.4-1,1.9-1.7c0.7-0.7,1.3-1.5,2-2.2C624.5,205.7,624.1,205.2,623.8,205.5L623.8,205.5z"/>
		<path class="st2" d="M618.1,206c1.6,2.9,5.6,5.2,8.9,3.7c0.2-0.1,0.1-0.4-0.1-0.4c-3.4-0.1-6.3-0.6-8.5-3.5
			C618.3,205.6,618,205.8,618.1,206z"/>
		<path class="st2" d="M636.1,205.4c-1.1,0.7-2.1,1.5-3.1,2.3c-0.9,0.7-2.2,1.5-2.8,2.6c-0.1,0.2,0.1,0.6,0.4,0.5
			c1.1-0.3,2-1.3,2.8-2c1-0.9,2.1-1.8,3.1-2.8C636.7,205.6,636.4,205.1,636.1,205.4L636.1,205.4z"/>
		<path class="st2" d="M639.8,204.5l-2.4,2.6c-0.7,0.8-1.7,1.5-2.2,2.4c-0.2,0.3,0.2,0.7,0.5,0.5c0.9-0.5,1.6-1.5,2.3-2.3
			c0.8-0.9,1.6-1.7,2.4-2.6C640.8,204.7,640.2,204.1,639.8,204.5z"/>
		<path class="st2" d="M640.7,206.4c-1.1,1.2-2.2,2.4-3.3,3.6c-0.3,0.4,0.1,0.9,0.5,0.7c2-1.2,3.9-2.4,6-3.5
			c-0.2-0.2-0.4-0.3-0.7-0.5c-0.3,0.8-0.8,1.4-1.5,1.8c-0.5,0.3-0.2,1.2,0.4,1c2.1-0.7,4.2-1.7,5.6-3.5c0.1-0.1,0-0.4-0.2-0.3
			c-1.8,1.2-3.5,2.2-5.7,2.8c0.1,0.3,0.3,0.6,0.4,1c1-0.6,1.5-1.3,1.8-2.5c0.1-0.4-0.3-0.7-0.7-0.5c-1.9,1.3-3.9,2.4-5.9,3.5
			l0.5,0.7c1.1-1.2,2.2-2.3,3.3-3.5C641.8,206.6,641.1,205.9,640.7,206.4L640.7,206.4z"/>
		<path class="st2" d="M647.7,204.8c-5.3,1.1-10.2,2.4-15.6,2.1c-0.8,0-0.9,1.1-0.2,1.3c4.1,1.3,8.9,0.8,12-2.6
			c0.3-0.3-0.1-0.7-0.4-0.5c-3.6,2-7.1,3.1-11.2,1.8c-0.1,0.4-0.1,0.9-0.2,1.3c5.3,0.3,11.1-0.2,15.8-3.1
			C648.1,205.1,647.9,204.8,647.7,204.8L647.7,204.8z"/>
	</g>
</g>
<g>
	<defs>
		
			<rect id="SVGID_00000106848995909991519370000005435810543453864358_" x="1.8" y="41.3" transform="matrix(0.998 -6.375306e-02 6.375306e-02 0.998 -5.733 6.9016)" width="207" height="104"/>
	</defs>
	<clipPath id="SVGID_00000114064603154899601510000000832936187218877359_">
		<use xlink:href="#SVGID_00000106848995909991519370000005435810543453864358_"  style="overflow:visible;"/>
	</clipPath>
	<g style="clip-path:url(#SVGID_00000114064603154899601510000000832936187218877359_);">
		<path class="st2" d="M98.6,74.1C93.3,68.3,86.3,64,79.8,59.5c-6.4-4.5-12.7-9.6-19.5-13.4c-0.4-0.2-0.8,0.4-0.5,0.7
			c6.1,5.2,13.3,9.4,19.9,13.9c6.4,4.4,12.7,8.7,18.7,13.7C98.6,74.5,98.8,74.3,98.6,74.1L98.6,74.1z"/>
		<path class="st2" d="M60.7,46.6c1.1-1.9,2.5-2.4,4.2-1.7c0.7,0.2,1.4,0.3,2.2,0.5c1.4,0.3,2.9,0.6,4.3,0.9
			c3.1,0.7,6.2,1.4,9.3,2.1c6,1.4,12,2.8,17.9,4.4c12.1,3.1,24.2,6.5,36.2,10.1c0.8,0.2,1.1-1,0.3-1.3c-15.8-4.7-31.7-8.8-47.7-12.5
			c-7.8-1.8-15.8-4-23.8-5.1c-1.6-0.2-5.7,0.8-3.1,2.9C60.7,47,60.9,46.7,60.7,46.6L60.7,46.6z"/>
		<path class="st2" d="M61.2,44.9c7.4,4.2,14.8,8.2,21.7,13.3c6.6,4.8,12.3,10.3,18.5,15.5c0.5,0.4,1-0.3,0.6-0.7
			c-5.8-6.1-13-11.2-19.9-16c-6.6-4.6-13.5-9-20.8-12.3C61.2,44.7,61.1,44.9,61.2,44.9L61.2,44.9z"/>
		<path class="st2" d="M79.2,60.6c-1.4-1.1-3.8,0.7-4.9,1.7c-0.2,0.1,0,0.3,0.2,0.4c2.6,0.2,5.4,0,7.9-1c0.3-0.1,0.1-0.5-0.1-0.4
			c-2.6,0.7-5,1.2-7.7,1l0.1,0.4c0.9-0.8,2-1.3,3.1-1.5C78.4,61,78.7,61,79.2,60.6C79.2,60.7,79.3,60.6,79.2,60.6L79.2,60.6z"/>
		<path class="st2" d="M85.9,64.3c-1.8,0.4-3.4,1.4-4.6,2.9c-0.1,0.1,0,0.4,0.1,0.4c1.9,0.3,4.7,0.7,6.3-0.5
			c0.2-0.1,0.1-0.4-0.1-0.4c-1,0-1.9,0.3-2.8,0.4c-1.1,0.1-2.2,0.1-3.3,0c0,0.1,0.1,0.3,0.1,0.4c1.1-1.4,2.6-2.4,4.4-2.8
			C86.3,64.6,86.2,64.3,85.9,64.3L85.9,64.3z"/>
		<path class="st2" d="M88.4,66.8c-1,0.3-2,0.3-3,0.5c-0.1,0-0.1,0.2,0,0.2c0.5,0.1,1,0.1,1.6,0C87.5,67.3,87.9,67.1,88.4,66.8
			C88.5,66.8,88.4,66.7,88.4,66.8z"/>
		<path class="st2" d="M87.9,66c-0.6,0.6-1.4,0.9-2.2,1.2c-0.1,0.1-0.1,0.2,0,0.3c1,0.3,1.9-0.5,2.4-1.3C88.2,66,88,65.9,87.9,66
			L87.9,66z"/>
		<path class="st2" d="M92,69.1c-1.9,0-3.5,1.2-4.4,2.8c-0.1,0.2,0,0.5,0.3,0.5c2.5,0.4,4.9,0,7.1-1.2c0.4-0.2,0-0.7-0.4-0.5
			c-2.1,1.1-4.3,1.4-6.6,1c0.1,0.2,0.2,0.3,0.3,0.5c0.9-1.5,2.2-2.3,3.8-3C92.1,69.3,92.1,69.2,92,69.1L92,69.1z"/>
		<path class="st2" d="M135.9,61.4c-15.5,4.5-30.8,10.5-45.9,16c-7.6,2.8-15.2,5.6-22.8,8.4c-7.1,2.6-14.7,4.8-21.4,8.4
			c-0.5,0.3-0.1,0.9,0.4,0.8c7.8-1.9,15.4-5.4,22.9-8.3c7.4-2.7,14.7-5.5,22.1-8.2c15-5.5,30.2-10.6,44.9-16.7
			C136.3,61.7,136.2,61.3,135.9,61.4L135.9,61.4z"/>
		<path class="st2" d="M49.5,93.1c-6.8,1.2-13.6,4.3-19.8,7.2c-5.6,2.6-12.9,5.7-16.8,10.5c-0.3,0.4,0.1,0.8,0.5,0.6
			c3.1-1.5,5.7-4,8.7-5.8c3.1-1.9,6.4-3.5,9.8-5c5.8-2.6,12.1-4.3,17.7-7.3C49.6,93.2,49.6,93.1,49.5,93.1z"/>
		<path class="st2" d="M13.6,111.1c0,1.8,1.5,2.3,3.2,2.4c3.1,0.2,7.9-0.3,10.6-2.1c0.3-0.2,0.1-0.6-0.2-0.6c-2.2,0-4.4,0.9-6.5,1.2
			C18.9,112.3,14.7,113.3,13.6,111.1C13.7,111.1,13.6,111.1,13.6,111.1z"/>
		<path class="st2" d="M46.9,102.4c-6.2,0.1-14,3.1-19.4,6.1c-0.4,0.2-0.1,0.9,0.4,0.8c3.2-1.1,6.2-2.5,9.4-3.6
			c3.2-1,6.6-1.6,9.7-2.9C47.3,102.8,47.2,102.4,46.9,102.4L46.9,102.4z"/>
		<path class="st2" d="M27.8,108.7c-2.9,3.6-5.3,7.4-7.8,11.3c-2.6,4.1-5.9,8.4-7.8,12.9c-0.2,0.5,0.4,1,0.8,0.6
			c2.7-3.6,4.7-7.9,7.1-11.7c2.6-4.2,5.5-8.4,8-12.7C28.3,108.7,28,108.5,27.8,108.7L27.8,108.7z"/>
		<path class="st2" d="M12.6,133.6c2.2-0.6,4.4-1.8,6.5-2.8c1.9-0.9,3.9-1.6,5.5-2.8c0.3-0.2,0.1-0.6-0.3-0.5
			c-2.2,0.6-4.3,1.9-6.4,3c-1.8,0.9-3.9,1.7-5.5,3C12.3,133.5,12.4,133.7,12.6,133.6z"/>
		<path class="st2" d="M24,127.8c4.4-3.3,8-8.1,11.7-12.1c3.7-4,8.2-8.1,11-12.8c0.1-0.2-0.2-0.5-0.4-0.4
			c-4.2,3.5-7.7,8.4-11.3,12.5c-3.7,4.1-8.1,8-11.1,12.6C23.9,127.7,24,127.8,24,127.8z"/>
		<path class="st2" d="M46.8,102.8c-0.2,0.9-0.4,1.9-0.3,2.8c0,0.5,0.7,0.5,0.8,0.1c0.2-0.9,0.2-1.9,0.2-2.8
			C47.3,102.5,46.8,102.5,46.8,102.8L46.8,102.8z"/>
		<path class="st2" d="M47.2,105.2c-4.1,2.9-7.6,7-11.1,10.6c-3.8,3.9-8.1,7.8-11.4,12.3c-0.1,0.2,0.1,0.4,0.3,0.2
			c3.9-3.5,7.4-7.7,11.1-11.5c3.7-3.8,7.9-7.3,11.2-11.4C47.3,105.2,47.2,105.1,47.2,105.2L47.2,105.2z"/>
		<path class="st2" d="M12.8,133.9c0,0.1,0,0.2,0,0.3c0,0.1,0.1,0.1,0.1,0.2c1.6,0.8,4.1-1,5.6-1.7c2.6-1.3,5.2-2.8,7.6-4.6
			c0.5-0.3,0-1.1-0.5-0.8c-1,0.6-12.1,7.4-12.4,6.5C13.1,133.7,12.8,133.7,12.8,133.9L12.8,133.9z"/>
		<path class="st2" d="M123.6,66.2c6.5-1.2,13-4.2,19.1-6.7c6.4-2.7,12.9-5.6,19.5-7.8c13.4-4.6,27.8-6.4,41.7-2.9
			c0.7,0.2,0.9-0.9,0.2-1c-13-3.8-26.8-1.7-39.6,2.2c-7.1,2.2-14.1,4.7-21,7.5c-6.7,2.7-13.7,5.2-20.1,8.5
			C123.3,65.9,123.4,66.2,123.6,66.2L123.6,66.2z"/>
		<path class="st2" d="M202.9,47.9c2,0.5,3,3,2.3,4.8c-0.7,1.9-2.5,2.6-4,3.7c-0.1,0.1-0.1,0.4,0.1,0.4c2.3-0.4,4.8-2.6,5-5
			c0.1-1-0.2-2.1-0.8-2.9c-0.7-1-1.4-1.2-2.5-1.2C202.7,47.6,202.7,47.8,202.9,47.9z"/>
		<path class="st2" d="M43.3,110.3c10-0.6,20.2-2.8,30-4.6c9.4-1.7,19.3-3.1,28.5-5.9c0.7-0.2,0.5-1.4-0.3-1.3
			c-10,1.4-19.9,4.1-29.8,6.1c-9.4,1.9-19.2,3-28.5,5.3C43,110,43.1,110.3,43.3,110.3L43.3,110.3z"/>
		<path class="st2" d="M159,72.9c-4.4-1.5-9.6-0.2-13.9,1.1c-5.9,1.7-11.7,3.8-17.3,6.4c-5.1,2.3-10.2,5-14.9,8
			c-3.9,2.5-8.1,5.4-9.9,9.8c-0.2,0.4,0.3,0.7,0.6,0.4c3.6-3.5,7.1-6.8,11.4-9.5c4.5-2.8,9.2-5.3,14.1-7.5c4.5-2.1,9.2-3.9,13.9-5.5
			c5.4-1.8,10.5-2.3,16.1-3C159.1,73.2,159.2,73,159,72.9L159,72.9z"/>
		<path class="st2" d="M105.4,95.2c-6.7,7-11.7,16.2-17.2,24.1c-5.7,8.1-11.5,16.1-17.3,24.1c-0.5,0.7,0.5,1.7,1.1,0.9
			c6-8.2,11.9-16.4,17.7-24.8C95.1,111.9,101.7,103.9,105.4,95.2C105.5,95.2,105.5,95.2,105.4,95.2L105.4,95.2z"/>
		<path class="st2" d="M71.2,144.7c0.4,0.4,0.2,0.6,0.8,1c0.6,0.4,1.4,0.5,2.1,0.6c1.4,0.2,2.6-0.1,3.7-1c0.1-0.1,0.1-0.5-0.1-0.4
			c-1.1,0.2-2.4,0.5-3.5,0.3c-0.6-0.1-1.1-0.3-1.7-0.5c-0.3-0.1-0.9-0.1-1.2-0.2C71.2,144.5,71.1,144.6,71.2,144.7L71.2,144.7z"/>
		<path class="st2" d="M77.6,145.5c6.9-5.5,13-12,19.6-17.9c6.9-6.2,13.7-12.7,20.5-19.1c12.4-11.7,24.5-24.8,39.7-32.9
			c0.9-0.5,0-1.8-0.9-1.3c-14.9,7.6-26.6,20-38.5,31.5c-6.7,6.4-13.5,12.8-20.2,19.3c-6.8,6.6-14.1,13-20.4,20.1
			C77.2,145.3,77.4,145.6,77.6,145.5L77.6,145.5z"/>
		<path class="st2" d="M156.7,73.5c-0.7,0.6-1.4,1.1-2.1,1.7c-0.6,0.4-1.4,0.9-1.7,1.6c-0.1,0.2,0.1,0.4,0.3,0.3
			c0.7-0.2,1.2-1,1.7-1.5c0.6-0.7,1.2-1.3,1.9-2C156.8,73.5,156.7,73.4,156.7,73.5z"/>
		<path class="st2" d="M157.1,73.2c-0.9,0.7-1.9,1.1-2.8,1.8c-0.8,0.6-1.7,1.2-2.4,2c-0.4,0.4,0.2,1,0.6,0.7c0.9-0.5,1.6-1.3,2.3-2
			C155.7,74.9,156.3,74,157.1,73.2C157.2,73.2,157.1,73.1,157.1,73.2L157.1,73.2z"/>
		<path class="st2" d="M158.1,73.6c-0.1,0.1-0.4,0-0.6,0.1c-0.1,0.1-0.3,0.2-0.4,0.2c-0.3,0.2-0.6,0.4-0.8,0.6
			c-0.4,0.3-1,0.7-0.9,1.3c0,0.1,0.1,0.2,0.1,0.2c0.6,0.2,1-0.2,1.5-0.6c0.3-0.2,0.5-0.4,0.7-0.6c0.1-0.1,0.3-0.2,0.4-0.4
			c0.1-0.2,0.1-0.4,0.3-0.6C158.5,73.7,158.3,73.5,158.1,73.6L158.1,73.6z"/>
		<path class="st2" d="M157.8,72.7c-0.4,0.3-0.9,0.7-1.3,1c-0.4,0.3-0.8,0.6-1,1c-0.1,0.2,0.2,0.4,0.3,0.3c0.4-0.2,0.8-0.7,1.1-1
			c0.4-0.4,0.7-0.8,1-1.2C158,72.7,157.9,72.6,157.8,72.7L157.8,72.7z"/>
		<path class="st2" d="M158.5,73.8c-7.5,4.8-14.4,11.3-21.1,17.1c-6.8,5.8-13.3,11.7-19.9,17.7c-6.7,6.1-13.3,12.3-19.8,18.6
			c-3.3,3.2-6.5,6.3-9.7,9.5c-2.2,2.2-9.1,11.5-12.6,8.7c-0.6-0.4-1.3,0.3-0.7,0.8c1.7,1.6,3.7,1,5.6-0.3c3.6-2.5,6.6-6.5,9.6-9.6
			c7.2-7.3,14.6-14.4,22.1-21.4c7.8-7.3,15.8-14.4,23.9-21.4c4-3.4,8-6.8,12-10.2c3.6-3.1,7.6-5.9,11-9.3
			C159,73.9,158.7,73.6,158.5,73.8L158.5,73.8z"/>
		<path class="st2" d="M91.2,116.4c-1.6-0.3-3.2-0.1-4.8,0.1c-0.9,0.2-2.7,0.2-3.3,1.1c-0.4,0.6-0.1,1,0.4,1.4
			c0.4,0.3,1.1,0.4,1.6,0.6c0.9,0.3,1.8,0.6,2.7,0.9c0.5,0.1,0.6-0.6,0.2-0.8c-0.8-0.3-1.7-0.5-2.5-0.7c-0.6-0.2-0.8-0.1-1.1-0.8
			c-0.4-0.8,0.1-0.6,0.9-0.8c1.9-0.4,3.9-0.3,5.8-0.6C91.5,116.8,91.5,116.5,91.2,116.4L91.2,116.4z"/>
		<path class="st2" d="M86.7,121.9c-2.1-0.7-4.2-0.1-6,1.1c-0.2,0.1-0.1,0.3,0,0.4c1,1.1,2.8,2.4,4.3,2.1c0.2,0,0.3-0.3,0.1-0.4
			c-0.6-0.3-1.4-0.4-2-0.7c-0.8-0.4-1.4-0.8-2-1.4c0,0.1,0,0.3,0,0.4c1.7-1.2,3.7-1.3,5.6-0.9C86.9,122.5,87,122,86.7,121.9
			L86.7,121.9z"/>
		<path class="st2" d="M25.9,102c-2.9-5.5-8.2-10.4-12.2-15.2C9.9,82.3,6.2,77,1.6,73.2c-0.4-0.3-1,0.2-0.7,0.6
			c3.4,5.4,8.4,10.1,12.6,14.9c3.8,4.5,7.4,10,11.9,13.7C25.7,102.7,26.1,102.3,25.9,102L25.9,102z"/>
		<path class="st2" d="M0.5,73.1c1.4-0.1,2.5-1,3.7-1.6c1.5-0.8,3.1-1.6,4.5-2.6c0.4-0.3,0.1-1.1-0.4-0.9c-1.4,0.5-2.8,1.5-4.1,2.2
			c-1.3,0.7-2.9,1.4-3.8,2.6C0.2,72.9,0.3,73.1,0.5,73.1L0.5,73.1L0.5,73.1z"/>
		<path class="st2" d="M7.7,67.8c2.8,2.6,6.3,4.3,9.4,6.5c2.7,1.9,5.3,3.8,8,5.6c6.7,4.5,13.4,9.1,20.1,13.7
			c0.9,0.6,2.1-0.7,1.2-1.3c-6.1-4.3-12.4-8.5-18.7-12.6c-3.3-2.2-6.7-4.2-10.1-6.3c-3.3-2-6.2-4.5-9.7-6
			C7.8,67.4,7.6,67.6,7.7,67.8L7.7,67.8z"/>
		<path class="st2" d="M7.9,67.8c0,0,0.1,0,0.1,0c0,0.2,0.2,0.2,0.3,0.2c0.5,0,1,0,1.5-0.1c0.4,0,0.8,0,1.2-0.2
			c0.1-0.1,0.1-0.3,0-0.4c-0.4-0.2-0.8-0.1-1.2-0.1c-0.5,0-1,0.1-1.5,0.1c-0.1,0-0.3,0.1-0.3,0.3c0,0-0.1,0-0.1,0
			C7.8,67.6,7.8,67.8,7.9,67.8z"/>
		<path class="st2" d="M11.1,67.7c5.4,4.7,11.6,8.7,17.8,12.3c3.4,2,6.9,3.8,10.2,6.1c3.2,2.1,6.1,4.7,9.1,7
			c0.4,0.3,0.9-0.2,0.6-0.6c-4.7-5-11-8.6-17-11.8c-7.2-3.9-13.9-8.5-20.6-13.1C11.2,67.5,11,67.7,11.1,67.7z"/>
		<path class="st2" d="M13.8,111.7c4.3,0.1,9.8,0.1,13-3.2c0.2-0.2,0-0.5-0.3-0.5c-4.4,0.6-8.3,2.9-12.8,3.1
			C13.4,111.1,13.4,111.7,13.8,111.7L13.8,111.7z"/>
		<path class="st2" d="M48.5,103.1c2.7-0.5,5.2-1.6,7.8-2.6c2.6-0.9,5.3-1.7,7.7-3c0.2-0.1,0.1-0.5-0.2-0.4
			C58.9,97.7,52.6,99.9,48.5,103.1C48.4,103,48.4,103.1,48.5,103.1L48.5,103.1z"/>
		<path class="st2" d="M66.6,96.1c3.1-0.6,6.4-1.9,9.3-3.2c0.1,0,0-0.2,0-0.1C72.8,93.6,69.4,94.6,66.6,96.1
			C66.5,96.1,66.6,96.1,66.6,96.1L66.6,96.1z"/>
		<path class="st2" d="M62.4,97.8c1.3-0.2,2.6-0.7,3.9-1.1c1.3-0.4,2.7-0.7,3.7-1.4c0.2-0.1,0.1-0.5-0.2-0.4c-1.2,0-2.4,0.6-3.6,0.9
			c-1.3,0.4-2.7,0.8-4,1.4C62,97.4,62,97.9,62.4,97.8L62.4,97.8z"/>
		<path class="st2" d="M155.1,77.6c5.2-1.4,10.3-4,15.2-6.1c4.8-2,9.6-4.1,14.4-6.1c4.6-1.9,9.3-3.8,13.8-5.9c2.9-1.3,5.5-3,7.2-5.7
			c0.3-0.4-0.5-0.9-0.8-0.5c-2.8,4-7.3,5.6-11.6,7.4c-4.3,1.9-8.7,3.7-13.1,5.6c-8.4,3.5-17.6,6.5-25.3,11.2
			C154.9,77.5,155,77.6,155.1,77.6L155.1,77.6z"/>
		<path class="st2" d="M204.7,53.1c-4.2,5.3-12.3,7.2-18.1,10.3c-0.2,0.1,0,0.3,0.1,0.3c4.3-1.8,8.5-3.8,12.7-5.8
			c2.3-1.1,4.4-2.2,5.5-4.5C205,53.1,204.8,52.9,204.7,53.1z"/>
		<path class="st2" d="M157.5,73.4c8-1.6,16.2-5.8,23.6-9.3c7.2-3.4,14.6-6.8,21.2-11.3c0.1-0.1,0-0.3-0.1-0.2
			c-7.5,3.9-14.8,8.2-22.5,11.8c-7.3,3.3-15.1,5.4-22.3,8.9C157.3,73.3,157.3,73.4,157.5,73.4z"/>
		<path class="st2" d="M2.5,71.9c4.8,8.2,16.4,11.9,25.2,9.6c0.4-0.1,0.2-0.7-0.2-0.6C17.4,83,9.3,79.3,2.5,71.9
			C2.5,71.8,2.5,71.8,2.5,71.9L2.5,71.9z"/>
		<path class="st2" d="M3.7,70.8c4.5,3.6,11.1,7.9,17.2,6.1c0.2,0,0.1-0.3-0.1-0.3c-3.7,0.1-6.7-0.3-10-1.9
			c-2.4-1.2-4.6-2.8-6.9-4.3C3.8,70.3,3.6,70.6,3.7,70.8z"/>
		<path class="st2" d="M11.2,83.8c6.9,3.9,15.5,4.2,22.9,1.7c0.4-0.2,0.2-0.8-0.2-0.7c-7.8,2.5-15.1,1.8-22.6-1.2
			C11.1,83.7,11.1,83.8,11.2,83.8L11.2,83.8z"/>
		<path class="st2" d="M13.8,86.9c2.7,3.6,7.2,4.6,11.4,4.3c3.7-0.3,9.8-1.1,11.9-4.8c0.2-0.4-0.4-0.8-0.7-0.3
			c-1.8,3.2-8.8,4.3-12,4.4c-4,0.1-7.4-1.1-10.5-3.7C13.8,86.7,13.7,86.8,13.8,86.9L13.8,86.9z"/>
		<path class="st2" d="M16.7,126.7c7.2-1.6,16-11.3,14.3-19c-0.1-0.4-0.6-0.2-0.5,0.2c1.7,8.2-7.4,15.7-13.8,18.6
			C16.5,126.6,16.5,126.7,16.7,126.7L16.7,126.7z"/>
		<path class="st2" d="M35.2,106.3c0,5.7-2.3,11-6.2,15.1c-1.5,1.6-3.3,3-5.2,4.2c-1.5,0.9-7.1,4.3-8.9,2.6
			c-0.1-0.1-0.3,0.1-0.3,0.2c1.9,3.7,11.4-3.6,13-5.1c4.3-3.9,9.3-10.8,7.7-17C35.3,106.2,35.2,106.2,35.2,106.3L35.2,106.3z"/>
		<path class="st2" d="M39.5,105.2c-0.4,3.5-1.2,6.7-3.7,9.5c0,0,0,0.1,0.1,0.1c2.6-2.4,4.4-5.9,4-9.5C39.9,105,39.5,105,39.5,105.2
			z"/>
		<path class="st2" d="M102.9,53.2c1.3-0.3,2.6-0.8,3.9-1.2c1.5-0.5,3.1-0.8,4.4-1.5c0.1-0.1,0.1-0.2-0.1-0.2
			c-1.5,0.1-2.9,0.6-4.3,1.1c-1.4,0.5-2.8,0.9-4.1,1.7C102.8,53.1,102.8,53.3,102.9,53.2z"/>
		<path class="st2" d="M110.8,50.4c0.3,0.1,0.6,0.4,0.9,0.6c0.3,0.2,0.5,0.4,0.8,0.6c0.3,0.3,0.5,0.5,0.6,0.9
			c0.1,0.2,0.2,0.4,0.5,0.5c0.1,0,0.2,0,0.2-0.1c0.2-0.6-0.5-1.3-0.9-1.7c-0.3-0.3-0.6-0.5-0.9-0.7c-0.4-0.2-0.7-0.3-1.1-0.4
			C110.7,50.1,110.7,50.3,110.8,50.4L110.8,50.4z"/>
		<path class="st2" d="M113.6,52.9C113.6,52.9,113.6,52.9,113.6,52.9C113.6,52.9,113.6,52.9,113.6,52.9z"/>
		<path class="st2" d="M113.3,52.9c-0.1,0.5-0.2,1.1-0.1,1.6c0,0.1,0.1,0.1,0.1,0c0.2-0.4,0.2-1.1,0.2-1.6
			C113.5,52.8,113.3,52.7,113.3,52.9L113.3,52.9z"/>
		<path class="st2" d="M113.1,51.8c0.1,0.5,0.1,1,0.2,1.5c0.1,0.4,0.1,0.8,0.4,1.2c0,0.1,0.2,0.1,0.2,0c0.1-0.4-0.1-0.8-0.2-1.2
			c-0.1-0.5-0.3-1-0.4-1.5C113.3,51.6,113.1,51.6,113.1,51.8z"/>
		<path class="st2" d="M111.9,51.5c0.5,0.4,0.9,1,1.1,1.6c0.2,0.6,0,1.1,0.1,1.7c0,0.1,0.2,0.1,0.2,0.1c0.5-0.4,0.4-1.4,0.2-2
			c-0.2-0.8-0.8-1.4-1.5-1.7C111.9,51.2,111.8,51.4,111.9,51.5z"/>
		<path class="st2" d="M111.8,51.7c0.4,0.4,0.8,0.8,1,1.3c0.2,0.4,0.2,0.9,0.5,1.2c0.1,0.1,0.2,0,0.2,0c0.3-0.4,0-1.1-0.3-1.5
			c-0.3-0.5-0.7-1-1.2-1.3C111.8,51.3,111.6,51.6,111.8,51.7L111.8,51.7z"/>
		<path class="st2" d="M113.3,55c-0.5,0.1-1.1,0.2-1.5,0.5c-0.1,0.1-0.1,0.3,0.1,0.3c0.5,0,1.1-0.3,1.5-0.5
			C113.6,55.2,113.5,54.9,113.3,55L113.3,55z"/>
		<path class="st2" d="M114.3,56.8c1.5-0.7,3-1.2,4.5-1.8c0.2-0.1,0.1-0.4-0.1-0.4c-1.6,0.2-3.2,1-4.6,1.9
			C114,56.7,114.1,56.8,114.3,56.8L114.3,56.8z"/>
		<path class="st2" d="M119,54.7c1.6,0.2,2.8,1,3.8,2.4c0.3,0.5,1,0,0.7-0.5c-0.8-1.6-2.7-2.5-4.4-2.3
			C118.8,54.3,118.8,54.7,119,54.7L119,54.7z"/>
		<path class="st2" d="M123.3,57.6c-0.1,0.6-0.5,0.9-0.9,1.2c-0.1,0.1,0,0.2,0.1,0.2c0.6-0.1,1-0.7,1.1-1.3
			C123.6,57.5,123.4,57.4,123.3,57.6z"/>
		<path class="st2" d="M123,58.2c0.1-0.3,0.4-0.6,0.3-0.9c0-0.1-0.1-0.1-0.2-0.1c-0.3,0.1-0.4,0.5-0.5,0.8
			C122.5,58.2,122.8,58.4,123,58.2z"/>
		<path class="st2" d="M104.7,123.3c1.1-0.1,2.5,0.1,3.5-0.4c0.2-0.1,0.1-0.3,0-0.3c-1.1-0.3-2.4,0-3.5,0.1
			C104.2,122.7,104.3,123.3,104.7,123.3z"/>
		<path class="st2" d="M103.1,123.2c0.7,0.1,1.3,0.1,2,0.1c0.6,0,1.4,0,2-0.3c0.2-0.1,0.2-0.3,0-0.4c-0.6-0.2-1.3-0.1-2,0
			c-0.7,0.1-1.3,0.2-1.9,0.3C103,123,103,123.2,103.1,123.2z"/>
		<path class="st2" d="M107.7,119.2c-0.6,0.6-1.2,1.2-1.7,1.9c-0.5,0.5-1,1.1-1.2,1.7c0,0.1,0.1,0.1,0.2,0.1
			c0.7-0.4,1.1-1.1,1.6-1.7c0.5-0.6,1-1.2,1.4-1.9C108,119.2,107.8,119.1,107.7,119.2L107.7,119.2z"/>
		<path class="st2" d="M107.9,120.4c-0.4,0.3-0.8,0.6-1.1,1c-0.2,0.3-0.6,0.7-0.5,1.1c0,0.1,0.1,0.1,0.2,0.1
			c0.3-0.2,0.4-0.6,0.6-0.9c0.3-0.4,0.6-0.7,0.9-1C108.3,120.6,108.1,120.3,107.9,120.4L107.9,120.4z"/>
		<path class="st2" d="M107.2,122.5c4.3,5.3,13.4,2.6,18.3-0.1c0.3-0.2,0-0.7-0.3-0.6c-3.2,0.9-6.1,2.4-9.6,2.6
			c-3.2,0.2-5.5-0.7-8.3-2.2C107.2,122.3,107.1,122.4,107.2,122.5L107.2,122.5z"/>
		<path class="st2" d="M125,122.5c0.9-2.2,1.7-5.1,0.7-7.4c-0.1-0.1-0.3-0.1-0.3,0c-0.3,2.5,0,4.9-0.6,7.4
			C124.8,122.6,125,122.6,125,122.5L125,122.5z"/>
		<path class="st2" d="M125.4,114c-3.4-1.8-9.2-2.2-12.5,0c-0.2,0.1-0.1,0.5,0.2,0.5c1.9-0.2,3.8-0.9,5.7-0.9
			c2.2-0.1,4.3,0.3,6.5,0.6C125.4,114.3,125.5,114.1,125.4,114L125.4,114z"/>
		<path class="st2" d="M124.1,114.2c0.1,0.4,0.2,0.9,0.5,1.2c0.1,0.1,0.3,0,0.3-0.1c0.1-0.4-0.2-0.9-0.4-1.3
			C124.4,113.7,124.1,113.9,124.1,114.2L124.1,114.2z"/>
		<path class="st2" d="M113,114.5c-1,0.6-1.8,1.4-2.7,2.1c-0.7,0.6-1.6,1.2-2,2c-0.1,0.2,0.2,0.4,0.4,0.3c0.9-0.4,1.6-1.3,2.2-2
			C111.6,116.2,112.4,115.4,113,114.5C113.1,114.5,113,114.4,113,114.5L113,114.5z"/>
		<path class="st2" d="M114.4,113.8c-0.8,0.7-1.5,1.4-2.3,2.1c-0.8,0.8-1.8,1.5-2.4,2.4c-0.1,0.2,0.1,0.5,0.3,0.3
			c0.8-0.6,1.5-1.4,2.3-2.2c0.8-0.8,1.6-1.6,2.4-2.5C114.6,113.9,114.5,113.7,114.4,113.8L114.4,113.8z"/>
		<path class="st2" d="M115.5,113.7c-1.4,1.2-2.9,2.3-4.2,3.6c-0.2,0.2,0.1,0.6,0.3,0.4c1.4-1.1,2.7-2.5,4-3.7
			C115.8,113.8,115.6,113.6,115.5,113.7L115.5,113.7z"/>
		<path class="st2" d="M116.2,113.6c-0.5,0.7-1.2,1.4-1.8,2c-0.6,0.6-1.4,1.1-1.8,1.7c-0.1,0.2,0.1,0.3,0.3,0.3
			c0.7-0.2,1.4-1,1.9-1.5c0.7-0.7,1.2-1.4,1.8-2.2C116.7,113.7,116.3,113.4,116.2,113.6L116.2,113.6z"/>
		<path class="st2" d="M124,113.5c-2.9-1.1-7.3-0.6-10.1,0.8c-0.2,0.1-0.1,0.4,0.1,0.4c1.8,0,3.5-0.4,5.3-0.6
			C121,113.9,122.5,114,124,113.5C124.1,113.6,124.1,113.5,124,113.5L124,113.5z"/>
		<path class="st2" d="M107.2,121.7c4.4,3.2,13.1,3.7,17.5,0.2c0.2-0.2,0.1-0.7-0.2-0.6c-2.7,0.5-5.2,1.5-8,1.6
			c-3.2,0.1-5.9-0.9-9-1.7C107.2,121.2,106.9,121.5,107.2,121.7L107.2,121.7z"/>
		<path class="st2" d="M125.1,120.3c-0.4,0.1-0.7,0.2-1.1,0.4c-0.3,0.2-0.5,0.3-0.8,0.6c-0.1,0.1,0,0.3,0.1,0.3
			c0.4-0.1,0.6-0.1,0.9-0.3c0.4-0.2,0.6-0.5,1-0.7C125.4,120.5,125.3,120.3,125.1,120.3L125.1,120.3z"/>
		<path class="st2" d="M123.3,103.5c1.3,0.7,4.1,0.9,5.2-0.2c0.2-0.2,0-0.4-0.2-0.4c-0.8-0.1-1.6,0.3-2.5,0.4
			c-0.8,0-1.7-0.1-2.5-0.2C123.1,103,123.1,103.4,123.3,103.5L123.3,103.5z"/>
		<path class="st2" d="M128.7,103.4c4.6,2.6,12,0.7,16.2-2c0.1-0.1,0.1-0.4-0.1-0.3c-2.2,0.4-4.3,1.3-6.5,1.9
			c-3.2,0.8-6.1,0.6-9.4,0.2C128.6,103.1,128.5,103.3,128.7,103.4L128.7,103.4z"/>
		<path class="st2" d="M145,101.4c1.3-2.4,0.6-6.7-1.3-8.8c-0.1-0.1-0.4,0-0.4,0.2c0.1,1.2,0.7,2.3,1,3.5c0.4,1.7,0.5,3.2,0.2,4.9
			C144.6,101.5,144.9,101.7,145,101.4L145,101.4z"/>
		<path class="st2" d="M144.3,93.6c1.1,2.6,1.1,4.9,0,7.5c-0.2,0.4,0.4,0.8,0.7,0.3c1.4-2.4,1.3-5.7-0.1-8.1
			C144.7,93,144.2,93.3,144.3,93.6L144.3,93.6z"/>
		<path class="st2" d="M143.4,92.6c-2.2-0.9-6.1-0.9-8.1,0.7c-0.1,0.1-0.1,0.3,0.1,0.3c1.3-0.2,2.6-0.7,3.9-0.9c1.3-0.1,2.7,0,4,0
			C143.4,92.7,143.4,92.6,143.4,92.6z"/>
		<path class="st2" d="M136.4,92.8c-1.7,1.1-3.2,2.5-4.8,3.8c-1.4,1.2-2.9,2.3-4.1,3.6c-0.1,0.1,0,0.2,0.1,0.2
			c1.7-1.1,3.2-2.5,4.7-3.8c1.4-1.2,2.8-2.3,4.1-3.6C136.6,92.9,136.5,92.8,136.4,92.8z"/>
		<path class="st2" d="M137.6,92.5c-3.5,2.8-6.7,5.9-9.8,9.1c-0.1,0.1,0.1,0.3,0.2,0.2c3.4-2.9,6.8-5.8,9.8-9.1
			C137.9,92.6,137.8,92.4,137.6,92.5L137.6,92.5z"/>
		<path class="st2" d="M137.9,93.3c-3,1.7-6.5,4.8-8,7.8c-0.1,0.1,0.1,0.2,0.2,0.1c1.3-1.3,2.4-2.8,3.8-4.2c1.3-1.3,2.8-2.4,4.2-3.7
			C138,93.3,137.9,93.3,137.9,93.3z"/>
		<path class="st2" d="M137.6,93.9c-0.8,0.9-1.6,1.8-2.5,2.7c-0.9,0.9-1.9,1.6-2.6,2.5c-0.1,0.1,0.1,0.3,0.2,0.2
			c2.1-1.1,3.9-3.4,5.1-5.3C138,93.9,137.7,93.8,137.6,93.9L137.6,93.9z"/>
		<path class="st2" d="M138.7,92.9c-0.8,0.3-1.4,0.6-2.1,1.1c-0.5,0.4-1.2,0.9-1.3,1.6c0,0.1,0.1,0.2,0.2,0.2c0.6-0.3,1-1,1.5-1.4
			c0.5-0.4,1.1-0.9,1.7-1.2C139,93.1,138.9,92.9,138.7,92.9L138.7,92.9z"/>
		<path class="st2" d="M139,93c-0.4,0.4-0.8,0.7-1.2,1.1c-0.3,0.3-0.8,0.6-1,1.1c0,0.1,0,0.2,0.1,0.2c0.4-0.2,0.7-0.6,1.1-0.9
			c0.4-0.4,0.8-0.8,1.2-1.2C139.5,93.1,139.2,92.8,139,93z"/>
		<path class="st2" d="M142.6,92.7c-1.9,0.1-4.2,0.4-5.8,1.5c-0.2,0.1-0.1,0.5,0.1,0.4c0.9-0.1,1.8-0.6,2.7-0.8c1-0.3,2-0.6,3-0.9
			C142.8,92.9,142.7,92.7,142.6,92.7L142.6,92.7z"/>
		<path class="st2" d="M144.9,93.5c-1.7-1.4-4.9-2.4-7-1.7c-0.3,0.1-0.2,0.4,0,0.5c1.1,0.4,2.3,0.3,3.4,0.6c1.1,0.3,2.2,0.7,3.3,1
			C144.9,94,145.1,93.7,144.9,93.5L144.9,93.5z"/>
		<path class="st2" d="M142.8,94.2c0.4,1.4,0.8,2.6,0.6,4.1c-0.2,1.4-0.8,2.3-1.4,3.5c-0.1,0.1,0.1,0.3,0.2,0.2
			c2.2-1.6,2.6-5.9,0.9-8C143,93.9,142.8,94,142.8,94.2L142.8,94.2z"/>
		<path class="st2" d="M145,99.3c-0.4,0.4-0.8,0.7-1.2,1.1c-0.4,0.4-0.7,0.8-1.1,1.2c-0.3,0.3,0.2,0.7,0.5,0.4
			c0.4-0.4,0.7-0.8,1-1.2c0.3-0.4,0.6-0.9,0.9-1.4C145.1,99.3,145,99.3,145,99.3L145,99.3z"/>
		<path class="st2" d="M143.2,101.3c-0.5,0.2-1,0.3-1.5,0.6c-0.4,0.2-0.9,0.4-1.2,0.7c-0.1,0.1,0,0.4,0.2,0.4c0.5,0,0.9-0.3,1.3-0.6
			c0.5-0.3,0.9-0.6,1.3-1C143.3,101.4,143.2,101.3,143.2,101.3z"/>
		<path class="st2" d="M142.7,100.4c-0.7,0.3-1.6,0.5-2.2,1c-0.1,0.1-0.1,0.3,0.1,0.3c0.8-0.1,1.6-0.6,2.3-0.9
			C143.1,100.7,142.9,100.3,142.7,100.4L142.7,100.4z"/>
		<path class="st2" d="M131.9,100c-0.5,0.4-0.9,0.8-1.3,1.3c-0.4,0.4-0.8,0.8-1.1,1.3c-0.1,0.2,0.1,0.3,0.2,0.2
			c0.5-0.3,0.8-0.8,1.2-1.2c0.4-0.5,0.8-0.9,1.2-1.4C132.1,100.1,132,99.9,131.9,100L131.9,100z"/>
		<path class="st2" d="M133.4,99.9c-0.5,0.5-1,1-1.5,1.5c-0.4,0.4-1.1,0.9-1.3,1.5c0,0.1,0,0.2,0.1,0.2c0.6-0.2,0.9-0.9,1.3-1.3
			c0.5-0.6,1-1.1,1.5-1.7C133.7,100,133.5,99.8,133.4,99.9L133.4,99.9z"/>
		<path class="st2" d="M134.2,100.6c-0.5,0.5-0.9,0.9-1.4,1.4c-0.4,0.4-0.9,0.8-1,1.3c0,0.1,0.1,0.2,0.2,0.2
			c0.5-0.2,0.8-0.8,1.2-1.1c0.4-0.5,0.8-1,1.3-1.5C134.5,100.7,134.3,100.5,134.2,100.6L134.2,100.6z"/>
		<path class="st2" d="M135.4,100.6c-0.3,0.3-0.6,0.7-0.9,1c-0.2,0.3-0.5,0.6-0.6,1c0,0.1,0.1,0.2,0.2,0.1c0.7-0.4,1.1-1.3,1.4-2
			C135.6,100.6,135.5,100.5,135.4,100.6L135.4,100.6z"/>
		<path class="st2" d="M136.4,100.8c-0.3,0.4-0.7,0.8-1,1.2c-0.3,0.4-0.7,0.7-0.8,1.2c-0.1,0.1,0.1,0.3,0.2,0.2
			c0.4-0.3,0.7-0.7,1-1.1c0.3-0.4,0.6-0.8,1-1.3C136.9,100.9,136.6,100.6,136.4,100.8z"/>
		<path class="st2" d="M136.9,101.4c0,0.5-0.2,0.9-0.5,1.2c-0.1,0.1-0.3,0.3-0.4,0.4c-0.2,0.1-0.4,0.1-0.5,0.3
			c-0.1,0.1-0.1,0.2,0.1,0.3c0.5,0.2,1-0.4,1.2-0.7c0.3-0.4,0.5-0.9,0.4-1.5C137.2,101.1,136.9,101.1,136.9,101.4L136.9,101.4z"/>
		<path class="st2" d="M138.4,102c-0.1,0.3-0.2,0.6-0.5,0.8c-0.2,0.1-0.4,0.2-0.5,0.4c0,0.1,0,0.1,0,0.2c0.3,0.2,0.7-0.1,0.9-0.3
			c0.3-0.3,0.5-0.6,0.6-1C139,101.8,138.5,101.7,138.4,102L138.4,102z"/>
		<path class="st2" d="M142.4,100.3c-2.7,0.3-5.8,1-8.4,1.9c-0.1,0.1-0.1,0.3,0.1,0.3c2.7-0.3,5.8-1,8.4-2
			C142.5,100.5,142.5,100.3,142.4,100.3L142.4,100.3z"/>
		<path class="st2" d="M109.1,120.4c4.5,2.9,10.9,2.3,15.4-0.2c0.1-0.1,0-0.3-0.1-0.2c-5.3,2.6-9.8,2.1-15.2,0.2
			C109.1,120.3,109,120.4,109.1,120.4z"/>
		<path class="st2" d="M108.5,93.5c-3.1,2.5-6.4,5.6-8,9.3c0,0.1,0.1,0.2,0.2,0.1c1.2-1.6,2.1-3.2,3.4-4.8c1.4-1.6,2.9-3.2,4.5-4.5
			C108.7,93.6,108.6,93.4,108.5,93.5L108.5,93.5z"/>
		<path class="st2" d="M109.9,93c-2.6,2.7-5.2,5.5-7.6,8.5c-0.1,0.1,0,0.2,0.1,0.1C105.1,98.9,107.6,95.9,109.9,93
			C110,93,109.9,92.9,109.9,93L109.9,93z"/>
		<path class="st2" d="M111.6,92.3c-2.5,1.8-5.4,4.3-6.6,7.2c0,0.1,0.1,0.2,0.2,0.1c1-1.2,1.8-2.5,2.8-3.7c1.1-1.3,2.4-2.5,3.7-3.5
			C111.7,92.3,111.6,92.2,111.6,92.3L111.6,92.3z"/>
		<path class="st2" d="M112.3,92.5c-1.8,1.8-4,3.6-5.4,5.7c-0.1,0.1,0.1,0.2,0.1,0.1C109,96.8,110.7,94.5,112.3,92.5
			C112.4,92.5,112.3,92.5,112.3,92.5L112.3,92.5z"/>
		<path class="st2" d="M112.7,92.9c-0.7,0.8-1.5,1.6-2.2,2.5c-0.6,0.7-1.4,1.5-1.8,2.4c0,0.1,0.1,0.2,0.1,0.1
			c0.8-0.6,1.3-1.5,1.9-2.2C111.5,94.8,112.2,93.9,112.7,92.9C112.8,92.9,112.8,92.8,112.7,92.9L112.7,92.9z"/>
		<path class="st2" d="M122.6,86.1c-4.3,1.7-9,4-12.3,7.2c-0.1,0.1,0,0.2,0.1,0.2c4.1-2.4,7.9-5.2,12.2-7.3
			C122.7,86.2,122.7,86.1,122.6,86.1L122.6,86.1z"/>
		<path class="st2" d="M128.2,83c-4.7,1.5-9.3,4.1-13.1,7.2c-0.1,0.1,0,0.3,0.1,0.2C119.4,87.7,123.7,85.4,128.2,83
			C128.2,83.1,128.2,83,128.2,83L128.2,83z"/>
		<path class="st2" d="M127.1,84.2c-4.2,1.7-8.9,3.8-12.3,6.8c-0.1,0.1,0,0.2,0.1,0.2C119,89.2,123,86.4,127.1,84.2
			C127.2,84.3,127.1,84.2,127.1,84.2L127.1,84.2z"/>
		<path class="st2" d="M125.3,86.6c-4.5,1.6-9,3.8-12.7,6.9c-0.2,0.2,0,0.4,0.2,0.3c4.1-2.6,8-5.1,12.5-7
			C125.5,86.7,125.4,86.6,125.3,86.6L125.3,86.6z"/>
		<path class="st2" d="M124.3,88.6c-4,1.2-8.5,3.2-11.6,6.1c-0.1,0.1,0,0.1,0.1,0.1c3.9-2,7.5-4.3,11.5-6.1
			C124.4,88.7,124.4,88.6,124.3,88.6L124.3,88.6z"/>
		<path class="st2" d="M140.9,76.9c-5.1,2.3-10.4,4.7-15.4,7.3c-0.2,0.1,0,0.4,0.2,0.3C130.9,82.6,136.1,80,140.9,76.9
			C140.9,77,140.9,76.9,140.9,76.9z"/>
		<path class="st2" d="M145.7,75.7c-3.9,1.2-7.8,2.7-11.3,4.8c-0.2,0.1,0,0.4,0.2,0.3c3.8-1.6,7.4-3.4,11.2-4.9
			C145.9,75.9,145.9,75.7,145.7,75.7L145.7,75.7z"/>
		<path class="st2" d="M106.1,97.9c-2.5,3-4.9,6.1-7.3,9.2c-2.1,2.7-4.6,5.4-6.4,8.4c-0.1,0.1,0.1,0.2,0.2,0.2
			c5.2-5,9.7-11.6,13.7-17.6C106.4,97.9,106.2,97.8,106.1,97.9L106.1,97.9z"/>
		<path class="st2" d="M105.9,99.5c-4.2,4.9-8.9,9.8-12.3,15.2c-0.1,0.1,0.1,0.2,0.2,0.1C98.4,110.4,102.2,104.7,105.9,99.5
			C106,99.5,105.9,99.5,105.9,99.5L105.9,99.5z"/>
		<path class="st2" d="M104,103.3c-3.1,3.2-6.3,6.7-8.7,10.4c-0.1,0.1,0.1,0.3,0.2,0.2C98.7,110.7,101.5,107,104,103.3
			C104.1,103.3,104.1,103.2,104,103.3z"/>
		<path class="st2" d="M93.2,115.8c-5.6,10.7-15.9,17.8-21.6,28.5c-0.1,0.3,0.2,0.4,0.4,0.2C78.1,134.1,88,126.6,93.2,115.8
			C93.3,115.8,93.2,115.7,93.2,115.8z"/>
		<path class="st2" d="M82.6,132.1c-3.7,3.5-8.1,7.6-10.2,12.3c-0.1,0.1,0.1,0.2,0.2,0.1c1.8-1.9,3.2-4.3,4.8-6.3
			c1.7-2.1,3.4-4.1,5.3-6C82.8,132.1,82.7,132,82.6,132.1z"/>
		<path class="st2" d="M81.9,133.6c-2.6,3.2-5.5,6.4-7.7,9.8c-0.1,0.1,0.1,0.2,0.2,0.1c2.8-3,5.2-6.6,7.7-9.8
			C82.1,133.7,82,133.6,81.9,133.6L81.9,133.6z"/>
		<path class="st2" d="M91.4,119.3c-1.7,2.7-3.6,5.2-5.4,7.9c-0.1,0.1,0.1,0.2,0.1,0.1C88.2,124.8,89.9,122.1,91.4,119.3
			C91.5,119.2,91.4,119.2,91.4,119.3L91.4,119.3z"/>
		<path class="st2" d="M50.2,101.8c-1.3,2.1-3,4.4-3.8,6.7c0,0.1,0.1,0.2,0.2,0.1c1.6-1.9,2.8-4.5,3.9-6.7
			C50.6,101.8,50.3,101.6,50.2,101.8L50.2,101.8z"/>
		<path class="st2" d="M53,101.7c-1,1.1-1.8,2.3-2.6,3.5c-0.7,1.2-1.5,2.6-1.7,4c0,0.1,0.1,0.2,0.2,0.1c0.8-1.1,1.1-2.5,1.8-3.7
			c0.7-1.3,1.6-2.6,2.4-3.9C53.2,101.7,53.1,101.6,53,101.7L53,101.7z"/>
		<path class="st2" d="M56.7,99.9c-1.9,2.7-3.8,5.6-4.9,8.8c0,0.1,0.1,0.1,0.2,0.1c1.7-2.8,3.1-5.9,4.9-8.7
			C56.9,99.9,56.8,99.8,56.7,99.9z"/>
		<path class="st2" d="M59.3,99.3c-1.7,2.6-3.4,5.2-4.8,8c0,0.1,0.1,0.2,0.1,0.1c1.9-2.5,3.4-5.2,5.1-7.9
			C59.8,99.3,59.4,99.1,59.3,99.3z"/>
		<path class="st2" d="M61.5,98.7c-1.3,1.9-2.7,3.7-3.8,5.7c0,0.1,0.1,0.2,0.2,0.1c1.4-1.8,2.6-3.8,3.8-5.7
			C61.8,98.7,61.6,98.6,61.5,98.7L61.5,98.7z"/>
		<path class="st2" d="M63.9,97.5c-1.1,1.6-2.1,3.3-2.9,5.1c0,0.1,0.1,0.1,0.1,0.1C62.1,101,63,99.3,63.9,97.5
			C64,97.5,63.9,97.5,63.9,97.5z"/>
		<path class="st2" d="M65.1,97.9c-0.3,0.6-0.6,1.1-1,1.7c-0.3,0.5-0.6,1-0.8,1.5c0,0.1,0.1,0.1,0.1,0.1c0.4-0.4,0.6-1,0.9-1.5
			c0.3-0.6,0.6-1.1,0.9-1.7C65.3,97.8,65.2,97.8,65.1,97.9L65.1,97.9z"/>
		<path class="st2" d="M66.5,97c-0.7,1.3-1.5,2.6-2,4c0,0.1,0.1,0.2,0.1,0.1c0.8-1.2,1.4-2.7,2.1-4C66.7,96.9,66.5,96.8,66.5,97z"/>
		<path class="st2" d="M158.8,74.7c0.2-0.3,0.9-0.1,0.7,0.3c-0.1,0.3-0.6,0.4-0.8,0c0-0.1-0.1,0-0.1,0c0.2,0.4,0.9,0.4,1,0
			C159.8,74.4,159,74.2,158.8,74.7C158.6,74.6,158.7,74.7,158.8,74.7L158.8,74.7z"/>
		<path class="st2" d="M159.3,72.6c-0.4,1-1,2-1.1,3.1c0,0.1,0.1,0.2,0.2,0.1c0.6-0.9,0.8-2.1,1.1-3.1
			C159.5,72.6,159.4,72.5,159.3,72.6z"/>
		<path class="st2" d="M160.6,71.3c-0.3,1.1-0.8,2.4-0.9,3.5c0,0.2,0.2,0.3,0.3,0.1c0.5-1.1,0.7-2.4,1-3.6
			C161.1,71.1,160.6,71.1,160.6,71.3L160.6,71.3z"/>
		<path class="st2" d="M162.6,72.3c-0.2,0.4-0.4,0.8-0.7,1.2c-0.1,0.2,0.2,0.4,0.3,0.2c0.3-0.4,0.5-0.8,0.7-1.2
			C163.1,72.3,162.7,72.1,162.6,72.3z"/>
		<path class="st2" d="M165.7,70.6c-0.3,0.2-0.5,0.3-0.7,0.5c-0.1,0.1,0,0.3,0.2,0.3c0.3-0.1,0.5-0.3,0.8-0.4
			C166.1,70.8,165.9,70.4,165.7,70.6L165.7,70.6z"/>
		<path class="st2" d="M167.5,69.4c-0.2,0.4-0.5,0.8-0.7,1.2c-0.1,0.1,0.1,0.2,0.2,0.1c0.3-0.4,0.5-0.8,0.7-1.2
			C167.8,69.4,167.6,69.2,167.5,69.4L167.5,69.4z"/>
		<path class="st2" d="M94.5,65.6c2.1,2.2,4.3,4.4,6.7,6.3c0.1,0.1,0.3-0.1,0.2-0.2C99.1,69.7,96.8,67.6,94.5,65.6
			C94.5,65.5,94.5,65.6,94.5,65.6z"/>
		<path class="st2" d="M95.7,65.9c1.2,1.1,2.3,2.1,3.5,3.2c1,0.9,2,2,3.2,2.8c0,0,0.1,0,0.1-0.1c-0.9-1.1-2.1-1.9-3.1-2.9
			C98.1,67.9,97,66.8,95.7,65.9C95.7,65.8,95.7,65.8,95.7,65.9L95.7,65.9z"/>
		<path class="st2" d="M97.2,66.3c1.9,1.9,4,4.3,6.4,5.5c0.1,0,0.2-0.1,0.1-0.1c-0.9-1-2.2-1.8-3.2-2.7C99.3,68,98.3,67.1,97.2,66.3
			C97.2,66.2,97.2,66.2,97.2,66.3L97.2,66.3z"/>
		<path class="st2" d="M98.6,66.2c2,1.5,3.6,3.2,5.5,4.9c0.1,0.1,0.2,0,0.1-0.1c-1.3-2-3.5-3.7-5.5-4.9C98.7,66,98.6,66.2,98.6,66.2
			z"/>
		<path class="st2" d="M102.2,67.6c1.2,1.1,2.4,2.3,3.7,3.2c0.1,0.1,0.2,0,0.1-0.1c-1.1-1.2-2.4-2.2-3.6-3.3
			C102.2,67.2,102,67.4,102.2,67.6L102.2,67.6z"/>
		<path class="st2" d="M63.8,45.1c0.9,1,2.2,1.7,3.3,2.4c1.3,0.9,2.5,1.8,3.9,2.5c0.1,0.1,0.2-0.1,0.1-0.2c-0.4-0.2-0.7-0.5-1.1-0.7
			c0,0-0.1,0,0,0c0.1,0.1,0.7,0.8,0.7,0.5c0-0.3-0.4-0.4-0.6-0.6c-0.6-0.4-1.2-0.8-1.9-1.2c-1.4-0.9-2.8-2.1-4.4-2.7
			C63.8,45,63.7,45.1,63.8,45.1L63.8,45.1z"/>
		<path class="st2" d="M63.9,44.2c1.3,0.9,2.6,1.8,3.9,2.7c1.5,1,2.9,2.1,4.6,2.8c0.1,0,0.1-0.1,0.1-0.1c-1.2-1.1-2.6-1.8-3.9-2.7
			C67,46,65.5,45,63.9,44.2C63.9,44.1,63.9,44.2,63.9,44.2L63.9,44.2z"/>
		<path class="st2" d="M67,45.2c2.4,1.5,4.5,3.3,6.9,4.9c0.1,0.1,0.2-0.1,0.1-0.2c-1.8-2-4.5-3.6-6.9-4.8C67,45.1,67,45.2,67,45.2z"
			/>
		<path class="st2" d="M69.4,46.2c0.7,0.5,1.3,0.9,2,1.4c0,0,0,0,0,0C70.8,47.1,70.1,46.6,69.4,46.2C69.4,46.1,69.4,46.2,69.4,46.2z
			"/>
		<path class="st2" d="M70.8,49.2c3.9,2.3,7.7,4.7,11.6,6.8c0.1,0,0.2-0.1,0.1-0.2C78.8,53.3,74.8,51.1,70.8,49.2
			C70.7,49.1,70.7,49.1,70.8,49.2L70.8,49.2z"/>
		<path class="st2" d="M74.7,50.8c3.9,3,7.7,6.1,11.7,8.9c0.1,0.1,0.2-0.1,0.1-0.1C82.8,56.4,78.7,53.6,74.7,50.8
			C74.7,50.7,74.7,50.7,74.7,50.8L74.7,50.8z"/>
		<path class="st2" d="M117.5,62.1c2.1,1,4.5,2,6.8,2.6c0.1,0,0.1-0.1,0.1-0.1c-2.1-1.1-4.5-1.9-6.7-2.6
			C117.5,61.8,117.4,62,117.5,62.1z"/>
		<path class="st2" d="M118.3,61.5c2.4,0.8,4.9,1.8,7.4,2.2c0.1,0,0.1-0.1,0-0.1c-2.4-1-5-1.6-7.4-2.2
			C118.3,61.4,118.3,61.5,118.3,61.5z"/>
		<path class="st2" d="M118.6,60.3c2.7,1,5.4,2,8.2,2.6c0.1,0,0.1-0.1,0.1-0.2c-2.6-1.1-5.5-1.9-8.2-2.6
			C118.6,60.2,118.6,60.3,118.6,60.3z"/>
		<path class="st2" d="M120.5,59.9c1.3,0.4,2.7,0.9,4,1.4c1,0.4,2,0.9,3.1,1.2c0.1,0,0.2-0.2,0.1-0.2c-2-1.3-4.8-2-7.1-2.6
			C120.4,59.6,120.3,59.9,120.5,59.9L120.5,59.9z"/>
		<path class="st2" d="M122.4,59.9c1.6,0.4,3.1,0.9,4.7,1.5c0.2,0.1,1.8,0.7,1.8,0.7c0.1-0.3-1-0.6-1.3-0.7c0,0-0.1,0,0,0.1
			c0.6,0.3,1.2,0.5,1.8,0.8c0.1,0.1,0.2-0.1,0.1-0.2c-2.1-1.2-4.7-1.9-7-2.6C122.3,59.5,122.2,59.8,122.4,59.9L122.4,59.9z"/>
		<path class="st2" d="M125.1,60.4c2.1,0.8,4.2,1.7,6.3,2.3c0.2,0,0.3-0.2,0.1-0.3c-2-0.9-4.2-1.6-6.3-2.3
			C125.1,59.9,124.9,60.3,125.1,60.4z"/>
		<path class="st2" d="M104.9,54.8c5.4,0.9,10.5,2.3,15.7,4.1c0.1,0,0.1-0.1,0-0.1C115.6,56.7,110.3,55.5,104.9,54.8
			C104.8,54.8,104.8,54.8,104.9,54.8L104.9,54.8z"/>
		<path class="st2" d="M103.3,54.8c5.9,1.2,11.5,2.9,17.2,5c0,0,0.1,0,0-0.1C115.1,57.2,109.3,55.6,103.3,54.8
			C103.3,54.7,103.3,54.8,103.3,54.8L103.3,54.8z"/>
		<path class="st2" d="M106.5,55.7c4.7,1.1,9.2,2.6,13.8,4.3c0.2,0.1,0.3-0.2,0.1-0.2C115.9,57.9,111.2,56.6,106.5,55.7
			C106.5,55.7,106.5,55.7,106.5,55.7L106.5,55.7z"/>
		<path class="st2" d="M90,50.7c5,1.9,10.1,3.6,15.2,5c0.2,0,0.2-0.2,0.1-0.3c-5-1.7-10.2-3.2-15.3-4.8C90,50.5,90,50.6,90,50.7
			L90,50.7z"/>
		<path class="st2" d="M22.8,105c-1.2,0.8-2.3,1.7-3.3,2.7c-1,1-2.2,2-2.8,3.2c-0.1,0.1,0.1,0.2,0.2,0.2c1.1-0.8,1.9-2,2.8-2.9
			c1-1,2.2-2,3.2-3.1C23,105,22.9,104.9,22.8,105L22.8,105z"/>
		<path class="st2" d="M24.8,103.2c-1.9,1.2-3.8,2.5-5.6,3.8c-0.8,0.6-2.9,1.5-3.1,2.5c0,0.1,0,0.2,0.1,0.2c0.2,0.1,0.2,0.1,0.4,0
			c0.1,0,0.1-0.1,0.1-0.2l0-0.1c0-0.1-0.3-0.1-0.3,0c0-0.3,2.1-1.5,2.5-1.7c0.6-0.5,1.3-0.9,1.9-1.4
			C22.2,105.3,23.5,104.3,24.8,103.2C24.9,103.2,24.8,103.1,24.8,103.2L24.8,103.2z"/>
		<path class="st2" d="M25.4,102.6c-1.9,1.6-3.8,3.1-5.7,4.7c-0.8,0.7-2.8,1.7-2.9,2.9c0,0.1,0.1,0.2,0.2,0.2c0.1,0,0.1,0,0.2,0.1
			c0.1,0,0.1,0,0.2-0.1l0.1-0.2c0.1-0.1-0.1-0.2-0.2-0.2C20.2,107.8,22.8,105.1,25.4,102.6C25.6,102.6,25.5,102.5,25.4,102.6
			L25.4,102.6z"/>
		<path class="st2" d="M27.1,101.9c-1.4,1-2.7,2.1-4,3.2c-1,0.9-2.3,1.8-3,2.9c-0.1,0.1,0.1,0.2,0.1,0.1c1.3-0.7,2.3-1.9,3.3-2.9
			C24.7,104.2,25.9,103.1,27.1,101.9C27.1,101.9,27.1,101.9,27.1,101.9z"/>
		<path class="st2" d="M27.9,102.3c-2.5,1.8-5.5,4-7.2,6.6c-0.1,0.1,0.1,0.2,0.2,0.1c1.1-0.9,2.1-2.1,3.1-3.1c1.3-1.2,2.6-2.5,4-3.6
			C28,102.3,27.9,102.2,27.9,102.3z"/>
		<path class="st2" d="M29.9,101.2c-1.7,1.5-3.3,3.1-5,4.7c-0.9,0.8-2.9,2-2.9,3.2c0,0.1,0.1,0.1,0.1,0.1c0.1,0,0.1,0,0.2,0
			c0,0,0.1,0,0.1,0c0-0.1,0.1-0.1,0.1-0.2c0,0,0-0.1,0-0.1c0,0-0.1-0.1-0.1-0.1c-0.1-0.1-0.2,0-0.1,0.1c-0.2-0.5,3.3-3.4,3.7-3.7
			c1.3-1.3,2.7-2.5,4-3.8C30.2,101.2,30,101.1,29.9,101.2L29.9,101.2z"/>
		<path class="st2" d="M31,101.8c-2.4,2.2-4.9,4.5-7.2,6.9c-0.2,0.2,0.1,0.5,0.3,0.3c0.3-0.3,0.7-0.5,1-0.8c0.1-0.1,0-0.2-0.1-0.2
			c-0.4,0.2-0.7,0.3-1.1,0.5c0.1,0.1,0.2,0.2,0.2,0.3c2.4-2.2,4.7-4.6,7.1-6.9C31.4,101.9,31.2,101.6,31,101.8L31,101.8z"/>
		<path class="st2" d="M31.9,102.5c-2.2,1.9-4.6,3.7-6.5,5.8c-0.1,0.1,0.1,0.4,0.2,0.3c2.3-1.7,4.4-3.9,6.5-5.9
			C32.2,102.6,32,102.4,31.9,102.5L31.9,102.5z"/>
		<path class="st2" d="M41.2,96.3c-4.2,1.4-8.8,2.9-12.7,5.1c-0.1,0.1,0,0.3,0.1,0.2c4.3-1.2,8.6-3.3,12.7-5.2
			C41.3,96.4,41.3,96.3,41.2,96.3L41.2,96.3z"/>
		<path class="st2" d="M42.3,97.1c-4.4,1-9,2.5-12.8,5.1c-0.1,0.1-0.1,0.3,0,0.4c0,0,0.1,0.1,0.1,0.1c0.1,0.1,0.2,0.1,0.3,0
			c0.1,0,0.1-0.1,0.2-0.2c0.1-0.1,0.1-0.2,0-0.2c0,0-0.1-0.1-0.1-0.1c-0.1-0.1-0.2,0-0.2,0.1c0,0.5,3.7-1.5,3.2-1.3
			c1-0.5,1.9-0.9,2.9-1.3c2.1-0.9,4.3-1.6,6.5-2.3C42.6,97.3,42.5,97,42.3,97.1L42.3,97.1z"/>
		<path class="st2" d="M43.1,97.2c-3.3,1.2-7.2,2.5-10.2,4.4c-0.1,0.1,0,0.3,0.1,0.3c3.4-0.9,7-2.8,10.1-4.5
			C43.3,97.3,43.2,97.1,43.1,97.2L43.1,97.2z"/>
		<path class="st2" d="M42.5,98.2c-2.2,1.2-4.5,2-6.8,2.9c-0.2,0.1-0.1,0.3,0.1,0.3c2.5-0.3,4.8-1.6,6.9-3
			C42.8,98.3,42.6,98.1,42.5,98.2L42.5,98.2z"/>
		<path class="st2" d="M58.2,91.1c-6,1.8-12,4-17.8,6.4c-0.2,0.1-0.1,0.4,0.1,0.3c5.9-1.9,12-4.1,17.7-6.6
			C58.3,91.2,58.2,91.1,58.2,91.1z"/>
		<path class="st2" d="M55.2,93.2c-4.1,0.9-8.9,2.2-12.3,4.7c-0.1,0.1,0,0.2,0.1,0.2c4.2-1.4,8.1-3.4,12.3-4.7
			C55.3,93.3,55.3,93.1,55.2,93.2L55.2,93.2z"/>
		<path class="st2" d="M55.3,94.2c-2.7,0.7-5.3,1.7-7.9,2.8c-0.2,0.1-0.1,0.4,0.1,0.3c2.7-0.8,5.3-1.8,7.8-3
			C55.4,94.3,55.4,94.2,55.3,94.2z"/>
		<path class="st2" d="M70.5,86.7c-6.9,2.1-14.1,4.8-20.6,7.8c-0.1,0.1-0.1,0.3,0.1,0.2c6.9-2.1,14-4.9,20.6-7.9
			C70.6,86.8,70.6,86.7,70.5,86.7L70.5,86.7z"/>
		<path class="st2" d="M84,82c-6.6,1.9-13.1,4-19.2,7.2c-0.1,0,0,0.2,0.1,0.1C71.3,86.9,77.6,84.3,84,82C84.1,82.1,84.1,82,84,82z"
			/>
		<path class="st2" d="M87.1,81.9c-4.5,1.8-9.2,3.3-13.5,5.4c-0.1,0.1-0.1,0.2,0.1,0.2c4.6-1.5,9-3.6,13.5-5.4
			C87.2,82,87.2,81.8,87.1,81.9z"/>
		<path class="st2" d="M86.4,83.3c-2.8,0.8-5.7,1.9-8.2,3.3c-0.1,0.1,0,0.2,0.1,0.2c2.8-0.7,5.7-2,8.2-3.3
			C86.5,83.4,86.5,83.3,86.4,83.3L86.4,83.3z"/>
		<path class="st2" d="M98.6,76.4c-6.2,2-12.6,4.3-18.3,7.4c-0.1,0.1,0,0.3,0.1,0.2C86.5,81.6,92.5,78.9,98.6,76.4
			C98.7,76.5,98.6,76.4,98.6,76.4L98.6,76.4z"/>
		<path class="st2" d="M100.9,76.6c-5.3,1.1-10.6,3.1-15.4,5.6c-0.2,0.1,0,0.4,0.2,0.3c5-2.3,10.1-4,15.3-5.8
			C101,76.7,101,76.6,100.9,76.6L100.9,76.6z"/>
		<path class="st2" d="M110.7,72.1c-7.6,2.3-15.3,5.4-22.2,9.4c-0.1,0.1,0,0.3,0.1,0.2C95.9,78.5,103.3,75.3,110.7,72.1
			C110.8,72.2,110.8,72.1,110.7,72.1L110.7,72.1z"/>
		<path class="st2" d="M109.4,89.9c-6.4,1.7-12.7,3.9-19,6c-4,1.3-9,2.7-11.5,6.3c-0.1,0.1,0,0.3,0.2,0.2
			C87.8,95.7,99.3,93.9,109.4,89.9C109.5,89.9,109.4,89.9,109.4,89.9L109.4,89.9z"/>
		<path class="st2" d="M86.1,97.6c-1.6,0.9-3.5,2.3-4.1,4.1c0,0.1,0.1,0.1,0.2,0.1c0.7-0.6,1.2-1.4,1.8-2c0.7-0.7,1.4-1.4,2.2-1.9
			C86.4,97.7,86.3,97.5,86.1,97.6z"/>
		<path class="st2" d="M87.9,97c-0.8,0.6-1.6,1.3-2.3,2c-0.7,0.7-1.6,1.3-2.1,2.2c0,0.1,0,0.2,0.1,0.1c0.8-0.4,1.4-1.1,2.1-1.7
			c0.8-0.8,1.6-1.6,2.3-2.4C88.2,97.1,88,96.9,87.9,97L87.9,97z"/>
		<path class="st2" d="M89.8,96.5c-1.7,1.2-3.7,2.7-4.7,4.6c-0.1,0.2,0.1,0.3,0.3,0.2c0.7-0.8,1.3-1.6,2-2.4
			c0.8-0.8,1.7-1.5,2.6-2.2C90.2,96.6,90,96.4,89.8,96.5z"/>
		<path class="st2" d="M90.9,96.5c-1.2,1.6-2.7,2.6-4.3,3.7c-0.2,0.1,0,0.4,0.2,0.3c1.8-0.7,3.3-2.3,4.5-3.8
			C91.4,96.5,91.1,96.3,90.9,96.5L90.9,96.5z"/>
		<path class="st2" d="M93.6,95.5c-1.6,1.3-3.4,2.6-4.9,4.1c-0.1,0.1,0.1,0.4,0.2,0.3c1.7-1.2,3.2-2.7,4.8-4.1
			C93.9,95.6,93.7,95.4,93.6,95.5z"/>
		<path class="st2" d="M96.6,94.5c-0.9,0.6-1.7,1.3-2.5,2c-0.7,0.6-1.6,1.1-2.2,1.9c0,0.1,0,0.2,0.1,0.1c0.9-0.4,1.6-1.1,2.3-1.7
			c0.8-0.7,1.7-1.3,2.5-2C96.9,94.6,96.8,94.4,96.6,94.5L96.6,94.5z"/>
		<path class="st2" d="M98.9,93.6c-1,0.7-1.9,1.4-2.8,2.1c-0.8,0.6-1.8,1.2-2.4,2c-0.1,0.1,0,0.2,0.1,0.2c1-0.4,1.8-1.3,2.7-2
			c0.9-0.7,1.7-1.4,2.5-2.1C99.1,93.7,99,93.6,98.9,93.6z"/>
		<path class="st2" d="M100.7,93.1c-0.9,0.8-1.9,1.6-2.8,2.4c-0.7,0.5-1.7,0.9-2.1,1.7c0,0.1,0,0.2,0.1,0.2c1-0.1,1.9-1,2.6-1.6
			c0.9-0.7,1.8-1.5,2.6-2.3C101.3,93.2,100.9,92.9,100.7,93.1z"/>
		<path class="st2" d="M103,92.2c-1,0.8-2,1.6-2.9,2.4c-0.9,0.7-1.9,1.4-2.6,2.3c-0.1,0.2,0.1,0.4,0.3,0.3c1-0.5,1.9-1.4,2.8-2.2
			c0.9-0.8,1.8-1.5,2.7-2.3C103.5,92.4,103.2,92,103,92.2z"/>
		<path class="st2" d="M104.9,92c-1,0.8-2.1,1.6-3.1,2.4c-0.9,0.7-2,1.4-2.7,2.3c-0.1,0.2,0,0.5,0.3,0.4c1.1-0.5,1.9-1.3,2.9-2.1
			c1-0.8,2-1.7,3.1-2.5C105.5,92.3,105.2,91.8,104.9,92L104.9,92z"/>
		<path class="st2" d="M107.5,90.8c-1.4,1-2.8,2-4.1,3c-1.2,0.9-2.6,1.8-3.5,3c-0.2,0.2,0,0.6,0.3,0.5c1.4-0.7,2.7-1.9,3.9-2.9
			c1.2-1,2.4-2.1,3.6-3.2C108,91,107.7,90.7,107.5,90.8z"/>
		<path class="st2" d="M109.5,89.8c-1.5,1.4-2.9,2.7-4.4,4.1c-1.4,1.3-3.1,2.6-4.3,4.2c-0.2,0.3,0.1,0.7,0.4,0.5
			c1.5-1.1,2.9-2.6,4.2-3.9c1.5-1.5,3-2.9,4.6-4.4C110.5,89.9,109.9,89.4,109.5,89.8L109.5,89.8z"/>
		<path class="st2" d="M111.2,88.9c-1.6,0.4-3.6,0.9-4.9,2c-0.2,0.2-0.1,0.6,0.2,0.5c1.6-0.4,3.2-1.5,4.7-2.3
			C111.4,89,111.3,88.8,111.2,88.9z"/>
		<path class="st2" d="M192,49c-1.9,0.7-2.8,2.8-2.4,4.7c0,0.1,0.2,0.2,0.3,0.2c2,0,4-2.8,2.5-4.5c-0.1-0.1-0.4,0-0.3,0.2
			c0.3,0.9,0.4,1.6-0.1,2.5c-0.4,0.8-1.2,1.4-2.2,1.3c0.1,0.1,0.2,0.1,0.3,0.2c-0.4-1.8,0.6-3.4,2.1-4.3
			C192.3,49.2,192.1,48.9,192,49z"/>
		<path class="st2" d="M191.4,49.7c-0.6,0.6-0.9,1.4-1.2,2.2c-0.1,0.2,0.2,0.4,0.3,0.3c1-0.4,1.4-1.3,1.4-2.4c0-0.2-0.2-0.3-0.4-0.3
			c-1.2,0.5-1.9,1.8-1.6,3.1c0,0.2,0.2,0.4,0.4,0.3c1-0.1,1.7-1,1.6-1.9c0-0.2-0.3-0.4-0.5-0.3c-0.6,0.2-1,0.9-0.7,1.6
			c0.1,0.3,0.5,0.4,0.7,0.1c0.3-0.4,0.7-0.8,1-1.2c-0.2-0.1-0.5-0.2-0.7-0.2c0,0.4,0.1,0.7,0.2,1c0.1,0.2,0.4,0.1,0.5-0.1
			c0.1-0.3,0.1-0.6,0.1-0.9c0-0.3-0.5-0.5-0.7-0.2c-0.3,0.4-0.7,0.8-1,1.2c0.2,0,0.4,0.1,0.7,0.1c-0.1-0.2-0.1-0.5,0.2-0.6
			c-0.2-0.1-0.3-0.2-0.5-0.3c0.1,0.5-0.3,1.1-0.8,1.2c0.1,0.1,0.3,0.2,0.4,0.3c-0.2-1,0.3-2,1.2-2.5c-0.2-0.1-0.3-0.1-0.4-0.1
			c0.2,0.7-0.3,1.5-1,1.8l0.3,0.3c0.2-0.8,0.5-1.5,0.9-2.2C191.7,49.7,191.5,49.6,191.4,49.7z"/>
		<path class="st2" d="M193.5,48.2c0,0.6,0.1,1.3,0.1,1.9c0,0.1,0.1,0.3,0.3,0.3c0.9,0.2,1.8-0.2,2.2-1.1c0.2-0.4-0.4-0.7-0.6-0.3
			c-0.3,0.5-0.8,0.8-1.4,0.7c0.1,0.1,0.2,0.2,0.3,0.3c-0.1-0.6-0.1-1.3-0.2-1.9C194.1,47.7,193.5,47.8,193.5,48.2L193.5,48.2z"/>
		<path class="st2" d="M193.9,48.3c0.9-0.2,1.7-0.6,2.6-0.9c-0.1-0.2-0.3-0.3-0.4-0.5c-0.2,0.5-0.8,1.4-0.6,1.9
			c0,0.1,0.1,0.1,0.2,0.1c0.6-0.2,0.8-1.2,1-1.7c0.1-0.3-0.1-0.6-0.4-0.5c-0.9,0.4-1.8,0.7-2.6,1.1C193.4,48,193.6,48.3,193.9,48.3z
			"/>
		<path class="st2" d="M195.3,47.9c-0.6,0.1-1,0.8-0.5,1.3c0.3,0.3,1.2,0.1,1.1-0.4c0-0.1-0.1-0.2-0.2-0.1c-0.1,0.1-0.2,0.1-0.3,0.1
			c-0.1,0-0.2-0.2,0-0.2C195.8,48.5,195.8,47.9,195.3,47.9z"/>
		<path class="st2" d="M195.4,48c-0.3,0.1-0.6,0.2-0.7,0.5c-0.2,0.2-0.3,0.7-0.1,0.9c0.2,0.3,0.7,0.3,1,0.2c0.4-0.1,0.7-0.3,0.8-0.7
			c0.1-0.1-0.1-0.3-0.2-0.2c-0.4,0.2-0.9,0.3-1.4,0.2c0.1,0,0.1,0.1,0.2,0.1c-0.2-0.4,0.1-0.7,0.5-0.8C195.5,48.2,195.5,48,195.4,48
			L195.4,48z"/>
		<path class="st2" d="M195.4,49.7c0.2,0,0.4,0,0.6,0c-0.1,0-0.1,0-0.2,0c0,0,0,0,0,0c0.1,0.1,0.2,0.1,0.3,0
			c0.4-0.3,0.6-0.7,0.7-1.1c0-0.5-0.2-1-0.7-1.1c-0.1,0-0.2,0-0.3,0.1c-0.2,0.3,0.1,0.5,0.2,0.8c0.1,0.3,0,0.7-0.3,1
			c-0.1,0.1-0.1,0.2,0,0.2l0,0l0-0.2c-0.1,0.1-0.3,0.2-0.4,0.2C195.4,49.5,195.4,49.7,195.4,49.7L195.4,49.7z"/>
		<path class="st2" d="M77,90.4c0.2,0.2,0.3,0.3,0.2,0.6l0.9-0.1c0-0.1-0.1-0.2-0.1-0.3c0,0.1,0,0.1,0-0.1c0,0,0-0.1,0-0.1
			c0-0.2-0.5,0.1-0.6-0.1c0,0,0,0,0,0c0,0,0-0.1,0-0.1c-0.1,0.7,0.9,0.9,1.1,0.2c0.2-0.6-0.4-1.3-1-1.1c-0.3,0.1-0.6,0.4-0.6,0.8
			c0,0.1,0,0.2,0,0.3c0,0,0.1,0.3,0.1,0.2c-0.1-0.1,0,0.2,0,0.2c0,0.1,0.1,0.2,0.1,0.3c0.2,0.4,0.9,0.5,0.9-0.1
			c0.1-0.6-0.2-1.2-0.8-1.4C77,89.7,76.7,90.1,77,90.4L77,90.4z"/>
		<path class="st2" d="M80.7,88.7c0,0.3,0.2,0.6,0.3,0.9c0.3,0.7,1.4,0.3,1.1-0.4c-0.2-0.3-0.3-0.7-0.6-0.9
			C81.2,88.1,80.8,88.3,80.7,88.7z"/>
		<path class="st2" d="M84.2,87.8c-0.1,0.2,0.1,0.3,0.5,0.2c-0.2,0.1-0.4,0.3-0.6,0.4c0,0,0,0,0,0c0.2,0.1,0.4-0.1,0.6-0.2
			c-0.1,0-0.2,0.1-0.2,0.1c-0.1,0-0.2,0-0.3-0.1c-0.2-0.4-0.2-0.4-0.2-0.2c0,0,0,0.1,0,0.1l0-0.3c0.1-0.1,0.1-0.2,0.2-0.2
			c0.1,0,0.2-0.1,0.3-0.1c0,0,0,0,0,0c0.1,0,0.2,0,0.3,0.1c0,0,0,0,0,0c-0.8-0.4-1.2,1-0.4,1.1c0.3,0,0.5,0,0.7-0.2
			c0.2-0.2,0.2-0.4,0.2-0.7c-0.1-0.6-0.9-0.8-1.2-0.3c-0.2,0.3-0.2,0.8,0.2,0.9c-0.1-0.1-0.2-0.3-0.3-0.4c0,0.4,0.3,0.8,0.8,0.8
			c0.5,0,0.8-0.6,0.6-1C84.9,87.3,84.3,87.4,84.2,87.8L84.2,87.8z"/>
		<path class="st2" d="M87.8,86.5C87.8,86.5,87.7,86.5,87.8,86.5c0,0,0,0.1,0,0.2C87.8,86.7,87.8,86.6,87.8,86.5
			c-0.2,0.1-0.4,0-0.3-0.2c0,0.2,0,0.2,0,0c-0.2,0.2-0.2,0.6,0,0.8c0.2,0.2,0.6,0.2,0.8,0c0.2-0.3,0.3-0.6,0.1-0.9
			c-0.1-0.3-0.4-0.5-0.8-0.5c-0.3,0-0.6,0.3-0.7,0.7c-0.1,0.4,0.1,0.6,0.4,0.8C87.6,87.2,87.9,86.8,87.8,86.5L87.8,86.5z"/>
		<path class="st2" d="M92.1,84.7c-0.1-0.3-0.1-0.6-0.3-0.9c-0.3-0.5-1.2-0.1-0.9,0.5c0.1,0.3,0.3,0.5,0.6,0.8
			C91.7,85.2,92.2,85,92.1,84.7z"/>
		<path class="st2" d="M95.3,83.3c0.1,0,0.1,0,0.2,0c0.1,0-0.1,0,0-0.1c0,0,0,0,0,0.1c0-0.1,0-0.2,0-0.2c0,0,0.1,0,0.1,0
			c0.1,0.1,0.1,0.2,0.2,0.4c0-0.2,0-0.5-0.1-0.7c0-0.2-0.2-0.3-0.3-0.5c-0.1-0.1-0.3-0.1-0.4,0c-0.2,0.3-0.3,0.4-0.3,0.8
			c0,0.3,0,0.6,0.3,0.8c0.3,0.3,0.9,0.2,1.2-0.1c0.3-0.3,0.4-0.8,0-1.1c-0.3-0.3-0.9-0.4-1.2,0C94.9,82.9,95,83.2,95.3,83.3
			L95.3,83.3z"/>
		<path class="st2" d="M99.7,81.5c0.5,0,0.5-0.9-0.1-0.8C99.1,80.7,99.2,81.5,99.7,81.5z"/>
		<path class="st2" d="M98.8,81c-0.6,0.7,0.9,1.5,1.2,0.5c0.1-0.4-0.5-0.6-0.7-0.2c0,0.1,0,0,0,0c0,0-0.2,0-0.2,0
			c0.2,0-0.1-0.1,0-0.1C99.3,81.1,99,80.9,98.8,81z"/>
		<path class="st2" d="M95.7,83.2C95.7,83.2,95.7,83.2,95.7,83.2c0.3-0.3,0.2-0.7-0.1-0.7c-0.3,0-0.4,0.5-0.1,0.6c0,0,0,0.1,0.1,0.1
			C95.5,83.4,95.7,83.4,95.7,83.2L95.7,83.2z"/>
		<path class="st2" d="M196.9,55.9c-0.5,1.3-1.3,2.7-1.5,4c0,0.1,0.1,0.1,0.1,0.1c0.8-1.1,1.2-2.7,1.7-3.9
			C197.2,55.9,196.9,55.7,196.9,55.9z"/>
		<path class="st2" d="M198,55.1c-0.4,1.4-1,2.9-1.2,4.3c0,0.1,0.1,0.2,0.2,0.1c0.6-1.3,0.8-2.9,1.2-4.4C198.2,55.1,198,55,198,55.1
			L198,55.1z"/>
		<path class="st2" d="M199.9,53.9c-0.2,0.8-0.5,1.7-0.7,2.5c-0.2,0.7-0.5,1.5-0.5,2.2c0,0.1,0.1,0.1,0.2,0c0.3-0.7,0.5-1.5,0.6-2.2
			c0.2-0.8,0.4-1.7,0.6-2.5C200.1,53.9,200,53.8,199.9,53.9z"/>
		<path class="st2" d="M201.7,52.6c-0.3,1.5-0.8,3.1-0.8,4.7c0,0.1,0.1,0.1,0.2,0c0.5-1.5,0.6-3.1,0.9-4.7
			C201.9,52.5,201.7,52.5,201.7,52.6L201.7,52.6z"/>
		<path class="st2" d="M203.1,51.4c-0.3,1.4-0.9,2.9-0.9,4.3c0,0.1,0.1,0.1,0.1,0c0.6-1.3,0.7-2.9,1-4.3
			C203.4,51.2,203.1,51.2,203.1,51.4L203.1,51.4z"/>
		<path class="st2" d="M204,51.4c-0.2,1.1-0.6,2.3-0.6,3.5c0,0.1,0.1,0.1,0.1,0c0.4-1.1,0.5-2.3,0.7-3.5
			C204.2,51.3,204.1,51.2,204,51.4z"/>
		<path class="st2" d="M204.2,49.4c-0.7,1-1.4,1.9-2.3,2.7c-0.8,0.7-1.7,1.3-2.5,2c-0.1,0.1,0,0.2,0.1,0.2c2.1-0.7,3.8-3,4.7-4.9
			C204.4,49.4,204.3,49.3,204.2,49.4L204.2,49.4z"/>
		<path class="st2" d="M158.9,53.1c-4.3,2-8.7,3.7-13.1,5.3c-0.2,0.1-0.1,0.4,0.1,0.3C150.4,57.4,154.8,55.4,158.9,53.1
			C159,53.1,158.9,53,158.9,53.1z"/>
		<path class="st2" d="M158.5,54c-2.9,0.8-6.3,2.3-8.9,3.9c-0.1,0.1,0,0.2,0.1,0.2c1.6-0.5,3.2-1.4,4.7-2.1
			C155.8,55.4,157.2,54.8,158.5,54C158.5,54.1,158.5,54,158.5,54L158.5,54z"/>
		<path class="st2" d="M159.7,54.2c-2.5,1.3-5.1,2.4-7.4,3.9c-0.1,0,0,0.1,0.1,0.1c2.6-1.1,5-2.6,7.5-3.9
			C159.9,54.3,159.8,54.1,159.7,54.2z"/>
		<path class="st2" d="M170.1,48.9c-4.3,1.3-8.8,2.8-12.8,4.9c-0.1,0,0,0.2,0.1,0.2C161.7,52.5,165.9,50.5,170.1,48.9
			C170.1,48.9,170.1,48.9,170.1,48.9z"/>
		<path class="st2" d="M169.8,49.7c-4.3,1.2-8.5,2.8-12.4,5c-0.1,0.1,0,0.2,0.1,0.2c4.1-1.8,8.1-3.5,12.3-5.1
			C169.9,49.8,169.8,49.6,169.8,49.7L169.8,49.7z"/>
		<path class="st2" d="M171,50.1c-4.7,1.5-9.4,3.1-13.9,5.1c-0.1,0,0,0.2,0.1,0.2C161.8,53.9,166.5,52,171,50.1
			C171,50.1,171,50,171,50.1z"/>
		<path class="st2" d="M181.5,47.7c-5-0.3-10.1,0.9-14.4,3.5c0,0,0,0.1,0,0.1C171.8,49.3,176.4,48.2,181.5,47.7
			C181.6,47.8,181.6,47.7,181.5,47.7L181.5,47.7z"/>
		<path class="st2" d="M179.3,48.3c-4.2,1.1-8.5,2.5-12.4,4.7c-0.1,0,0,0.2,0.1,0.2C171.1,51.5,175.1,49.7,179.3,48.3
			C179.3,48.4,179.3,48.3,179.3,48.3z"/>
		<path class="st2" d="M102.3,80.7c0.1,0,0.1,0.1,0.2,0.1c0.5,0.4,1-0.4,0.5-0.7l-0.2-0.1C102.3,79.7,101.9,80.4,102.3,80.7
			L102.3,80.7z"/>
		<path class="st2" d="M105,79.8c0.3,0,0.5,0,0.7-0.2c0.4-0.4-0.3-1.1-0.7-0.6c-0.2,0.3-0.2,0.4-0.2,0.7
			C104.9,79.7,104.9,79.8,105,79.8z"/>
		<path class="st2" d="M107.9,78c0.2,0.6,1.3,0.8,1.5,0c0.1-0.3-0.2-0.6-0.5-0.5c-0.1,0-0.2,0-0.3,0.1c-0.3,0.1,0,0,0,0.1
			C108.4,77.3,107.8,77.5,107.9,78L107.9,78z"/>
		<path class="st2" d="M110.9,77.3c0,0,0.1,0,0.1,0.1c0.4,0.2,0.8-0.1,0.7-0.5s-0.5-0.6-0.8-0.4c0,0-0.1,0.1-0.1,0.1
			C110.4,76.6,110.4,77.2,110.9,77.3z"/>
		<path class="st2" d="M114,76.1C114,76.1,114.1,76.2,114,76.1c0.5,0.1,0.8-0.3,0.7-0.6c-0.1-0.3-0.6-0.5-0.8-0.2c0,0,0,0.1-0.1,0.1
			C113.6,75.7,113.7,76,114,76.1L114,76.1z"/>
		<path class="st2" d="M116.8,74.7c0.1,0.2,0.3,0.3,0.5,0.4c-0.1-0.1-0.1-0.2-0.2-0.2c0.1,0.3,0.2,0.5,0.4,0.6
			c0.3,0.1,0.6,0,0.7-0.3c0.1-0.6-0.4-0.9-0.9-0.9C117.1,74.2,116.6,74.4,116.8,74.7L116.8,74.7z"/>
		<path class="st2" d="M120.8,73.4C120.8,73.4,120.9,73.4,120.8,73.4c0.2,0,0.3,0.1,0.4,0.1c0-0.1,0-0.1-0.1-0.1
			c-0.1-0.2-0.1-0.1,0,0.2c-0.1,0.1-0.1,0.2-0.2,0.3c-0.1,0-0.3-0.1-0.4-0.1c0,0,0.1,0.1,0.1,0.1c0-0.3,0-0.5,0.1-0.8
			c-0.6,0.3-0.1,1.2,0.5,1c0.3-0.1,0.4-0.4,0.3-0.7c0-0.1-0.1-0.2-0.2-0.3c-0.1,0-0.1-0.1-0.2-0.1c-0.2,0-0.2,0,0.1,0
			c-0.1-0.1-0.4-0.1-0.5,0c-0.3,0.2-0.5,0.6-0.2,0.9c0.2,0.1,0.4,0.2,0.6,0c0.1-0.1,0.2-0.2,0.2-0.4
			C121.2,73.3,120.9,73.2,120.8,73.4z"/>
		<path class="st2" d="M123.8,71.9c-0.1,0-0.1,0.1-0.2,0.1c-1.3,0.7,1.6,1.5,0.7,0.1c-0.1-0.1-0.2-0.2-0.3-0.2
			c-1.5-0.3,0.2,2.1,0.4,0.6c0-0.1,0-0.2,0-0.2C124.5,71.9,124.1,71.7,123.8,71.9L123.8,71.9z"/>
		<path class="st2" d="M128,70.2c-0.1,0-0.2,0.1-0.3,0.2c-0.6,0.4,0.2,1.3,0.7,0.8c0.1-0.1,0.1-0.2,0.2-0.3
			C128.6,70.4,128.3,70,128,70.2L128,70.2z"/>
		<path class="st2" d="M131.4,69.4c-0.1-0.2-0.2-0.4-0.4-0.6c-0.4-0.4-1,0.3-0.6,0.6c0.2,0.2,0.4,0.3,0.6,0.3
			C131.3,69.8,131.5,69.6,131.4,69.4z"/>
		<path class="st2" d="M135.2,67.9c-0.1-0.1-0.2-0.3-0.3-0.4c-0.5-0.5-1.2,0.4-0.5,0.8c0.1,0.1,0.2,0.1,0.4,0.2
			C135,68.6,135.4,68.2,135.2,67.9L135.2,67.9z"/>
		<path class="st2" d="M137.3,66.7C137.3,66.7,137.3,66.7,137.3,66.7c0-0.1,0.1-0.2,0.1-0.3c-0.1,0-0.1,0.1,0.1,0
			c0.1,0,0.1,0.1,0,0.2c0.2-0.5-0.4-1-0.8-0.5c-0.6,0.7,0.6,1.8,1.2,1c0.5-0.7-0.5-1.6-1.1-0.9C136.7,66.5,137,66.9,137.3,66.7
			L137.3,66.7z"/>
		<path class="st2" d="M140.4,65.7c0.5,0.3,1.1-0.3,0.7-0.8c-0.3-0.5-1.1-0.2-1,0.4c0,0.6,0.9,0.5,0.9-0.1c0,0,0,0,0-0.1
			c0,0.1-0.1,0.2-0.1,0.3c-0.1,0-0.2,0-0.3,0c-0.1-0.1-0.1-0.2-0.2-0.2c0,0,0,0,0,0.1c0-0.1,0-0.2,0-0.3c0,0,0.1,0,0.1-0.1
			c0.1,0,0.2,0,0.3,0c0,0,0,0-0.1,0C140.3,64.8,139.9,65.5,140.4,65.7z"/>
		<path class="st2" d="M143.5,64.7c0.2-0.1,0.3-0.3,0.4-0.5c0.3-0.5-0.5-0.9-0.8-0.4c-0.1,0.2-0.2,0.4-0.2,0.6
			C142.8,64.8,143.2,65,143.5,64.7z"/>
		<path class="st2" d="M145.4,63.1C145.4,63.1,145.4,63.1,145.4,63.1c-0.2,0.3,0,0.8,0.4,0.8c0.4,0,0.5-0.5,0.3-0.8c0,0,0,0,0,0
			C146,62.7,145.4,62.7,145.4,63.1L145.4,63.1z"/>
		<path class="st2" d="M149.1,61.7c-0.1,0-0.3,0-0.4,0c-0.6,0-0.5,1,0.1,0.9c0.1,0,0.2-0.1,0.4-0.1
			C149.7,62.5,149.6,61.8,149.1,61.7z"/>
		<path class="st2" d="M151.7,61.3c0.4,0.2,0.8,0.1,1-0.3c0.1-0.2,0-0.5-0.2-0.5c-0.4,0-0.8,0.2-0.8,0.7
			C151.6,61.2,151.6,61.3,151.7,61.3z"/>
		<path class="st2" d="M155.2,59.6c-0.1-0.1-0.3-0.1-0.5,0c-0.2,0.1-0.3,0.2-0.4,0.3c-0.4,0.5,0.3,1,0.7,0.6
			c0.1-0.1,0.2-0.3,0.3-0.4C155.4,60,155.4,59.8,155.2,59.6C155.3,59.6,155.3,59.6,155.2,59.6L155.2,59.6z"/>
		<path class="st2" d="M157.7,59c0-0.1,0-0.1,0-0.2c0-0.5-0.6-0.7-0.8-0.3c0,0.1-0.1,0.1-0.1,0.2c-0.6,1.1,1.7,0.9,1-0.1
			c0-0.1-0.1-0.1-0.1-0.2c-0.3-0.4-0.9-0.1-0.8,0.4c0,0.1,0,0.1,0,0.2C157,59.4,157.7,59.4,157.7,59L157.7,59z"/>
		<path class="st2" d="M160,58.6c0.7,0,0.7-1.2-0.1-1.1C159.2,57.5,159.2,58.6,160,58.6z"/>
		<path class="st2" d="M127.9,65.6c-5.8,1.9-11.7,4-17.2,6.4c-0.1,0,0,0.2,0,0.1C116.5,70.3,122.3,68,127.9,65.6
			C127.9,65.6,127.9,65.6,127.9,65.6z"/>
		<path class="st2" d="M127.2,67.2c-4.7,0.8-9.4,2.2-13.5,4.5c-0.1,0,0,0.1,0,0.1C118.2,70,122.5,68.4,127.2,67.2
			C127.2,67.2,127.2,67.2,127.2,67.2z"/>
		<path class="st2" d="M134.9,63.3c-5.6,1.9-11.4,4.2-16.8,6.6c-0.1,0,0,0.2,0.1,0.1C123.9,68.5,129.7,66.1,134.9,63.3
			C135,63.4,135,63.3,134.9,63.3L134.9,63.3z"/>
		<path class="st2" d="M116.6,70.2c-4.1,1.5-8.4,3.5-12.2,5.7c-0.1,0.1,0,0.3,0.1,0.2c4.1-1.6,8.4-3.6,12.2-5.8
			C116.7,70.3,116.6,70.1,116.6,70.2z"/>
		<path class="st2" d="M159.5,69.9c-0.4,0.5-0.7,1-1,1.6c0,0,0,0.1,0.1,0C158.9,71,159.2,70.5,159.5,69.9
			C159.6,69.9,159.5,69.9,159.5,69.9L159.5,69.9z"/>
		<path class="st2" d="M160.9,67.2c-0.6,2.3-1.6,4.2-2.7,6.3c-0.1,0.1,0.1,0.3,0.2,0.1c1.4-1.8,2.2-4.2,2.7-6.4
			C161,67.1,160.9,67.1,160.9,67.2z"/>
		<path class="st2" d="M162.1,67.8c-0.5,0.8-0.8,1.6-1.2,2.5c-0.3,0.7-0.8,1.5-0.9,2.3c0,0.1,0.1,0.2,0.2,0.1
			c0.5-0.7,0.8-1.6,1.1-2.3c0.3-0.8,0.7-1.6,1-2.4C162.4,67.8,162.2,67.7,162.1,67.8L162.1,67.8z"/>
		<path class="st2" d="M163.7,67.4c-0.6,1.4-1.4,2.8-1.7,4.3c0,0.1,0.1,0.1,0.1,0.1C162.8,70.5,163.2,68.9,163.7,67.4
			C163.8,67.4,163.7,67.3,163.7,67.4z"/>
		<path class="st2" d="M165.1,67.2c-0.3,0.6-0.7,1.2-1,1.9c-0.3,0.5-0.7,1.1-0.8,1.7c0,0.1,0.1,0.2,0.2,0.1c0.4-0.5,0.6-1.1,0.9-1.6
			c0.3-0.6,0.6-1.3,0.9-1.9C165.3,67.2,165.1,67.1,165.1,67.2L165.1,67.2z"/>
		<path class="st2" d="M166.7,67.2c-0.3,0.4-0.6,0.9-0.9,1.3c-0.3,0.5-0.7,1-0.9,1.5c0,0.1,0.1,0.1,0.1,0.1c0.3-0.4,0.6-0.9,0.8-1.3
			C166.2,68.2,166.5,67.7,166.7,67.2C166.7,67.2,166.7,67.2,166.7,67.2z"/>
		<path class="st2" d="M167.4,66.7c-0.5,0.8-0.9,1.8-1,2.8c0,0.1,0.1,0.1,0.1,0c0.2-1,0.5-1.9,1-2.7
			C167.5,66.7,167.4,66.6,167.4,66.7L167.4,66.7z"/>
		<path class="st2" d="M159.7,68.3c-0.5,0.6-0.8,1.3-1.1,1.9c-0.3,0.7-0.8,1.4-0.9,2.1c0,0.1,0.1,0.2,0.2,0.1c0.5-0.6,0.7-1.3,1.1-2
			C159.2,69.7,159.6,69.1,159.7,68.3C159.7,68.3,159.7,68.3,159.7,68.3z"/>
		<path class="st2" d="M158.7,68.4c-0.7,1.4-1.6,2.9-2,4.4c0,0.1,0.1,0.1,0.1,0.1c0.9-1.3,1.4-2.9,2.1-4.3
			C158.9,68.4,158.7,68.3,158.7,68.4z"/>
		<path class="st2" d="M157.1,69.2c-0.2,0.5-0.5,1-0.7,1.5c-0.2,0.4-0.5,0.9-0.6,1.3c0,0.1,0.1,0.2,0.2,0.1c0.3-0.4,0.5-0.9,0.7-1.3
			c0.2-0.5,0.5-1,0.7-1.5C157.4,69.2,157.1,69.1,157.1,69.2L157.1,69.2z"/>
		<path class="st2" d="M156.4,69.3c-0.6,0.8-1.2,1.6-1.7,2.5c0,0,0,0,0,0C155.3,71,155.8,70.1,156.4,69.3
			C156.4,69.3,156.4,69.3,156.4,69.3L156.4,69.3z"/>
		<path class="st2" d="M154.9,70.2c-0.6,0.8-1.3,1.6-1.8,2.4c0,0.1,0.1,0.1,0.1,0.1C153.9,71.9,154.4,71,154.9,70.2
			C155,70.2,154.9,70.1,154.9,70.2L154.9,70.2z"/>
		<path class="st2" d="M153.7,71c-0.3,0.4-0.8,0.8-1,1.3c0,0.1,0,0.1,0.1,0.1c0.4-0.3,0.7-0.8,1-1.3C154,71,153.8,70.8,153.7,71z"/>
		<path class="st2" d="M153.1,71.4c-0.5,0.4-1,0.8-1.5,1.3c-0.1,0.1,0.1,0.3,0.2,0.2c0.5-0.4,1-0.8,1.5-1.2
			C153.4,71.5,153.2,71.2,153.1,71.4z"/>
		<path class="st2" d="M153.3,73.6c-3.4,0.6-6.7,1.6-9.8,3c-0.2,0.1-0.1,0.4,0.1,0.3c3.2-1.3,6.4-2.4,9.7-3.2
			C153.4,73.7,153.4,73.6,153.3,73.6L153.3,73.6z"/>
		<path class="st2" d="M154.4,73.6c-3.1,0.7-6.4,1.5-9.4,2.7c-0.1,0-0.1,0.2,0,0.2c3.2-0.6,6.4-1.6,9.4-2.7
			C154.6,73.7,154.5,73.5,154.4,73.6L154.4,73.6z"/>
		<path class="st2" d="M153.7,74.5c-2.2,0.7-4.7,1.3-6.7,2.5c-0.1,0,0,0.1,0,0.1c2.3-0.5,4.6-1.6,6.7-2.4
			C153.9,74.6,153.8,74.4,153.7,74.5L153.7,74.5z"/>
		<path class="st2" d="M154.9,74.5c-2.4,0.9-5,1.8-7.1,3c-0.1,0,0,0.2,0.1,0.1C150.2,77,152.7,75.7,154.9,74.5
			C155,74.5,154.9,74.4,154.9,74.5L154.9,74.5z"/>
		<path class="st2" d="M154.5,75.2c-2,0.5-3.9,1.4-5.6,2.6c-0.1,0.1,0,0.2,0.1,0.2c1.8-1.1,3.6-1.9,5.6-2.6
			C154.7,75.4,154.7,75.2,154.5,75.2L154.5,75.2z"/>
		<path class="st2" d="M143.1,77c-3.7,2-7.4,3.8-11.1,5.6c-0.2,0.1-0.1,0.5,0.1,0.4c3.8-1.7,7.5-3.7,11.1-5.9
			C143.2,77.1,143.1,77,143.1,77z"/>
		<path class="st2" d="M141.3,78.8c-2.8,1.1-5.8,2.5-8.2,4.4c-0.1,0,0,0.2,0.1,0.1c2.8-1.3,5.4-3,8.2-4.4
			C141.5,78.9,141.4,78.7,141.3,78.8L141.3,78.8z"/>
		<path class="st2" d="M140.3,80.3c-2.1,1-4.8,2-6.4,3.7c-0.1,0.1,0,0.2,0.1,0.2c1.1-0.4,2-1.2,3-1.8c1.1-0.7,2.3-1.3,3.4-1.9
			C140.5,80.5,140.4,80.2,140.3,80.3L140.3,80.3z"/>
		<path class="st2" d="M139.9,81.1c-1.2,0.7-2.5,1.3-3.7,2.1c-0.1,0.1,0,0.3,0.1,0.2c1.3-0.6,2.5-1.4,3.8-2.1
			C140.3,81.3,140.1,81,139.9,81.1L139.9,81.1z"/>
		<path class="st2" d="M149.9,74.7c-5,1.2-9.8,2.9-14.2,5.6c-0.1,0,0,0.2,0.1,0.2c4.7-2,9.3-4,14.2-5.5
			C150.1,74.9,150,74.6,149.9,74.7L149.9,74.7z"/>
		<path class="st2" d="M149.2,75.9c-4,1.2-8.3,2.7-12,4.6c-0.1,0.1,0,0.2,0.1,0.2c4-1.1,8.2-2.8,12-4.6
			C149.4,76.1,149.3,75.9,149.2,75.9L149.2,75.9z"/>
		<path class="st2" d="M148.5,77.1c-3,0.5-6,1.3-8.7,2.8c-0.1,0.1,0,0.3,0.1,0.2c2.8-1.2,5.7-2.2,8.6-2.9
			C148.6,77.2,148.6,77.1,148.5,77.1L148.5,77.1z"/>
		<path class="st2" d="M78.1,136c-1,0.9-1.9,1.9-2.7,3c-0.4,0.6-0.7,1.1-1,1.7c-0.1,0.1-1.1,2.1-1.1,2c0.1,0.1,0.2,0,0.2-0.1
			c-0.4-1.1-1.7,0.9-0.1,0.8c1.1,0,1.4-1.9,1.8-2.6c0.9-1.7,2-3.2,3.1-4.7C78.3,136.1,78.2,135.9,78.1,136L78.1,136z"/>
		<path class="st2" d="M76,138.9c-0.7,0.9-1.4,1.8-2,2.7c-0.6,0.9-1.3,1.9-1.4,3c0,0.2,0.2,0.4,0.4,0.2c0.6-0.8,0.9-1.8,1.4-2.6
			c0.6-1.1,1.2-2.1,1.9-3C76.4,138.9,76.1,138.7,76,138.9z"/>
		<path class="st2" d="M75.4,140.9c-0.5,0.7-0.9,1.4-1.4,2c-0.4,0.5-0.8,1.1-1,1.7c0,0.1,0.1,0.2,0.2,0.1c0.5-0.4,0.8-1.1,1.2-1.6
			c0.5-0.7,0.9-1.4,1.4-2C75.8,140.9,75.5,140.7,75.4,140.9L75.4,140.9z"/>
		<path class="st2" d="M79,137.6c-0.9,1.1-1.8,2.3-2.6,3.4c-0.8,1-1.7,2-2.3,3.1c-0.1,0.1,0.1,0.2,0.2,0.1c1-0.9,1.7-2.1,2.5-3.2
			c0.8-1.1,1.7-2.2,2.5-3.2C79.4,137.6,79.1,137.4,79,137.6L79,137.6z"/>
		<path class="st2" d="M79,137.9c-1.5,2.1-3.2,4.3-4.5,6.6c-0.1,0.2,0.2,0.4,0.4,0.3c1.7-2,3-4.4,4.4-6.6
			C79.4,138,79.1,137.8,79,137.9L79,137.9z"/>
		<path class="st2" d="M79.6,138.5c-1.5,2-3.1,4-4.3,6.2c-0.1,0.3,0.3,0.4,0.4,0.2c0.3-0.4,0.6-0.8,0.8-1.2c0.1-0.1-0.1-0.2-0.2-0.1
			c-0.4,0.3-0.7,0.7-1,1.1c0.1,0.1,0.2,0.2,0.4,0.3c1.6-1.9,3-4,4.4-6.1C80.3,138.6,79.8,138.2,79.6,138.5z"/>
		<path class="st2" d="M80.1,139.2c-1.2,1.6-2.5,3.2-3.6,4.9c-0.3,0.4,0.3,0.8,0.5,0.4c0.3-0.4,0.5-0.8,0.7-1.3
			c0.1-0.1-0.1-0.2-0.2-0.1c-0.4,0.4-0.7,0.7-1.1,1.1c0.2,0.1,0.3,0.3,0.5,0.4c1.2-1.7,2.4-3.4,3.5-5.1
			C80.6,139.3,80.2,139,80.1,139.2L80.1,139.2z"/>
		<path class="st2" d="M79.5,140.9c-0.9,0.9-1.7,2-2,3.2c-0.1,0.3,0.3,0.5,0.5,0.3c0.3-0.4,0.6-0.8,0.9-1.2c0.1-0.1-0.1-0.3-0.2-0.2
			c-0.4,0.3-0.7,0.7-1.1,1c0.2,0.1,0.3,0.2,0.5,0.3c0.5-1.1,1-2.1,1.9-3C80.3,141,79.8,140.6,79.5,140.9L79.5,140.9z"/>
		<path class="st2" d="M91.3,129.3c-1.9,2.1-3.8,4.2-5.9,6.2c-2,2-4.4,3.7-6.2,5.9c-0.1,0.1,0,0.3,0.2,0.2c2.3-1.3,4.3-3.5,6.2-5.3
			c2.1-2.1,4.1-4.4,5.9-6.8C91.5,129.3,91.4,129.2,91.3,129.3L91.3,129.3z"/>
		<path class="st2" d="M91.7,130c-3.2,2.7-6.3,5.9-8.8,9.3c-0.1,0.2,0.1,0.4,0.3,0.3c2.9-3.1,5.7-6.3,8.6-9.4
			C91.9,130,91.8,129.9,91.7,130L91.7,130z"/>
		<path class="st2" d="M158.9,71.8c1.3,0.2,2.8-0.5,4.1-1c1.3-0.6,2.7-1.2,3.6-2.3c0.1-0.1,0-0.4-0.2-0.3c-1.4,0.4-2.6,1.3-3.9,1.9
			c-1.1,0.5-2.6,0.8-3.6,1.6C158.8,71.7,158.8,71.8,158.9,71.8L158.9,71.8z"/>
		<path class="st2" d="M157.8,71.7c1.9-0.2,3.8-0.8,5.7-1.4c2.2-0.6,4.4-1.2,6.4-2.2c0.2-0.1,0.2-0.5-0.1-0.5
			c-2.1,0.3-4.1,1-6.2,1.6c-2,0.6-4.1,1.1-6,2.1C157.5,71.5,157.6,71.7,157.8,71.7z"/>
		<path class="st2" d="M160.8,71c11.5-2.6,23.1-8.5,33.4-14.1c0.2-0.1,0-0.4-0.2-0.3c-5.5,2.5-10.9,5.1-16.5,7.4
			c-5.5,2.3-11.4,4.2-16.8,6.9C160.6,70.9,160.7,71,160.8,71z"/>
	</g>
</g>
<g>
	<defs>
		<rect id="SVGID_00000170999609349234840690000016199194123740400053_" x="671.9" y="162.4" width="36.1" height="15.5"/>
	</defs>
	<clipPath id="SVGID_00000021825356491627006160000017356414185750792865_">
		<use xlink:href="#SVGID_00000170999609349234840690000016199194123740400053_"  style="overflow:visible;"/>
	</clipPath>
	<g style="clip-path:url(#SVGID_00000021825356491627006160000017356414185750792865_);">
		<path class="st2" d="M695.1,164.1c-1.6-1.6-3.8-2-6.1-1.3c-1.8,0.5-4.2,1.9-4.3,4c0,0.3,0.3,0.4,0.5,0.2c1.4-1.3,2.2-2.6,4.1-3.2
			c1.8-0.5,3.9-0.3,5.6,0.5C695.1,164.4,695.2,164.2,695.1,164.1L695.1,164.1z"/>
		<path class="st2" d="M684.4,166c-1.3-0.5-2.6-0.3-3.8,0.4c-1,0.6-2.2,1.7-2,3c0,0.2,0.3,0.4,0.4,0.2c0.7-0.8,1.1-1.8,2-2.4
			c0.9-0.6,2.2-0.9,3.3-0.8C684.6,166.4,684.6,166.1,684.4,166L684.4,166z"/>
		<path class="st2" d="M678.4,169.4c-0.8-0.5-1.8-0.4-2.6,0.1c-0.5,0.3-1.6,1.5-0.9,2.1c0.1,0.1,0.2,0.1,0.2,0
			c0.2-0.1,0.2-0.3,0.3-0.5c0.1-0.4,0.3-0.7,0.6-0.9c0.6-0.5,1.4-0.7,2.1-0.4C678.4,169.9,678.7,169.6,678.4,169.4L678.4,169.4z"/>
		<path class="st2" d="M675.2,170.7c-1.5-1.2-3.5,0.8-3.2,2.5c0.3,1.7,3.2,3.1,4.5,1.6c0.1-0.2,0-0.4-0.2-0.4
			c-1.2-0.2-2.5,0.2-3.3-1c-0.7-1.1,0.6-2.6,1.8-2.2C675.2,171.3,675.4,170.9,675.2,170.7L675.2,170.7z"/>
		<path class="st2" d="M676.5,175.2c1.8,2.2,6.5,3.7,8.6,1c0.2-0.2,0-0.6-0.3-0.5c-1.3,0.3-2.5,0.9-3.9,0.7c-1.5-0.2-2.8-0.8-3.7-2
			C676.8,174,676.1,174.8,676.5,175.2L676.5,175.2z"/>
		<path class="st2" d="M685,176.8c1.4,0.9,2.6,1.5,4.4,1c1.5-0.4,2.9-1.4,3.2-2.9c0.1-0.3-0.3-0.5-0.5-0.3c-1.7,1.6-4.5,3.4-7,2.1
			C685,176.6,685,176.7,685,176.8z"/>
		<path class="st2" d="M691.8,175.3c1.1,1.6,2.7,2.4,4.7,2.2c1.6-0.1,3.8-1,4.1-2.8c0-0.2-0.2-0.5-0.5-0.3c-1.2,0.8-2.1,1.8-3.7,1.9
			c-1.5,0.2-3.2-0.3-4.3-1.3C691.9,175,691.7,175.1,691.8,175.3L691.8,175.3z"/>
		<path class="st2" d="M696.8,165.8c1,0.6,1.8,1.6,2.1,2.7c0.1,0.4,0.1,1,0.5,1.2c0.2,0.1,0.5,0.1,0.7-0.1c0.5-0.7-0.2-2.1-0.6-2.7
			c-0.6-0.9-1.4-1.4-2.4-1.8C696.7,165,696.5,165.6,696.8,165.8z"/>
		<path class="st2" d="M700.1,169.3c1.2-0.8,2.7-0.3,3.6,0.7c0.2,0.2,0.4,0.4,0.5,0.7c0.1,0.2,0.1,0.6,0.2,0.8
			c0.2,0.3,0.5,0.3,0.8,0.2c0.2-0.1,0.3-0.3,0.3-0.5c-0.3-2.7-3.6-4-5.7-2.3C699.5,169.1,699.8,169.5,700.1,169.3L700.1,169.3z"/>
		<path class="st2" d="M705.1,172.2c0.6-0.3,1.2-0.2,1.6,0.3c0-0.1-0.1-0.2-0.1-0.4c-0.2,0.6-0.5,1.2-1,1.6
			c-0.2,0.2-0.5,0.4-0.8,0.5c-0.3,0.1-0.5,0.1-0.7,0.4c0,0.1,0,0.2,0,0.3c0.6,0.5,1.6-0.2,2-0.6c0.6-0.5,1.1-1.3,1.2-2.1
			c0-0.2-0.1-0.3-0.3-0.4c-0.7-0.3-1.4-0.2-2.1,0.2C704.9,172.1,705,172.2,705.1,172.2z"/>
		<path class="st2" d="M700.1,175.2c1.3,0.8,2.8,1,4.3,0.8c1.6-0.3,2.8-0.9,3.6-2.3c0.2-0.4-0.2-0.8-0.6-0.6c-2.2,1.3-4.4,2-6.9,1.2
			C700,174.1,699.7,174.9,700.1,175.2L700.1,175.2z"/>
		<path class="st2" d="M683.5,169.3c-0.9,0.9-1.8,1.8-2.6,2.7c-0.7,0.8-1.7,1.6-2.1,2.7c-0.1,0.2,0.1,0.4,0.3,0.3
			c1-0.6,1.7-1.7,2.5-2.6c0.8-0.9,1.5-1.9,2.2-2.8C683.9,169.3,683.7,169.2,683.5,169.3L683.5,169.3z"/>
		<path class="st2" d="M686.1,169.8c-0.8,0.8-1.7,1.6-2.5,2.4c-0.7,0.7-1.6,1.4-2.1,2.3c-0.1,0.2,0.1,0.4,0.3,0.3
			c0.9-0.5,1.6-1.4,2.3-2.2c0.8-0.8,1.6-1.7,2.4-2.5C686.7,170,686.3,169.6,686.1,169.8L686.1,169.8z"/>
		<path class="st2" d="M687.6,171.2c-1.9,0.9-3.6,2.3-4.8,4.1c-0.2,0.3,0.3,0.6,0.5,0.3c1.2-1.7,2.7-3,4.5-3.9
			C688.1,171.5,687.9,171.1,687.6,171.2z"/>
		<path class="st2" d="M688.9,171.3c-1.4,1.4-2.8,2.8-4.1,4.3c-0.3,0.3,0.2,0.8,0.5,0.5c0.4-0.4,0.8-0.8,1.1-1.2
			c0.1-0.1,0-0.4-0.2-0.3c-0.5,0.3-0.9,0.6-1.4,1c0.1,0.2,0.3,0.4,0.4,0.5c1.3-1.4,2.7-2.9,3.9-4.4
			C689.4,171.4,689.1,171.1,688.9,171.3L688.9,171.3z"/>
		<path class="st2" d="M688.1,172.6c-0.4,0.4-0.6,0.9-0.6,1.4c0,0.4,0.3,1.1,0.8,1c0.1,0,0.2-0.1,0.2-0.2c0-0.3-0.1-0.5-0.2-0.8
			c0-0.3,0.1-0.6,0.4-0.8C689.2,172.8,688.6,172.2,688.1,172.6L688.1,172.6z"/>
		<path class="st2" d="M690.5,172c0.2,0.9-0.1,1.8-0.9,2.3c-0.3,0.3,0.1,0.8,0.5,0.6c0.6-0.4,1.2-0.9,1.7-1.4c0.1-0.1,0-0.3-0.1-0.2
			c-0.7,0.2-1.4,0.6-1.9,1c0.2,0.2,0.3,0.4,0.5,0.6c0.8-0.8,1-2,0.7-3C690.8,171.7,690.4,171.8,690.5,172L690.5,172z"/>
		<path class="st2" d="M692.3,173.2c-1.1,0.2-2.6,1-2.7,2.2c0,0.1,0.1,0.2,0.2,0.1c0.3-0.4,0.6-0.9,1-1.2c0.5-0.4,1-0.7,1.6-0.8
			C692.6,173.5,692.5,173.2,692.3,173.2L692.3,173.2z"/>
	</g>
</g>
</svg>
