<svg width="28" height="28" viewBox="0 0 28 28" fill="none" xmlns="http://www.w3.org/2000/svg">
<mask id="mask0_1946_129125" style="mask-type:alpha" maskUnits="userSpaceOnUse" x="0" y="0" width="28" height="28">
<rect width="28" height="28" fill="#D9D9D9"/>
</mask>
<g mask="url(#mask0_1946_129125)">
<path d="M7.72054 16.3335H20.2847C20.4941 16.3335 20.6661 16.2662 20.8007 16.1316C20.9353 15.997 21.0026 15.825 21.0026 15.6156V13.1027C21.0026 12.8933 20.9353 12.7213 20.8007 12.5867C20.6661 12.4521 20.4941 12.3848 20.2847 12.3848H11.8936V7.00016H9.33594C8.69427 7.00016 8.14497 7.22863 7.68802 7.68558C7.23108 8.14252 7.0026 8.69183 7.0026 9.3335V15.6156C7.0026 15.825 7.06991 15.997 7.20452 16.1316C7.33914 16.2662 7.51114 16.3335 7.72054 16.3335ZM14.0026 22.3463C14.5112 22.3463 15.0047 22.3108 15.4834 22.2397C15.962 22.1687 16.4406 22.0621 16.9193 21.92V17.5002H11.0859V21.92C11.5646 22.0621 12.0432 22.1687 12.5218 22.2397C13.0005 22.3108 13.4941 22.3463 14.0026 22.3463ZM14.0026 23.513C12.6265 23.513 11.3036 23.2651 10.0337 22.7692C8.76381 22.2734 7.61959 21.5708 6.60101 20.6614L7.43337 19.829C7.79982 20.1655 8.19207 20.4666 8.61012 20.7321C9.02818 20.9976 9.46456 21.2372 9.91927 21.4511V17.5002H7.72054C7.18358 17.5002 6.73524 17.3203 6.37552 16.9606C6.0158 16.6009 5.83594 16.1525 5.83594 15.6156V9.3335C5.83594 8.36427 6.17696 7.53863 6.85902 6.85658C7.54107 6.17452 8.36671 5.8335 9.33594 5.8335H13.0603V11.2181H20.2847C20.8216 11.2181 21.27 11.398 21.6297 11.7577C21.9894 12.1174 22.1693 12.5658 22.1693 13.1027V15.6156C22.1693 16.1525 21.9894 16.6009 21.6297 16.9606C21.27 17.3203 20.8216 17.5002 20.2847 17.5002H18.0859V21.4511C18.5406 21.2372 18.977 20.9976 19.3951 20.7321C19.8131 20.4666 20.2054 20.1655 20.5718 19.829L21.4042 20.6614C20.3856 21.5708 19.2414 22.2734 17.9715 22.7692C16.7016 23.2651 15.3787 23.513 14.0026 23.513Z" fill="#AAAAAA"/>
</g>
</svg>
