<?xml version="1.0" encoding="utf-8"?>
<!-- Generator: Adobe Illustrator 27.1.1, SVG Export Plug-In . SVG Version: 6.00 Build 0)  -->
<svg version="1.1" id="Слой_1" xmlns="http://www.w3.org/2000/svg" xmlns:xlink="http://www.w3.org/1999/xlink" x="0px" y="0px"
	 viewBox="0 0 204.4 107.4" style="enable-background:new 0 0 204.4 107.4;" xml:space="preserve">
<style type="text/css">
	.st0{clip-path:url(#SVGID_00000025402717516627500430000009179901542929111727_);}
	.st1{fill:#AAAAAA;}
	.st2{clip-path:url(#SVGID_00000140732309736342007450000005787247658126402744_);}
</style>
<g>
	<g>
		<defs>
			<rect id="SVGID_1_" x="87.4" width="117" height="42"/>
		</defs>
		<clipPath id="SVGID_00000093858690425235669520000012324381449166815882_">
			<use xlink:href="#SVGID_1_"  style="overflow:visible;"/>
		</clipPath>
		<g style="clip-path:url(#SVGID_00000093858690425235669520000012324381449166815882_);">
			<path class="st1" d="M94.6,15.7c-4.1-0.4-7.6,3.3-7.2,7.5c0.4,3.7,4.8,7.6,8.5,5.8c0.3-0.1,0.2-0.6-0.1-0.6
				c-3-0.5-6.1-1.5-6.9-4.9c-0.8-3.6,2.5-6.6,5.7-7.1C95.1,16.2,94.9,15.7,94.6,15.7L94.6,15.7z"/>
			<path class="st1" d="M96.3,28.6c4.5,8.9,17.3,13.6,26,7.6c0.4-0.3,0.1-0.9-0.3-0.7c-9.5,3.3-19.3,1.5-25.5-7
				C96.4,28.4,96.2,28.5,96.3,28.6z"/>
			<path class="st1" d="M95.8,16.9c3.1-3,5.8-5.4,10.4-5.6c4.3-0.2,6.9,1.7,10.5,3.7c0.6,0.3,1.2-0.3,0.9-0.9
				c-3.9-8.1-20-5.7-22.7,2.3C94.6,16.9,95.4,17.3,95.8,16.9L95.8,16.9z"/>
			<path class="st1" d="M117,14.9c3.9-4.6,8.1-8.2,14-10.1c6-1.9,11.2-0.6,17.2,0.5c0.7,0.1,1-0.7,0.5-1.1
				C138.6-3,121.5,4,116.6,14.5C116.5,14.8,116.8,15.1,117,14.9z"/>
			<path class="st1" d="M148.8,5.7c5.3-5,11.5-3.9,17,0c0.6,0.4,1.3-0.4,1-1c-3.7-6.9-15-5.6-18.8,0.3
				C147.6,5.5,148.4,6.1,148.8,5.7L148.8,5.7z"/>
			<path class="st1" d="M120.2,37.2c1.3-0.7,6.7,3.1,8.6,3.6c3.1,0.9,6.3,1.3,9.5,1.2c6.1-0.3,11.5-2.4,15.7-6.8
				c0.3-0.4-0.1-0.9-0.5-0.7c-7.5,4.3-15.6,6.9-24.2,4.6C127.1,38.6,122,34.5,120.2,37.2C120.1,37.1,120.2,37.2,120.2,37.2
				L120.2,37.2z"/>
			<path class="st1" d="M152.9,36.1c4.3,5.7,15,6.7,18.7-0.3c0.3-0.5-0.3-1.3-0.8-0.8c-5.1,3.9-11.8,5.1-17,0.4
				C153.3,35,152.5,35.5,152.9,36.1L152.9,36.1z"/>
			<path class="st1" d="M167.4,6.9c3.1-1.1,6.2-1.5,9.3-0.3c3.3,1.3,4.6,3.8,6.8,6.3c0.4,0.4,1.3,0.1,1.2-0.5
				C184.2,5,172.3,2.3,167,6C166.6,6.3,166.8,7.1,167.4,6.9z"/>
			<path class="st1" d="M183,14.7c2.6-1.4,5.8-1,8.2,0.5c1.1,0.7,2.2,1.6,2.9,2.8c0.6,1,0.8,2.2,1.3,3.2c0.2,0.4,0.8,0.3,0.9-0.1
				c1.2-3-2.4-6.4-4.9-7.5c-3-1.4-6.2-1.2-8.7,0.9C182.6,14.6,182.8,14.8,183,14.7L183,14.7z"/>
			<path class="st1" d="M196.6,22.5c1.9-0.5,5-0.9,6.1,1.2c0.7,1.4,0,3-1.4,3.6c-0.4,0.2-0.2,0.7,0.1,0.8c2.6,0.8,3.5-2.9,2.7-4.7
				c-1.3-3-5.3-2.5-7.7-1.3C196.2,22.2,196.4,22.5,196.6,22.5z"/>
			<path class="st1" d="M170,34.9c5.7,5.8,16.5,5,20.2-2.9c0.3-0.6-0.5-1.5-1-0.8c-4.4,5.6-12.8,7.7-18.8,3.2
				C170.1,34.2,169.8,34.7,170,34.9z"/>
			<path class="st1" d="M188.5,32.2c2.3,2.8,6.3,3.3,9.6,2.1c2.5-0.9,6.6-3.9,5.4-7.1c-0.1-0.3-0.6-0.5-0.8-0.2
				c-1.7,2-2.4,4.2-5.1,5.3c-2.7,1.1-5.7,0.8-8-1.1C188.8,30.5,187.9,31.4,188.5,32.2z"/>
			<path class="st1" d="M100.9,13.5c-2.6,1.3-4.9,3.4-5.6,6.2c0,0.2,0.2,0.3,0.3,0.1c1.4-2.5,2.9-4.7,5.4-6.2
				C101.2,13.6,101,13.5,100.9,13.5z"/>
			<path class="st1" d="M103.9,12.4c-0.8,1.3-1.8,2.6-2.9,3.7c-1,1-2.3,1.8-3.2,2.8c-0.1,0.1,0,0.3,0.1,0.2c1.3-0.4,2.6-1.7,3.5-2.7
				c1.1-1.2,2-2.5,2.7-3.9C104.2,12.3,104,12.2,103.9,12.4L103.9,12.4z"/>
			<path class="st1" d="M104.9,13.3c-1.4,1.8-2.9,3.5-4.3,5.4c-0.2,0.3,0.3,0.7,0.5,0.4c1.5-1.7,2.8-3.5,4.2-5.3
				C105.5,13.4,105.1,13,104.9,13.3L104.9,13.3z"/>
			<path class="st1" d="M107.1,14.5c-0.7,0.9-1.5,1.9-2.2,2.8c-0.7,0.8-1.5,1.6-2,2.6c-0.1,0.2,0.1,0.6,0.4,0.4
				c0.9-0.6,1.5-1.6,2.1-2.5c0.7-0.9,1.5-1.9,2.2-2.8C107.9,14.6,107.4,14.1,107.1,14.5L107.1,14.5z"/>
			<path class="st1" d="M108.1,15.5c-1,1.4-2.2,2.8-3,4.3c-0.1,0.2,0.1,0.4,0.3,0.2c1.2-1.3,2.2-2.8,3.3-4.2
				C108.9,15.5,108.3,15.2,108.1,15.5L108.1,15.5z"/>
			<path class="st1" d="M94.4,18.4c-1.6,1.1-3.3,2.2-4.9,3.3c-0.3,0.2-0.1,0.9,0.3,0.7c1-0.4,1.9-0.8,2.9-1.3c0.2-0.1,0-0.3-0.1-0.3
				c-1,0.3-2,0.5-2.9,0.8c0.1,0.2,0.2,0.5,0.3,0.7c1.6-1.1,3.2-2.3,4.9-3.4C95.2,18.8,94.8,18.1,94.4,18.4z"/>
			<path class="st1" d="M95.3,18.6c-0.7,1.4-1.6,2.8-2.1,4.3c-0.1,0.3,0.4,0.5,0.6,0.2c0.9-1.3,1.4-2.8,2.1-4.2
				C96.1,18.5,95.5,18.2,95.3,18.6z"/>
			<path class="st1" d="M95.5,21.8c-0.7,0.7-1.4,1.4-2.1,2.1c-0.1,0.1,0,0.2,0.1,0.1c0.7-0.7,1.4-1.4,2.2-2.1
				C95.8,21.8,95.6,21.7,95.5,21.8z"/>
			<path class="st1" d="M127.2,24.1c-1.1,1.5-2.3,2.8-3.6,4.1c-1.2,1.1-2.7,2-3.9,3.2c-0.2,0.2,0,0.4,0.3,0.3
				c3.1-1.4,5.6-4.7,7.5-7.4C127.5,24.1,127.3,23.9,127.2,24.1L127.2,24.1z"/>
			<path class="st1" d="M132.6,25.4c-3.6,2.9-7.8,5.5-11,8.9c-0.2,0.2,0,0.4,0.3,0.3c4-2.4,7.5-6,11-9
				C133.1,25.5,132.9,25.2,132.6,25.4L132.6,25.4z"/>
			<path class="st1" d="M133.4,27.2c-2.1,1.7-4.4,3.4-6.2,5.4c-0.1,0.1,0,0.3,0.2,0.2c2.3-1.4,4.3-3.5,6.4-5.2
				C134.1,27.3,133.7,26.9,133.4,27.2L133.4,27.2z"/>
			<path class="st1" d="M136.4,27.9c-2.8,2-6,3.9-8.5,6.3c-0.3,0.3,0.1,0.8,0.5,0.6c3-1.6,5.7-4.2,8.5-6.2
				C137.3,28.3,136.9,27.6,136.4,27.9L136.4,27.9z"/>
			<path class="st1" d="M135.4,31.2c-0.8,0.6-1.6,1.2-2.4,1.8c-0.6,0.5-1.4,0.9-1.9,1.6c-0.1,0.2,0.1,0.5,0.3,0.5
				c0.8-0.2,1.5-0.9,2.1-1.4c0.7-0.6,1.5-1.1,2.2-1.7C136.4,31.6,135.9,30.8,135.4,31.2z"/>
			<path class="st1" d="M137.5,33.2c-1.1,0.7-2.1,1.4-3.1,2.2c-0.4,0.3,0,0.8,0.3,0.6c1.1-0.6,2.1-1.3,3.2-2
				C138.4,33.6,137.9,32.9,137.5,33.2L137.5,33.2z"/>
			<path class="st1" d="M127,34.1c4.5,2.3,9.8,4.4,15,4.2c0.3,0,0.4-0.5,0.1-0.6c-5.1-1.2-9.9-1.8-14.7-4.1
				C126.9,33.4,126.6,33.9,127,34.1L127,34.1z"/>
			<path class="st1" d="M124.6,35.5c7.6,4.9,19.1,4.6,26-1.6c0.1-0.1,0-0.3-0.1-0.2c-8.8,4.2-16.5,5-25.6,1.2
				C124.5,34.8,124.3,35.4,124.6,35.5L124.6,35.5z"/>
			<path class="st1" d="M160.7,23.9c-1.2,1.1-2.3,2.1-3.5,3.1c-1.1,0.9-2.2,1.8-2.9,3.1c-0.1,0.2,0.1,0.4,0.3,0.3
				c1.3-0.7,2.2-1.8,3.2-2.9c1.1-1.2,2.1-2.3,3.2-3.5C161,24,160.8,23.8,160.7,23.9z"/>
			<path class="st1" d="M165,23c-3.2,3-6.9,5.9-9.6,9.3c-0.2,0.3,0.1,0.9,0.5,0.6c3.5-2.7,6.5-6.4,9.5-9.5
				C165.6,23.2,165.3,22.8,165,23z"/>
			<path class="st1" d="M166,26c-1.7,1-3.3,2.3-4.7,3.7c-1.2,1.3-2.7,2.8-3.2,4.6c-0.1,0.2,0.2,0.4,0.4,0.2c1.3-1.3,2.1-2.9,3.4-4.2
				c1.3-1.5,2.8-2.7,4.5-3.8C166.6,26.3,166.3,25.8,166,26z"/>
			<path class="st1" d="M167,28.2c-2.2,2.2-5,4.4-6.7,7.1c-0.1,0.2,0.1,0.5,0.3,0.3c2.6-1.9,4.6-4.7,6.7-7.1
				C167.5,28.3,167.2,28,167,28.2L167,28.2z"/>
			<path class="st1" d="M168,31.3c-0.9,0.9-1.9,1.8-2.8,2.7c-0.9,0.8-1.8,1.6-2.5,2.6c-0.2,0.3,0.2,0.6,0.5,0.5
				c0.9-0.7,1.7-1.7,2.6-2.5c0.9-0.9,1.8-1.9,2.7-2.8C168.6,31.4,168.2,31,168,31.3z"/>
			<path class="st1" d="M145.9,17.5c-3.9,3.7-8.3,7.3-11.6,11.7c-0.1,0.1,0.1,0.4,0.3,0.3c4.3-3.3,7.8-7.8,11.5-11.8
				C146.2,17.6,146,17.4,145.9,17.5z"/>
			<path class="st1" d="M147,20.8c-3.1,2.6-6.8,5.7-8.6,9.4c-0.1,0.1,0.1,0.3,0.2,0.2c1.5-1.5,2.7-3.3,4.1-4.8c1.4-1.6,3-3,4.6-4.4
				C147.7,20.9,147.3,20.6,147,20.8z"/>
			<path class="st1" d="M147.9,23.8c-2.8,2.7-6,5.3-8.5,8.4c-0.1,0.2,0,0.5,0.2,0.3c3.2-2.4,5.9-5.5,8.7-8.2
				C148.6,24,148.2,23.5,147.9,23.8L147.9,23.8z"/>
			<path class="st1" d="M145.9,29c-2,1.5-4.4,2.8-6.1,4.6c-0.2,0.2,0,0.5,0.3,0.3c2.2-1,4.2-2.9,6.2-4.3
				C146.6,29.4,146.3,28.7,145.9,29z"/>
			<path class="st1" d="M105.2,25.2c0.3-0.9,0.8-1.9,1.7-2.3c0.5-0.2,0.8-0.2,1.2-0.4c-0.2-0.4-0.3-0.8-0.5-1.2
				c-1.7,1.1-3.2,2.4-4.4,4c-1.3,1.6-1.7,3.2-2.3,5.1c-0.1,0.3,0.3,0.5,0.5,0.2c0.8-1.6,2.1-3.2,3.2-4.6c1.1-1.4,2.4-2.6,3.8-3.7
				c0.6-0.5-0.2-1.4-0.8-1.1c-1.3,0.7-2.3,2.5-2.6,3.9C104.9,25.2,105.1,25.3,105.2,25.2L105.2,25.2z"/>
			<path class="st1" d="M110.2,22.9c-2.9,2.7-5.9,5.4-8.7,8.2c-0.6,0.6,0.3,1.5,0.9,0.9c2.8-2.8,5.5-5.7,8.2-8.6
				C111,23,110.5,22.6,110.2,22.9L110.2,22.9z"/>
			<path class="st1" d="M112.3,25c-1,1.3-1.9,2.6-3.1,3.8c-1,0.9-2.4,1.6-3.2,2.7c-0.1,0.2,0.1,0.3,0.3,0.3c1.4-0.2,2.6-1.7,3.5-2.7
				c1.1-1.2,2.1-2.5,2.8-3.9C112.8,25,112.5,24.8,112.3,25L112.3,25z"/>
			<path class="st1" d="M113.5,27.1c-2.6,0.8-5,2.6-5.9,5.3c-0.2,0.6,0.8,1.1,1.1,0.5c1.2-2.2,2.6-4.1,5-5.3
				C114,27.4,113.8,27,113.5,27.1L113.5,27.1z"/>
			<path class="st1" d="M98.7,26.9c-4.2,2.5,1.4,7.6,3.6,9.2c4.2,3,10.9,5.6,15.2,1.3c0.3-0.3-0.1-0.7-0.4-0.6
				c-4.1,1.7-7.6,1.4-11.5-0.7c-1.7-0.9-9.9-6.3-6.5-8.9C99.2,27.1,99,26.8,98.7,26.9L98.7,26.9z"/>
		</g>
	</g>
</g>
<g>
	<g>
		<defs>
			<rect id="SVGID_00000137130958785291048070000002860937498275059584_" x="0.2" y="72" width="78" height="35"/>
		</defs>
		<clipPath id="SVGID_00000075841463670744539480000003309797988608077190_">
			<use xlink:href="#SVGID_00000137130958785291048070000002860937498275059584_"  style="overflow:visible;"/>
		</clipPath>
		<g style="clip-path:url(#SVGID_00000075841463670744539480000003309797988608077190_);">
			<path class="st1" d="M51.7,76.2c-3.7-4.2-9.9-4.8-15.3-3.8c-4.6,0.9-11.9,4-12.8,9.1c-0.1,0.5,0.4,0.9,0.9,0.6
				c4.2-2.5,6.6-6.2,11.9-7.4c5.3-1.2,10,0.3,15,2C51.7,76.9,51.9,76.5,51.7,76.2z"/>
			<path class="st1" d="M25.5,81c-4.6-2.3-13.1,1.1-12.4,6.9c0,0.3,0.5,0.5,0.7,0.2c1-2.2,2-4.2,4.1-5.5c2.2-1.4,4.8-1.6,7.2-0.8
				C25.7,81.9,26,81.2,25.5,81L25.5,81z"/>
			<path class="st1" d="M13.7,86.6C10,86.2,6.6,88.4,6,92.1c0,0.2,0.3,0.4,0.4,0.2c1.5-2.6,4.2-4.7,7.2-5.2
				C13.9,87,13.9,86.6,13.7,86.6L13.7,86.6z"/>
			<path class="st1" d="M6,91.4c-2.4-2.7-6,1-5.8,3.7c0.1,1.7,1.4,3.2,2.9,3.9c1.9,0.9,3.7,1,5.6,0.2c0.4-0.2,0.4-0.8-0.1-0.8
				c-2.2,0.1-5.4-0.3-6.5-2.4c-1.2-2.1,1.4-5.2,3.7-4.2C6,91.8,6.2,91.6,6,91.4z"/>
			<path class="st1" d="M8.6,98.8c2.8,7.8,18.1,9.3,22,1.7c0.2-0.4-0.2-0.9-0.7-0.7c-3.4,1.9-6.1,3.7-10.3,3.6
				c-4.5-0.1-7.3-2.3-10.6-4.9C8.8,98.4,8.5,98.5,8.6,98.8L8.6,98.8z"/>
			<path class="st1" d="M29.7,102c3.8,5.5,15.4,7.6,19,0.7c0.3-0.6-0.3-1.1-0.8-0.8c-2.8,1.3-5.2,2.8-8.4,2.9
				c-3.4,0.1-6.4-1.2-9-3.3C30.1,101.1,29.4,101.5,29.7,102z"/>
			<path class="st1" d="M48,103c5.8,4,15.9,3,19.5-3.5c0.2-0.4-0.3-0.7-0.6-0.5c-5.7,4.4-11.5,6.2-18.3,3.2
				C47.9,101.9,47.4,102.7,48,103L48,103z"/>
			<path class="st1" d="M54.7,77.9c2.7-0.5,5.3,0.4,7.3,2.1c2,1.7,2.3,3.7,3.1,5.9c0.2,0.5,0.8,0.5,1,0c1-2.7-1.3-5.9-3.4-7.4
				c-2.4-1.7-5.4-2.2-8.2-1.1C54.2,77.5,54.3,78,54.7,77.9L54.7,77.9z"/>
			<path class="st1" d="M66,86.8c2.2-1,5.1-0.4,6.7,1.3c1.6,1.7,1.3,3.8,1.2,6c0,0.3,0.4,0.5,0.6,0.2c1.8-2.1,0.8-5.5-1-7.3
				c-2.2-2.1-5.2-2-7.6-0.5C65.7,86.6,65.9,86.8,66,86.8z"/>
			<path class="st1" d="M74.8,92.5c2,1.7,3.1,5.3,0.9,7.4c-1,1-2.5,1.3-3.8,1c-1.5-0.2-2.1-1.2-3.3-1.9c-0.3-0.2-0.6,0.1-0.6,0.5
				c0.2,1.6,2.6,2.6,4,2.8c1.8,0.2,3.6-0.2,4.8-1.5c2.4-2.5,1.6-7.3-1.9-8.4C74.9,92.2,74.7,92.4,74.8,92.5L74.8,92.5z"/>
			<path class="st1" d="M65.8,99.7c2,1.9,4.8,3.9,7.7,3c1.9-0.6,3.8-2.5,2.7-4.5c-0.1-0.3-0.5-0.2-0.6,0.1c-0.6,1.7-1.9,3-3.7,2.9
				c-1.9,0-3.7-1.4-5.3-2.4C66,98.5,65.3,99.2,65.8,99.7L65.8,99.7z"/>
			<path class="st1" d="M74.3,95.4c0.3,0.6,0.4,1.3,0.4,2c-0.1,0.7-0.4,1.2-0.5,1.8c0,0.3,0.2,0.5,0.5,0.3c1.7-0.8,1.1-3.4,0.1-4.6
				C74.5,94.8,74.2,95.1,74.3,95.4z"/>
			<path class="st1" d="M17.8,87.9c-0.6,0.6-1.4,1-2,1.7c-0.6,0.6-1.2,1.2-1.7,1.9c-1,1.1-2.2,2.2-3,3.5c-0.3,0.5,0.4,1,0.8,0.6
				c1.3-1.1,2.3-2.5,3.4-3.8c0.5-0.6,1-1.2,1.4-1.7c0.5-0.6,0.8-1.4,1.2-2C18,87.9,17.8,87.8,17.8,87.9L17.8,87.9z"/>
			<path class="st1" d="M19.5,88.7c-0.9,1.4-1.8,2.7-2.8,4c-1,1.2-2.2,2.4-3,3.8c-0.1,0.2,0.1,0.4,0.3,0.3c1.3-0.7,2.2-2,3.1-3.2
				c1.1-1.4,2.1-2.9,3-4.5C20.4,88.7,19.7,88.3,19.5,88.7z"/>
			<path class="st1" d="M21.7,89.9c-2.1,2.7-4.4,5.4-6.3,8.3c-0.2,0.3,0.3,0.7,0.5,0.4c2.2-2.7,4.1-5.7,6.2-8.5
				C22.3,89.9,21.9,89.6,21.7,89.9L21.7,89.9z"/>
			<path class="st1" d="M23.7,92.8c-0.9,0.9-1.8,1.8-2.8,2.8c-0.8,0.8-1.8,1.6-2.5,2.6c-0.2,0.3,0.2,0.7,0.5,0.5
				c1-0.7,1.7-1.7,2.5-2.5c0.9-0.9,1.8-1.9,2.7-2.8C24.6,92.9,24.1,92.4,23.7,92.8z"/>
			<path class="st1" d="M25.2,96.3C25.2,96.3,25.2,96.2,25.2,96.3C25.1,96.2,25.1,96.3,25.2,96.3z"/>
			<path class="st1" d="M25.9,94c-0.6,0.9-1.1,1.8-1.7,2.8c-0.5,0.8-1.2,1.6-1.4,2.6c-0.1,0.4,0.4,0.6,0.7,0.4
				c0.7-0.6,1.2-1.6,1.7-2.4c0.6-0.9,1.1-1.8,1.7-2.8C27.2,94,26.2,93.4,25.9,94L25.9,94z"/>
			<path class="st1" d="M41.9,91c-1.8,1.5-3.5,3.1-5.3,4.7c-1.5,1.4-3.3,2.8-4.4,4.5c-0.1,0.2,0.1,0.4,0.3,0.3
				c1.8-1,3.3-2.7,4.8-4.2c1.7-1.6,3.3-3.3,5-5C42.5,91.2,42.2,90.8,41.9,91L41.9,91z"/>
			<path class="st1" d="M41.6,93.8c-2.8,2.8-5.8,5.4-8.3,8.4c-0.2,0.3,0.1,0.7,0.4,0.4c2.9-2.6,5.5-5.7,8.1-8.6
				C41.9,93.9,41.7,93.6,41.6,93.8z"/>
			<path class="st1" d="M41.7,96.9c-1.2,0.7-2.3,1.5-3.3,2.5c-0.8,0.8-1.8,1.9-1.9,3c0,0.1,0.2,0.2,0.3,0.2c0.9-0.7,1.5-1.8,2.3-2.6
				c0.9-0.9,2-1.7,3.2-2.3C42.8,97.5,42.3,96.6,41.7,96.9L41.7,96.9z"/>
			<path class="st1" d="M45.9,97c-2.7,2.4-5.5,4.7-8,7.3c-0.4,0.4,0.2,1,0.6,0.6c0.8-0.8,1.7-1.5,2.5-2.2c0.2-0.1,0-0.4-0.2-0.3
				c-0.9,0.7-1.9,1.3-2.9,1.8c0.2,0.2,0.3,0.5,0.5,0.7c2.8-2.3,5.2-5,7.7-7.6C46.5,97.2,46.1,96.8,45.9,97L45.9,97z"/>
			<path class="st1" d="M45.7,100c-0.3,0.4-0.7,0.7-1,1.1c-0.5,0.5,0.2,1.2,0.8,0.7c0.4-0.3,0.7-0.6,1.1-1
				C47.2,100.4,46.3,99.4,45.7,100L45.7,100z"/>
			<path class="st1" d="M37.5,95.9c-1.2,0.7-2.4,1.4-3.6,2.2c-1,0.7-2,1.3-2.6,2.3c-0.2,0.2,0.1,0.6,0.4,0.5c1.2-0.4,2.2-1.3,3.2-2
				c1-0.8,2-1.6,2.9-2.5C38.1,96.1,37.8,95.7,37.5,95.9L37.5,95.9z"/>
			<path class="st1" d="M37.7,96.2c-1.4,1-2.9,2-4.2,3.1c-0.1,0,0,0.1,0.1,0.1c1.4-1,2.8-2.1,4.2-3.1C37.8,96.2,37.8,96.1,37.7,96.2
				z"/>
			<path class="st1" d="M39.6,97.1c-0.8,0.7-1.6,1.5-2.4,2.2c-0.7,0.6-1.6,1.2-1.9,2.1c-0.1,0.3,0.2,0.5,0.4,0.4
				c0.9-0.3,1.5-1.1,2.1-1.8c0.7-0.8,1.5-1.6,2.2-2.4C40.4,97.2,39.9,96.7,39.6,97.1L39.6,97.1z"/>
			<path class="st1" d="M33.2,97.5c1.8,3.2,6.3,5.7,9.9,4.1c0.2-0.1,0.1-0.5-0.1-0.5c-3.8-0.1-7-0.6-9.5-3.8
				C33.4,97.2,33.1,97.3,33.2,97.5z"/>
			<path class="st1" d="M53.2,96.9c-1.2,0.8-2.3,1.6-3.4,2.5c-1,0.8-2.5,1.6-3.1,2.8c-0.1,0.3,0.1,0.6,0.4,0.5
				c1.2-0.3,2.2-1.4,3.1-2.2c1.2-1,2.3-2,3.4-3C54,97.1,53.6,96.6,53.2,96.9L53.2,96.9z"/>
			<path class="st1" d="M57.4,96l-2.7,2.8c-0.8,0.8-1.9,1.7-2.4,2.7c-0.2,0.3,0.2,0.7,0.5,0.5c1-0.6,1.8-1.7,2.6-2.5
				c0.9-0.9,1.8-1.9,2.7-2.8C58.6,96.2,57.9,95.5,57.4,96z"/>
			<path class="st1" d="M58.4,98c-1.2,1.3-2.4,2.6-3.6,3.9c-0.3,0.4,0.1,1,0.6,0.7c2.2-1.3,4.3-2.6,6.6-3.8
				c-0.2-0.2-0.5-0.4-0.7-0.5c-0.3,0.9-0.9,1.5-1.7,1.9c-0.5,0.3-0.2,1.3,0.5,1.1c2.4-0.7,4.7-1.9,6.3-3.8c0.1-0.2,0-0.4-0.2-0.3
				c-2,1.3-3.9,2.5-6.3,3c0.2,0.4,0.3,0.7,0.5,1.1c1.1-0.6,1.7-1.5,2-2.7c0.1-0.4-0.4-0.8-0.7-0.5c-2.2,1.4-4.4,2.6-6.6,3.8l0.6,0.7
				c1.3-1.3,2.5-2.6,3.7-3.9C59.6,98.2,58.9,97.5,58.4,98L58.4,98z"/>
			<path class="st1" d="M66.2,96.3c-5.9,1.2-11.3,2.6-17.4,2.3c-0.9,0-1,1.2-0.2,1.5c4.6,1.5,10,0.9,13.3-2.8
				c0.3-0.3-0.1-0.8-0.4-0.6c-4,2.2-7.9,3.3-12.5,1.9c-0.1,0.5-0.1,1-0.2,1.5c5.9,0.3,12.4-0.3,17.6-3.3
				C66.6,96.6,66.4,96.2,66.2,96.3L66.2,96.3z"/>
		</g>
	</g>
</g>
</svg>
