<?xml version="1.0" encoding="utf-8"?>
<!-- Generator: Adobe Illustrator 27.1.1, SVG Export Plug-In . SVG Version: 6.00 Build 0)  -->
<svg version="1.1" id="Слой_1" xmlns="http://www.w3.org/2000/svg" xmlns:xlink="http://www.w3.org/1999/xlink" x="0px" y="0px"
	 viewBox="0 0 150.1 78.7" style="enable-background:new 0 0 150.1 78.7;" xml:space="preserve">
<style type="text/css">
	.st0{clip-path:url(#SVGID_00000097472132918079022260000005443499602679949488_);}
	.st1{fill:#AAAAAA;}
</style>
<g>
	<defs>
		
			<rect id="SVGID_1_" x="47.9" y="-36.5" transform="matrix(0.26 -0.9656 0.9656 0.26 19.6713 102.1855)" width="57.1" height="149.5"/>
	</defs>
	<clipPath id="SVGID_00000008117823910719540770000003372596449915303560_">
		<use xlink:href="#SVGID_1_"  style="overflow:visible;"/>
	</clipPath>
	<g style="clip-path:url(#SVGID_00000008117823910719540770000003372596449915303560_);">
		<path class="st1" d="M96.7,23.7c-3.6,1.5-5.3-0.4-8.1-2.4c-1.3-0.9-2.8-1.6-4.4-2c-2.9-0.7-6.8-0.8-9.1,1.4
			c-0.2,0.2,0,0.4,0.2,0.4c3-0.1,5.5-1,8.5-0.2c2.9,0.8,4.9,2.8,7.5,4.1c1.9,0.9,4.7,1.4,5.6-0.9C97.1,23.8,96.9,23.6,96.7,23.7z"/>
		<path class="st1" d="M78.8,19.8c-4.3,0.5-6.5-3.7-9-6.4c-1.6-1.8-3.4-3.4-5.3-4.9c-4.2-3.2-9.2-5.6-14.3-6.9
			c-11.4-2.9-23.1,1-34.5,2.1c-0.5,0-0.7,0.9-0.1,1c5.8,0.9,11.7-0.8,17.4-1.8c6.7-1.1,13.2-1.2,19.7,0.8c6.2,1.9,12,5.6,16.4,10.5
			c2.5,2.7,5.4,8,9.8,6.2C79.2,20.2,79.1,19.8,78.8,19.8L78.8,19.8z"/>
		<path class="st1" d="M16.5,4.3c-2.1-0.6-3.3,1.4-3.2,3.3c0.1,1.5,1,2.7,1.6,4.1c0.7,1.7,0.9,3.5,0.3,5.3c-0.5,1.4-0.7,1.2-0.8,2.5
			c0,0.3,0.3,0.4,0.6,0.3c2-1,2.4-4,2.1-6c-0.3-2.2-5.1-9-0.5-9.2C16.6,4.6,16.7,4.4,16.5,4.3L16.5,4.3z"/>
		<path class="st1" d="M15.8,17.7c-1.2,1.2-2.8,3.5-0.7,4.8c2.8,1.7,6.2-5,7.5-6.6C26.5,11.4,31,8.2,36.9,7
			c6.8-1.3,12.6,0.9,19.2,1.8c0.6,0.1,1.1-0.7,0.5-1.1c-6.7-3.8-16.9-3.9-24.1-1.2c-3.3,1.2-6.2,3.1-8.6,5.7
			c-1.2,1.2-2.2,2.5-3.2,3.8c-0.7,0.9-1.3,2.1-2.1,2.9c-0.2,0.3-0.5,0.7-0.7,1C15.5,19.7,14.8,19,15.8,17.7
			C15.9,17.7,15.8,17.6,15.8,17.7L15.8,17.7z"/>
		<path class="st1" d="M70.7,15.2c1,3.3,6,6.7,9.4,4.6c0.3-0.2,0.2-0.6-0.1-0.7c-1.6-0.4-3.2-0.3-4.7-1c-1.6-0.7-2.9-1.9-4.1-3.2
			C71,14.6,70.6,14.9,70.7,15.2L70.7,15.2z"/>
		<path class="st1" d="M54,7.9c3.7,2.7,7.9,3.6,11,7.2c3.8,4.3,2.9,9,4,14.1c0.1,0.3,0.5,0.3,0.6,0c0.9-4.6-0.2-10.3-3.1-14
			c-2.7-3.5-7.9-7.1-12.4-7.6C53.9,7.6,53.9,7.8,54,7.9z"/>
		<path class="st1" d="M69.3,27c-0.9,4.7-0.9,9.4-2,14c-0.1,0.6,0.8,0.9,1,0.3c1.3-4.4,2.3-9.8,1.2-14.3
			C69.5,26.9,69.4,26.9,69.3,27L69.3,27z"/>
		<path class="st1" d="M68.4,38.7c0.2,0.9-1.4,5.8,1.7,3.8c1.6-1,2.1-4.5,2.8-6.1c1.5-3.8,3.6-6.6,6-9.7c0.3-0.4-0.3-1-0.7-0.7
			c-2.8,1.8-4.4,5-5.6,7.9c-0.6,1.5-1,4.4-1.9,5.6C68.1,42.7,68.9,39.9,68.4,38.7C68.5,38.6,68.4,38.6,68.4,38.7L68.4,38.7z"/>
		<path class="st1" d="M77.4,26.8c2.2,0,4.4-0.4,6.6,0.4c2,0.7,3.3,2.4,5.2,3c0.3,0.1,0.6-0.2,0.5-0.5c-0.4-2.2-3.3-3.4-5.3-3.9
			c-2.3-0.6-5-0.7-7.1,0.7C77.1,26.6,77.2,26.8,77.4,26.8L77.4,26.8z"/>
		<path class="st1" d="M88,29.2c2.3,5.4-0.1,12-0.9,17.5c-0.1,0.7,0.9,1,1.1,0.3c0.6-3.8,1.3-7.7,1.7-11.6c0.2-2.3,0.1-4.6-1.6-6.4
			C88.1,29,87.9,29.1,88,29.2L88,29.2z"/>
		<path class="st1" d="M87.6,45c-0.2,1.1-0.4,2.2,0.1,3.2c0.1,0.3,0.4,0.3,0.7,0.3c2.1-0.4,2.9-3.8,3.6-5.5
			c1.6-3.6,2.9-7.5,5.5-10.5c5.4-6.2,12.9-4.8,20-6.1c0.8-0.1,0.8-1.4,0-1.6c-5.9-1.1-13.7,0.8-18.5,4.4c-2.9,2.2-4.8,5.3-6.3,8.6
			c-0.9,1.9-1.6,3.8-2.4,5.8c-0.8,1.9-1.6,4.9-2.4,1.5C87.9,44.8,87.7,44.8,87.6,45z"/>
		<path class="st1" d="M117.7,25.9c2.9,1.4,6,1.8,8.8,3.4c3.2,1.8,5.9,4.5,7.9,7.6c1.8,2.8,2.9,6,3.7,9.2c0.7,2.8,0.5,5.8,1.7,8.4
			c0.3,0.6,1.1,0.3,1.3-0.2c1.2-3,0.1-7.1-0.9-10.1c-1.1-3.4-2.8-6.6-5-9.5c-3.7-4.7-11-10.8-17.5-9
			C117.7,25.8,117.7,25.9,117.7,25.9L117.7,25.9z"/>
		<path class="st1" d="M139.7,49.4c-0.6,2.3-0.1,4.8,0.1,7.1c0.1,1,0.1,2.5,1.4,2.8c1.1,0.2,1.8-0.9,2.2-1.8c1-2.1,1.9-4.6,2.3-6.8
			c0.1-0.4-0.5-0.7-0.7-0.3c-0.6,1-1.1,2.2-1.5,3.3c-0.3,0.7-0.5,1.3-0.8,2c-0.2,0.5-0.4,1-0.6,1.5c-0.1,0.5-0.3,0.5-0.7,0.2
			c-0.9-0.3-0.5-1.2-0.6-2c0-0.7,0-1.4-0.1-2.1c-0.1-1.4-0.2-2.6-0.7-3.9C140,49.2,139.7,49.1,139.7,49.4z"/>
		<path class="st1" d="M145.1,52c1.4-1.9,4.2-3.2,4.5-5.8c0.2-2.1-1.4-4.2-3-5.4c-0.5-0.4-1,0.2-0.7,0.6c1.7,2.2,3.7,4.2,1.4,6.9
			c-1,1.2-2.1,2-2.5,3.5C144.9,52.1,145.1,52.1,145.1,52L145.1,52z"/>
		<path class="st1" d="M94.5,24.9c5.2-0.8,10-2.9,15.2-3.4c4.8-0.5,9.7-0.2,14.3,1.3c10,3.3,15,12.4,21.4,20.1
			c0.4,0.5,1.2-0.2,0.8-0.6c-6-8.2-11.8-17.2-21.9-20.4c-4.9-1.6-10.1-1.8-15.2-1.2c-4.8,0.6-10.5,1.6-14.7,4.1
			C94.3,24.7,94.4,24.9,94.5,24.9L94.5,24.9z"/>
		<path class="st1" d="M147.9,42.5c-0.6-1.9-2.8-3.4-4.1-4.8c-1.6-1.7-2.9-3.8-4.7-5.3c-0.3-0.2-0.6,0.2-0.5,0.5
			c0.9,2.1,2.8,3.9,4.4,5.6c1.3,1.4,2.9,3.6,4.8,4.1C147.9,42.6,148,42.5,147.9,42.5L147.9,42.5z"/>
		<path class="st1" d="M19,19.6c-5.2,5.8-5.3,15.3-1.9,22c3.3,6.5,11,14,19,13.2c0.3,0,0.4-0.5,0.1-0.6c-3.6-1.2-6.9-1.7-10.2-3.8
			c-3.6-2.4-6.7-5.6-8.3-9.7c-2.8-7.2-1.3-14.2,1.4-21.1C19.2,19.5,19.1,19.5,19,19.6L19,19.6z"/>
		<path class="st1" d="M33.6,55.2c7.3,1.3,15.9,0.2,22.8-2.6c5.5-2.3,11.8-7.2,12.4-13.6c0.1-0.5-0.8-0.7-1-0.3
			c-1.6,2.9-2.7,5.6-5.1,8c-2.6,2.7-5.9,4.7-9.5,6c-6.4,2.3-12.9,2.1-19.6,1.9C33.4,54.6,33.3,55.1,33.6,55.2L33.6,55.2z"/>
		<path class="st1" d="M89.9,46.4C89.9,46.4,89.9,46.3,89.9,46.4C89.9,46.3,89.9,46.4,89.9,46.4z"/>
		<path class="st1" d="M89.9,46.4c-4.1,11.3,7,23.9,16.3,28.8c9.9,5.2,22.6,3.6,29.3-5.9c0.2-0.3-0.2-0.6-0.5-0.4
			c-7.7,8-18.7,10.4-28.6,4.9c-8.2-4.6-19.2-17-15.7-27.1C90.8,46.1,90,45.9,89.9,46.4z"/>
		<path class="st1" d="M140.6,58.8c-0.9,2.2-1.9,4.4-3.2,6.4c-1.4,2.3-3.3,4.1-5,6.2c-0.1,0.2,0,0.4,0.2,0.3c4.3-2.6,7.3-8,8.2-12.8
			C140.9,58.8,140.7,58.7,140.6,58.8z"/>
		<path class="st1" d="M16.4,27.4C11.8,27,0.6,27.1,0.5,33.8c-0.1,2.7,2,5,4.7,5.2c1.4,0.1,2.5-0.5,3.8-1c2-0.9,4-1.8,6.3-2.1
			c0.6-0.1,0.5-1.2-0.2-1.1c-1.8,0.2-3.6,0.6-5.3,1.3c-1,0.4-2,1.1-3,1.3C4,38.1,1.1,35.9,2,32.8c1.5-4.8,10.7-4.2,14.4-4.6
			C16.9,28.2,16.9,27.5,16.4,27.4z"/>
		<path class="st1" d="M138,65.8c1.2,2.3,6.5,5.3,4.7,8.4c-1.1,1.8-3.5,2-5.2,1.1c-1.7-0.9-2.4-2.6-3.6-4c-0.3-0.3-0.8,0-0.7,0.4
			c0.8,4.3,6.7,7.3,10.1,3.9c1.4-1.4,1.5-3.2,0.5-4.9c-1.2-2-3.4-4.4-5.7-5.1C138,65.6,138,65.7,138,65.8L138,65.8z"/>
		<path class="st1" d="M72.3,35.9c3,0.1,6.2,0.4,9.1,1c2.6,0.5,5.1,1.7,7.8,2.1c0.1,0,0.2-0.1,0.1-0.2c-4.3-3.6-11.7-3.9-17-3
			C72.2,35.8,72.3,35.9,72.3,35.9L72.3,35.9z"/>
		<path class="st1" d="M89.4,35.2c-2.2-1.1-4.7-1.6-7.1-2.4c-2.4-0.7-4.7-1.8-7.2-2.1c-0.3,0-0.4,0.5-0.2,0.6
			c2.1,1.3,4.7,1.8,7.1,2.5c2.4,0.7,4.8,1.5,7.3,1.6C89.5,35.4,89.5,35.3,89.4,35.2L89.4,35.2z"/>
		<path class="st1" d="M89.6,32.9c-4.6-1.2-9.7-1.3-14.4-2c-0.4-0.1-0.7,0.6-0.2,0.7c4.5,0.9,10,2,14.6,1.6
			C89.8,33.2,89.8,32.9,89.6,32.9L89.6,32.9z"/>
		<path class="st1" d="M87.8,40c-2.1-1.7-4.5-2.8-7.2-3.3c-0.2,0-0.2,0.2-0.1,0.3c2.4,0.9,4.8,2,7.2,3.2
			C87.7,40.2,87.8,40.1,87.8,40L87.8,40z"/>
		<path class="st1" d="M15.8,28.2c4.5-0.5,9.1-1.4,13.6-2c4.1-0.5,8.3-0.6,12.4-1.3c0.1,0,0.1-0.2,0-0.2
			C33.4,24.7,23.9,26,15.8,28.2C15.8,28.2,15.8,28.2,15.8,28.2L15.8,28.2z"/>
		<path class="st1" d="M13.4,36.3C25,34.2,36.5,30.7,48,27.9c0.2-0.1,0.1-0.4-0.1-0.3c-11.5,2.8-23.3,5.1-34.5,8.6
			C13.3,36.2,13.3,36.3,13.4,36.3L13.4,36.3z"/>
		<path class="st1" d="M26.5,11.7c6.6,3.2,13.6,5.7,20.4,8.6c7.2,3,14.5,6,21.7,9.1c0.2,0.1,0.4-0.2,0.2-0.3
			c-14-5.9-27.9-12.7-42.2-17.6C26.4,11.3,26.3,11.6,26.5,11.7L26.5,11.7z"/>
		<path class="st1" d="M20.9,18c7.3,3.6,15.4,6,23,8.9c8.1,3.1,16.2,6.2,24.4,9.1c0.3,0.1,0.4-0.3,0.1-0.4c-7.8-3.2-15.8-6-23.7-9
			C37,23.6,29.1,20,21,17.8C20.9,17.8,20.9,17.9,20.9,18L20.9,18z"/>
		<path class="st1" d="M94.8,35c7.4,0.6,14.4,2.6,21.5,4.5c6.8,1.8,13.7,3.6,20.5,5.4c0.3,0.1,0.5-0.4,0.1-0.5
			c-7.3-1.9-14.6-3.9-21.9-5.8c-6.6-1.7-13.4-4.1-20.2-3.9C94.6,34.6,94.6,35,94.8,35L94.8,35z"/>
		<path class="st1" d="M92.2,39.3c15.8,5,32.1,9.9,48.3,13.7c0.3,0.1,0.5-0.4,0.1-0.5c-15.8-5.2-32.2-9.5-48.3-13.4
			C92.1,39.1,92.1,39.2,92.2,39.3z"/>
		<path class="st1" d="M94.1,40.7c7.4,4.6,14.5,9.1,21.2,14.7c6.4,5.3,12.4,11.2,19,16.4c0.4,0.3,0.9-0.2,0.5-0.5
			c-6.3-6.1-13.3-11.8-20.2-17.2C108.3,49.1,101.5,44.1,94.1,40.7C94.1,40.6,94.1,40.7,94.1,40.7L94.1,40.7z"/>
		<path class="st1" d="M108.9,44.2c5.3,3.7,11.1,6.4,16.3,10.3c5.6,4.1,10.1,9.2,15.3,13.7c0.2,0.2,0.6-0.1,0.4-0.3
			c-3.8-5.1-9.3-9.4-14.3-13.2c-5.3-4-11.3-8.5-17.6-10.7C108.9,44,108.8,44.2,108.9,44.2L108.9,44.2z"/>
		<path class="st1" d="M134,69.8c0.5,0.9,1.1,1.8,1.6,2.8c0.5,0.8,0.9,1.8,1.6,2.4c0.1,0.1,0.2,0,0.2-0.1c-0.3-0.9-1-1.7-1.5-2.5
			c-0.6-0.9-1.2-1.8-1.8-2.6C134,69.6,133.9,69.7,134,69.8L134,69.8z"/>
		<path class="st1" d="M134.8,70.5c0.4,0.6,0.7,1.3,1.1,2c0.3,0.6,0.6,1.3,1.1,1.7c0.1,0.1,0.3,0,0.2-0.1c-0.2-0.6-0.6-1.2-0.9-1.8
			c-0.4-0.6-0.8-1.3-1.2-1.9C135,70.2,134.8,70.3,134.8,70.5L134.8,70.5z"/>
		<path class="st1" d="M135.7,70.3c0.3,0.5,0.6,1,0.8,1.4c0.2,0.4,0.5,0.9,0.8,1.3c0.1,0.1,0.2,0,0.1-0.1c-0.1-0.5-0.5-0.9-0.7-1.3
			c-0.3-0.5-0.6-1-0.8-1.4C135.8,70.1,135.6,70.2,135.7,70.3z"/>
		<path class="st1" d="M135.9,69.6c0.3,0.5,0.7,1,1,1.5c0.3,0.5,0.6,0.9,1,1.3c0.1,0.1,0.3,0,0.2-0.2c-0.3-0.5-0.7-1-1-1.5
			c-0.3-0.4-0.6-0.9-1-1.3C136,69.3,135.8,69.5,135.9,69.6z"/>
		<path class="st1" d="M136.9,70.2c0.2,0.3,0.4,0.6,0.5,0.9c0,0.1,0.2,0,0.1-0.1c-0.2-0.3-0.3-0.6-0.5-0.9
			C137,70,136.8,70.1,136.9,70.2L136.9,70.2z"/>
		<path class="st1" d="M133.4,70c0.1,0.5,0.2,1,0.5,1.5c0.2,0.3,0.5,0.9,1,1c0.1,0,0.1-0.1,0.1-0.2c0-0.2-0.2-0.3-0.3-0.4
			c-0.2-0.2-0.3-0.4-0.5-0.6c-0.3-0.4-0.4-0.8-0.5-1.3C133.7,69.8,133.4,69.9,133.4,70L133.4,70z"/>
		<path class="st1" d="M55.6,7.9C55.6,7.9,55.6,7.8,55.6,7.9C55.6,7.8,55.6,7.9,55.6,7.9z"/>
		<path class="st1" d="M55.5,8.1c2.9,1.2,5,3,7.5,4.9c0.2,0.1,0.4-0.1,0.3-0.3c-1.6-2.6-4.8-4.3-7.6-5.2C55.3,7.4,55.2,8,55.5,8.1
			L55.5,8.1z"/>
		<path class="st1" d="M16.6,15.8c-0.3,0.7-0.4,1.4-0.5,2.1c-0.1,0.7-0.2,1.5,0,2.2c0.1,0.3,0.4,0.3,0.5,0c0.2-0.6,0.1-1.4,0.2-2
			c0.1-0.7,0.2-1.5,0.3-2.2C17.2,15.6,16.7,15.6,16.6,15.8L16.6,15.8z"/>
		<path class="st1" d="M16.5,20.1c0.1,0,0.1-0.1,0-0.2C16.4,19.9,16.4,20.1,16.5,20.1z"/>
		<path class="st1" d="M16.2,22.2c2,0.4,3.2-0.9,4.4-2.3c3.8-4.5,6.9-8.5,12.8-10.3C43.7,6.4,55,9,63.9,14.6
			c0.3,0.2,0.5-0.3,0.3-0.4c-7.4-5.1-16.8-7.3-25.7-6c-4.4,0.6-8.4,1.9-11.9,4.7c-1.4,1.1-2.7,2.4-3.9,3.8c-1.8,2.1-3.2,5.4-6.4,5.5
			C16.2,22.1,16.2,22.2,16.2,22.2L16.2,22.2z"/>
		<path class="st1" d="M31.8,7.9c-0.4,0.6-0.8,1.1-1.3,1.6c-0.4,0.4-1,0.7-1.2,1.2c0,0.1,0,0.2,0.1,0.2c0.6,0,1.1-0.6,1.5-1
			c0.5-0.5,1-1.1,1.3-1.8C32.4,7.9,32,7.7,31.8,7.9L31.8,7.9z"/>
		<path class="st1" d="M34.3,7.8c-0.4,0.4-0.9,0.7-1.3,1.1c-0.4,0.3-0.8,0.6-1.1,1.1c0,0.1,0,0.2,0.1,0.2c0.5-0.2,0.8-0.5,1.2-0.9
			c0.4-0.4,0.9-0.8,1.3-1.2C34.6,7.9,34.4,7.7,34.3,7.8z"/>
		<path class="st1" d="M37.3,7.1c-0.4,0.2-0.9,0.4-1.3,0.7c-0.4,0.2-0.7,0.4-1,0.7c-0.1,0.1,0,0.2,0.1,0.2c0.4-0.1,0.8-0.4,1.1-0.6
			c0.4-0.3,0.8-0.5,1.1-0.8C37.6,7.2,37.4,7,37.3,7.1L37.3,7.1z"/>
		<path class="st1" d="M39.8,6.3c-0.5,0.3-1,0.6-1.4,0.9c-0.4,0.3-0.9,0.6-1.1,1.1c0,0.1,0,0.2,0.1,0.1c0.4-0.3,0.7-0.7,1.1-1
			c0.5-0.4,0.9-0.7,1.4-1C40,6.4,39.9,6.2,39.8,6.3L39.8,6.3z"/>
		<path class="st1" d="M42.1,6.4c-0.6,0.5-1.4,0.9-1.9,1.4c-0.1,0.1,0,0.2,0.1,0.1c0.7-0.4,1.3-0.9,1.9-1.4
			C42.2,6.5,42.1,6.4,42.1,6.4z"/>
		<path class="st1" d="M43.8,6.9l-0.7,0.4c-0.2,0.1-0.5,0.2-0.6,0.4c-0.1,0.1,0,0.1,0.1,0.1c0.2,0,0.5-0.2,0.7-0.3L44,7.1
			C44.1,7,44,6.8,43.8,6.9z"/>
		<path class="st1" d="M44.1,7.2c0.2,0.3,0.4,0.6,0.5,0.9c0.1,0.2,0.3,0,0.3-0.1c-0.2-0.3-0.3-0.6-0.5-0.9C44.3,6.8,44,7,44.1,7.2z"
			/>
		<path class="st1" d="M100.3,29.7c12-4.4,27.1-3.1,34.6,8.3c0.1,0.1,0.3,0,0.2-0.1C129.8,25.3,110.8,25.4,100.3,29.7
			C100.3,29.7,100.3,29.7,100.3,29.7L100.3,29.7z"/>
		<path class="st1" d="M120.5,27c-0.9-0.2-1.8-0.4-2.8-0.5l-0.1,0.6c1.8,0,3.1,0.7,4.6,1.6c0.2,0.1,0.3-0.1,0.2-0.2
			c-1.1-1.4-3.1-1.9-4.8-1.9c-0.4,0-0.3,0.5,0,0.6c0.9,0.1,1.9,0.3,2.8,0.3C120.6,27.3,120.7,27.1,120.5,27z"/>
		<path class="st1" d="M77.7,20.4c-0.5,0.3-1.1,0.7-1.5,1.1c0,0.1,0,0.1,0.1,0.1C76.8,21.3,77.3,20.9,77.7,20.4
			C77.8,20.4,77.7,20.3,77.7,20.4z"/>
		<path class="st1" d="M74.9,19.7c0.3,0.1,0.4,0.3,0.2,0.6c-0.1,0.3-0.2,0.5-0.3,0.8c-0.1,0.4-0.2,0.8-0.3,1.2
			c-0.2,0.8-0.4,1.6-0.5,2.5c0,0.1,0.1,0.1,0.2,0c0.5-0.9,0.8-1.8,1.1-2.8c0.2-0.6,0.7-1.6,0.5-2.2c-0.1-0.4-0.8-0.7-1-0.2
			C74.7,19.7,74.8,19.7,74.9,19.7L74.9,19.7z"/>
		<path class="st1" d="M76.6,20c-0.8,1.5-1.8,3.7-1.6,5.4c0,0.1,0.2,0.2,0.3,0.1c0.4-0.8,0.5-1.7,0.7-2.5c0.3-1,0.6-1.9,0.9-2.9
			C77,19.9,76.7,19.8,76.6,20L76.6,20z"/>
		<path class="st1" d="M77.9,20.3c-0.6,1.4-1.3,2.8-1.7,4.2c-0.1,0.2,0.3,0.4,0.4,0.2c0.7-1.3,1.1-2.8,1.6-4.2
			C78.3,20.3,77.9,20.1,77.9,20.3z"/>
		<path class="st1" d="M78.4,20.9c-0.2,0.6-0.4,1.1-0.7,1.7c-0.2,0.5-0.5,1-0.5,1.5c0,0.1,0.2,0.2,0.3,0.1c0.3-0.4,0.5-0.9,0.7-1.4
			c0.2-0.6,0.5-1.2,0.7-1.8C79,20.7,78.5,20.6,78.4,20.9L78.4,20.9z"/>
		<path class="st1" d="M79.1,21c-0.3,0.5-0.5,0.9-0.7,1.4c-0.1,0.2,0.3,0.3,0.4,0.2c0.3-0.4,0.5-0.9,0.8-1.3
			C79.7,21,79.3,20.8,79.1,21L79.1,21z"/>
		<path class="st1" d="M90.3,24.5c-0.3,0.6-0.6,1.3-0.9,1.9c-0.2,0.5-0.6,1-0.5,1.6c0,0.1,0.1,0.2,0.2,0.1c0.4-0.4,0.5-1,0.7-1.5
			c0.2-0.7,0.5-1.3,0.7-2C90.6,24.5,90.4,24.4,90.3,24.5L90.3,24.5z"/>
		<path class="st1" d="M90.7,23.8c-0.2,0.7-0.4,1.4-0.6,2.1c-0.2,0.6-0.5,1.3-0.4,1.9c0,0.2,0.2,0.2,0.3,0.1
			c0.4-0.5,0.5-1.2,0.6-1.8c0.2-0.7,0.4-1.4,0.5-2.1C91.3,23.7,90.8,23.5,90.7,23.8z"/>
		<path class="st1" d="M91.9,24.9c-0.4,1.1-1,2.3-1.3,3.5c-0.1,0.2,0.3,0.4,0.4,0.2c0.6-1.1,1-2.4,1.4-3.5
			C92.5,24.8,92,24.6,91.9,24.9L91.9,24.9z"/>
		<path class="st1" d="M92.6,25.1c-0.3,1.1-0.7,2.2-0.8,3.3c0,0.2,0.4,0.3,0.5,0.1c0.4-1,0.6-2.2,0.9-3.3
			C93.2,24.9,92.7,24.8,92.6,25.1z"/>
		<path class="st1" d="M93.5,26.4c-0.5,0.5-1.2,1.6-0.9,2.3c0.1,0.1,0.2,0.2,0.3,0c0.2-0.3,0.2-0.6,0.4-0.9c0.2-0.4,0.4-0.7,0.6-1
			C94.1,26.5,93.7,26.1,93.5,26.4L93.5,26.4z"/>
		<path class="st1" d="M94.1,25.9c-0.1,0.4-0.3,0.8-0.4,1.2c-0.1,0.2-0.1,0.4-0.2,0.6c-0.1,0.3,0,0.4-0.1,0.7c0,0.1,0.2,0.2,0.2,0.1
			c0.1-0.2,0.2-0.3,0.2-0.6c0.1-0.2,0.1-0.5,0.2-0.7c0.1-0.4,0.2-0.8,0.3-1.3C94.4,25.8,94.1,25.7,94.1,25.9z"/>
		<path class="st1" d="M94.9,25.4c0,0.5-0.2,1-0.4,1.5c-0.2,0.3-0.5,0.6-0.4,1c0,0.1,0.1,0.1,0.1,0.1c0.5-0.1,0.7-0.7,0.8-1.1
			c0.2-0.5,0.3-1,0.3-1.5C95.4,25.1,94.9,25.1,94.9,25.4L94.9,25.4z"/>
		<path class="st1" d="M95.6,25.6c-0.3,0.8-0.7,1.6-0.9,2.4c-0.1,0.2,0.2,0.3,0.3,0.1c0.4-0.8,0.7-1.6,1.1-2.4
			C96.4,25.4,95.7,25.1,95.6,25.6z"/>
		<path class="st1" d="M90.3,29.5c0.4,2.3,0,4.5-0.9,6.7c0,0.1,0.1,0.1,0.1,0.1c1.3-2,1.5-4.5,0.9-6.8
			C90.4,29.3,90.2,29.4,90.3,29.5z"/>
		<path class="st1" d="M89.9,29.1c1.9,4.6-1.3,10.9-2,15.6c-0.1,0.3,0.4,0.5,0.5,0.1c1.1-3.4,1.9-7,2.5-10.5
			c0.3-1.9,0.4-3.7-0.8-5.3C90,28.9,89.8,29,89.9,29.1L89.9,29.1z"/>
		<path class="st1" d="M77.3,25.9c-5.4,3-6.2,10.4-9,15.4c-0.1,0.1,0.1,0.2,0.2,0.1C72.2,36.6,72.3,30.1,77.3,25.9
			C77.4,25.9,77.3,25.9,77.3,25.9z"/>
		<path class="st1" d="M83.2,25.4c-1.8-1.4-4-1.2-5.7,0.3c-0.2,0.2,0,0.4,0.2,0.4c2.7-0.7,5.2-0.2,7.9,0.4c0.1,0,0.2-0.1,0.1-0.2
			c-2.4-1.4-5.4-1.3-8.1-0.7c0.1,0.1,0.1,0.3,0.2,0.4c1.5-1.3,3.6-1.4,5.2-0.5C83.2,25.6,83.3,25.4,83.2,25.4L83.2,25.4z"/>
		<path class="st1" d="M88.8,27.8c-2.3-2.3-6.4-3.5-9.5-2.6c-0.2,0.1-0.1,0.3,0,0.3c1.7,0,3.3-0.1,4.9,0.3c1.7,0.4,3,1.2,4.5,2
			C88.8,28,88.9,27.9,88.8,27.8z"/>
		<path class="st1" d="M79.7,20.5c-0.2,0.4-0.4,0.5-0.5,0.9c-0.1,0.4-0.2,0.8-0.4,1.1c-0.2,0.7-0.5,1.4-0.6,2.2
			c0,0.2,0.3,0.2,0.3,0.1c0.4-0.7,0.5-1.4,0.8-2.2c0.1-0.4,0.2-0.8,0.3-1.2C79.8,21.2,79.7,21,79.7,20.5
			C79.8,20.5,79.8,20.5,79.7,20.5L79.7,20.5z"/>
		<path class="st1" d="M80.6,20.3c-0.3,0.8-0.6,1.7-0.8,2.5c-0.2,0.8-0.6,1.7-0.6,2.6c0,0.1,0.2,0.2,0.3,0.1
			c0.4-0.8,0.6-1.7,0.8-2.5c0.2-0.8,0.5-1.7,0.6-2.6C80.8,20.3,80.6,20.2,80.6,20.3L80.6,20.3z"/>
		<path class="st1" d="M79.8,20.1c-1,1.4-2,3.8-1.4,5.5c0,0.1,0.2,0.1,0.2,0c0.3-0.8,0.2-1.7,0.4-2.6c0.2-1,0.6-1.9,1-2.8
			C80.1,20.1,79.9,19.9,79.8,20.1z"/>
		<path class="st1" d="M78.8,21c-0.3,1.3-0.7,2.5-1.1,3.8l0.5,0.1c0.1-0.8,0.3-1.6,0.5-2.4c0-0.1-0.1-0.1-0.2,0
			c-0.3,0.8-0.5,1.6-0.8,2.4c-0.1,0.3,0.4,0.4,0.5,0.1c0.4-1.3,0.6-2.6,1-3.8C79.2,20.9,78.9,20.8,78.8,21z"/>
		<path class="st1" d="M79.1,20.7c-0.5,1.4-1.2,2.8-1.4,4.2c0,0.3,0.4,0.3,0.6,0.1c0.5-1.2,0.8-2.6,1.5-3.7
			c-0.1-0.1-0.2-0.1-0.4-0.2c-0.1,0.6-0.1,1.1-0.4,1.7c-0.2,0.4,0.3,0.7,0.6,0.4c0.5-0.6,0.9-1.3,1.4-2c-0.2-0.1-0.4-0.3-0.7-0.4
			c-0.7,1.2-1.6,2.6-1.9,4c0,0.3,0.3,0.4,0.5,0.2c0.8-1.2,1.3-2.6,2.1-3.8c0.3-0.4-0.4-0.8-0.7-0.4c-0.5,0.7-0.9,1.3-1.4,2
			c0.2,0.1,0.4,0.2,0.7,0.3c0.2-0.7,0.3-1.3,0.1-1.9c-0.1-0.2-0.3-0.2-0.4,0c-0.4,1.3-1.1,2.5-1.6,3.7c0.2,0.1,0.3,0.2,0.5,0.3
			c0.6-1.3,0.7-2.9,1.1-4.3C79.3,20.6,79.1,20.6,79.1,20.7L79.1,20.7z"/>
		<path class="st1" d="M89.6,23.9c-0.4,1.2-0.8,2.5-1.1,3.7c-0.1,0.4,0.6,0.6,0.6,0.1c0-0.5,0.1-1.1,0.2-1.6c0-0.1-0.2-0.2-0.2-0.1
			c-0.2,0.5-0.4,1-0.6,1.5c0.2,0.1,0.4,0.2,0.6,0.2c0.4-1.2,0.7-2.5,0.9-3.8C90,23.8,89.6,23.7,89.6,23.9L89.6,23.9z"/>
		<path class="st1" d="M89.8,25.1c-0.3,1.1-0.7,2.2-0.8,3.3c0,0.4,0.6,0.5,0.7,0.2c0.5-1,0.7-2.2,1-3.3
			C90.7,24.8,89.9,24.6,89.8,25.1z"/>
		<path class="st1" d="M90.9,26.9c0.2-0.3,0.4-0.5,0.4-0.9c0.1-0.4,0.2-0.8,0.3-1.2c0-0.1-0.1-0.2-0.2-0.2c-0.4,0.1-0.9,0.3-1.2,0.6
			c-0.2,0.3-0.6,0.7-0.5,1.1c0,0.1,0.2,0.2,0.3,0.1c0.3-0.1,0.4-0.5,0.6-0.8c0.3-0.3,0.5-0.6,0.9-0.8c-0.1-0.1-0.1-0.1-0.2-0.2
			c-0.1,0.7-0.6,1.2-1.1,1.8C89.9,26.9,90.6,27.3,90.9,26.9L90.9,26.9z"/>
		<path class="st1" d="M89.5,23.1c-0.3,0.8-0.6,1.6-0.8,2.5c-0.2,0.7-0.5,1.5-0.5,2.2c0,0.1,0.2,0.2,0.3,0.1
			c0.4-0.6,0.5-1.4,0.7-2.2c0.2-0.8,0.4-1.7,0.5-2.5C89.7,23.1,89.5,23,89.5,23.1z"/>
		<path class="st1" d="M88.5,22.5c-0.5,1.3-1.2,2.9-1.2,4.3c0,0.1,0.2,0.2,0.2,0.1c0.7-1.2,0.9-3,1.1-4.3
			C88.7,22.4,88.5,22.4,88.5,22.5L88.5,22.5z"/>
		<path class="st1" d="M87.7,21.8c-0.5,0.5-0.7,1.2-1,1.8c-0.3,0.8-0.3,1.4-0.2,2.2c0,0.1,0.1,0.1,0.1,0c0.2-0.7,0.5-1.3,0.7-2
			c0.2-0.7,0.5-1.3,0.6-1.9C88,21.8,87.8,21.6,87.7,21.8L87.7,21.8z"/>
		<path class="st1" d="M16.5,4.2c-0.9,0.6-1.7,1.5-1.9,2.6c0,0.1,0.1,0.1,0.1,0.1C15.2,5.9,15.7,5,16.5,4.2
			C16.6,4.3,16.6,4.2,16.5,4.2L16.5,4.2z"/>
		<path class="st1" d="M17.6,4.5c-1.2,0.9-2.4,2-3,3.4c-0.1,0.2,0.1,0.3,0.2,0.1c0.8-1.3,1.7-2.5,2.9-3.4
			C17.8,4.6,17.7,4.5,17.6,4.5L17.6,4.5z"/>
		<path class="st1" d="M19.5,4.7c-0.9,0.7-1.7,1.4-2.4,2.2c-0.6,0.6-1.3,1.2-1.6,2C15.5,9,15.5,9,15.6,9c0.7-0.6,1.3-1.5,1.9-2.2
			C18.1,6.1,18.9,5.4,19.5,4.7C19.7,4.7,19.6,4.6,19.5,4.7L19.5,4.7z"/>
		<path class="st1" d="M22.3,4.2c-2.2,2-4.6,4.5-6,7.2c0,0.1,0.1,0.2,0.1,0.1c2-2.4,3.8-4.9,6-7.2C22.5,4.3,22.4,4.1,22.3,4.2z"/>
		<path class="st1" d="M23.7,4.7c-2.2,2.2-4.6,4.4-6.4,7c-0.1,0.1,0.1,0.2,0.1,0.1c2.4-2,4.4-4.6,6.4-7C23.9,4.7,23.8,4.6,23.7,4.7z
			"/>
		<path class="st1" d="M25.7,9.7c-2.7,2-5.5,4.7-6.9,7.8c-0.1,0.1,0.1,0.3,0.2,0.1c2.3-2.7,4.2-5.4,6.8-7.8
			C25.9,9.8,25.8,9.7,25.7,9.7z"/>
		<path class="st1" d="M23.6,11.9c-2.2,2.8-4.8,5.4-6.7,8.3c-0.1,0.1,0.1,0.2,0.2,0.1C19.7,18.1,21.8,14.8,23.6,11.9
			C23.7,11.9,23.6,11.8,23.6,11.9z"/>
		<path class="st1" d="M24.7,12.3c3.1-4.4,6.8-6.2,12-7c0.1,0,0.1-0.2,0-0.2c-4.8-0.3-10,3-12.3,7.1C24.3,12.3,24.6,12.5,24.7,12.3
			L24.7,12.3z"/>
		<path class="st1" d="M69.3,21.2c0.7,3.3,0.6,6.7,0.1,10c0,0,0,0,0.1,0C70.3,27.8,70.2,24.6,69.3,21.2
			C69.4,21.1,69.3,21.2,69.3,21.2L69.3,21.2z"/>
		<path class="st1" d="M69.6,22.5c0.4,3,0.1,5.8-0.1,8.8c0,0.2,0.2,0.2,0.3,0c0.8-2.8,0.5-6,0.1-8.9C69.9,22.2,69.6,22.3,69.6,22.5
			L69.6,22.5z"/>
		<path class="st1" d="M70.1,22.9c0.6,3,0.3,5.5-0.2,8.5c0,0.1,0.2,0.2,0.2,0.1c1.1-2.6,0.9-5.9,0.2-8.6
			C70.3,22.7,70,22.7,70.1,22.9L70.1,22.9z"/>
		<path class="st1" d="M70.5,23.5c0.6,2.7,0.3,5,0.2,7.7c0,0.1,0.2,0.1,0.2,0c1-2.4,0.6-5.4-0.2-7.8C70.8,23.2,70.5,23.3,70.5,23.5z
			"/>
		<path class="st1" d="M71.7,24.6c-0.1,2-0.2,4.1-0.1,6.1c0,0.3,0.4,0.3,0.5,0c0.2-2,0.1-4.1,0.1-6.1C72.1,24.3,71.7,24.3,71.7,24.6
			L71.7,24.6z"/>
		<path class="st1" d="M72.1,25.9c0.3,0.5,0.4,1.1,0.5,1.7c0.1,0.6,0,1.2,0,1.8c0,0.3,0.4,0.3,0.5,0.1c0.4-1.2-0.1-2.7-0.7-3.8
			C72.3,25.5,72,25.7,72.1,25.9L72.1,25.9z"/>
		<path class="st1" d="M97.4,29.5c-2.3,2.6-4.7,5.5-6,8.8c0,0.1,0.1,0.2,0.2,0.1C93.7,35.5,95.3,32.4,97.4,29.5
			C97.5,29.5,97.5,29.4,97.4,29.5L97.4,29.5z"/>
		<path class="st1" d="M97,29.3c-2,1.7-4.1,4.3-4.5,7c0,0.1,0.1,0.2,0.2,0.1c0.7-1.1,1.1-2.3,1.8-3.4c0.8-1.2,1.7-2.4,2.7-3.4
			C97.3,29.3,97.1,29.1,97,29.3z"/>
		<path class="st1" d="M96.1,28.8c-0.7,1-1.4,1.9-2.1,2.9c-0.6,0.8-1.3,1.7-1.7,2.6c0,0.1,0.1,0.2,0.2,0.1c0.8-0.7,1.3-1.7,1.8-2.6
			c0.6-1,1.3-2,1.9-3C96.3,28.7,96.2,28.7,96.1,28.8L96.1,28.8z"/>
		<path class="st1" d="M95.4,29.2c-1,1-2,2.3-2.4,3.7c0,0.1,0.2,0.2,0.2,0.1c0.8-1.2,1.4-2.5,2.4-3.6C95.8,29.3,95.6,29.1,95.4,29.2
			z"/>
		<path class="st1" d="M97,30.2c5.3-4.6,12-5.7,18.7-3.9c0.1,0,0.2-0.2,0.1-0.2c-6.5-2.5-13.9-0.7-18.9,4
			C96.8,30.1,96.9,30.2,97,30.2L97,30.2z"/>
		<path class="st1" d="M139.5,40.5c1.8,3.7,1.9,7.3,2,11.3c0,0.1,0.2,0.2,0.2,0c1-3.8-0.3-8-2.1-11.4
			C139.6,40.4,139.5,40.4,139.5,40.5L139.5,40.5z"/>
		<path class="st1" d="M142,41.9c0.1,2.7,0.1,5.7,0.7,8.4c0,0.2,0.4,0.2,0.4-0.1c0-2.7-0.5-5.6-0.9-8.3
			C142.1,41.8,142,41.8,142,41.9L142,41.9z"/>
		<path class="st1" d="M142.7,42.6c0.4,1.2,0.6,2.4,0.6,3.7c0,1.1-0.2,2.2-0.2,3.3c0,0.2,0.2,0.2,0.3,0c0.8-2.2,0.3-5-0.3-7.1
			C143,42.2,142.6,42.3,142.7,42.6z"/>
		<path class="st1" d="M143.6,48.5C143.6,48.5,143.6,48.5,143.6,48.5C143.6,48.5,143.6,48.5,143.6,48.5z"/>
		<path class="st1" d="M142.1,49.7C142.1,49.7,142.1,49.6,142.1,49.7C142.1,49.6,142.1,49.6,142.1,49.7z"/>
		<path class="st1" d="M19.3,20.8c-0.7,2.4-1.4,4.8-2,7.2c0,0.1,0.1,0.2,0.2,0c0.7-2.4,1.3-4.8,1.9-7.2
			C19.5,20.8,19.4,20.7,19.3,20.8z"/>
		<path class="st1" d="M18.4,22.5c-1,4.1-1.6,8.2-1.3,12.4c0,0.1,0.1,0.1,0.1,0c0-4.2,0.3-8.3,1.3-12.3
			C18.6,22.4,18.5,22.4,18.4,22.5z"/>
		<path class="st1" d="M18.5,24c-2.1,5.5-2.4,12-0.5,17.6c0,0.1,0.2,0.1,0.2,0c-1-6.1-1-11.5,0.4-17.5C18.6,24,18.5,24,18.5,24z"/>
		<path class="st1" d="M17,32.5c-0.1,4.6,1.5,9.6,4.4,13.2c0.1,0.1,0.3,0,0.2-0.2c-2.5-4.2-4-8.2-4.5-13.1
			C17.2,32.4,17,32.4,17,32.5L17,32.5z"/>
		<path class="st1" d="M18.1,34.3c-0.1,3.8,0.9,7.9,3.6,10.7c0.1,0.1,0.2,0,0.2-0.1c-2.1-3.3-3.6-6.5-3.7-10.5
			C18.2,34.2,18.1,34.2,18.1,34.3z"/>
		<path class="st1" d="M19.4,35.4c0.2,3.1,0.9,6.5,2.3,9.3c0.1,0.2,0.3,0,0.3-0.1c-0.7-3.1-1.6-6.1-2.3-9.2
			C19.6,35.2,19.4,35.2,19.4,35.4L19.4,35.4z"/>
		<path class="st1" d="M20.6,36.2c0.2,1.4,0.5,2.8,0.8,4.2c0.3,1.2,0.4,2.5,1,3.6c0.1,0.2,0.3,0.1,0.3-0.1c0.1-1.2-0.4-2.5-0.7-3.7
			c-0.3-1.4-0.7-2.8-1.1-4.1C20.8,36,20.6,36,20.6,36.2z"/>
		<path class="st1" d="M22.3,37.4c0.3,1.9,0.5,3.9,1,5.7c0,0.2,0.3,0.1,0.3,0c-0.1-1.9-0.7-3.9-1.1-5.7
			C22.4,37.2,22.3,37.2,22.3,37.4L22.3,37.4z"/>
		<path class="st1" d="M23.2,38.2c0.4,1.5,0.8,3,1.3,4.5c0.1,0.3,0.5,0.2,0.4-0.1c-0.3-1.5-0.7-3-1.2-4.5
			C23.7,37.7,23.1,37.8,23.2,38.2z"/>
		<path class="st1" d="M24.6,39.3c0.2,0.4,0.4,0.8,0.5,1.2c0.1,0.4,0.1,0.8,0.1,1.2c0,0.2,0.3,0.2,0.3,0c0.2-0.8-0.2-1.9-0.5-2.6
			C24.9,38.9,24.5,39.1,24.6,39.3L24.6,39.3z"/>
		<path class="st1" d="M26,40.7C26,40.7,26,40.7,26,40.7C26,40.6,25.9,40.7,26,40.7z"/>
		<path class="st1" d="M19.7,42.5c2.1,3.4,5.7,6.4,9.6,7.4c0.1,0,0.1-0.1,0.1-0.1c-3.8-1.9-6.8-4-9.5-7.4
			C19.8,42.3,19.6,42.4,19.7,42.5z"/>
		<path class="st1" d="M21.2,43.7c2.3,5,7.2,8.4,12.6,9.1c0.1,0,0.1-0.1,0-0.2C28.4,51.5,24.3,48.5,21.2,43.7
			C21.3,43.6,21.2,43.7,21.2,43.7z"/>
		<path class="st1" d="M24.8,48c4.6,3.6,9.8,5.8,15.6,6.3c0.2,0,0.2-0.3,0-0.3c-5.7-0.8-11-2.7-15.6-6.1C24.8,47.9,24.7,48,24.8,48
			L24.8,48z"/>
		<path class="st1" d="M30.6,10.2c-4.2,2.2-7.9,5.7-10.5,9.6c-0.1,0.2,0.2,0.4,0.3,0.2c3.2-3.6,6.6-6.7,10.4-9.6
			C30.9,10.4,30.8,10.2,30.6,10.2L30.6,10.2z"/>
		<path class="st1" d="M29.7,8.4c-3.6,2.8-7,7.1-8.8,11.3c-0.1,0.2,0.1,0.3,0.3,0.2c2.8-3.9,5.7-7.6,8.7-11.3
			C30,8.5,29.9,8.3,29.7,8.4z"/>
		<path class="st1" d="M29,11.4c-3.1,3.2-6.3,6.6-8.4,10.6c0,0.1,0.1,0.2,0.2,0.1c2.9-3.4,5.5-7.1,8.5-10.4
			C29.4,11.4,29.2,11.2,29,11.4L29,11.4z"/>
		<path class="st1" d="M30.8,12.2c-3.3,1.9-6.4,4.8-8,8.3c0,0.1,0.1,0.2,0.2,0.1c2.5-3,4.9-5.8,8-8.3C31,12.3,30.9,12.2,30.8,12.2
			L30.8,12.2z"/>
		<path class="st1" d="M30,13.1c-2,2.2-4.7,4.6-6.1,7.3c-0.1,0.1,0.1,0.3,0.2,0.2c2.4-1.8,4.4-4.8,6.3-7.1
			C30.5,13.2,30.2,12.9,30,13.1L30,13.1z"/>
		<path class="st1" d="M30,15.1C29,16,28.1,17,27.2,18c-0.8,0.9-1.7,1.7-2.2,2.7c-0.1,0.1,0.1,0.3,0.2,0.2c2-1.3,3.5-3.8,5-5.6
			C30.4,15.2,30.2,14.9,30,15.1L30,15.1z"/>
		<path class="st1" d="M31.2,16.2c-0.7,0.7-1.4,1.4-2.1,2.1c-0.6,0.6-1.4,1.2-1.8,1.9c-0.1,0.2,0.1,0.4,0.3,0.3
			c0.8-0.4,1.3-1.2,1.9-1.8c0.6-0.7,1.3-1.5,2-2.2C31.7,16.3,31.4,16,31.2,16.2L31.2,16.2z"/>
		<path class="st1" d="M31.7,17.1c-0.6,0.5-1.2,1-1.7,1.6c-0.4,0.5-0.9,1-1.1,1.6c0,0.1,0.1,0.3,0.3,0.2c0.5-0.4,0.9-1,1.4-1.5
			c0.5-0.5,1.1-1,1.6-1.5C32.5,17.3,32,16.8,31.7,17.1z"/>
		<path class="st1" d="M30,6.5c-2.4,0.8-4.6,2.6-5.8,4.8c-0.1,0.1,0.1,0.3,0.2,0.2c1.7-2,3.4-3.5,5.7-4.7C30.3,6.7,30.2,6.5,30,6.5z
			"/>
		<path class="st1" d="M29.1,6.1c-2.7,1.6-5.6,3.7-7.3,6.5c-0.1,0.1,0.1,0.2,0.2,0.1c2.4-2.2,4.5-4.6,7.2-6.5
			C29.3,6.2,29.2,6,29.1,6.1z"/>
		<path class="st1" d="M27.1,5.9c-1.4,1.5-3,3-4.2,4.7c0,0.1,0,0.1,0.1,0.1C24.6,9.3,25.8,7.5,27.1,5.9C27.2,5.9,27.1,5.8,27.1,5.9
			L27.1,5.9z"/>
		<path class="st1" d="M26.5,6.9c-1,0.8-2,1.5-2.9,2.4c-0.1,0.1,0,0.2,0.1,0.2c1-0.7,2-1.5,2.9-2.3C26.9,7,26.6,6.8,26.5,6.9
			L26.5,6.9z"/>
		<path class="st1" d="M57.2,49.1c-5.4,3.1-11,4.6-17.1,5c-0.1,0-0.1,0.1,0,0.1c6.1,0.1,12.1-1.7,17.2-4.9
			C57.4,49.2,57.3,49,57.2,49.1L57.2,49.1z"/>
		<path class="st1" d="M57.4,49.9c-2.3,2-5,2.6-7.8,3.1c-0.1,0-0.1,0.2,0,0.2c3,0.4,5.8-1.3,7.9-3.3C57.5,49.9,57.4,49.8,57.4,49.9z
			"/>
		<path class="st1" d="M65.8,39.8c-1.9,4.2-4.7,7.2-8.7,9.6c-0.1,0.1,0,0.3,0.1,0.2C61.4,48.2,64.8,44.2,65.8,39.8
			C65.9,39.8,65.8,39.8,65.8,39.8L65.8,39.8z"/>
		<path class="st1" d="M66.5,42c-2.2,3.1-4.8,5.4-7.8,7.7c-0.2,0.1,0.1,0.4,0.2,0.3c3.3-1.6,6-4.6,7.8-7.8
			C66.8,42,66.6,41.8,66.5,42L66.5,42z"/>
		<path class="st1" d="M65.7,37.5c-2.5,3.4-5.3,6.5-8.1,9.7c-0.2,0.2,0.1,0.5,0.3,0.3c3.2-2.7,5.9-6.3,7.9-9.9
			C65.9,37.5,65.8,37.4,65.7,37.5L65.7,37.5z"/>
		<path class="st1" d="M91.4,44.8c-0.7,3-1,6.2-0.2,9.2c0,0.1,0.2,0.1,0.2,0c-0.1-3.1-0.3-6,0.2-9.1C91.6,44.8,91.4,44.7,91.4,44.8z
			"/>
		<path class="st1" d="M91.1,45.1c-1,5-0.6,10.3,1.8,14.9c0.1,0.1,0.3,0,0.3-0.1c-1.6-4.8-2.5-9.6-1.8-14.8
			C91.4,45,91.1,45,91.1,45.1L91.1,45.1z"/>
		<path class="st1" d="M91.7,49.5c-0.3,3.4,0.1,7.2,1.8,10.2c0.1,0.1,0.3,0,0.2-0.1c-1-3.4-1.9-6.5-1.8-10.1
			C91.9,49.4,91.7,49.5,91.7,49.5L91.7,49.5z"/>
		<path class="st1" d="M92.6,50.2c0.4,2.9,0.7,6,1.4,8.9c0,0.1,0.3,0.1,0.2,0c-0.2-3-0.9-6-1.4-8.9C92.8,50,92.6,50.1,92.6,50.2
			L92.6,50.2z"/>
		<path class="st1" d="M93.6,52.3c0.2,2,0.3,4.2,0.9,6.1c0,0.1,0.1,0.1,0.1,0c0.1-2-0.5-4.2-0.8-6.1C93.9,52.1,93.6,52.2,93.6,52.3z
			"/>
		<path class="st1" d="M94.8,54.3c0.1,1.6,0.3,3.6,1.2,4.9c0.1,0.1,0.2,0.1,0.2-0.1c0-0.7-0.3-1.4-0.5-2.2c-0.2-0.9-0.3-1.8-0.4-2.7
			C95.3,53.9,94.7,53.9,94.8,54.3L94.8,54.3z"/>
		<path class="st1" d="M95.7,54.5c0.2,1.7,0.1,3.7,0.7,5.3c0.1,0.2,0.3,0.1,0.3,0c0.2-1.7-0.4-3.6-0.7-5.3
			C96.1,54.2,95.7,54.2,95.7,54.5L95.7,54.5z"/>
		<path class="st1" d="M100.1,31c-2.6,2.6-4.7,5.4-6.3,8.7c0,0.1,0.1,0.2,0.1,0.1C95.9,36.7,97.9,33.8,100.1,31
			C100.2,31,100.1,30.9,100.1,31L100.1,31z"/>
		<path class="st1" d="M100.7,29.9c-2.9,2.1-5.1,5-6.2,8.5c0,0.2,0.2,0.2,0.2,0.1C96.2,35.1,98,32.3,100.7,29.9
			C100.8,29.9,100.8,29.9,100.7,29.9L100.7,29.9z"/>
		<path class="st1" d="M101.3,31.6c-1.5,2-3.7,4.1-4.8,6.4c-0.1,0.1,0.1,0.3,0.2,0.2c1.9-1.8,3.3-4.4,4.8-6.5
			C101.6,31.6,101.4,31.5,101.3,31.6z"/>
		<path class="st1" d="M101.6,33.2c-1.2,1.7-2.7,3.3-3.7,5.2c-0.1,0.1,0.1,0.3,0.2,0.2c1.5-1.5,2.6-3.5,3.8-5.1
			C102.1,33.2,101.8,33,101.6,33.2L101.6,33.2z"/>
		<path class="st1" d="M101.9,35.3c-0.7,1.2-1.7,2.4-2.1,3.7c0,0.1,0.1,0.2,0.2,0.1c1-1,1.6-2.4,2.4-3.6
			C102.6,35.3,102.1,35,101.9,35.3z"/>
		<path class="st1" d="M102.6,36.5c-0.5,0.6-1,1.1-1.5,1.7c-0.4,0.5-0.9,1-1.2,1.6c-0.1,0.2,0.1,0.3,0.2,0.3c0.6-0.3,1-0.9,1.4-1.4
			c0.5-0.6,1-1.1,1.5-1.7C103.4,36.7,102.9,36.2,102.6,36.5L102.6,36.5z"/>
		<path class="st1" d="M138.5,59.4c-2.1,3.8-4.6,6.8-7.4,10.1c-0.1,0.1,0,0.3,0.2,0.2c3.4-2.5,5.9-6.3,7.4-10.2
			C138.6,59.4,138.5,59.3,138.5,59.4L138.5,59.4z"/>
		<path class="st1" d="M138.1,62.8c-0.7,1.4-1.5,2.7-2.5,3.9c-0.9,1.1-2,2-2.9,3c-0.1,0.1,0,0.3,0.2,0.2c2.6-1.3,4.7-4.3,5.5-7
			C138.4,62.7,138.2,62.6,138.1,62.8L138.1,62.8z"/>
		<path class="st1" d="M137.6,57.3c-1.3,4.4-3.6,7.7-7.1,10.7c-0.1,0.1,0,0.3,0.2,0.2c3.9-2.3,6.5-6.5,7.1-10.9
			C137.8,57.2,137.6,57.1,137.6,57.3z"/>
		<path class="st1" d="M137.7,55.3c-2.1,3.9-5,7.1-7.4,10.7c-0.1,0.1,0.1,0.2,0.2,0.1c3.3-2.8,5.5-7,7.4-10.7
			C138,55.3,137.8,55.2,137.7,55.3L137.7,55.3z"/>
		<path class="st1" d="M136.4,56.5c-1.5,3.5-3.7,6.2-6.6,8.6c-0.1,0.1,0,0.3,0.2,0.2c3.3-1.9,5.6-5.2,6.8-8.7
			C136.8,56.4,136.4,56.3,136.4,56.5L136.4,56.5z"/>
		<path class="st1" d="M92.9,59.2c2.4,4.7,6.4,9.1,11.4,11.1c0.1,0,0.2-0.1,0.1-0.2C99.6,67.2,95.7,64.1,92.9,59.2
			C92.9,59.1,92.9,59.1,92.9,59.2L92.9,59.2z"/>
		<path class="st1" d="M94.7,60.8c2.3,5.4,7.3,9.2,12.4,11.8c0.1,0.1,0.2-0.1,0.1-0.2c-4.8-3.4-9.8-6.1-12.4-11.7
			C94.8,60.6,94.6,60.7,94.7,60.8z"/>
		<path class="st1" d="M99.8,68c4.1,3.1,8.8,6,13.9,7.1c0.1,0,0.1-0.1,0.1-0.1C108.9,72.8,104.2,71,99.8,68
			C99.8,67.9,99.8,67.9,99.8,68L99.8,68z"/>
		<path class="st1" d="M103.6,68.2c2,2.7,4.8,4.9,8.1,5.9c0.2,0.1,0.4-0.3,0.2-0.4c-3.2-1.3-5.8-3-8.1-5.6
			C103.6,68,103.5,68.1,103.6,68.2z"/>
		<path class="st1" d="M105,68.6c2.2,1.5,4.4,3.3,6.8,4.6c0.1,0.1,0.3-0.1,0.2-0.2c-2.1-1.7-4.6-3.1-6.9-4.6
			C105,68.3,104.9,68.5,105,68.6z"/>
		<path class="st1" d="M107.7,68.9c1.5,1.2,3,2.8,4.7,3.8c0.1,0.1,0.2-0.1,0.1-0.2c-1.3-1.4-3.1-2.6-4.6-3.8
			C107.7,68.5,107.5,68.7,107.7,68.9z"/>
		<path class="st1" d="M111.1,70.3c0.7,0.6,1.5,1.3,2.3,1.8c0.1,0.1,0.2-0.1,0.1-0.2c-0.6-0.7-1.4-1.2-2.2-1.8
			C111.2,69.9,110.9,70.1,111.1,70.3L111.1,70.3z"/>
		<path class="st1" d="M112.6,73.6c3.9,1.5,8.7,0.7,12.3-1.4c0.1,0,0-0.2-0.1-0.1c-4.1,1.6-7.9,1.7-12.2,1.3
			C112.5,73.4,112.5,73.6,112.6,73.6L112.6,73.6z"/>
		<path class="st1" d="M130.2,69.5c-3.1,3.5-6.8,4.8-11.2,5.7c-0.2,0-0.1,0.3,0,0.3c4.4,0.4,8.8-2.4,11.3-5.8
			C130.4,69.5,130.3,69.4,130.2,69.5z"/>
		<path class="st1" d="M130.2,71c-1,0.7-2.1,1.3-3.2,1.9c-1.1,0.6-2.3,1-3.3,1.7c-0.3,0.2-0.1,0.6,0.2,0.5c1.2-0.3,2.4-1,3.4-1.6
			c1.1-0.6,2.1-1.4,3-2.2C130.5,71.1,130.3,70.9,130.2,71L130.2,71z"/>
		<path class="st1" d="M128.9,72.5c-2.3,1.4-4.6,2.1-7.2,2.7c-0.2,0-0.1,0.3,0,0.3c2.6-0.1,5.2-1.1,7.4-2.6
			C129.4,72.7,129.2,72.3,128.9,72.5L128.9,72.5z"/>
		<path class="st1" d="M61.5,19.1c-2.7-2.2-6.1,1.2-4.7,4.1c1.6,3.4,6.5,2.8,7.7-0.6c0-0.1-0.1-0.1-0.2-0.1c-1.5,2-4.3,3.5-6.4,1.3
			c-2.3-2.5,0.4-6.2,3.4-4.6C61.5,19.3,61.6,19.1,61.5,19.1z"/>
		<path class="st1" d="M63.4,20.4c0.9,1.1,0.4,2.5-0.5,3.4c-0.8,0.7-1.9,1-2.8,1.6c-0.1,0.1,0,0.3,0.1,0.3
			C62.3,25.2,65.6,22.6,63.4,20.4C63.4,20.3,63.3,20.3,63.4,20.4z"/>
		<path class="st1" d="M128.4,36.2c-1.7,0.1-3.4,1.1-3.9,2.9c0,0.1,0.1,0.1,0.1,0C125.4,37.7,126.7,36.5,128.4,36.2
			C128.4,36.3,128.5,36.2,128.4,36.2L128.4,36.2z"/>
		<path class="st1" d="M125.1,39.3c-0.5,1.5,0,3.2,1.4,3.9c1.2,0.6,2.9,0.4,3.7-0.7c0.1-0.1-0.1-0.2-0.2-0.2c-1,0.6-2.2,1.1-3.3,0.5
			c-1.3-0.7-1.8-2.2-1.4-3.5C125.4,39.2,125.2,39.1,125.1,39.3L125.1,39.3z"/>
		<path class="st1" d="M131.5,37.4c1.1,0.8,0.9,2.5,0,3.3c-0.8,0.8-2,1-3.1,1.5c-0.2,0.1-0.1,0.4,0.1,0.4c1.5-0.2,3.3-0.9,3.9-2.3
			c0.5-1.1,0.3-2.5-0.9-3C131.5,37.3,131.5,37.4,131.5,37.4L131.5,37.4z"/>
		<path class="st1" d="M132,40c-0.1-1.5-0.9-2.9-2.3-3.6c-1.3-0.6-3.4-0.5-4.2,0.8c-0.1,0.1,0.1,0.3,0.2,0.3
			c1.2-0.5,2.2-1.1,3.5-0.7c1.5,0.4,2.5,1.7,2.7,3.2C131.9,40.1,132,40,132,40z"/>
		<path class="st1" d="M131.5,41.7c-0.4,1-1.3,1.4-2.3,1.6c-0.1,0-0.1,0.2,0,0.2c1.1,0.2,2.2-0.7,2.6-1.7
			C131.8,41.7,131.5,41.6,131.5,41.7L131.5,41.7z"/>
		<path class="st1" d="M36.8,10c0.7-0.6,1.5-1.2,2.4-1.5c0.1,0,0.1-0.1,0-0.1c-1.4,0-2.8,0.6-4,1.1c-1.3,0.6-2.9,1.3-3.9,2.4
			c-0.1,0.1,0,0.2,0.1,0.2c0.9-0.4,1.7-1,2.6-1.5c0.9-0.5,1.9-0.9,2.9-1.3c0.5-0.2,1-0.2,1.5-0.5c0,0,0.7-0.2,0.4-0.2
			C38.3,8.5,37.1,9.7,36.8,10C36.7,10,36.7,10,36.8,10L36.8,10z"/>
		<path class="st1" d="M40.2,9c-2.7,1.1-5.4,2.2-7.9,3.6c-0.1,0,0,0.2,0.1,0.1C35,11.7,37.6,10.3,40.2,9C40.3,9,40.2,9,40.2,9z"/>
		<path class="st1" d="M40.3,10.7c-1.2,0.6-2.5,1.1-3.7,1.7c-1.2,0.6-2.5,1.1-3.6,1.8c-0.1,0,0,0.1,0,0.1c1.2-0.4,2.4-1,3.5-1.6
			C37.7,12.1,39,11.4,40.3,10.7C40.3,10.8,40.3,10.7,40.3,10.7z"/>
		<path class="st1" d="M39.2,12.9c-1.9,0.5-3.7,1.2-5.3,2.4c-0.1,0.1,0,0.2,0.1,0.1c1.7-1,3.4-1.8,5.3-2.3
			C39.4,13.2,39.3,12.9,39.2,12.9z"/>
		<path class="st1" d="M51.5,35.5c-4.5,2.1-9.1,4.2-13.6,6.4c-0.1,0,0,0.1,0.1,0.1C42.6,40,47.1,37.8,51.5,35.5
			C51.6,35.6,51.6,35.5,51.5,35.5L51.5,35.5z"/>
		<path class="st1" d="M49.4,38.1c-3.2,1-7,2.1-9.8,4.1c-0.1,0.1,0,0.2,0.1,0.2c1.5-0.5,2.9-1.3,4.3-1.9c1.8-0.8,3.6-1.5,5.5-2.2
			C49.5,38.3,49.5,38.1,49.4,38.1z"/>
		<path class="st1" d="M48.7,40.1c-2.8,1.2-5.6,2.2-8.3,3.5c-0.2,0.1-0.1,0.4,0.1,0.3c2.8-1,5.5-2.4,8.3-3.5
			C49,40.3,48.9,40.1,48.7,40.1L48.7,40.1z"/>
		<path class="st1" d="M51.8,40.8c-1.7,0.4-3.4,0.8-5.1,1.5c-1.3,0.5-2.8,1-3.9,1.9c-0.1,0.1,0,0.2,0.1,0.2c1.5-0.4,2.9-1.3,4.4-1.9
			c1.5-0.6,3-1.1,4.6-1.5C51.9,40.9,51.9,40.7,51.8,40.8L51.8,40.8z"/>
		<path class="st1" d="M52,42.1c-2.7,0.9-5.4,1.8-8.1,2.9c-0.3,0.1-0.2,0.5,0.1,0.4c2.7-0.9,5.4-2,8-2.9C52.3,42.4,52.2,42,52,42.1
			L52,42.1z"/>
		<path class="st1" d="M51,43c-0.9,0.3-1.8,0.6-2.6,0.9c-0.8,0.3-1.8,0.4-2.5,0.9c-0.4,0.3-0.4,1,0.2,0.7c0.1,0,0.1-0.1,0.1-0.2
			c0,0,0-0.1,0-0.1c0-0.1-0.2-0.1-0.2,0c0.1-0.1,1.1-0.3,1.2-0.4c0.4-0.2,0.9-0.3,1.3-0.5c0.9-0.3,1.8-0.6,2.6-0.9
			C51.5,43.4,51.4,42.9,51,43L51,43z"/>
		<path class="st1" d="M52.5,43.4c-1,0.2-2,0.5-2.9,0.9c-0.3,0.1-3,1.4-2.9,1.6c0.1,0.2,0.3,0.1,0.3,0c0,0,0-0.1,0-0.1
			c0-0.1-0.1-0.2-0.2-0.3c-0.7-0.2-0.9,0.9,0,0.9c0.4,0,0.7-0.3,1-0.5c0.4-0.3,0.9-0.5,1.3-0.8c1.1-0.6,2.2-1,3.4-1.3
			C52.8,43.7,52.7,43.4,52.5,43.4L52.5,43.4z"/>
		<path class="st1" d="M59.6,45.9c-3.5,2.2-7.4,3.8-11.3,5c-0.1,0-0.1,0.2,0.1,0.2C52.4,50.2,56.2,48.3,59.6,45.9
			C59.7,45.9,59.6,45.9,59.6,45.9L59.6,45.9z"/>
		<path class="st1" d="M58.8,47.6c-3.2,2-6.7,2.4-10.2,3.3c-0.2,0.1-0.2,0.4,0.1,0.4c3.7,0.5,7.3-1.5,10.2-3.5
			C58.9,47.6,58.8,47.5,58.8,47.6L58.8,47.6z"/>
		<path class="st1" d="M63,42.2c-1.3,1.8-2.6,3.4-4.6,4.5c-1.8,1-3.7,1.2-5.8,1.6c-0.2,0-0.2,0.3,0,0.3c4.1,0.8,9.2-2.5,10.5-6.4
			C63.2,42.2,63.1,42.1,63,42.2z"/>
		<path class="st1" d="M128,57.9c-4.3,1.9-9.3,3.4-13.1,6.1c-0.1,0.1-0.1,0.4,0.1,0.3c4.5-1.3,8.9-4.1,13.1-6.2
			C128.3,58,128.2,57.8,128,57.9L128,57.9z"/>
		<path class="st1" d="M129,59.5c-4.4,1.1-9,3-12.5,5.8c-0.1,0.1,0,0.3,0.2,0.2c4.1-2.2,8-4.3,12.4-5.9
			C129.2,59.6,129.1,59.5,129,59.5z"/>
		<path class="st1" d="M128.5,61.8c-3.8,1.1-7.7,2.4-11.2,4.3c-0.3,0.1-0.1,0.6,0.2,0.5c3.7-1.5,7.3-3.1,11-4.5
			C128.7,62,128.7,61.8,128.5,61.8z"/>
		<path class="st1" d="M128.3,62.5c-2.6,1.3-5.5,2.5-7.9,4.2c-0.1,0.1-0.1,0.4,0.1,0.3c2.8-1,5.4-2.7,8-4.1
			C128.9,62.8,128.6,62.4,128.3,62.5L128.3,62.5z"/>
		<path class="st1" d="M126.4,65.5c-0.7,0.4-1.4,0.8-2,1.2c-0.5,0.3-1.3,0.6-1.6,1.1c-0.1,0.1,0,0.2,0.1,0.2c0.6,0,1.2-0.5,1.8-0.8
			l2-1.2C127.1,65.9,126.7,65.3,126.4,65.5L126.4,65.5z"/>
		<path class="st1" d="M129.8,65.5c-2.2,1.2-4.4,2.4-6.5,3.8c-0.3,0.2-0.1,0.6,0.2,0.6c0.9-0.2,1.7-0.4,2.4-1.1
			c0.1-0.1,0-0.3-0.1-0.2c-0.8,0.4-1.5,0.7-2.4,0.7c0,0.2,0.1,0.4,0.1,0.6c2.2-1.3,4.3-2.6,6.4-4C130.1,65.7,129.9,65.4,129.8,65.5
			L129.8,65.5z"/>
		<path class="st1" d="M128.9,67.7c-1.1,0.6-2.2,1.2-3.2,1.9c-0.3,0.2-0.1,0.7,0.3,0.5c1.1-0.5,2.2-1.2,3.2-1.8
			C129.7,68.1,129.3,67.5,128.9,67.7L128.9,67.7z"/>
		<path class="st1" d="M129.6,68.5c-0.8,0.5-1.6,0.9-2.4,1.3c-0.8,0.4-1.7,0.7-2.5,1.2c-0.3,0.1-0.1,0.6,0.2,0.5
			c1.7-0.5,3.4-1.7,4.9-2.8C129.8,68.6,129.8,68.4,129.6,68.5L129.6,68.5z"/>
	</g>
</g>
</svg>
