<?xml version="1.0" encoding="utf-8"?>
<!-- Generator: Adobe Illustrator 27.1.1, SVG Export Plug-In . SVG Version: 6.00 Build 0)  -->
<svg version="1.1" id="Слой_1" xmlns="http://www.w3.org/2000/svg" xmlns:xlink="http://www.w3.org/1999/xlink" x="0px" y="0px"
	 viewBox="0 0 37 37" style="enable-background:new 0 0 37 37;" xml:space="preserve">
<style type="text/css">
	.st0{fill:#D9D9D9;filter:url(#Adobe_OpacityMaskFilter);}
	.st1{mask:url(#mask0_1946_129113_00000104691270758235384040000007162271127528890813_);}
	.st2{fill:#F8F8F8;}
</style>
<defs>
	<filter id="Adobe_OpacityMaskFilter" filterUnits="userSpaceOnUse" x="6.6" y="5" width="26.2" height="24.7">
		<feColorMatrix  type="matrix" values="1 0 0 0 0  0 1 0 0 0  0 0 1 0 0  0 0 0 1 0"/>
	</filter>
</defs>
<mask maskUnits="userSpaceOnUse" x="6.6" y="5" width="26.2" height="24.7" id="mask0_1946_129113_00000104691270758235384040000007162271127528890813_">
	<rect x="0.1" class="st0" width="36.1" height="36.1"/>
</mask>
<g class="st1">
	<path class="st2" d="M8.8,29.6c-0.7,0-1.2-0.2-1.6-0.6c-0.4-0.4-0.6-1-0.6-1.6V8.7c0-0.7,0.2-1.2,0.6-1.6s1-0.6,1.6-0.6h6.3v1.1
		H8.8C8.5,7.5,8.2,7.6,8,7.9C7.7,8.1,7.6,8.4,7.6,8.7v18.7c0,0.3,0.1,0.6,0.4,0.8c0.3,0.3,0.5,0.4,0.8,0.4h18.7
		c0.3,0,0.6-0.1,0.8-0.4c0.3-0.3,0.4-0.5,0.4-0.8v-8.1l1.1,1.1v7.1c0,0.7-0.2,1.2-0.6,1.6c-0.4,0.4-1,0.6-1.6,0.6H8.8z M12.1,24.6
		l2.5-3.2l2.4,2.8l3.8-4.7l3.8,5.1H12.1z M32,18.4l-4.7-4.7c-0.5,0.4-1,0.6-1.4,0.8c-0.4,0.1-0.9,0.2-1.5,0.2
		c-1.4,0-2.5-0.5-3.4-1.4c-0.9-0.9-1.4-2.1-1.4-3.4c0-1.4,0.5-2.5,1.4-3.4C21.8,5.4,23,5,24.3,5c1.4,0,2.5,0.5,3.4,1.4
		c0.9,0.9,1.4,2.1,1.4,3.4c0,0.6-0.1,1.1-0.3,1.6c-0.2,0.5-0.4,1-0.8,1.5l4.7,4.7L32,18.4z M24.3,13.5c1.1,0,1.9-0.4,2.7-1.1
		c0.7-0.7,1.1-1.6,1.1-2.7c0-1.1-0.4-1.9-1.1-2.7C26.3,6.4,25.4,6,24.3,6s-1.9,0.4-2.7,1.1c-0.7,0.7-1.1,1.6-1.1,2.7
		c0,1.1,0.4,1.9,1.1,2.7C22.4,13.2,23.3,13.5,24.3,13.5z"/>
</g>
</svg>
