<?xml version="1.0" encoding="utf-8"?>
<!-- Generator: Adobe Illustrator 27.1.1, SVG Export Plug-In . SVG Version: 6.00 Build 0)  -->
<svg version="1.1" id="Слой_1" xmlns="http://www.w3.org/2000/svg" xmlns:xlink="http://www.w3.org/1999/xlink" x="0px" y="0px"
	 viewBox="0 0 34 34" style="enable-background:new 0 0 34 34;" xml:space="preserve">
<style type="text/css">
	.st0{fill:#D9D9D9;filter:url(#Adobe_OpacityMaskFilter);}
	.st1{mask:url(#mask0_1946_129102_00000097486836089620274260000006381645584357351581_);}
	.st2{fill:#F8F8F8;}
</style>
<defs>
	<filter id="Adobe_OpacityMaskFilter" filterUnits="userSpaceOnUse" x="4.3" y="8.4" width="25" height="17.3">
		<feColorMatrix  type="matrix" values="1 0 0 0 0  0 1 0 0 0  0 0 1 0 0  0 0 0 1 0"/>
	</filter>
</defs>
<mask maskUnits="userSpaceOnUse" x="4.3" y="8.4" width="25" height="17.3" id="mask0_1946_129102_00000097486836089620274260000006381645584357351581_">
	<rect y="0.3" class="st0" width="33.6" height="33.6"/>
</mask>
<g class="st1">
	<path class="st2" d="M4.3,25.7v-1.8c0-0.6,0.2-1.1,0.5-1.5s0.7-0.7,1.3-1c1.1-0.5,2.3-1,3.4-1.3c1.1-0.3,2.5-0.5,4.2-0.5
		c1.7,0,3.1,0.2,4.2,0.5c1.1,0.3,2.2,0.8,3.4,1.3c0.5,0.3,1,0.6,1.3,1c0.3,0.4,0.5,0.9,0.5,1.5v1.8H4.3z M25.8,25.7v-1.8
		c0-0.7-0.1-1.4-0.4-2.1c-0.3-0.7-0.6-1.2-1.1-1.7c0.5,0.1,1.1,0.3,1.6,0.5c0.5,0.2,1,0.5,1.6,0.7c0.5,0.3,1,0.6,1.3,1.1
		c0.3,0.4,0.5,0.9,0.5,1.5v1.8H25.8z M13.7,15.9c-1,0-1.9-0.4-2.7-1.1c-0.7-0.7-1.1-1.6-1.1-2.7c0-1,0.4-1.9,1.1-2.7
		s1.6-1.1,2.7-1.1c1,0,1.9,0.4,2.7,1.1c0.7,0.7,1.1,1.6,1.1,2.7c0,1-0.4,1.9-1.1,2.7C15.6,15.6,14.7,15.9,13.7,15.9z M22.7,12.2
		c0,1-0.4,1.9-1.1,2.7c-0.7,0.7-1.6,1.1-2.7,1.1c0.4-0.5,0.8-1.1,1-1.8c0.2-0.6,0.3-1.3,0.3-2c0-0.7-0.1-1.4-0.4-2
		c-0.2-0.6-0.6-1.2-1-1.8c1,0,1.9,0.4,2.7,1.1C22.3,10.2,22.7,11.1,22.7,12.2z M5.3,24.7h16.8v-0.8c0-0.3-0.1-0.7-0.3-0.9
		c-0.2-0.3-0.5-0.5-1-0.8c-1-0.5-2-0.9-3.1-1.2c-1.1-0.3-2.4-0.4-4-0.4c-1.5,0-2.9,0.1-4,0.4c-1.1,0.3-2.2,0.7-3.1,1.2
		c-0.5,0.3-0.8,0.5-1,0.8c-0.2,0.3-0.3,0.6-0.3,0.9V24.7z M13.7,15c0.8,0,1.4-0.3,2-0.8c0.5-0.5,0.8-1.2,0.8-2c0-0.8-0.3-1.4-0.8-2
		c-0.5-0.5-1.2-0.8-2-0.8c-0.8,0-1.4,0.3-2,0.8c-0.5,0.5-0.8,1.2-0.8,2c0,0.8,0.3,1.4,0.8,2S12.9,15,13.7,15z"/>
</g>
</svg>
