<?xml version="1.0" encoding="utf-8"?>
<!-- Generator: Adobe Illustrator 27.1.1, SVG Export Plug-In . SVG Version: 6.00 Build 0)  -->
<svg version="1.1" id="Слой_1" xmlns="http://www.w3.org/2000/svg" xmlns:xlink="http://www.w3.org/1999/xlink" x="0px" y="0px"
	 viewBox="0 0 223 38" style="enable-background:new 0 0 223 38;" xml:space="preserve">
<style type="text/css">
	.st0{clip-path:url(#SVGID_00000063591557358254756830000005078600392054925502_);}
	.st1{fill:#D9D4D4;}
</style>
<g>
	<defs>
		<rect id="SVGID_1_" width="223" height="38"/>
	</defs>
	<clipPath id="SVGID_00000065754733360956615890000012743842892904273062_">
		<use xlink:href="#SVGID_1_"  style="overflow:visible;"/>
	</clipPath>
	<g style="clip-path:url(#SVGID_00000065754733360956615890000012743842892904273062_);">
		<path class="st1" d="M6.9,12c-3.1,0-6.4-2.1-6.6-2.2C0.1,9.7,0,9.4,0,9.2c0-0.3,0.1-0.5,0.3-0.6C0.5,8.4,4.7,5.8,8,6.4
			c1.4,0.3,2.3,1.4,2.3,2.8c0,1.4-0.9,2.5-2.3,2.8C7.7,12,7.3,12,6.9,12z M2.3,9.2c1.3,0.7,3.6,1.6,5.4,1.3c0.8-0.2,1.1-0.8,1.1-1.3
			c0-0.5-0.3-1.1-1.1-1.3C6,7.6,3.7,8.5,2.3,9.2z"/>
		<path class="st1" d="M216.1,12c-0.4,0-0.7,0-1.1-0.1c-1.4-0.3-2.3-1.4-2.3-2.8c0-1.4,0.9-2.5,2.3-2.8c3.3-0.6,7.5,2,7.7,2.1
			c0.2,0.1,0.3,0.4,0.3,0.6c0,0.3-0.1,0.5-0.3,0.6C222.5,9.9,219.1,12,216.1,12z M215.3,7.9c-0.8,0.2-1.1,0.8-1.1,1.3
			c0,0.5,0.3,1.1,1.1,1.3c1.7,0.3,3.9-0.5,5.4-1.3C219.3,8.5,217,7.6,215.3,7.9L215.3,7.9z"/>
		<path class="st1" d="M213.4,9.9H9.6c-0.4,0-0.8-0.3-0.8-0.8c0-0.4,0.3-0.8,0.8-0.8h203.9c0.4,0,0.8,0.3,0.8,0.8
			C214.2,9.6,213.9,9.9,213.4,9.9L213.4,9.9z"/>
		<path class="st1" d="M130.8,29.8c-1.5,0-3-0.4-4.3-1.2c-2.8-1.7-4.3-4.8-3.9-8c0.2-1.8,1.2-3.4,2.8-4.4c2.3-1.6,4.9-1.8,6.9-0.6
			c1.9,1.1,2.9,3.2,2.6,5.4c-0.2,1.2-0.8,2.3-1.7,3c-1,0.7-2.2,1.1-3.4,0.9c-0.4-0.1-0.7-0.4-0.7-0.8c0.1-0.4,0.4-0.7,0.9-0.7
			c0.8,0.1,1.6-0.1,2.2-0.6c0.6-0.5,1.1-1.2,1.2-2c0.2-1.6-0.5-3.1-1.9-3.9c-1.5-0.9-3.4-0.7-5.2,0.5c-1.2,0.8-2,2.1-2.1,3.4
			c-0.3,2.6,0.9,5.2,3.1,6.5c2.5,1.5,5.6,1.2,8.5-0.7c2-1.4,3.3-3.4,3.6-5.7c0-0.3,0.1-0.5,0.1-0.8c0.2-3.2-1.3-6.2-4-8.2
			c-2.9-2.1-6.5-2.6-9.8-1.4l-0.3,0.1c-2.5,0.8-5.7,2.8-8.4,5.2c-8,7.2-15.2,4.8-16,4.6c-3.5-0.9-5.6-4.4-4.7-7.8
			c0.7-2.8,3.6-4.6,6.4-3.9c1.2,0.3,2.2,1.1,2.8,2.2c0.8,1.6,0.8,3.3-0.2,4.5c-0.9,1.1-2.4,1.6-3.8,1.3c-0.4-0.1-0.7-0.5-0.6-0.9
			c0.1-0.4,0.5-0.7,0.9-0.6c0.8,0.2,1.7-0.1,2.2-0.8c0.6-0.8,0.6-1.8,0.1-2.9c-0.4-0.7-1.1-1.3-1.8-1.4c-2-0.5-4.1,0.8-4.6,2.8
			c-0.7,2.6,1,5.3,3.6,6c0,0,0.1,0,0.1,0c0.3,0.1,7,2.5,14.4-4.3c2.9-2.6,6.2-4.6,8.9-5.5l0.3-0.1c3.8-1.4,8-0.8,11.3,1.6
			c3.1,2.3,4.8,5.7,4.6,9.5c0,0.3,0,0.6-0.1,0.9c-0.3,2.7-1.9,5.1-4.3,6.8C134.8,29.2,132.7,29.8,130.8,29.8L130.8,29.8z"/>
		<path class="st1" d="M92.2,29.8c-2,0-4-0.7-5.9-2c-2.4-1.6-3.9-4-4.3-6.8c0-0.3-0.1-0.6-0.1-0.9c-0.2-3.7,1.5-7.2,4.6-9.5
			c3.3-2.4,7.5-3,11.3-1.6l0.3,0.1c2.7,0.9,6,3,8.9,5.5c7.5,6.7,14.2,4.4,14.4,4.3c0,0,0.1,0,0.1,0c2.7-0.7,4.3-3.3,3.6-6
			c-0.5-2-2.6-3.3-4.6-2.8c-0.7,0.2-1.4,0.7-1.8,1.4c-0.6,1.1-0.5,2.1,0.1,2.9c0.5,0.7,1.4,1,2.2,0.8c0.4-0.1,0.8,0.1,0.9,0.6
			c0.1,0.4-0.2,0.8-0.6,0.9c-1.4,0.3-2.9-0.2-3.8-1.3c-1-1.2-1.1-2.9-0.2-4.5c0.6-1.1,1.6-1.9,2.8-2.2c2.8-0.7,5.7,1.1,6.4,3.9
			c0.9,3.4-1.3,6.9-4.7,7.8c-0.7,0.3-8,2.6-16-4.6c-2.7-2.4-5.9-4.4-8.4-5.2l-0.4-0.1c-3.3-1.2-7-0.7-9.8,1.4c-2.7,2-4.2,5-4,8.2
			c0,0.3,0,0.5,0.1,0.8c0.3,2.3,1.6,4.3,3.6,5.7c2.9,2,6,2.2,8.5,0.7c2.2-1.4,3.5-3.9,3.1-6.5c-0.2-1.3-1-2.6-2.1-3.4
			c-1.8-1.2-3.7-1.4-5.2-0.5c-1.4,0.8-2.1,2.3-1.9,3.9c0.1,0.8,0.5,1.5,1.2,2c0.6,0.5,1.4,0.7,2.2,0.6c0.4-0.1,0.8,0.2,0.9,0.7
			c0.1,0.4-0.2,0.8-0.7,0.8c-1.2,0.2-2.4-0.2-3.4-0.9c-1-0.7-1.6-1.8-1.7-3c-0.3-2.2,0.7-4.3,2.6-5.4c2-1.2,4.6-1,6.9,0.6
			c1.5,1.1,2.6,2.7,2.8,4.4c0.4,3.2-1.1,6.3-3.9,8C95.2,29.4,93.8,29.8,92.2,29.8L92.2,29.8z"/>
		<path class="st1" d="M111.5,38c-1.2,0-2.5-1-2.8-3.3c-0.6-4.9,2-11.3,2.1-11.6c0.1-0.3,0.4-0.5,0.7-0.5s0.6,0.2,0.7,0.5
			c0.1,0.3,2.7,6.7,2.1,11.6C114,37,112.7,38,111.5,38z M111.5,25.7c-0.7,2.2-1.6,5.9-1.3,8.8c0.2,1.4,0.8,2,1.3,2s1.1-0.6,1.3-2
			C113.1,31.6,112.2,27.9,111.5,25.7z"/>
		<path class="st1" d="M119.8,29.3c-0.4,0-0.8-0.1-1.2-0.4c-1.9-1.3-2.6-4.5-2.7-4.6c-0.1-0.3,0-0.5,0.2-0.7
			c0.2-0.2,0.5-0.3,0.7-0.2c0.1,0,3.4,0.8,4.7,2.6c0.6,0.9,0.5,1.9-0.3,2.7C120.9,29.1,120.4,29.3,119.8,29.3L119.8,29.3z
			 M117.9,25.3c0.3,0.9,0.9,1.9,1.6,2.4c0.4,0.2,0.7,0,0.7-0.1c0.1-0.1,0.3-0.4,0.1-0.7C119.8,26.2,118.8,25.6,117.9,25.3
			L117.9,25.3z"/>
		<path class="st1" d="M103.2,29.3c-0.5,0-1.1-0.2-1.5-0.6c-0.7-0.7-0.8-1.8-0.3-2.7c1.3-1.9,4.5-2.6,4.7-2.6c0.3-0.1,0.5,0,0.7,0.2
			c0.2,0.2,0.3,0.4,0.2,0.7c0,0.1-0.8,3.4-2.7,4.6C104,29.2,103.6,29.3,103.2,29.3L103.2,29.3z M105.1,25.3
			c-0.9,0.3-1.9,0.9-2.4,1.6c-0.3,0.4,0,0.7,0.1,0.7c0.1,0.1,0.4,0.3,0.7,0.1C104.2,27.2,104.8,26.2,105.1,25.3L105.1,25.3z"/>
	</g>
</g>
</svg>
