<?xml version="1.0" encoding="utf-8"?>
<!-- Generator: Adobe Illustrator 27.1.1, SVG Export Plug-In . SVG Version: 6.00 Build 0)  -->
<svg version="1.1" id="Слой_1" xmlns="http://www.w3.org/2000/svg" xmlns:xlink="http://www.w3.org/1999/xlink" x="0px" y="0px"
	 viewBox="0 0 473 23" style="enable-background:new 0 0 473 23;" xml:space="preserve">
<style type="text/css">
	.st0{clip-path:url(#SVGID_00000096020552829095063230000010452196044013133445_);}
	.st1{fill:#E7E7E7;}
</style>
<g>
	<defs>
		<rect id="SVGID_1_" width="473" height="23"/>
	</defs>
	<clipPath id="SVGID_00000045589118205259237610000000535697560520700560_">
		<use xlink:href="#SVGID_1_"  style="overflow:visible;"/>
	</clipPath>
	<g style="clip-path:url(#SVGID_00000045589118205259237610000000535697560520700560_);">
		<path class="st1" d="M462.5,10.6H2.6v1.7h459.9V10.6z"/>
		<path class="st1" d="M235.7,5l-3.2-5l-3.2,5c-0.7,1.1-0.5,2.5,0.3,3.4l2.9,3.1l2.9-3.1C236.3,7.5,236.4,6.1,235.7,5z"/>
		<path class="st1" d="M229.3,18l3.2,5l3.2-5c0.7-1.1,0.5-2.5-0.3-3.4l-2.9-3.1l-2.9,3.1C228.8,15.5,228.7,16.9,229.3,18z"/>
		<path class="st1" d="M221,6l-4.6,4.8l-2.4-2.5c-0.5-0.6-1.3-0.5-1.8,0.2c-0.9,1.2,0,3,1.4,3c-1.5,0-2.3,1.7-1.4,3
			c0.5,0.7,1.2,0.7,1.8,0.2l2.4-2.5L221,17c1.2,1.2,3,1.4,4.3,0.3l7.2-5.8l-7.2-5.8C224,4.7,222.2,4.8,221,6L221,6z"/>
		<path class="st1" d="M251.4,11.5c1.6,0,2.4-2,1.3-3.1c-0.5-0.6-1.3-0.5-1.8,0.2l-1.9,2.7L244.1,6c-1.2-1.2-3-1.4-4.4-0.3l-7.2,5.8
			l7.2,5.8c1.3,1.1,3.2,0.9,4.4-0.3l4.9-5.2l1.9,2.7c0.5,0.7,1.2,0.7,1.8,0.2C253.8,13.5,253,11.5,251.4,11.5z"/>
		<path class="st1" d="M293,8.3l-1.6-2.5l-1.6,2.5c-0.3,0.5-0.3,1.2,0.2,1.7l1.4,1.5l1.4-1.5C293.3,9.6,293.4,8.9,293,8.3L293,8.3z"
			/>
		<path class="st1" d="M289.9,14.7l1.6,2.5l1.6-2.5c0.3-0.5,0.3-1.2-0.2-1.7l-1.4-1.5L290,13C289.6,13.4,289.6,14.1,289.9,14.7
			L289.9,14.7z"/>
		<path class="st1" d="M297.1,8.8c-0.6-0.6-1.5-0.7-2.1-0.2l-3.5,2.8l3.5,2.8c0.6,0.5,1.6,0.5,2.1-0.2l2.5-2.7L297.1,8.8z"/>
		<path class="st1" d="M285.8,8.8l-2.5,2.7l2.5,2.7c0.6,0.6,1.5,0.7,2.1,0.2l3.5-2.8l-3.5-2.8C287.3,8.1,286.4,8.2,285.8,8.8z"/>
		<path class="st1" d="M175.2,8.3l-1.6-2.5l-1.6,2.5c-0.3,0.5-0.3,1.2,0.2,1.7l1.4,1.5l1.4-1.5C175.5,9.6,175.5,8.9,175.2,8.3
			L175.2,8.3z"/>
		<path class="st1" d="M172.1,14.7l1.6,2.5l1.6-2.5c0.3-0.5,0.3-1.2-0.2-1.7l-1.4-1.5l-1.4,1.5C171.8,13.4,171.7,14.1,172.1,14.7
			L172.1,14.7z"/>
		<path class="st1" d="M177.1,8.7l-3.5,2.8l3.5,2.8c0.6,0.5,1.6,0.5,2.1-0.2l2.5-2.7l-2.5-2.7C178.7,8.2,177.8,8.1,177.1,8.7z"/>
		<path class="st1" d="M168,8.8l-2.5,2.7l2.5,2.7c0.6,0.6,1.5,0.7,2.1,0.2l3.5-2.8l-3.5-2.8C169.4,8.1,168.5,8.2,168,8.8z"/>
		<path class="st1" d="M463.6,11.8l4.5-6.4c1-1.4,2.7-1.6,3.8-0.4c2.3,2.5,0.7,6.7-2.7,6.7H463.6L463.6,11.8z"/>
		<path class="st1" d="M463.6,11.8l4.5,6.4c1,1.4,2.7,1.6,3.8,0.4c2.3-2.5,0.7-6.7-2.7-6.7H463.6L463.6,11.8z"/>
		<path class="st1" d="M9.4,11.8L4.9,5.5C3.9,4,2.3,3.9,1.1,5.1c-2.3,2.5-0.7,6.7,2.7,6.7L9.4,11.8L9.4,11.8z"/>
		<path class="st1" d="M9.4,11.8l-4.5,6.4c-1,1.4-2.7,1.6-3.8,0.4c-2.3-2.5-0.7-6.7,2.7-6.7H9.4L9.4,11.8z"/>
	</g>
</g>
</svg>
