<?xml version="1.0" encoding="utf-8"?>
<!-- Generator: Adobe Illustrator 27.1.1, SVG Export Plug-In . SVG Version: 6.00 Build 0)  -->
<svg version="1.1" id="Слой_1" xmlns="http://www.w3.org/2000/svg" xmlns:xlink="http://www.w3.org/1999/xlink" x="0px" y="0px"
	 viewBox="0 0 35.1 33.3" style="enable-background:new 0 0 35.1 33.3;" xml:space="preserve">
<style type="text/css">
	.st0{fill:#D9D9D9;filter:url(#Adobe_OpacityMaskFilter);}
	.st1{mask:url(#mask0_1968_128670_00000072993730820636503150000004922812093141782669_);}
	.st2{fill:#233038;fill-opacity:0.8;}
</style>
<defs>
	<filter id="Adobe_OpacityMaskFilter" filterUnits="userSpaceOnUse" x="0.2" y="0.3" width="34.7" height="32.8">
		<feColorMatrix  type="matrix" values="1 0 0 0 0  0 1 0 0 0  0 0 1 0 0  0 0 0 1 0"/>
	</filter>
</defs>
<mask maskUnits="userSpaceOnUse" x="0.2" y="0.3" width="34.7" height="32.8" id="mask0_1968_128670_00000072993730820636503150000004922812093141782669_">
	<rect x="-4.1" y="-3.9" class="st0" width="43.3" height="43.3"/>
</mask>
<g class="st1">
	<path class="st2" d="M2.9,26.2c-0.7-0.1-1.4-0.4-1.9-1c-0.5-0.6-0.8-1.3-0.8-2V9c0-0.4,0.1-0.7,0.3-1.1C0.8,7.6,1,7.3,1.4,7.1
		l13.7-6.8l13.4,6.8c0.3,0.1,0.6,0.4,0.8,0.7c0.2,0.3,0.3,0.7,0.4,1H26L15.1,3.3l-12.2,6V26.2z M9.3,33.1c-0.9,0-1.7-0.3-2.3-0.9
		c-0.6-0.6-0.9-1.4-0.9-2.3V14.7c0-0.9,0.3-1.7,0.9-2.3c0.6-0.6,1.4-0.9,2.3-0.9h22.3c0.9,0,1.7,0.3,2.3,0.9
		c0.6,0.6,0.9,1.4,0.9,2.3v15.1c0,0.9-0.3,1.7-0.9,2.3c-0.6,0.6-1.4,0.9-2.3,0.9H9.3z M20.5,23l-11.7-6v12.9c0,0.2,0.1,0.3,0.2,0.4
		c0.1,0.1,0.2,0.2,0.4,0.2h22.3c0.2,0,0.3-0.1,0.4-0.2c0.1-0.1,0.2-0.2,0.2-0.4V16.9L20.5,23z M20.5,20.2L32,14.3
		c-0.1,0-0.1-0.1-0.2-0.1c-0.1,0-0.1,0-0.2,0H9.3c-0.1,0-0.1,0-0.2,0c-0.1,0-0.1,0-0.2,0.1L20.5,20.2z M32.2,16.9c0-0.5,0-1-0.1-1.4
		c0-0.4-0.1-0.8-0.1-1.3c-0.1,0-0.1-0.1-0.2-0.1c-0.1,0-0.1,0-0.2,0H9.3c-0.1,0-0.1,0-0.2,0c-0.1,0-0.1,0-0.2,0.1
		c-0.1,0.5-0.1,0.9-0.1,1.3c0,0.4-0.1,0.8-0.1,1.4v-2.8h23.4V16.9z"/>
</g>
</svg>
