<?xml version="1.0" encoding="utf-8"?>
<!-- Generator: Adobe Illustrator 27.1.1, SVG Export Plug-In . SVG Version: 6.00 Build 0)  -->
<svg version="1.1" id="Слой_1" xmlns="http://www.w3.org/2000/svg" xmlns:xlink="http://www.w3.org/1999/xlink" x="0px" y="0px"
	 viewBox="0 0 425 389" style="enable-background:new 0 0 425 389;" xml:space="preserve">
<style type="text/css">
	.st0{clip-path:url(#SVGID_00000153693752946933045570000012522755181278012310_);}
	.st1{fill:#AAAAAA;}
	.st2{clip-path:url(#SVGID_00000009551483933461904520000011534826234967786155_);}
</style>
<g>
	<defs>
		
			<rect id="SVGID_1_" x="-11.1" y="24.5" transform="matrix(0.866 -0.5 0.5 0.866 -68.6962 114.3947)" width="380.3" height="321.7"/>
	</defs>
	<clipPath id="SVGID_00000040560105080295187760000002438835832931159205_">
		<use xlink:href="#SVGID_1_"  style="overflow:visible;"/>
	</clipPath>
	<g style="clip-path:url(#SVGID_00000040560105080295187760000002438835832931159205_);">
		<path class="st1" d="M423.7,229.9c-1.3,0.8-2.7,1.2-4.1,1.5c-7.2,1.7-14.4,2.6-21.7,3.8c-7.7,1.2-15.4,2.7-23.2,3.6
			c-5.5,0.6-11,1.1-16.5,1.8c-6.9,0.9-13.9,1.9-20.7,3.4c-2,0.4-4.1,1-6,1.7c-0.6,0.2-1.2,0.3-1.9,0.4c-4.1,0.3-8,1.4-12,2.5
			c-2.8,0.8-5.3,2.3-7.9,3.8c-0.6,0.4-1.1,0.8-1.6,1.3c-8,8.1-16,16.2-23.8,24.5c-4.5,4.8-8.8,9.6-13.1,14.5
			c-6.2,7.1-11.9,14.5-18.3,21.4c-1.1,1.2-2.1,2.5-3.2,3.8c-0.5,0.6-1.1,1.1-1.9,1.2c-4.8,0.7-9.6,1.8-14.4,2.4
			c-8.7,1-17.4,1.6-26.2,2c-9.6,0.5-19.2,0.3-28.9-0.1c-6.4-0.2-12.8-0.7-19.2-0.7c-4.2,0-8.4-0.4-12.5-1c-1.8-0.3-3.5,0-5.1,0.8
			c-0.2,0.1-0.4,0.2-0.6,0.4c-3.4,2.5-6.6,5.3-9.7,8.2c-4.3,4.2-8.7,8.4-13.2,12.4c-3.9,3.6-7.6,7.4-11.3,11.2
			c-4.3,4.4-8.6,8.8-12.8,13.2c-0.9,0.9-1.7,2-2.6,3c-1.6,1.9-3.2,3.8-4.8,5.7c-0.7,0.9-1.4,1.7-2.1,2.6c-1.5,2-3.1,4-4.6,6
			c-0.5,0.6-1.1,1.2-1.7,1.8c-0.8,0.7-1.6,0.7-2.3-0.1c-0.7-0.7-1.1-1.5-1.5-2.3c-1.2-2.8-2.4-5.7-3.3-8.6c-0.7-2.2-1.5-4.3-2.2-6.5
			c-1.9-5.7-3.7-11.4-5.6-17c-2-5.7-3.9-11.4-5.9-17.1c-1.5-4.3-2.9-8.6-4.4-12.8c-0.5-1.6-1.2-3.1-1.7-4.6
			c-1.6-4.2-3.2-8.5-4.7-12.7c-1.8-5.2-3.6-10.4-5.3-15.6c-1.8-5.6-3.8-11.1-5.7-16.7c-1.7-5-3.4-9.9-5.2-14.9
			c-1.1-3.3-2.3-6.5-3.4-9.8c-1.6-4.8-3.3-9.7-4.7-14.6c-0.7-2.5-1.6-5-2.3-7.5c-0.7-2.5-1.4-5.1-2.2-7.6c-0.8-2.7-1.7-5.3-2.4-8
			c-1.4-4.7-2.7-9.4-3.9-14.2c-0.6-2.5-1.4-5-2.2-7.4c-1.1-3.8-2.3-7.6-3.4-11.5c-0.9-3-1.7-6.1-2.6-9.1c-0.9-3.2-1.6-6.5-2.2-9.8
			c-0.3-1.4,0-2.8,0.5-4.1c1.2-2.8,2.7-5.4,4.4-7.9c5-7.1,9.3-14.7,12.9-22.7c1.8-3.9,4.1-7.5,6.5-11.1c4.2-6.2,8-12.6,11.5-19.1
			c3-5.7,6.3-11.2,9.2-16.9c0.1-0.2,0.3-0.4,0.4-0.6c1.3-0.4,2.7-0.5,4-0.6c3.4-0.2,6.8-0.5,10.2-0.9c2.3-0.3,4.7-0.2,7-0.3
			c1.9,0,3.9-0.2,5.8-0.3c7.6-0.3,15.1-1.3,22.7-1.8c10.9-0.7,21.7-2,32.5-3.1c0.7-0.1,1.4-0.2,2-0.3c0.7-0.2,1.3-0.4,1.9-1
			c0.8-0.7,1.7-1.3,2.5-2c3-2.6,6.5-4.7,9.5-7.3c3.5-3,7-5.9,10.3-9c2.8-2.6,5.8-5,8.5-7.6c5.6-4.1,10.1-9.4,15.2-14
			c2.4-2.1,4.9-4,7.4-5.9c3.8-3,7.6-6.1,11.4-9.1c0.5-0.4,1-0.8,1.5-1.1c1.5-1,2.9-2.1,4.2-3.4c0.4-0.4,0.9-0.8,1.3-1.2
			c1.1-0.9,2.3-1.4,3.7-1.5c2.7-0.2,5.4-0.4,8.1-0.6c1.5-0.1,3-0.2,4.5-0.4c8.2-1,16.4-1.8,24.7-2.5c4.1-0.4,8.2-0.5,12.2-0.8
			c1.5-0.1,3.1-0.2,4.7-0.3c1.6-0.1,3.1-0.2,4.7,0.1c1,0.1,1.9,0,2.9,0c3.4-0.2,6.7-0.2,10.1-0.2c3.5,0.1,6.9,0.6,10.3,1.3
			c0.2,0.3,0.5,0.5,0.6,0.8c1.3,2.4,2.6,4.9,3.9,7.3c2.4,4.4,4.7,8.8,7.3,13.1c1.5,2.5,2.8,5,4.1,7.6c2.6,4.9,5.1,9.7,7.9,14.5
			c2.7,4.6,5.2,9.2,7.9,13.8c2.9,5.1,5.9,10.2,8.8,15.3c3,5.2,6,10.3,8.9,15.6c3.8,7,7.7,13.9,11.9,20.8c3.8,6.2,7.6,12.5,11.3,18.8
			c2,3.4,3.8,6.9,5.7,10.3c1.8,3.3,3.7,6.4,5.6,9.6c2.5,4.3,5,8.6,7.5,12.8c2.7,4.6,5.4,9.2,8.1,13.8c2.6,4.4,5.3,8.7,7.9,13.1
			c3,5,6.2,9.8,9.2,14.7c2.4,3.9,5.2,7.6,7.8,11.4c1.5,2.2,3.2,4.1,4.6,6.4c1.3,2.2,2.6,4.3,4.1,6.4
			C423.8,228.8,423.9,229.2,423.7,229.9L423.7,229.9z M264.2,121.2c-1,0.2-1.9,0.4-2.9,0.3c-1.9-0.3-3.8-0.7-5.7-1.3
			c-5.5-1.7-11.2-3-16.8-4.4c-1.9-0.5-3.9-0.5-5.9-1c-7.4-1.6-14.8-3.2-22.3-4.8c-3-0.6-5.9-1.6-8.9-2.3c-0.9-0.2-1.6-0.6-2.2-1.4
			c-1.2-1.5-2.2-3.2-3.4-4.8c-0.5-0.7-0.4-1.4-0.1-2.1c0.3-0.6,0.7-1,1.2-1.5c4.1-4.2,7.6-8.8,10.3-13.9c0.5-0.9,1-1.9,1.5-2.8
			c1.8-3,3.7-6.1,5.5-9.1c0.8-1.3,1.5-2.6,2.1-4c0.4-1.1,0.9-2.3,1.3-3.4c0.9-2.8,2.3-5.5,4.2-7.8c1.3-1.7,2.5-3.6,3.4-5.6
			c0.5-1.1,1.2-2.1,1.8-3.2c0.3-0.5,0.8-1,1.3-1.4c1.7-1.5,3.8-2.1,5.9-2.7c2.3-0.6,4.6-0.7,6.9-1c3.3-0.4,3.3-0.2,5.4-3.4
			c1.2-1.9,2.3-3.8,3.7-5.6c4.1-5,7.9-10.1,11.2-15.7c0.7-1.2,1.5-2.4,2.2-3.6c0.4-0.7,0.7-1.4,0.3-2.2c-0.7-0.3-1.4-0.2-2.1-0.2
			c-0.8,0-1.7,0.1-2.5,0.1c-2-0.1-3.4,0.8-4.4,2.5c-1,1.9-2.2,3.6-3.7,5.1c-0.6,0.6-1.3,1.2-1.9,1.8c-3,3.5-6.4,6.8-8.6,11
			c-0.5,1-1.4,1.8-2.5,2.1c-2,0.7-3.9,1.5-5.9,2c-3.2,0.8-6.1,2.2-9,3.7c-2,1.1-3.7,2.5-4.7,4.6c-1.2,2.6-2.6,5-4.2,7.3
			c-2.5,3.4-4.2,7.1-5.8,10.9c-1,2.4-2.2,4.6-3.7,6.8c-1.8,2.6-3.7,5.1-5,8c-0.2,0.4-0.4,0.9-0.7,1.3c-0.7,1.3-1.3,2.6-1.6,4
			c-0.2,0.8-0.5,1.6-1,2.3c-1.2,1.9-2.6,3.5-4.3,4.9c-1.7,1.4-3.3,2.7-4.9,4.1c-4,3.6-8.3,7.1-12.7,10.2c-2.9,2.1-5.8,4.1-8.2,6.8
			c-1.9,2.1-3.8,4.1-5.9,5.9c-1.4,1.3-2.1,3-3.1,4.5c0.7,2.3,1.9,4.2,3,6.1c0.4-0.1,0.5-0.2,0.6-0.4c1.2-1.7,2.6-3.1,4.1-4.5
			c3.2-3.2,6.4-6.4,9.6-9.6c2.7-2.7,5.8-4.9,9.1-6.8c1.8-1.1,3.8-2,5.3-3.6c0.5-0.5,1.2-0.8,1.8-1.1c1.7,0.8,1.7,0.8,2.7,2
			c1.4,1.7,2.7,3.3,4.1,5c1.6,1.9,3,4,4.9,5.6c1.3,1.1,1.8,2.3,1.9,3.9c0.4,4.5,0.9,8.9,1.5,13.3c0.2,1.8,0.7,3.4,1.6,5
			c0.8,1.4,1.6,2.8,2.4,4.2c2,3.5,4,7,6,10.5c0.2,0.3,0.4,0.6,0.2,1c-0.6,0.4-1.2,0.9-1.8,1.1c-3.4,1.3-6.5,3.3-9.6,5.3
			c-4.9,3.1-9.7,6.3-14.5,9.5c-2.4,1.6-4.8,3.1-7,4.9c-0.5,0.4-1,0.7-1.4,1.6c2,4,3.7,8.4,5.8,12.2c1.1,1,2.2,1.4,3.3,1.7
			c1.5,0.5,3,0.9,4.5,1.4c4.3,1.5,8.7,2.9,12.9,4.7c3.1,1.3,6.3,2.6,9.5,3.7c5.9,2,11.8,4,17.8,5.6c1,0.3,1.8,0.9,2.3,1.9
			c0.2,0.5,0.5,1,0.9,1.5c1.6,1.7,3.8,2.4,6,2.8c1,0.2,2.1,0.1,3.2,0.4c0.5,0.1,1,0,1.4-0.2c0.6-0.2,1.2-0.5,1.8-0.7
			c1-0.4,2-0.9,3-1.1c1.9-0.4,3.8-0.6,5.7-1c4.6-0.9,9.3-1.6,14-2.3c4.2-0.6,8.5-1,12.8-1.4c0.9-0.1,1.8-0.1,2.6-0.5
			c0.5-0.3,1-0.5,1.1-1.4c-0.8-1.8-1.7-3.8-2.6-5.7c-1.7-0.5-3.3-0.2-4.9,0.3c-2.5,0.9-5.1,1.5-7.8,1.9c-3.1,0.4-6.3,0.7-9.4,1.3
			c-1.2,0.2-2.4,0.9-3.7,1c-0.6-0.2-1.2-0.3-1.7-0.5c-0.1-0.1-0.2-0.2-0.2-0.3c0-0.2-0.1-0.4,0-0.6c0.5-1.4-0.1-2.5-1-3.6
			c-1-1.3-2.4-2.2-3.9-3c-1.1-0.6-2.2-1-3.2-1.9c0.6-3.1,0.9-6.1,1.7-9.1c2.3-9.4,5-18.8,7.1-28.3c0.8-3.7,1.5-7.4,1.7-11.3
			c-0.3-0.7-0.7-1.5-1.1-2.3c-0.4-0.8-0.8-1.7-1.1-2.5c-0.1-0.4-0.2-0.8,0.4-1c0.5,0.5,0.9,1.2,1.3,1.8c0.4,0.7,0.4,1.6,1.2,2
			c0.2-0.1,0.3-0.1,0.3-0.2c0.1-0.1,0.2-0.3,0.3-0.5c0.7-1.8,1.8-3.4,3.2-4.9c3.1-3.3,5.9-6.9,8.5-10.6c0.5-0.7,1-1.4,1.5-2.2
			c1.3-2,2-4.3,2.3-6.7c0.7-1,1.9-1.2,2.9-1.5c0.9-0.3,1.9-0.4,2.8-0.7c4.3-1.3,8.5-2.7,12.8-4.1c2.1-0.7,4.2-1.3,6.3-1.9
			c1.8-0.5,3.7-0.8,5.6-0.8c1.8,0,3.6-0.2,5.3-0.8c2.9-1,6-1.6,8.8-3.1c1.2-0.7,2.6-0.7,4-0.9c0.5-0.1,1.1,0,1.5-0.5
			c-0.4-1.2-1.1-2.2-1.9-3.2c-0.3,0-0.4-0.1-0.6-0.1c-2.8,0.2-5.6,0.3-8.4,0.8c-4.1,0.6-8.1,2-12.2,3c-4.1,1-8.1,2-12.2,2.8
			c-3.1,0.6-6.2,1-9.1,2.1c-0.9,0.4-1.9,0.4-2.8,0.6c-0.4,0.1-0.7-0.1-0.9-0.4c-0.1-0.7,0.2-1.3,0.4-2c1.3-5.5,2.5-11,3.2-16.6
			c0.5-4.5,1.4-8.8,2.8-13.1c0.5-1.6,0.9-3.3,1.1-5c0.3-3.4,1.1-6.7,1.8-10c0.3-1.2,0.5-2.5,0.5-3.8c0-0.6,0-1.3,0.2-1.9
			c1.2-3.6,1.8-7.4,2.5-11.1c0.3-1.5,0.5-3,0.3-4.5c-0.1-0.6-0.1-1.3-0.4-1.8c-0.9-1.7-1.9-3.4-2.6-5.2c-0.2-0.5-0.6-1-1.2-1.1
			c-0.1,0.2-0.2,0.2-0.2,0.3c-0.8,4.4-1.8,8.8-2.3,13.2c-0.1,0.7-0.2,1.4-0.3,2.2c-0.4,2.2-0.8,4.5-1,6.8c-0.3,2.8-0.5,5.6-1,8.4
			c-1.2,7.2-2.4,14.4-3.6,21.6c-0.9,5.6-2.5,11-3.7,16.5c-0.3,1.2-0.5,2.5-0.4,3.8c0.1,0.9-0.2,1.6-0.7,2.3c-0.4,0.5-0.7,1-1.1,1.5
			c-1.7,2.3-3.7,4.5-5.7,6.6C268.2,117,266.2,119.1,264.2,121.2L264.2,121.2z M101.3,212.3c-0.9-0.2-1.5,0.3-2,0.9
			c-1.9,2.7-4.1,5.2-5.8,8.1c-1.4,2.4-3.1,4.6-5.1,6.5c-1.3,1.3-2.7,2.6-4.1,3.8c-2.8,2.4-5.4,4.9-7.6,7.8c-1.5,2.1-3.4,3.9-5.4,5.5
			c-0.5,0.4-0.9,0.7-1.3,1.2c-1.9,1.9-3.8,3.9-5.9,5.7c-0.4,0.3-0.7,0.7-1,1c-4.3,4.6-8.6,9.1-12.9,13.7c-0.7,0.8-1.4,1.6-2.4,2.1
			c-0.3,0.1-0.4,0.4-0.5,0.9c0.1,0.4,0.2,0.9,0.4,1.4c1.1,3.3,1.8,6.8,2.8,10.1c0.8,2.7,1.5,5.3,2.9,7.8c0.2,0.4,0.4,0.9,1,1
			c0.7-0.5,1.3-1.1,1.9-1.7c1.4-1.5,3.1-2.2,5.1-2.6c0.4-0.1,0.9-0.2,1.3-0.2c2.7-0.4,5-1.6,6.9-3.5c1.2-1.2,2.3-2.4,3.6-3.4
			c0.7-0.6,1.2-1.5,1.2-2.4c0-1.2,0.3-2.3,0.5-3.4c0.3-1.4,0.8-2.7,1.8-3.8c0.8-0.9,1.8-1.6,2.9-2.2c1.2-0.7,2.4-0.8,3.6-0.3
			c0.9,0.3,1.7,0.7,2.5,1.2c1.7,1.1,3.6,1.1,5.5,0.6c0.5-0.2,1-0.3,1.5-0.6c3.2-1.5,5.4-3.9,6.3-7.4c0.4-1.7,0.6-3.4,0.6-5.1
			c0.1-3.3,0.4-6.6,0.8-9.9c0.2-2.1,1.2-3.9,2.6-5.4c1-1,2.1-1.3,3.5-0.7c0.5,0.2,1.1,0.5,1.6,0.7c0.6,0.3,1.3,0.5,2,0.5
			c1.2,0,1.9-0.6,2.2-1.7c0.2-0.9,0.1-1.8-0.3-2.7c-1-2.4-1.9-4.8-2.9-7.2c-0.1-0.4-0.3-0.7-0.4-1.1c-0.1-0.3-0.1-0.6,0.3-0.8
			c0.6,0.2,0.9,0.7,1.2,1.2c0.7,1.1,1.3,2.4,1.8,3.6c0.2,0.5,0.3,1.1,0.9,1.3c0.2-0.1,0.3-0.2,0.4-0.4c1.1-1.2,2.5-2,4.2-2.2
			c1.3-0.2,2.7-0.4,4-0.6c2.6-0.3,5.1-0.8,7.7-0.9c1.8-0.1,3,0.7,3.8,2.2c0.5,1,1,2,1.6,3c0.6,1.2,1.3,2.4,2.4,3.3
			c1.6,1.2,3.4,2.2,5.3,2.6c0.9,0.2,1.9,0.3,2.8,0.2c0.5-0.4,0.8-0.9,1-1.4c1.8-3,3.7-5.9,5.5-8.8c3.8-6,7.6-12.1,11-18.4
			c4.3-7.9,8.9-15.6,13.3-23.5c0.3-0.4,0.6-0.9,0.7-1.4c-0.6-0.6-1.3-0.8-2-1c-2.8-0.5-5.5-1.1-8.3-1.6c-1.1-0.2-2.1-0.1-3.1,0.3
			c-3.8,1.5-7.6,3-11.4,4.5c-1,0.4-2,0.9-2.9,1.3c-2.6,1.2-5.1,2.6-7.8,3.7c-5.9,2.6-11.9,5-18,7.2c-2.4,0.9-4.9,1.6-7.3,2.5
			c-3.5,1.2-7,2.7-10.5,4.1c-0.3,0.1-0.5,0.2-0.8,0.4c-1.2,0.8-2.1,1.7-2.1,3.5c0.4,1,0.9,2.2,1.3,3.4c0.4,1.2,1.1,2.3,1.2,3.9
			C102.8,216.6,102.7,214.1,101.3,212.3L101.3,212.3z M268.6,147.9c0.7-0.3,1.2-0.2,1.7,0c1.9,0.8,3.9,1.6,5.8,2.4
			c0.5,0.2,1,0.5,1.3,1.1c-1.3,3.4-3.1,6.7-4.2,10.3c1.1,2.3,2.3,4.5,3.4,6.8c0,0,0.1,0,0.1,0c0,0,0.1,0,0.1,0
			c0.3-0.2,0.4-0.6,0.5-0.9c0.7-2.1,1.5-4.1,2-6.3c0.2-0.7,0.4-1.4,1.1-1.9c0.2,0,0.3-0.1,0.5-0.1c2.5-0.1,4.9,0.7,7.2,1.5
			c0.4,0.1,0.6,0.4,0.7,0.8c0,0.5-0.2,1-0.5,1.4c-1.2,1.9-2,4-2.8,6.1c-1.3,3.5-2,7.3-3.6,10.7c0.7,1.5,1.4,2.8,2,4.2
			c1.6,3.3,3.4,6.4,4.8,9.8c0.4,1,1.1,1.7,2.1,2.1c0.4,0.1,0.7,0.3,1.1,0.4c3.2,1,6.2,2.4,9.3,3.8c0.3,0.1,0.6,0.4,1.1,0.1
			c0.8-2.3,2.3-4.3,3.8-6.2c2-2.6,4.5-3.6,7.7-2.7c1.2,0.3,2.3,0.7,3.5,1.1c1.2,0.4,2.5,0.6,3.7,0.5c2.3-0.1,4.6-0.6,6.9-1
			c3-0.5,5.7-1.7,8.3-3.3c2.5-1.6,4.7-3.6,7.1-5.3c0.5-0.4,1-0.8,1.3-1.4c0.7-1,1.6-1.9,2.5-2.6c2.7-2.1,5.7-3.6,9.3-2.8
			c1.2,0.3,2.4,0,3.5-0.5c2.3-1.1,4.6-2.4,6.7-3.9c1.7-1.1,2.9-2.7,3.9-4.4c-0.5-1.1-1.2-2.1-1.8-3c-2.7-4.1-5.5-8.2-8.1-12.3
			c-4.6-7.1-9.1-14.2-13.7-21.2c-1.8-2.7-3.6-5.3-5.2-8.1c-2.6-4.7-5.2-9.4-7.9-14.1c-0.9-1.7-2-3.3-3-5c-2.1-0.6-4-0.4-6,0.2
			c-2.5,0.8-4.9,1.7-7.3,2.5c-2.5,0.8-5.1,1.4-7.9,1.3c-1.7-0.1-3.4,0.3-5,0.8c-2.4,0.7-4.8,1.4-7.3,2.2c-5.2,1.5-10.3,3.2-15.3,5.3
			c-0.6,0.2-1.2,0.4-1.7,0.9c-0.4,0.8-0.7,1.6-0.8,2.5c-0.2,1.5-0.8,2.8-1.6,4c-1.3,1.9-2.8,3.8-4.2,5.6c-2.2,2.7-4.4,5.4-6.6,8.2
			c-1.4,1.8-2.2,3.9-3,5.9c1,2.8,2.4,5.5,3.4,6.3C268.1,149.2,268.4,148.6,268.6,147.9L268.6,147.9z M419.8,228.6
			c0.1-0.6-0.2-1-0.4-1.3c-2-3-3.8-6.1-6.1-8.9c-0.9-1.1-1.7-2.2-2.5-3.4c-2.7-4.3-5.4-8.6-8.1-12.8c-3.2-5-6.3-10-9.3-15.2
			c-2.4-4.2-4.9-8.4-7.4-12.5c-2.1-3.4-4.1-6.9-6.2-10.4c-1.9-3.1-3.7-6.3-5.5-9.4c-2.2-3.8-4.6-7.5-6.7-11.3
			c-3.4-6-6.8-12.2-10.2-18.2c-2.6-4.6-5.3-9.2-8.1-13.7c-2.6-4.2-5.2-8.3-7.6-12.6c-3.1-5.4-5.9-10.9-9-16.3c-3.4-6-7.1-12-10.5-18
			c-2.3-3.9-4.5-7.8-6.7-11.8c-1.8-3.1-3.5-6.3-5.2-9.4c-1.9-3.5-3.7-7-5.6-10.6c-1.2-2.3-2.4-4.5-3.8-6.7c-1.5-2.5-3.1-4.9-4.4-7.5
			c-1.3-2.5-2.4-5-3.8-7.4c-1-1.6-1.6-3.3-2.8-4.8c-0.3-0.4-0.6-0.9-1.1-1.1c-2.1-0.8-4.1-1.6-6.3-1.9c-2.9-0.4-5.8-0.6-8.7-0.5
			c-6.6,0.2-13.2,0.5-19.8,1c-5.1,0.4-10.3,0.5-15.4,0.9c-9.2,0.8-18.4,2-27.6,3c-0.6,0.1-1.3,0-1.9,0.6c1.1,2.1,2.2,4.3,3.2,6.4
			c0.5,0.2,0.9,0.2,1.2,0.2c0.6,0,1.2-0.1,1.7-0.2c5.1-1.2,10.3-1.8,15.6-2.1c6.5-0.3,12.9-0.6,19.4-0.9c5.6-0.3,11.3-0.1,16.9-0.4
			c0.5,0,1.1,0.1,1.6,0.1c2.3,0.3,4.6,0.6,7,0.7c1.4,0.1,2.8,0.1,4.2,0.2c1.4,0.1,2.5,0.6,3.2,2c0.4,0.7,0.8,1.5,1.1,2.2
			c1.1,2.2,2.2,4.4,3.4,6.6c2,3.9,4.1,7.8,6.1,11.8c1.5,2.9,3.1,5.9,4.7,8.8c1.6,3,3.3,6,4.9,8.9c1.9,3.4,3.9,6.8,5.8,10.3
			c1.3,2.3,2.8,4.6,3.9,7c0.6,1.2,1.2,2.4,1.9,3.6c2.1,3.6,4.2,7.2,6.3,10.8c2,3.5,3.9,7,6.3,10.2c0.4,0.5,0.7,1.1,1,1.8
			c1.3,2.5,2.7,5.1,4.1,7.6c2.6,4.7,5.3,9.3,8,13.9c1.5,2.6,2.9,5.3,4.6,7.8c2.8,4.3,5.6,8.6,8.5,12.9c3.2,4.9,6.4,9.9,9.6,14.8
			c3.5,5.4,7.5,10.5,11,16c1.5,2.4,3.2,4.7,4.9,7.1c1.9,2.8,3.3,6,5.4,8.7c0.3,0.4,0.6,0.9,0.9,1.4c0.8,1.4,1.5,2.8,2.3,4
			c3.8,5.6,7.6,11.2,11.2,16.9c1.9,3.1,4,6,5.8,9.1c1.5,2.7,3,5.4,4.7,7.9c0.1,0.2,0.2,0.4,0.1,0.7c-0.8,0.5-1.7,0.4-2.5,0.3
			c-9.6-0.2-19.2,0.3-28.8,1.4c-9.1,1-18.2,2.4-27.3,3.8c-7.3,1.1-14.4,2.7-21.5,4.7c-4.3,1.2-8.6,2-13,2.7
			c-1.3,0.2-2.5,0.6-3.6,1.2c-1.2,0.6-1.6,1.9-0.9,3c0.8,1.3,1.6,2.6,2.6,3.8c1.9-0.4,3.7-0.9,5.6-1.3c4.4-0.8,8.9-1.6,13.3-2.6
			c8.6-1.9,17.2-3.1,25.9-4.3c6.1-0.8,12.3-1.5,18.4-2c4.1-0.3,8.2-1.1,12.3-1.8c6.5-1.1,13-2.2,19.5-3.4c2.7-0.5,5.5-0.7,8.2-1.4
			C418.3,229.1,419.1,228.9,419.8,228.6L419.8,228.6z M76.7,152.3c1.9,0.9,3.5,1.9,5.4,2.2c1.1,0.2,2.1,0.5,3.1,0.8
			c1.5,0.4,2.9,0.8,4.4,1.2c5.5,1.4,11.1,2.8,16.6,4c4.6,1.1,9,2.6,13.5,3.6c4.2,0.9,8.5,1.8,12.7,2.8c12.6,3,25.2,6,37.7,9.1
			c2.2,0.5,4.4,1.1,6.7,1.6c1,0.2,2,0.4,2.9-0.2c0.3-0.5,0.6-1,0.7-1.7c-0.2-0.4-0.3-0.9-0.5-1.3c-0.6-1.1-1.1-2.3-1.6-3.4
			c-1.2-2.8-2.1-5.6-3.5-8.3c-0.3-0.6-0.6-1.2-0.6-1.9c0-0.3-0.3-0.6,0.2-0.8c1.6,2.2,2.2,4.8,3.5,7.2c1.3,2.3,2.2,4.8,3.6,7.2
			c1-0.9,2-1.7,3-2.2c1.7-1,3.4-2.1,5-3.2c5.2-3.7,10.7-6.9,16.1-10.3c1.9-1.2,3.9-2.2,5.9-3.3c1.3-0.8,2.7-1.4,3.9-2.5
			c0-0.3-0.1-0.6-0.1-0.9c-0.1-0.7-0.6-1.3-1-2c-2-4.1-4.1-8.2-7.2-11.6c-0.5-0.6-0.8-1.3-0.9-2.1c-0.1-1.1-0.3-2.2-0.4-3.3
			c-0.6-4.3-1.2-8.6-1.7-12.9c-0.2-1.2-0.5-2.3-1.3-3.3c-3-3.5-6-7-9-10.5c-0.6-0.7-1.3-1.4-2.2-1.7c-0.6,0-1,0.3-1.4,0.6
			c-2,1.3-4.1,2.7-6.1,4c-2.5,1.7-5.1,3.2-7.1,5.6c-0.2,0.2-0.4,0.3-0.5,0.5c-3.2,2.4-5.9,5.4-8.7,8.2c-1.1,1.1-2.2,2.3-3.2,3.6
			c-0.9,1.2-1.7,2.5-2.5,3.8c1.1,2.4,2.2,4.6,3.2,7c1,2.4,2.4,4.5,3.5,6.8c-0.3,0.1-0.4,0-0.5-0.1c-0.7-1-1.5-1.9-2.2-2.9
			c-1.5-2.1-2.5-4.5-3.7-6.8c-0.3-0.6-0.5-1.3-1.1-1.8c-1.6-0.6-3.2-0.4-4.9-0.1c-2.8,0.6-5.6,0.7-8.4,0.6c-4-0.2-8-1-11.9-1.9
			c-4.3-0.9-8.6-1.8-12.9-2.5c-2.8-0.4-5.6-1-8.4-1.9c-4.8-1.4-9.6-2.6-14.5-3.4c-3.8-0.7-7.6-1.4-11.3-2.5
			c-6-1.7-12.1-2.6-18.2-3.2c-1.8-0.2-3.6-0.2-5.4,0.3c-0.2,0.3-0.4,0.5-0.6,0.8c-1.1,1.4-1.9,3-2.8,4.6c-2.2,4.1-4.8,8-6.9,12.2
			c-0.3,0.6-0.8,1.2-0.6,2.1c0.4,0.3,0.8,0.6,1.2,0.9c2.2,1.6,4.5,3.1,6.8,4.6c3.1,2,6.1,4.2,9.1,6.3c0.6,0.4,1.2,0.9,1.9,1.1
			c0.3,0.1,0.7,0.2,0.9-0.2c-0.1-0.2-0.1-0.5-0.2-0.8c-0.9-2.3-1.8-4.5-2.8-6.8c-0.6-1.4-1.3-2.8-2.1-4.2c-0.9-1.6-1.6-3.3-1.9-5.2
			c0-0.2-0.1-0.5,0.2-0.7c0.1,0.1,0.3,0.1,0.3,0.2C70.8,139.8,74.2,145.8,76.7,152.3L76.7,152.3z M254.9,13
			c-0.7-0.5-1.5-0.5-2.2-0.6c-0.8,0-1.6,0-2.5,0.1c-3.5,0.2-7,0.6-10.5,0.6c-3,0-5.9,0.1-8.9,0.3c-5.3,0.4-10.6,1.1-15.9,2.3
			c-0.7,0.2-1.3,0.4-1.6,1c0,0.6,0.3,1,0.5,1.4c0.8,1.5,1.5,3,1.9,4.6c0.1,0.3,0.2,0.5,0.3,0.8c1.8,3.4,3,7.1,4.4,10.7
			c0.3,0.7,0.4,1.5,0.6,2.3c0.1,0.3,0.2,0.7-0.4,1c-1.1-2.2-1.7-4.5-2.7-6.7c-1-2.2-2-4.3-3.2-6.4c-1.2-2.1-2.3-4.2-3.5-6.3
			c-0.5,0-0.9,0.2-1.2,0.5c-5.5,3.9-36.3,29.1-38,31.1c0,0.5,0.4,1,0.6,1.4c1,1.7,2,3.4,2.5,5.2c0.4,1.4,0.4,2.6-0.3,3.9
			c-0.8,1.3-1.5,2.6-2.6,3.7c-0.7,0.8-1.3,1.6-1.7,2.5c-0.4,0.9-0.9,1.7-1.6,2.4c-1.6,1.8-2.5,3.9-3,6.3c-0.3,1.6-0.8,3.1-1.4,4.6
			c-0.8,2-1.3,4.1-1.5,6.2c-0.1,1.1-0.2,2.1-0.3,3.2c-0.2,1.6-0.9,2.9-2.1,3.9c-0.8,0.6-1.6,1.3-2.4,1.9c-2.7,1.9-5.5,3.8-8.2,5.8
			c-0.9,0.6-1.7,1.3-2.2,2.3c0.2,0.9,0.6,1.7,1.1,2.6c2.4,4.7,5.1,9.3,7.2,14.2c0.2,0.5,0.4,1.1,1,1.4c0.5-0.6,0.9-1.1,1.3-1.6
			c2.2-2.6,4.6-5,6.9-7.5c1.5-1.5,3.1-3,4.9-4.2c3.9-2.7,7.6-5.7,11.2-8.8c2.6-2.2,5-4.5,7.7-6.5c2.5-1.8,4.7-4,6.6-6.3
			c0.2-0.3,0.5-0.6,0.6-1c0.5-1.3,1-2.5,1.5-3.8c0.5-1.4,1-2.9,1.8-4.2c1.5-2.6,3.1-5.2,4.7-7.7c1.3-2,2.4-4,3.2-6.2
			c1.2-3.3,2.8-6.4,4.9-9.2c2.5-3.4,4.8-7,6.6-10.8c0.6-1.4,1.8-2.4,3.2-3c4.6-1.8,9.2-3.6,13.7-5.4c0.3-0.1,0.6-0.2,0.8-0.3
			c1.6-0.6,3.1-1.5,4-3c0.9-1.6,2-3.1,3.3-4.5c3.3-3.8,6.4-7.7,9.4-11.7C254.2,14.7,254.8,14,254.9,13z M280.1,85
			c0.4-0.2,0.3-0.6,0.4-0.9c0.9-4.3,1.7-8.6,2.6-12.9c0.1-0.5,0-1.1,0.2-1.6c0.6-1.3,0.8-2.6,0.9-4c0.6-6.7,1.7-13.3,2.7-20
			c0.4-2.7,0.8-5.5,1.1-8.2c0.2-1.4,0.3-2.7,0.8-4c0.3-0.9,0.5-1.8,0.3-2.7c-0.3-2-0.6-3.9-1.5-5.7c-0.5-0.9-1-1.8-1.4-2.7
			c-1.1-2-2.1-4.1-3.1-6.1c-1.2-2.5-3.1-3.4-5.7-2.8c-0.5,0.5-1,1-1.3,1.7c-0.6,1.5-1.2,3.1-1.9,4.6c-2.3,5.4-5.7,9.9-10.2,13.7
			c-0.7,0.6-1.4,1.2-2.4,1.6c-1.5-1-2.2-2.8-3.6-3.9c0.4-1.2,0.9-2.2,1.5-3.1c1.5-2.4,3-4.9,4.5-7.4c1.2-2.1,2.3-4.2,2.9-6.5
			c0.1-0.4,0.4-0.9-0.2-1.3c-0.5,0.2-0.8,0.5-1,1c-1.6,2.8-3.4,5.6-4.9,8.5c-1.2,2.3-2.7,4.5-4.3,6.6c-3.4,4.5-7,8.7-10.1,13.4
			c-0.8,1.1-1.8,1.7-3.1,1.8c-4,0.3-7.9,0.7-11.6,2.5c-1.6,0.8-2.9,1.7-3.8,3.2c-0.9,1.5-1.7,3-2.6,4.6c-0.6,1.1-1.2,2.2-1.9,3.3
			c-1.4,1.9-2.4,4-3.2,6.2c-0.6,1.7-1.3,3.4-2,5c-2,4.4-4.3,8.5-6.9,12.5c-0.5,0.7-0.9,1.5-1.4,2.2c-2.6,4.1-5.3,8.2-8.3,12
			c-1.5,1.8-2.7,3.8-4,5.7c0.6,1.2,1.2,2.2,1.7,3.2c0.5,0.9,1.2,1.5,2.2,1.8c2.5,0.9,5,1.7,7.5,2.3c4.6,1,9.1,2.1,13.7,3.2
			c4.4,1.1,8.7,2.1,13.1,2.7c3.8,0.5,7.6,1.4,11.3,2.4c3.3,0.9,6.6,1.8,9.9,2.7c2.3,0.6,4.7,0.8,7.1,0.7c0.8-0.9,1.6-1.7,2.5-2.6
			c2.7-2.8,5.4-5.7,8-8.7c1.3-1.4,2.3-3,2.3-4.9c0.1-2.8,0.8-5.5,1.2-8.2c0.3-1.9,0.7-3.8,1.3-5.7c0.1-0.4,0.3-0.8,0.1-1.3
			c-1.4-1-2.8-1.9-4.7-1.3c-0.5,0.2-1.2,0.2-1.9-0.2c-0.5-2.5,0.1-5.1,0.1-7.5c0.4-0.7,0.9-0.9,1.3-1.2c0.3-0.3,0.7-0.5,1.1-0.7
			c1.7-0.8,3.2-0.2,3.9,1.5c0.5,1.3,0.7,2.6,0.7,4C279.8,84,279.7,84.5,280.1,85L280.1,85z M44.1,258.1c1.1-0.6,1.9-1.3,2.6-2.2
			c2.3-2.7,5-5,7.9-7.1c1.2-0.9,2.4-1.7,3.4-2.8c1.3-1.3,2.8-2.4,4.3-3.4c1.6-1,3.2-1.9,4.7-2.9c3.9-2.8,6.7-6.6,9.5-10.4
			c1.1-1.5,2-3.2,2.9-4.9c1.1-2,2.6-3.7,3.9-5.5c0.4-0.5,0.9-1,1.4-1.4c0.7-0.5,1.2-1,1.6-1.6c1-1.3,2-2.6,3-3.9
			c1.9-2.4,3.6-5,5.7-7.2c0.7-0.8,1.4-1.7,1.8-2.7c0-0.4-0.2-0.7-0.3-0.9c-1.4-2.8-2.8-5.6-4-8.4c-0.7-1.8-1.5-3.6-2.4-5.3
			c-1.9-3.7-3.6-7.5-5.3-11.4c-1.4-3.3-2.7-6.7-4.1-10c-0.2-0.5-0.3-1-0.8-1.5c-1.2-0.4-2.4-1.2-3.5-1.9c-5.2-3.5-10.7-6.6-16.2-9.5
			c-2.3-1.2-4.5-2.5-6.6-4c-0.6-0.4-1.2-0.8-1.9-1c-0.8,0.4-1.1,1.1-1.4,1.8c-2.2,4.8-4.5,9.5-6.7,14.2c-2.9,6.3-6.5,12.2-9.8,18.3
			c-3.1,5.7-6,11.5-7.6,17.8c-0.1,0.4-0.2,0.8-0.4,1.2c-0.4,0.9-0.3,1.7,0,2.5c0.7,2.1,1.4,4.1,2.1,6.2c1.5,4.8,3,9.6,4.6,14.3
			c2,5.6,4,11.3,5.8,17c0.8,2.7,1.6,5.5,2.4,8.2c0.6,2.2,1.3,4.4,2.1,6.5C43.1,257,43.3,257.7,44.1,258.1z M48.3,79.2
			c-0.6,0.2-0.7,0.6-0.8,0.9c-0.3,0.6-0.6,1.2-1.1,1.7c-1.1,1.1-1.9,2.4-2.6,3.7c-1.1,2-2.2,4-3.3,6c-3.7,7.3-7.9,14.3-12.5,21.1
			c-3.5,5.1-6.6,10.3-9.1,15.9c-2.1,4.8-5.1,9.2-7.8,13.7c-1.2,2-2.5,3.9-3.7,5.9c-1.2,2-2.4,4.1-3.6,6.2c-0.9,1.5-1.1,3.1-0.7,4.8
			c0.2,0.9,0.6,1.8,0.7,2.7c0.2,2,1,3.9,1.5,5.8c1,3.5,2.1,6.9,3.1,10.3c1.4,4.8,2.6,9.7,4,14.5c1.4,4.9,2.6,9.8,4.1,14.6
			c1.1,3.9,2.3,7.8,3.5,11.6c1.9,5.7,3.7,11.4,5.2,17.2c0.3,1.1,0.5,2.2,0.9,3.2c2.1,5,3.6,10.2,5.4,15.3c2,6,4.2,11.8,6.3,17.8
			c1.5,4.5,3.1,8.9,4.6,13.4c2,6,3.8,12,5.9,17.9c0.8,2.2,1.5,4.5,2.2,6.8c0.8,2.4,1.4,4.9,2.3,7.2c2.1,5.6,4.1,11.2,6.1,16.9
			c2.5,7.3,5.1,14.5,7.6,21.8c1.2,3.5,2.3,7,3.5,10.5c1.7,5.2,3.6,10.4,5.7,15.5c0.3,0.8,0.7,1.5,1.3,2.2c0.2-0.1,0.4-0.2,0.5-0.4
			c1.5-1.8,2.9-3.7,4.3-5.5c0.3-0.4,0.7-0.8,1-1.2c1.3-1.4,2.7-2.8,3.8-4.4c1.7-2.4,3.5-4.7,5.4-6.9c3.2-3.8,6.8-7.4,10.6-10.6
			c1.1-0.9,2.1-1.9,3-2.9c2.8-3.1,5.7-6.2,8.8-8.9c4.9-4.4,9.8-8.7,14.5-13.3c2.5-2.4,5.2-4.6,7.6-7.1c0.9-0.9,1.9-1.8,3-2.5
			c0.6-0.4,1.2-0.9,1.5-1.6c-0.7-1.9-0.6-4.1-2-5.7c-0.9,0-1.3,0.5-1.8,0.9c-1.4,1.1-2.7,2.4-4.2,3.4c-1.5,1-2.9,2.1-4.2,3.4
			c-2.1,2.3-4.5,4.3-6.9,6.3c-5.4,4.5-10.1,9.7-15.1,14.6c-1.2,1.2-2.2,2.6-3.5,3.7c-2.8,2.4-5.5,4.8-8.2,7.3
			c-4.2,3.7-8,7.8-11,12.6c-0.5,0.8-1.1,1.6-1.7,2.4c-0.5,0.6-1.1,1.1-1.8,1.4c-0.2-0.1-0.3-0.2-0.4-0.4c-0.7-1.3-1.5-2.5-1.8-4
			c-0.2-0.9-0.5-1.7-0.9-2.4c-0.5-0.9-0.9-1.8-1.3-2.8c-1.3-3.3-2.7-6.6-4-9.9c-1.1-2.8-2.2-5.6-3.1-8.5c-0.7-2.7-1.4-5.4-2.4-7.9
			c-1-2.4-2-4.8-2.7-7.2c-1.8-5.6-3.5-11.1-5.3-16.7c-0.4-1.2-0.6-2.4-1.1-3.6c-1.5-4.2-3.1-8.5-4.6-12.8c-1.4-4-2.8-8-4.1-12
			c-1.9-5.5-3.9-11-5.6-16.6c-0.7-2.4-1.4-4.9-2.1-7.3c-0.9-3.2-1.7-6.4-2.7-9.5c-0.7-2.4-1.7-4.8-2.5-7.2
			c-1.6-4.7-3.3-9.4-4.8-14.1c-1.4-4.4-2.8-8.7-4.1-13.1c-1.4-4.3-2.6-8.7-4.1-12.9c-2.1-6.2-4.5-12.3-6.4-18.5
			c-1.2-3.8-2.3-7.5-3.4-11.3c-1.1-3.6-1.7-7.3-2.5-10.9c-0.2-0.9-0.4-1.9-0.2-2.9c0.4-1.4,0.7-2.7,1.3-4c0.8-1.5,1.6-2.9,2.2-4.4
			c1.6-3.8,3.7-7.4,5.9-10.9c4.1-6.4,8.1-12.9,11.9-19.4c2.8-4.7,5.6-9.4,8.3-14.1c1.7-2.9,3.8-5.5,5.3-8.5c0.4-0.7,0.8-1.4,1.2-2.2
			c0.6-1.2,1.1-2.4,1.7-3.5c1.1-1.8,1.6-3.8,2-6C49.7,82.1,49.6,80.3,48.3,79.2L48.3,79.2z M374.3,173.6c-0.5,0-0.7,0.5-0.9,0.8
			c-1.2,2.3-3.1,4-5.4,5.2c-1.4,0.7-2.2,1.8-2.5,3.3c-0.4,1.9-1.2,3.7-2.5,5.2c-1.1,1.2-2.1,2.5-3.8,3.1c-4.3,1.5-8.5,1.3-12.6-0.8
			c-0.7-0.4-1.3-0.9-2.1-1c-0.8,0.1-1.4,0.6-2,1.1c-3.5,2.5-7.4,4.2-11.7,4.9c-2.1,0.4-4.1,0.8-6.1,1.3c-3.8,1-7.5,1.4-11.4,0.2
			c-0.9-0.3-1.8-0.2-2.8-0.2c-2.6,0.1-4.7,2.8-4.3,5.5c0.2,0.3,0.5,0.4,0.8,0.6c1.6,0.5,2.8,1.5,4.1,2.4c1.9,1.5,4,2.7,6.2,3.9
			c3.4,1.8,7,3.1,10.6,4.6c1.9,0.8,3.8,1.4,5.7,2.2c1.1,0.5,2.1,1,3.2,1.4c3.1,1.1,6.2,2.2,9.1,3.6c4.8,2.3,9.8,4,14.7,6
			c0.9,0.4,1.8,0.4,2.7,0.3c6.7-0.9,13.4-1.9,20.1-2.6c7.2-0.8,14.4-1.7,21.7-0.9c0.5,0.1,1,0.1,1.4-0.3c0.1-0.4-0.1-0.7-0.2-1
			c-1.2-3-3-5.5-4.7-8.2c-2.9-4.7-6.1-9.2-9.3-13.8c-3.4-4.8-6.6-9.6-9.5-14.7c-0.9-1.5-1.7-3.1-2.6-4.6c-1.4-2.3-3.3-4.3-4.7-6.6
			C375.2,174.1,374.8,173.7,374.3,173.6L374.3,173.6z M227.3,269.6c1.1-0.8,2.1-1.4,3-2.1c0.7-0.5,1.4-0.8,2.3-0.8
			c3.6-0.1,6.7,0.9,9.3,3.5c1.3,1.3,2.8,2.4,4.5,3.2c1.6,0.1,3.1,0,4.7-0.3c2.2-0.4,4.2-1.1,6.3-1.9c1.4-0.6,2.7-0.4,3.9,0.3
			c0.8,0.4,1.4,1,2,1.7c0.2,0.3,0.5,0.6,0.8,0.8c1.4,1.1,2.8,2.3,4.2,3.4c0.4,0.3,0.7,0.7,1.3,0.8c1.1-0.4,1.9-1.2,2.7-2
			c2.9-3,5.6-6.1,8.6-8.9c5-4.7,9.4-9.8,13.8-15c0.7-0.9,1.2-1.9,1.9-2.7c2.7-2.9,5.5-5.8,8.9-7.9c0.8-0.5,1.6-1.1,2.2-1.9
			c0.2-0.3,0.5-0.6,0.5-1.1c-2.8-4.5-4.8-9.4-7.2-14.1c-1.8,0-3.5,0.1-5.2,0.4c-2.2,0.3-4.1,1.1-5.8,2.6c-0.6,0.5-1.3,0.9-2,1.2
			c-1.4,0.6-2.9,0.7-4.4,0.6c-2.9-0.2-5.8-0.4-8.7-0.7c-1.8-0.2-3.7-0.4-5.4-1c-2.3-0.8-4.3-0.3-6.2,1.1c-2.3,1.6-4.3,3.5-5.6,6
			c-0.7,1.3-1.9,2.2-3.3,2.7c-0.8,0.3-1.6,0.4-2.4,0.5c-2.8,0.4-5.4,1.1-7.8,2.6c-1.8,1.1-3.8,1.5-5.9,0.7c-0.8-0.3-1.7-0.5-2.4,0
			c-1.4,0.8-2.7,1.7-3.9,2.7c-1.2,1.1-1.9,2.7-2.9,4c-1,1.4-1.6,2.9-1.8,4.6c-0.3,1.7-0.6,3.3-0.9,5c-0.2,1.3-0.9,2.2-2,3
			c-0.5,0.4-1.2,0.7-1.5,1.5C224.4,264.3,225.1,267.3,227.3,269.6L227.3,269.6z M63.1,109.1c1.3-0.2,2.5-0.1,3.7,0
			c9.2,1.3,18.3,3.2,27.5,4.7c6.1,1,12.1,2.2,18,3.6c7.3,1.8,14.8,2.9,22.3,3.8c5.5,0.6,11.1,0.8,16.6,1.2c0.9,0.1,1.7,0.1,2.6,0.1
			c0.6,0,1.3,0.1,1.7-0.5c-0.7-2.4-8-16.8-9.1-17.9c-0.7,0.4-1.5,0.8-2.2,1.2c-2.6,1.6-5.4,2.4-8.5,1.7c-0.8-0.2-1.5-0.3-2.3-0.4
			c-2-0.4-4-1-5.8-2c-2.6-1.5-5.4-2.5-8.3-3c-1.7-0.3-3.4-0.7-4.8-1.6c-3.1-1.8-6.3-3.4-9.7-4.8c-3.5-1.5-5.9-4.3-8-7.3
			c-1.4-2-1.4-4-0.2-6c0.1-0.2,0.4-0.4,0.2-0.8c-0.4-0.1-0.8-0.1-1.1-0.1c-3.2,0.1-6.3,0.2-9.5,0.3C79.5,81.8,72.8,82,66,82.3
			c-0.6,0-1.3,0.1-1.9,0.2c-2.7,0.4-5.5,0.9-8.1,1.7c-0.9,0.3-1.9,0.6-2.5,1.4c0.1,0.8,0.4,1.4,0.8,2c2.3,4.4,3.6,9.2,5.4,13.9
			c0.1,0.4,0.3,0.7,0.3,1.1c0,0.2,0.2,0.6-0.3,0.7c-1-1.5-1.8-3-2.4-4.7c-1-3-2.4-5.8-3.7-8.7c-0.4-1-0.9-2-1.6-2.9
			c-0.8,0.7-3.8,6-5.2,8.8c-1.6,3.1-3.8,5.7-5.3,8.9c-1.5,3.1-3.4,5.9-5.2,8.8c-1.7,3-3.5,5.9-5.2,8.9c0.2,0.3,0.4,0.5,0.5,0.7
			c2.7,2.2,5.5,4.5,8.6,6.2c0.8,0.4,1.6,1,2.4,1.5c1.3,0.8,2.7,1.4,4.1,1.6c0.8-0.3,1.2-0.8,1.6-1.4c1.1-1.9,2.3-3.7,3.5-5.5
			c1.9-3,3.8-6.1,5.9-9c0.8-1.1,1.5-2.2,2.2-3.3C60.8,111.6,61.8,110.3,63.1,109.1L63.1,109.1z M174.3,311.2
			c0.2-0.9,0.1-1.6-0.1-2.3c-0.6-1.8-0.8-3.6-0.4-5.5c0.1-0.7,0.3-1.4,0.2-2.2c-0.1-1.8,0.6-3.1,2-4.2c1.2-1,2.5-1.9,3.9-2.6
			c1.2-0.6,2.3-1.2,3-2.5c1.7-3.2,2-6.6,0.8-10c-0.3-0.9-0.6-1.8-0.8-2.7c-0.3-1.1-0.1-2.1,0.3-3.1c1.1-2.4,3.9-3.9,6.5-3.5
			c1.5,0.2,2.8,0.7,4.1,1.5c1,0.6,1.9,0.8,3,0.4c1.2-0.5,2.3-0.1,3.2,0.7c1,0.8,2.1,1.6,2.9,2.6c0.7,0.9,1.7,1.1,2.8,0.8
			c0.5-0.1,0.9-0.3,1.4-0.5c3.2-1.7,6.5-3.4,9.7-5.1c1.6-0.9,3.1-0.8,4.7-0.1c0.5,0.3,1,0.5,1.7,0.4c0.9-0.6,1.9-1.1,2.4-2.4
			c-1.5-2.7-2.9-5.5-4.6-8.2c-1.5,0.7-2.9,1.7-4.6,2c-0.5-0.1-1.1-0.2-1.7-0.4c-3-0.7-6.1-1.4-9.1-2.1c-1.3-0.3-2.4-0.2-3.5,0.7
			c-2.1,1.8-4.6,2.2-7.3,1.4c-0.7-0.2-1.5-0.5-2.2-0.8c-2.2-0.9-4.4-1.1-6.6,0.1c-0.2,0.1-0.5,0.2-0.7,0.3c-1.6,0.5-3.2,0.3-4.6-0.8
			c-1.1-0.8-2.2-1.6-3.2-2.6c-1.6-1.7-3.5-2.7-5.9-2.9c-1.1-0.1-2.2-0.6-3-1.4c-2.2-2.2-3.5-4.7-3.2-7.9c0.1-1,0.2-1.9,0.1-2.9
			c0-1.7-0.6-2.3-2.2-2.8c-0.7-0.2-1.5-0.4-2.2-0.7c-1.1-0.4-2.1-0.4-3.1,0c-1,0.4-1.9,0.8-2.9,1.2c-0.9,1.3-2,2.6-2.9,3.9
			c-3.4,5.2-7,10.2-10.2,15.5c-2.4,4.1-4.9,8.2-7.3,12.3c-1,1.6-2,3.2-3.4,4.5c-0.2,0.2-0.3,0.4-0.4,0.8c0.7,2,1.5,4.1,2.2,6.3
			c1.5,4.7,2.8,9.5,4.2,14.3c0.7,2.3,1.1,4.7,2,7c0.4,0.9,0.4,1.9,1,2.8C151.6,310.9,162.9,311.3,174.3,311.2L174.3,311.2z
			 M219.5,253.5c1-1.2,2.1-2.4,3.2-3.6c1-1,1.5-2.2,1.8-3.6c0.1-0.7,0.2-1.5,0.6-2.1c2.2-4,5.4-6.6,10.1-6.9
			c1.6-0.1,3.2-0.2,4.8-0.5c4.3-0.7,8.5-1.6,12.4-3.7c2.4-1.3,4.2-3.1,5-5.8c0.9-2.9,2.5-5.5,4.9-7.5c1-0.9,2-1.6,3.3-2.1
			c2-0.8,4.1-1.5,6.2-2.1c0.8-0.2,1.5-0.3,2.3-0.1c1.5,0.3,3,0.1,4.4-0.5c3.4-1.3,6.7-2.9,9.7-5.1c1.3-0.9,2.3-2,3.1-3.4
			c0.2-0.3,0.4-0.6,0-1c-3,0.6-6,0.7-9.1,0.9c-10.7,0.7-21.2,2.3-31.3,5.6c-1.6,0.5-3.2,0.7-4.9,0.2c-2-0.6-3.9-1.3-5.8-2.1
			c-1.7-0.7-2.9-1.9-3.5-3.7c-0.1-0.3-0.2-0.5-0.6-0.8c-0.9,0.2-1.8-0.2-2.7-0.6c-4.2-1.4-8.4-2.8-12.6-4.2
			c-3.6-1.2-7.2-2.3-10.7-3.9c-2.3-1-4.5-2-6.9-2.7c-3.2-0.9-6.2-2.2-9.4-3.1c-1.4-0.4-2.8-0.9-4.3-1.3c-0.1,0.6,0.2,1,0.4,1.4
			c1.6,3.3,3.4,6.4,5,9.7c1.2,2.5,2.6,5,3.7,7.6c1.3,2.8,2.4,5.7,3.8,8.5c2.1,4.4,4.2,8.8,6,13.3c0.1,0.2,0.2,0.4,0.2,0.5
			c1.9,4.2,3.8,8.4,5.8,12.6c1.5,3,2.9,6,4.4,9.1C218.9,253,219,253.3,219.5,253.5L219.5,253.5z M161.1,235.2c0.4,0.3,1,0.2,1.5,0.2
			c1.1,0.1,2.2,0.1,3.2,0.7c1.6,1,3.2,2.1,4.6,3.3c1.4,1.2,2.5,2.6,3.3,4.3c1.5,3.2,4,5.2,7.4,6.1c2.2,0.6,4.3,1.4,6.4,2.5
			c2.3,1.2,4.5,2.5,6.8,3.7c1.2,0.6,2.4,1,3.7,1.4c1.3,0.3,2.6,0.3,3.8-0.4c0.9-0.4,1.7-0.9,2.6-1.4c2.8-1.7,3.5-1.6,6,0.3
			c1.2,0.9,2.4,1.9,3.6,2.7c1.1,0.8,2.3,1.2,3.7,0.7c0.3-0.6,0.6-1.3,0.7-2c-0.2-0.4-0.4-0.8-0.6-1.1c-2.6-4.7-5-9.6-7.2-14.5
			c-1.4-3.1-2.8-6.2-4.1-9.3c-1-2.3-2-4.5-3.1-6.8c-1.6-3.4-3.3-6.7-4.6-10.2c-1.7-4.4-3.6-8.7-5.7-13c-1.9-3.9-3.8-7.8-5.5-11.8
			c-0.2-0.3-0.3-0.7-0.7-1.1c-1.1-0.1-2.4-0.7-3.7,0.1c-0.9,1.1-1.7,2.3-2.4,3.6c-1,2-1.9,4-3,6c-2.8,5-5.1,10.3-7.6,15.5
			c-1.3,2.8-2.4,5.6-3.6,8.5c-1.5,3.8-2.9,7.7-5.5,11.1C161.1,234.4,160.8,234.7,161.1,235.2L161.1,235.2z M151.9,180
			c-0.1,0.4-0.3,0.5-0.5,0.7c-1.1,1.1-2.6,1.5-3.9,2.2c-2.4,1.2-4.8,2.3-7.4,3.1c-0.8,0.3-1.7,0.5-2.5,0.8c-7.6,3-15.3,5.8-23,8.5
			c-5,1.8-9.9,3.8-14.8,5.7c-0.4,0.2-0.9,0.3-1.2,0.7c0.3,1.5,1.9,5.1,2.7,5.9c0.5,0,1-0.2,1.5-0.4c2.1-0.8,4.3-1.7,6.4-2.5
			c1.5-0.6,2.9-1.2,4.4-1.7c5.4-1.7,10.8-3.7,16.1-5.7c2.8-1,5.5-2.3,8.2-3.4c1.2-0.5,2.4-1,3.6-1.6c3.7-1.8,7.4-3.8,11.2-5.3
			c4-1.6,7.7-3.8,12.1-4.8c3.8,0.7,7.9,1.4,11.8,2.4c0.5,0.6,0.8,1.3,0.9,2c-1,1.3-1.8,2.7-2.6,4.1c-4.1,6.7-7.5,13.7-11.2,20.5
			c-1,1.8-2.1,3.6-3.2,5.4c-2.7,4.9-5.6,9.7-8.8,14.3c-1.1,1.5-2,3.1-2.8,4.7c-0.8,1.4-1.4,2.9-2.2,4.3c-1.6,2.6-3,5.2-4.4,7.9
			c-0.3,0.5-0.6,1-0.9,1.5c-3.5,4.7-6.8,9.5-10.6,13.9c-1.2,1.4-2.2,2.9-3,4.5c-0.4,0.9-0.5,1.7-0.3,2.7c0.6,2.3,1.4,4.5,2.3,6.6
			c0.1,0.2,0.1,0.6,0.6,0.7c0.7-0.4,1.1-1.1,1.6-1.8c3.7-5.4,7.2-10.9,10.6-16.4c2.8-4.6,5.7-9.2,8.8-13.6c1.1-1.5,2.1-2.9,3.1-4.4
			c1.5-2.2,2.9-4.5,4.4-6.7c1.7-2.6,3.4-5.1,4.6-7.9c1-2.5,2.4-4.9,3.4-7.4c2.3-5.8,5-11.5,8-17c1.3-2.4,2.7-4.7,3.9-7.2
			c0.8-1.8,1.6-3.6,2.5-5.4c0.6-1.2,1.2-2.3,2.5-2.8c0.4-0.1,0.8,0,1.1,0.1c0.3,0.1,0.7,0.2,0.9-0.1c-0.3-1.5-3.1-7.5-4-8.5
			c-0.6,0.2-1.2,0.5-1.8,0.7c-0.8-0.2-1.4-0.3-2.1-0.5c-7.6-1.7-15.1-3.7-22.7-5.6c-11-2.7-21.9-5.4-33-7.6
			c-0.8-0.2-1.5-0.3-2.3-0.5c-2.8-0.8-5.5-1.6-8.3-2.3c-9.3-2.4-18.7-4.4-28-6.6c-0.2-0.1-0.5-0.1-0.7-0.1c-1.4-0.1-2.8-0.5-4.1-1
			c-0.3-0.1-0.6-0.4-1,0c1.1,2.7,2.5,5.2,3.8,7.9c1.7,0.2,3.3,0.6,4.9,1.3c0.7,0.3,1.5,0.5,2.2,0.6c2.1,0.4,4.3,0.8,6.4,1.4
			c3.7,1.1,7.4,2.1,11.1,3c11,2.7,22,5.4,33,8c2.1,0.5,4.2,0.9,6.3,1.2c1.7,0.2,3.4,0.5,5,0.8C151.2,179.5,151.8,179.5,151.9,180
			L151.9,180z M107.4,245.5c-0.5,1.3-1.1,2.7-1.5,4c-0.5,1.4-0.5,2.8,0.2,4.1c0.8,1.7,1.1,3.4,0.5,5.2c-0.5,1.5-0.2,2.9,0.6,4.2
			c0.5,0.7,0.8,1.5,1.2,2.3c0.4,0.8,0.4,1.7,0.2,2.6c-0.4,2.1-1.6,3.7-2.7,5.5c-0.2,0.3-0.5,0.5-0.7,0.7c-2.5,2-5.3,3.4-8.6,3.7
			c-2.3,0.2-4.2-0.4-5.5-2.5c-0.2-0.3-0.3-0.7-0.7-0.9c-0.5-0.2-0.9,0-1.3,0.1c-1.5,0.3-3,0.2-4.4-0.4c-0.9-0.4-1.8-0.5-2.7-0.5
			c-1-0.1-1.7,0.3-2.2,1.1c-0.2,0.3-0.4,0.7-0.7,1c-0.6,0.5-0.7,1.1-0.7,1.8c0,0.6-0.1,1.1-0.4,1.5c-0.6,1.2-1.3,2.4-1.9,3.6
			c-0.4,0.8-1,1.5-1.7,2.1c-3.3,2.9-7,4.8-11.4,4.9c-0.7,0-1.4,0.1-2,0.5c-1.6,1.1-3.2,2.2-4.4,3.8c-0.8,1.1-1.1,2.3-0.6,3.6
			c0.2,0.5,0.4,1,0.5,1.5c1.7,4.7,3.4,9.4,4.9,14.2c0.2,0.8,0.5,1.6,0.9,2.3c0.4,0,0.6-0.2,0.8-0.5c1.7-1.9,3.7-3.4,5.6-5.1
			c14-12.3,28.8-23.6,44.5-33.6c3.7-2.4,7.5-4.7,10.9-7.5c0.1-0.1,0.2-0.3,0.4-0.5c-1.1-3.1-2.2-6.2-3.1-9.4
			c-0.9-3.1-2.5-6.1-3.5-9.4c0.7,0.3,0.9,0.7,1.1,1.1c1,1.7,1.8,3.5,2.5,5.4c1.3,3.3,2.6,6.5,3.9,9.8c0.1,0.3,0.2,0.7,0.7,0.8
			c0.6-0.2,1.1-0.8,1.6-1.3c4.8-5.2,9.1-10.8,12.7-16.9c0.4-0.7,0.9-1.5,1.1-2.3c-1.1-2.5-1.9-3.5-4.2-4.4c-0.4-0.2-0.7-0.5-1.1-0.7
			c-0.7-0.5-1.5-1.2-2.4-1.4c-1.6-0.4-2.9-1.3-4.1-2.4c-1.1-1.1-2.3-2.2-3.5-3.4c-2.3-0.3-4.6,0.2-6.7,1c-1,0.4-1.5,1.2-1.6,2.2
			c-0.2,1.2-0.4,2.3-0.5,3.5c-0.1,0.7-0.3,1.3-0.5,2c-0.5,1.2-1.3,2-2.7,2.2c-1.1,0.1-2.1,0.1-3.2,0
			C109.9,244.5,108.6,244.7,107.4,245.5L107.4,245.5z M156.9,124.4c-0.6-0.4-1.2-0.4-1.7-0.4c-1.9,0.1-3.8-0.1-5.7-0.2
			c-4.7-0.4-9.3-0.8-14-1.1c-1.6-0.1-3.3-0.2-4.9-0.5c-6.8-0.9-13.4-2.4-20-3.9c-4.7-1-9.4-2.3-14.1-3c-5.4-0.8-10.7-1.8-16.1-2.8
			c-3.3-0.6-6.7-1.3-10.1-1.6c-2.2-0.2-4.3-0.5-6.5-0.4c-1,1.1-2.1,2-2.9,3.3c-2.3,3.5-4.6,7-6.9,10.5c-1.9,2.9-3.7,5.8-5.5,8.8
			c-0.4,0.6-0.9,1-1.6,1.2c-0.2-0.1-0.3-0.2-0.5-0.3c-4.4-2.6-8.9-5.2-13-8.4c-0.5-0.4-1-0.8-1.5-1.1c-0.4-0.3-0.9-0.6-1.5-0.5
			c-0.9,1-2.7,4-3.1,5.2c5.2,4.7,10.7,8.8,16.5,12.6c0.2,0.8,0.2,1.6-0.2,2.2c-0.3,0.5-0.6,1-0.8,1.6c-2,4.7-4.4,9.3-6.6,14
			c-3.5,7.2-7.1,14.3-10.6,21.4c-0.9,1.8-1.7,3.6-2.8,5.3c-0.5,0.8-0.9,1.7-1.1,2.7c-0.1,0.5-0.1,1,0.1,1.6c0.9,3,1.8,6,2.8,9.1
			c0.1,0.3,0.1,0.6,0.5,0.7c0.7-0.7,0.8-0.8,1.1-2.1c0.5-1.7,1.1-3.3,1.8-4.9c3-6.5,6-13.1,9.6-19.3c2.5-4.4,4.8-8.8,6.9-13.3
			c1.8-3.7,3.8-7.2,5.2-11.1c0.4-1.1,0.9-2.1,1.8-2.8c0.5,0,0.7,0.2,0.9,0.4c2.3,1.6,4.6,3.2,7.2,4.5c4.4,2.2,8.6,4.7,12.9,7.1
			c1.9,1,3.7,2.1,5.4,3.4c0.2,0.1,0.4,0.3,0.6,0.4c0.3,0.2,0.5,0.2,0.8-0.2c0-0.4-0.2-0.8-0.4-1.2c-0.8-1.9-1.7-3.8-2.5-5.8
			c-0.4-1.1-1.2-1.9-2.2-2.4c-0.9-0.5-1.7-1.1-2.5-1.7c-1.8-1.3-3.6-2.7-5.4-4c-0.6-0.4-1.2-0.8-1.8-1.2c-3.4-1.9-6.7-3.9-9.9-6.2
			c-0.5-0.3-1-0.6-1.2-1.2c-0.1-0.6,0.2-1,0.5-1.5c1-1.9,2.1-3.7,3-5.7c2-4.3,4.6-8.2,7.1-12.2c0.5-0.8,1.1-1.4,1.7-2.1
			c2.7,0,5.2-0.1,7.8,0.2c5,0.6,9.9,1.7,14.7,2.9c3.6,0.9,7.1,1.9,10.8,2.5c5.3,0.9,10.5,2.2,15.6,3.6c3.3,0.9,6.6,1.6,10,2.1
			c3.9,0.6,7.8,1.2,11.6,2.2c2.5,0.6,5.1,1,7.8,1.2c0.9,0.1,1.8,0.2,2.8,0.3c2,0.3,4,0.4,6,0.1c2.1-0.3,4.2-0.6,6.3-1
			c0.4-0.1,0.9-0.1,1.1-0.8C159.2,128.3,157.8,126.4,156.9,124.4L156.9,124.4z M132.8,316.4c1.5-1.3,3-2.6,4.4-4
			c1-1,1.5-2.3,0.9-3.7c-0.2-0.4-0.3-0.8-0.4-1.2c-1.6-4.6-3.3-9.2-4.9-13.9c-1.3-3.7-2.4-7.5-3.6-11.3c-0.2-0.6-0.1-1.3-0.6-1.8
			c-0.5-0.2-1,0.1-1.4,0.3c-2.6,1.1-5,2.4-7.5,3.6c-3.7,2-7.3,4.1-10.8,6.4c-6.8,4.3-13.3,8.9-19.7,13.8c-8.1,6.2-15.6,13-23,19.9
			c-0.3,0.3-0.6,0.5-0.7,0.9c0.8,3.1,2.1,6.6,2.9,7.6c1-0.5,2.1-0.9,3.1-1.5c0.7-0.5,1.4-0.9,2.1-1.3c2.2-1.1,4.6-1.1,7-0.6
			c1,0.2,1.9,0.4,2.9,0.5c1.1,0.1,2-0.3,2.5-1.2c0.9-1.4,1.8-2.9,2.4-4.5c0.9-2.7,2.7-4.8,5.5-5.8c1.8-0.7,3.7-0.8,5.6-1.1
			c1.5-0.3,2.7,0.1,3.8,1.3c1,1.1,2.3,1.6,3.8,1.5c2.5-0.1,4.7-0.8,6.4-2.6c1.4-1.5,3.3-2,5.3-1.8c0.6,0.1,1.2,0.2,1.7,0.3
			c1.7,0.4,3.4,0.7,5.1,1.1c0.6,0.1,1.2,0.2,1.9,0C129.3,316.8,131,316.4,132.8,316.4L132.8,316.4z M283.1,106.7
			c0.6,0.1,1.2,0,1.7-0.1c4.8-1.1,9.6-2.1,14.4-3.2c4.7-1.1,9.3-2.4,14-3.6c2-0.5,3.9-1,6-1.2c1.8-0.2,3.7-0.5,5.5-0.7
			c0.8-0.1,1.5-0.3,1.8-1.2c-0.1-0.3-0.2-0.6-0.4-0.8c-1.3-2.3-2.6-4.6-3.9-6.8c-2.2-4-4.4-8-6.7-11.9c-2.6-4.4-4.9-9-7.4-13.4
			c-2.5-4.3-4.5-8.8-7.1-13.1c-1.5-2.4-2.8-4.9-4.2-7.3c-0.3-0.5-0.5-0.9-1.2-0.9c-0.5,0.3-0.4,0.8-0.5,1.2
			c-0.9,3.8-1.7,7.6-2.7,11.4c-0.1,0.4-0.2,0.8-0.2,1.1c-0.1,1.4-0.2,2.7-0.5,4.1c-0.5,2.7-1,5.3-1.5,8c-0.8,4.4-1.6,8.7-3,12.9
			c-0.6,1.8-1,3.7-1.4,5.5c-0.1,0.6-0.2,1.1-0.2,1.7c0.2,2.1-0.1,4.1-0.6,6.1c-0.6,2.2-0.9,4.4-1.3,6.6c-0.2,1.2-0.4,2.5-0.7,3.7
			C282.9,105.4,283,106,283.1,106.7L283.1,106.7z M202.9,311.3c0.3-0.6,0.2-1.1,0.2-1.6c0-1.7,0-3.3,0.4-4.9
			c0.4-1.7,0.6-3.5,0.7-5.2c0-1.1,0.3-2.1,1-3c2.2-1.2,4.5-0.4,6.8-0.2c0.3,2.5-0.2,4.9-0.2,7.4c0,2.5,0,4.9-0.1,7.4
			c1.4,0.3,2,0.3,3.1-0.1c0.1-1.9,0.2-3.9,0.2-5.8c0.2-4.4,0.4-8.8,0.1-13.3c-0.3-3.2,0.2-6.4,0.3-9.6c0-0.1,0.1-0.2,0.1-0.3
			c1.4-1.6,4-2.1,6-1.4c1.2,0.5,2.2,1.3,3.1,2.2c0.4,0.4,0.6,0.8,0.6,1.3c0.1,1.2,0.2,2.4,0.2,3.6c0,2.4-0.2,4.7-0.4,7.1
			c-0.4,4.5-0.9,8.9-0.7,13.4c0,0.9,0,1.8,0,2.7c0.5,0.2,0.9,0.1,1.4,0.1c2.4-0.1,4.9-0.2,7.3-0.4c2.3-0.2,4.6-0.2,6.8-0.7
			c1.4-0.3,2.9-0.6,4.2-1.2c0.1-0.7-0.2-1.2-0.4-1.6c-0.6-1.4-1.2-2.8-1.9-4.1c-2-3.8-3.9-7.7-6-11.5c-1.8-3.2-3.4-6.6-4.8-10
			c-1.1-2.7-2.5-5.4-3.8-8c-0.2-0.4-0.4-0.8-0.9-1c-0.4,0.3-0.8,0.6-1.2,0.9c-1.4,0.9-2.8,1.1-4.3,0.3c-0.2-0.1-0.3-0.2-0.5-0.3
			c-1-0.5-2-0.4-2.9,0.1c-0.3,0.1-0.5,0.3-0.7,0.5c-3.2,1.7-6.5,3.4-9.7,5.1c-0.4,0.2-0.8,0.3-1.2,0.5c-1.2,0.4-2.2,0.1-3-0.8
			c-0.4-0.4-0.7-0.9-1.1-1.4c-1.3-1.5-2.7-2.5-4.8-2c-0.1,0-0.2,0-0.3,0c-0.7,0.1-1.4,0-2.1-0.3c-1.2-0.5-2.3-0.9-3.5-1.4
			c-0.9-0.3-1.8-0.5-2.7-0.4c-2.5,0.2-4.8,3-4.4,5.4c0.3,1.5,0.6,3,1.1,4.4c0.5,1.4,0.6,2.7,0.3,4.2c-0.1,0.4-0.2,0.9-0.2,1.3
			c-0.3,3.1-1.6,5.5-4.7,6.6c-1.3,0.5-2.5,1.3-3.5,2.3c-0.8,0.8-1.3,1.8-1.4,3c-0.1,1.1-0.2,2.2-0.3,3.3c-0.2,1.7,0.1,3.4,0.8,5
			c0.6,1.5,1.6,2.3,3.3,2.3c2.4,0,4.8,0,7.1,0.1c0.3,0,0.7,0.1,1-0.2c0.3-0.3,0.3-0.7,0.4-1c0.8-2.8,1.1-5.7,1.3-8.6
			c0.1-1.1,0.6-1.9,1.6-2.3c1.7-0.8,3.4-1.1,5.2-1.3c1-0.1,1.9,0,2.8,0.6c0,4.2-0.2,8.4-0.1,12.6C200,311.4,201.4,311.6,202.9,311.3
			L202.9,311.3z M97.9,200.1c0.6-0.3,1.2-0.6,1.8-0.6c1.6-0.1,3.1-0.5,4.5-1.1c3.1-1.2,6.3-2.3,9.5-3.4c4.6-1.7,9.2-3.3,13.7-5
			c6.9-2.6,13.8-5.4,20.6-8.1c0.5-0.2,0.9-0.4,1.3-0.6c0.3-0.1,0.5-0.3,0.5-0.7c-0.6-0.5-1.4-0.6-2.1-0.7c-3.3-0.4-6.6-1.2-9.8-2.1
			c-1.9-0.5-3.8-1.1-5.8-1.5c-3.8-0.8-7.5-1.6-11.2-2.6c-5.1-1.3-10.1-2.8-15.3-3.8c-1.1-0.2-2.3-0.6-3.4-0.9
			c-3.4-0.9-6.8-1.8-10.2-2.4c-2.8-0.5-5.6-1-8.4-2c-0.4-0.1-0.7-0.3-1.1-0.1c-0.2,0.3,0,0.6,0.1,0.8c0.4,1.3,0.9,2.6,1.4,3.8
			c2,5.6,4.4,11,7,16.4c2.1,4.3,4,8.7,6,13C97.1,199.1,97.2,199.7,97.9,200.1L97.9,200.1z M81.3,366.8c0.3-0.1,0.5-0.3,0.6-0.5
			c0.4-0.6,0.9-1.1,1.3-1.7c2.2-3.6,4.9-6.7,8-9.6c2.8-2.6,5.6-5.1,8.4-7.7c4.7-4.3,9.3-8.8,13.7-13.5c0.8-0.8,1.6-1.6,2.4-2.4
			c2.7-2.4,5.4-4.7,8.3-6.9c0.7-0.5,1.3-1,1.4-1.9c-0.2-0.4-0.5-0.6-0.9-0.7c-3.1-0.9-6.2-1.3-9.4-1c-1.9,0.2-3.7,0.8-5.3,1.8
			c-0.6,0.4-1.2,0.7-1.7,1.1c-1.9,1.3-3.8,1.4-5.7-0.1c-1.6-1.2-3.5-1.3-5.4-0.4c-0.7,0.3-1.3,0.7-2,1c-1.1,0.6-1.9,1.5-2.5,2.6
			c-0.5,1-1.1,2-1.6,3c-1.4,2.6-3.6,4.2-6.3,5.1c-2.5,0.8-5.1,1.1-7.8,1c-0.9,0-1.7,0-2.6,0.2c-1.8,0.6-2.9,1.8-3.9,3.4
			c0.1,0.3,0.1,0.5,0.2,0.7c0.7,2.4,1.5,4.7,2.2,7.1c0.6,1.8,1.3,3.6,2.2,5.2c1.2,2.1,2.1,4.4,2.8,6.7c0.6,2,1.4,3.9,2.2,5.9
			C80.3,365.9,80.7,366.4,81.3,366.8L81.3,366.8z M137.2,78.4c-0.2,0-0.6-0.1-0.9-0.1c-1.6,0.1-3.1,0.2-4.6,0.6
			c-4,1.1-8.1,1.3-12.3,1.5c-6.4,0.2-12.7,0.4-19.1,0.6c-0.4,0-0.8,0.1-1.2,0.1c-0.3,0.2-0.6,0.4-0.8,0.6c-1.5,1.2-1.9,2.3-1.3,4.1
			c0.3,1,0.8,2,1.4,2.9c1.8,2.8,4.4,4.8,7.4,6.1c1.7,0.7,3.4,1.4,5,2.3c3.1,1.9,6.5,3.1,10,3.9c1.7,0.4,3.4,0.8,5,1.7
			c3.1,1.7,6.4,2.6,9.7,3.4c1.4,0.3,2.9,0.4,4.3,0.1c1.7-0.4,3.3-1.2,4.8-2c0.6-0.3,1.2-0.7,1.2-1.6c-0.3-0.7-0.7-1.5-1.1-2.3
			c-1.6-3.4-2.5-7.1-3.5-10.6c-0.9-3.2-1.9-6.4-3.1-9.6C138.1,79.4,137.9,78.8,137.2,78.4L137.2,78.4z M147.6,101.7
			c0.7-0.1,1.2-0.7,1.6-1.2c1.6-1.7,3.4-3.2,5.5-4.3c1.6-0.9,3.1-1.9,4.6-2.8c1.5-1,2.5-2.3,2.6-4.1c0-0.5,0.2-1,0.2-1.4
			c0.3-5,1.6-9.7,3-14.4c0.9-2.9,2.4-5.4,4.4-7.7c1.3-1.5,2.6-3,3.9-4.5c0.8-1,1.2-2.1,1.1-3.4c-0.2-2-0.8-3.8-2.1-5.4
			c-1.6-2-2.3-1.6-3.8-0.4c-3.8,3.1-7.6,6.2-11.4,9.3c-5.4,4.4-11,8.7-16.2,13.4c-0.8,0.7-1.7,1.4-2.4,2.4c1,2.2,1.7,4.4,2.4,6.7
			c1.3,4,2.9,7.8,4,11.9c0.4,1.5,1,3.1,1.6,4.5C146.9,100.9,147.1,101.4,147.6,101.7z M143.6,319.3c5.7-0.2,11.4,0.4,17.2,0.8
			c3.7,0.3,7.5,0.3,11.2,0.9c8.1,0.1,16.1,0.4,24.2,0.1c7.4-0.3,14.7-0.8,22.1-1.4c8.3-0.7,16.7-1.5,24.9-2.5c0.5-0.1,1-0.1,1.4-0.3
			c1.6-0.7,2.3-2,1.7-3.6c-0.4-1-0.9-1.9-1.5-2.8c-0.2,0-0.4,0-0.6,0c-4.3,0.8-8.6,1.2-12.9,1.4c-6.5,0.3-13,0.7-19.5,0.5
			c-1.1,0-2.2-0.1-3.2,0c-2.7,0.4-5.3,0.2-8,0.1c-1.8-0.1-3.6-0.1-5.4-0.1c-12.8-0.1-25.7-0.1-38.5-0.1c-4.5,0-9,0-13.6-0.2
			c-0.7,0-1.5-0.1-2.3,0.2c0,0.7,0.2,1.3,0.4,1.9c0.3,1,0.7,1.9,0.9,2.9C142.4,317.8,142.8,318.6,143.6,319.3L143.6,319.3z
			 M245.7,307.7c0.7-0.4,1.2-0.9,1.8-1.4c2.7-2.5,5-5.3,7.1-8.2c1.9-2.7,3.9-5.4,5.7-8.1c2.1-3.1,4.3-6,6.9-8.7
			c0.5-0.5,1-0.9,0.9-1.7c-0.1-0.5-0.4-0.9-0.7-1.2c-1.4-1.7-3.1-3.1-4.6-4.6c-1.5-1.4-3.4-1.8-5.4-1.4c-1,0.2-2,0.4-2.9,0.8
			c-2.4,1-5,1-7.6,0.9c-1.7-0.1-3.1-0.9-4.4-2.1c-1.2-1.1-2.4-2-3.8-2.7c-0.5-0.2-0.9-0.5-1.4-0.8c-2.9-2-6.6-1.3-8.7,1.5
			c-0.3,0.4-0.5,0.8-0.5,1.3c0.1,0.5,0.4,0.9,0.6,1.3c1.5,2.5,2.8,5,3.9,7.7c1.1,2.7,2.4,5.3,3.4,8c0.2,0.5,0.5,1.1,0.7,1.6
			c2.7,5.5,5.6,10.9,8.1,16.5C245,306.9,245.1,307.4,245.7,307.7L245.7,307.7z M137.7,75.2c1.3-0.2,2.1-0.9,2.8-1.5
			c6.3-5.2,12.5-10.5,18.8-15.7c5.6-4.7,11.4-9.3,16.8-14.2c0.4-0.4,0.9-0.7,1.4-1.1c4-3,8-6.1,11.9-9.1c5.7-4.5,11.4-9.1,17.2-13.5
			c1.1-0.8,2.1-1.6,3-2.6c0.4-0.4,0.8-0.8,0.9-1.7c-1.2-2.2-2.5-4.6-3.8-7.1c-0.8,0.3-1.2,1-1.8,1.4c-1.5,0.9-2.9,2-4.2,3.1
			c-8.2,6.8-16.7,13.4-24.9,20.2c-4.2,3.4-8.2,7-12.1,10.7c-5.3,5-10.7,10.1-16.3,14.8c-3.6,3-7.5,5.7-10.8,9.1
			c-0.3,0.3-0.8,0.6-1.1,1.2C135.8,71.1,136.7,73.1,137.7,75.2L137.7,75.2z M21,187.5c0.6-0.1,0.7-0.6,0.9-1.1
			c1.1-2.3,2-4.7,3.4-6.9c0.5-0.9,1-1.8,1.5-2.7c2.5-5.2,5.1-10.4,7.7-15.6c2.3-4.6,4.5-9.3,6.7-13.9c0.7-1.5,1.2-3.2,1.7-4.8
			c-1.4-1.2-2.8-2.3-4.4-3.2c-3.8-2.3-7.5-4.8-10.8-7.9c-0.4-0.4-0.7-0.7-1.4-0.9c-0.7,1.3-1.5,2.6-2.1,3.8
			c-0.7,1.4-1.4,2.9-2.2,4.3c-0.6,1-1.4,1.9-2,2.9c-1.4,2.2-2.6,4.5-3.8,6.9c-0.3,0.6-0.6,1.3-1.1,1.9c-0.7,0.9-1.2,1.9-1.7,2.9
			c-0.8,1.6-1.2,3.3-0.6,5.1c0.6,1.9,0.9,3.8,1.4,5.7c1,4,2,7.9,3,11.9c0.9,3.7,2.1,7.3,3.3,10.9C20.5,186.9,20.5,187.3,21,187.5
			L21,187.5z M258.8,184.6c0-0.2-0.1-0.4-0.1-0.5c0.1-2,0.3-4.1,1.1-6c0.4-1,0.6-1.9,0.8-3c0.2-1.3,0.6-2.6,1-3.8
			c0.6-1.9,1.2-3.9,1.7-5.9c0.4-1.5,0.8-2.9,1.3-4.3c0.7-1.9,1.2-3.8,1.8-5.7c0.3-0.9,0.3-1.8,0.1-2.7c-0.5-2-1.3-4-2-5.9
			c-0.1-0.3-0.2-0.6-0.5-0.6c-0.3,0.2-0.3,0.5-0.3,0.8c-0.2,1.5-0.5,3-0.7,4.5c-0.7,4-1.8,8-2.8,11.9c-2.1,8.3-4.5,16.5-6,25
			c-0.2,1.2-0.3,2.3-0.3,3.5c0.5,0.3,0.9,0.6,1.4,0.9c0.8,0.5,1.6,0.9,2.4,1.4c2.3,1.4,3.8,3.3,4.3,6c0,0.1,0.1,0.2,0.1,0.3
			c0.6,0.5,1.3,0.3,1.9,0.2c5.3-0.8,10.6-1.4,15.8-2.6c1.9-0.4,3.8-0.9,5.6-1.8c0.7-0.3,1.3-0.7,1.5-1.6c-0.7-1.8-1.6-3.6-2.5-5.5
			c-0.9-1.9-1.7-3.8-2.9-5.6c-0.8,0.5-1,1.2-1.3,1.8c-0.9,1.4-1.8,1.9-3.4,1.5c-1.3-0.3-2.6-0.5-3.9-0.7c-0.9-0.1-1.8-0.1-2.6-0.7
			c0.1-1,0.4-1.8,0.7-2.7c1.3-3,2.6-6.1,3.9-9.1c0.3-0.7,0.6-1.3,0.5-2.1c-0.5-1-0.9-2-1.5-3c-0.5-1-0.6-2.2-1.5-3
			c-0.6,0.1-0.7,0.4-0.8,0.7c-0.7,1.5-1.6,2.9-2,4.5c-1.2,4.3-3.2,8.4-4.7,12.6c-0.2,0.5-0.4,1.1-1.1,1.5
			C262.1,184.7,260.5,184.7,258.8,184.6L258.8,184.6z M248.5,313.1c0.7-0.2,1.1-0.8,1.5-1.3c1.6-1.7,3.3-3.3,5-4.9
			c2.8-2.6,5.4-5.3,7.8-8.2c5.9-7,11.7-14.1,18.2-20.5c5.1-5,9.9-10.3,14.7-15.6c0.7-0.8,1.4-1.5,2.2-2.1c2.6-2.1,4.9-4.4,7.2-6.8
			c1.6-1.6,3-3.4,4.8-4.9c0.9-0.8,1.7-1.6,2.6-2.1c0.1-0.4,0-0.6-0.2-0.8c-0.7-1.2-1.5-2.3-2-3.5c-0.2-0.5-0.6-0.9-1.2-1.1
			c-0.6,0.1-1.2,0.3-1.7,0.8c-0.8,0.7-1.5,1.3-2.3,2c-3.5,3.1-7.1,6.3-10,9.9c-3,3.7-6.2,7.3-9.7,10.7c-4.6,4.4-9.1,8.9-13.4,13.6
			c-2.4,2.5-5,4.9-7.3,7.6c-3.2,3.9-5.6,8.3-8.7,12.3c-0.3,0.3-0.4,0.8-0.6,1.2c-0.2,0.4-0.4,0.7-0.6,1c-2.4,2.8-4.9,5.6-7.3,8.4
			c-0.4,0.4-0.9,0.8-1,1.4C247.3,311.7,247.8,312.4,248.5,313.1L248.5,313.1z M65.2,324.3c0.4-0.4,0.7-0.6,0.9-0.8
			c3.6-3.8,7.5-7.4,11.4-10.8c9.6-8.3,19.7-15.9,30.5-22.7c6.3-4,12.8-7.8,19.8-10.5c0.2-0.1,0.3-0.2,0.6-0.4c0-1.1-0.6-2-0.9-3
			c-0.4-1-0.7-2-1.2-3c-0.4-0.9-0.6-2-1.3-2.8c-22.4,13.4-43.1,28.9-62.4,46.6C63.5,319.2,64,321.7,65.2,324.3L65.2,324.3z
			 M144.8,240.8c-1.4-0.3-2.6-0.5-3.8-0.8c-2.7-0.7-4.8-2.1-6.3-4.4c-0.8-1.2-1.4-2.4-2-3.7c-0.7-1.7-2-2.6-3.8-2.7
			c-1-0.1-1.9,0-2.9,0.1c-2.9,0.5-5.9,1-8.8,1.5c-1.9,0.4-3.3,1.4-3.9,3.2c0.3,2.2,1.7,4.1,1.7,6.5c-0.8-0.1-0.9-1.1-1.8-1
			c-0.3,0.2-0.7,0.4-1.1,0.7c-1.3,0.8-2.6,0.9-4,0.3c-0.4-0.1-0.7-0.3-1-0.5c-1.8-1.2-3.1-0.5-4.1,0.9c-1,1.3-1.3,2.8-1.4,4.4
			c-0.1,3.1-0.5,6.2-0.5,9.3c0,1.8-0.3,3.5-0.7,5.2c-0.8,3-2.5,5.3-5,6.9c-1.5,1-3.2,1.6-5,2c-2,0.5-3.9,0.2-5.6-1
			c-0.5-0.4-1.1-0.6-1.7-0.9c-1-0.4-2.1-0.4-2.9,0.2c-2.8,1.9-4.8,4.2-4.7,7.9c0.1,1.4-0.4,2.5-1.3,3.4c-1.4,1.4-2.7,2.8-4,4.2
			c-1.5,1.6-3.3,2.6-5.3,3.1c-1.1,0.3-2.2,0.5-3.3,0.7c-3.1,0.5-5.1,2.4-6.3,5.2c-0.1,0.3-0.3,0.6-0.1,1c0.3,0.3,0.6,0.3,0.9,0.1
			c0.7-0.5,1.4-0.9,2-1.4c1.8-1.6,3.8-2.5,6.2-2.7c2.4-0.2,4.5-1.1,6.6-2.2c2.3-1.1,4.1-2.8,5.1-5.2c0.2-0.5,0.5-1,0.7-1.4
			c0.9-1.8,1.8-3.6,2.5-5.4c0.4-1,1.1-1.6,2.1-1.8c1.3-0.2,2.5-0.2,3.7,0.3c1.6,0.8,3.1,0.9,4.8,0.4c0.6-0.1,1.1-0.4,1.8,0
			c0.1,0.2,0.3,0.5,0.4,0.8c1,2.1,2.4,2.9,4.8,2.7c0.2,0,0.5-0.1,0.7-0.1c2.1-0.4,4.1-1.3,5.9-2.5c2-1.3,3.4-3.2,4.2-5.4
			c0.4-1.1,0.5-2.3,0-3.4c-0.4-1-0.8-2-1.4-2.9c-0.7-1.1-0.9-2.3-0.3-3.6c0.6-1.2,0.5-2.5,0.1-3.7c-0.2-0.7-0.5-1.4-0.7-2.1
			c-0.5-1.6-0.8-3.3,0.2-4.8c0.6-0.8,0.9-1.7,1.2-2.6c0.2-0.6,0.4-1,0.9-1.5c0.7-0.7,1.6-0.8,2.6-0.8c0.8,0,1.6,0.2,2.3,0.2
			c2.3,0,3.5-1,4.1-3.2c0.1-0.4,0.2-0.9,0.3-1.3c0.2-1,0.4-2,0.5-3c0.1-0.7,0.4-1.3,1-1.7c0.7-0.5,1.4-1,2.3-1.2
			c1.7-0.4,3.3-0.6,5.1-0.6c0.7,0,1.5-0.1,2.1,0.2c0.7,0.9,1.3,1.8,1.9,2.6c0.8,1,1.7,1.9,3,2.3c2.2,0.8,4.2,2.1,6.2,3.3
			c1,0.6,1.8,1.3,2.5,2.2c0.3,0.5,0.6,1,1.3,1.2C143.3,243.5,144,242.2,144.8,240.8L144.8,240.8z M46.8,267.7
			c1.2-0.2,2.1-0.9,2.9-1.7c1.3-1.4,2.7-2.7,3.9-4.2c3-3.8,6.6-7,9.8-10.6c0.2-0.2,0.4-0.4,0.6-0.6c3.5-3.4,7.1-6.8,10.4-10.5
			c3.6-4,7.4-7.8,11.6-11.3c2.4-2,4.5-4.4,6.3-7.1c2-3.1,4.2-5.9,6.4-8.9c0.4-0.5,0.8-1.1,1.2-1.7c0.6-0.7,0.6-1.5,0.2-2.3
			c-0.7-1.5-1.4-3.1-2.1-4.7c-0.1-0.3-0.2-0.6-0.6-0.6c-0.3,0.1-0.5,0.4-0.6,0.6c-1.2,1.3-2.2,2.7-3.4,4c-2.8,3.3-5.4,6.7-8.2,10
			c-1.8,2.1-3.6,4.4-4.8,7c-0.1,0.2-0.2,0.4-0.4,0.6c-2.7,3.4-4.9,7.1-7.8,10.4c-1.6,1.9-3.3,3.6-5.4,4.8c-3.3,1.9-6.5,4-9.3,6.8
			c-0.4,0.4-0.9,0.7-1.4,1c-4.2,2.9-7.7,6.5-11.2,10.2c-0.7,0.7-0.9,1.6-0.7,2.5c0.5,1.6,0.9,3.2,1.6,4.7
			C46.2,266.8,46.4,267.2,46.8,267.7L46.8,267.7z M133.3,70.6c-0.6,0.1-1.1,0.1-1.7,0.2c-6.3,0.8-12.6,1.8-19,2.2
			c-13.3,0.9-26.7,1.9-40,3.1c-0.6,0-1.2,0.1-1.7,0c-2.7,0-5.4,0.1-8.1,0.4c-1.5,0.2-3.1,0.3-4.6,0.3c-2,0-4,0.3-5.9,0.8
			c-0.8,0.2-1.3,0.6-1.7,1.3c0.6,1.3,1.2,2.5,1.7,3.8c1.9,0.3,3.8,0.2,5.5-0.4c2.7-0.9,5.5-1.3,8.3-1.5c2.8-0.1,5.5-0.1,8.3-0.2
			c5.8-0.1,11.7-0.2,17.5-0.9c4.7-0.6,9.4-1,14.1-0.5c0.3,0,0.7,0,1,0c4.6-0.1,9.1-0.2,13.7-0.4c0.4,0,0.9-0.1,1.3-0.2
			c1.5-0.4,3-0.5,4.5-0.6c2.5-0.3,4.9-0.5,7.4-0.8c1-0.1,1.9-0.3,2.6-1.1C136.5,74.9,134.8,71.7,133.3,70.6L133.3,70.6z M219.2,259
			c-0.4,0-0.5,0.1-0.6,0.3c-0.9,1.4-2.3,1.3-3.6,0.9c-1-0.3-1.8-0.9-2.6-1.6c-1.1-0.9-2.2-1.7-3.4-2.5c-1.4-1-2.7-0.9-4.1,0
			c-0.9,0.6-1.7,1.1-2.6,1.6c-1.7,1.1-3.4,1.2-5.3,0.5c-1.4-0.6-2.8-1.1-4.1-1.9c-2.3-1.3-4.6-2.5-6.9-3.7c-1.9-1-3.9-1.7-6-2.3
			c-3.1-0.8-5.4-2.7-6.8-5.7c-0.3-0.6-0.6-1.2-1-1.8c-1.9-2.6-4.4-4.4-7.1-5.9c-1.8-1-3.6-0.8-5.5,0c-1.1,1.7-2.3,3.4-3.4,5
			c0,0.1,0,0.2,0,0.3c0.1,0,0.2,0.1,0.2,0.1c0.6,0,1-0.3,1.5-0.6c1.4-0.7,2.9-0.7,4.4,0c0.4,0.2,0.9,0.5,1.3,0.5
			c1.9,0.3,2.5,1.6,2.8,3.3c0.2,1.1,0.1,2.1,0,3.2c-0.1,1.1,0,2.2,0.3,3.3c1.1,3.1,3.3,4.8,6.4,5.3c1.7,0.3,3.1,1,4.4,2.1
			c1.1,1,2.4,2,3.6,3c1.3,1.2,2.8,1.5,4.5,0.8c0.7-0.3,1.4-0.6,2.2-0.8c1.5-0.5,3-0.1,4.4,0.4c1.4,0.5,2.8,1,4.3,1.3
			c1.9,0.3,3.7-0.1,5.2-1.4c0.8-0.7,1.6-1.2,2.7-1.6c0.5,0.1,1.1,0.2,1.7,0.4c3,0.7,5.9,1.5,8.9,2.2c2.4,0.6,3.9,0,5.4-2
			C220.1,260.6,219.8,259.7,219.2,259L219.2,259z M265.7,222.6c0.2-1.1,0.8-1.9,1.7-2.5c3.1-1.9,6.3-3,10-2.5
			c1.7,0.2,3.5,0.1,5.2-0.3c2.9-0.8,5.6-2.1,8.4-3.3c1.7-0.7,2.7-2.1,3.1-4c-0.4-1-0.8-2.1-1.8-2.8c-0.4,0.3-0.8,0.7-1.1,1
			c-1.6,1.5-3.3,2.8-5.2,3.9c-1.5,0.8-3,1.8-4.6,2.5c-2.6,1.3-5.4,2.1-8.4,1.8c-1.1-0.1-2.2,0.1-3.3,0.5c-1.5,0.6-3,1.1-4.4,1.8
			c-3.2,1.6-5.6,4-6.8,7.5c-0.4,1.2-0.9,2.4-1.4,3.5c-0.4,1-1,1.8-1.9,2.3c-1.8,1.2-3.6,2.3-5.6,3c-4.1,1.6-8.3,2.5-12.6,2.9
			c-1.2,0.1-2.3,0.2-3.5,0.4c-3,0.7-5.5,2.1-7,4.9c-0.5,0.9-0.7,1.8-1,2.8c-0.5,1.9-1.3,3.5-2.5,5.1c-0.7,0.9-1.4,1.8-2,2.7
			c-0.4,0.5-0.7,0.9-0.8,1.7c0.7,1.6,1.3,3.3,2.2,4.9c2-0.8,3.1-2.2,3.5-4.2c0.3-1.5,0.6-3.1,0.6-4.6c0-0.9,0.3-1.7,0.8-2.5
			c1.2-1.7,2.2-3.5,3.6-5.1c1.5-1.7,3.3-2.8,5.2-3.9c0.9-0.5,1.7-0.5,2.7-0.1c1.1,0.5,2.2,0.6,3.4,0.3c0.8-0.2,1.5-0.5,2.2-0.8
			c2.9-1.2,5.7-2.4,8.9-2.8c2-0.2,3.4-1.4,4.4-3.1c1.7-3.1,4.3-5.2,7.2-7.1c1.6-1,3.3-1.2,5-0.3c0.8,0.4,1.6,0.6,2.5,0.7
			c4.3,0.4,8.5,0.9,12.8,1.3c1.5,0.2,2.8-0.2,3.9-1.2c1.6-1.3,3.4-2.2,5.4-2.8c1.3-0.4,2.6-0.6,4-0.9c0.7-0.1,1.4-0.2,2.1-0.5
			c0-0.7-0.3-1.3-0.8-1.9c-2,0.1-4,0.4-6,0.9c-2.4,0.5-4.6,1.7-7,2.2c-1.4,0.3-2.8,1-4.3,0.9c-1.2-1-2.6-1.2-4.1-1.3
			c-1.1-0.1-2.2-0.1-3.1-0.5c-1.5-0.7-3-0.8-4.6-0.7c-0.9,0.1-1.8,0.2-2.8,0.2C267.1,222.9,266.4,223,265.7,222.6L265.7,222.6z
			 M290.6,197.2c-0.2,0.5,0,0.8,0.2,1.1c0.5,1.3,1.2,2.6,1.6,3.9c0.4,1.3,1.3,2.1,2.5,2.7c0.6,0.3,1.2,0.6,1.9,0.8
			c2.4,0.9,4.8,2,7,3.3c4.8,2.9,9.7,5.3,14.8,7.5c8.1,3.4,16,7.2,23.8,11c1.3,0.6,2.7,1.1,4.1,1.5c1,0.2,2.1,0.5,3.2,0.3
			c2.6-0.4,5.2-0.8,7.8-1.2c0.3-0.1,0.7-0.1,0.9-0.5c-0.2-0.6-0.8-0.8-1.5-1c-1.4-0.4-2.7-0.9-4-1.5c-2.3-1-4.6-2.1-6.9-3.1
			c-2.9-1.3-5.6-2.9-8.8-3.4c-0.2,0-0.4-0.2-0.7-0.3c-2-1.2-4-2.1-6.2-2.8c-4.6-1.4-9.2-3.2-13.5-5.5c-2.1-1.1-4.2-2.3-6-3.9
			c-1.2-1-2.4-1.9-3.9-2.5c-2.8-1.1-5.5-2.3-8.2-3.5c-2.2-1-4.4-1.8-6.6-2.7C291.7,197.2,291.3,196.9,290.6,197.2z M296.1,210.3
			c1.2,2.7,2.5,5.2,3.8,7.8c0.7,1.4,1.7,1.9,3.1,2c0.4,0,0.8,0.1,1.2,0.1c3.1,0.1,3.4,0.4,4.3,3.3c0.4,1.5,1.2,2.2,2.7,2.4
			c1.7,0.2,3.4,0.2,5.1,0.3c4.5,0.3,8.5,1.5,11.4,5.3c0.1,0.2,0.3,0.4,0.5,0.5c0.7,0.6,1.5,0.9,2.4,0.7c0.4-0.1,0.9-0.2,1.3-0.3
			c1.8-0.6,3.6-0.9,5.4-1.1c1.7-0.2,3.5-0.4,5.2-0.6c0.6-0.1,1.2-0.2,1.6-0.7c-0.2-0.7-0.7-0.8-1.2-1.1c-2.4-1.2-4.9-2.4-7.3-3.6
			c-3.7-1.8-7.4-3.7-11.3-5.2c-6.2-2.5-12.3-5.3-18.1-8.7c-1.7-1-3.5-1.9-5.3-2.8c-0.9-0.4-1.8-0.8-2.8-0.9
			C297.4,208.4,296.7,209.2,296.1,210.3L296.1,210.3z M304.1,200.7c0.7,0.2,1.1-0.2,1.4-0.7c0.5-0.8,1-1.7,1.5-2.5
			c0.7-1.1,1.7-1.7,3-1.9c0.9-0.1,1.7,0.1,2.6,0.4c3.3,1.2,6.7,1.4,10,0.5c2.9-0.7,5.8-1.6,8.8-1.8c0.5,0,1-0.2,1.4-0.4
			c2.4-1,4.8-2,7.1-3c0.2-0.1,0.3-0.2,0.5-0.3c0.8-0.5,1.6-1.1,2.4-1.6c0.9-0.6,1.8-1.1,2.9-1.2c0.9,0.6,1.6,1.5,2.6,2
			c2.9,1.2,5.9,1.6,9,0.8c1.8-0.4,3.4-1.2,4.5-2.8c1-1.3,1.9-2.7,2.3-4.4c0.1-0.5,0.3-1,0.5-1.5c0.6-2,2-3.4,4-4.2
			c0.9-0.4,1.7-0.8,2.2-1.6c1-1.5,1.9-3,2.8-4.5c-0.4-1.3-1-2.3-2.1-2.7c-0.6,0.2-0.9,0.6-1.3,1c-1.1,1.2-2.3,2.3-3.7,3.2
			c-1.8,1.1-3.8,2-5.6,3c-1.6,0.9-3.2,1.2-5.1,0.7c-2-0.5-3.9-0.1-5.7,1c-1.5,0.9-2.8,2.1-4,3.4c-1.5,1.6-3.1,3.1-4.8,4.4
			c-3,2.4-6.3,4.4-9.9,5.7c-0.5,0.2-1,0.3-1.5,0.4c-2.8,0.5-5.5,1-8.3,1.6c-0.7,0.1-1.3,0-2-0.1c-1.9-0.4-3.6-1.1-5.5-1.6
			c-1.2-0.3-2.4-0.5-3.6-0.3c-0.5,0.1-1,0.2-1.3,0.5c-1.1,1-2.2,1.9-2.9,3.2c-0.6,1-1.1,1.9-1.6,2.9
			C304.1,199.3,303.9,199.9,304.1,200.7L304.1,200.7z M223.3,311.3c0.4-0.6,0.2-1,0.2-1.4c-0.1-2.4-0.1-4.8,0-7.1
			c0.1-4.3,0.6-8.6,0.9-12.9c0.1-1.5,0.2-2.9,0-4.4c-0.3-2.7-2.2-4.4-4.8-4.2c-1.3,0.1-2.6,0.4-3.6,1.2c-0.2,1.2-0.2,2.4-0.1,3.5
			c0.1,1,0.2,2,0.2,3c0.3,5.5,0,11-0.2,16.4c-0.1,1.8-0.2,3.7-0.1,5.7C218.4,311.2,220.8,311.3,223.3,311.3L223.3,311.3z M110.5,321
			c-0.8-0.4-0.8-0.4-1.5-0.2c-2.7,0.7-5,0.2-6.9-1.8c-0.7-0.8-1.6-1-2.7-0.8c-1.1,0.2-2.2,0.4-3.3,0.7c-3,0.8-5.3,2.4-6.6,5.4
			c-0.7,1.6-1.5,3.1-2.4,4.7c-0.8,1.5-2.3,2.2-3.9,1.9c-1.2-0.2-2.4-0.2-3.6-0.5c-0.9-0.2-1.7-0.1-2.6,0c-1.9,0.3-3.7,0.9-5.3,2
			c-0.7,0.5-1.4,1-2.3,1.3c-0.4,0.1-0.7,0.4-0.8,1c0.5,1,0.6,2.2,1.3,3.4c0.8-1.1,1.7-1.8,2.9-2.3c1.5-0.6,3.1-0.8,4.7-0.8
			c1.9,0,3.7-0.2,5.5-0.6c2.1-0.5,3.9-1.5,5.3-3.1c1.3-1.4,2.4-2.9,3.3-4.6c0.9-1.6,2-2.9,3.7-3.7c2.8-1.4,5.4-1.7,8.1,0.3
			c0.8,0.6,1.9,0.8,2.9,0.5c1.6-0.6,2.9-1.4,4-2.7C110.5,321.2,110.5,321.1,110.5,321L110.5,321z M294.5,212c-0.7,1.4-2,2.1-3.4,2.6
			c-2.3,0.9-4.6,1.7-6.8,3c-1.9,1.1-3.9,1.3-6.1,1c-2-0.3-4-0.3-5.9,0.2c-1.4,0.3-2.5,1-3.1,2.4c1,0.3,1.9,0.2,2.8,0.2
			c1.3,0,2.6,0.1,3.7,1c0.4,0.3,0.9,0.5,1.4,0.5c2.1,0,4.1,0.4,5.8,1.3c5.5-1.2,14.8-3.8,15.9-4.5c-0.7-2.5-2.2-4.6-3.3-6.9
			C295.4,212.4,295.1,212.1,294.5,212L294.5,212z M268.8,12.6c-0.7,0.6-0.9,1.3-1.2,1.9c-0.2,0.5-0.4,1.1-0.5,1.7
			c-0.8,2.6-1.9,5.1-3.5,7.3c-1.5,1.9-2.7,4-3.8,6.2c-0.2,0.5-0.6,0.9-0.4,1.6c0.8,0.6,1.1,1.8,2.1,2.2c0.5,0.1,0.9,0,1.1-0.2
			c0.8-0.6,1.7-1.1,2.4-1.8c2.7-2.5,4.6-5.5,6.1-8.8c0.9-1.8,1.8-3.5,2.7-5.3c0.4-0.8,0.8-1.6,1.3-2.5c0.3-0.6,0.5-1.1,0.2-1.9
			C273.2,12.4,270.9,12.8,268.8,12.6L268.8,12.6z M260,183c1.1,0.8,2.2,0.9,3.5,0.3c0.4-0.9,0.7-1.8,1.1-2.8c1.1-2.6,2.6-5.1,3.2-8
			c0.5-2.3,1.4-4.4,2.5-6.5c0.2-0.4,0.4-0.9,0.6-1.3c0.6-1,0.5-1.9,0-2.9c-0.9-1.8-1.7-3.6-2.6-5.4c-0.1-0.3-0.3-0.6-0.7-0.6
			c-0.2,0.1-0.3,0.3-0.4,0.5c-1.4,3.6-2.8,7.1-3.7,10.9c-0.9,3.9-2,7.7-3,11.5C260.3,180.1,260,181.5,260,183L260,183z M190.1,300
			c-0.4,0.8-0.5,1.3-0.5,1.9c0.1,2.4-0.6,4.7-1,7c-0.1,0.4-0.3,0.8-0.4,1.2c-0.1,0.3-0.5,0.5-0.3,0.9c0.1,0,0.2,0.1,0.3,0.1
			c2.5,0.1,4.9,0.1,7.4,0.1c0.4,0,0.9-0.1,1.3-0.6c1.4-3.8,0.6-7.9,0.8-12.1C194.8,298,192.3,298.9,190.1,300L190.1,300z M277.3,170
			c1.3,2.6,2.4,5.3,3.9,7.8c0.2-0.1,0.4-0.1,0.4-0.2c2.2-5,3.6-10.2,6.2-15c0.1-0.1,0.1-0.3,0.1-0.4c0-0.1,0-0.3-0.1-0.5
			c-1.4-0.6-3-1.1-4.5-1.3c-1.7-0.2-2.8,0.5-3.3,2.2c-0.2,0.6-0.4,1.1-0.6,1.6C278.6,166.1,278,168,277.3,170L277.3,170z
			 M206.9,296.6c-1.5,0.8-1.6,1-1.9,2.3c-0.1,0.5-0.2,1.1-0.2,1.6c-0.2,1.8-0.4,3.6-0.8,5.3c-0.4,1.8-0.5,3.5-0.3,5.3
			c1.9,0.3,6.1,0.3,7.3-0.1c-0.4-4.5,0-8.9,0.2-13.3c-0.5-0.3-0.8-0.4-1.2-0.5C208.9,297,207.9,296.8,206.9,296.6L206.9,296.6z
			 M326.8,232.8c-0.1-0.7-0.6-1.2-1.1-1.7c-2.5-2.4-5.5-3.8-9-4.1c-1.3-0.1-2.5-0.1-3.8-0.1c-0.8,0-1.6,0-2.3-0.1
			c-1.6-0.2-2.7-1.1-3.1-2.7c-0.2-0.7-0.4-1.4-0.8-2c-0.2-0.4-0.5-0.8-1-0.8c-1.2-0.2-2.5-0.4-3.6,0.1c-0.1,0.5,0.1,0.9,0.2,1.2
			c1,2.3,2.6,4.1,4.7,5.4c0.9,0.6,1.7,1.1,2.6,1.7c1.2,0.8,2.5,1.2,4,1.1c1.5,0,2.9-0.3,4.2-0.9c1.4-0.6,2.7-0.5,3.9,0.6
			c0.4,0.4,0.9,0.8,1.3,1.2c0.6,0.6,1.2,1.1,1.8,1.7C325.8,234.1,326.2,233.9,326.8,232.8L326.8,232.8z M305.8,229.3
			c1,2.6,1.8,4.9,2.9,7.1c0.6,1.3,1.5,1.5,2.9,1.2c1.3-0.3,2.6-0.6,3.8-1c2.3-0.7,4.6-1.1,6.9-1.9c0.3-0.1,0.6-0.2,0.8-0.6
			c-0.8-2.4-2.8-3.6-5.1-3.2c-0.6,0.1-1.2,0.3-1.8,0.5c-2.5,0.9-4.9,0.8-7.2-0.7C308.1,230.2,307.1,229.8,305.8,229.3L305.8,229.3z
			 M280.2,180.9c-1.2-2.3-2.4-4.6-3.7-6.9c-0.1-0.2-0.3-0.4-0.5-0.4c-0.7,0.9-4.4,10.1-4.5,11.1c0.2,0.2,0.5,0.3,0.8,0.3
			c1.4,0.1,2.8,0.3,4.2,0.6c0.6,0.1,1.3,0.1,1.8-0.2C278.9,183.9,279.5,182.5,280.2,180.9z M129.8,317.7c-0.7,0.2-1.4,0.4-2,0.5
			c-1.7,0.3-3.4,0-5-0.6c-1.2-0.4-2.3-0.7-3.5-0.8c-1.5-0.1-2.9-0.1-4.3,0.7c-1.2,0.6-2,1.6-2.3,3c1.1,0.2,2,0.1,3-0.1
			c2.5-0.3,4.9-0.3,7.3,0.5c0.8,0.2,1.6,0.3,2.4,0.4c1.6,0.2,4-1.5,4.4-3.1C129.9,318.1,129.9,318,129.8,317.7z M272.6,160.1
			c1-1.2,2.4-4,3.3-6.6c0.2-0.7,0.6-1.4,0.4-2.3c-1.2-0.3-2.4-0.6-3.6-0.7c-1.2-0.2-2.2-1.3-3.5-1.3c-0.5,0.8-0.6,1.6-0.8,2.5
			C269.9,154.4,271.1,157.3,272.6,160.1z M278.4,86.8c0.3-0.5,0.5-0.9,0.5-1.3c0-1.6,0-3.2-0.1-4.8c0-0.6-0.3-1.1-0.7-1.6
			c-0.7-0.9-1.6-1.1-2.7-0.7c-1.2,0.5-1.8,1.4-1.9,2.7c-0.1,1.5,0.1,3,0.2,4.5c0,0.3,0,0.7,0.3,1c0.6-0.1,1.3-0.4,2-0.4
			C276.8,86.3,277.5,86.6,278.4,86.8L278.4,86.8z M296.9,206.8c-0.8-0.4-1.5-0.9-2.4-0.4c0.1,0.7,0.3,1.2,0.8,1.7
			C296.2,208.2,296.5,207.6,296.9,206.8L296.9,206.8z"/>
		<path class="st1" d="M211.3,115.9c0.2-0.1,0.5-0.1,0.8-0.1c0.2,0,0.5,0.1,0.7,0.1c5,1.2,10.2,2,15.2,3.6c0.3,0.1,0.7,0.2,1,0.3
			c3.7,1.7,7.7,2.1,11.7,2.4c2,0.2,4,0.5,6,1.1c2.7,0.8,5.4,1.6,8.1,2.5c1.2,0.4,2.5,0.5,3.7,0.8c0.3,0.1,0.7,0.1,1,0.4
			c0.3,0.5,0.1,1.1-0.1,1.6c-0.5,2.1-1,4.2-1.4,6.3c-0.3,1.5-0.9,2.9-1.3,4.3c-1.2,4-2.2,8.1-3.1,12.1c-0.3,1.1-0.7,2.1-1,3.2
			c-0.6,2.5-1.1,4.9-1.6,7.4c-1,4.6-2.1,9.2-3.2,13.8c-0.8,3.4-1.8,6.8-2.6,10.2c-0.1,0.4-0.2,0.7-0.4,1.2c-0.9,0-1.4-0.7-1.8-1.4
			c-2.5-3.9-5-7.8-7.5-11.7c-2.7-4.3-5.5-8.6-8.1-13c-3.3-5.3-6.7-10.6-10.2-15.8c-1.3-2-2.4-4.1-3.5-6.2c-0.4-0.8-0.8-1.5-1.3-2.3
			c-0.7-1.1-1-2.3-1.1-3.6c-0.2-4.9-0.5-9.9-0.4-14.9c0-0.5,0-1.1,0-1.6C211,116.5,211,116.2,211.3,115.9L211.3,115.9z M244.4,185
			c0.5-0.8,0.5-1.8,0.7-2.6c0.4-2.6,1.1-5,1.9-7.5c0.2-0.7,0.5-1.4,0.6-2.1c1.3-6.8,3-13.6,4.8-20.3c1.4-5.3,2.7-10.5,4.1-15.8
			c0.4-1.4,0.8-2.8,0.9-4.3c0.1-1.2,0.3-2.4,0.7-3.6c0.1-0.3,0.2-0.5,0.1-0.9c-0.7-0.2-1.4-0.4-2.1-0.6c-3.5-1.1-7.1-2.2-10.6-3.3
			c-1.7-0.5-3.4-0.9-5.2-0.9c-3.5-0.1-6.9-0.7-10.2-1.7c-4.5-1.4-9.1-2.6-13.7-3.7c-1.5-0.4-2.9-0.6-4.4-0.8
			c-0.3,0.4-0.2,0.7-0.2,1.1c0.1,4.9,0.2,9.7,0.5,14.6c0.1,1.4,0.5,2.7,1.2,3.9c4.2,7.1,8.8,13.9,12.8,21c2.5,4.4,5.5,8.6,8.3,12.9
			c2.9,4.6,6.1,9,8.8,13.7C243.7,184.4,243.9,184.8,244.4,185z"/>
		<path class="st1" d="M187.5,180.4c-0.4-0.7-0.1-1.1,0.2-1.5c0.5-0.6,1-1.2,1.5-1.8c2.9-3.1,6.3-5.6,9.8-8c1.2-0.9,2.5-1.6,3.9-2.2
			c0.8-0.3,1.5-0.7,2.2-1.2c1.9-1.4,4.1-2.4,6.2-3.6c2.1-1.2,4.3-2.2,6.3-3.6c0.7-0.5,1.4-0.4,2.1-0.2c0.1,0.2,0.3,0.3,0.4,0.5
			c2.4,4.2,4.7,8.5,7.1,12.7c3.7,6.7,7.7,13.2,12.2,19.3c0.5,0.7,1.1,1.4,1.5,2.3c0,0.7-0.4,1.2-0.9,1.7c-1.4,1.2-1.9,2.8-2.3,4.4
			c-0.1,0.4,0,0.8-0.3,1.1c-2.4-0.5-4.7-1.5-7-2.4c-6.2-2.5-12.5-5-18.7-7.5c-4.2-1.7-8.3-3.4-12.4-5.1c-0.8-0.3-1.5-0.6-2.3-0.8
			c-1.6-0.4-3-1.1-4.4-1.9c-0.9-0.5-1.9-1-2.8-1.5C189,180.8,188.3,180.3,187.5,180.4L187.5,180.4z M188.8,179.5
			c1.2,0.6,2.3,1.3,3.5,1.9c3.9,1.7,7.8,3.5,11.8,5c3.5,1.4,7,2.9,10.5,4.3c3.6,1.4,7.1,3.1,10.8,4.4c3,1,6,2.1,8.8,3.5
			c0.7,0.3,1.3,0.5,2.1,0.3c0.9-2,2.2-3.8,3-5.8c-0.2-0.3-0.3-0.7-0.5-0.9c-1.3-2-2.5-4-3.8-6.1c-1.8-2.9-3.7-5.7-5.4-8.6
			c-2.9-5-5.8-10.1-8.7-15.2c-0.6-1.1-1.2-2.2-2.3-3c-0.7,0.1-1.3,0.4-1.8,0.6c-1.5,0.7-2.8,1.6-4.2,2.4c-4.7,2.7-9.4,5.5-14,8.4
			c-3.3,2.1-6.4,4.4-9,7.4C189.4,178.4,189,178.7,188.8,179.5z"/>
		<path class="st1" d="M244.4,203.4c-1.3-2.5,0.8-7.1,4.4-7.4c2.2-0.2,3.5,0.9,4.2,2.6c0.4,1,0.6,2.1,0.8,3.2
			c0.2,1.6-0.3,2.4-1.8,2.8c-1.3,0.4-2.7,0.7-4.1,0.9C246.1,205.9,245.1,205.2,244.4,203.4L244.4,203.4z M248.7,197
			c-0.6,0.3-1.1,0.8-1.8,1.1c-2.3,1.1-2.7,3.9-0.9,5.7c0.6,0.6,1.4,1,2.2,0.8c1.2-0.3,2.4-0.5,3.5-1c1.1-0.5,1.5-1.2,1.2-2.5
			c-0.1-0.4-0.2-0.9-0.3-1.3C252.1,198.1,250.7,197.1,248.7,197z"/>
		<path class="st1" d="M332.4,183.4c-3.8,1.5-7.9,2.1-12,2.4c-1,0.1-1.9-0.2-2.9-0.5c-2.5-0.8-5.1-1.7-7.6-2.5
			c-0.2-0.1-0.4-0.1-0.5-0.2c-2.7-1.1-5-0.6-7.2,1.3c-0.9,0.8-1.7,1.6-2.4,2.7c-0.9,1.4-1.9,2.8-3.7,3.4c-3.4,1.1-6.2,0.3-8-3.5
			c-0.7-1.4-0.7-2.9-0.4-4.4c0.3-1.9,1.1-3.5,2.5-4.8c0.7-0.6,1-1.4,1.1-2.3c0.1-1,0.3-1.9,0.6-2.9c0.8-2.9,1.5-5.8,2.5-8.7
			c1.1-3.1,3.5-5.1,6.9-5.1c0.4,0,0.9,0,1.3-0.1c1.1-0.1,2.2,0,3.3,0.2c2.7,0.4,4.6,1.9,5.8,4.3c0.9,1.8,2.3,2.6,4.2,2.5
			c0.9,0,1.7-0.2,2.6-0.5c3-1.1,6-2.2,9-3.3c1.3-0.5,2.6-0.9,3.9-1.1c1.1-0.2,2.2-0.1,3.3,0c2.1,0.2,4.2,0.7,6,1.9
			c1.6,1.1,2.3,2.7,2.5,4.6c0,0.3,0.1,0.6,0,0.9c-0.5,3.8-1.3,7.5-3.6,10.6c-1,1.4-2.4,2.4-3.9,3.3
			C334.9,182.3,333.7,182.9,332.4,183.4z M289.1,185.8c0.2,0.3,0.3,0.7,0.5,1.1c2,3.5,6.8,3.8,8.9,0.5c0.2-0.3,0.5-0.6,0.7-1
			c1.2-2.1,3-3.7,5.2-4.8c1.1-0.5,2.3-0.8,3.5-0.5c1.1,0.3,2.3,0.6,3.3,1.1c2.7,1.3,5.7,2,8.6,2.7c0.7,0.2,1.4,0.2,2.2,0.1
			c3.1-0.4,6.2-0.8,9.2-1.7c2.9-0.9,5.5-2.5,7.7-4.5c0.3-0.2,0.5-0.5,0.6-0.8c1.4-2.8,2.6-5.6,3.3-8.7c0.2-0.9,0.3-1.8,0.2-2.8
			c-0.1-1-0.4-1.8-1.1-2.5c-0.9-1-2-1.7-3.2-2.2c-3.5-1.3-7-1.1-10.4,0.1c-3,1-5.9,2.3-8.8,3.4c-1.6,0.6-3.2,0.8-4.9,0.5
			c-1.6-0.3-2.8-1.1-3.4-2.6c-0.9-2.3-2.7-3.5-5-4c-2.4-0.5-4.7-0.1-6.9,0.4c-1.2,0.3-2,1.1-2.7,2.1c-0.5,0.8-0.9,1.6-1.2,2.5
			c-0.5,1.5-1,3.1-1.5,4.6c-0.7,2.4-1.6,4.7-1.8,7.2c0,0.6-0.3,1.1-0.7,1.5c-0.3,0.3-0.7,0.7-1,1C288.5,180.3,288,183.6,289.1,185.8
			L289.1,185.8z"/>
		<path class="st1" d="M287.6,152.2c-0.8-0.4-0.9-1-1-1.5c-0.3-1.9-0.8-3.7-2.1-5.2c-0.4-0.5-0.7-1-0.7-1.8c0.3-0.9,1-1.8,1.5-2.7
			c1.9-3.5,4.3-6.7,7.3-9.4c0.5-0.5,1-1,2-1.1c1,0.2,1.9,0.8,3,1.3c2.2,1,4.3,2,6.3,3.3c1.6,1.1,3.2,2.4,4.5,4
			c1.8,2.1,3.9,3.9,6.6,4.9c0.3,0.1,0.6,0.3,0.9,0.7c-1.6,3-3.3,6.1-5.4,8.8c-0.5,0.3-0.8,0.2-1.2,0c-1.8-3.3-5-5.4-8-7.6
			c-0.9-0.7-2.2-1.1-3.3-1.6c-0.6-0.3-1.1-0.2-1.7,0c-0.8,0.3-1.4,0.8-2,1.4c-1.5,1.5-3.1,3.1-4.6,4.7
			C288.9,151,288.3,151.6,287.6,152.2z M314.4,145.3c-0.1-0.4-0.4-0.6-0.6-0.7c-2.8-1.9-5.2-4.2-7.6-6.6c-1.9-2-4.2-3.4-6.9-4.3
			c-1.1-0.4-2.2-0.8-3.2-1.3c-0.9-0.4-1.8-0.6-2.9-0.2c-3.2,3.3-6.3,6.8-8.1,11.2c0.4,2.1,1.5,3.8,2,5.8c0.1,0.6,0.5,1,1.1,1.3
			c2.9-2.4,4.9-5.7,8-7.7c1.3,0.2,2.4,0.6,3.5,1.3c3.3,2.2,6.5,4.5,9,7.6c0.3,0.4,0.6,0.9,1.4,1
			C311.7,150.3,312.8,147.6,314.4,145.3L314.4,145.3z"/>
		<path class="st1" d="M331.1,123c0.8,0.9,1.3,1.8,1.6,2.7c1.9,5.7,4.8,10.9,7.9,16c0.3,0.5,0.6,1,0.9,1.5c0.5,0.8,0.5,1.1,0.5,2.4
			c-0.4,0.5-1,0.6-1.5,0.8c-1.6,0.5-3.2,0.9-4.8,0.9c-2.7,0-5.2,0.7-7.5,1.9c-0.7,0.4-1.5,0.8-2.4,0.2c-0.5-1-1.1-2.1-1.6-3.2
			c-0.8-1.7-1.6-3.3-2.5-5c-0.4-0.8-0.8-1.7-1.1-2.5c-1.2-3-2.3-6-3.8-8.8c-0.3-0.6-0.6-1.1-0.9-1.7c-0.3-0.5-0.5-1-0.3-1.7
			c0.6-0.5,1.4-0.9,2.2-1c2.6-0.5,5.2-1.3,7.8-1.9C327.3,123.2,329.2,122.8,331.1,123L331.1,123z M316.9,127.1
			c0,0.9,0.1,1.7,0.5,2.5c0.5,1.1,1.1,2.2,1.5,3.3c1.9,5.1,4.6,9.9,6.9,14.8c0.2,0.5,0.4,1,1.1,1.2c0.5-0.2,1.1-0.4,1.6-0.6
			c2.5-1.1,5.1-1.8,7.9-1.8c1.5,0,2.9-0.5,4.1-1.5c0.3-0.8,0.2-1.5-0.2-2.3c-0.4-0.8-0.9-1.6-1.4-2.4c-2.9-4.7-5.2-9.7-7.3-14.7
			c-0.2-0.6-0.4-1.2-0.9-1.6C328.6,123.7,319.5,125.7,316.9,127.1L316.9,127.1z"/>
		<path class="st1" d="M296.3,122.5c-0.5-0.3-0.7-1-0.9-1.6c-0.3-0.8-0.6-1.6-0.9-2.5c-0.4-1.3-0.1-2,1.2-2.5c2.5-0.8,5-1.6,7.6-1.9
			c3.3-0.4,6.5-1.1,9.6-2.4c1.2-0.5,2.4-0.7,3.7-0.8c3-0.3,6-0.5,8.9-1.3c0.3-0.1,0.6-0.2,1,0.1c0.4,1.4,0.8,3,1.2,4.5
			c-0.6,1.3-1.4,2.1-2.8,2.3c-2.1,0.2-4.2,0.8-6.3,1.2c-3.3,0.6-6.6,1.4-9.8,2.1c-3.8,0.9-7.6,2-11.5,2.7
			C297.1,122.6,296.7,122.7,296.3,122.5L296.3,122.5z M326.3,115.3c0.3-1.2,0.3-1.3,0-2.6c-0.4-1.7-1.1-2.2-2.8-1.9
			c-1,0.1-1.9,0.3-2.9,0.4c-2.2,0.1-4.4,0.5-6.6,1.2c-2,0.6-4,1.2-6,1.7c-3.5,0.7-7.1,1.4-10.5,2.3c-0.7,0.2-1.4,0.2-2,0.8
			c-0.2,0.7-0.2,1.4,0,2c0.7,2.1,1.1,2.6,3.6,2.2c4.2-0.7,8.2-1.9,12.3-3.1c3.2-0.9,6.5-1.7,9.8-2.1
			C322.9,115.9,324.6,115.6,326.3,115.3L326.3,115.3z"/>
		<path class="st1" d="M287.2,120c2.1,1.2,4.6,1.6,6.3,3.3c-0.1,0.5-0.2,0.7-0.4,0.8c-1,0.8-1.8,1.9-2.5,3c-1,1.4-2,2.8-3.1,4.2
			c-0.7,0.9-1.4,1.8-1.9,2.9c-0.3,0.6-0.8,1.2-1.2,1.8c-1.6,1.9-3.4,3.7-5.3,5.5c-1.7-0.7-2.2-2.4-3.2-3.5c0.3-0.8,0.7-1.4,1.1-2
			c1.5-2.3,3.1-4.6,4.6-6.9c0.3-0.4,0.5-0.9,0.8-1.4c0.8-1.7,1.8-3.3,3.1-4.8c0.3-0.3,0.5-0.7,0.7-1.1
			C286.2,121.1,286.5,120.6,287.2,120L287.2,120z M279.1,139.7c0.9-0.8,1.7-1.5,2.6-2.2c0.8-0.7,1.5-1.4,2.1-2.2
			c1.7-2.4,3.3-4.8,5-7.1c0.8-1.2,1.5-2.5,2.6-3.5c0.4-0.4,0.8-1,0.6-1.8c-1.4-0.5-2.8-1.1-4.3-1.4c-0.6,0.7-1,1.3-1.6,1.9
			c-0.9,1-1.7,2-2.3,3.2c-1.8,3.3-3.8,6.4-6.1,9.4c-0.3,0.4-0.7,0.8-0.7,1.5C277.2,138.4,277.9,139.2,279.1,139.7L279.1,139.7z"/>
		<path class="st1" d="M340.9,158.1c-1.3-1.8-2.3-3.6-3.4-5.3c0-0.7,0.3-1.1,0.8-1.5c1.8-1.4,6.9-3.5,9.3-3.9c1.3,1,3.2,4.4,3.5,6.1
			c-0.7,1-1.9,1.3-2.9,1.8C345.8,156.4,343.4,157.4,340.9,158.1L340.9,158.1z M341.2,157.1c0.4-0.1,0.5-0.1,0.7-0.2
			c1.7-0.9,3.5-1.6,5.4-2.1c0.7-0.2,1.3-0.4,1.9-0.7c0.6-0.2,1-0.6,1.1-1.2c-0.2-0.9-0.9-1.6-1.3-2.5c-0.4-0.8-0.9-1.6-1.5-2.4
			c-3.2,1-6.3,2-9.1,4.1C338.9,154.2,340.1,155.6,341.2,157.1L341.2,157.1z"/>
		<path class="st1" d="M167,166.9c-3-0.4-5.7-0.9-8.5-0.1c-2,0.6-4.1,0.1-6-0.7c-1.2-0.5-2.3-1.1-3.4-1.7c-1.1-0.6-1.9-1.4-2.2-2.6
			c-0.4-1.3-1.1-2.3-2.1-3.1c-0.9-0.8-1.7-1.8-2.3-2.8c-0.5-0.7-0.6-1.5-0.5-2.4c0.2-1.5,0.6-2.9,1.6-4.2c0.5-0.7,0.9-1.4,1.2-2.1
			c0.4-1,0.7-2.1,0.5-3.3c-0.2-1.6,0-3.1,0.7-4.6c1.2-2.7,5-4.4,7.4-3.9c0.6,0.1,1.2,0.3,1.9,0.2c0.5,0,0.9,0.2,1.4,0.5
			c2.3,1.2,3.7,3.1,4.9,5.2c1.2,2.2,2.3,4.4,3.8,6.4c0.5,0.7,0.7,1.6,0.9,2.4c0.5,1.7,0.5,3.6,1.1,5.3c0.1,0.4,0.2,0.8,0.4,1.3
			c0.1,0.2,0.1,0.4,0.2,0.6c0.7,2.1,1,4.2,1.5,6.4c0.3,1.5-0.4,2.5-1.8,3.1C167.4,166.8,167.1,166.9,167,166.9L167,166.9z
			 M167.6,165.2c0.6-1.4,0.6-2.7,0.1-4c-1-2.5-1.6-5.2-1.8-7.9c-0.1-1.8-0.8-3.5-1.7-5.1c-0.3-0.5-0.5-0.9-0.8-1.4
			c-1.2-2.1-2.2-4.3-3.5-6.4c-0.9-1.5-2.2-2.6-3.8-3.3c-1.6-0.7-3.4-0.4-5.2-0.5c-0.3,0-0.7,0.2-1,0.3c-1.9,1.1-3.2,2.7-3.4,5
			c-0.1,0.9-0.1,1.8-0.1,2.8c0,1.6-0.4,3-1.4,4.2c-1.2,1.6-1.8,3.4-2,5.4c0,0.1,0,0.1,0,0.2c0.4,1.4,1.2,2.5,2.4,3.5
			c0.8,0.7,1.5,1.4,1.9,2.4c0.6,1.6,1.7,2.7,3.2,3.5c1,0.5,2,1,3,1.5c1.8,0.7,3.6,1,5.4,0.6c2.2-0.5,4.4-0.5,6.7-0.4
			C166.3,165.6,166.9,165.6,167.6,165.2L167.6,165.2z"/>
		<path class="st1" d="M179.6,163.1c-0.1-0.5-0.1-1,0-1.4c0.2-1.4,0.4-2.7,0.5-4.1c0-1,0.4-1.9,1-2.7c1.1-1.4,2.2-2.7,3.8-3.6
			c0.6-0.4,1.2-0.8,1.7-1.4c0.2-0.2,0.4-0.4,0.7-0.6c1.8-1.2,3.6-2.5,5.5-3.6c1.8-1.1,3.8-1.5,5.9-1.4c2.9,0.1,6.3,1,9,2.3
			c0.3,0.4,0.4,0.9,0.3,1.5c-0.2,1.7-0.9,3.3-1.9,4.7c-1.6,2.3-3.6,4.2-5.7,6c-3,2.5-6.2,4.6-9.8,6.2c-0.8,0.3-1.5,0.9-2.3,1.2
			c-0.7,0.3-1.5,0.4-2.3,0.5c-1.4,0.2-2.7-0.2-3.7-1.3C181.2,164.6,180.4,163.9,179.6,163.1z M207,147.4c-0.5-0.5-1-0.7-1.5-0.8
			c-1.5-0.3-2.9-0.7-4.3-1.2c-1.3-0.5-2.6-0.6-4-0.4c-2.1,0.4-4,1.3-5.8,2.2c-1,0.5-1.8,1.1-2.6,1.9c-1.3,1.3-2.7,2.4-4,3.6
			c-0.9,0.8-1.8,1.5-2.7,2.4c-0.6,0.7-1,1.4-1,2.3c-0.1,0.9-0.2,1.7-0.3,2.6c-0.3,2.9,2.3,5.6,5.2,5.1c1.6-0.3,3.2-0.6,4.7-1.5
			c4.1-2.5,8-5.3,11.7-8.4c1.6-1.3,2.9-2.8,3.9-4.7C206.8,149.7,207.1,148.6,207,147.4L207,147.4z"/>
		<path class="st1" d="M73.3,122.7c9.5,1.3,19.1,2.9,28.7,5.2c0.5,1.8,1,3.6,1.5,5.3c0.2,0.6,0,1.3-0.3,1.8c-0.5,0.2-0.9,0.1-1.4,0
			c-2.4-0.9-4.9-1-7.5-1.1c-5-0.1-9.9,0-14.9-0.3c-1.2-0.1-2.3-0.2-3.5-0.6c-1.3-3.2-2.5-6.4-3.8-9.5
			C72.4,123.2,72.6,122.9,73.3,122.7L73.3,122.7z M101.1,129.1c-1.1-0.6-2.2-0.9-3.3-1.3c-1.9-0.6-4-0.9-6-1.3
			c-3.6-0.7-7.2-1.4-10.9-2.1c-0.8-0.2-1.6-0.3-2.5-0.2c-1.2,0.1-2.4,0.2-3.6,0.1c-0.4,0-0.8,0-1.1,0.6c0.6,2.5,1.6,4.9,2.9,7.2
			c0.2,0.1,0.3,0.1,0.4,0.1c4.4,0,8.8,0.6,13.2,0.7c3.5,0.1,7,0.4,10.4,1.2c0.5,0.1,1,0.3,1.7-0.1
			C102.2,132.4,101.7,130.8,101.1,129.1L101.1,129.1z"/>
		<path class="st1" d="M188.7,113.3c1.2,0.5,1.8,1.6,2.4,2.6c0.8,1.6,1.9,3,2.9,4.3c0.7,0.8,1.3,1.7,1.7,2.6
			c0.1,0.7-0.2,1.1-0.7,1.4c-3.5,2.4-6.3,5.5-9.2,8.5c-2.4,2.5-5.2,4.2-8.4,5.3c-0.7,0.2-1.4,0.4-2,1c-1.5-0.8-2.3-2.1-2.9-3.5
			c-0.2-0.4-0.3-0.9-0.6-1.3c-1.2-1.4-1.8-3.1-2.9-4.6c-0.1-0.2-0.2-0.4-0.3-0.7c0.7-0.9,1.7-1.5,2.5-2.3c1.7-1.6,3.3-3.2,5-4.9
			c3.5-3.4,7.4-6.3,11.8-8.4C188.3,113.3,188.5,113.3,188.7,113.3z M188.5,114.7c-1.2,0.5-2.2,0.8-3.1,1.3c-1.9,0.9-3.7,2-5.3,3.5
			c-2.9,2.8-5.8,5.8-8.8,8.5c-0.5,0.4-1,0.8-1.2,1.4c0,0.8,0.4,1.4,0.8,2c1.1,1.7,2.6,3.1,3.5,5c0.3,0.6,0.7,1.1,1.7,1
			c1.6-0.7,3.4-1.5,5.1-2.3c1.6-0.8,3.1-1.9,4.4-3.1c2.6-2.5,5.3-5,7.9-7.6c0.4-0.4,0.9-0.7,1-1.4
			C192.8,120,190.9,117.2,188.5,114.7L188.5,114.7z"/>
		<path class="st1" d="M78.8,146.7c-1.7-2.4-1.9-5.3-2.4-8.1c0.6-0.7,1.4-0.8,2.2-0.8c1.8,0,3.6,0.1,5.4,0.3c4.3,0.6,8.7,1.1,13,1.6
			c1,0.1,2,0.2,3,0.2c1.8,0,3.4,0.5,5,1c0.9,1.6,1.3,3.2,1.5,6c-0.2,0.2-0.4,0.1-0.7,0.2c-8,0.4-16,0.6-24,0.3
			C80.9,147.3,79.8,147.5,78.8,146.7L78.8,146.7z M79.2,145.7c2.9,0.7,5.8,0.9,8.6,1c1.7,0.1,3.5,0.3,5.2,0.1
			c2.1-0.3,4.2-0.3,6.2-0.3c2,0,4-0.4,5.9-0.8c0.6-1.2,0.1-2-0.2-3c-0.3-0.8-0.8-1.3-1.6-1.5c-1-0.3-2.1-0.4-3.2-0.5
			c-5.1-0.5-10.2-0.8-15.2-1.5c-1.9-0.3-3.9-0.5-5.8-0.5c-0.6,0-1.2,0-1.7,0.6C77.1,141.6,78.2,143.6,79.2,145.7L79.2,145.7z"/>
		<path class="st1" d="M137.3,147.6c0.3,0.8,0.2,1.4,0.1,2.1c-0.2,1.2-0.3,2.4-0.5,3.6c-0.1,0.5-0.3,0.9-0.9,1.2
			c-1,0.2-2.1,0.1-3.2,0c-4.4-0.3-8.7-0.8-13-1.7c-1.7-0.4-3.4-0.7-5.1-1.1c-0.7-0.2-1.4-0.4-2-1c-0.6-1.5-0.6-3.2-0.9-4.8
			c-0.1-0.3,0-0.7,0.3-1c1-0.4,2.2-0.4,3.3-0.5c2.2,0,4.4,0.3,6.5,0.7c1,0.2,2,0.4,3,0.3c0.2,0,0.5,0,0.7,0c3,0.3,6.1,0.5,9.1,1.2
			C135.7,146.9,136.5,147.1,137.3,147.6L137.3,147.6z M136.5,148.8c-0.6-0.9-1.5-1.3-2.4-1.5c-0.6-0.1-1.2-0.2-1.9-0.3
			c-4.7-0.7-9.4-0.9-14.1-1.3c-1.5-0.2-3.1-0.2-4.7-0.2c-0.3,0-0.7-0.1-0.9,0.4c0.3,0.9,0.8,1.8,0.7,2.9c-0.1,1.4,0.7,2.1,1.9,2.5
			c1.2,0.4,2.5,0.5,3.7,0.8c4.4,1,8.9,1.4,13.4,1.8c1.2,0.1,2.4,0.1,3.5-0.4C136.3,151.8,136.4,150.3,136.5,148.8z"/>
		<path class="st1" d="M132.6,134.1c0.4,1.8,1.3,3.4,1.6,5.1c-0.4,0.7-1,0.6-1.6,0.6c-2.4,0.1-4.9,0.1-7.3,0c-3.2-0.1-6.5,0-9.7-0.4
			c-1.4-0.2-2.8-0.5-4.2-0.7c-0.3-0.1-0.6-0.2-0.9-0.3c-0.5-0.4-0.6-0.9-0.6-1.4c0.1-1.7-0.3-3.4,0.2-5c1.4,0.1,2.6,0.2,3.9,0.2
			c2.5,0.1,4.9,0.1,7.4,0.2c2.5,0,4.9,0.4,7.4,0.8C130.1,133.3,131.4,133.5,132.6,134.1L132.6,134.1z M110.9,137.3
			c4.3,1.7,19.3,2.1,22.1,1.3c0.1-0.2,0.2-0.4,0.2-0.5c-0.5-1.2-0.6-2.5-1.3-3.5c-1-0.4-1.9-0.7-2.8-0.8c-2.6-0.4-5.2-0.6-7.8-0.6
			c-1.5,0-2.9-0.1-4.4-0.2c-1.9-0.2-3.9-0.1-5.9-0.4C110.9,134.2,110.9,135.8,110.9,137.3L110.9,137.3z"/>
		<path class="st1" d="M188.8,143.3c-0.3,1-1,1.3-1.6,1.7c-1.6,1-3.1,1.9-4.7,2.8c-2,1.1-3.9,2.3-5.9,3.4c-0.1,0-0.2,0-0.3,0
			c-0.1-0.1-0.3-0.1-0.3-0.2c-0.8-1.7-1.7-3.4-2.5-5.1c-0.3-0.6-0.4-1.2-0.4-1.8c0.3-0.7,1-0.9,1.6-1.1c2.2-0.5,4-1.7,5.8-2.9
			c0.2-0.1,0.3-0.2,0.5-0.3c1.5-1.3,3.1-2.2,5-2.9c0.3,0,0.7,0.2,0.8,0.5C187.6,139.3,188.5,141.2,188.8,143.3L188.8,143.3z
			 M177,150.1c1.6-0.4,9.8-5.7,10.9-7c-0.1-2-0.6-3.8-2.3-5.1c-1.5,0.3-1.9,0.4-2.8,1.2c-2,1.8-4.2,3.2-6.7,4.3
			c-0.7,0.3-1.3,0.6-1.9,1.3C174.8,146.7,175.4,148.6,177,150.1z"/>
		<path class="st1" d="M192.7,140.1c-0.6-1.8-1.2-3.7-1.6-5.8c1.1-1.1,2.5-1.9,3.7-2.8c1.2-0.9,2.4-1.9,3.9-2.6
			c1.7,2.6,3.4,5,3.6,7.9c-0.4,0.7-0.8,1-1.2,1.1c-2.2,0.4-4.1,1.5-6.1,2.2C194.3,140.3,193.7,140.6,192.7,140.1L192.7,140.1z
			 M197.5,130.3c-0.2,0.2-0.5,0.4-0.8,0.6c-1.1,0.9-2.2,1.8-3.3,2.6c-1.1,0.8-1.2,1.8-0.9,3c0.3,1,0.7,1.9,1.3,2.8
			c2.1-0.7,4.2-1.4,6.2-2.1c0.4-0.1,0.8-0.4,1-0.8c0.2-0.5,0.2-1,0-1.6c-0.5-1.3-1.2-2.5-1.9-3.7
			C198.8,130.5,198.3,130.1,197.5,130.3z"/>
		<path class="st1" d="M184.7,79.2c0.6,1.6,1,3.1,1.1,4.7c0.2,3-1,5.4-3.7,6.9c-2.2,1.2-4.5,1-6.3-1c-2.1-2.4-3.1-5.2-3.8-8.2
			c-0.3-1.3,1-5.9,1.9-6.9c0.7-0.8,1.5-1.5,2.5-1.9c2-0.8,3.7-0.5,5.1,1.2C182.9,75.5,183.9,77.4,184.7,79.2z M177.6,90.6
			c1.6,0.8,3.2,0.6,4.5-0.6c2-1.8,2.7-4.1,2.6-6.7c-0.1-3.4-1.7-6.2-3.9-8.7c-0.9-1-2.1-1.3-3.5-1c-1.6,0.4-2.8,1.3-3.5,2.8
			c-0.9,1.9-1.3,3.9-1,6c0.1,1.1,0.4,2.1,1,3C174.9,87.2,176.2,88.9,177.6,90.6L177.6,90.6z"/>
		<path class="st1" d="M184.3,54c-1-2.6-0.4-5,1.3-7.1c0.4-0.5,0.9-0.8,1.5-1.1c1.3-0.5,2.5-1,3.8-1.6c1.8-0.7,3.4-0.4,4.9,0.7
			c1.2,0.9,2.1,2,2.9,3.3c0.8,1.4,0.6,2.9-0.6,4c-0.7,0.7-1.6,1.3-2.6,1.6c-2,0.6-3.8,1.4-5.8,2.1c-0.6,0.2-1.2,0.4-1.8,0.5
			c-1.7,0.2-2.7-0.3-3.4-1.8C184.4,54.5,184.4,54.2,184.3,54L184.3,54z M194.1,53.8c0.5-0.2,1-0.4,1.5-0.6c0.6-0.3,1.2-0.7,1.7-1.2
			c1.2-1.2,1.3-2.4,0.4-3.8c-0.5-0.8-1.2-1.5-1.9-2.2c-1.8-1.5-3.6-1.7-5.6-0.6c-0.3,0.2-0.6,0.3-0.9,0.5c-0.7,0.5-1.3,1-2.1,1.3
			c-0.6,0.2-0.9,0.7-1.3,1.2c-1.3,2-0.9,4-0.2,6c0.2,0.7,0.8,1,1.5,1c0.4,0,0.8,0,1.2-0.1C190.2,55,192.2,54.7,194.1,53.8
			L194.1,53.8z"/>
		<path class="st1" d="M201.6,42.8c-1.6-1.8-1.4-4.1,0.5-5.6c0.6,0,1.2,0.2,1.8,0.5c0.9,1.1,1,2.3,0.3,3.5
			C203.6,42.1,203,43,201.6,42.8L201.6,42.8z M202.2,38.1c-0.7,0.7-0.8,1.5-0.8,2.5c0.2,0.2,0.4,0.3,0.5,0.5
			c0.2,0.2,0.4,0.4,0.7,0.4c1.3-0.7,1.6-1.4,0.9-2.9C203.1,38.3,202.7,38,202.2,38.1z"/>
		<path class="st1" d="M248.1,101c0,0.7,0.3,1.3,0.5,1.9c1.3,3.4,2.7,6.8,4,10.2c0.2,0.5,0.6,1,0.2,1.7c-0.5,0-0.7-0.4-1-0.7
			c-0.8-1.3-1.4-2.8-2-4.2c-0.9-2.4-2-4.7-3.1-6.9c-0.3-0.5-0.5-1.1-0.9-1.5c-0.6,0-1.1,0.3-1.6,0.6c-1.7,1-3.1,2.3-4.8,3.3
			c-2.4,1.6-4.6,0.9-5.9-1.6c-0.8-1.6-1.3-3.3-1.5-5c-0.2-1.1-0.4-2.1-0.6-3.1c-0.4-1.7-1.1-3.1-2.5-4.2c-0.4-0.3-0.7-0.7-1-1
			c-1.6-2.1-1.6-3.9-0.1-6c0.5-0.7,1-1.3,1.6-1.9c0.5-0.6,1-1.1,1.4-1.7c1.1-1.4,1.4-3,0.8-4.7c-0.1-0.3-0.2-0.6-0.4-1
			c-0.9-2-0.7-4,0.5-5.7c2.4-3.6,4.2-7.5,6.5-11.1c0.7-1.1,1.4-2.1,2.2-3.1c0.7-0.8,1.4-1.6,2.4-2.1c1.7-1,3.4-1.1,5.1,0
			c0.6,0.4,1.1,0.8,1.7,1.2c1.1,0.9,2.3,1,3.6,0.5c0.6-0.2,1.3-0.5,1.9-0.8c1-0.5,2.1-0.8,3.2-1.1c4.2-0.9,7.6,1.6,9,4.7
			c1.8,4.2,1.5,8.3-1.5,11.9c-0.8,1-1.7,2-2.6,2.9c-0.5,0.6-1,1.2-1.2,2c-0.3,0.9-0.1,1.5,0.7,2c0.6,0.4,1.3,0.7,1.9,1.1
			c1.1,0.6,2,1.4,2.7,2.4c1,1.6,1.1,3.2,0.4,4.9c-0.4,1-1,1.9-1.8,2.6c-0.6,0.6-1.3,1.2-1.9,1.8c-1.3,1.3-2.4,2.6-2.8,4.5
			c-0.2,0.9-0.6,1.7-1,2.6c-1,2.3-2.8,3.4-5.1,3.8c-1.2,0.2-2.3,0.1-3.5,0.1C250.2,100.1,249.1,100.1,248.1,101L248.1,101z
			 M234.6,70.3c0.5-0.2,0.7,0.1,0.7,0.4c0.6,2,1.9,3.7,2.8,5.6c0.7,1.7,1.4,3.3,2.2,4.9c0.1,0.3,0.2,0.8,0.7,0.8
			c0.4-0.2,0.6-0.5,0.8-0.8c2.3-2.8,4.1-5.9,6.4-8.7c0.6-0.7,1.1-1.3,2-1.7c0.3,0,0.6,0.1,0.8,0.2c1.5,0.5,2.5,1.6,3.3,2.9
			c1.5,2.5,2.6,5.2,4.2,7.7c0.5,0.7,0.9,1.7,0.3,2.7c-0.1,0.1-0.3,0.3-0.5,0.4c-1.8,1.2-3.3,2.7-4.9,4.1c-0.7,0.7-1.5,1.3-2.3,1.8
			c-1.7,1.1-3.1,2.5-4.6,3.9c-0.2,0.2-0.3,0.5-0.5,0.8c0.3,1.5,0.8,3,1.4,4.3c0.2,0,0.3,0.1,0.4,0.1c1.9-0.6,3.9-0.6,5.9-0.5
			c0.1,0,0.3,0,0.4,0c2.1-0.3,3.7-1.2,4.5-3.2c0.3-0.7,0.6-1.3,0.8-2c0.3-0.9,0.6-1.7,1.1-2.5c0.8-1.4,1.8-2.6,2.9-3.6
			c0.8-0.7,1.6-1.4,2.2-2.3c1.9-2.7,0.9-5.2-1.4-6.8c-0.4-0.3-0.9-0.5-1.3-0.7c-0.3-0.2-0.7-0.3-1-0.5c-1.3-0.8-1.7-1.9-1.3-3.4
			c0.3-1,0.9-1.7,1.5-2.5c0.9-1,1.8-1.9,2.6-2.9c2.6-3,3.1-6.4,1.7-10.1c-1.3-3.5-5.4-6.8-10.1-4.7c-0.8,0.4-1.7,0.7-2.6,1.1
			c-0.3,0.1-0.5,0.2-0.8,0.4c-1.5,0.7-2.9,0.5-4.2-0.5c-0.6-0.4-1.2-0.9-1.8-1.2c-1.3-0.6-2.5-0.5-3.7,0.3c-0.5,0.4-1,0.8-1.4,1.3
			c-1,1.2-1.8,2.4-2.6,3.7c-2.1,3.3-4,6.8-6.3,10c-0.3,0.5-0.6,1-0.8,1.5c-0.5,1.1-0.6,2.2-0.2,3.4c0.2,0.6,0.3,1.2,0.5,1.8
			c0.6,2.1,0.2,4-1.1,5.6c-0.6,0.8-1.3,1.5-2,2.2c-0.7,0.7-1.3,1.4-1.7,2.3c-0.5,1-0.5,2,0.1,3.1c0.4,0.7,0.9,1.2,1.6,1.7
			c1.4,1,2.2,2.3,2.7,3.9c0.3,0.9,0.4,1.9,0.5,2.9c0.1,1.4,0.2,2.7,0.5,4.1c0.2,0.9,0.5,1.7,0.8,2.5c1,1.9,2.6,2.4,4.5,1.4
			c0.6-0.3,1.1-0.7,1.6-1c1.4-1.1,2.9-2.2,4.5-3c0.3-0.2,0.6-0.3,0.7-0.7c0-0.1,0-0.3-0.1-0.4c-2-4.6-3.7-9.3-5.6-14
			c0,0,0-0.1-0.1-0.1c0,0-0.1-0.1-0.1-0.1c0,0-0.1,0-0.2,0c-1.3,1.7-2.8,3.3-3.3,5.5c1.1,2,2.2,4.1,3.3,6.2c0.2,0.4,0.4,0.8,0.6,1.2
			c0.1,0.3,0.2,0.5-0.1,0.8c-0.4,0-0.6-0.3-0.8-0.6c-0.7-0.9-4-7.4-4.3-8.3c1.2-2.1,3.3-3.7,4.5-6c-1-2.9-1.7-5.9-2.9-8.8
			c-0.5-1.2-1-2.5-1.5-3.8C234.6,71.4,234.5,70.9,234.6,70.3L234.6,70.3z M258,83.9c0-0.3,0-0.5-0.1-0.5c-1.3-2.9-2.5-5.8-3.9-8.6
			c-0.8-1.6-2.2-2.7-4.2-3c-2.4,3.8-5.1,7.4-8,10.9c-0.2,0.2-0.2,0.4-0.3,0.6c0.3,1.3,0.9,2.5,1.3,3.6c0.4,1.1,0.9,2.3,1.4,3.4
			c0.5,1.1,0.7,2.4,1.5,3.5C250,90.6,254.2,87.5,258,83.9L258,83.9z"/>
		<path class="st1" d="M280.9,71.6c-2.5-1.3-5.1-2.2-7.7-3.1c-0.1-0.1-0.2-0.2-0.3-0.2c-0.3-0.4-0.4-0.7-0.4-1.1
			c0.3-3,0-5.9,0.4-8.9c0.6-4,0.7-8.1,1.1-12.2c0.1-0.9,0.1-1.7,0.6-2.6c2.6-1.4,5.6-1.1,8.2-1.8c0.6,0.2,0.7,0.6,1,0.9
			c-0.1,2.7-0.6,5.3-1,7.8c-0.2,1.4-0.3,2.8-0.2,4.2c0.1,1.4-0.1,2.8-0.2,4.2c-0.1,0.9-0.2,1.7-0.2,2.6c-0.2,2.7-0.6,5.4-0.9,8.1
			C281.3,70.1,281.2,70.8,280.9,71.6L280.9,71.6z M280.5,69.7c-0.3-3,0.1-5.6,0.8-8.3c0.1-0.5,0.1-1,0.2-1.4
			c0.8-5.2,0.6-10.6,1.3-15.8c0.1-0.5,0.2-1.2-0.2-1.8c-2.3,0.1-4.5,0.5-6.6,1.5c-0.6,0.3-1.1,0.7-1.1,1.4c0,1.2-0.3,2.3-0.4,3.5
			c-0.4,4.7-0.7,9.5-1,14.2c-0.1,1.1,0,2.2,0.1,3.3c0,0.4,0.1,0.8,0.4,1.2C276,68.5,277.9,69.8,280.5,69.7z"/>
		<path class="st1" d="M217.7,89.4c3.4,4,6.8,8,10.3,12c-1.6,2.7-3.6,4.6-6.5,5.1c-0.9-0.3-1.2-0.7-1.4-1.3c-0.5-1-1.1-2.1-1.5-3.1
			c-0.3-0.7-0.7-1.4-1.4-1.8c-0.6-0.2-1.1,0.1-1.7,0.3c-1.5,0.8-2.9,1.8-4.3,2.7c-1.3,0.8-2.7,1.4-4.3,1.4c-0.9-1-0.9-2.4-1.6-3.5
			c-0.6-1.1-1.3-2.2-1.5-3.4c0.4-0.6,1-0.9,1.6-1.2c3.2-2,6.4-4,9.7-6C215.7,90,216.6,89.7,217.7,89.4L217.7,89.4z M217.4,98.9
			c0.8,0.4,1.1,1.2,1.3,1.9c0.5,1.4,1.2,2.7,2.1,4c0.6,0.9,1.3,1,2.1,0.4c1.3-1,2.4-2.2,3.4-3.4c-0.1-0.8-0.5-1.2-0.9-1.7
			c-0.6-0.7-1.2-1.4-1.8-2.1c-1.6-1.9-3.1-3.7-4.7-5.5c-0.6-0.7-1.2-1.5-2.1-1.9c-2.3,0.4-10,5.3-12.2,7.2c1,1.8,1.9,3.8,2.4,5.9
			c1.5,0.1,1.7,0.1,2.8-0.5c1.9-1.1,3.6-2.3,5.3-3.6C215.8,99.2,216.5,98.8,217.4,98.9L217.4,98.9z"/>
		<path class="st1" d="M226.8,72.4c-1.1,2-2.1,3.8-3.2,5.6c-0.7,1.2-1.5,2.4-2.1,3.6c-0.5,1.1-1.4,2.1-2.1,3.1
			c-0.4,0.6-0.9,0.8-1.7,0.9c-1.6-0.8-3.7-1-4.7-2.9c-0.1-0.8,0.3-1.4,0.7-2c0.4-0.6,0.9-1.3,1.2-2c1.1-2.5,2.6-4.8,4.1-7.1
			c0.4-0.7,1-1.1,1.8-0.9C222.7,71.3,224.7,71.8,226.8,72.4L226.8,72.4z M217.9,84.7c0.9-0.5,1.4-1.1,1.7-1.8
			c1.3-2.7,2.9-5.2,4.5-7.6c0.4-0.6,0.8-1.3,1-2.1c-1-0.4-1.9-0.7-2.8-1c-1-0.3-1.9-0.2-2.8,0.4c-0.3,0.5-0.7,1-0.9,1.6
			c-1.1,2.3-2.3,4.5-3.5,6.7c-0.3,0.6-0.4,1.3-0.3,2.1C215.6,83.7,216.7,84.3,217.9,84.7L217.9,84.7z"/>
		<path class="st1" d="M224.3,68.8c-1-0.5-2.1-0.8-2.3-2.1c1.6-3,3.6-5.8,6-8.3c0.6,0.3,0.8,0.8,1.1,1.2c0.7,0.9,1.5,1.7,2.3,2.4
			c0.5,0.4,1,0.8,0.8,1.8C230.1,66,226.9,67,224.3,68.8L224.3,68.8z M224.9,67.3c1.4-1,2.7-1.8,4.2-2.3c0.7-0.3,1.4-0.7,1.8-1.4
			c-0.5-1.3-1.7-2.9-2.8-3.7c-1.5,1.9-3,3.8-4.3,5.8c-0.1,0.2-0.3,0.5-0.1,0.9C223.9,66.9,224.4,67.1,224.9,67.3L224.9,67.3z"/>
		<path class="st1" d="M249.7,43.9c0.7-2.3,2.1-4,3.4-5.8c0.5-0.2,1-0.6,1.7-0.7c2,0.3,3.2,1.7,3.9,3.6c0.4,1.2,0,2.4-1,3.1
			c-1.3,1-2.8,1.8-4.4,2.3c-0.2,0.1-0.4,0-0.7,0C251.6,45.7,250.9,44.5,249.7,43.9L249.7,43.9z M253.1,45.3c1.7-0.1,3.1-0.8,4.2-1.9
			c0.7-0.6,0.8-1.4,0.4-2.3c-0.3-0.7-0.8-1.2-1.3-1.8c-0.7-0.8-1.6-1.1-2.7-0.8c-0.9,1.5-1.8,3.1-3,4.5
			C251.6,43.9,252.2,44.7,253.1,45.3z"/>
		<path class="st1" d="M68.8,216.6c-0.3-1.1-0.6-2.1-0.9-3.2c-0.6-2.2-2.1-3.4-4.3-3.8c-0.7-0.1-1.3-0.2-2-0.3
			c-0.6-0.1-1.2-0.2-1.7-0.3c-2.1-0.4-3.6-1.7-4.4-3.7c-0.6-1.5-0.9-3-0.8-4.6c0.2-3.4,1.9-5.7,5-7.1c1.7-0.8,3.4-1.4,5.1-2.2
			c1.6-0.7,3-1.6,4.1-2.9c0.5-0.6,0.9-1.2,1.2-1.8c0.6-1.3,1.1-2.7,1.7-4c0.5-1.2,1.2-2.3,2.3-3.2c1-0.8,2.1-1.3,3.4-0.8
			c0.4,0.2,0.8,0.1,1.1,0.2c2.7,0.2,4.5,1.7,5.8,3.9c0.6,1.1,1,2.3,1.2,3.6c0.7,4.3,0.3,8.4-2,12.3c-1.4,2.3-2.3,4.8-2.8,7.5
			c-0.5,2.3-0.9,4.6-1.4,6.9c-0.3,1.4-0.7,2.7-1.3,4c-0.9,1.7-2.2,2.8-4.1,3.2c-1.9,0.3-3.3-0.4-4.3-2
			C69.3,217.7,69.1,217.1,68.8,216.6C68.9,216.6,68.9,216.6,68.8,216.6z M61.3,193.9C61.3,193.9,61.3,193.9,61.3,193.9
			c-0.5,0.2-1,0.4-1.5,0.6c-2.7,1.2-4.2,3.3-4.3,6.2c-0.1,1.6,0.2,3.2,1,4.7c0.7,1.4,1.8,2.3,3.3,2.6c0.9,0.2,1.7,0.3,2.6,0.4
			c1,0.1,1.9,0.3,2.8,0.6c1.9,0.7,3.1,2.1,3.6,4.1c0.2,0.8,0.4,1.6,0.6,2.4c0.2,0.8,0.5,1.6,0.9,2.3c0.8,1.5,2.2,2,3.8,1.5
			c1.4-0.5,2.3-1.3,3-2.6c0.5-1,0.8-2.1,1-3.2c0.4-2.1,0.8-4.1,1.2-6.2c0.6-3.3,1.8-6.5,3.5-9.4c2.5-4.2,2.6-8.7,1.2-13.2
			c-0.7-2.1-2-3.8-4.3-4.3c-0.4-0.1-0.7-0.2-1.1-0.4c-1.5-0.7-2.8-0.3-4,0.8c-0.9,0.8-1.6,1.8-2.1,3c-0.5,1.2-1,2.4-1.5,3.6
			c-1,2.4-2.7,4.1-5.2,5C64.3,192.9,62.8,193.4,61.3,193.9L61.3,193.9z"/>
		<path class="st1" d="M60.6,238c-0.2,1.1-0.9,1.6-1.6,2.1c-1.5,0.9-3,1.9-4.5,2.8c-2,1.2-4,2.6-5.9,4c-1.1,0.7-1.9,1.8-3.1,2.4
			c-0.7-0.5-1.1-1.2-1.4-2c-1.1-2.7-1.8-5.5-2.6-8.3c0-0.1,0-0.2,0-0.3c0.2-0.7,0.8-1,1.4-1.4c1.4-0.8,2.8-1.8,4.1-2.8
			c2.4-1.8,5-3.5,7.6-5.1c0.7-0.4,1.4-0.6,2.2-0.6c0.3,0.1,0.5,0.3,0.6,0.5C58.6,232.1,59.8,235.1,60.6,238z M45.4,247.8
			c0.9-0.5,1.5-1.1,2.2-1.6c1.2-1,2.4-1.9,3.8-2.6c2.4-1.1,4.5-2.7,6.7-4.1c1.3-0.8,1.6-1.9,1.2-3.3c-0.5-1.7-1-3.4-1.7-4.9
			c-0.2-0.5-0.5-1-1-1.4c-0.5-0.2-1-0.1-1.4,0.1c-2.4,1.5-4.9,2.8-7,4.7c-1.5,1.4-3.2,2.6-5.1,3.4c-0.4,0.2-0.8,0.4-0.9,1.1
			C43.6,241.9,43.9,245,45.4,247.8L45.4,247.8z"/>
		<path class="st1" d="M40,234.6c-1.6-1.9-3.2-7.4-3.2-10.7c3.1-2.1,6.1-4.4,9.3-6.5c0.9-0.6,1.8-1.2,2.7-1.8
			c1.1-0.7,2.3-1.2,3.4-1.5c0.8,0.3,1,0.8,1.3,1.3c0.7,1.3,2.5,6.7,2.6,8.3c-0.3,0.5-0.8,0.8-1.4,1c-2.1,1-4.1,2.1-5.9,3.6
			c-2,1.6-4.1,3.1-6.1,4.8C42,233.9,41.1,234.5,40,234.6L40,234.6z M51.8,214.8c-0.5,0-0.8,0.2-1.2,0.4c-0.8,0.5-1.7,1-2.4,1.6
			c-3,2.3-5.9,4.6-9.1,6.5c-0.6,0.4-1.2,0.8-1.5,1.6c0.7,2.7,0.8,5.8,2.8,8.1c0.6,0,0.9-0.2,1.3-0.5c0.9-0.6,1.7-1.3,2.5-2
			c1.9-1.6,3.8-3.2,6-4.3c1.3-0.7,2.6-1.4,3.9-2c0.5-0.2,1-0.4,1.3-1.2c-0.9-2.3-1.5-4.9-2.6-7.4C52.6,215.3,52.3,214.9,51.8,214.8
			L51.8,214.8z"/>
		<path class="st1" d="M39.9,178.8c1.3,0.4,2.3,1.3,3.2,2.1c0.3,0.7,0,1.2-0.3,1.7c-0.4,0.7-0.7,1.4-0.9,2.1
			c-0.3,1.1-0.8,2.1-1.3,3.1c-2.5,5-4.4,10.3-6.5,15.5c-0.3,0.9-0.7,1.7-1.2,2.5c-0.3,0.5-0.6,1-1.1,1.2c-1.7-0.4-2.8-1.6-3.6-4
			c0.9-2.4,1.9-4.8,3-7.2c2.3-4.9,4.5-9.8,7-14.6C38.7,180.3,38.8,179.3,39.9,178.8L39.9,178.8z M32.8,205c0.9-1.7,1.5-3.6,2.2-5.4
			c1.8-4.7,3.4-9.4,5.7-13.9c0.3-0.6,0.5-1.4,0.8-2c0.2-0.7,0.7-1.3,0.7-2.1c-0.6-0.7-1.2-1.3-2-1.8c-0.9,0.1-1.1,0.8-1.3,1.4
			c-2.2,4.9-4.4,9.7-6.6,14.6c-0.9,2.1-1.7,4.2-2.6,6.3c-0.5,1.1,0.1,1.9,0.8,2.6C31,205.4,31.8,205.7,32.8,205L32.8,205z"/>
		<path class="st1" d="M47.6,176.7c-1.5-1.1-2.5-2.6-3.9-3.8c-0.2-0.8,0.2-1.7,0.5-2.5c2-4.8,4.5-9.3,7.2-13.7
			c0-0.1,0.1-0.1,0.2-0.2c0.4-0.2,0.8-0.3,1.2,0c1.3,0.8,2.7,1.3,4,2c0.2,0.7-0.1,1.1-0.4,1.6c-0.7,1.4-1.3,2.8-2.2,4.1
			c-1.7,2.6-2.8,5.5-4.1,8.4c-0.5,1.1-1,2.2-1.4,3.4C48.5,176.4,48.2,176.7,47.6,176.7L47.6,176.7z M52,157
			c-0.3,0.4-0.5,0.7-0.7,1.1c-1.7,3-3.4,6-4.9,9.1c-0.7,1.4-1.3,2.8-1.8,4.3c-0.1,0.4-0.3,0.7-0.2,1.2c1,1.2,2.1,2.2,3.5,3.1
			c0.9-1.4,1-2.9,1.7-4.2c0.6-1.4,1.2-2.8,1.8-4.1c0.7-1.4,1.4-2.8,2.2-4.1c0.7-1.3,1.7-2.5,2.4-3.9C54.7,158.3,53.3,157.8,52,157
			L52,157z"/>
		<path class="st1" d="M65.3,184.4c-2.2,0.1-4.6-0.2-6.7,1.2c-2.1-1.3-2.8-3.3-3.1-5.6c1.3-1.8,2.9-2.9,4.8-3.8
			c0.9-0.4,1.5-0.2,2.1,0.5c1.3,1.8,2.4,3.7,3.1,5.9C65.6,183.2,65.8,183.7,65.3,184.4L65.3,184.4z M64.8,183.6
			c-0.5-2.1-1.3-4-2.5-5.7c-0.6-0.9-1.4-1.1-2.4-0.6c-1.3,0.6-2.6,1.4-3.5,2.5c0,1.5,0.7,3.2,2.1,5c1.1,0.1,2-0.6,3.1-0.8
			S63.7,183.8,64.8,183.6z"/>
		<path class="st1" d="M67.2,103.9c-0.5-0.5-0.8-1.1-1-1.8c-0.6-1.9-1.2-3.7-1.7-5.6c-0.4-1.3-0.8-2.6-1.3-3.9
			c-0.3-0.8-0.5-1.7-0.2-2.7c2.1-0.8,4.3-1.4,6.6-1.6c4-0.3,8-0.4,11.9-0.1c1.1,0.1,2.2,0.1,3.4,0.7c0.7,2.2,1.5,4.5,1.7,7
			c0,0.6,0,1.2-0.5,1.5c-5.6,1.3-10.9,3.5-16.2,5.6c-0.6,0.2-1.3,0.5-1.9,0.7C67.8,103.9,67.5,103.8,67.2,103.9L67.2,103.9z
			 M84.1,89.2c-1.4-0.4-2.7-0.3-4-0.3c-5-0.2-9.9,0.5-14.8,1.4c-0.5,0.1-0.9,0.3-1.2,0.8c-0.2,0.6,0,1.1,0.2,1.7
			c0.8,3.5,2.8,6.5,3.3,10c0.3,0.2,0.6,0.2,0.8,0.1c1.2-0.3,2.4-0.6,3.5-1c3.5-1.4,7-2.9,10.6-4.2c1-0.4,2.1-0.7,3.2-1.3
			C86,93.7,84.9,91.5,84.1,89.2L84.1,89.2z"/>
		<path class="st1" d="M175.5,274.6c0.1,0.8,0,1.7-0.1,2.6c-0.6,3.6-1.2,7.2-1.3,10.8c0,0.2-0.1,0.4-0.1,0.6
			c-3.4,1.6-6.9,2.6-10.6,3.2c-2.2,0.4-4.4,0.6-6.7,0.6c-1.6,0-3.2,0.1-4.8,0.2c-2,0.2-3.8-0.5-5.6-1.3c-0.8-0.4-1.1-1-1-1.9
			c0.1-4.8,0.4-9.5,0.3-14.3c0-0.5,0-1,0.2-1.4c0.6-0.3,1.3-0.3,2-0.3c3.2,0.1,6.4,0,9.6-0.3c0.9-0.1,1.7-0.1,2.6-0.1
			c3.2,0.1,6.4,0.2,9.6,0.3c1.7,0,3.3,0.5,4.9,0.7C174.9,273.9,175.2,274.2,175.5,274.6L175.5,274.6z M174.6,275.8
			c-0.6-0.8-1.2-0.9-1.9-1.1c-0.9-0.2-1.8-0.2-2.8-0.2c-2.1,0-4.3,0-6.4,0c-4.5,0-8.9,0.2-13.4,0c-1.1,0-2.2-0.1-3.4-0.2
			c-0.1,5.4-0.9,10.7,0,16c1.6,0.6,3.1,1.1,4.8,1c4.7-0.1,9.4-0.6,14.1-1.3c2.6-0.4,5-1.2,7.3-2.3c0.1-0.2,0.3-0.4,0.3-0.5
			C173.1,283.3,173.7,279.5,174.6,275.8L174.6,275.8z"/>
		<path class="st1" d="M231.9,307.6c-1,0.1-1.9,1.1-3.1,0.8c-0.6-0.8-0.8-1.7-0.7-2.6c0-0.2,0-0.5,0.1-0.7c0.8-3.5,0.8-7,0.9-10.6
			c0.1-1.9,0.1-3.8,0.5-5.6c0.7-0.4,1.3-0.7,2.2-0.4c1.2,1.2,1.7,2.9,2,4.6c0.3,1.4,0.1,2.9,0,4.4c-0.2,3-0.9,5.9-1.4,8.8
			C232.4,306.7,232.4,307.1,231.9,307.6L231.9,307.6z M231.2,289.8c-0.9,0.2-1,0.8-1,1.5c-0.1,1.2-0.2,2.3-0.3,3.5
			c-0.3,3.6-0.5,7.3-0.8,10.9c0,0.6-0.3,1.2,0.2,1.9c0.8-0.3,1.6-0.6,2.5-1c0.1-2,0.6-3.9,1-5.9c0.3-1.7,0.6-3.4,0.6-5.1
			C233.4,293.4,233.1,291.3,231.2,289.8L231.2,289.8z"/>
		<path class="st1" d="M192.8,282.5c1.6,0,3.3,0,4.9,0c0.6,0.6,0.6,1.2,0.5,1.9c-0.1,1.3-0.2,2.6-0.4,3.9c-0.3,2.2-0.6,4.3-0.9,6.6
			c-1.7,0.7-3.3,1.6-5.2,1.7c-0.2-0.1-0.4-0.2-0.4-0.4c-0.4-1.2-0.7-2.3-0.5-3.6c0.4-2.9,0.6-5.8,1.3-8.6
			C192.2,283.5,192.2,283,192.8,282.5z M197.2,283.3c-1.5-0.3-3-0.2-4.5,0.3c-0.7,3.3-1.3,6.5-1.5,9.7c0,0.6-0.1,1.3,0.5,1.8
			c1.1,0.1,3.7-0.5,4.4-1.1c0.4-0.3,0.5-0.8,0.6-1.3c0.3-2.6,0.6-5.2,0.8-7.8C197.6,284.5,197.7,284,197.2,283.3L197.2,283.3z"/>
		<path class="st1" d="M202.7,284c1.5,0.2,2.7,0.4,3.9,0.6c1,2.1,0.7,6.3-0.4,8.5c-1.3,0.3-2.7,0.4-4.2-0.1
			C201.8,290,201.5,287,202.7,284L202.7,284z M205.5,292.4c0.8-0.5,0.9-1.3,0.8-2c0-1.6,0.3-3.3-0.5-4.8c-0.9-0.1-1.7-0.3-2.5-0.2
			c-0.5,1.2-0.8,4.8-0.5,6.7C204.1,292.6,204.1,292.6,205.5,292.4L205.5,292.4z"/>
		<path class="st1" d="M241.8,290c-0.6-0.6-0.8-1.3-0.8-2c-0.1-1.8-0.1-3.6,0.1-5.4c0.1-0.8,0.3-1.5,0.8-2.2
			c1.1-1.6,3.2-1.6,4.2,0.1c0.9,1.5,1,2.9,0,4.4c-0.9,1.4-1.7,2.7-2.6,4.1C243.2,289.6,242.7,290.1,241.8,290z M243,280.9
			c-0.5,1.3-0.7,5.9-0.3,7.3c0.9-1.2,1.8-2.2,2.5-3.4c0.5-0.8,0.7-1.8,0.4-2.8C245.2,280.7,244.4,280.3,243,280.9L243,280.9z"/>
		<path class="st1" d="M23.3,152.3c0.8,2,1.7,4.1,2.8,6c1.1,1.8,1.4,3.8,2.2,5.7c0.1,0.3,0.1,0.7,0,1.1c-1.2,1.3-3,0.8-4.6,1.3
			c-1-1.9-2-3.7-2.9-5.5c-1.6-0.2-2.8-1.1-3.7-2.5c-0.7-1.2-1.4-2.3-2-3.3c0-0.6,0.2-0.9,0.4-1.3c2.1-3.9,4.6-7.5,7.4-11
			c0.5-0.6,1-1.2,2.1-0.9c1.3,1.3,2.7,2.6,3.6,4.5C26.5,148.1,24.5,149.8,23.3,152.3L23.3,152.3z M27.2,164.8
			c0.2-0.9,0.3-0.9,0.1-1.4c-0.9-2.5-1.8-5-3.1-7.4c-0.6-1.1-1.2-2.2-1.5-3.5c0.8-2.8,3.4-4.3,4.9-6.6c-1-1.1-1.9-2.2-2.8-3.3
			c-1.1-0.1-1.5,0.6-1.9,1.2c-2,2.8-4,5.6-5.8,8.6c-0.4,0.7-0.8,1.3-1,2.2c0.9,1.7,1.8,3.4,2.5,5c1,0.4,1.9,0.1,2.7,0.6
			c0.6,0.8,0.9,1.8,1.3,2.7c1.1,2.5,1.7,2.7,4.3,2.1C27,165,27,164.9,27.2,164.8L27.2,164.8z"/>
		<path class="st1" d="M97.7,273.9c-0.4,0.1-1,0.3-1.6,0.4c-1.8,0.2-2.8-0.9-2.5-2.7c0.1-0.8,0.5-1.5,1-2.1c0.5-0.6,1.1-1.2,1.8-1.7
			c1.2-0.9,2.5-1.6,3.7-2.2c0.7-0.4,1.5-0.5,2.3-0.4c1.6,0.1,2.4,1.2,1.9,2.7c-0.2,0.5-0.4,1-0.8,1.4
			C102.1,271.3,100.2,272.7,97.7,273.9L97.7,273.9z M94.4,272.8c0.5,0.8,1.2,0.8,2,0.6c0.6-0.1,1.2-0.4,1.7-0.8c1.6-1,3-2.2,4.2-3.6
			c0.3-0.4,0.6-0.8,0.8-1.2c0.3-0.5,0.4-1-0.1-1.5c-1.1-0.2-2.2,0-3.2,0.4c-1.7,0.7-3.3,1.8-4.6,3.3
			C94.5,270.8,94.1,271.7,94.4,272.8L94.4,272.8z"/>
		<path class="st1" d="M347.9,186.1c0.8-1.2,1.8-2.3,3-3.1c2.5-1.6,5.2-2.6,8-3.5c0.2-0.1,0.4-0.1,0.6-0.1c0.9,0,1.8,0,2.3,0.9
			c0.5,0.8,0.1,1.6-0.3,2.3c-1.6,2.9-4.2,4.4-7.1,5.4c-1.6,0.6-3.4,0.2-5-0.1C348.5,187.8,348.3,187.4,347.9,186.1L347.9,186.1z
			 M349.1,186.7c2.6,0.9,5.1,0.6,7.6-0.4c1.7-1.5,3.9-2.6,4.6-4.9c-0.4-1.1-1.2-1.1-2-0.9c-3.4,0.7-6.4,2.2-9.1,4.3
			C349.6,185.2,349.2,185.8,349.1,186.7L349.1,186.7z"/>
		<path class="st1" d="M253.1,67.4c-1.2-2.5-1.4-5.1-0.6-7.8c2.7-1.6,5.7-2.3,8.3-3.4c0.7,0.2,0.9,0.7,1,1.2
			c0.7,2.4,1.5,4.8,2.2,7.2c0,0.1,0,0.3,0,0.4c-0.3,0.5-0.8,0.6-1.2,0.7c-2.7,0.7-5.3,1.4-8,2.1C254.1,67.9,253.6,67.8,253.1,67.4
			L253.1,67.4z M260.3,57.5c-1.1,0.1-5.9,2.1-7.1,3c-0.2,0.3-0.1,0.7-0.1,1c0.1,1.4,0.4,2.9,0.2,4.3c-0.1,0.4,0.2,0.8,0.5,1.1
			c1.5,0,7.4-1.8,8.5-2.6c0.2-0.7,0.2-1.3,0-2c-0.2-0.8-0.4-1.6-0.6-2.4C261.7,58.8,261.1,58.1,260.3,57.5L260.3,57.5z"/>
		<path class="st1" d="M242.8,73.8c-2.1,0-3.8-0.8-5.2-2c-0.3-0.9-0.2-1.7,0.1-2.4c1.3-3.5,2.9-6.9,4.9-10.1c0.4-0.7,0.9-1.3,2-1.3
			c1.6,0.6,3,1.8,4,3.1c0.2,0.7,0.1,1.3-0.2,1.8c-1.1,2.5-2.1,5-3.6,7.3C244.1,71.4,243.2,72.4,242.8,73.8L242.8,73.8z M244.2,58.7
			c-1.8,1.8-5.8,10.3-5.8,12.5c1.2,0.8,2.6,1.2,4,1.7c0.4-0.7,0.6-1.3,1-1.8c1.7-2.6,2.9-5.4,4-8.2c0.2-0.5,0.3-0.9,0.1-1.5
			C246.5,60.4,245.7,59.2,244.2,58.7L244.2,58.7z"/>
	</g>
</g>
<g>
	<defs>
		
			<rect id="SVGID_00000182508943379082239390000016280706138512131261_" x="320" y="47.6" transform="matrix(0.4285 -0.9035 0.9035 0.4285 132.7347 372.6187)" width="81.8" height="67.6"/>
	</defs>
	<clipPath id="SVGID_00000096057180427610483660000012869938020989861055_">
		<use xlink:href="#SVGID_00000182508943379082239390000016280706138512131261_"  style="overflow:visible;"/>
	</clipPath>
	<g style="clip-path:url(#SVGID_00000096057180427610483660000012869938020989861055_);">
		<path class="st1" d="M346.4,38.5c0.1,0.3,0.3,0.5,0.4,0.8c0.2,0.3,0.5,0.6,0.7,0.8c0.4,0.4,1,0.8,1.5,1.1c0.2,0.1,0.5,0.3,0.7,0.4
			c0.1,0,0.1,0.1,0.2,0.1c-0.8,1.3-1.5,2.5-2.3,3.8c-0.7,1.1-1.3,2.3-2,3.5c-1.3,2.3-2.5,4.6-3.6,7c-1.2,2.4-2.3,4.8-3.4,7.2
			c-0.6,1.3-1.2,2.7-1.8,4c-0.5,1.2-1,2.5-1.4,3.7c-0.3,0.9-0.6,1.8-0.8,2.7c0,0-0.1,0-0.1,0c-0.2,0.2-0.3,0.4-0.4,0.6
			c-0.4,1.6-0.9,3.2-1.4,4.7c0,0,0-0.1,0.1-0.1c-0.2,0.6-0.4,1.1-0.5,1.7c0-0.1,0.1-0.2,0.1-0.2c-0.3,1-0.6,2-0.9,3.1
			c-0.1,0.4-0.2,0.8-0.3,1.2c-0.1,0.5-0.2,1-0.4,1.5c-0.5,2-0.9,3.9-1.4,5.9c-0.4,1.9-0.9,3.7-1.3,5.5c-0.2,0.9-0.4,1.9-0.5,2.8
			c-0.2,1-0.3,2-0.5,2.9c-0.1,0.9-0.3,1.7-0.5,2.6c-0.1,0.5,0.2,0.9,0.7,1c0.5,0.1,1-0.2,1-0.7c0.1-1.1,0.3-2.2,0.5-3.3
			c0.1-0.9,0.3-1.8,0.4-2.7c0.2-1,0.3-1.9,0.5-2.9c0.2-0.9,0.4-1.9,0.7-2.8c0.4-1.8,0.9-3.7,1.4-5.5c0.5-2,1-4,1.6-6
			c0-0.1,0.1-0.3,0.1-0.4c0.4-1.1,0.7-2.1,1-3.2c0.2,0.1,0.4,0.1,0.6,0.1c-0.6,1.6-1.1,3.2-1.7,4.7c-1.1,3-1.8,6-2.6,9
			c-0.3,1.2-0.6,2.5-0.9,3.7c-0.3,1.2-0.5,2.4-0.7,3.7c-0.2,1.3-0.4,2.6-0.4,3.9c0,0.6,0,1.2,0.1,1.7c0.1,0.5,0.1,1,0.2,1.5
			c-0.1,0-0.1,0-0.2,0c-0.1,0-0.1,0-0.2,0c-0.1,0-0.2-0.1-0.3-0.1c-0.8-0.4-1.8,0-2.2,0.8c-0.4,0.8,0,1.8,0.8,2.2
			c0.4,0.2,0.9,0.4,1.4,0.4c0.3,0,0.5,0,0.8,0c0.3-0.1,0.6-0.1,0.9-0.2c0.5-0.2,1-0.5,1.3-0.8c0.5-0.5,0.7-1.1,0.7-1.7
			c0.1-0.9,0-1.8,0-2.6c0.2-2.9,0.7-5.7,1.3-8.5c0.7-3,1.3-6,2.1-9c0.2-0.6,0.3-1.2,0.5-1.8c0.5-1.4,0.9-2.8,1.4-4.1
			c0.5-1.4,0.9-2.8,1.4-4.2c0.1-0.2,0.2-0.5,0.3-0.7c0.1,0,0.2,0,0.3,0c1,0,2,0.1,3,0.1c0.9,0,1.7,0,2.6,0.1
			c1.1,0.1,2.1,0.2,3.2,0.3c0.6,0.1,1.1,0.1,1.7,0.2c0.8,0.1,1.6,0.2,2.5,0.4c0,0,0,0,0.1,0c0,0,0,0,0,0c0,0.1,0.1,0.1,0.1,0.2
			c0,0.1,0.1,0.2,0.1,0.3c0,0.3,0.1,0.6,0.1,0.9c-0.1,0.9-0.3,1.8-0.5,2.8c0,0.2-0.1,0.4-0.1,0.5c-0.1,0.4-0.2,0.7-0.2,1.1
			c0,0.5,0.1,1,0.2,1.5c0.1,0.6,0.5,1,0.9,1.4c0.3,0.4,0.8,0.6,1.3,0.8c0.5,0.2,1,0.3,1.5,0.5c0.5,0.1,1,0.2,1.5,0.2
			c0.6,0.1,1.2,0.1,1.8,0.2c1.4,0.1,2.7,0.1,4.1,0.1c1.7,0,3.3,0,5,0c1.6,0,3.2-0.1,4.8-0.1c3.9-0.1,7.8-0.2,11.6-0.1
			c1.6,0.1,3.1,0.2,4.6,0.4c0.3,0,0.5,0,0.8-0.1c0.2,0.7,0.9,1.3,1.7,1.2c0.9-0.1,1.5-0.9,1.5-1.7c0,0,0,0,0,0
			c0.6,0.1,1.2-0.4,1.3-1c0.3-1.4,0.7-2.7,1.1-4.1c0,0,0,0,0,0c1.4-4.3,3.2-8.5,4.8-12.7c0.1-0.3,0.1-0.7,0-1c0-0.1,0.1-0.2,0.1-0.2
			c0.6,0,1.1,0.1,1.7,0.1c0,0,0,0,0,0c0.2,0.1,0.4,0.1,0.6,0.1c0.4,0,0.8-0.2,1-0.5c0.3-0.3,0.4-0.7,0.4-1.1c0-0.4-0.2-0.8-0.5-1
			c-0.2-0.1-0.3-0.2-0.5-0.3c-0.1-0.1-0.2-0.1-0.4-0.1c-0.2,0-0.3-0.1-0.5-0.1c-0.2,0-0.4,0-0.6,0c-0.4,0-0.8,0-1.2-0.1
			c-0.9,0-1.8-0.1-2.7-0.1c-1.4-0.1-2.8-0.1-4.2-0.1c-3.1-0.1-6.3-0.1-9.4-0.1c-1.9,0-3.9,0-5.8-0.1c-1.5-0.1-2.9-0.2-4.4-0.6
			c-0.2-0.1-0.4-0.2-0.6-0.2c-0.1,0-0.1-0.1-0.2-0.1c0,0-0.1-0.1-0.1-0.1c0-0.1,0-0.3,0-0.4c0.2-2.6,1-5.2,0.4-7.8
			c-0.2-1-0.7-1.9-1.4-2.6c-0.3-0.4-0.7-0.7-1.1-1c-0.5-0.3-1-0.6-1.6-0.8c-0.6-0.2-1.2-0.4-1.8-0.5c-0.4-0.1-0.7-0.2-1.1-0.3
			c-0.7-0.2-1.4-0.3-2.2-0.5c-0.7-0.1-1.5-0.3-2.3-0.4c-0.8-0.1-1.7-0.2-2.5-0.3c-0.8-0.1-1.6-0.1-2.4-0.2c-1.9-0.2-3.9-0.3-5.8-0.4
			c0.4-0.7,0.8-1.4,1.2-2.1c0.8-1.3,1.7-2.5,2.6-3.7c0,0,0,0,0,0c0.2,0.1,0.5,0.2,0.7,0.2c1.1-0.1,2.3-0.3,3.2-1
			c0.4-0.3,0.6-0.6,0.8-1c0.1-0.2,0.2-0.4,0.2-0.6c0-0.2,0.1-0.4,0.1-0.5c0.1-0.6,0.1-1.2,0-1.7c-0.2-1.4-0.9-2.7-2-3.7
			c-0.3-0.3-0.7-0.5-1-0.7c-0.1-0.1-0.2-0.1-0.4-0.2c-0.1-0.1-0.3-0.1-0.4-0.2c-0.5-0.2-1.1-0.4-1.7-0.6c-0.8-0.2-1.6-0.2-2.5-0.2
			c-0.6,0-1.3,0-1.9-0.1c0.1-0.2,0.1-0.5,0-0.7c-0.1-0.3-0.3-0.6-0.6-0.7c-0.3-0.1-0.6-0.1-1,0c-0.6,0.2-1.2,0.4-1.7,0.7
			c-0.3,0.2-0.5,0.5-0.7,0.7c0,0,0,0,0,0c-0.6,0-1,0.6-0.9,1.2c0,0.2,0.1,0.3,0.1,0.4c-0.1,0.2-0.1,0.4-0.2,0.5
			c-0.1,0.4-0.1,0.8-0.1,1.1c0,0.1,0,0.2,0.1,0.4c0,0.2,0.1,0.5,0.2,0.7C346.1,38,346.2,38.3,346.4,38.5z M402.3,69.4
			c0,0-0.1,0-0.1,0C402.2,69.4,402.2,69.4,402.3,69.4z M332.8,78.8C332.8,78.8,332.8,78.8,332.8,78.8c0,0,0,0.1-0.1,0.2
			C332.8,79,332.8,78.9,332.8,78.8z M373.5,64.6C373.5,64.6,373.5,64.5,373.5,64.6C373.5,64.5,373.5,64.5,373.5,64.6z M373.5,64.5
			C373.5,64.5,373.5,64.5,373.5,64.5C373.5,64.4,373.5,64.5,373.5,64.5L373.5,64.5z M355.9,52.2c0.6,0,1.2,0.1,1.8,0.1
			c0.7,0.1,1.4,0.1,2,0.2c0.8,0.1,1.6,0.2,2.4,0.3c0.3,0,0.5,0.1,0.8,0.1c0.5,0.1,0.9,0.2,1.4,0.2c0.7,0.1,1.4,0.3,2.1,0.5
			c0.7,0.2,1.5,0.4,2.2,0.6c0.4,0.1,0.8,0.3,1.2,0.5c0.2,0.2,0.5,0.4,0.7,0.6c0.2,0.2,0.4,0.5,0.5,0.8c0.1,0.3,0.2,0.6,0.3,1
			c0.1,0.5,0.1,1.1,0.1,1.6c-0.1,1.2-0.3,2.3-0.5,3.5c-0.1,0.4-0.1,0.7-0.2,1.1c-0.1,0.5-0.1,1-0.1,1.5c0,0.6,0.2,1.2,0.6,1.7
			c0.3,0.5,0.7,0.8,1.2,1.1c0.4,0.2,0.8,0.4,1.3,0.5c1.1,0.4,2.3,0.6,3.5,0.7c1.1,0.1,2.3,0.1,3.4,0.2c3.2,0.1,6.4,0.1,9.6,0.2
			c1.9,0,3.9,0.1,5.8,0.1c0.7,0,1.3,0,2,0.1c-1.2,2.6-2.4,5.2-3.7,7.8c-0.7,1.4-1.3,2.8-2,4.2c-0.6,1.5-1.3,3-1.8,4.5
			c0,0.1-0.1,0.2-0.1,0.4c0,0,0,0-0.1,0c-0.1-0.1-0.3-0.1-0.4-0.1c-1.7-0.2-3.4-0.3-5.2-0.3c-1.4,0-2.8,0-4.2,0.1
			c-3.2,0.1-6.4,0.2-9.5,0.4c-3.7,0.1-7.3,0.2-11,0c-1.4-0.1-2.8-0.2-4.1-0.6c-0.3-0.1-0.5-0.2-0.8-0.4c-0.1-0.1-0.2-0.1-0.2-0.2
			c0,0,0-0.1-0.1-0.1c0,0,0,0,0-0.1c0-0.2,0-0.4-0.1-0.6c0.1-0.5,0.3-1.1,0.4-1.6c0.1-0.5,0.2-1,0.3-1.5c0.2-1.2,0.3-2.7-0.3-3.8
			c-0.2-0.4-0.4-0.7-0.7-1c-0.3-0.3-0.6-0.5-0.9-0.6c-0.2-0.1-0.4-0.1-0.6-0.2c-0.2,0-0.3-0.1-0.5-0.1c-0.4-0.1-0.8-0.1-1.3-0.2
			c-0.9-0.1-1.9-0.2-2.8-0.3c-1.1-0.1-2.3-0.2-3.4-0.3c0.1,0,0.2,0,0.2,0c-1.7-0.1-3.3-0.1-5-0.2c0.1-0.3,0.2-0.6,0.4-1
			c0.5-1.4,1-2.8,1.6-4.2c0.6-1.4,1.2-2.8,1.9-4.2c0.6-1.4,1.3-2.7,1.9-4.1c0.7-1.4,1.3-2.8,2-4.2c0.7-1.4,1.4-2.8,2.1-4.2
			c0.1-0.2,0.2-0.5,0.4-0.7C352.3,52.1,354.1,52.2,355.9,52.2L355.9,52.2z M355.3,36c0.6,0.2,1.2,0.4,1.7,0.8
			c0.3,0.2,0.5,0.4,0.7,0.6c0.2,0.3,0.4,0.6,0.6,0.9c0.1,0.2,0.2,0.5,0.3,0.7c0.1,0.3,0.1,0.7,0.1,1c0,0.3-0.1,0.5-0.1,0.8
			c0,0.1-0.1,0.1-0.1,0.2c-0.1,0.1-0.1,0.1-0.2,0.2c-0.1,0.1-0.2,0.1-0.2,0.2c-0.2,0.1-0.3,0.1-0.5,0.2c-0.4,0.1-0.8,0.1-1.3,0.1
			c-0.4,0-0.7,0.3-0.9,0.6c-0.4-0.2-0.9-0.1-1.2,0.3c-1,1.4-2.1,2.7-3,4.2c-0.8,1.3-1.6,2.7-2.4,4c-0.8,1.4-1.6,2.8-2.4,4.1
			c-0.8,1.4-1.5,2.7-2.2,4.1c-1.4,2.7-2.7,5.4-4,8.2c-0.6,1.3-1.1,2.7-1.7,4.1c-0.3,0.8-0.6,1.6-1,2.4c0.2-0.6,0.3-1.2,0.5-1.7
			c0,0,0,0.1,0,0.1c0.2-0.5,0.3-1.1,0.5-1.6c0.2-0.6,0.5-1.3,0.7-1.9c0.5-1.3,1.1-2.6,1.6-3.9c1.1-2.5,2.2-5,3.3-7.4
			c0.5-1.2,1.1-2.4,1.7-3.6c0.5-1.1,1.1-2.2,1.7-3.3c0.6-1.2,1.3-2.3,1.9-3.4c1-1.6,1.9-3.2,2.9-4.8c0.1-0.2,0.3-0.4,0.4-0.6
			c0.1-0.2,0.1-0.6,0-0.8c-0.1-0.3-0.3-0.5-0.5-0.6c-0.3-0.1-0.5-0.1-0.8,0c-0.1,0-0.1-0.1-0.1-0.1c-0.3-0.2-0.5-0.4-0.8-0.6
			c-0.5-0.3-0.9-0.7-1.3-1.1c-0.2-0.2-0.4-0.5-0.5-0.7c-0.1-0.3-0.2-0.5-0.3-0.8c0-0.1,0-0.2,0-0.2c0-0.2,0.1-0.4,0.1-0.6
			c0-0.1,0.1-0.2,0.1-0.2c1.1,0,2.1,0,3.2,0C352.9,35.6,354.1,35.6,355.3,36L355.3,36z"/>
		<path class="st1" d="M351,56.5c0,0.1,0.1,0.1,0.2,0.1c0.1,0,0.2,0,0.2-0.1c1.8-1,3.6-2,5.4-3c0.2-0.1,0.2-0.3,0.1-0.5
			c0,0-0.1-0.1-0.1-0.1c0,0-0.1,0-0.1,0c-0.1,0-0.2,0-0.2,0.1c-1.8,1-3.6,2-5.4,3C350.9,56.2,350.9,56.4,351,56.5z"/>
		<path class="st1" d="M353.6,57.2c-0.6,0.4-1.1,0.8-1.7,1.2c-0.7,0.5-1.3,0.9-1.9,1.4c-0.1,0.1-0.2,0.3-0.1,0.5
			c0.1,0.1,0.3,0.2,0.5,0.1c0.6-0.5,1.3-1,1.9-1.4c0.5-0.4,1.1-0.8,1.7-1.1c0.5-0.3,1-0.7,1.5-1c0.8-0.5,1.6-1.1,2.4-1.6
			c0.2-0.1,0.2-0.3,0.1-0.5c0,0-0.1-0.1-0.1-0.1c-0.1,0-0.2,0-0.3,0c-0.8,0.5-1.6,1.1-2.4,1.6C354.6,56.5,354.1,56.9,353.6,57.2z"/>
		<path class="st1" d="M354,59.9c-0.4,0.3-0.8,0.5-1.3,0.8c-0.6,0.3-1.1,0.7-1.7,1.1c-0.4,0.2-0.8,0.5-1.1,0.8
			c-0.2,0.1-0.3,0.2-0.4,0.3c-0.1,0.1-0.3,0.2-0.4,0.3c-0.2,0.1-0.3,0.3-0.5,0.4c-0.1,0.1-0.2,0.3-0.1,0.5c0.1,0.1,0.3,0.2,0.5,0.1
			c0.2-0.2,0.4-0.3,0.6-0.5c0.2-0.1,0.3-0.2,0.5-0.3c0.1-0.1,0.2-0.2,0.3-0.2c0.2-0.1,0.4-0.3,0.6-0.4c0.2-0.2,0.5-0.3,0.7-0.5
			c0.3-0.2,0.6-0.4,1-0.6c0.2-0.1,0.5-0.3,0.7-0.4c0.4-0.3,0.8-0.5,1.2-0.8c0.5-0.3,0.9-0.6,1.4-0.8c0.6-0.3,1.2-0.7,1.7-1
			c0.7-0.4,1.3-0.8,2-1.1c0.2-0.1,0.2-0.3,0.1-0.5c0,0-0.1-0.1-0.1-0.1c0,0-0.1,0-0.1,0c-0.1,0-0.2,0-0.2,0.1
			c-0.9,0.5-1.8,1-2.7,1.6c-0.7,0.4-1.4,0.8-2,1.2C354.4,59.6,354.2,59.7,354,59.9L354,59.9z"/>
		<path class="st1" d="M354.9,63c-0.4,0.2-0.7,0.5-1,0.8c-0.8,0.6-1.5,1.1-2.3,1.7c-0.1,0.1-0.3,0.2-0.4,0.3
			c-0.3,0.2-0.5,0.4-0.8,0.7c-1.1,0.9-2.2,1.8-3.2,2.7c-0.6,0.5-1.1,1-1.6,1.5c-0.1,0.1-0.1,0.4,0,0.5c0.1,0.1,0.3,0.1,0.5,0
			c0.2-0.2,0.4-0.4,0.6-0.5c0.1-0.1,0.2-0.2,0.4-0.3c0.5-0.4,1-0.8,1.5-1.2c0.5-0.4,1-0.8,1.5-1.2c0.4-0.3,0.8-0.6,1.2-0.9
			c0.2-0.2,0.4-0.3,0.6-0.5c0.6-0.4,1.2-0.9,1.7-1.3c0.6-0.4,1.2-0.9,1.8-1.3c0.1-0.1,0.2-0.1,0.3-0.2c0.3-0.2,0.6-0.4,0.9-0.6
			c1.4-0.9,2.7-1.9,4.1-2.8c0.6-0.4,1.3-0.9,1.9-1.3c0.2-0.1,0.2-0.4,0.1-0.6c0-0.1-0.1-0.1-0.2-0.1c-0.1-0.1-0.3-0.1-0.4,0
			c-0.9,0.6-1.9,1.3-2.8,1.9c-0.8,0.5-1.5,1-2.2,1.6C356.3,62.1,355.6,62.5,354.9,63L354.9,63z"/>
		<path class="st1" d="M355.3,66.7c-1.9,1.2-3.8,2.5-5.7,3.7c-0.2,0.1-0.2,0.4-0.1,0.6c0.1,0.2,0.4,0.2,0.6,0.1
			c2.5-1.5,5-3.1,7.5-4.7c2.1-1.3,4.2-2.7,6.3-4c0.2-0.2,0.3-0.5,0.1-0.7c-0.1-0.1-0.1-0.1-0.2-0.2c-0.2-0.1-0.4-0.1-0.5,0
			c-1.5,0.9-3,1.9-4.5,2.9C357.7,65.2,356.5,66,355.3,66.7L355.3,66.7z"/>
		<path class="st1" d="M377.2,84.2c0.1,0.2,0.3,0.2,0.5,0.1c1.2-0.8,2.5-1.6,3.8-2.3c1.4-0.8,2.8-1.6,4.1-2.4
			c0.2-0.1,0.2-0.4,0.1-0.6c0-0.1-0.1-0.1-0.2-0.1c-0.1-0.1-0.3,0-0.4,0c-1.4,0.8-2.7,1.6-4.1,2.4c-1.3,0.8-2.6,1.5-3.8,2.4
			C377.2,83.8,377.1,84.1,377.2,84.2L377.2,84.2z"/>
		<path class="st1" d="M382.5,82.8c-0.4,0.3-0.9,0.7-1.3,1c-0.5,0.4-1,0.7-1.5,1.1c-0.1,0.1-0.2,0.3-0.1,0.5
			c0.1,0.1,0.3,0.2,0.5,0.1c0.3-0.2,0.6-0.4,0.9-0.6c0.2-0.1,0.4-0.3,0.6-0.4c0.4-0.3,0.9-0.6,1.3-1c0.4-0.3,0.8-0.6,1.2-0.9
			c0.6-0.5,1.2-0.9,1.8-1.4c0.2-0.1,0.2-0.3,0.1-0.5c0-0.1-0.1-0.1-0.1-0.1c-0.1-0.1-0.3-0.1-0.4,0c-0.6,0.5-1.2,0.9-1.7,1.4
			C383.3,82.2,382.9,82.5,382.5,82.8L382.5,82.8z"/>
		<path class="st1" d="M384.4,84.8c0.1,0.1,0.3,0.2,0.5,0.1c0.8-0.6,1.5-1.3,2.3-1.9c0.1-0.1,0.1-0.1,0.1-0.2c0-0.1,0-0.2-0.1-0.2
			c0,0-0.1-0.1-0.1-0.1c-0.1,0-0.2,0-0.3,0c-0.8,0.6-1.5,1.3-2.3,1.9c-0.1,0.1-0.1,0.1-0.1,0.2C384.3,84.7,384.3,84.7,384.4,84.8z"
			/>
	</g>
</g>
</svg>
