<?xml version="1.0" encoding="utf-8"?>
<!-- Generator: Adobe Illustrator 27.1.1, SVG Export Plug-In . SVG Version: 6.00 Build 0)  -->
<svg version="1.1" id="Слой_1" xmlns="http://www.w3.org/2000/svg" xmlns:xlink="http://www.w3.org/1999/xlink" x="0px" y="0px"
	 viewBox="0 0 31.2 31.7" style="enable-background:new 0 0 31.2 31.7;" xml:space="preserve">
<style type="text/css">
	.st0{fill:#D9D9D9;filter:url(#Adobe_OpacityMaskFilter);}
	.st1{mask:url(#mask0_1968_128682_00000175298276226728295100000015591772372066072754_);}
	.st2{fill:#233038;fill-opacity:0.8;}
</style>
<defs>
	<filter id="Adobe_OpacityMaskFilter" filterUnits="userSpaceOnUse" x="0.1" y="0.2" width="31.1" height="31.4">
		<feColorMatrix  type="matrix" values="1 0 0 0 0  0 1 0 0 0  0 0 1 0 0  0 0 0 1 0"/>
	</filter>
</defs>
<mask maskUnits="userSpaceOnUse" x="0.1" y="0.2" width="31.1" height="31.4" id="mask0_1968_128682_00000175298276226728295100000015591772372066072754_">
	<rect x="-6.3" y="-5.7" class="st0" width="43.8" height="43.8"/>
</mask>
<g class="st1">
	<path class="st2" d="M28.5,15.7c-0.1-3.5-1.4-6.5-3.8-8.9c-2.4-2.4-5.4-3.7-8.9-3.8V0.2c2.1,0,4.1,0.5,6,1.3
		c1.9,0.8,3.5,1.9,4.9,3.3c1.4,1.4,2.5,3,3.3,4.9s1.3,3.9,1.3,6H28.5z M21.2,15.7c-0.1-1.5-0.7-2.7-1.7-3.7c-1-1-2.3-1.6-3.7-1.7
		V7.5c2.2,0.1,4.1,0.9,5.7,2.5c1.6,1.6,2.4,3.5,2.5,5.7H21.2z M29.2,31.6c-3.5,0-7.1-0.8-10.5-2.5c-3.5-1.7-6.6-3.9-9.3-6.6
		s-4.9-5.8-6.6-9.3C1,9.7,0.1,6.2,0.1,2.6c0-0.5,0.2-1,0.5-1.4c0.4-0.4,0.8-0.5,1.4-0.5h6c0.5,0,0.9,0.1,1.2,0.4
		c0.4,0.3,0.6,0.7,0.7,1.1l1,5.4c0.1,0.4,0.1,0.9,0,1.2c-0.1,0.4-0.3,0.7-0.6,1l-4.2,4.1c1.4,2.4,3.2,4.7,5.2,6.6
		c2,2,4.3,3.7,6.8,5.2l4.1-4.1c0.3-0.3,0.6-0.5,1.1-0.6c0.4-0.1,0.8-0.2,1.2-0.1l5.1,1c0.5,0.1,0.8,0.3,1.1,0.7
		c0.3,0.3,0.4,0.8,0.4,1.2v5.9c0,0.5-0.2,1-0.5,1.4C30.2,31.4,29.7,31.6,29.2,31.6z M4.8,11.3l3.3-3.1c0.1,0,0.1-0.1,0.1-0.2
		c0-0.1,0-0.2,0-0.2L7.4,3.7c0-0.1-0.1-0.2-0.1-0.2c-0.1,0-0.1-0.1-0.2-0.1H3.2C3.1,3.4,3,3.4,3,3.5c0,0-0.1,0.1-0.1,0.2
		C3,4.9,3.2,6.2,3.5,7.5C3.8,8.8,4.3,10,4.8,11.3z M20.6,27c1.2,0.6,2.5,1,3.8,1.3c1.3,0.3,2.5,0.5,3.7,0.5c0.1,0,0.1,0,0.2-0.1
		c0,0,0.1-0.1,0.1-0.2v-3.8c0-0.1,0-0.2-0.1-0.2c0-0.1-0.1-0.1-0.2-0.1l-3.8-0.8c-0.1,0-0.1,0-0.2,0c-0.1,0-0.1,0.1-0.2,0.1L20.6,27
		z"/>
</g>
</svg>
