<?xml version="1.0" encoding="utf-8"?>
<!-- Generator: Adobe Illustrator 27.1.1, SVG Export Plug-In . SVG Version: 6.00 Build 0)  -->
<svg version="1.1" id="Слой_1" xmlns="http://www.w3.org/2000/svg" xmlns:xlink="http://www.w3.org/1999/xlink" x="0px" y="0px"
	 viewBox="0 0 146.4 24" style="enable-background:new 0 0 146.4 24;" xml:space="preserve">
<style type="text/css">
	.st0{fill:#FBA457;}
	.st1{fill:#B0AAD0;}
</style>
<g>
	<path class="st0" d="M10.2,1.6c0.7-1.5,2.9-1.5,3.6,0L15.9,6c0.3,0.6,0.9,1,1.5,1.1l4.8,0.7c1.6,0.2,2.3,2.3,1.1,3.4l-3.5,3.4
		c-0.5,0.5-0.7,1.1-0.6,1.8l0.8,4.8c0.3,1.6-1.4,2.9-2.9,2.1L12.9,21c-0.6-0.3-1.3-0.3-1.9,0l-4.3,2.3c-1.5,0.8-3.2-0.5-2.9-2.1
		l0.8-4.8c0.1-0.6-0.1-1.3-0.6-1.8l-3.5-3.4C-0.6,10,0.1,8,1.7,7.8l4.8-0.7C7.2,7,7.8,6.6,8.1,6L10.2,1.6z"/>
	<path class="st0" d="M40.7,1.6c0.7-1.5,2.9-1.5,3.6,0L46.5,6c0.3,0.6,0.9,1,1.5,1.1l4.8,0.7c1.6,0.2,2.3,2.3,1.1,3.4l-3.5,3.4
		c-0.5,0.5-0.7,1.1-0.6,1.8l0.8,4.8c0.3,1.6-1.4,2.9-2.9,2.1L43.4,21c-0.6-0.3-1.3-0.3-1.9,0l-4.3,2.3c-1.5,0.8-3.2-0.5-2.9-2.1
		l0.8-4.8c0.1-0.6-0.1-1.3-0.6-1.8l-3.5-3.4C30,10,30.6,8,32.3,7.8l4.8-0.7C37.7,7,38.3,6.6,38.6,6L40.7,1.6z"/>
	<path class="st0" d="M71.2,1.6c0.7-1.5,2.9-1.5,3.6,0L77,6c0.3,0.6,0.9,1,1.5,1.1l4.8,0.7c1.6,0.2,2.3,2.3,1.1,3.4l-3.5,3.4
		c-0.5,0.5-0.7,1.1-0.6,1.8l0.8,4.8c0.3,1.6-1.4,2.9-2.9,2.1L73.9,21c-0.6-0.3-1.3-0.3-1.9,0l-4.3,2.3c-1.5,0.8-3.2-0.5-2.9-2.1
		l0.8-4.8c0.1-0.6-0.1-1.3-0.6-1.8l-3.5-3.4C60.5,10,61.1,8,62.8,7.8l4.8-0.7C68.2,7,68.8,6.6,69.1,6L71.2,1.6z"/>
	<path class="st0" d="M101.7,1.6c0.7-1.5,2.9-1.5,3.6,0l2.1,4.4c0.3,0.6,0.9,1,1.5,1.1l4.8,0.7c1.6,0.2,2.3,2.3,1.1,3.4l-3.5,3.4
		c-0.5,0.5-0.7,1.1-0.6,1.8l0.8,4.8c0.3,1.6-1.4,2.9-2.9,2.1l-4.3-2.3c-0.6-0.3-1.3-0.3-1.9,0l-4.3,2.3c-1.5,0.8-3.2-0.5-2.9-2.1
		l0.8-4.8c0.1-0.6-0.1-1.3-0.6-1.8l-3.5-3.4C91,10,91.6,8,93.3,7.8l4.8-0.7C98.7,7,99.3,6.6,99.6,6L101.7,1.6z"/>
	<path class="st1" d="M132.2,1.6c0.7-1.5,2.9-1.5,3.6,0L138,6c0.3,0.6,0.9,1,1.5,1.1l4.8,0.7c1.6,0.2,2.3,2.3,1.1,3.4l-3.5,3.4
		c-0.5,0.5-0.7,1.1-0.6,1.8l0.8,4.8c0.3,1.6-1.4,2.9-2.9,2.1L135,21c-0.6-0.3-1.3-0.3-1.9,0l-4.3,2.3c-1.5,0.8-3.2-0.5-2.9-2.1
		l0.8-4.8c0.1-0.6-0.1-1.3-0.6-1.8l-3.5-3.4c-1.2-1.2-0.5-3.2,1.1-3.4l4.8-0.7c0.7-0.1,1.2-0.5,1.5-1.1L132.2,1.6z"/>
</g>
</svg>
