<?xml version="1.0" encoding="utf-8"?>
<!-- Generator: Adobe Illustrator 27.1.1, SVG Export Plug-In . SVG Version: 6.00 Build 0)  -->
<svg version="1.1" id="Слой_1" xmlns="http://www.w3.org/2000/svg" xmlns:xlink="http://www.w3.org/1999/xlink" x="0px" y="0px"
	 viewBox="0 0 24.1 23.2" style="enable-background:new 0 0 24.1 23.2;" xml:space="preserve">
<style type="text/css">
	.st0{fill:#FBA457;}
</style>
<path class="st0" d="M10.2,1.2c0.7-1.5,2.9-1.5,3.6,0l2.1,4.4c0.3,0.6,0.9,1,1.5,1.1l4.8,0.7c1.6,0.2,2.3,2.3,1.1,3.4l-3.5,3.4
	c-0.5,0.5-0.7,1.1-0.6,1.8l0.8,4.8c0.3,1.6-1.4,2.9-2.9,2.1l-4.3-2.3c-0.6-0.3-1.3-0.3-1.9,0l-4.3,2.3c-1.5,0.8-3.2-0.5-2.9-2.1
	l0.8-4.8c0.1-0.6-0.1-1.3-0.6-1.8l-3.5-3.4c-1.2-1.2-0.5-3.2,1.1-3.4l4.8-0.7c0.7-0.1,1.2-0.5,1.5-1.1L10.2,1.2z"/>
</svg>
