<?xml version="1.0" encoding="utf-8"?>
<!-- Generator: Adobe Illustrator 27.1.1, SVG Export Plug-In . SVG Version: 6.00 Build 0)  -->
<svg version="1.1" id="Слой_1" xmlns="http://www.w3.org/2000/svg" xmlns:xlink="http://www.w3.org/1999/xlink" x="0px" y="0px"
	 viewBox="0 0 138.2 116.7" style="enable-background:new 0 0 138.2 116.7;" xml:space="preserve">
<style type="text/css">
	.st0{clip-path:url(#SVGID_00000065779640476700263410000017372223890076732061_);}
	.st1{fill:#AAAAAA;}
</style>
<g>
	<defs>
		
			<rect id="SVGID_1_" x="0.8" y="0.9" transform="matrix(0.9978 -6.664305e-02 6.664305e-02 0.9978 -3.655 4.7217)" width="136.2" height="112.5"/>
	</defs>
	<clipPath id="SVGID_00000062166766420103861390000012910252148300168114_">
		<use xlink:href="#SVGID_1_"  style="overflow:visible;"/>
	</clipPath>
	<g style="clip-path:url(#SVGID_00000062166766420103861390000012910252148300168114_);">
		<path class="st1" d="M73,3c-13.3,7.9-26.2,16.2-38.5,25.5c-5.9,4.5-11.8,9-17.7,13.6c-3.2,2.5-6.3,5-9.4,7.5
			c-2.3,1.8-4.9,3.3-6.5,5.9c-0.1,0.1,0.1,0.3,0.2,0.2c3.2-1.1,5.8-3.9,8.4-5.9c2.7-2.1,5.4-4.2,8.1-6.3C23.9,38.7,30,34,36.2,29.5
			c12.2-8.9,24.4-17.9,37.3-25.8C74,3.4,73.5,2.7,73,3L73,3z"/>
		<path class="st1" d="M72.6,3.5c2.3,4.2,5.8,7.9,8.8,11.6c3.1,3.8,6,7.6,8.8,11.6c2.7,3.7,5.3,7.4,8,11.2
			c3.2,4.5,10.1,11.8,6.2,17.5c-0.5,0.7,0.4,1.5,1,0.9c2.7-2.6,2-6.2,0.4-9.2c-2.7-5.2-6.7-10-10.1-14.7c-3.7-5.1-7.7-10-11.4-15.1
			C81,12.5,77.5,7,73,3.2C72.7,3,72.5,3.3,72.6,3.5L72.6,3.5z"/>
		<path class="st1" d="M104.9,55.6c-12.1,6.6-23.2,16-34.4,24.1c-5.6,4-11.1,8-16.7,12c-5.4,3.9-17.5,14-21.7,3.1
			c-0.1-0.3-0.7-0.3-0.6,0.1c0.9,4.8,5.8,6.6,10.2,5.5c7.1-1.7,13.6-8.1,19.4-12.3c7.5-5.4,15-10.8,22.5-16.2
			c7.2-5.2,15-10.1,21.5-16.1C105.3,55.7,105.1,55.5,104.9,55.6L104.9,55.6z"/>
		<path class="st1" d="M0.5,55.1C2.7,60.8,7.9,66,11.4,70.8c4.1,5.6,8.3,11.2,12.4,16.8c3.6,4.9,11.6,18.7,19.3,12.1
			c0.2-0.2,0.1-0.7-0.3-0.5c-6.5,2.4-10.6-2.6-14.1-7.2c-3.2-4.4-6.5-8.7-9.7-13.1C16,74.6,13,70.5,9.9,66.4
			C7.1,62.6,4.6,57.9,0.8,55C0.7,54.9,0.5,55,0.5,55.1L0.5,55.1z"/>
		<path class="st1" d="M73.2,2.6C73,2.7,72.8,2.8,72.7,3c-0.1,0.1,0,0.2,0.1,0.1C73,3,73.1,2.8,73.2,2.6C73.3,2.6,73.2,2.5,73.2,2.6
			L73.2,2.6z"/>
		<path class="st1" d="M80,44.8c-1.3-7.3-9.2-12.8-16.4-9.2c-6.5,3.2-8,12.4-3.1,17.6c5.6,5.9,15.4,4.5,19.1-2.8
			c3.8-7.5-3.3-16.5-11.5-15.3c-0.2,0-0.2,0.2,0,0.3c3.3,1.1,6.4,1.5,8.8,4.2c2.8,3,3.3,7.2,1.3,10.8c-3.6,6.3-12.6,7-17.1,1.4
			c-3.7-4.5-3-11.9,2-15.2c7.1-4.7,14.9,1.1,16.7,8.2C79.8,44.9,80,44.9,80,44.8L80,44.8z"/>
		<path class="st1" d="M88.9,24.1c5.7-3.2,11.1-6.7,17-9.5c3.3-1.6,7.4-2.6,9.5,1.4c1.5,2.8,3,5.7,4.5,8.6c2.7,5.2,5.3,10.5,8,15.7
			c2.5,4.9,11.6,17.2,5.6,21.4c-0.3,0.2-0.1,0.6,0.2,0.6c5.6-0.4,3.4-7.3,1.9-10.4c-4.5-8.9-9.4-17.6-14-26.4
			c-2-3.8-3.7-8.2-6.2-11.8c-1.1-1.6-2.4-2.4-4.4-2c-3.1,0.5-6.3,2.7-9,4.1c-4.5,2.4-9,4.9-13,8C88.7,24.1,88.8,24.2,88.9,24.1
			L88.9,24.1z"/>
		<path class="st1" d="M135.6,61.6c-9.2,3.3-17.9,8.6-26.6,12.9c-9.1,4.5-18.2,9-27.3,13.6c-17.4,8.7-35.2,16.9-52.2,26.4
			c-0.3,0.1,0,0.6,0.2,0.5c18.3-8,36.1-17.6,54-26.5c8.4-4.2,16.7-8.3,25-12.5c8.9-4.5,18.8-8.4,27.1-13.9
			C136.1,61.9,135.9,61.5,135.6,61.6L135.6,61.6z"/>
		<path class="st1" d="M11.5,70.1c-2.6,2.8-7.8,4.1-7.9,8.6c-0.1,2.9,1.7,5.9,2.9,8.4c1.4,3.1,3,6.1,4.5,9.1
			c1.6,3,13.5,28.4,18.9,17.5c0.2-0.3-0.3-0.6-0.5-0.3c-1.7,0.4-3.4,0.8-5.1,1.1c-0.9-0.8-1.7-1.6-2.6-2.4c-0.7-0.9-1.2-2-1.8-2.9
			c-1.1-1.9-2.2-3.8-3.3-5.7c-2.5-4.3-4.8-8.7-7.1-13.1c-2-3.9-7.9-12-3.1-15.4c2-1.4,4.3-2.1,5.5-4.4C12.1,70.2,11.7,70,11.5,70.1
			L11.5,70.1z"/>
		<path class="st1" d="M27.8,113.8c-0.3,0.2-0.7,0.5-1,0.7c-0.2,0.1,0,0.4,0.2,0.4c4.6-1.6,9.6-3.3,13.9-5.6c0.2-0.1,0-0.3-0.1-0.3
			c-2.6,0.7-5,1.9-7.5,2.9l-3.5,1.4c-0.5,0.2-2.9,1.7-1.9,0.7C28,113.8,27.9,113.7,27.8,113.8z"/>
		<path class="st1" d="M30.6,114.5c-1.7,1.1-3.5,1.3-5.4,1.4c-0.1,0-0.1,0.2,0,0.2C27.2,116.4,29.1,115.7,30.6,114.5
			C30.7,114.5,30.6,114.5,30.6,114.5z"/>
		<path class="st1" d="M131.5,44.1c-7.5,3.3-14.4,8.5-21.6,12.4c-7.8,4.2-15.9,7.8-23.7,11.9c-0.3,0.1,0,0.6,0.2,0.5
			c7.7-3,15.1-7,22.4-11c7.6-4.1,16.2-8,22.8-13.6C131.7,44.3,131.6,44.1,131.5,44.1L131.5,44.1z"/>
		<path class="st1" d="M131.8,47.1c-9.7,5.1-19,10.9-28.9,15.8c-9.4,4.6-19.3,8.1-28.6,12.7C74,75.7,74.1,76,74.4,76
			c10.2-2.8,20.1-8,29.6-12.7c9.5-4.7,19.4-9.7,27.9-16C132,47.2,131.9,47.1,131.8,47.1L131.8,47.1z"/>
		<path class="st1" d="M12.2,71.6c-1.1,0.6-2.1,1.2-3.1,1.8c-0.9,0.6-1.9,1.1-2.6,1.8c-0.1,0.1,0,0.2,0.1,0.2c1-0.3,1.9-1,2.8-1.6
			c1-0.6,2-1.3,3-2C12.5,71.7,12.4,71.5,12.2,71.6L12.2,71.6z"/>
		<path class="st1" d="M12.3,72.6c-1.6,0.9-3.4,1.9-4.8,3.1c-0.2,0.1,0,0.4,0.2,0.3c1.7-0.8,3.2-2.1,4.7-3.3
			C12.5,72.6,12.4,72.5,12.3,72.6L12.3,72.6z"/>
		<path class="st1" d="M13.3,73.3c-1.6,0.8-3.5,1.5-4.8,2.6c-0.1,0.1,0,0.2,0.1,0.2C10.2,75.5,11.8,74.3,13.3,73.3
			C13.3,73.3,13.3,73.3,13.3,73.3z"/>
		<path class="st1" d="M9.8,74.6c-1.1,0.1-2.2,0.6-3.1,1.4c-0.7,0.6-1.5,1.5-1.6,2.5c0,0.1,0.2,0.2,0.3,0.1c0.6-0.7,1-1.5,1.7-2.2
			c0.8-0.7,1.7-1.2,2.8-1.6C9.9,74.7,9.9,74.5,9.8,74.6L9.8,74.6z"/>
		<path class="st1" d="M7.1,75.7c-0.7,0.2-1.3,0.7-1.7,1.3c-0.3,0.5-0.8,1.4-0.5,2.1c0,0.1,0.2,0.1,0.2,0c0.2-0.6,0.2-1.1,0.5-1.7
			c0.4-0.6,0.9-1.2,1.6-1.5C7.3,75.8,7.2,75.6,7.1,75.7z"/>
		<path class="st1" d="M7.3,74.9c-2.2,1.7-2.9,5.2-2,7.7c0,0.1,0.2,0.1,0.2,0C5,79.6,5.8,77.5,7.3,74.9C7.4,74.9,7.3,74.9,7.3,74.9
			L7.3,74.9z"/>
		<path class="st1" d="M37.1,108.7c-1.9,0.8-3.8,1.5-5.7,2.3c-2.5,1.1-7.7,4.1-9.1-0.5c0-0.2-0.3-0.1-0.3,0.1
			C21.7,117.6,34.9,109.8,37.1,108.7C37.2,108.8,37.1,108.7,37.1,108.7L37.1,108.7z"/>
		<path class="st1" d="M46.3,104.7c-4.8,2.2-9.7,4.4-14.5,6.7c-0.1,0.1-0.1,0.2,0.1,0.2C36.9,109.9,41.8,107.6,46.3,104.7
			C46.4,104.7,46.3,104.7,46.3,104.7L46.3,104.7z"/>
		<path class="st1" d="M37.5,109.5c-3.6,1.7-7.4,3.1-11.1,4.7c-0.1,0.1-0.1,0.3,0.1,0.2C30.3,113.3,34.1,111.4,37.5,109.5
			C37.6,109.5,37.6,109.4,37.5,109.5z"/>
		<path class="st1" d="M108.5,13.5c-5.9,2.2-12.1,5.2-17.2,8.8c-0.1,0.1,0,0.2,0.1,0.2c5.7-2.9,11.4-6,17.1-8.9
			C108.6,13.6,108.6,13.5,108.5,13.5L108.5,13.5z"/>
		<path class="st1" d="M105.4,15.4c-2.8,1.4-5.5,2.8-8.2,4.3c-2.2,1.2-4.9,2.2-6.7,3.9c-0.1,0.1,0.1,0.3,0.2,0.2
			c2.1-1.4,4.7-2.4,6.9-3.6c2.7-1.5,5.4-3,7.9-4.6C105.7,15.5,105.6,15.3,105.4,15.4z"/>
		<path class="st1" d="M101.9,18.3c-3.3,2.2-6.9,4.1-10.5,5.6c-0.3,0.1-0.2,0.7,0.2,0.5c3.7-1.6,7.1-3.6,10.4-6
			C102.1,18.3,102,18.2,101.9,18.3z"/>
		<path class="st1" d="M98.5,21.7c-1.3,0.6-2.6,1.3-3.8,2c-1.2,0.7-2.6,1.3-3.6,2.3c-0.1,0.1,0,0.3,0.2,0.2c1.3-0.4,2.4-1.2,3.5-1.9
			C96.1,23.5,97.4,22.7,98.5,21.7C98.6,21.8,98.6,21.7,98.5,21.7z"/>
		<path class="st1" d="M109.9,14.2c-2.1,0.8-4,2.2-5.9,3.3c-1.9,1.2-3.9,2.3-5.6,3.8c-0.1,0.1,0,0.3,0.2,0.2c2.1-0.8,4-2.2,5.8-3.4
			c1.9-1.2,3.9-2.3,5.6-3.8C110.1,14.3,110,14.2,109.9,14.2L109.9,14.2z"/>
		<path class="st1" d="M109.9,14.3c0.7-0.2,1.4-0.2,2.1,0c0.6,0.1,1,0.4,1.6,0.6c0.1,0,0.2-0.1,0.1-0.2
			C112.8,13.7,111.1,13.8,109.9,14.3C109.8,14.3,109.9,14.3,109.9,14.3L109.9,14.3z"/>
		<path class="st1" d="M113.7,15.7c-0.3-0.5-0.6-0.9-1.1-1.3c-0.4-0.3-0.9-0.5-1.4-0.5c-0.2,0-0.2,0.2-0.1,0.3
			c0.4,0.2,0.8,0.4,1.2,0.6c0.4,0.2,0.9,0.6,1.2,0.9C113.7,15.9,113.8,15.8,113.7,15.7z"/>
		<path class="st1" d="M113.2,14.8c5.7,9.6,10.7,19.5,16.3,29.1c0.1,0.2,0.5,0,0.4-0.2c-2.7-5.3-5.7-10.5-8.5-15.8
			c-2.4-4.4-4.4-9.7-8-13.3C113.2,14.6,113.1,14.7,113.2,14.8L113.2,14.8z"/>
		<path class="st1" d="M77,38.2c-1.6-1.7-3.8-3.5-6.2-3.6c-0.1,0-0.2,0.1-0.1,0.2c1,0.5,2.1,0.8,3.1,1.4C74.9,36.7,76,37.4,77,38.2
			C77,38.3,77.1,38.2,77,38.2z"/>
		<path class="st1" d="M76.4,37.9c-1.9-2.8-6.1-4.7-9.3-2.9c-0.1,0.1,0,0.2,0.1,0.2C70.6,35.1,73.7,35.3,76.4,37.9
			C76.3,38,76.4,38,76.4,37.9z"/>
		<path class="st1" d="M71.4,36.8c-1.3-0.3-1.4,0.9-1.6,1.8c-0.7,2.5-1.5,2.2-3.5,2.1c-2-0.1-4.8,0.2-5.4-2.3c0-0.1-0.2-0.1-0.3,0
			c-1,2.6,3,2.8,4.6,2.9c1.2,0.1,3.3,0.5,4.3-0.4c1-0.8,0.5-3.6,1.9-3.8C71.5,37,71.5,36.8,71.4,36.8L71.4,36.8z"/>
		<path class="st1" d="M71,36.7c-1.9-0.5-4.6-1.2-6.5-0.5c-0.1,0-0.1,0.3,0,0.3c0.9,0.2,1.9,0.1,2.8,0.1c1.2,0.1,2.4,0.2,3.6,0.4
			C71.1,37.1,71.2,36.7,71,36.7z"/>
		<path class="st1" d="M70.6,37.6c-2-0.5-4.8-0.8-6.9-0.5c-0.1,0-0.1,0.2,0,0.2c2,0.6,4.8,0.7,6.9,0.4
			C70.6,37.8,70.6,37.7,70.6,37.6L70.6,37.6z"/>
		<path class="st1" d="M70.2,38.6c-2.3-0.4-4.6-0.6-6.9-0.5c-0.1,0-0.1,0.1,0,0.2c2.3,0.5,4.5,0.6,6.9,0.6
			C70.3,38.9,70.4,38.6,70.2,38.6z"/>
		<path class="st1" d="M69.3,39.6c-1.9-0.2-4.1-0.9-6-0.6c-0.1,0-0.2,0.2,0,0.2c1.8,0.7,4.1,0.6,5.9,0.8
			C69.5,40.1,69.6,39.6,69.3,39.6z"/>
		<path class="st1" d="M69.3,40.1c-1.1-0.2-2.2-0.4-3.4-0.6c-1-0.2-2-0.5-3-0.3c-0.1,0-0.2,0.2-0.1,0.3c0.9,0.5,2.1,0.5,3.2,0.6
			c1.1,0.1,2.2,0.2,3.2,0.3C69.5,40.4,69.5,40.2,69.3,40.1L69.3,40.1z"/>
		<path class="st1" d="M67.6,40.8c-1.6-0.2-3.3-0.2-5-0.2l0,0.6c0.9-0.1,1.8-0.1,2.7,0.1c0.8,0.2,1.5,0.6,2.3,0.7
			c0.1,0,0.3-0.1,0.2-0.2c-1.1-1.3-3.7-1.3-5.2-1.2c-0.4,0-0.4,0.6,0,0.6c1.6-0.1,3.2-0.1,4.8,0C67.8,41.2,67.9,40.8,67.6,40.8
			L67.6,40.8z"/>
		<path class="st1" d="M65.1,41.5c0.8,0.8,2.1,0.9,3.1,0.4c1-0.5,1.9-2.1,1.5-3.2c-0.1-0.2-0.3-0.2-0.4,0c-0.5,0.9-0.4,1.9-1.3,2.6
			c-0.8,0.6-2,0.5-2.8,0C65.1,41.1,65,41.4,65.1,41.5L65.1,41.5z"/>
		<path class="st1" d="M66.4,43.6c-0.9-0.4-1.8-0.6-2.7-0.9c-0.9-0.3-1.8-0.6-2.8-0.6c-0.2,0-0.2,0.2-0.1,0.3
			c0.8,0.4,1.7,0.6,2.5,0.8c1,0.2,1.9,0.5,2.9,0.6C66.4,43.9,66.5,43.7,66.4,43.6z"/>
		<path class="st1" d="M61.8,42c-0.6-0.8-1.6-0.3-1.9,0.5c-0.3,0.9,0.1,2.2,0.2,3c0.2,1.6,0.3,3.1,0.5,4.7c0,0.1,0.1,0.2,0.2,0.2
			c0.6,0,0.8-0.2,1.2-0.6c0.7-0.9,0.7-1.9,1.7-2.7c1.2-0.9,2.9-1.7,2.3-3.5c-0.1-0.4-0.8-0.2-0.6,0.2c0.7,1.9-2,2.5-2.8,3.5
			c-0.5,0.6-0.5,1.6-1,2.1c-0.9,0.8-0.8-0.3-0.9-0.9c-0.1-0.6-0.1-1.2-0.2-1.8s-0.1-1.2-0.2-1.8c-0.1-0.4-0.1-0.8-0.1-1.2
			c-0.2-0.8,0.2-1.3,1.2-1.6C61.7,42.3,61.9,42.1,61.8,42L61.8,42z"/>
		<path class="st1" d="M66,44c-0.9-0.4-1.8-0.6-2.7-0.8c-0.7-0.1-1.5-0.2-2,0.3c0,0,0,0.1,0,0.2c0.5,0.4,1.1,0.3,1.8,0.3
			c1,0,1.9,0.2,2.8,0.3C66.1,44.3,66.2,44.1,66,44L66,44z"/>
		<path class="st1" d="M65.6,44.7c-0.8-0.2-1.6-0.4-2.3-0.6C62.6,44,62,43.7,61.4,44c-0.1,0.1-0.2,0.2-0.1,0.4
			c0.5,0.5,1.2,0.4,1.8,0.5c0.8,0.1,1.6,0.2,2.4,0.2C65.8,45.1,65.9,44.8,65.6,44.7L65.6,44.7z"/>
		<path class="st1" d="M65.3,45.7c-0.7-0.3-1.4-0.4-2-0.5c-0.4-0.1-1.2-0.5-1.6-0.2c-0.2,0.1-0.3,0.4-0.1,0.6
			c0.2,0.2,0.6,0.2,0.9,0.3c0.1,0,0.2-0.1,0.1-0.2c-0.1-0.2-0.4-0.3-0.5-0.5l0,0.3c0,0,0,0,0,0l-0.3,0.2c0.2,0,0.6,0.1,0.8,0.2
			c0.3,0.1,0.5,0.1,0.8,0.1c0.6,0.1,1.2,0.2,1.8,0.3C65.3,46.1,65.5,45.8,65.3,45.7L65.3,45.7z"/>
		<path class="st1" d="M64.7,45.9c-1,0.4-2.1,0.4-3.1,0c0,0.2-0.1,0.5-0.2,0.7c0.5,0.1,0.9,0.4,1.2,0.8c0.1-0.2,0.2-0.4,0.3-0.6
			c-1,0-1.8,0.9-1.6,1.9c0.1,0.3,0.3,0.5,0.6,0.3c0.6-0.4,1-1.1,0.9-1.9c0-0.2-0.2-0.4-0.4-0.4c-1.3-0.1-2.1,1.5-1.4,2.6
			c0.3,0.5,1,0,0.7-0.5c-0.4-0.6,0.1-1.2,0.7-1.2c-0.1-0.1-0.3-0.3-0.4-0.4c0.1,0.5-0.1,0.9-0.5,1.2c0.2,0.1,0.4,0.1,0.6,0.2
			c-0.1-0.5,0.3-1,0.8-1c0.3,0,0.4-0.3,0.3-0.6c-0.4-0.6-1-1-1.7-1.1c-0.5-0.1-0.6,0.6-0.2,0.7c1.2,0.4,2.3,0.1,3.4-0.5
			C65,46.1,64.9,45.8,64.7,45.9L64.7,45.9z"/>
		<path class="st1" d="M77.2,42.5c-1.7-0.9-3.9-1.6-5.9-1.7c-0.2,0-0.2,0.3,0,0.3c1,0.3,2,0.4,2.9,0.7c1,0.3,1.9,0.6,2.9,0.8
			C77.2,42.6,77.2,42.5,77.2,42.5z"/>
		<path class="st1" d="M70.9,41.2c-0.6,0.8-1.2,1.7-1.8,2.5c-0.8,1.2-1.4,3-3,3.3c-0.1,0-0.2,0.1-0.2,0.2c0,0.7,0.1,1.4,0.2,2.2
			c0,0.1,0.2,0.3,0.3,0.2c2.1-0.8,3.7,2.1,5.5,2.6c1.4,0.4,3,0.2,4-0.9c0.1-0.1,0-0.4-0.2-0.3c-1.3,0.5-2.4,1-3.8,0.5
			c-1-0.4-1.8-1.1-2.7-1.7c-0.4-0.3-0.9-0.6-1.4-0.7c-0.1,0-1,0-1,0c-1.2-0.9,0.6-2,1-2.5c1.3-1.5,2.4-3.4,3.4-5.2
			C71.2,41.2,71,41.1,70.9,41.2z"/>
		<path class="st1" d="M79.6,43.5c-1.3-0.7-3.2-1.2-4.7-0.8c-0.1,0-0.1,0.2,0,0.3c0.7,0.2,1.5,0.2,2.3,0.3c0.8,0.1,1.5,0.3,2.3,0.4
			C79.6,43.8,79.7,43.6,79.6,43.5z"/>
		<path class="st1" d="M76.8,43.3c-1.4-0.9-2.9-1.5-4.6-1.3c-0.2,0-0.2,0.2,0,0.3c1.5,0.3,3.1,0.6,4.5,1.2
			C76.8,43.5,76.9,43.4,76.8,43.3L76.8,43.3z"/>
		<path class="st1" d="M79.7,44.4c-2.2-1-5-1.8-7.4-1.4c-0.1,0-0.1,0.1,0,0.1c2.4,0.6,4.9,0.9,7.3,1.5
			C79.7,44.6,79.8,44.5,79.7,44.4z"/>
		<path class="st1" d="M78.8,45.8c-2.2-1-4.9-1.8-7.4-1.6c-0.3,0-0.3,0.4,0,0.5c2.5,0.4,4.9,0.6,7.4,1.4
			C78.9,46.1,79,45.9,78.8,45.8L78.8,45.8z"/>
		<path class="st1" d="M78.9,47.1c-2.3-0.8-5.4-2.1-7.9-1.8c-0.1,0-0.2,0.2,0,0.2c1.1,0.5,2.4,0.6,3.7,0.9c1.4,0.3,2.8,0.7,4.2,1.1
			C79.1,47.6,79.2,47.2,78.9,47.1L78.9,47.1z"/>
		<path class="st1" d="M77.6,48c-1.6-0.5-3.2-1-4.9-1.4c-0.7-0.2-1.9-0.8-2.5-0.1c-0.1,0.1-0.1,0.2,0,0.3c0.2,0.2,0.2,0.2,0.4,0.2
			c0.1,0,0.1-0.1,0.1-0.1c0,0,0-0.1,0-0.1c0-0.1-0.2-0.2-0.2-0.1c0,0,6.4,1.6,7,1.7C77.8,48.4,77.9,48.1,77.6,48L77.6,48z"/>
		<path class="st1" d="M77.7,49c-1.2-0.4-2.4-0.7-3.6-1c-1-0.3-2.2-0.8-3.2-0.7c-0.2,0-0.2,0.2-0.1,0.3c0.9,0.6,2.1,0.7,3.2,0.9
			c1.2,0.3,2.5,0.5,3.7,0.8C77.8,49.4,77.9,49.1,77.7,49z"/>
		<path class="st1" d="M76.4,49.9c-1.1-0.1-2.1-0.4-3.1-0.6c-0.5-0.1-0.9-0.2-1.4-0.3c-0.1,0-0.3-0.1-0.4,0c-0.2,0.1,0,0.4,0.2,0.4
			c0.2,0,0.1-0.3,0-0.3c-0.2-0.1-0.6-0.1-0.6,0.2c0,0.3,0.6,0.5,0.9,0.5c1.4,0.4,2.8,0.6,4.2,0.7C76.6,50.4,76.7,49.9,76.4,49.9
			L76.4,49.9z"/>
		<path class="st1" d="M76.5,50.6c-1.6-0.3-3.3-0.7-4.9-0.9c-0.4,0-0.6,0.5-0.2,0.7c1.6,0.6,3.5,0.9,4.9,1.8c0-0.1,0.1-0.2,0.1-0.3
			c-1.4-0.2-2.6-0.6-3.9-1.2c-0.4-0.2-0.8,0.4-0.3,0.7c1.3,0.7,2.8,1,4.2,0.9c0.2,0,0.2-0.3,0-0.3c-1.6-0.4-3.2-1.4-4.7-2.1
			c-0.1,0.2-0.2,0.5-0.2,0.7c1.6,0.4,3.3,0.6,5,0.8C76.8,51.3,76.9,50.7,76.5,50.6z"/>
		<path class="st1" d="M73.5,41.9c-1.2,0.3-2.3,0.7-3.5,1.1c-0.3,0.1-0.3,0.7,0.1,0.6c0.4-0.1,1.1-0.3,1.6-0.3
			c0.5-0.1,0.4-0.1-0.1,0.2c-0.4,0.3-0.9,0.5-1.4,0.6c0.1,0.1,0.3,0.2,0.4,0.4c0,0.3-1.2,0.5-1.5,0.7c-0.3,0.3-0.3,0.3-0.4,0.7
			c-0.1,0.2,0.2,0.4,0.3,0.4c0.8,0,1.6-0.1,2.4-0.2c-0.1-0.2-0.1-0.3-0.2-0.5c-0.7,0.5-1.4,0.8-2.2,1c-0.4,0.1-0.2,0.6,0.1,0.6
			c0.7,0,1.4,0,2.1,0.2c0-0.2,0-0.4,0-0.5c-1.5,0.1-2.8,0.5-4.2,1.2c-0.3,0.2-0.1,0.6,0.2,0.6c0.6,0,1.2-0.1,1.8-0.2
			c0.4,0,0.3-0.6,0-0.6c-0.8,0-1.3,0.1-1.9,0.5c-0.3,0.2-0.1,0.6,0.2,0.5c1.1-0.1,2.3-0.1,3.4-0.1c0.3,0,0.3-0.5,0-0.6
			c-1-0.3-2-0.7-3-1.1c-0.3-0.1-0.7,0.3-0.4,0.6c1.7,1.2,3.3,2.3,5.1,3.4c0.2,0.1,0.5-0.2,0.3-0.4c-1.6-1.2-3.2-2.4-4.9-3.5
			c-0.1,0.2-0.2,0.4-0.3,0.6c1.1,0.3,2.1,0.7,3.1,1c0-0.2,0-0.4,0-0.6c-1.1,0-2.3,0.1-3.4,0.1c0.1,0.2,0.1,0.4,0.2,0.5l1.5-0.4
			c0-0.2,0-0.4,0-0.6c-0.6,0-1.2,0.1-1.8,0.1c0.1,0.2,0.1,0.4,0.2,0.6c1.2-0.7,2.4-1.1,3.8-1.2c0.2,0,0.4-0.4,0.1-0.5
			c-0.8-0.3-1.5-0.4-2.3-0.3c0,0.2,0.1,0.4,0.1,0.6c0.9-0.2,1.6-0.6,2.3-1.2c0.2-0.2,0.1-0.5-0.2-0.5c-0.8,0-1.6,0-2.4,0
			c0.1,0.1,0.2,0.3,0.3,0.4c0.2-0.7,2.2-0.6,1.9-1.7c-0.1-0.4-0.6-0.5-1-0.4c-0.1,0-0.2,0.1-0.2,0.2c0,0.1,0,0.1,0,0.2
			c0,0.2,0.2,0.5,0.4,0.4c1-0.3,1.7-0.8,2.3-1.5c0.1-0.2,0-0.3-0.2-0.3c-0.7,0.2-1.6,0.1-2.4,0.1c0,0.2,0.1,0.4,0.1,0.6
			c1.1-0.4,2.3-0.9,3.3-1.5C73.8,42,73.6,41.9,73.5,41.9L73.5,41.9z"/>
		<path class="st1" d="M70.3,53.2c-0.4-0.7-1.4-1.5-2.1-0.9c-0.1,0.1,0,0.3,0.1,0.3c0.6,0.3,1.3,0.1,1.8,0.7
			C70.2,53.5,70.4,53.4,70.3,53.2z"/>
		<path class="st1" d="M70.4,53c-0.4-0.4-0.9-0.6-1.4-0.9c-0.4-0.2-0.8-0.4-1.3-0.2c-0.6,0.2-0.5,1.2,0.2,1.1c0.1,0,0.2-0.1,0.1-0.2
			c0,0-0.1-0.1-0.1-0.1c0-0.1-0.2,0.1,0-0.1c0.1-0.1,0.4,0,0.5,0c0.7,0.1,1.2,0.4,1.8,0.6C70.3,53.3,70.5,53.1,70.4,53L70.4,53z"/>
		<path class="st1" d="M68.5,53.2c-0.3-0.2-0.6-0.5-0.9-0.7c-0.3-0.2-0.6,0-0.5,0.4c0.2,0.7,0.5,1.4,1,2c0.3,0.5,0.8,1.2,1.4,1.4
			c0.2,0.1,0.4-0.1,0.3-0.3c-0.2-0.5-0.7-1-1.1-1.5c-0.4-0.6-0.7-1.2-1-1.9c-0.2,0.1-0.3,0.3-0.5,0.4c0.4,0.2,0.7,0.4,1.1,0.6
			C68.5,53.7,68.8,53.4,68.5,53.2L68.5,53.2z"/>
		<path class="st1" d="M69.7,53.5c1.6,0.8,3.4,1.4,5.2,1.8c0.1,0,0.1-0.1,0.1-0.1c-1.6-0.9-3.3-1.6-5.1-2.1
			C69.6,53,69.5,53.3,69.7,53.5L69.7,53.5z"/>
		<path class="st1" d="M73.1,55.3c-1.1-1.1-2.5-1.7-4.1-1.4c-0.3,0-0.5,0.6-0.1,0.7c0.6,0.2,1.3,0.3,1.9,0.6
			c0.1-0.2,0.1-0.3,0.2-0.5c-0.5-0.1-0.9-0.2-1.4-0.3c-0.3-0.1-0.5,0.3-0.4,0.5c0.4,0.8,1.3,1.2,2.2,1c0.4-0.1,0.2-0.7-0.1-0.7
			c-0.6,0-1.1-0.2-1.5-0.7c-0.1,0.2-0.2,0.4-0.3,0.6c0.5,0,0.9,0,1.4,0.1c0.2,0,0.3-0.4,0.1-0.5c-0.6-0.2-1.1-0.6-1.7-0.8
			c0,0.2-0.1,0.5-0.1,0.7c1.3-0.2,2.8,0,3.9,0.9C73.1,55.6,73.3,55.4,73.1,55.3L73.1,55.3z"/>
		<path class="st1" d="M77.3,50c-0.9,0.6-1.8,1-2.8,1.2c0.1,0.2,0.2,0.4,0.3,0.6c0.9-0.5,1.9-1.1,2.8-1.6c0.2-0.1,0.1-0.4,0-0.5
			c-1.1-0.5-3,0.1-3,1.5c0,0.2,0.3,0.3,0.4,0.1c0.3-0.3,0.5-0.7,0.9-0.9c0.4-0.2,0.9-0.3,1.4-0.2c0-0.2-0.1-0.3-0.1-0.5
			c-0.9,0.5-1.9,1-2.8,1.6c-0.3,0.2,0,0.6,0.3,0.6c1.1-0.2,2.1-0.7,2.9-1.6C77.7,50.1,77.4,49.9,77.3,50z"/>
		<path class="st1" d="M72.8,37.1c0.4,0.4,0.3,1.3-0.1,1.6c-0.1,0.1-0.1,0.3,0,0.3c0.8,0.3,1.6,0.7,2.5,0.8c0.2,0,0.2-0.2,0.1-0.3
			c-0.7-0.4-1.6-0.7-2.4-0.9l0.1,0.4c0.3-0.3,0.5-0.6,0.5-1c0-0.5-0.2-0.7-0.5-1C72.8,37,72.7,37.1,72.8,37.1L72.8,37.1z"/>
		<path class="st1" d="M74.7,39.4c1,0.2,2.1,0.4,3.1,0.7c0.1,0,0.1-0.1,0.1-0.2c-1.2-0.6-2.3-1.3-3.5-1.9c0,0.1-0.1,0.2-0.1,0.3
			c0.6,0.2,1.2,0.4,1.8,0.7c0.2,0.1,0.3-0.1,0.2-0.2c-0.3-0.5-0.8-0.7-1.4-0.6c-0.2,0-0.3,0.3-0.2,0.4c0.4,0.7,1.1,1,1.9,0.8
			c0.1,0,0.1-0.2,0-0.3c-0.6-0.1-1.1-0.4-1.4-0.8c-0.1,0.1-0.1,0.3-0.1,0.4c0.4-0.1,0.7,0.1,1,0.3c0.1-0.1,0.1-0.2,0.2-0.3
			c-0.6-0.2-1.2-0.4-1.8-0.6c-0.2-0.1-0.3,0.2-0.1,0.3c1.2,0.6,2.4,1.2,3.5,1.8c0-0.1,0.1-0.1,0.1-0.2c-1-0.6-1.9-0.9-3.1-0.9
			C74.5,39.1,74.5,39.4,74.7,39.4z"/>
		<path class="st1" d="M76.6,40.1c0.3,0.3,0.6,0.6,1,0.9c0.1,0,0.2-0.1,0.1-0.1c-0.3-0.4-0.6-0.6-0.9-0.9
			C76.6,39.8,76.5,40,76.6,40.1L76.6,40.1z"/>
		<path class="st1" d="M75,51c1.5-0.4,2.8-1.3,3.7-2.6c-0.2-0.1-0.4-0.3-0.6-0.4c-0.4,1-0.7,2-1.1,3.1c0.2,0,0.5,0.1,0.7,0.1
			c0-1.7,0.5-3.3,1.4-4.7c-0.2-0.1-0.5-0.2-0.7-0.2c-0.3,1.1-0.6,2.1-0.8,3.2c0.3,0,0.5,0,0.8,0.1c0.1-1.6,0.5-3,1.4-4.3
			c-0.3-0.1-0.5-0.2-0.8-0.3c-0.5,1.9-1.4,4-1.4,5.9c0,0.3,0.4,0.3,0.5,0.1c1-1.7,1.3-4,1.7-5.9c0.1-0.5-0.6-0.7-0.8-0.3
			c-0.9,1.5-1.3,3-1.4,4.7c0,0.5,0.7,0.5,0.8,0.1c0.3-1.1,0.5-2.1,0.8-3.2c0.1-0.4-0.5-0.6-0.7-0.2c-0.8,1.6-1.3,3.2-1.4,5
			c0,0.4,0.6,0.7,0.7,0.2c0.4-1.1,0.8-2.1,1.1-3.2c0.1-0.4-0.5-0.6-0.7-0.2c-0.8,1.3-1.8,2.1-3.2,2.8C74.9,50.9,74.9,51,75,51L75,51
			z"/>
		<path class="st1" d="M76.4,51.2c-0.3,0.1-0.7,0.2-1,0.3c-0.3,0.1-0.5,0.2-0.8,0.4c-0.1,0.1-0.1,0.3,0.1,0.3c0.3,0,0.6-0.1,0.9-0.2
			c0.3-0.1,0.6-0.3,1-0.4C76.8,51.5,76.7,51.2,76.4,51.2L76.4,51.2z"/>
		<path class="st1" d="M76.5,51.3c-0.3,0-0.6,0-0.9,0.1c-0.1,0-0.1,0.2,0,0.2c0.3,0,0.6,0,0.9,0C76.7,51.6,76.7,51.3,76.5,51.3z"/>
		<path class="st1" d="M73.6,3.3c-0.6,0.4-1.1,0.1-1.5-0.9c0-0.1,0-0.2-0.1-0.3c-0.9,0.5-1.6,1.3-2.4,1.9c-0.8,0.6-1.8,1-2.6,1.6
			c-0.1,0.1,0,0.2,0.1,0.2c1.8-0.5,4.1-1.8,5.2-3.4c0.1-0.1,0-0.3-0.2-0.2c-0.5,0.1-0.8,0.5-0.6,1C71.8,4,73,3.6,73.6,3.3
			C73.6,3.4,73.6,3.3,73.6,3.3L73.6,3.3z"/>
		<path class="st1" d="M72.7,0.9c-4,3-8.3,6.1-11.7,9.9c-0.1,0.1,0,0.3,0.2,0.2C65.4,8.2,69.1,4.4,72.7,0.9
			C72.7,0.9,72.7,0.8,72.7,0.9z"/>
		<path class="st1" d="M70.4,3.2c-5.2,3.8-11,7.5-15.7,11.8c-0.1,0.1,0,0.4,0.2,0.3C60.6,12.5,65.9,7.6,70.4,3.2
			C70.5,3.2,70.5,3.1,70.4,3.2z"/>
		<path class="st1" d="M70,3.2c-4.9,3-9.9,6.3-14.1,10.3c-0.1,0.1,0.1,0.3,0.2,0.2c4.8-3.2,9.3-6.9,13.9-10.4
			C70.2,3.3,70.1,3.2,70,3.2L70,3.2z"/>
		<path class="st1" d="M71.9,2.5C72.3,3,72.9,3.4,73.4,4c0.5,0.6,0.7,1.3,1.2,1.8c0.1,0.2,0.3,0.1,0.3-0.1C75,4.3,73.3,2.5,71.9,2.5
			C71.9,2.5,71.9,2.5,71.9,2.5L71.9,2.5z"/>
		<path class="st1" d="M71.9,1c3.3,5.1,7,10.6,11.5,14.7c0.1,0.1,0.4-0.1,0.2-0.2C80.2,10.4,76,5.7,72.4,0.7
			C72.2,0.4,71.7,0.7,71.9,1L71.9,1z"/>
		<path class="st1" d="M65,10.4c-4.4,2.8-9,5.3-13.1,8.5c-0.1,0.1,0,0.2,0.1,0.1C56.6,16.6,60.7,13.3,65,10.4
			C65,10.4,65,10.4,65,10.4z"/>
		<path class="st1" d="M62.5,12.8c-2.8,2.1-5.9,3.6-8.7,5.6c-0.1,0.1,0,0.2,0.1,0.2c3.2-1.2,6.1-3.6,8.7-5.7
			C62.6,12.8,62.5,12.7,62.5,12.8L62.5,12.8z"/>
		<path class="st1" d="M62.1,13.7c-1.1,0.9-2.2,1.8-3.3,2.5c-1.2,0.8-2.5,1.3-3.6,2.1c-0.1,0.1,0,0.3,0.1,0.3
			c2.6-0.5,5.2-2.8,6.9-4.7C62.2,13.8,62.1,13.7,62.1,13.7L62.1,13.7z"/>
		<path class="st1" d="M60.8,15.2c-0.8,0.8-1.7,1.5-2.7,2.2c-0.8,0.6-1.8,1.1-2.6,1.7c-0.1,0.1,0,0.3,0.1,0.2c2-0.8,3.8-2.5,5.3-3.9
			C61.1,15.3,60.9,15.1,60.8,15.2L60.8,15.2z"/>
		<path class="st1" d="M59.6,17.1c-0.8,1.5-2,2.2-3.4,3c-0.2,0.1,0,0.3,0.1,0.3c1.6-0.3,2.9-1.7,3.5-3.1
			C59.9,17.1,59.7,17,59.6,17.1L59.6,17.1z"/>
		<path class="st1" d="M64,20.5c0.9-1.2,1.9-2.1,3.3-2.7c0.6-0.2,1.2-0.7,0.3,0.1c-0.5,0.5-1.1,0.9-1.6,1.3c-2,1.6-4.1,3.2-5.9,5
			c0.1,0.1,0.3,0.2,0.4,0.3c0.3-0.5,0.7-1,1-1.5c0.1-0.1-0.1-0.2-0.2-0.1c-0.4,0.5-0.8,0.9-1.2,1.4c-0.2,0.2,0.1,0.5,0.3,0.4
			c3-2.1,5.9-4.7,8.6-7.3c0.1-0.1,0-0.3-0.2-0.2C66.8,17.8,65.2,18.8,64,20.5C63.9,20.5,63.9,20.6,64,20.5L64,20.5z"/>
		<path class="st1" d="M69.1,17.8c-1.2,1.1-2.5,2.2-3.9,3.1c-1.2,0.8-2.7,1.4-3.8,2.4c-0.1,0.1,0,0.3,0.1,0.2c1.5-0.3,3-1.5,4.2-2.4
			c1.3-0.9,2.6-2,3.8-3.1C69.6,17.9,69.3,17.6,69.1,17.8z"/>
		<path class="st1" d="M69.2,19.1c-2.5,2.1-5.4,3.8-7.7,6.1c-0.1,0.1,0,0.2,0.1,0.1c2.9-1.4,5.4-3.9,7.8-6
			C69.4,19.2,69.3,19,69.2,19.1L69.2,19.1z"/>
		<path class="st1" d="M68.5,21.4C66.3,22.8,64,24.3,62,26c-0.1,0.1,0,0.3,0.1,0.2c2.3-1.3,4.5-2.9,6.5-4.5
			C68.8,21.6,68.6,21.3,68.5,21.4z"/>
		<path class="st1" d="M69.4,22.7c-2,1.5-4.2,2.9-6.1,4.4c-0.2,0.1,0,0.4,0.2,0.2c2.1-1.4,4.1-2.9,6.1-4.4
			C69.8,22.8,69.6,22.6,69.4,22.7L69.4,22.7z"/>
		<path class="st1" d="M69.1,24.5c-1.3,0.7-2.6,1.4-3.9,2.1c-0.2,0.1,0,0.4,0.1,0.3c1.4-0.7,2.7-1.3,4-2
			C69.6,24.7,69.3,24.4,69.1,24.5z"/>
		<path class="st1" d="M73.1,14.9l-5.2,4c0,0,0,0,0,0C69.6,17.5,71.4,16.2,73.1,14.9C73.1,14.9,73.1,14.8,73.1,14.9z"/>
		<path class="st1" d="M77.4,12.6c-3.2,2-6.7,4-9.6,6.6c-0.1,0.1,0,0.2,0.1,0.1c3.4-1.7,6.5-4.3,9.5-6.6
			C77.6,12.7,77.5,12.6,77.4,12.6z"/>
		<path class="st1" d="M77.2,14.6c-2.7,2-5.6,3.6-8.3,5.5c-0.1,0.1,0,0.2,0.1,0.2C72,19,74.8,16.8,77.2,14.6
			C77.3,14.6,77.2,14.6,77.2,14.6L77.2,14.6z"/>
		<path class="st1" d="M72.4,4.4c-1.8,1.1-3.3,2.5-5,3.7c-1.7,1.3-3.4,2.4-5,3.8c-0.1,0.1,0,0.3,0.2,0.2c3.5-1.9,7.3-4.6,10-7.6
			C72.6,4.5,72.5,4.4,72.4,4.4z"/>
		<path class="st1" d="M74.3,5.7c-3.9,2-7.8,4.8-10.9,7.9c-0.1,0.1,0.1,0.3,0.1,0.2C67,10.9,70.5,8.2,74.3,5.7
			C74.4,5.7,74.3,5.6,74.3,5.7z"/>
		<path class="st1" d="M52.4,18.9c-6,3.6-11.8,7.7-17,12.5c0,0,0,0.1,0.1,0.1c5.5-4.3,11-8.6,16.9-12.5C52.5,19,52.4,18.9,52.4,18.9
			L52.4,18.9z"/>
		<path class="st1" d="M49.5,21.9c-4.6,2.9-9.4,5.9-13.4,9.6c-0.1,0.1,0,0.2,0.1,0.1c4.5-3.1,8.8-6.5,13.4-9.6
			C49.6,22,49.5,21.9,49.5,21.9L49.5,21.9z"/>
		<path class="st1" d="M46.4,25.1c-3.5,2.5-7.1,4.9-10.2,7.8c-0.1,0.1,0,0.1,0.1,0.1c3.6-2.3,6.9-5.1,10.2-7.8
			C46.5,25.2,46.4,25,46.4,25.1L46.4,25.1z"/>
		<path class="st1" d="M46.1,27c-2.5,1.6-5,3.3-7.4,5.1c-0.1,0.1,0,0.2,0.1,0.1C41.3,30.6,43.7,28.9,46.1,27
			C46.2,27.1,46.1,27,46.1,27L46.1,27z"/>
		<path class="st1" d="M40.5,27.2c-5,3.1-9.8,6.8-14.2,10.6c-0.1,0.1,0,0.3,0.1,0.2c4.9-3.3,9.7-6.9,14.3-10.6
			C40.9,27.3,40.7,27.1,40.5,27.2z"/>
		<path class="st1" d="M36.9,29.7C26.9,37.1,16.4,44,6.7,51.8c-0.2,0.1,0,0.3,0.2,0.2C17.4,45.5,27.2,37.4,37,29.8
			C37,29.8,36.9,29.7,36.9,29.7L36.9,29.7z"/>
		<path class="st1" d="M24.3,39.5c-6.9,5-13.9,10.2-20.3,15.9c-0.1,0.1,0,0.2,0.1,0.1c7.1-4.8,13.8-10.4,20.3-15.9
			C24.5,39.6,24.4,39.4,24.3,39.5L24.3,39.5z"/>
		<path class="st1" d="M20,44.3c-5.5,4.2-11.2,8.4-16.4,13c-0.1,0.1,0,0.2,0.1,0.2c5.7-4,11-8.6,16.4-13
			C20.2,44.4,20.1,44.2,20,44.3z"/>
		<path class="st1" d="M16.6,48.6c-3.9,2.6-8,5.6-11.3,8.9c-0.1,0.1,0.1,0.3,0.2,0.2c4-2.5,7.8-5.8,11.3-8.9
			C16.8,48.6,16.7,48.5,16.6,48.6z"/>
		<path class="st1" d="M12.4,53c-1,0.8-2.1,1.6-3,2.5c-0.1,0.1,0,0.2,0.1,0.1c1.1-0.8,2-1.6,3-2.4C12.6,53.1,12.5,52.9,12.4,53
			L12.4,53z"/>
		<path class="st1" d="M35,31.8c-6.2,5.1-12.9,9.7-18.9,15c-0.1,0.1,0,0.3,0.2,0.2C23.1,43.1,29.4,37.4,35,31.8
			C35.1,31.9,35.1,31.8,35,31.8L35,31.8z"/>
		<path class="st1" d="M14.1,51.5c-2.9,1.9-6.2,4-8.7,6.5c-0.1,0.1,0,0.2,0.1,0.2c3.1-1.7,6.1-4.2,8.7-6.5
			C14.4,51.6,14.3,51.5,14.1,51.5L14.1,51.5z"/>
		<path class="st1" d="M14.6,52.8c-2,2.1-4.2,3.4-6.5,4.9C8,57.8,8.1,58,8.2,58c2.6-0.8,4.9-2.9,6.5-5
			C14.8,52.9,14.7,52.7,14.6,52.8L14.6,52.8z"/>
		<path class="st1" d="M101.8,42.5c-1,2.4-1.3,5.1-1.7,7.6c-0.3,1.7-0.6,8.9-2.6,9.1c-0.3,0-0.5,0.4-0.2,0.6
			c0.2,0.1,0.3,0.2,0.5,0.3c0.2,0.2,0.4,0.2,0.7,0c2.1-1.2,1.9-4.5,2.3-6.6c0.6-3.5,1.7-7.4,1.4-11
			C102.1,42.4,101.9,42.4,101.8,42.5L101.8,42.5z"/>
		<path class="st1" d="M50.2,94.8c-3.2-0.2-6.5,0.3-9.7,0.5c-3.2,0.2-6.5,0.2-9.7,0.7c-0.4,0.1-0.3,0.6,0,0.6
			c6.1,0.4,13.6-0.1,19.5-1.6C50.4,95,50.4,94.8,50.2,94.8L50.2,94.8z"/>
		<path class="st1" d="M39,69.5c-1.4,0.7-2.6,1.7-3.9,2.6c-1.5,1-3.1,1.7-4.5,2.8c-0.1,0.1,0,0.2,0.1,0.2c1.6-0.5,3-1.6,4.3-2.5
			C36.4,71.6,37.9,70.7,39,69.5C39.1,69.5,39,69.4,39,69.5L39,69.5z"/>
		<path class="st1" d="M40.5,70.7c-2.9,1.8-5.8,3.6-8.7,5.4c0.1,0.1,0.2,0.2,0.3,0.3c0.3-0.4,0.7-0.8,1.1-1.1c0-0.1,0-0.1-0.1-0.1
			c-0.4,0.3-0.8,0.6-1.2,0.9c-0.2,0.1,0,0.5,0.2,0.3C34.8,74.6,37.7,72.7,40.5,70.7C40.5,70.8,40.5,70.7,40.5,70.7L40.5,70.7z"/>
		<path class="st1" d="M40.6,72.1c-2.2,1.5-4.8,2.9-6.6,4.9c-0.1,0.1,0,0.3,0.1,0.2c2.4-1.2,4.5-3.3,6.6-4.9
			C40.9,72.2,40.7,72,40.6,72.1z"/>
		<path class="st1" d="M39.3,74.8c-1.4,1-3.1,1.9-4.3,3.1c-0.1,0.1,0,0.2,0.1,0.1c1.6-0.8,3-2,4.4-3C39.6,74.9,39.4,74.7,39.3,74.8
			L39.3,74.8z"/>
		<path class="st1" d="M40.3,76.1c-1.7,1.3-3.6,2.6-5.1,4.1c-0.1,0.1,0,0.1,0.1,0.1c1.8-1.2,3.5-2.7,5.2-4
			C40.5,76.2,40.4,76,40.3,76.1L40.3,76.1z"/>
		<path class="st1" d="M37.8,79.1c-1,0.7-2.1,1.3-3.1,2c0,0,0,0.1,0,0.1C35.9,80.5,36.9,79.9,37.8,79.1C38,79.2,37.9,79.1,37.8,79.1
			L37.8,79.1z"/>
		<path class="st1" d="M75.2,75.1c-3.2,2.4-6.5,4.9-9.3,7.7c0,0.1,0,0.1,0.1,0.1C69.3,80.6,72.3,77.8,75.2,75.1
			C75.3,75.1,75.2,75,75.2,75.1L75.2,75.1z"/>
		<path class="st1" d="M76,74.9c-5.9,4-12,8-17.5,12.6c0,0,0,0.1,0.1,0.1C64.7,83.8,70.4,79.3,76,74.9C76.1,74.9,76.1,74.8,76,74.9
			L76,74.9z"/>
		<path class="st1" d="M66.6,81.6c-4.2,4-8.8,7.3-13.7,10.3c-0.1,0.1,0,0.2,0.1,0.1C58.1,89.4,62.6,85.8,66.6,81.6
			C66.7,81.7,66.6,81.6,66.6,81.6z"/>
		<path class="st1" d="M87.5,66.6c-4.5,3.1-9.2,5.9-13.9,8.8c0,0,0,0.1,0.1,0.1c4.9-2.5,9.5-5.6,13.9-8.8
			C87.6,66.7,87.5,66.6,87.5,66.6z"/>
		<path class="st1" d="M94.8,60.7c-4.6,3.8-9.4,6.8-14.4,10c0,0,0,0.1,0,0.1C85.8,68.5,90.7,64.7,94.8,60.7
			C94.9,60.7,94.9,60.6,94.8,60.7L94.8,60.7z"/>
		<path class="st1" d="M85.6,17.7c0.2,0.1,0.3,0.3,0.5,0.4c0,0,0,0,0,0L85.6,17.7C85.6,17.7,85.5,17.7,85.6,17.7z"/>
		<path class="st1" d="M88.8,24.7c-0.8-0.8-1.5-1.6-2.3-2.4c-0.1-0.1-0.2,0-0.1,0.1c0.9,1,1.5,2,2.1,3.2c0.2-0.1,0.3-0.2,0.5-0.2
			c-3.2-3.8-6.3-8-9.8-11.5c-0.2-0.2-0.5,0.1-0.3,0.3c2.9,4.1,6.5,7.8,9.7,11.5c0.2,0.3,0.6,0,0.5-0.3c-0.2-0.2-1.9-2.6-1.9-2.5
			C86.9,23.1,88.5,24.5,88.8,24.7C88.8,24.8,88.9,24.7,88.8,24.7L88.8,24.7z"/>
		<path class="st1" d="M87.7,26.5c-2.3-2.9-4.5-5.9-6.9-8.7c-0.2-0.2-0.5,0-0.3,0.2c2.3,2.9,4.7,5.7,7.1,8.5
			C87.6,26.7,87.7,26.6,87.7,26.5L87.7,26.5z"/>
		<path class="st1" d="M96.9,37.9c-4.2-5.3-8-10.9-12.2-16.2c-0.1-0.1-0.3,0-0.2,0.1C87.7,27.7,92.4,33,96.8,38
			C96.8,38,96.9,37.9,96.9,37.9L96.9,37.9z"/>
		<path class="st1" d="M99,41.8c-2-2.4-3.9-5.3-6.3-7.4c-0.1-0.1-0.2,0-0.2,0.1C94.2,37.3,96.8,39.5,99,41.8
			C98.9,41.9,99,41.9,99,41.8L99,41.8z"/>
		<path class="st1" d="M99.6,44c-2.1-2.3-4.1-4.8-6.3-7c-0.1-0.1-0.3,0.1-0.2,0.2c2,2.4,4.3,4.6,6.4,6.8
			C99.5,44.2,99.6,44.1,99.6,44L99.6,44z"/>
		<path class="st1" d="M98.4,45c-1.1-2.1-2.9-4.4-5-5.6c-0.1,0-0.1,0.1-0.1,0.1c0.8,0.9,1.7,1.6,2.5,2.5c0.9,1,1.6,2,2.4,3.1
			C98.3,45.1,98.4,45,98.4,45L98.4,45z"/>
		<path class="st1" d="M97.6,45.9c-1.4-1.8-2.8-3.7-4.6-5c-0.1-0.1-0.2,0-0.2,0.1c1.4,1.8,3.1,3.3,4.5,5.1
			C97.5,46.2,97.7,46,97.6,45.9L97.6,45.9z"/>
		<path class="st1" d="M95.8,45.4c-0.4-0.4-0.8-0.8-1.2-1.3s-0.8-0.9-1.3-1.2c-0.1-0.1-0.3,0-0.2,0.2c0.3,0.5,0.8,0.9,1.2,1.2
			c0.4,0.5,0.9,0.9,1.3,1.4C95.8,45.9,96,45.6,95.8,45.4z"/>
		<path class="st1" d="M100.2,44.8c-1-1.6-2.2-3.1-3.4-4.5c-0.2-0.2-0.5,0.1-0.4,0.3c0.6,1,1.3,1.6,2.2,2.2c0.1,0.1,0.2-0.1,0.2-0.2
			c-0.6-1.3-1.6-2.6-2.6-3.6c-0.2-0.2-0.4,0.1-0.3,0.3c0.7,1.2,1.7,2.5,2.7,3.4c0-0.1,0.1-0.1,0.1-0.2c-0.9-0.5-1.5-1.2-2-2.2
			l-0.4,0.2c1.1,1.5,2.4,3,3.7,4.3C100.1,45,100.2,44.9,100.2,44.8L100.2,44.8z"/>
		<path class="st1" d="M16.2,75.5c1,0.7,1.7,1,2.9,1.3c0.1,0,0.2-0.1,0.1-0.2C15.1,71.5,11.9,66,8.5,60.5c-0.1-0.1-0.3,0-0.2,0.1
			c1.2,3,3,5.8,4.8,8.5c0.9,1.3,1.8,2.7,2.8,3.9c0.5,0.6,1.8,1.6,1.9,2.3c0.6,0.4,0.5,0.6-0.1,0.5C17.1,76.1,16.7,75.9,16.2,75.5
			C16.2,75.4,16.2,75.4,16.2,75.5L16.2,75.5z"/>
		<path class="st1" d="M16.6,74.6c-4.2-5.9-8.2-12-12.4-17.9c-0.1-0.1-0.3,0-0.2,0.2C7.8,63,12,68.9,16.6,74.6
			C16.5,74.7,16.6,74.6,16.6,74.6L16.6,74.6z"/>
		<path class="st1" d="M26.8,89.7c-2.9-6.1-6.7-11.6-11.2-16.5c-0.1-0.2-0.4,0.1-0.2,0.2C19.9,78.5,23.5,83.9,26.8,89.7
			C26.8,89.8,26.9,89.8,26.8,89.7z"/>
		<path class="st1" d="M30.1,92.8c-2.9-5-6.1-10.1-9.9-14.5c-0.1-0.1-0.3,0-0.2,0.1C23.3,83.2,26.8,87.9,30.1,92.8
			C30,92.9,30.1,92.8,30.1,92.8L30.1,92.8z"/>
		<path class="st1" d="M32.8,95c-3-4.9-6.5-9.7-10.1-14.1c-0.1-0.1-0.2,0-0.1,0.1C25.6,85.7,29.1,90.6,32.8,95L32.8,95z"/>
		<path class="st1" d="M38.3,31c-4.7,2.9-9.2,6.5-13.4,10c0,0,0,0.1,0,0C29.5,38,34.2,34.7,38.3,31C38.4,31,38.4,30.9,38.3,31
			L38.3,31z"/>
		<path class="st1" d="M36.6,32.9c-5.4,4.2-11.1,8.1-16.6,12.3c-0.1,0.1,0,0.2,0.1,0.1C25.9,41.6,31.3,37.2,36.6,32.9
			C36.7,32.9,36.7,32.9,36.6,32.9L36.6,32.9z"/>
		<path class="st1" d="M48.6,22.8c-1.9,1.6-3.9,3-6,4.2c0,0,0,0,0,0C44.7,25.8,46.7,24.4,48.6,22.8z"/>
		<path class="st1" d="M56.9,18.5c-4.1,2.7-8.2,5.6-12.1,8.6c-0.1,0.1,0,0.2,0.1,0.1c4.1-2.7,8.2-5.6,12.1-8.6
			C57,18.6,56.9,18.5,56.9,18.5L56.9,18.5z"/>
		<path class="st1" d="M74.4,7c-4.3,2.8-9,5.5-13,8.7c-0.1,0.1,0,0.2,0.1,0.1C66,13.4,70.2,10.1,74.4,7C74.5,7.1,74.4,7,74.4,7z"/>
		<path class="st1" d="M14.1,72.7c-0.9,0.5-1.7,1-2.6,1.6c-0.7,0.5-1.6,0.9-2.2,1.6c-0.1,0.1,0,0.2,0.1,0.2c0.8-0.3,1.6-0.9,2.3-1.4
			c0.8-0.6,1.7-1.1,2.5-1.7C14.4,72.8,14.3,72.6,14.1,72.7L14.1,72.7z"/>
		<path class="st1" d="M13.8,72.9c-2.7,0.8-5.7,2.3-7.1,4.9C5.5,80,5.4,83,7.6,84.5c0.3,0.2,0.7-0.1,0.4-0.4
			c-1.6-2.3-1.4-5.1,0.6-7.1c1.5-1.6,3.6-2.5,5.4-3.6C14.2,73.2,14,72.8,13.8,72.9L13.8,72.9z"/>
		<path class="st1" d="M6.5,82.6c2,5.5,5.4,10.8,8.1,16c2.8,5.2,5.7,10.5,10,14.6c0.2,0.2,0.6-0.1,0.4-0.3
			c-3.7-4.7-6.9-9.4-9.8-14.7c-2.8-5.2-5.1-10.9-8.6-15.7C6.6,82.4,6.4,82.5,6.5,82.6L6.5,82.6z"/>
		<path class="st1" d="M123.9,40.1c-2.4-6.6-6.2-13-9.6-19.1c-0.1-0.2-0.4,0-0.3,0.2c2.9,6.3,5.9,13.2,9.8,19
			C123.9,40.2,124,40.2,123.9,40.1L123.9,40.1z"/>
		<path class="st1" d="M114.2,21.5c-0.8-0.8-1.9-1-3-0.6c-0.8,0.3-2,1.1-1.8,2.1c0,0.1,0.2,0.1,0.2,0.1c0.2-0.2,0.3-0.4,0.5-0.7
			c0.3-0.4,0.7-0.7,1.2-0.9c0.9-0.4,2-0.3,2.8,0.2C114.2,21.8,114.4,21.6,114.2,21.5L114.2,21.5z"/>
		<path class="st1" d="M112.1,21.5c-0.8,0.3-1.5,0.8-2.3,1.2c-0.7,0.4-1.6,0.8-2.2,1.4c-0.2,0.2,0,0.5,0.3,0.4
			c0.8-0.2,1.4-0.8,2.1-1.2c0.8-0.5,1.5-0.9,2.2-1.5C112.4,21.7,112.3,21.4,112.1,21.5L112.1,21.5z"/>
		<path class="st1" d="M111.8,21.6c-1.5,0.2-2.7,0.9-3.7,1.9c-0.3,0.3,0.1,0.7,0.5,0.5c1-0.5,2.1-1.1,3.1-1.6
			c0.8-0.4,2.2-1.2,2.8-0.1c0.1,0.1,0.2,0.1,0.3,0c0.6-0.8-0.4-1.3-1.2-1.3C112.9,20.9,112.3,21.2,111.8,21.6
			c-1.3,0.5-2.5,1.2-3.6,1.8c0.2,0.2,0.3,0.4,0.5,0.5c1-0.9,2-1.5,3.3-2C112,21.9,112,21.6,111.8,21.6L111.8,21.6z"/>
		<path class="st1" d="M112.7,21.7c-1.6-0.2-3.8,0.7-5,1.7c-0.2,0.1,0,0.4,0.2,0.3c0.9-0.3,1.6-0.8,2.5-1.2
			C111.2,22.3,112,22.1,112.7,21.7C112.7,21.7,112.7,21.7,112.7,21.7L112.7,21.7z"/>
		<path class="st1" d="M109,22.8c-2.3,1.1-1.3,2.8-0.3,4.7c3,5.3,5.9,10.8,9.3,15.8c0.1,0.2,0.5,0,0.4-0.2
			c-1.3-2.6-12-18.2-9.2-19.9C109.5,23.1,109.3,22.7,109,22.8L109,22.8z"/>
		<path class="st1" d="M122.9,39.7c-0.2,0.5-0.5,0.9-1,1.2c-0.4,0.3-0.9,0.4-1.2,0.7c-0.1,0.1-0.1,0.2,0,0.2
			c0.5,0.1,1.1-0.2,1.5-0.5c0.4-0.4,0.8-0.8,1-1.4C123.3,39.6,123,39.5,122.9,39.7z"/>
		<path class="st1" d="M124,40.3c-0.8,0.4-1.7,0.8-2.5,1.3c-1.1,0.6-3.3,2.3-4,0.3c-0.1-0.2-0.5-0.2-0.5,0c-0.1,1.2,1,1.8,2.1,1.6
			c1.8-0.3,3.6-1.9,5-2.9C124.4,40.5,124.2,40.2,124,40.3L124,40.3z"/>
		<path class="st1" d="M117.9,43c-3.1-5.9-6.4-11.6-9.5-17.5c-0.1-0.2-0.3,0-0.3,0.1c2,6,5.5,12.7,9.7,17.4
			C117.8,43.2,118,43.1,117.9,43z"/>
		<path class="st1" d="M115.5,22.3c-1.3-0.4-2.8-0.6-4.2-0.7c-0.4,0-0.5,0.6,0,0.7c1.4,0.3,2.8,0.5,4.2,0.4
			C115.8,22.8,115.8,22.4,115.5,22.3z"/>
		<path class="st1" d="M115.1,23.4c-0.7-0.3-1.4-0.4-2.1-0.5c-0.4-0.1-0.7-0.2-1.1-0.2c-0.5-0.1-0.5,0-1,0c-0.2,0-0.2,0.3-0.1,0.3
			c0.5,0.2,0.5,0.3,1,0.4c0.4,0.1,0.8,0.1,1.1,0.1c0.7,0.1,1.4,0.2,2.1,0.2C115.2,23.6,115.3,23.4,115.1,23.4z"/>
		<path class="st1" d="M115.7,24.7c-0.9-0.4-1.9-0.7-2.9-0.9c-0.9-0.2-1.8-0.4-2.7-0.2c-0.1,0-0.1,0.2,0,0.3
			c0.8,0.4,1.7,0.3,2.6,0.5c1,0.2,1.9,0.5,2.9,0.7C115.7,25.1,115.9,24.8,115.7,24.7L115.7,24.7z"/>
		<path class="st1" d="M116.6,26.1c-1.3-0.7-2.7-1-4.1-1.3c-1.2-0.3-2.6-0.6-3.8-0.2c-0.1,0-0.1,0.2,0,0.3c1.1,0.5,2.4,0.4,3.7,0.6
			c1.4,0.2,2.8,0.6,4.2,0.9C116.7,26.3,116.8,26.1,116.6,26.1L116.6,26.1z"/>
		<path class="st1" d="M115.2,23.8c-0.4-0.3-0.7-0.6-1.1-0.9c-0.3-0.2-0.6-0.5-0.9-0.5c-0.1,0-0.2,0.1-0.2,0.3
			c0.1,0.4,0.5,0.5,0.8,0.7c0.4,0.2,0.8,0.4,1.2,0.6C115.2,24.1,115.3,23.9,115.2,23.8z"/>
		<path class="st1" d="M134.8,57.1c-0.1,0.7-0.4,1.5-0.8,2.1c-0.4,0.7-1,1.1-1.5,1.7c-0.1,0.1,0,0.2,0.1,0.2c1.5-0.5,2.3-2.6,2.3-4
			C135,57,134.8,56.9,134.8,57.1L134.8,57.1z"/>
		<path class="st1" d="M135.6,58.9c-0.6,1.6-1.9,2.6-3.4,3.3c-0.1,0.1-0.1,0.2,0.1,0.2c1.7-0.4,2.9-1.8,3.4-3.5
			C135.7,58.8,135.6,58.8,135.6,58.9L135.6,58.9z"/>
		<path class="st1" d="M130.8,61.9c-1.8,1.4-3.7,2.5-5.7,3.6c0,0,0,0.1,0,0.1C127.2,64.7,129.1,63.4,130.8,61.9
			C130.9,61.9,130.9,61.9,130.8,61.9z"/>
		<path class="st1" d="M132.6,60.6c-11.3,5.6-22.7,11.4-33.6,17.8c-0.1,0.1,0,0.2,0.1,0.2c11.5-5,22.9-11.3,33.5-17.9
			C132.8,60.7,132.7,60.6,132.6,60.6L132.6,60.6z"/>
		<path class="st1" d="M130.6,47c1.7,3.2,3,6.6,4.6,9.7c0.1,0.1,0.2,0,0.2-0.1c-0.7-3.5-2.7-6.8-4.6-9.8
			C130.8,46.7,130.5,46.8,130.6,47z"/>
	</g>
</g>
</svg>
