<?xml version="1.0" encoding="utf-8"?>
<!-- Generator: Adobe Illustrator 27.1.1, SVG Export Plug-In . SVG Version: 6.00 Build 0)  -->
<svg version="1.1" id="Слой_1" xmlns="http://www.w3.org/2000/svg" xmlns:xlink="http://www.w3.org/1999/xlink" x="0px" y="0px"
	 viewBox="0 0 33 33" style="enable-background:new 0 0 33 33;" xml:space="preserve">
<style type="text/css">
	.st0{clip-path:url(#SVGID_00000183215487523646027760000017937585707453808800_);}
	.st1{fill:#64A4FF;}
</style>
<g>
	<defs>
		<rect id="SVGID_1_" width="33" height="33"/>
	</defs>
	<clipPath id="SVGID_00000079482708896538951350000018434335679069270673_">
		<use xlink:href="#SVGID_1_"  style="overflow:visible;"/>
	</clipPath>
	<g style="clip-path:url(#SVGID_00000079482708896538951350000018434335679069270673_);">
		<path class="st1" d="M32.9,13.9c-0.6-4.3-2.8-8.1-6.3-10.7c-3.5-2.6-7.7-3.7-12-3.1C9.5,0.9,5.2,3.9,2.7,8.3
			c-2.4,4.4-2.7,9.5-0.6,14c0.7,1.5,0.7,2.7,0.1,4.3c-0.5,1.3-0.9,2.6-1.4,3.9c-0.2,0.6-0.4,1.2-0.6,1.8L0,33l0.6-0.2
			c0.7-0.2,1.5-0.5,2.2-0.7c1.9-0.6,3.7-1.2,5.6-1.8c0.6-0.2,1-0.1,1.6,0.1c2.7,1.3,5.6,1.8,8.8,1.4c4.3-0.5,8.2-2.7,10.8-6
			C32.3,22.5,33.4,18.2,32.9,13.9L32.9,13.9z M5.2,27.5c0.2-0.8,0.5-1.6,0.8-2.3c0.4-1,0.3-1.7-0.2-2.7c-2.1-3.6-2.4-7.9-0.7-11.7
			c1.7-3.8,5.1-6.5,9.3-7.3c3.5-0.7,7.1,0.1,10.1,2.3c3,2.2,4.9,5.5,5.2,9.1c0.4,3.7-0.9,7.4-3.6,10.1c-2.7,2.7-6.3,4.1-10.3,3.9
			c-1.8-0.1-3.6-0.7-5.2-1.6c-0.4-0.2-0.8-0.4-1.3-0.4c-0.3,0-0.6,0.1-0.9,0.2c-0.9,0.3-1.8,0.6-2.7,0.9C5.6,27.9,5.3,28,5,28.1
			C5.1,27.9,5.2,27.7,5.2,27.5L5.2,27.5z"/>
		<path class="st1" d="M20.5,23.8c-0.9-0.3-2.3-0.7-3.7-1.4c-3.5-1.7-5.7-4.6-7.3-8c-1-2.1-0.5-4.2,1.1-5.6c1-0.8,2.4-0.5,2.8,0.7
			c0.3,0.7,0.5,1.5,0.8,2.1c0.4,0.8,0.2,1.4-0.4,2c-1,1-0.9,1-0.2,2.2c1.2,1.8,2.8,3.2,4.8,4.1c0.5,0.2,0.8,0.1,1.1-0.2
			c0.4-0.4,0.8-0.8,1.1-1.3c0.3-0.3,0.6-0.4,1-0.2c0.9,0.5,1.8,1,2.7,1.4c0.7,0.3,0.8,0.9,0.6,1.6C24.5,22.8,23.1,23.8,20.5,23.8z"
			/>
	</g>
</g>
</svg>
