<?xml version="1.0" encoding="utf-8"?>
<!-- Generator: Adobe Illustrator 27.1.1, SVG Export Plug-In . SVG Version: 6.00 Build 0)  -->
<svg version="1.1" id="Слой_1" xmlns="http://www.w3.org/2000/svg" xmlns:xlink="http://www.w3.org/1999/xlink" x="0px" y="0px"
	 viewBox="0 0 279.7 281.7" style="enable-background:new 0 0 279.7 281.7;" xml:space="preserve">
<style type="text/css">
	.st0{fill:url(#SVGID_1_);}
	.st1{fill:#FFFFFF;}
</style>
<g>
	
		<linearGradient id="SVGID_1_" gradientUnits="userSpaceOnUse" x1="160.6341" y1="279.7651" x2="118.5121" y2="6.4097" gradientTransform="matrix(1 0 0 -1 0 283.6515)">
		<stop  offset="0" style="stop-color:#F2A65F"/>
		<stop  offset="0.151" style="stop-color:#E39D5C"/>
		<stop  offset="0.3854" style="stop-color:#DD995B"/>
		<stop  offset="1" style="stop-color:#A54E33"/>
	</linearGradient>
	<path class="st0" d="M276.3,161.6l-16.3,10.6l9,17.3l-18.2,7l5.2,18.8l-19.2,3.1l1.1,19.5l-19.5-1l-2.9,19.3l-18.8-5l-6.9,18.2
		l-17.4-8.8l-10.5,16.4l-15.2-12.2l-13.7,13.9l-12.3-15.1l-16.3,10.7l-8.9-17.3L77.3,264l-5.1-18.8L53,248.4l-1.1-19.5L32.5,228
		l3-19.3l-18.9-4.9l6.9-18.2l-17.4-8.7l10.6-16.4L1.5,148.4l13.8-13.8L2.9,119.5l16.3-10.6l-9-17.3l18.2-7l-5.2-18.8l19.2-3.1
		l-1.1-19.5l19.5,1l2.9-19.3l18.8,5l6.9-18.2l17.4,8.8l10.5-16.4l15.2,12.2l13.7-13.9l12.3,15.1l16.3-10.7l8.9,17.3l18.1-7.1
		l5.1,18.8l19.2-3.2l1.1,19.5l19.5,0.9l-3,19.3l18.9,4.9l-6.9,18.2l17.4,8.7l-10.6,16.4l15.2,12.2l-13.8,13.8L276.3,161.6z"/>
</g>
<path class="st1" d="M61.4,115.8l-2.2,15.8c-0.2,1.6,0,2.9,0.7,3.8c0.7,1,1.7,1.5,3.2,1.8c1.5,0.2,2.7-0.1,3.6-0.8
	c0.9-0.7,1.5-1.9,1.7-3.5l2.2-15.8l6.4,0.9l-2.2,15.8c-0.3,2.4-1.1,4.3-2.3,5.8c-1.2,1.5-2.8,2.5-4.6,3.1c-1.8,0.6-3.7,0.7-5.8,0.5
	c-2.1-0.3-3.9-1-5.4-2c-1.5-1.1-2.6-2.5-3.4-4.2c-0.7-1.8-0.9-3.9-0.6-6.2l2.2-15.8L61.4,115.8z M62.6,113.5
	c-0.8-0.1-1.4-0.5-1.8-1.1c-0.5-0.6-0.6-1.3-0.5-2.1c0.1-0.8,0.5-1.4,1.1-1.8c0.6-0.5,1.3-0.7,2.1-0.6c0.8,0.1,1.4,0.5,1.9,1.1
	c0.5,0.6,0.6,1.3,0.5,2.1c-0.1,0.8-0.5,1.4-1.1,1.8C64.1,113.4,63.4,113.6,62.6,113.5z M70.1,114.5c-0.8-0.1-1.4-0.5-1.8-1.1
	s-0.6-1.3-0.5-2.1c0.1-0.8,0.5-1.4,1.1-1.8c0.6-0.5,1.3-0.7,2.1-0.6c0.8,0.1,1.4,0.5,1.9,1.1c0.5,0.6,0.6,1.3,0.5,2.1
	c-0.1,0.8-0.5,1.4-1.1,1.8C71.6,114.5,70.9,114.7,70.1,114.5z M78.7,131.6c0.4-2.6,1.3-4.9,2.7-6.7c1.4-1.9,3.2-3.3,5.4-4.1
	c2.2-0.9,4.6-1.1,7.1-0.8c3.1,0.4,5.7,1.6,7.7,3.6c2,2,3.2,4.4,3.5,7.4l-7.1-1c-0.4-1.2-1-2.1-1.9-2.8c-0.9-0.7-1.9-1.2-3.2-1.3
	c-2-0.3-3.7,0.2-5.1,1.4c-1.4,1.2-2.3,3-2.6,5.3c-0.3,2.3,0,4.2,1.1,5.8c1,1.6,2.5,2.5,4.5,2.7c1.2,0.2,2.4,0,3.4-0.4
	c1.1-0.4,1.9-1.2,2.6-2.2l7.1,1c-1.2,2.8-3,4.8-5.4,6.1c-2.5,1.3-5.3,1.8-8.4,1.3c-2.6-0.4-4.8-1.2-6.7-2.7c-1.8-1.4-3.2-3.2-4-5.4
	C78.6,136.6,78.4,134.2,78.7,131.6z M120.1,150.9l-4.1-10.7l-1.5-0.2l-1.4,10l-6.4-0.9l3.7-26.4l10.8,1.5c2.1,0.3,3.8,0.9,5.2,1.8
	c1.4,0.9,2.3,2.1,2.9,3.5c0.6,1.4,0.7,2.8,0.5,4.4c-0.2,1.8-1,3.3-2.2,4.5c-1.2,1.2-2.8,2-4.8,2.3l4.6,11.3L120.1,150.9z
	 M115.1,135.4l4,0.6c1.2,0.2,2.1,0,2.8-0.5c0.7-0.5,1.1-1.3,1.2-2.3c0.1-1-0.1-1.8-0.6-2.5c-0.5-0.7-1.3-1.1-2.5-1.2l-4-0.6
	L115.1,135.4z M140.6,132.1l-0.7,5.3l8.6,1.2l-0.7,5l-8.6-1.2l-0.8,5.8l9.7,1.4l-0.7,5.2l-16.2-2.3l3.7-26.4l16.2,2.3l-0.7,5.2
	L140.6,132.1z M174.2,131.6l-0.7,5.2l-7-1l-3,21.3l-6.4-0.9l3-21.3l-7-1l0.7-5.2L174.2,131.6z M183.3,160c-1.9-0.3-3.6-0.8-5.1-1.7
	c-1.4-0.8-2.5-1.9-3.3-3.3c-0.7-1.4-1-2.9-0.8-4.6l6.8,1c0,1,0.2,1.8,0.7,2.4c0.5,0.6,1.2,0.9,2.2,1.1c1,0.1,1.7,0,2.3-0.3
	c0.6-0.4,1-1,1.1-1.7c0.1-0.7-0.1-1.2-0.5-1.7c-0.4-0.5-0.9-0.9-1.5-1.3c-0.6-0.4-1.4-0.8-2.6-1.3c-1.6-0.8-3-1.5-4-2.2
	c-1-0.7-1.8-1.6-2.5-2.7c-0.6-1.1-0.8-2.5-0.6-4.2c0.3-2.5,1.5-4.3,3.5-5.4c2-1.2,4.4-1.5,7.3-1.1c2.9,0.4,5.2,1.4,6.7,3.1
	c1.6,1.6,2.3,3.7,2,6.2l-7-1c0.1-0.9-0.2-1.6-0.7-2.1c-0.5-0.6-1.2-0.9-2.1-1.1c-0.8-0.1-1.4,0-2,0.4c-0.5,0.3-0.9,0.9-1,1.7
	c-0.1,0.9,0.2,1.6,0.9,2.2c0.7,0.6,1.9,1.3,3.5,2.1c1.6,0.8,2.9,1.6,3.9,2.2c1,0.7,1.8,1.6,2.5,2.7c0.6,1.1,0.8,2.5,0.6,4
	c-0.2,1.5-0.8,2.8-1.7,3.9c-0.9,1.1-2.2,1.9-3.7,2.5C187,160.2,185.3,160.3,183.3,160z M207.1,136.2l-3.7,26.4l-6.4-0.9l3.7-26.4
	L207.1,136.2z M204.2,133.3c-0.8-0.1-1.4-0.5-1.8-1.1c-0.5-0.6-0.6-1.3-0.5-2.1c0.1-0.8,0.5-1.4,1.1-1.8c0.6-0.5,1.3-0.7,2.1-0.6
	c0.8,0.1,1.4,0.5,1.9,1.1c0.5,0.6,0.6,1.3,0.5,2.1c-0.1,0.8-0.5,1.4-1.1,1.8C205.6,133.2,204.9,133.4,204.2,133.3z M215.6,158.9
	l11.4,1.6l-0.7,5.3l-18.7-2.6l0.7-4.9l13.6-14.7l-11.3-1.6l0.7-5.3l18.7,2.6l-0.7,4.9L215.6,158.9z"/>
</svg>
