<?xml version="1.0" encoding="utf-8"?>
<!-- Generator: Adobe Illustrator 27.1.1, SVG Export Plug-In . SVG Version: 6.00 Build 0)  -->
<svg version="1.1" id="Слой_1" xmlns="http://www.w3.org/2000/svg" xmlns:xlink="http://www.w3.org/1999/xlink" x="0px" y="0px"
	 viewBox="0 0 394.6 173.6" style="enable-background:new 0 0 394.6 173.6;" xml:space="preserve">
<style type="text/css">
	.st0{fill:none;stroke:#AAAAAA;stroke-linecap:round;stroke-linejoin:round;stroke-dasharray:4.01,4.01;}
	.st1{fill:#AAAAAA;}
	.st2{clip-path:url(#SVGID_00000024706864851585615150000005147820805573644185_);}
</style>
<path class="st0" d="M0.7,69.5c23.9,32.1,77,78.5,164.5,89c65.5,7.9,131.8-9.5,171.3-64c21-28.9,17-71.4,0-84.5
	c-34-26.2-71.8,10.5-51.8,42.5c14.6,23.3,57,40.2,108.5,44"/>
<circle class="st1" cx="280.5" cy="42.2" r="2.5"/>
<path class="st1" d="M197.1,47.9c-0.5-0.3-0.8-0.7-0.9-1c-0.1-0.3,0-0.6,0.4-0.8c0.1,0,0.2-0.1,0.4,0c0.2,0,0.4,0.1,0.5,0.2
	c0.2,0.2,0.5,0.3,0.8,0.4c0.3,0.1,0.7,0,1.1-0.1c0.5-0.2,0.9-0.3,1.2-0.6c0.3-0.2,0.6-0.6,0.9-1c0.3-0.3,0.4-0.6,0.5-1
	c0.1-0.3,0.2-0.6,0.1-0.8c0-0.3-0.1-0.5-0.2-0.6c-0.3-0.4-0.7-0.7-1.1-0.9c-0.4-0.2-1-0.2-1.7,0c-0.1,0-0.2,0-0.4,0.1
	s-0.3,0.1-0.4,0.1c-0.1,0-0.2,0-0.2,0c-0.1,0-0.1,0-0.2,0s-0.1,0.1-0.2,0.2c-0.1,0.1-0.2,0.3-0.3,0.7c-0.1,0.3-0.3,0.9-0.6,1.6
	c-0.3,0.7-0.5,1.3-0.6,1.6c-0.2,0.3-0.3,0.4-0.4,0.4c-0.1,0-0.3-0.2-0.4-0.4c-0.1-0.2-0.2-0.4-0.3-0.6c-0.1-0.2-0.1-0.4,0-0.6
	c0.1-0.1,0.1-0.2,0.1-0.3c0-0.1,0.1-0.3,0.1-0.5c0.1-0.2,0.2-0.5,0.3-0.9c0.2-0.5,0.4-1,0.6-1.6c0.2-0.6,0.5-1.2,0.8-1.9
	c0.3-0.6,0.5-1.3,0.8-1.8c0.3-0.6,0.5-1.1,0.6-1.5c0.2-0.4,0.3-0.6,0.3-0.8c0-0.2,0-0.3,0-0.3c0-0.1,0-0.1-0.1-0.2
	c0-0.1,0-0.1,0-0.2c0,0,0.1-0.1,0.3-0.2c0.2-0.1,0.4-0.2,0.7-0.2c0.2-0.1,0.4-0.1,0.5-0.1c0.1,0,0.1,0,0.2,0c0.1,0,0.1,0,0.1-0.1
	c0,0,0.1,0,0.3,0s0.4,0,0.6,0c0.8,0.1,1.5,0.3,2,0.7c0.5,0.4,0.8,1,0.8,1.9c0,0.2-0.1,0.5-0.3,0.8c-0.2,0.3-0.4,0.6-0.6,1
	c-0.2,0.3-0.5,0.6-0.7,0.8c-0.2,0.1-0.3,0.3-0.5,0.4c-0.2,0.1-0.3,0.2-0.4,0.3c-0.1,0.1-0.2,0.1-0.2,0.1s0,0,0.1,0.1
	c0.1,0,0.2,0.1,0.3,0.1c0.6,0.2,1,0.5,1.3,0.8c0.3,0.3,0.6,0.7,0.7,1.3c0,0.2,0,0.4,0,0.7c0,0.3-0.1,0.5-0.2,0.8
	c-0.1,0.3-0.1,0.5-0.2,0.6c-0.1,0.1-0.2,0.2-0.2,0.3c0,0.1-0.1,0.1-0.1,0.1c0,0,0,0.1-0.1,0.3c-0.1,0.2-0.2,0.3-0.3,0.5
	c-0.1,0.2-0.3,0.4-0.4,0.5c-0.1,0.1-0.3,0.2-0.5,0.4c-0.2,0.2-0.5,0.4-0.7,0.5c-0.3,0.2-0.5,0.3-0.7,0.4c-0.3,0.1-0.7,0.2-1.1,0.3
	c-0.4,0.1-0.8,0.1-1.2,0C197.6,48.1,197.3,48,197.1,47.9z M198.4,40.4c0,0,0.1,0,0.3-0.1c0.2,0,0.4-0.1,0.7-0.1
	c0.2-0.1,0.4-0.1,0.5-0.2c0.1,0,0.1-0.1,0.3-0.1c0.1-0.1,0.2-0.1,0.4-0.3c0.2-0.2,0.3-0.3,0.5-0.5c0.2-0.2,0.4-0.4,0.6-0.6
	c0.2-0.2,0.4-0.5,0.5-0.7c0.3-0.4,0.4-0.7,0.4-0.9c0-0.2,0-0.4-0.2-0.5c-0.1-0.1-0.3-0.2-0.4-0.3c-0.2-0.1-0.4-0.1-0.6-0.1
	c-0.2,0-0.4,0-0.6,0.1c-0.2,0-0.3,0.1-0.4,0.2c-0.1,0.1-0.1,0.2-0.1,0.3c0,0.1,0,0.2-0.1,0.3c-0.1,0.1-0.1,0.2-0.2,0.3
	c0,0.1-0.1,0.2-0.1,0.3c-0.1,0.1-0.1,0.1-0.1,0.1c0,0-0.1,0.2-0.2,0.5c-0.1,0.2-0.3,0.6-0.5,1c-0.2,0.5-0.4,0.9-0.4,1.1
	C198.4,40.2,198.4,40.4,198.4,40.4z M208.1,46.2c-0.4,0.2-0.7,0.3-1.2,0.4c-0.4,0-0.8,0-1.1-0.2c-0.3-0.1-0.6-0.4-0.8-0.6
	c-0.1-0.2-0.2-0.4-0.3-0.7c-0.1-0.3-0.1-0.8-0.1-1.4c0.1-0.6,0.2-1.1,0.5-1.7c0.3-0.6,0.6-1.1,1-1.5c0.4-0.4,0.8-0.7,1.3-0.9
	c0.2-0.1,0.3-0.1,0.5-0.1c0.2,0,0.4,0,0.7,0c0.3,0,0.5,0.1,0.7,0.2c0.2,0.1,0.4,0.2,0.5,0.3c0.2,0.2,0.3,0.4,0.4,0.6
	c0.1,0.2,0.1,0.4,0.1,0.5c-0.1,0.4-0.2,0.8-0.5,1.2c-0.3,0.4-0.7,0.8-1.2,1c-0.2,0.1-0.4,0.1-0.7,0.2c-0.3,0-0.7,0-1.1-0.1
	c-0.3-0.1-0.5,0-0.6,0.1c-0.1,0.1-0.1,0.4-0.1,0.7c0,0.2,0.1,0.4,0.1,0.6c0.1,0.2,0.2,0.3,0.4,0.3c0.3,0,0.5,0.1,0.6,0
	c0.1,0,0.3-0.1,0.4-0.2c0.1-0.1,0.2-0.1,0.3-0.2c0.1-0.1,0.2-0.1,0.3-0.2c0.1-0.1,0.2-0.1,0.2-0.2c0.1,0,0.1-0.1,0.2-0.1
	c0.1,0,0.1,0,0.2,0c0.1,0,0.3,0.1,0.4,0.2c0.1,0.1,0.2,0.3,0.2,0.4c0,0.1-0.1,0.2-0.2,0.4c-0.1,0.2-0.3,0.3-0.5,0.5
	C208.6,45.9,208.3,46.1,208.1,46.2z M207.9,42.2c0.1,0,0.2-0.1,0.4-0.3c0.2-0.1,0.3-0.3,0.4-0.4c0.1-0.2,0.2-0.3,0.2-0.4
	c0-0.1-0.1-0.2-0.3-0.3c-0.2-0.1-0.4-0.1-0.7-0.1c-0.1,0-0.2,0.1-0.3,0.2c-0.1,0.1-0.3,0.2-0.4,0.4c-0.1,0.1-0.2,0.3-0.3,0.4
	c-0.1,0.1-0.2,0.2-0.2,0.3c0,0.1,0.1,0.1,0.3,0.1c0.1,0,0.3,0.1,0.5,0.1C207.6,42.3,207.8,42.2,207.9,42.2z M211.6,46.8
	c-0.2,0.1-0.4,0-0.6-0.2c-0.2-0.2-0.3-0.5-0.4-0.8c-0.1-0.4-0.1-0.8,0-1.2c0.1-0.1,0.1-0.3,0.1-0.4c0-0.1,0.1-0.3,0.1-0.3
	c0-0.1,0.1-0.3,0.1-0.5c0.1-0.2,0.2-0.5,0.2-0.7c0.1-0.3,0.2-0.5,0.2-0.7c0.1-0.2,0.1-0.3,0.2-0.4c0,0,0.1,0,0.1-0.1
	c0-0.1,0.1-0.2,0.1-0.3c0-0.1,0-0.2,0.1-0.3c0-0.1,0.1-0.2,0.1-0.3c0-0.1,0-0.1,0-0.2c0-0.1,0.1-0.2,0.1-0.2c0,0,0-0.1,0-0.1
	c0,0,0.1-0.1,0.1-0.1c0.1-0.2,0.2-0.4,0.3-0.7c0.1-0.3,0.3-0.7,0.4-1.2c0.2-0.4,0.3-0.8,0.5-1.2s0.3-0.8,0.3-1
	c0.1-0.3,0.1-0.5,0.1-0.5c0-0.1,0-0.2,0.1-0.3c0.1-0.1,0.2-0.1,0.3-0.1c0,0,0.1-0.1,0.3-0.1c0.1,0,0.2,0,0.3,0c0,0,0,0,0.1,0.1
	s0.1,0.1,0.2,0.2c0.1,0.1,0.2,0.2,0.3,0.3c0.1,0.1,0.1,0.2,0.1,0.4c0,0.2,0,0.3-0.1,0.5c0,0.1-0.1,0.3-0.2,0.6
	c-0.1,0.2-0.3,0.6-0.5,1.1c-0.1,0.2-0.2,0.5-0.3,0.7c-0.1,0.2-0.2,0.3-0.2,0.4s0,0.1-0.1,0.2c0,0.1-0.1,0.2-0.1,0.4
	c0,0.1-0.1,0.2-0.2,0.4c-0.1,0.2-0.2,0.4-0.3,0.6c-0.1,0.2-0.2,0.4-0.2,0.5c-0.1,0.1-0.1,0.2-0.1,0.3c0,0,0,0.1,0,0.1
	c0,0,0,0.1-0.1,0.1c0,0-0.1,0-0.1,0.1c0,0.1,0,0.1,0,0.1c0,0.1-0.1,0.4-0.3,1c-0.2,0.7-0.4,1.3-0.5,1.8c-0.2,0.6-0.2,1-0.2,1.3
	c0,0.3,0,0.5-0.1,0.7C211.8,46.6,211.7,46.7,211.6,46.8z M215.8,46.9c-0.7,0-1.2-0.2-1.5-0.6c-0.3-0.4-0.5-1-0.5-1.8
	c0-0.4,0.1-0.9,0.2-1.4c0.2-0.5,0.4-1,0.6-1.5c0.3-0.5,0.6-0.9,0.9-1.3c0.3-0.4,0.6-0.6,1-0.8c0.1-0.1,0.2-0.1,0.4-0.1
	c0.1,0,0.3-0.1,0.4-0.1c0.1,0,0.3,0,0.5,0c0.2,0,0.3,0,0.5,0.1c0.3,0.1,0.5,0.2,0.7,0.5c0.2,0.2,0.3,0.6,0.3,1c0,0.1,0,0.3,0,0.4
	c0,0.1-0.1,0.3-0.1,0.4c-0.2,0.4-0.4,0.8-0.7,1.1c-0.3,0.4-0.6,0.6-1,0.8c-0.1,0-0.2,0.1-0.3,0.1c-0.1,0-0.2,0-0.3,0
	c-0.3,0-0.5,0-0.7-0.1c-0.2-0.1-0.4-0.2-0.5-0.3l-0.1-0.1l-0.1,0.2c-0.1,0.2-0.1,0.4-0.2,0.6c0,0.2,0,0.3,0,0.3c0,0.1,0,0.3,0,0.5
	c0,0.1,0,0.3,0.1,0.4c0,0.1,0.1,0.1,0.2,0.1c0.1,0,0.2,0.1,0.3,0.1c0.1,0,0.1,0,0.2,0c0.1,0,0.1,0,0.2,0c0.2,0,0.4-0.1,0.5-0.2
	c0.1-0.1,0.3-0.2,0.4-0.3l0.1,0l0-0.1c0.2-0.1,0.3-0.2,0.4-0.2c0.1,0,0.1-0.1,0.2-0.1c0,0,0.1-0.1,0.2-0.1c0.2,0,0.3,0,0.5,0.1
	c0.2,0.1,0.3,0.2,0.3,0.4c0,0.1-0.1,0.2-0.2,0.3c-0.1,0.2-0.2,0.3-0.4,0.5c-0.1,0.1-0.3,0.3-0.4,0.3c0,0-0.1,0-0.1,0.1
	c0,0-0.1,0-0.1,0.1h0c-0.1,0.1-0.2,0.2-0.3,0.2h-0.1c0,0.1-0.2,0.2-0.5,0.3C216.3,46.9,216.1,46.9,215.8,46.9z M216.8,42.6
	c0.1,0,0.2,0,0.3-0.1c0.1,0,0.2-0.1,0.3-0.1c0.3-0.2,0.5-0.5,0.6-0.8s0.1-0.6-0.1-0.7c0,0-0.1-0.1-0.1-0.1c0,0-0.1,0-0.1,0
	c-0.1,0-0.3,0-0.4,0.1c-0.2,0.1-0.3,0.2-0.5,0.4c-0.2,0.2-0.3,0.3-0.4,0.6l-0.2,0.4c0,0,0,0,0.1,0c0,0,0,0,0.1,0
	c0.1,0,0.2,0,0.2,0.1c0,0.1,0.1,0.1,0.1,0.2C216.5,42.5,216.6,42.6,216.8,42.6z M220.5,46.5c-0.2-0.1-0.3-0.2-0.5-0.3
	c-0.1-0.1-0.2-0.3-0.2-0.6c0-0.2,0.1-0.4,0.1-0.6c0-0.2,0.1-0.4,0.2-0.6c0-0.2,0.1-0.4,0.1-0.6c0.1-0.2,0.2-0.4,0.3-0.6
	c0.2-0.4,0.3-0.9,0.5-1.3c0.2-0.4,0.3-0.9,0.4-1.4c0.2-0.4,0.3-0.8,0.5-1.2c0.2-0.3,0.3-0.8,0.6-1.3c0.1-0.3,0.2-0.6,0.3-0.9
	c0.1-0.3,0.2-0.7,0.4-0.9c0.1-0.1,0.1-0.2,0.2-0.3c0-0.1,0.1-0.2,0.1-0.2c0.1-0.2,0.2-0.2,0.4-0.2c0.2,0,0.3,0.1,0.4,0.1
	c0.2,0.1,0.3,0.2,0.4,0.5c0.1,0.2,0.1,0.4,0.1,0.5c0,0.1,0,0.3-0.1,0.4c0,0-0.1,0.1-0.1,0.2c0,0.1-0.1,0.2-0.2,0.3
	c0,0.2-0.1,0.3-0.1,0.5c0,0.2-0.1,0.3-0.2,0.4s-0.1,0.3-0.2,0.4c-0.1,0.1-0.1,0.2-0.1,0.3c-0.1,0.3-0.2,0.5-0.4,0.8
	c-0.1,0.3-0.2,0.5-0.3,0.8c-0.1,0.3-0.2,0.6-0.3,0.9c-0.1,0.3-0.2,0.6-0.4,0.9c-0.1,0.1-0.1,0.3-0.1,0.5c0,0.2,0,0.4-0.1,0.6
	c-0.1,0.2-0.2,0.4-0.2,0.6c-0.1,0.2-0.1,0.3-0.1,0.3c-0.1,0.3-0.1,0.5-0.2,0.8c0,0.3-0.1,0.5-0.2,0.7c0,0.3-0.1,0.5-0.2,0.5
	C220.9,46.5,220.7,46.5,220.5,46.5z M224.6,46.6c-0.2,0-0.3-0.1-0.4-0.1c-0.1-0.1-0.3-0.2-0.5-0.4c-0.1-0.1-0.3-0.4-0.5-0.7
	c-0.2-0.3-0.4-0.6-0.6-1c-0.2-0.3-0.4-0.6-0.6-0.9l1-1.3c0.2,0.2,0.3,0.4,0.4,0.5c0.1,0.2,0.2,0.3,0.2,0.3c0.3,0.4,0.5,0.7,0.6,1
	c0.2,0.3,0.3,0.5,0.4,0.6c0.1,0.2,0.3,0.3,0.4,0.4c0.1,0.1,0.3,0.2,0.6,0.4c0,0,0.1,0.1,0.1,0.2c0,0.1,0,0.2,0,0.3
	c0,0.1-0.1,0.3-0.3,0.4C225.2,46.5,225,46.6,224.6,46.6z M222,43.3c-0.1-0.2-0.1-0.4-0.1-0.7c0-0.3,0.2-0.4,0.3-0.5
	c0-0.1,0.1-0.1,0.1-0.2c0.1,0,0.1-0.1,0.1-0.1c0,0,0.1-0.1,0.2-0.2c0.1-0.1,0.2-0.2,0.3-0.2c0.2-0.1,0.4-0.3,0.6-0.4
	c0.2-0.2,0.5-0.4,0.7-0.5c0.2-0.2,0.4-0.3,0.6-0.5c0.2-0.1,0.3-0.2,0.3-0.3c0,0,0.1-0.1,0.2-0.1c0.1,0,0.2,0,0.3,0.1
	c0.1,0,0.3,0.1,0.3,0.2c0.1,0.1,0.1,0.3,0.1,0.5c0,0.1,0,0.3-0.2,0.5c-0.2,0.2-0.4,0.4-0.7,0.5c-0.1,0.1-0.2,0.2-0.4,0.3
	c-0.2,0.1-0.3,0.2-0.4,0.3c-0.1,0-0.2,0.1-0.4,0.3c-0.2,0.1-0.3,0.2-0.4,0.3c-0.1,0.1-0.2,0.2-0.3,0.3c-0.1,0.1-0.3,0.3-0.4,0.3
	c-0.4,0.4-0.6,0.5-0.7,0.5C222.1,43.8,222.1,43.6,222,43.3z M235.7,47.1c-0.4,0.1-0.8,0.2-1.3,0.2c-0.5,0-0.9,0-1.4-0.1
	s-1-0.3-1.5-0.5c0-0.1-0.1-0.3-0.2-0.4c-0.1-0.1-0.2-0.2-0.3-0.2c0,0-0.1-0.1-0.2-0.2c-0.1-0.1-0.1-0.2-0.2-0.3
	c0-0.1-0.1-0.3-0.1-0.4c0-0.1,0-0.2,0-0.4c0-0.2,0.1-0.4,0.1-0.7c0.1-0.2,0.1-0.4,0.3-0.7c0.1-0.3,0.3-0.7,0.4-1.1
	c0.2-0.4,0.3-0.8,0.5-1.2c0.4-1.1,0.8-1.9,1-2.5c0.3-0.6,0.4-1.1,0.5-1.4c0.1-0.3,0.1-0.5,0.1-0.6s0-0.3-0.1-0.4
	c-0.1-0.2-0.1-0.4,0-0.6c0.1-0.2,0.2-0.3,0.5-0.4c0.2-0.1,0.5-0.2,0.8-0.4c0.3-0.1,0.6-0.2,0.9-0.3c0.3-0.1,0.6-0.2,0.8-0.2
	c0.2,0,0.4,0,0.6,0c0.3,0,0.5,0.1,0.8,0.1c0.3,0.1,0.5,0.1,0.7,0.2c0.2,0.1,0.3,0.2,0.3,0.3c0,0,0,0,0.1,0c0,0,0.1,0,0.1,0
	s0,0,0.1,0c0,0,0.1,0.1,0.2,0.2c0.1,0.1,0.2,0.3,0.3,0.6c0.1,0.3,0.1,0.5,0.1,0.7c0,0,0,0.1,0,0.2c0,0.1,0.1,0.2,0.1,0.4
	c0.1,0.3,0,0.7-0.1,1.1s-0.4,0.8-0.8,1.3c-0.1,0.2-0.3,0.3-0.4,0.5c-0.1,0.2-0.2,0.2-0.3,0.2c-0.1,0.1-0.2,0.2-0.3,0.4
	c-0.1,0.1,0,0.2,0.1,0.2c0,0,0,0.1,0.1,0.2c0.1,0.1,0.2,0.3,0.3,0.4c0.2,0.3,0.4,0.8,0.4,1.2c0.1,0.5,0,0.9-0.1,1.3
	c-0.1,0.3-0.3,0.7-0.6,1.1c-0.3,0.4-0.7,0.8-1.2,1.2C236.6,46.6,236.2,46.9,235.7,47.1z M233.8,45.7c0.4,0.1,0.8,0.1,1.2,0
	c0.4-0.1,0.7-0.2,1-0.5c0.3-0.2,0.6-0.6,0.9-1c0.3-0.4,0.5-0.8,0.5-1c0-0.3-0.1-0.6-0.3-0.9c-0.2-0.3-0.3-0.4-0.5-0.5
	c-0.2-0.1-0.3-0.1-0.5,0c-0.2,0-0.4,0.1-0.7,0.2c-0.2,0-0.5,0.1-0.8,0.2c-0.3,0.1-0.5,0.2-0.8,0.3c-0.2,0.1-0.4,0.1-0.4,0.1
	c0,0,0,0-0.1,0.1c-0.1,0.1-0.1,0.2-0.2,0.2c-0.1,0.1-0.1,0.1-0.1,0.2c-0.1,0-0.1,0.1-0.2,0.2c0,0.1-0.1,0.2-0.1,0.3
	c0,0.1,0,0.2-0.1,0.3c0,0.1,0,0.1,0,0.1c0.1,0,0.1,0.1,0,0.3c-0.1,0.2-0.1,0.3-0.1,0.5c-0.1,0.3,0,0.5,0.3,0.6
	C233,45.6,233.4,45.6,233.8,45.7z M234.1,40.9c0.1,0,0.3-0.1,0.5-0.1c0.2-0.1,0.4-0.2,0.6-0.2c0.4-0.1,0.8-0.3,1.2-0.5
	s0.7-0.5,0.9-0.8c0.3-0.3,0.5-0.7,0.6-1c0.1-0.1,0.1-0.3,0.2-0.6c0-0.3,0-0.5,0-0.6v-0.1c-0.1-0.2-0.3-0.4-0.5-0.5
	c-0.3-0.1-0.6-0.1-0.9-0.1c-0.4,0-0.7,0.1-1.2,0.3c-0.2,0.1-0.3,0.2-0.3,0.4c0,0.2-0.1,0.4-0.1,0.6c0,0.3-0.1,0.5-0.2,0.7
	c-0.1,0.1-0.1,0.3-0.2,0.6c0,0,0,0.1-0.1,0.1c0,0-0.1,0.1-0.1,0.2c0,0,0,0.1-0.1,0.3c-0.1,0.2-0.1,0.4-0.2,0.6
	c-0.1,0.2-0.1,0.4-0.2,0.5c0,0.2-0.1,0.2-0.1,0.2s0,0.1,0,0.2C234,40.9,234,40.9,234.1,40.9z M241.7,46.4c-0.5-0.2-0.8-0.5-1-0.9
	c-0.2-0.4-0.2-1-0.1-1.7c0-0.4,0-0.6,0-0.7c0-0.1-0.1-0.3-0.3-0.4c0,0-0.1-0.1-0.3-0.2c-0.1-0.1-0.2-0.2-0.2-0.3
	c0-0.1,0-0.2,0.1-0.3c0-0.1,0.1-0.2,0.1-0.2c0.1,0,0.2-0.1,0.3-0.1c0.1,0,0.2-0.1,0.2,0c0,0,0.1,0,0.2,0.1c0.1,0.1,0.2,0.1,0.2,0.2
	c0,0.1,0.1,0,0.2-0.1c0.1-0.2,0.2-0.4,0.3-0.6c0.1-0.2,0.3-0.4,0.4-0.5c0.2-0.2,0.4-0.3,0.5-0.5c0.2-0.1,0.4-0.3,0.5-0.3
	c0.1,0,0.2-0.1,0.3-0.1c0.2,0,0.4-0.1,0.6-0.1c0.2,0,0.3,0,0.4,0c0.2,0,0.4,0.1,0.7,0.3c0.2,0.2,0.4,0.3,0.6,0.5
	c0.2,0.1,0.3,0.3,0.3,0.5c0.1,0.2,0.1,0.4,0.1,0.7c0,0.2-0.1,0.4-0.1,0.6c0,0.1-0.2,0.3-0.4,0.5s-0.5,0.4-0.7,0.6
	c-0.3,0.2-0.5,0.3-0.6,0.4c-0.2,0-0.3,0.1-0.6,0.1c-0.2,0-0.4,0-0.6,0c-0.2,0-0.3-0.1-0.4-0.1c-0.1,0-0.2,0-0.2,0.1
	c0,0.1-0.1,0.3-0.1,0.6c0,0.1,0,0.2,0,0.3c0,0.1,0,0.2,0.1,0.2c0.1,0.1,0.2,0.3,0.3,0.3c0.1,0.1,0.2,0.1,0.5,0.1
	c0.2,0,0.5-0.2,0.7-0.4c0.2-0.3,0.5-0.5,0.6-0.6c0-0.1,0.2-0.1,0.3-0.2c0.2,0,0.4,0,0.6,0c0.1,0.1,0.2,0.2,0.2,0.4
	c0,0.2-0.1,0.4-0.3,0.8c0,0.1-0.1,0.2-0.3,0.4c-0.2,0.2-0.3,0.3-0.5,0.5c-0.2,0.2-0.3,0.3-0.4,0.3c-0.4,0.2-0.7,0.3-1.1,0.3
	C242.3,46.6,242,46.5,241.7,46.4z M243,42.4c0.2,0,0.3-0.1,0.4-0.1c0.1,0,0.3-0.1,0.4-0.2c0.1-0.1,0.3-0.3,0.4-0.5
	c0-0.1,0.1-0.2,0.1-0.3c0-0.1,0-0.2,0-0.2c-0.1-0.1-0.2-0.1-0.3-0.1c-0.1,0-0.2,0.1-0.4,0.2c-0.1,0-0.2,0.1-0.4,0.2
	c-0.1,0.1-0.3,0.2-0.4,0.4c-0.1,0.1-0.2,0.3-0.3,0.4c-0.1,0.1-0.1,0.2,0,0.2c0,0,0,0.1,0.2,0.1C242.9,42.4,243,42.4,243,42.4z
	 M247,46.2c0-0.1-0.2-0.2-0.3-0.3c-0.2-0.1-0.2-0.2-0.2-0.2s0-0.1-0.1-0.2c0-0.1-0.1-0.2-0.1-0.2c-0.1-0.1,0-0.2,0.1-0.5
	c0.1-0.3,0.2-0.6,0.4-1c0.2-0.4,0.4-0.8,0.6-1.2c0.1-0.1,0.2-0.2,0.3-0.4c0.1-0.2,0.2-0.3,0.2-0.3c0,0,0-0.1,0.1-0.1
	c0,0,0.1-0.1,0.1-0.1l0.1-0.3c0,0,0.1-0.1,0.2-0.3c0.1-0.1,0.3-0.3,0.5-0.5c0.2-0.2,0.4-0.3,0.5-0.5c0.2-0.2,0.3-0.3,0.5-0.3
	c0.3-0.2,0.5-0.2,0.8-0.2c0.3,0,0.5,0.1,0.7,0.3c0,0,0.1,0.1,0.2,0.2c0.1,0.1,0.3,0.2,0.4,0.4c0.2,0.1,0.3,0.3,0.4,0.4l0.7,0.6
	l-0.3,0.9c-0.2,0.5-0.2,0.9-0.1,1.3c0.1,0.4,0.2,0.7,0.3,0.9c0.1,0.1,0.1,0.2,0.2,0.3c0.1,0.1,0.2,0.1,0.4,0.1c0.1,0,0.2,0,0.3,0.1
	c0.1,0.1,0.1,0.2,0.1,0.3c0,0.3-0.1,0.5-0.2,0.6c-0.1,0.1-0.2,0.2-0.3,0.2c-0.4,0-0.8,0-1.1-0.1s-0.7-0.5-1-1c0-0.1-0.1-0.2-0.2-0.4
	c-0.1-0.2-0.1-0.3-0.1-0.4c0,0.1-0.1,0.1-0.2,0.2c-0.1,0.1-0.1,0.2-0.2,0.2c-0.9,0.9-1.6,1.4-2.2,1.7
	C247.9,46.5,247.4,46.5,247,46.2z M247.9,44.7c0.1,0,0.2,0,0.4-0.1c0.2-0.1,0.4-0.3,0.7-0.5c0.4-0.3,0.7-0.6,1-0.9
	c0.3-0.2,0.5-0.5,0.8-0.9l0.4-0.6c-0.1-0.3-0.2-0.5-0.3-0.5c-0.1-0.1-0.2-0.1-0.3-0.1c-0.2,0-0.3,0.1-0.6,0.3
	c-0.2,0.2-0.5,0.5-0.7,0.9c-0.3,0.4-0.6,0.8-0.9,1.4c-0.2,0.3-0.3,0.5-0.4,0.8C248,44.6,247.9,44.7,247.9,44.7z M257.2,46.4
	c-0.2,0.1-0.3,0.1-0.5,0.1c-0.2,0-0.5-0.1-0.8-0.2c0,0-0.1-0.1-0.3-0.2c-0.1-0.1-0.3-0.2-0.4-0.4c-0.1-0.1-0.2-0.3-0.3-0.4
	c-0.2-0.3-0.3-0.7-0.2-1.2c0.1-0.5,0.3-1.2,0.6-1.9c0.1-0.2,0.2-0.4,0.4-0.7c0.2-0.3,0.4-0.5,0.5-0.8c0.2-0.2,0.3-0.4,0.4-0.4
	c0,0,0.1,0,0.2-0.1c0.1,0,0.3-0.1,0.5-0.2c0.1,0,0.2-0.1,0.3-0.1c0.2,0,0.3-0.1,0.5-0.1c0.2,0,0.3,0,0.3,0c0.2,0,0.5,0.1,0.7,0.3
	c0.3,0.2,0.5,0.3,0.6,0.6c0.2,0.2,0.2,0.4,0.2,0.5c0,0,0,0.1-0.1,0.2c-0.1,0.1-0.1,0.2-0.2,0.4c-0.1,0.1-0.1,0.2-0.2,0.3
	c-0.1,0.1-0.2,0.1-0.3,0.1c-0.1,0-0.3-0.1-0.4-0.1c-0.1-0.1-0.2-0.2-0.2-0.3c0-0.1-0.1-0.2-0.3-0.3c-0.1-0.1-0.2-0.1-0.2-0.1
	c-0.1,0-0.2,0.1-0.4,0.3c-0.2,0.2-0.3,0.4-0.5,0.6c-0.2,0.2-0.4,0.5-0.5,0.7c-0.1,0.2-0.1,0.5-0.2,0.7c0,0.2-0.1,0.4-0.1,0.5
	c0,0.1,0,0.3,0,0.5c0,0.2,0.1,0.3,0.2,0.3c0.1,0,0.3,0,0.4,0c0.2,0,0.4-0.1,0.6-0.1c0.2-0.1,0.4-0.1,0.6-0.2
	c0.2-0.1,0.4-0.1,0.6-0.2c0.2-0.1,0.4-0.2,0.6-0.2c0.2,0,0.3,0,0.4,0.1c0.1,0,0.2,0.2,0.2,0.3s-0.1,0.3-0.2,0.5
	c-0.1,0.2-0.3,0.3-0.5,0.4c-0.2,0.1-0.4,0.2-0.5,0.3c-0.1,0.1-0.2,0.2-0.2,0.3c0,0-0.1,0-0.2,0.1c0,0-0.1,0-0.1,0c0,0-0.1,0-0.3,0.1
	s-0.3,0.1-0.5,0.1C257.4,46.4,257.3,46.4,257.2,46.4z M262.1,45.9c-0.1,0-0.2,0-0.3-0.1c-0.1-0.1-0.2-0.2-0.3-0.2
	c-0.1-0.1-0.2-0.3-0.3-0.4c0-0.1-0.1-0.2-0.1-0.4s0-0.3,0-0.5c0.1-0.2,0.1-0.5,0.2-0.8c0.1-0.3,0.2-0.7,0.3-1c0-0.1,0.1-0.3,0.1-0.5
	c0.1-0.2,0.1-0.4,0.2-0.6c0.1-0.2,0.1-0.3,0.2-0.4c0.1-0.3,0.2-0.6,0.3-0.9c0.1-0.3,0.2-0.6,0.3-1c0.1-0.4,0.3-0.8,0.5-1.4
	c0.3-0.7,0.5-1.3,0.6-1.6s0.2-0.6,0.3-0.8c0.1-0.2,0.1-0.3,0.1-0.4c0-0.1,0.1-0.2,0.2-0.3c0.1-0.1,0.3-0.1,0.4-0.1
	c0.2,0,0.3,0.1,0.5,0.3c0.2,0.2,0.3,0.4,0.3,0.7c0.1,0.3,0,0.5-0.1,0.7c-0.2,0.4-0.4,0.9-0.6,1.5c-0.2,0.5-0.4,1.1-0.5,1.6
	c-0.2,0.5-0.4,1-0.5,1.5c0,0.1-0.1,0.2-0.1,0.3c-0.1,0.1-0.1,0.3-0.2,0.4s-0.1,0.2-0.1,0.3c0,0.1-0.1,0.1-0.1,0.1
	c0,0.1,0,0.2-0.1,0.3c0,0.1-0.1,0.2-0.1,0.3c0,0.1,0,0.1-0.1,0.2c0,0.1,0,0.2-0.1,0.3c0.1-0.1,0.1-0.2,0.3-0.3
	c0.1-0.1,0.2-0.2,0.4-0.4c0.2-0.2,0.4-0.3,0.5-0.4c0.1-0.1,0.3-0.2,0.4-0.3c0.1-0.1,0.3-0.2,0.4-0.3c0.1-0.1,0.2-0.1,0.2-0.1
	c0,0,0-0.1,0.1-0.1c0,0,0.1-0.1,0.1-0.1c0,0,0.1-0.1,0.1-0.1c0.1,0,0.1-0.1,0.2-0.1c0.1-0.1,0.2-0.1,0.3-0.2c0.1,0,0.2-0.1,0.4-0.1
	c0.1,0,0.3,0,0.4,0c0.1,0,0.3,0.1,0.5,0.2c0.2,0.1,0.3,0.3,0.4,0.5c0.1,0.2,0.2,0.3,0.2,0.6c0,0.2,0,0.5,0,0.8c0,0.1,0,0.3-0.1,0.5
	c0,0.3-0.1,0.5-0.1,0.6l-0.2,0.6h0.1c0.1,0,0.3-0.1,0.4,0c0.1,0,0.2,0.1,0.2,0.1c0.1,0,0.1,0.1,0.2,0.1c0.1,0,0.1,0.1,0.2,0.1
	c0.1,0.1,0.1,0.2,0,0.4c-0.1,0.2-0.2,0.3-0.3,0.4c-0.3,0.2-0.5,0.3-0.8,0.4c-0.2,0-0.4,0-0.7-0.1c-0.2-0.2-0.4-0.3-0.5-0.6
	c-0.1-0.2-0.1-0.5-0.1-0.9c0-0.5,0.1-0.9,0.1-1.1c0-0.2,0-0.4-0.2-0.4c-0.1,0-0.3,0.1-0.6,0.2c-0.2,0.1-0.5,0.3-0.8,0.6
	c-0.3,0.2-0.6,0.5-0.9,0.8c-0.3,0.3-0.5,0.6-0.8,0.8c-0.1,0.2-0.3,0.4-0.5,0.5C262.6,45.8,262.4,45.9,262.1,45.9z"/>
<g>
	<defs>
		
			<rect id="SVGID_1_" x="50.2" y="88.9" transform="matrix(0.9237 -0.3831 0.3831 0.9237 -42.5567 46.7282)" width="91.7" height="82.6"/>
	</defs>
	<clipPath id="SVGID_00000037674822324180453420000001982564592892487582_">
		<use xlink:href="#SVGID_1_"  style="overflow:visible;"/>
	</clipPath>
	<g style="clip-path:url(#SVGID_00000037674822324180453420000001982564592892487582_);">
		<path class="st1" d="M60.3,100.3c-0.6,0.6-0.9,1.2-0.9,2.1c0,0.7,0.2,1.6,0.9,2.1c0.1,0.1,0.2,0,0.2-0.1c-0.3-0.7-0.6-1.2-0.6-2
			c0-0.6,0.2-1.4,0.5-2C60.4,100.4,60.3,100.3,60.3,100.3L60.3,100.3z"/>
		<path class="st1" d="M60.1,104c-0.3,0.1-0.6,0.2-0.8,0.3c-0.1,0-0.1,0.1-0.1,0.2c0.1,0.6,0.4,1.2,0.9,1.5c0.3,0.3,1.1,0.7,1.5,0.3
			c0.1-0.1,0.1-0.1,0-0.2c-0.1-0.1-0.3-0.1-0.4-0.1c-0.3-0.1-0.5-0.2-0.7-0.3c-0.4-0.3-0.7-0.8-0.8-1.3c0,0.1-0.1,0.1-0.1,0.2
			c0.3-0.1,0.5-0.3,0.8-0.5C60.4,104.2,60.2,104,60.1,104L60.1,104z"/>
		<path class="st1" d="M61.2,106.3c-0.1,0.6,0,1.1,0.4,1.6c0.3,0.3,0.9,0.8,1.4,0.6c0.1,0,0.1-0.2,0-0.2c-0.3-0.2-0.7-0.3-1-0.6
			c-0.3-0.3-0.5-0.8-0.5-1.3C61.5,106.2,61.2,106.1,61.2,106.3L61.2,106.3z"/>
		<path class="st1" d="M62.7,108c-1.1,2.4,5.3,5.8,6.7,6.6c1.8,1.1,3.8,2,5.6,3c1.9,1.1,3.5,2.6,5.4,3.7c0.2,0.1,0.5-0.2,0.4-0.4
			c-1.4-2.8-5.2-4.4-7.9-5.8c-1.8-0.9-3.7-1.7-5.4-2.8c-1.3-0.9-4.4-2.6-4.6-4.3C62.9,108,62.7,107.9,62.7,108L62.7,108z"/>
		<path class="st1" d="M61.5,100.6C61.4,100.6,61.4,100.6,61.5,100.6c0.1,0,0.1-0.1,0.1-0.1c0.2-0.2,0.4-0.3,0.7-0.2
			c0.6,0.1,0.8,0.9,1.1,1.4c0.3,0.6,0.7,1.3,1.5,1.2c0.1,0,0.2-0.2,0.1-0.2c-1-0.6-1-1.9-1.8-2.6c-0.5-0.5-1.4-0.5-1.9,0.1
			c-0.1,0.1-0.1,0.3,0.1,0.4c0,0,0,0,0,0.1C61.3,100.7,61.4,100.7,61.5,100.6z"/>
		<path class="st1" d="M64.9,103c0.1-0.5,0-1.2,0.4-1.5c0.4-0.3,0.9-0.3,1.3-0.3c0.9,0.1,1.4,0.6,1.9,1.3c0.1,0.1,0.2,0,0.2-0.1
			c-0.2-1-1.2-1.4-2.1-1.5c-0.5,0-0.9,0.1-1.3,0.4C64.8,101.7,64.9,102.3,64.9,103C64.9,103,64.9,103,64.9,103L64.9,103z"/>
		<path class="st1" d="M68.7,102.7c0-0.3,0.2-1,0.6-1c0.3,0,0.7,0.4,1,0.6c0.5,0.4,1,0.9,1.5,1.3c0.1,0.1,0.4-0.1,0.3-0.2
			c-0.5-1-1.8-1.6-2.7-2c0,0-0.1,0-0.1,0C68.8,101.7,68.6,102.1,68.7,102.7C68.6,102.7,68.7,102.7,68.7,102.7L68.7,102.7z"/>
		<path class="st1" d="M68.3,106.5c-0.3,0-0.5,0.1-0.6,0.4c-0.1,0.3,0.2,0.6,0.4,0.9c0.5,0.6,1.3,1,2.1,1c0.1,0,0.2-0.2,0-0.3
			c-0.4-0.2-0.9-0.3-1.3-0.6c-0.3-0.2-1.3-0.9-0.6-1.2C68.4,106.6,68.4,106.5,68.3,106.5L68.3,106.5z"/>
		<path class="st1" d="M68.7,106.8c0.4-0.1,0.8,0.1,1.1,0.4c0.2,0.1,0.3,0.3,0.4,0.5c0.1,0.2,0.1,0.3,0.2,0.5c0.1,0.1,0.2,0.1,0.2,0
			c0.3-0.4-0.2-1-0.5-1.3c-0.4-0.3-1-0.4-1.5-0.2C68.5,106.6,68.6,106.8,68.7,106.8z"/>
		<path class="st1" d="M73.2,104c-0.9-0.6-0.3-2.3,0.9-1.7c1,0.5,0.8,1.7,1,2.6c0,0.2,0.2,0.2,0.3,0c0.2-0.8,0.2-1.8-0.4-2.5
			c-0.4-0.4-1-0.7-1.5-0.6c-1,0.3-1.2,1.9-0.3,2.3C73.2,104.2,73.3,104,73.2,104z"/>
		<path class="st1" d="M73.2,103.1c-0.1,0.8,0,2,1,2.1c0.5,0,1.4-0.6,0.9-1.2c-0.1-0.1-0.3,0-0.3,0.1c0,0.4-0.3,0.7-0.8,0.7
			c-0.7-0.1-0.8-1.1-0.8-1.7C73.3,103,73.2,103,73.2,103.1L73.2,103.1z"/>
		<path class="st1" d="M74.7,107.8c-0.2,0.9-0.1,1.8,0.4,2.6c0.4,0.5,1.1,1,1.7,0.6c0.5-0.4,0.7-1.1,0.4-1.7c-0.3-0.7-1.2-1.3-2-1.3
			c-0.2,0-0.3,0.3-0.1,0.4c0.4,0.2,0.9,0.2,1.3,0.5c0.4,0.3,0.9,1.2,0.2,1.7c-0.6,0.4-1.2-0.4-1.4-0.9c-0.3-0.6-0.3-1.2-0.3-1.7
			C74.9,107.7,74.7,107.7,74.7,107.8L74.7,107.8z"/>
		<path class="st1" d="M77.5,105.9c-0.4-0.9-0.6-1.9-0.1-2.8c-0.1,0-0.2,0.1-0.3,0.1c0.6,0.4,1.5,1.1,1.2,2
			c-0.2,0.6-0.6,0.6-1.1,0.7c-0.1,0-0.1,0.1-0.1,0.2c0.4,0.7,1.4,0,1.6-0.5c0.5-1.1-0.5-2.1-1.3-2.7c-0.1-0.1-0.3,0-0.3,0.1
			c-0.5,1-0.5,2.2,0.2,3.1C77.3,106.2,77.6,106.1,77.5,105.9z"/>
		<path class="st1" d="M76.6,116c0.9,0.8,1.8,1.5,2.7,2.4c0.7,0.7,1.3,1.5,2,2.1c0.1,0.1,0.2,0,0.2-0.1c-0.8-2-2.8-3.7-4.7-4.6
			C76.6,115.8,76.5,115.9,76.6,116z"/>
		<path class="st1" d="M79,117.2c0.6,0.3,1.1,0.8,1.5,1.3c0.3,0.4,0.5,0.9,0.9,1.1c0.1,0.1,0.2,0,0.2-0.1c0.1-0.6-0.4-1.1-0.8-1.4
			c-0.5-0.5-1.1-0.8-1.7-1.1C78.9,116.8,78.8,117.1,79,117.2L79,117.2z"/>
		<path class="st1" d="M79.6,119.2c1.5,4.2-3.3,8-6.1,10.4c-2.4,2-5,3.9-7.5,5.8c-2.5,1.8-5,3.7-7.2,5.9c-1.8,1.7-4.2,4-4.7,6.5
			c0,0.2,0.3,0.4,0.4,0.3c1.2-1.1,2-2.7,3-4c1.3-1.6,2.8-3,4.4-4.4c2.9-2.4,5.9-4.6,8.9-6.8c2.5-1.9,13.2-9.8,8.8-13.6
			C79.6,119,79.5,119.1,79.6,119.2L79.6,119.2z"/>
		<path class="st1" d="M54.2,147.4c-0.5,1.5,0.5,2.7,2,3.2c3,1,6.5-1.7,9-3c3.4-1.7,6.9-3.4,10.6-4.6c4.1-1.4,7.9-1.7,12.2-2.2
			c0.5-0.1,0.5-0.9,0-1c-5.3-0.8-11.2,1.3-16.1,3.3c-2.8,1.2-5.5,2.5-8.2,3.9C61.3,148.3,54.7,152.6,54.2,147.4
			C54.2,147.4,54.2,147.4,54.2,147.4L54.2,147.4z"/>
		<path class="st1" d="M84.1,139.8c1.6-0.1,3,0.1,4.6,0.4c0.1,0,0.1-0.1,0-0.2c-1.5-0.6-3.1-0.6-4.6-0.3
			C84,139.7,84,139.8,84.1,139.8z"/>
		<path class="st1" d="M83.7,138.9c0.9,0.1,1.9,0.2,2.8,0.3c0.8,0.1,1.7,0.3,2.5,0.3c0.2,0,0.2-0.3,0-0.3c-1.6-0.8-3.7-0.8-5.4-0.6
			C83.5,138.6,83.5,138.9,83.7,138.9L83.7,138.9z"/>
		<path class="st1" d="M85.2,138.4c0.9,0,1.7,0.2,2.5,0.5c0.6,0.2,1.2,0.8,1.8,0.8c0.1,0,0.2-0.2,0.1-0.3c-0.2-0.7-1.2-1-1.9-1.1
			c-0.9-0.2-1.7-0.3-2.6-0.2C84.9,138.1,85,138.4,85.2,138.4L85.2,138.4z"/>
		<path class="st1" d="M86.3,137.9c0.5,0,1.1,0.1,1.6,0.3c0.5,0.2,0.9,0.4,1.4,0.5c0.1,0,0.3-0.1,0.2-0.2c-0.8-0.8-2.1-1-3.2-1
			C86.1,137.5,86.1,137.8,86.3,137.9z"/>
		<path class="st1" d="M88.4,138.6c1.2,0.6,2.1,1.5,2.7,2.6c0.6,0.9,0.7,1.9,1,2.9c0.1,0.2,0.3,0.1,0.3,0c0.4-2.5-1.9-4.8-4-5.7
			C88.3,138.3,88.2,138.5,88.4,138.6L88.4,138.6z"/>
		<path class="st1" d="M91.4,141.3c0.3,4,0.3,8,0.5,11.9c0.2,3.6,0.3,7.7,2.1,10.8c0.2,0.3,0.7,0.2,0.6-0.2
			c-0.6-3.8-1.5-7.4-1.8-11.2c-0.3-3.8-0.3-7.7-1.3-11.4C91.6,141.2,91.4,141.2,91.4,141.3L91.4,141.3z"/>
		<path class="st1" d="M92,152.4c-0.5,0.1-0.9,0.3-1.2,0.8c-0.2,0.5-0.3,1,0,1.5c0.4,0.8,1.8,1.4,2.5,0.6c0.1-0.1,0-0.3-0.2-0.3
			c-0.6,0.1-1.4,0.2-1.8-0.5c-0.4-0.6,0.1-1.6,0.8-1.9C92.2,152.5,92.2,152.3,92,152.4z"/>
		<path class="st1" d="M92.6,157.9c-1.2,1-0.7,3.5,1,3.3c0.1,0,0.2-0.2,0-0.2c-1.1-0.4-1.8-2-1-3C92.8,157.9,92.7,157.8,92.6,157.9z
			"/>
		<path class="st1" d="M93.6,162.1c-0.1,3.2,1.3,9.1,4.5,10.7c1.7,0.8,5.5-0.4,4.3-2.7c-0.2-0.4-0.6-0.4-0.8,0
			c-1.6,3.3-4.5,1.2-5.5-1.4c-0.9-2.1-1.3-4.4-2.1-6.6C93.9,161.9,93.6,161.9,93.6,162.1L93.6,162.1z"/>
		<path class="st1" d="M104,167.2c1.5-5.6,1.4-11.4,1.7-17.2c0.2-6.2,0-13.9,6.5-16.8c0.6-0.3,0.4-1.4-0.3-1.2
			c-6.1,1.6-6.8,9.1-7,14.3c-0.3,7,0.3,14-1.5,20.8C103.3,167.6,103.9,167.7,104,167.2L104,167.2z"/>
		<path class="st1" d="M111.5,133.1c0.8-0.2,1.6-0.5,2.5-0.4c0.8,0.1,1.5,0.3,2.2,0.6c0.1,0.1,0.3-0.1,0.2-0.2
			c-1.2-1.3-3.7-1.4-5.1-0.3C111.1,132.9,111.3,133.1,111.5,133.1L111.5,133.1z"/>
		<path class="st1" d="M112,133.4c0.9,0.2,1.8,0.3,2.7,0.5c0.9,0.2,1.8,0.5,2.7,0.6c0.1,0,0.2-0.2,0.1-0.3c-1.4-0.9-3.9-1.4-5.5-1
			C111.9,133.2,111.9,133.4,112,133.4z"/>
		<path class="st1" d="M111.6,134.1c1.7-0.1,3.2,0.2,4.8,0.4c0.1,0,0.2-0.2,0.1-0.2c-1.5-0.6-3.3-0.7-4.9-0.4
			C111.4,134,111.5,134.2,111.6,134.1L111.6,134.1z"/>
		<path class="st1" d="M114,132.5c3.2,1,5.8,2.4,8.8,3.9c3.2,1.6,6.7,2.4,10.2,3.1c2.7,0.5,16.3,4.7,15.9-1.6c0-0.2-0.2-0.4-0.4-0.4
			c-0.1,0-0.3-0.1-0.4-0.1c-0.2,0-0.3,0.1-0.2,0.3c0.9,3.1-4.9,2.8-6.2,2.6c-1.6-0.2-3.2-0.6-4.8-0.9c-3.1-0.6-6.3-1.2-9.4-2.1
			c-2.7-0.8-5-2-7.5-3.2c-1.8-0.9-3.8-2-5.9-1.8C113.9,132.3,113.9,132.5,114,132.5L114,132.5z"/>
		<path class="st1" d="M116.5,120.3c5.4,2.2,10.7,4.8,15.8,7.4c2.7,1.4,5.5,2.9,8.1,4.4c2.7,1.5,6.6,3.2,7.3,6.5
			c0.1,0.5,0.8,0.4,0.7-0.1c-0.2-2.5-2.1-3.9-4.2-5.2c-2.8-1.7-5.7-3.3-8.6-4.9C129.5,125.2,123.1,122.6,116.5,120.3
			C116.5,120.2,116.5,120.2,116.5,120.3z"/>
		<path class="st1" d="M117.6,120.4c-1.7-0.8-3.1-2.1-3.4-4c-0.2-1.5,0.4-2.6,0.8-4c0.1-0.4-0.4-0.6-0.7-0.4
			c-1.6,1.1-1.7,3.6-1.1,5.2c0.7,1.9,2.3,3.2,4.4,3.3C117.7,120.6,117.7,120.5,117.6,120.4L117.6,120.4z"/>
		<path class="st1" d="M83.1,105.5c-0.2-0.3-0.4-0.4-0.7-0.5c-0.1,0-0.1,0-0.2,0.1c-0.5,1.2,0.4,2.5,1.6,2.7c0.1,0,0.2,0,0.2-0.1
			c0.4-1.2-0.1-2.4-1.2-3c-0.1-0.1-0.2,0-0.3,0.1c-0.4,0.9-0.1,2.2,0.9,2.6c0.1,0,0.2-0.1,0.1-0.2c-0.6-0.6-1-1.4-0.6-2.3l-0.3,0.1
			c0.9,0.4,1.3,1.5,1,2.4c0.1,0,0.1-0.1,0.2-0.1c-0.5-0.1-0.9-0.4-1.2-0.8C82.6,106.2,82.2,104.7,83.1,105.5
			C83.1,105.6,83.2,105.5,83.1,105.5z"/>
		<path class="st1" d="M85.4,106.7c-0.2,0.3-0.3,0.4-0.3,0.7c0,0.3,0,0.6,0.2,0.9c0.2,0.5,0.7,0.9,1.3,1c0.1,0,0.3-0.1,0.3-0.2
			c0.1-0.8-0.2-1.7-0.8-2.3c-0.2-0.2-0.3-0.4-0.6-0.3c-0.3,0.1-0.4,0.4-0.5,0.6c0,0.1,0.1,0.1,0.2,0.1c0.1-0.2,0.3-0.4,0.5-0.4
			c0.2,0.1,0.4,0.5,0.5,0.7c0.2,0.5,0.3,0.9,0.2,1.4c0.1-0.1,0.2-0.1,0.3-0.2c-0.4-0.1-0.8-0.4-1-0.8c-0.2-0.3-0.3-0.9-0.2-1.2
			C85.6,106.7,85.5,106.6,85.4,106.7L85.4,106.7z"/>
		<path class="st1" d="M86.8,108.1c4.6,2.2,10,4.2,14.1,0.1c0.3-0.3,0-0.8-0.4-0.6c-1.4,0.9-2.7,2-4.4,2.3c-1.2,0.2-2.2-0.1-3.3-0.4
			c-2-0.5-3.9-1.1-5.9-1.6C86.8,107.9,86.7,108,86.8,108.1L86.8,108.1z"/>
		<path class="st1" d="M100.3,108.4c1.8-1.2,3.2-3.3,4.7-4.9c1.9-2,3.9-4,5.9-6c1.7-1.6,3.3-3.3,5.1-4.8c2.3-1.9,4.7-2.7,7.4-3.8
			c0.4-0.1,0.2-0.6-0.2-0.6c-5,0.1-9.3,5-12.5,8.2c-1.8,1.8-3.6,3.6-5.4,5.5C103.6,103.9,101.2,105.9,100.3,108.4
			C100.3,108.4,100.3,108.4,100.3,108.4L100.3,108.4z"/>
		<path class="st1" d="M123.6,89.1c1.9,2-0.9,6.4-2,8.4c-1.3,2.3-2.7,4.6-4,6.9c-1.9,3.3-4.3,7.9-3.4,11.8c0.1,0.3,0.5,0.4,0.6,0.1
			c0.9-2.6,1.2-5.3,2.3-7.9c1.1-2.7,2.4-5.2,3.8-7.7c1.4-2.5,2.9-5.2,3.7-8c0.4-1.5,0.6-2.9-0.8-3.8C123.7,88.7,123.4,89,123.6,89.1
			L123.6,89.1z"/>
		<path class="st1" d="M114.9,112.6c-0.6,1.9-0.8,5.1,1.1,6.5c0.2,0.1,0.3-0.1,0.3-0.2c-0.3-1-0.9-1.9-1.2-3
			c-0.2-1.1-0.3-2.1-0.1-3.2C115,112.6,114.9,112.6,114.9,112.6L114.9,112.6z"/>
		<path class="st1" d="M114.4,115.1c-0.1,3.1,3.1,5.5,5.7,6.6c0.1,0.1,0.2-0.1,0.1-0.2c-1-0.9-2.1-1.6-3.1-2.5
			c-1.2-1.1-1.9-2.4-2.5-3.9C114.6,115,114.4,115,114.4,115.1L114.4,115.1z"/>
		<path class="st1" d="M94,118.2c-0.8,0.9-1.4,2-0.9,3.2c0.5,0.9,1.6,1.1,2.4,0.5c0.8-0.7,1.1-2.1,0.5-3c-0.4-0.6-1.9-1.2-2.3-0.2
			c0,0.1,0,0.3,0.2,0.2c0.3,0,0.5-0.2,0.8-0.2c0.5,0,0.8,0.3,1,0.8c0.3,0.7-0.1,1.9-0.9,2.1c-0.7,0.2-1.2-0.6-1.2-1.3
			c0-0.7,0.4-1.4,0.7-2C94.4,118.1,94.1,118,94,118.2L94,118.2z"/>
		<path class="st1" d="M87.2,118.7c0,1.2,1.2,2,2.4,1.6c1.2-0.5,1.7-1.9,1-3c-0.6-0.9-2-1.4-2.8-0.5c-0.6,0.7-0.7,2.4,0.5,2.5
			c0.1,0,0.2-0.1,0.1-0.2c-0.4-0.5-0.6-1.2-0.2-1.8c0.5-0.7,1.5-0.4,1.9,0.2c0.5,0.7,0.4,1.8-0.4,2.3c-0.9,0.6-2.1,0-2.3-1
			C87.3,118.6,87.2,118.6,87.2,118.7L87.2,118.7z"/>
		<path class="st1" d="M91.3,114.3c0.3,0.9,1.4,1.4,2.2,1c0.8-0.4,0.9-1.4,0.5-2.1c-0.4-0.8-1.4-1-2-0.3c-0.3,0.3-0.4,0.8-0.4,1.3
			c0.1,0.5,0.3,0.7,0.8,0.9c0.2,0.1,0.5-0.2,0.2-0.4c-0.4-0.2-0.3-1,0-1.3c0.3-0.4,0.9-0.2,1.1,0.3c0.2,0.5,0.1,1.1-0.4,1.3
			c-0.6,0.3-1.4-0.1-1.7-0.7C91.4,114,91.2,114.1,91.3,114.3z"/>
		<path class="st1" d="M97.3,114.9c-0.4,0.8,0.5,1.6,1.3,1.6c1.1,0,1.6-1.2,1.5-2.1c0-0.4-0.1-0.9-0.6-1.1c-0.4-0.2-0.8-0.1-1.2,0.1
			c-0.7,0.4-1.2,1.4-0.5,2c0.1,0.1,0.4,0,0.3-0.2c0-0.4,0.1-0.9,0.4-1.1c0.1-0.1,0.3-0.3,0.6-0.3c0.3,0,0.3,0.3,0.4,0.6
			c0.1,0.6-0.1,1.4-0.8,1.5c-0.5,0.1-1.3-0.3-1.2-0.9C97.5,114.9,97.3,114.8,97.3,114.9L97.3,114.9z"/>
		<path class="st1" d="M86.8,124.5c-0.1,0.9,0.6,1.8,1.6,1.8c1,0,1.6-0.9,1.4-1.8c-0.2-0.8-1.1-1.4-1.8-0.9c-0.7,0.4-1,1.6-0.1,2
			c0.1,0.1,0.2-0.1,0.1-0.2c-0.3-0.4,0-1.1,0.3-1.3c0.6-0.3,1,0.2,0.9,0.8c0,0.6-0.4,1-1,0.9c-0.6-0.1-1.1-0.6-1.2-1.2
			C86.9,124.4,86.8,124.4,86.8,124.5L86.8,124.5z"/>
		<path class="st1" d="M93.2,126.4c0,0.9,1.1,1.5,1.9,1.2c0.8-0.3,0.9-1.2,0.5-1.9c-0.4-0.7-1.3-1-1.9-0.4c-0.5,0.5-0.6,1.9,0.3,2
			c0.1,0,0.2-0.1,0.1-0.2c-0.3-0.4-0.4-0.9-0.1-1.4c0.4-0.5,1-0.3,1.2,0.2c0.2,0.5,0.2,1.1-0.4,1.3c-0.6,0.2-1.4-0.3-1.5-0.9
			C93.4,126.2,93.1,126.2,93.2,126.4L93.2,126.4z"/>
		<path class="st1" d="M101.6,118.1c0.6-0.4,1.6-0.1,2,0.5c0.3,0.6-0.1,1.3-0.6,1.6c-0.6,0.3-1.2,0.2-1.5-0.5c-0.2-0.6,0-1,0.3-1.5
			c0.2-0.3-0.1-0.6-0.5-0.4c-0.7,0.5-0.6,1.7-0.2,2.3c0.5,0.7,1.4,0.8,2.1,0.4c0.7-0.4,1.1-1.4,0.6-2.1c-0.5-0.8-1.6-1-2.3-0.4
			C101.4,118,101.5,118.1,101.6,118.1L101.6,118.1z"/>
		<path class="st1" d="M106.9,104.1c-0.4,0.1-0.6,0.1-0.9,0.3c-0.3,0.2-0.4,0.6-0.5,0.9c-0.2,0.7,0,1.5,0.6,2c0.1,0.1,0.3,0.1,0.4,0
			c1.4-0.6,2.2-2.3,1.7-3.7c-0.1-0.2-0.2-0.2-0.4-0.2c-0.6,0-1.2,0.4-1.5,0.9c-0.2,0.4-0.4,1.2,0.1,1.5c0.1,0,0.2,0,0.2-0.1
			c0.2-0.3,0.1-0.7,0.3-1c0.2-0.4,0.6-0.6,1-0.6c-0.1-0.1-0.3-0.2-0.4-0.2c0.3,1.1-0.3,2.3-1.3,2.7l0.4,0c-0.4-0.3-0.5-0.8-0.5-1.3
			C106.2,105,106.5,104.3,106.9,104.1C107,104.1,107,104.1,106.9,104.1L106.9,104.1z"/>
		<path class="st1" d="M111,104.4c-0.1,0.7,0,1.4,0.5,1.9c0.1,0.1,0.2,0.1,0.2,0c0.8-0.5,1.1-1.6,0.7-2.5c0-0.1-0.2-0.2-0.3-0.2
			c-1.1,0-2,1.9-0.8,2.4c0.1,0.1,0.3-0.1,0.2-0.2c-0.1-0.7-0.1-1.4,0.7-1.7L112,104c0.4,0.7,0.2,1.5-0.5,2l0.2,0
			c-0.5-0.5-0.7-1-0.6-1.7C111.2,104.3,111,104.2,111,104.4L111,104.4z"/>
		<path class="st1" d="M111.9,98.6c-0.6,0.4-0.4,1.2,0.1,1.6c0.7,0.5,1.5,0,1.6-0.8c0.2-0.9-0.5-1.8-1.4-1.8c-0.4,0-0.9,0.2-1,0.7
			c-0.1,0.4,0,0.9,0.5,0.9c0.1,0,0.2-0.1,0.2-0.3c-0.1-0.2-0.2-0.4,0-0.6c0.2-0.3,0.6-0.1,0.8,0c0.3,0.2,0.4,0.7,0.3,1
			c-0.3,1-1.6-0.1-1-0.6C112.1,98.7,112,98.5,111.9,98.6z"/>
		<path class="st1" d="M118.1,95.7c-0.6,0.8-0.2,2,0.7,2.3c0.1,0,0.2,0,0.3-0.1c0.4-0.7,0.5-1.5,0.2-2.4c0-0.1-0.1-0.2-0.2-0.2
			c-0.4-0.1-0.8,0.1-1.1,0.4c-0.2,0.3-0.3,0.7,0,1c0.1,0.1,0.2,0,0.2,0c0.2-0.3,0.2-0.8,0.8-0.8c-0.1-0.1-0.1-0.1-0.2-0.2
			c0.3,0.6,0.2,1.3-0.1,1.9c0.1,0,0.2-0.1,0.3-0.1c-0.7-0.2-1-1.1-0.7-1.8C118.3,95.7,118.2,95.6,118.1,95.7L118.1,95.7z"/>
		<path class="st1" d="M122.4,89.3c0.8,0.5,1.1,1.5,1.2,2.4c0,0.1,0.2,0.2,0.3,0.1c0.7-1.1-0.2-2.5-1.3-2.9
			C122.4,88.8,122.1,89.1,122.4,89.3z"/>
		<path class="st1" d="M61.9,142.5c-0.1-0.3-0.3-0.4-0.6-0.3c-0.4,0.1-0.5,0.6-0.3,1c0.4,0.9,1.4,1.7,2.4,1.4c1-0.3,1.2-1.4,0.5-2.1
			c-0.7-0.7-2-0.6-2.7,0.1c-0.1,0.1,0,0.2,0.1,0.2c0.5,0,1.1-0.2,1.6-0.2c0.4,0.1,1,0.5,0.7,1c-0.3,0.5-1,0.2-1.3-0.1
			c-0.2-0.2-0.4-0.4-0.5-0.6c-0.1-0.1-0.2-0.2-0.2-0.3c0,0,0-0.3,0.1-0.1C61.7,142.6,61.9,142.6,61.9,142.5L61.9,142.5z"/>
		<path class="st1" d="M70.4,136.5c0.3,1.2,1.6,1.7,2.6,1.3c0.1,0,0.1-0.1,0.2-0.2c0.1-1-0.5-1.8-1.5-2.1c-0.5-0.2-0.9-0.1-1,0.5
			c-0.1,0.4-0.1,1,0.3,1.2c0.1,0,0.2,0,0.2-0.1c0.2-0.4,0-0.7,0.3-1.1c-0.1,0-0.2,0.1-0.2,0.1c0.8,0,1.5,0.7,1.5,1.4
			c0.1-0.1,0.1-0.1,0.2-0.2c-0.8,0.4-1.8-0.1-2.2-0.9C70.6,136.3,70.4,136.4,70.4,136.5L70.4,136.5z"/>
		<path class="st1" d="M77.2,134.8c0.5,0.7,0.4,2.8,1.8,2.6c1.1-0.1,1.5-1.7,1.1-2.6c-0.4-0.9-1.7-1.3-2.5-0.7
			c-0.7,0.6-0.8,2,0.2,2.3c0.2,0,0.3-0.1,0.2-0.3c-0.4-0.5-0.5-1.4,0.2-1.7c0.8-0.3,1.6,0.3,1.7,1.1c0,0.4-0.2,1.1-0.5,1.3
			c-0.5,0.3-0.9,0-1.2-0.4c-0.3-0.6-0.4-1.2-0.8-1.8C77.2,134.6,77.1,134.7,77.2,134.8z"/>
		<path class="st1" d="M79.9,126.5c0,0.5,0.2,0.9,0.6,1.2c0.4,0.3,0.9,0.4,1.4,0.3c0.4-0.1,0.5-0.7,0.5-1c0-0.4-0.2-0.8-0.6-1.1
			c-0.8-0.5-2,0.2-1.9,1.1c0,0.2,0.1,0.3,0.2,0.4c0.2,0,0.3-0.1,0.3-0.3c0.2-0.3,0.6-0.8,1-0.6c0.2,0.1,0.3,0.3,0.3,0.5
			c0,0.3,0,0.4-0.3,0.4c-0.5,0-1.2-0.5-1.4-0.9C80,126.3,79.9,126.4,79.9,126.5L79.9,126.5z"/>
		<path class="st1" d="M82.4,134.9c0,1.1,0.5,2.5,1.8,2.6c1.3,0,1.5-1.3,1.1-2.3c-0.4-0.8-1.5-1.7-2.4-1c-0.7,0.5-0.8,1.7,0.2,1.9
			c0.1,0,0.2-0.1,0.1-0.2c-0.5-0.4-0.2-1.3,0.4-1.4c0.6-0.1,1.2,0.6,1.4,1.1c0.1,0.4,0.2,0.9-0.2,1.2c-0.3,0.2-0.7,0.1-1-0.1
			c-0.7-0.4-0.8-1.2-1.1-1.9C82.6,134.8,82.4,134.8,82.4,134.9L82.4,134.9z"/>
		<path class="st1" d="M85.3,138.5c-1.5-0.2-2.9,0.3-4.3,0.7c-1.4,0.4-2.8,0.7-4.2,1.1c-2.7,0.8-5.4,1.8-7.1,4.1
			c-0.2,0.3,0.1,0.5,0.4,0.4c2.5-1.6,5-2.8,7.9-3.7c2.3-0.7,5.5-1,7.4-2.5C85.4,138.6,85.4,138.5,85.3,138.5L85.3,138.5z"/>
		<path class="st1" d="M89.5,137.9c0.7,0.5,1.3,1,1.9,1.7c0.5,0.5,0.8,1.1,1.3,1.6c0.1,0.1,0.2,0,0.2-0.1c-0.2-1.5-1.9-3-3.3-3.4
			C89.5,137.6,89.4,137.8,89.5,137.9L89.5,137.9z"/>
		<path class="st1" d="M90,137.3c0.6,0.4,1.2,0.8,1.7,1.2c0.4,0.4,0.8,1,1.4,1.3c0.1,0.1,0.2-0.1,0.2-0.2c-0.2-0.6-0.8-1.1-1.3-1.5
			c-0.6-0.4-1.2-0.8-1.8-1.1C90.1,136.9,89.9,137.2,90,137.3L90,137.3z"/>
		<path class="st1" d="M90.7,137c0.6,0.1,1.2,0.4,1.7,0.9c0.3,0.4,0.4,0.9,0.8,1.2c0.1,0.1,0.2,0,0.2-0.1c0.2-0.6-0.4-1.2-0.8-1.6
			c-0.5-0.5-1.2-0.7-1.9-0.7C90.5,136.7,90.6,136.9,90.7,137L90.7,137z"/>
		<path class="st1" d="M89.9,138c1.1,1.3,2,2.8,2.9,4.2c0.1,0.1,0.2,0,0.2-0.1c-0.6-1.6-1.7-3-2.8-4.3C90,137.7,89.8,137.8,89.9,138
			z"/>
		<path class="st1" d="M91.9,139.5c0.2,1.9,0.5,3.9,0.7,5.8c0.2,1.7,0.2,3.5,0.7,5.1c0.1,0.2,0.4,0.1,0.4-0.1
			c0.4-3.5-0.8-7.6-1.7-10.9C92,139.4,91.9,139.4,91.9,139.5L91.9,139.5z"/>
		<path class="st1" d="M96.6,142c-0.2,0.7-0.2,1.5,0.5,1.8c0.5,0.3,1.3,0.1,1.6-0.5c0.3-0.6-0.1-1.2-0.7-1.3c-0.2-0.1-0.6,0-0.7,0.2
			c-0.1,0.2-0.1,0.5-0.1,0.7c0,0.3-0.1,0.5,0,0.8c0,0.1,0.2,0.1,0.2,0c0.1-0.2,0.2-0.5,0.2-0.7c0-0.2,0-0.6,0.2-0.7
			c0.4-0.1,0.8,0.5,0.6,0.8c-0.2,0.4-0.8,0.4-1.1,0.2c-0.4-0.3-0.6-0.9-0.5-1.4C96.8,141.9,96.6,141.9,96.6,142L96.6,142z"/>
		<path class="st1" d="M97.9,146.7c-0.6,0.6-0.5,1.5,0.1,2c0.7,0.6,1.6,0.1,1.9-0.7c0.2-0.7-0.3-1.5-1.1-1.4c-0.3,0-0.7,0.2-0.9,0.4
			c-0.2,0.2-0.4,0.6-0.1,0.8c0.1,0,0.1,0,0.2,0c0.1-0.1,0.1-0.4,0.2-0.5c0.1-0.1,0.3-0.3,0.5-0.3c0.6-0.2,1.1,0.3,0.8,0.9
			c-0.2,0.5-0.8,0.8-1.3,0.4c-0.4-0.4-0.4-1-0.1-1.4C98.2,146.8,98,146.6,97.9,146.7L97.9,146.7z"/>
		<path class="st1" d="M98.7,152.3c-0.5,0.5-0.3,1.5,0.3,1.8c0.7,0.5,1.5-0.1,1.6-0.9c0.1-0.8-0.5-1.5-1.3-1.3
			c-0.6,0.1-1.3,1-0.8,1.6c0.1,0.1,0.2,0.1,0.2-0.1c0-0.4,0.2-0.8,0.6-1c0.5-0.2,0.9,0.1,0.8,0.6c-0.1,0.5-0.5,0.8-1,0.5
			c-0.4-0.3-0.6-0.8-0.3-1.1C99.1,152.3,98.9,152.1,98.7,152.3z"/>
		<path class="st1" d="M98.4,157.8c-0.3,0.6,0.2,1.3,0.8,1.5c0.7,0.2,1.3-0.5,1.3-1.1c0-0.7-0.5-1.3-1.3-1.1
			c-0.7,0.2-1.1,0.8-0.8,1.5c0.1,0.1,0.3,0.1,0.3-0.1c-0.1-0.3,0.2-0.8,0.6-0.9c0.4-0.2,0.7,0.2,0.7,0.6c0,0.4-0.4,0.7-0.8,0.6
			c-0.4-0.1-0.7-0.5-0.7-0.9C98.5,157.7,98.4,157.7,98.4,157.8z"/>
		<path class="st1" d="M97.8,162.4c-0.3,0.6,0,1.4,0.6,1.7c0.6,0.2,1.4-0.1,1.6-0.8c0.1-0.4-0.1-0.6-0.4-0.9
			c-0.2-0.3-0.6-0.5-0.9-0.5c-0.6,0-1.3,0.8-0.7,1.2c0.1,0.1,0.3-0.1,0.3-0.2c-0.1-0.3,0.2-0.6,0.5-0.6c0.4,0.1,0.6,0.5,0.8,0.7
			c0-0.1,0-0.1,0-0.2c-0.1,0.4-0.5,0.8-1,0.7c-0.5-0.1-0.8-0.7-0.7-1.2C98,162.3,97.9,162.2,97.8,162.4L97.8,162.4z"/>
		<path class="st1" d="M98.2,166.2c-0.1,0.6,0.1,1.3,0.8,1.6c0.7,0.3,1.5-0.3,1.6-1c0.1-0.7-0.4-1.3-1.1-1.2
			c-0.5,0.1-1.1,0.7-0.8,1.3c0.1,0.3,0.5,0.2,0.5-0.1c0-0.2,0.2-0.4,0.4-0.5c0.4-0.1,0.5,0.3,0.4,0.6c-0.3,0.9-1.4,0.1-1.4-0.5
			C98.5,166,98.2,166,98.2,166.2L98.2,166.2z"/>
		<path class="st1" d="M104.1,164.5c-0.3,1-0.7,2-1.1,2.9c-0.4,0.8-1,1.8-1,2.7c0,0.1,0.2,0.3,0.3,0.2c0.7-0.6,1-1.6,1.3-2.5
			c0.4-1,0.7-2.1,0.9-3.2C104.5,164.4,104.1,164.2,104.1,164.5z"/>
		<path class="st1" d="M74.3,133.6c0.6,0.4,1.5,0.8,2.1,0.1c0.4-0.4,0.4-1.2,0-1.6c-0.4-0.5-1.1-0.3-1.4,0.2
			c-0.2,0.3-0.2,0.6-0.1,0.9c0.1,0.2,0.3,0.5,0.6,0.4c0.1,0,0.1-0.1,0.1-0.1c0-0.1-0.1-0.2-0.2-0.4c-0.1-0.2,0-0.4,0.1-0.5
			c0.2-0.4,0.7-0.5,0.9-0.1c0.2,0.4,0,0.9-0.4,1.1c-0.5,0.2-1.1-0.2-1.5-0.3C74.3,133.2,74.1,133.5,74.3,133.6L74.3,133.6z"/>
		<path class="st1" d="M77.9,130.1c0.5,0.9,2,0.5,2.2-0.5c0-0.1,0-0.1-0.1-0.2c-0.6-0.4-1.4-0.5-2,0.1c-0.1,0.1,0,0.3,0.1,0.2
			c0.5-0.2,1.1-0.2,1.6,0l-0.1-0.2c0,0.8-1.2,1-1.6,0.4C78,129.8,77.8,129.9,77.9,130.1L77.9,130.1z"/>
		<path class="st1" d="M110.5,122.1c-0.2-0.1-0.3-0.2-0.5-0.1c-0.2,0-0.4,0.1-0.5,0.2c-0.3,0.2-0.5,0.6-0.5,0.9
			c-0.1,0.9,0.7,1.4,1.5,1.2c0.8-0.2,1.4-0.9,1.1-1.8c-0.2-0.8-1.2-1.5-2-1.1c-0.1,0.1-0.1,0.3,0,0.3c0.5,0.1,1.1,0.3,1.3,0.8
			c0.2,0.5,0,0.9-0.5,1.1c-0.4,0.2-0.9,0-0.9-0.5c0-0.4,0.4-1,0.9-0.9C110.5,122.3,110.6,122.2,110.5,122.1L110.5,122.1z"/>
		<path class="st1" d="M114.6,123.6c-0.7,0.5-1,1.4-0.6,2.2c0.4,0.7,1.4,0.9,2.1,0.5c0.7-0.4,1-1.2,0.5-1.9c-0.2-0.3-0.6-0.6-1-0.6
			c-0.3-0.1-0.8,0-0.9,0.4c0,0.1,0,0.2,0.1,0.2c0.2,0.1,0.4,0,0.6,0c0.3,0,0.5,0.2,0.7,0.4c0.4,0.4,0.2,1-0.3,1.2
			c-1.2,0.5-1.8-1.2-0.9-1.9C115.1,123.7,114.8,123.4,114.6,123.6L114.6,123.6z"/>
		<path class="st1" d="M118,126.2c-0.2,0.8,0.3,1.8,1.1,2c0.9,0.2,1.7-0.5,1.8-1.3c0.1-0.8-0.6-1.6-1.5-1.3
			c-0.7,0.2-1.3,1.1-0.7,1.8c0.1,0.1,0.1,0.1,0.2,0.1c0.2,0,0.2-0.1,0.2-0.3c0-0.2-0.1-0.4,0.1-0.6c0.3-0.4,0.9-0.6,1.1,0
			c0.2,0.6-0.4,1.3-1.1,1.2c-0.6-0.2-1-0.9-1-1.5C118.3,126,118,126,118,126.2L118,126.2z"/>
		<path class="st1" d="M123.7,127.4C123.7,127.4,123.8,127.4,123.7,127.4C123.8,127.4,123.7,127.4,123.7,127.4c0,0,0,0,0.1,0
			c0.3,0,0.7,0.1,0.9,0.5c0.1,0.3-0.1,0.5-0.3,0.7c-0.3,0.1-0.6,0.1-0.7-0.2c-0.1-0.3,0-0.6,0.2-0.9c0.2-0.2-0.1-0.5-0.3-0.4
			c-0.6,0.2-0.7,1-0.4,1.6c0.3,0.6,0.9,0.7,1.5,0.5c0.6-0.2,0.9-0.9,0.7-1.5c-0.2-0.5-1-1-1.5-0.6c0,0-0.1,0.1-0.1,0.2c0,0,0,0,0,0
			C123.6,127.3,123.6,127.5,123.7,127.4L123.7,127.4z"/>
		<path class="st1" d="M127.5,129.5c-0.2,0.5,0.1,1.1,0.6,1.3c0.5,0.2,1.1,0,1.3-0.5c0.1-0.5-0.1-1.1-0.5-1.3c-0.5-0.3-1,0-1.2,0.5
			c-0.2,0.4,0,1.4,0.7,1.3c0.1,0,0.2-0.2,0.1-0.3c-0.3-0.2-0.5-0.5-0.3-0.9c0.2-0.4,0.6-0.2,0.8,0.1c0.1,0.3,0.1,0.8-0.4,0.8
			c-0.4,0-0.8-0.4-0.7-0.9C127.9,129.5,127.6,129.4,127.5,129.5L127.5,129.5z"/>
		<path class="st1" d="M131.6,131.4c0,0.1-0.1,0.2-0.1,0.3c0,0.1,0.1,0.3,0.1,0.4c0.2,0.3,0.5,0.5,0.8,0.5c0.7,0,1.1-0.6,0.9-1.3
			c-0.1-0.3-0.2-0.5-0.5-0.7c-0.3-0.2-0.6,0-0.9,0.2c-0.3,0.2-0.5,0.5-0.6,0.9c-0.1,0.3-0.1,0.7,0.1,0.9c0.1,0,0.2,0,0.2-0.1
			c0.1-0.2,0-0.4,0-0.6c0-0.2,0.1-0.5,0.3-0.6c0.1-0.2,0.4-0.3,0.6-0.4c0.2,0,0.4,0.1,0.4,0.3c0.1,0.4-0.2,0.8-0.6,0.7
			c-0.2,0-0.4-0.2-0.5-0.3c-0.1-0.1-0.3-0.3-0.2-0.4C131.7,131.3,131.6,131.3,131.6,131.4L131.6,131.4z"/>
		<path class="st1" d="M135.4,132.7c-0.1,0.1-0.2,0-0.3,0.1c-0.1,0.1-0.2,0.2-0.3,0.4c-0.1,0.3-0.1,0.6,0,0.9c0.2,0.6,1,0.9,1.6,0.7
			c0.6-0.2,0.9-0.9,0.7-1.5c-0.2-0.5-0.8-1-1.4-0.7c-0.1,0.1-0.1,0.2,0,0.3c0.3,0.1,0.7,0.2,0.8,0.6c0.2,0.4-0.1,0.6-0.5,0.7
			c-0.3,0.1-0.6-0.1-0.7-0.4c0-0.2,0-0.3,0-0.5c0-0.1,0.1-0.3,0.1-0.3C135.7,132.7,135.5,132.6,135.4,132.7L135.4,132.7z"/>
		<path class="st1" d="M139.6,134.5c-0.4,0-0.8,0.2-1,0.6c-0.1,0.1,0,0.2,0.1,0.3c0.3,0.3,0.8,0.1,1-0.2c0.2-0.3,0.2-0.8-0.2-0.9
			c-0.1,0-0.2,0.1-0.2,0.2c0.1,0.1,0.1,0.3,0,0.4c-0.1,0.1-0.2,0.2-0.3,0.1c0,0.1,0.1,0.2,0.1,0.3c0.1-0.3,0.3-0.4,0.6-0.4
			C139.9,134.8,139.8,134.4,139.6,134.5L139.6,134.5z"/>
		<path class="st1" d="M79.5,110.7c-0.1,0.5,0.1,1,0.6,1.1c0.5,0.2,1.1,0,1.3-0.5c0.4-1-1.3-2-1.9-1.1c-0.1,0.1-0.1,0.2,0,0.3
			c0.2,0.4,0.3,1,0.7,1.3c0.1,0.1,0.2,0.1,0.2-0.1c0-0.5-0.2-1-0.4-1.5c0,0.1,0,0.2,0,0.3c0.4-0.5,1.4,0.1,1.1,0.6
			c-0.3,0.6-1.5,0.1-1.4-0.5C79.7,110.7,79.6,110.6,79.5,110.7z"/>
		<path class="st1" d="M82,112.8c0,0.8,0.9,1.4,1.7,1.2c0.7-0.2,0.8-1.1,0.6-1.6c-0.3-0.6-1.1-0.9-1.6-0.4c-0.3,0.2-0.4,0.6-0.4,1
			c0,0.4,0.2,0.6,0.6,0.8c0.1,0.1,0.2-0.1,0.1-0.2c-0.4-0.2-0.3-0.9,0-1.2c0.3-0.4,0.8-0.1,1,0.3c0.2,0.4,0,1-0.5,1
			c-0.5,0.1-1-0.4-1.1-0.9C82.4,112.4,82,112.5,82,112.8L82,112.8z"/>
		<path class="st1" d="M84.7,114.2c0,0.6,0.3,1,0.9,1.2c0.5,0.2,1.2,0,1.4-0.6c0.1-0.2-0.2-0.4-0.4-0.2c-0.5,0.5-1.5,0.3-1.7-0.4
			C84.9,114.1,84.7,114,84.7,114.2z"/>
		<path class="st1" d="M102.4,111.4c0.2,0.6,0.7,1,1.4,1c0.6,0,0.8-0.8,0.7-1.2c-0.1-0.5-0.6-1.2-1.2-0.9c-0.3,0.2-0.5,0.4-0.6,0.7
			c-0.1,0.4,0,0.6,0.2,0.9c0.1,0.1,0.3,0,0.3-0.1c0.1-0.3,0.1-0.8,0.4-0.9c-0.1,0-0.2,0-0.3,0c0.4,0.2,0.5,0.7,0.2,1.1
			c0.1,0,0.1-0.1,0.2-0.1c-0.5,0.1-1.1-0.1-1.3-0.5C102.5,111.2,102.3,111.3,102.4,111.4L102.4,111.4z"/>
		<path class="st1" d="M104.5,108.8c0.2,0.8,1.4,0.8,1.7,0.2c0.4-0.7-0.4-1.6-1.2-1.3c-0.1,0.1-0.1,0.3,0,0.3c0.3,0,0.7,0.4,0.7,0.7
			c-0.1,0.6-1,0.4-1.1,0C104.6,108.6,104.4,108.7,104.5,108.8z"/>
		<path class="st1" d="M109.7,101.9c0.1,0.2,0.2,0.4,0.5,0.5c0.2,0.1,0.5,0,0.7-0.1c0.4-0.3,0.5-0.9,0.2-1.3
			c-0.1-0.1-0.2-0.2-0.4-0.1c-0.3,0.1-0.7,0.2-0.8,0.5c0,0.1,0,0.2,0.1,0.2c0.3,0.1,0.7,0,1-0.1c-0.1,0-0.2,0-0.3,0
			c0.1,0.1,0.1,0.4-0.1,0.5c-0.1,0.1-0.2,0.1-0.3,0c-0.1,0-0.2-0.1-0.3-0.1C109.8,101.7,109.6,101.8,109.7,101.9L109.7,101.9z"/>
		<path class="st1" d="M97.2,136.2c-0.2-0.3-0.4-0.5-0.6-0.9c0-0.1-0.2-0.1-0.2,0c-0.2,0.4-0.3,0.7-0.2,1.1c0.1,0.4,0.2,0.7,0.5,1
			c0.5,0.5,1.3-0.2,1.6-0.7c0.3-0.5,0.1-1.2-0.4-1.5c-0.5-0.2-1.3-0.1-1.2,0.5c0,0.1,0.2,0.2,0.2,0.1c0.3-0.2,0.9-0.3,1,0.1
			c0.1,0.5-0.5,0.8-0.9,0.8l0.3,0.1c-0.4-0.4-0.7-1.1-0.6-1.7l-0.2,0.1c0.3,0.2,0.5,0.5,0.6,0.8C97.2,136.4,97.3,136.3,97.2,136.2
			L97.2,136.2z"/>
		<path class="st1" d="M95.9,131c-0.3,0.3-0.4,0.5-0.3,0.8c0.1,0.3,0.3,0.6,0.6,0.8c0.7,0.4,1.4,0,1.6-0.8c0.2-0.7-0.3-1.5-1.1-1.6
			c-0.4,0-0.7,0.1-1,0.3c-0.3,0.3-0.4,0.6-0.4,1c0,0.1,0.2,0.1,0.2,0c0.1-0.4,0.6-0.9,1-0.9c0.6-0.1,1,0.4,0.9,1
			c-0.1,0.5-0.6,0.7-1,0.4c-0.3-0.2-0.5-0.7-0.3-1C96.1,131,96,130.9,95.9,131L95.9,131z"/>
		<path class="st1" d="M95.5,128.1c0,0.3,0.3,0.6,0.6,0.6c0.3,0,0.5-0.5,0.4-0.7c0-0.1-0.2-0.3-0.3-0.3c-0.1,0-0.3,0.1-0.2,0.2
			c0,0.2,0.2,0.3,0.1,0.5c-0.1,0.3-0.4-0.2-0.4-0.3C95.7,128,95.5,128,95.5,128.1L95.5,128.1z"/>
		<path class="st1" d="M100.3,124.9c-0.6-0.3-1.3,0.1-1.2,0.8c0,0.1,0.1,0.2,0.2,0.2c0.6,0.1,1.4,0,1.8-0.6c0.3-0.5,0.3-1.1,0-1.6
			c-0.4-0.4-1-0.5-1.4-0.1c-0.3,0.3-0.6,1-0.1,1.2c0.1,0,0.2,0,0.2-0.1c0.1-0.2,0.1-0.4,0.3-0.5c0.2-0.1,0.4-0.1,0.5,0.1
			c0.1,0.2,0.1,0.5-0.1,0.7c-0.3,0.3-0.7,0.3-1.1,0.3c0.1,0.1,0.2,0.2,0.2,0.2c-0.1-0.4,0.2-0.8,0.7-0.6
			C100.3,125,100.4,124.9,100.3,124.9z"/>
		<path class="st1" d="M65.9,111.2c2.9,1.9,5.9,3.8,8.9,5.6c0.1,0,0.1-0.1,0.1-0.1C72,114.8,68.9,113,65.9,111.2
			C65.9,111.2,65.8,111.2,65.9,111.2z"/>
		<path class="st1" d="M66.2,110.5c2.9,1.9,5.9,3.8,9,5.5c0.1,0,0.1-0.1,0-0.1C72.3,114,69.2,112.2,66.2,110.5
			C66.2,110.4,66.1,110.5,66.2,110.5z"/>
		<path class="st1" d="M68,110.8c2.9,2.1,6,4.3,9.4,5.7c0.1,0,0.1-0.1,0.1-0.1C74.3,114.4,71,112.8,68,110.8
			C68,110.7,67.9,110.8,68,110.8L68,110.8z"/>
		<path class="st1" d="M68.9,110.7c2.1,1.5,4.3,3.2,6.6,4.4c0.1,0,0.2-0.1,0.1-0.2C73.6,113.3,71.2,111.9,68.9,110.7
			C68.9,110.6,68.9,110.7,68.9,110.7z"/>
		<path class="st1" d="M71,111.7c1.5,0.6,2.7,1.5,4.1,2.3c0.1,0.1,0.2-0.1,0.1-0.1c-1.1-1.1-2.7-1.9-4.1-2.4
			C70.9,111.4,70.9,111.6,71,111.7L71,111.7z"/>
		<path class="st1" d="M71.1,111.9c1.8,1.2,3.6,2.6,5.5,3.6c0.2,0.1,0.3-0.1,0.1-0.2c-1.7-1.4-3.6-2.5-5.4-3.6
			C71.1,111.5,70.9,111.8,71.1,111.9L71.1,111.9z"/>
		<path class="st1" d="M73.2,113c1.8,1.8,4.7,3.6,7.2,4.2c0.1,0,0.2-0.1,0.1-0.2c-1.1-0.7-2.2-1.1-3.3-1.7c-1.3-0.7-2.6-1.6-3.9-2.4
			C73.2,112.8,73.2,113,73.2,113z"/>
		<path class="st1" d="M74.9,113.9c2,1.8,5.1,3.3,7.8,3.2c0.1,0,0.1-0.2,0-0.2c-1.3-0.4-2.6-0.6-3.9-1.1c-1.4-0.5-2.6-1.3-3.9-2.1
			C74.9,113.7,74.8,113.8,74.9,113.9L74.9,113.9z"/>
		<path class="st1" d="M79,105.5c1.4,0.7,2.9,1.2,4.4,1.6c0.1,0,0.1-0.1,0-0.2c-1.4-0.7-2.9-1.2-4.4-1.6
			C78.9,105.3,78.9,105.5,79,105.5z"/>
		<path class="st1" d="M62,106.4c0.7,1.3,2.1,2.9,3.5,3.4c0.1,0.1,0.3-0.1,0.2-0.2c-0.5-0.5-1.1-0.9-1.6-1.4
			c-0.6-0.6-1.2-1.3-1.8-1.9C62.1,106.2,61.9,106.3,62,106.4z"/>
		<path class="st1" d="M62.4,106.9c0.8,1.9,2.8,4.1,4.9,4.3c0.1,0,0.2-0.2,0.1-0.3c-0.8-0.6-1.8-1-2.6-1.7c-0.9-0.7-1.6-1.6-2.2-2.5
			C62.5,106.7,62.3,106.8,62.4,106.9L62.4,106.9z"/>
		<path class="st1" d="M63.3,107.3c1.2,1.3,2.6,2.8,4.1,3.8c0.2,0.1,0.4-0.1,0.3-0.3c-1.2-1.4-2.8-2.6-4.3-3.7
			C63.4,107.1,63.3,107.2,63.3,107.3L63.3,107.3z"/>
		<path class="st1" d="M64.7,108.1c1.1,1.1,2.4,2.3,3.8,2.9c0.2,0.1,0.3-0.1,0.1-0.2c-1.1-1.1-2.6-1.9-3.8-3
			C64.8,107.6,64.6,107.9,64.7,108.1z"/>
		<path class="st1" d="M65.7,108c0.6,0.5,1.1,1,1.7,1.5c0.3,0.3,0.9,0.9,1.4,0.9c0.4,0,0.4-0.5,0-0.5c-0.1,0-0.1,0-0.1,0.1
			c0,0,0,0,0,0.1c0,0.1,0.1,0.1,0.2,0.1c0,0-2.8-2.1-3-2.3C65.8,107.7,65.6,107.9,65.7,108z"/>
		<path class="st1" d="M68.2,109.1c0.4,0.3,0.7,0.6,1.1,0.9c0.1,0.1,0.3-0.1,0.2-0.2c-0.3-0.4-0.7-0.7-1.1-1
			C68.2,108.7,68,108.9,68.2,109.1L68.2,109.1z"/>
		<path class="st1" d="M61.5,104.3c0.3,0.9,1,1.4,1.6,2.1c0.1,0.1,0.2,0,0.1-0.1c-0.5-0.7-1.2-1.3-1.6-2
			C61.6,104.2,61.5,104.2,61.5,104.3L61.5,104.3z"/>
		<path class="st1" d="M62.7,106.2c0.3,0.2,0.6,0.4,0.9,0.6c0,0,0.1,0,0.1-0.1C63.4,106.5,63,106.3,62.7,106.2
			C62.7,106.1,62.6,106.2,62.7,106.2L62.7,106.2z"/>
		<path class="st1" d="M72.3,111.7c2.1,1.7,4.4,3.2,6.7,4.6c0.1,0.1,0.2-0.1,0.1-0.2C77.1,114.5,74.7,113,72.3,111.7
			C72.3,111.7,72.3,111.7,72.3,111.7L72.3,111.7z"/>
		<path class="st1" d="M75.7,114c1.6,1.2,3.3,2.5,5.1,3.4c0.1,0.1,0.2-0.1,0.1-0.2c-1.5-1.3-3.4-2.3-5.1-3.3
			C75.7,113.9,75.6,114,75.7,114L75.7,114z"/>
		<path class="st1" d="M77.2,114c1.6,1,3,2.3,4.6,3.2c0.1,0,0.2,0,0.1-0.1c-1.2-1.4-3-2.5-4.7-3.3C77.2,113.9,77.1,114,77.2,114
			L77.2,114z"/>
		<path class="st1" d="M78,113.7c1.3,1,2.5,2,3.9,2.8c0.1,0,0.1-0.1,0.1-0.1c-1.1-1.1-2.6-1.9-3.9-2.8C78,113.5,77.9,113.7,78,113.7
			L78,113.7z"/>
		<path class="st1" d="M79,113.7c1.1,0.8,2.2,1.8,3.4,2.4c0.1,0.1,0.2-0.1,0.1-0.2c-1-0.9-2.2-1.7-3.3-2.4
			C79,113.4,78.8,113.6,79,113.7L79,113.7z"/>
		<path class="st1" d="M81.1,114.5c0.4,0.1,0.8,0.2,1.1,0.3c0.1,0,0.1-0.2,0-0.2c-0.3-0.1-0.8-0.2-1.1-0.2
			C81,114.3,81,114.5,81.1,114.5z"/>
		<path class="st1" d="M78.7,118.5c0.3,0.6,0.7,1.2,0.9,1.9c0.3,0.7,0.3,1.5,0.5,2.3c0,0.1,0.3,0.2,0.3,0
			C80.8,121.2,80,119.2,78.7,118.5C78.7,118.3,78.7,118.4,78.7,118.5L78.7,118.5z"/>
		<path class="st1" d="M78,119.5c1.2,1,1.5,2.2,1.6,3.7c0,0.1,0.1,0.1,0.2,0c0.6-1.5-0.4-3.2-1.7-3.9C78,119.3,77.9,119.4,78,119.5
			L78,119.5z"/>
		<path class="st1" d="M80.5,118.8c0.1,0.7,0.2,1.4,0.3,2.1c0,0.7-0.1,1.4,0,2.1c0,0.1,0.2,0.1,0.2,0c0.4-1.4,0-3-0.4-4.3
			C80.6,118.7,80.4,118.7,80.5,118.8z"/>
		<path class="st1" d="M81.1,118.9c0.1,0.6,0.1,1.2,0.2,1.8c0,0.6-0.1,1.2,0,1.8c0,0.1,0.1,0.1,0.1,0c0.4-1.1,0.1-2.6-0.1-3.7
			C81.2,118.7,81.1,118.7,81.1,118.9z"/>
		<path class="st1" d="M81.8,118.9c0.2,1.4,0.1,2.7,0,4c0,0.1,0.1,0.1,0.2,0c0.4-1.3,0.3-2.8,0-4.1
			C81.9,118.8,81.8,118.8,81.8,118.9L81.8,118.9z"/>
		<path class="st1" d="M81.9,119.2c-0.1,1.3-0.3,2.8,0,4.1c0,0.1,0.2,0.1,0.2,0c0.3-1.3,0.1-2.8,0-4.1C82.2,119,81.9,119,81.9,119.2
			L81.9,119.2z"/>
		<path class="st1" d="M81.1,118.9c0.4,0.5,0.7,1,0.9,1.7c0.1,0.5,0,1.1,0.1,1.6c0,0.1,0.2,0.2,0.3,0.1c0.8-1.1-0.2-2.8-1-3.6
			C81.2,118.5,81,118.8,81.1,118.9L81.1,118.9z"/>
		<path class="st1" d="M80.8,119.1c0.5,0.4,0.9,0.8,1.1,1.4c0.2,0.5,0.2,1.1,0.3,1.6c0,0.2,0.4,0.2,0.4,0c0.3-1.2-0.6-2.7-1.7-3.3
			C80.8,118.6,80.6,118.9,80.8,119.1L80.8,119.1z"/>
		<path class="st1" d="M81.9,119.2c0.6,1.3,0.4,2.5,0.3,3.9c0,0.1,0.1,0.1,0.2,0c0.6-1.2,0.3-2.8-0.3-4
			C82,119,81.9,119.1,81.9,119.2z"/>
		<path class="st1" d="M82.1,122.1c-0.3,0.7-0.6,1.4-0.8,2.1c0,0.1,0.1,0.1,0.1,0.1c0.3-0.7,0.6-1.3,0.9-2
			C82.4,122.1,82.2,122,82.1,122.1z"/>
		<path class="st1" d="M55.5,148.5c1.5,1.6,5.7-0.4,7.3-1c3.8-1.4,7.8-3,11.3-5.2c0.1-0.1,0-0.3-0.1-0.2c-2.9,1.1-5.6,2.7-8.4,3.9
			c-1.8,0.8-8.2,4.2-9.9,2.4C55.5,148.4,55.4,148.4,55.5,148.5L55.5,148.5z"/>
		<path class="st1" d="M58.9,147.9c2.8-0.6,5.8-1.5,8.4-2.8c0.1,0,0-0.2-0.1-0.1c-2.8,0.9-5.5,2-8.3,2.9
			C58.9,147.8,58.9,147.9,58.9,147.9z"/>
		<path class="st1" d="M61.4,147.1c2.4-0.9,4.9-1.8,7.2-3c0.1-0.1,0.1-0.3-0.1-0.2c-2.5,0.8-4.9,1.9-7.2,3
			C61.2,147,61.3,147.2,61.4,147.1L61.4,147.1z"/>
		<path class="st1" d="M64.5,145.7c2.7-1,5.4-2.2,8-3.5c0.1-0.1,0.1-0.3-0.1-0.2c-2.7,1-5.4,2.3-8,3.6
			C64.4,145.6,64.4,145.7,64.5,145.7z"/>
		<path class="st1" d="M67.2,144c3-0.9,6-2,8.8-3.3c0.1,0,0-0.2-0.1-0.2c-3,0.8-6,2-8.8,3.3C67,143.8,67.1,144,67.2,144z"/>
		<path class="st1" d="M70.2,142.4c2.2-1.1,4.2-1.7,6.5-2.3c0.1,0,0.1-0.2,0-0.2c-2.3-0.1-4.8,0.9-6.6,2.3
			C70.1,142.3,70.1,142.4,70.2,142.4L70.2,142.4z"/>
		<path class="st1" d="M71.3,141c1.7-0.3,3.6-0.7,5.2-1.4c0.1,0,0.1-0.2-0.1-0.2c-1.7,0.2-3.6,0.8-5.2,1.4
			C71.1,140.8,71.2,141,71.3,141L71.3,141z"/>
		<path class="st1" d="M71.9,139.8c1.2-0.3,2.6-0.4,3.7-0.8c0.1,0,0.1-0.2,0-0.2c-1.2,0-2.5,0.4-3.7,0.7
			C71.6,139.5,71.6,139.8,71.9,139.8L71.9,139.8z"/>
		<path class="st1" d="M73.8,138.7c0.4-0.1,0.9-0.1,1.3-0.2c0.1,0,0.1-0.2,0-0.2c-0.4,0-0.9,0.1-1.3,0.2
			C73.6,138.4,73.6,138.7,73.8,138.7L73.8,138.7z"/>
		<path class="st1" d="M86.5,137.5c0.9,0.1,1.7,0.2,2.6,0.3c0.8,0.2,1.7,0.5,2.5,0.6c0.1,0,0.2-0.1,0.1-0.2c-1.4-1-3.6-1.1-5.2-1
			C86.3,137.2,86.3,137.5,86.5,137.5L86.5,137.5z"/>
		<path class="st1" d="M85.5,137.5c2.1-0.4,3.8,0.2,5.8,0.9c0.2,0.1,0.3-0.2,0.2-0.3c-1.6-1.4-4-1.5-6-1
			C85.2,137.2,85.2,137.6,85.5,137.5L85.5,137.5z"/>
		<path class="st1" d="M86.5,136.8c1.8,0,3.4,0.5,5.1,0.8c0.1,0,0.2-0.2,0.1-0.3c-1.5-0.9-3.5-1.1-5.2-1
			C86.2,136.5,86.3,136.8,86.5,136.8L86.5,136.8z"/>
		<path class="st1" d="M86.7,136.5c0.8,0,1.6,0,2.3,0.1c0.7,0.1,1.4,0.4,2.1,0.5c0.2,0,0.3-0.2,0.1-0.3c-1.2-0.8-3.2-0.8-4.6-0.7
			C86.3,136,86.4,136.5,86.7,136.5L86.7,136.5z"/>
		<path class="st1" d="M87.5,136c0.7,0,1.5,0.1,2.2,0.1c0.7,0.1,1.4,0.3,2.2,0.4c0.2,0,0.3-0.3,0.1-0.4c-1.3-0.6-3-0.6-4.4-0.5
			C87.3,135.7,87.3,136,87.5,136z"/>
		<path class="st1" d="M89.2,135.8c0.5,0,1,0,1.5,0.2c0.5,0.1,1,0.4,1.4,0.5c0.1,0,0.2-0.1,0.1-0.2c-0.8-0.7-2.1-0.9-3.1-0.9
			C88.8,135.3,88.9,135.8,89.2,135.8z"/>
		<path class="st1" d="M88.5,135.1c0.6,0,1.2,0,1.7,0.1c0.5,0.1,1,0.3,1.6,0.3c0.1,0,0.2-0.1,0.1-0.2c-0.9-0.6-2.4-0.7-3.4-0.7
			C88.2,134.7,88.2,135.1,88.5,135.1L88.5,135.1z"/>
		<path class="st1" d="M89.1,134.7c0.4-0.1,0.8-0.1,1.3-0.1c0.4,0.1,0.7,0.3,1.1,0.4c0.1,0.1,0.2-0.1,0.1-0.2
			c-0.7-0.6-1.8-0.6-2.6-0.4C88.8,134.4,88.9,134.7,89.1,134.7L89.1,134.7z"/>
		<path class="st1" d="M89.8,133.9c0.6-0.1,1.1,0,1.7,0.2c0.5,0.2,0.9,0.5,1.3,0.7c0.1,0,0.1-0.1,0.1-0.1c-0.7-0.9-2.1-1-3.1-0.9
			C89.7,133.8,89.7,133.9,89.8,133.9z"/>
		<path class="st1" d="M84.8,135c1.8-0.5,3.5-0.4,5.3-0.1c0.1,0,0.1-0.1,0-0.2c-1.7-0.7-3.7-0.6-5.4,0.1
			C84.7,134.9,84.7,135,84.8,135z"/>
		<path class="st1" d="M84.4,133.2c2.1,0.4,4.3,0.8,6.4,0.7c0.1,0,0.1-0.2,0-0.2c-2-0.5-4.3-0.7-6.4-0.8
			C84.3,133,84.2,133.2,84.4,133.2L84.4,133.2z"/>
		<path class="st1" d="M85.2,131.9c0.9,0,1.9,0.2,2.7,0.4c1,0.2,1.9,0.7,2.9,1c0.1,0,0.2-0.1,0.1-0.2c-1.5-1.2-3.9-1.4-5.7-1.4
			C85.1,131.7,85.1,131.9,85.2,131.9L85.2,131.9z"/>
		<path class="st1" d="M88.1,131c0.4,0.2,0.8,0.3,1.2,0.5c0.1,0,0.2-0.1,0.1-0.2c-0.4-0.2-0.8-0.4-1.2-0.5
			C88.1,130.7,88,130.9,88.1,131L88.1,131z"/>
		<path class="st1" d="M88,141c-0.1-0.2-0.3-0.3-0.4-0.5c-0.1,0.1-0.2,0.1-0.3,0.2c0.9,0.3,1.7,0.8,2.3,1.6c0.5,0.8,0.6,1.6,0.8,2.5
			c0,0.1,0.2,0.1,0.3,0c0.8-2-1.5-4.3-3.3-4.6c-0.2,0-0.4,0.3-0.2,0.4c0.3,0.2,0.5,0.4,0.8,0.5C88.1,141.2,88.1,141.1,88,141z"/>
		<path class="st1" d="M88.4,140.2c0.7,1.3,1.5,2.5,2.1,3.9c0.6,1.4,0.9,2.8,1.5,4.2c0.1,0.1,0.2,0.1,0.2-0.1
			c-0.1-2.9-1.7-6-3.6-8.1C88.5,140.1,88.4,140.1,88.4,140.2z"/>
		<path class="st1" d="M89.1,139.3c0.3,1,0.8,2,1.1,2.9c0.2,0.5,0.4,1,0.5,1.5c0.1,0.4,0.6,1.5,0.5,1.7c0-0.1-0.1-0.2-0.2-0.1
			c0,0-0.1,0.1-0.1,0.1c0,0-0.1,0.1,0,0.2c0.1,0.2,0.1,0.2,0.3,0.3c0.1,0,0.2,0,0.2-0.1c0.5-0.7-0.1-1.8-0.3-2.5c-0.5-1.4-1-2.9-2-4
			C89.2,139.1,89.1,139.2,89.1,139.3L89.1,139.3z"/>
		<path class="st1" d="M90.5,140.4c0.8,2.2,1.2,4.3,1.7,6.5c0.1,0.3,0.6,0.3,0.5-0.1c-0.3-1.2-0.5-2.4-0.5-3.6c-0.1,0-0.3,0-0.4,0
			c0.3,1.5,0.3,3,0.3,4.5c0,0.2,0.3,0.3,0.4,0.1c0.5-1.5,0.3-3.2-0.2-4.7c-0.1-0.2-0.4-0.1-0.4,0.1c0.3,1.2,0.4,2.4,0.4,3.6
			c0.2,0,0.3,0,0.5,0c-0.2-2.3-0.9-4.6-1.7-6.7C90.8,139.9,90.3,140.1,90.5,140.4z"/>
		<path class="st1" d="M110.5,134.2c-1.5,1.1-3,3.6-2.7,5.5c0,0.1,0.2,0.1,0.2,0c0.4-0.9,0.5-1.9,0.9-2.7c0.5-1,1.1-1.7,1.8-2.6
			C110.9,134.3,110.7,134.1,110.5,134.2L110.5,134.2z"/>
		<path class="st1" d="M109.4,135.3c-2.6,2.3-3.5,5.8-4,9.2c-0.6,4.3-0.9,8.5-2.9,12.5c-0.1,0.2,0.2,0.3,0.3,0.2
			c2-2.8,2.5-6.3,2.9-9.7C106.2,143,106.9,139,109.4,135.3C109.5,135.3,109.5,135.2,109.4,135.3L109.4,135.3z"/>
		<path class="st1" d="M108.2,137.5c-0.7,4.2-1.2,8.3-1.8,12.5c-0.6,4.2-1.6,8.3-2,12.5c0,0.2,0.3,0.3,0.3,0.1
			c1.2-3.9,1.6-8.1,2.2-12.1C107.6,146.2,108.1,141.8,108.2,137.5C108.3,137.4,108.3,137.4,108.2,137.5z"/>
		<path class="st1" d="M106.6,139.4c-0.3,3.3-1.1,6.5-1.3,9.7c0,0.1,0.1,0.1,0.2,0c1.1-3,1.2-6.6,1.2-9.8
			C106.7,139.4,106.6,139.4,106.6,139.4z"/>
		<path class="st1" d="M106.9,140c0.1,0.2,0.2,0.4,0.2,0.6c0,0,0,0,0,0C107.1,140.4,107,140.2,106.9,140
			C106.9,140,106.9,140,106.9,140L106.9,140z"/>
		<path class="st1" d="M107.1,140.6c-0.2,1.1-0.5,2.3-0.7,3.4c-0.2,1-0.5,2.1-0.5,3.1c0,0.1,0.1,0.1,0.2,0c0.4-0.9,0.5-2,0.7-3
			c0.2-1.1,0.4-2.3,0.6-3.4C107.5,140.4,107.2,140.4,107.1,140.6L107.1,140.6z"/>
		<path class="st1" d="M107.4,141.7c-0.4,1.7-0.7,3.4-1,5.1c-0.3,1.5-0.7,3-0.7,4.5c0,0.1,0.2,0.1,0.2,0c0.5-1.4,0.6-3,0.9-4.5
			c0.3-1.7,0.6-3.4,0.8-5.1C107.6,141.6,107.4,141.6,107.4,141.7L107.4,141.7z"/>
		<path class="st1" d="M106.5,146.6c-0.6,1.8-1.1,3.8-1,5.6c0,0.2,0.3,0.2,0.3,0c0.2-1.9,0.3-3.7,0.9-5.5
			C106.7,146.5,106.5,146.4,106.5,146.6z"/>
		<path class="st1" d="M105.5,140.2c-1.4,5.1-1.3,10.5-1.4,15.8c-0.1,2.6-0.2,5.3-0.5,7.9c-0.2,1.2-0.4,2.3-0.6,3.5
			c-0.3,1.4-0.8,4.4-2.2,5.1c-0.2,0.1-0.1,0.4,0.1,0.4c1.8-0.6,2.2-3.7,2.6-5.4c0.7-2.9,0.9-5.9,1-8.9
			C104.7,152.4,104.5,146.3,105.5,140.2C105.6,140.1,105.5,140.1,105.5,140.2L105.5,140.2z"/>
		<path class="st1" d="M112.6,132.7c2.7,0.9,5.3,1.8,8,2.7c0.1,0,0.1-0.1,0.1-0.1c-2.4-1.3-5.3-2.2-8-2.7
			C112.6,132.6,112.5,132.7,112.6,132.7z"/>
		<path class="st1" d="M113.7,133.6c4.1,1.1,8.1,2.2,12.1,3.7c0.1,0,0.2-0.1,0.1-0.1c-3.8-1.8-8-3.2-12.1-3.7
			C113.6,133.5,113.6,133.6,113.7,133.6L113.7,133.6z"/>
		<path class="st1" d="M117.4,132.7c3.3,2,7.5,3.9,11.4,4.5c0.1,0,0.1-0.1,0-0.1c-1.9-0.8-3.9-1.3-5.8-2c-1.9-0.7-3.7-1.6-5.6-2.5
			C117.4,132.6,117.3,132.7,117.4,132.7L117.4,132.7z"/>
		<path class="st1" d="M118.9,133.1c3,1.3,6.2,2.6,9.3,3.5c0.1,0,0.1-0.1,0.1-0.1C125.3,135.1,122.1,134,118.9,133.1
			C118.9,133,118.9,133.1,118.9,133.1z"/>
		<path class="st1" d="M120.6,133c2.6,1.2,5.3,2.4,8.1,3.1c0.1,0,0.1-0.1,0.1-0.1c-2.5-1.3-5.4-2.3-8.1-3.1
			C120.6,132.8,120.6,132.9,120.6,133L120.6,133z"/>
		<path class="st1" d="M121.8,132.6c2.3,0.6,4.2,1.7,6.3,2.7c0.1,0,0.1-0.1,0.1-0.1c-1.8-1.4-4.2-2.2-6.3-2.7
			C121.7,132.5,121.7,132.6,121.8,132.6L121.8,132.6z"/>
		<path class="st1" d="M123.5,132.9c1.4,0.6,2.7,1.2,4.1,1.7c0.1,0,0.2-0.1,0.1-0.2c-1.3-0.7-2.7-1.2-4.1-1.7
			C123.5,132.6,123.4,132.8,123.5,132.9L123.5,132.9z"/>
		<path class="st1" d="M114.2,132.2c1.1,0.2,2.3,0.4,3.4,0.8c0.9,0.3,1.8,0.8,2.7,1c0.1,0,0.1-0.1,0.1-0.2
			C118.8,132.4,116.1,132.1,114.2,132.2C114.2,132.2,114.2,132.2,114.2,132.2L114.2,132.2z"/>
		<path class="st1" d="M112.7,131.8c2.9,0.2,5.4,0.9,8.1,1.8c0.1,0,0.2-0.1,0.1-0.2c-2.4-1.4-5.5-2-8.2-1.8
			C112.6,131.7,112.6,131.8,112.7,131.8L112.7,131.8z"/>
		<path class="st1" d="M87.6,109.1c1.1,0.6,2.4,0.9,3.5,1.2c1.2,0.3,2.4,0.6,3.7,0.6c0.1,0,0.1-0.1,0-0.1c-1.1-0.4-2.3-0.5-3.4-0.7
			c-1.3-0.3-2.5-0.8-3.8-1C87.6,109,87.5,109.1,87.6,109.1L87.6,109.1z"/>
		<path class="st1" d="M88.1,108.5c2.1,1.1,4.8,2.1,7.2,2c0.1,0,0.1-0.1,0-0.1c-1.1-0.3-2.3-0.4-3.4-0.7
			C90.6,109.3,89.3,108.9,88.1,108.5C88.1,108.4,88,108.5,88.1,108.5z"/>
		<path class="st1" d="M87.6,108c0.9,0.7,2.1,1,3.1,1.3c1.2,0.3,2.4,0.6,3.6,0.5c0.1,0,0.1-0.2,0-0.2c-1.2-0.3-2.4-0.4-3.6-0.7
			c-1.1-0.3-2.1-0.8-3.1-1C87.6,107.8,87.5,107.9,87.6,108z"/>
		<path class="st1" d="M90.1,108.9c3.8,1.7,9.3,0.9,11.8-2.7c0.1-0.1-0.1-0.3-0.2-0.2c-3.5,2.9-7,4.3-11.5,2.7
			C90.1,108.7,90,108.8,90.1,108.9L90.1,108.9z"/>
		<path class="st1" d="M105.1,126.8c-1.1,1.6-1.9,3.4-2.7,5.1c0,0.1,0.1,0.1,0.1,0.1C103.5,130.4,104.5,128.6,105.1,126.8
			C105.2,126.8,105.1,126.7,105.1,126.8L105.1,126.8z"/>
		<path class="st1" d="M105.7,128.3c-0.4,0.5-0.7,1-1,1.6c-0.3,0.5-0.6,1.2-0.7,1.8c0,0.1,0.1,0.1,0.1,0c0.3-0.5,0.4-1.1,0.7-1.6
			C105.1,129.5,105.5,128.9,105.7,128.3C105.9,128.3,105.8,128.2,105.7,128.3L105.7,128.3z"/>
		<path class="st1" d="M106.7,128.9c-1,1-1.8,2.1-2,3.5c0,0.1,0.1,0.1,0.1,0c0.5-1.3,1-2.5,2-3.5
			C106.8,128.9,106.7,128.8,106.7,128.9L106.7,128.9z"/>
		<path class="st1" d="M107.1,129.3c-0.6,0.7-1.2,1.7-1.2,2.7c0,0.1,0.1,0.1,0.1,0c0.2-0.4,0.3-0.9,0.5-1.3c0.2-0.5,0.5-0.9,0.7-1.3
			C107.3,129.3,107.2,129.2,107.1,129.3z"/>
		<path class="st1" d="M107.2,130.3c-0.1,0.3-0.2,0.5-0.3,0.8c0,0.1,0.1,0.1,0.1,0c0.1-0.3,0.2-0.5,0.4-0.8
			C107.4,130.3,107.3,130.2,107.2,130.3z"/>
		<path class="st1" d="M104.3,132.9c-0.9,1.8-1.6,4-1.5,6.1c0,0.1,0.1,0.1,0.2,0C103.2,137,103.5,135,104.3,132.9
			C104.3,132.9,104.3,132.9,104.3,132.9z"/>
		<path class="st1" d="M104.5,134.5c-0.4,0.8-0.7,1.7-0.9,2.6c-0.2,0.9-0.4,1.9-0.2,2.7c0,0.1,0.2,0.1,0.2,0
			c0.2-0.8,0.2-1.7,0.3-2.5C104,136.3,104.3,135.4,104.5,134.5C104.6,134.4,104.5,134.4,104.5,134.5z"/>
		<path class="st1" d="M105.7,134c-0.6,1.9-1.2,3.9-1.7,5.8c0,0.2,0.2,0.2,0.3,0.1c0.6-1.9,1.1-3.9,1.6-5.8
			C105.9,133.9,105.7,133.8,105.7,134L105.7,134z"/>
		<path class="st1" d="M106.5,134.8c-0.5,1-0.8,2-1.1,3c-0.2,0.8-0.5,1.8-0.5,2.6c0,0.1,0.2,0.2,0.3,0c0.3-0.8,0.4-1.7,0.6-2.6
			c0.3-1,0.6-2,0.9-3C106.7,134.8,106.5,134.7,106.5,134.8L106.5,134.8z"/>
		<path class="st1" d="M106.9,135.5c-0.4,1.6-0.8,3.2-1,4.8c0,0.1,0.2,0.2,0.2,0.1c0.4-1.6,0.8-3.2,1.1-4.9
			C107.3,135.4,107,135.3,106.9,135.5L106.9,135.5z"/>
		<path class="st1" d="M103.2,137.8c-0.3,4.4-0.3,8.9,0,13.2c0,0.1,0.2,0.1,0.2,0C103.7,146.6,103.7,142.2,103.2,137.8
			C103.3,137.7,103.2,137.7,103.2,137.8z"/>
		<path class="st1" d="M103.4,144.8c-0.1,4.5-0.2,9.1-0.2,13.6c0,2.3,0.2,4.8-0.4,7c-0.6,2.5-2.1,4.7-3.5,6.9
			c-0.1,0.1,0.1,0.3,0.2,0.1c2.7-3.4,4.1-6.6,4.2-11C103.8,155.9,103.6,150.3,103.4,144.8C103.5,144.7,103.4,144.7,103.4,144.8z"/>
		<path class="st1" d="M107.2,128.4c2.1-0.3,4.1-0.1,6,0.7c0.1,0,0.1-0.1,0-0.1c-1.9-1-4-1.3-6-0.7
			C107.1,128.3,107.1,128.4,107.2,128.4z"/>
		<path class="st1" d="M114.4,129.5c3,1,6.1,1.9,9.2,2.7c0.1,0,0.1-0.1,0-0.1C120.6,131,117.5,130.2,114.4,129.5
			C114.4,129.4,114.4,129.5,114.4,129.5L114.4,129.5z"/>
		<path class="st1" d="M110.1,128.9c1.2,1,2.3,2.1,3.6,3c0.1,0,0.1,0,0.1-0.1C112.7,130.6,111.3,129.8,110.1,128.9
			C110.1,128.8,110.1,128.8,110.1,128.9z"/>
		<path class="st1" d="M111.6,128.6c0.9,0.6,1.8,1.2,2.6,1.8c0.9,0.6,1.7,1.3,2.5,1.9c0.1,0,0.1,0,0.1-0.1
			C115.5,130.7,113.5,129.4,111.6,128.6C111.6,128.5,111.6,128.6,111.6,128.6z"/>
		<path class="st1" d="M114.9,129.3c0.8,0.5,1.5,1,2.2,1.6c0.7,0.6,1.3,1.3,1.9,1.8c0.1,0.1,0.1,0,0.1-0.1c-1-1.4-2.6-2.6-4.1-3.4
			C115,129.1,114.8,129.2,114.9,129.3z"/>
		<path class="st1" d="M118.1,130.3c1.5,1.1,3.1,2.3,4.7,3.2c0.1,0.1,0.2-0.1,0.1-0.2c-1.4-1.2-3.1-2.2-4.7-3.2
			C118.1,130,118,130.2,118.1,130.3z"/>
		<path class="st1" d="M122.3,131.9c6.5,3.3,13.7,5.1,20.9,5.2c0,0,0.1-0.1,0-0.1C135.9,136.5,129,134.9,122.3,131.9
			C122.3,131.8,122.2,131.9,122.3,131.9z"/>
		<path class="st1" d="M129.3,136.9c3.6,0.7,7.3,1.5,11,1.9c0.1,0,0.1-0.1,0-0.1c-3.6-0.9-7.3-1.4-11-1.9
			C129.3,136.8,129.2,136.9,129.3,136.9z"/>
		<path class="st1" d="M133,138.4c3.1,0.7,6.4,1.2,9.6,1.1c0.1,0,0.1-0.1,0-0.1C139.4,139.1,136.2,138.9,133,138.4
			C133,138.3,133,138.4,133,138.4L133,138.4z"/>
		<path class="st1" d="M139.6,138.7c0.7-0.1,1.4,0,2.1,0.2c0,0,0.1-0.1,0-0.1C141.1,138.5,140.3,138.5,139.6,138.7
			C139.5,138.6,139.5,138.7,139.6,138.7z"/>
		<path class="st1" d="M113.6,110.4c-1.4,2.1-2.7,4.6-2,7.2c0.5,1.5,1.7,3.1,3.4,2.9c0.1,0,0.1-0.1,0-0.1c-2.1-0.6-3.4-2.1-3.3-4.3
			C111.8,114,112.8,112.2,113.6,110.4C113.7,110.4,113.7,110.3,113.6,110.4L113.6,110.4z"/>
		<path class="st1" d="M113.1,111.2c1.5-3.6,3.5-6.7,5.8-9.9c2-2.7,4.2-5.5,5.2-8.8c0.1-0.2-0.2-0.2-0.2-0.1
			c-1.8,3.5-3.8,6.6-6.1,9.8c-2,2.7-4,5.6-4.9,8.9C112.9,111.3,113.1,111.4,113.1,111.2z"/>
		<path class="st1" d="M123.9,91c-0.4,1.3-0.9,2.5-1.5,3.7c-0.5,1.2-1.2,2.4-1.7,3.6c0,0.1,0.1,0.2,0.2,0.1
			C122.5,96.3,123.3,93.5,123.9,91C124,90.9,123.9,90.9,123.9,91z"/>
		<path class="st1" d="M122.8,90c-0.5,2.4-1.1,4.8-2.1,7c-0.9,2.1-2.1,3.9-3.1,5.9c-0.1,0.1,0.1,0.2,0.2,0.1
			C120.8,99.7,122.4,94.5,122.8,90C122.9,90,122.8,90,122.8,90L122.8,90z"/>
		<path class="st1" d="M109.9,111c-0.8,1.9-1.2,4-0.7,6c0,0.1,0.1,0.1,0.1,0C109.3,115,109.3,113.1,109.9,111
			C110,111,109.9,111,109.9,111L109.9,111z"/>
		<path class="st1" d="M110.9,111.5c-0.8,2-1.3,4.1-1.1,6.3c0,0.1,0.2,0.1,0.2,0c0.1-2.1,0.3-4.2,0.9-6.3
			C111,111.5,110.9,111.4,110.9,111.5z"/>
		<path class="st1" d="M111.1,112.8c-0.3,1.5-0.8,3.2-0.8,4.8c0,0.1,0.2,0.2,0.2,0c0.5-1.5,0.6-3.2,0.8-4.7
			C111.4,112.6,111.1,112.6,111.1,112.8L111.1,112.8z"/>
		<path class="st1" d="M111.9,112.4c-0.3,1.5-0.7,3-0.9,4.4c0,0.2,0.3,0.3,0.4,0.1c0.5-1.4,0.6-3,0.9-4.5
			C112.4,112.2,111.9,112.1,111.9,112.4L111.9,112.4z"/>
		<path class="st1" d="M113.4,107.6c-1.5,1.2-2.9,3.4-3,5.4c0,0.1,0.2,0.1,0.2,0c0.4-0.9,0.6-1.9,1-2.7c0.5-1,1.1-1.8,1.8-2.6
			C113.6,107.7,113.5,107.6,113.4,107.6L113.4,107.6z"/>
		<path class="st1" d="M113.1,108.1c-0.8,1.6-1.7,3.2-2.3,4.8c0,0.1,0.1,0.3,0.2,0.1c0.9-1.5,1.6-3.2,2.4-4.8
			C113.5,108,113.2,107.8,113.1,108.1z"/>
		<path class="st1" d="M116.4,104.8c-0.9,1.3-1.7,2.6-2.5,3.9c-0.7,1.2-1.6,2.3-2,3.6c-0.1,0.2,0.2,0.3,0.3,0.2
			c1-1.1,1.7-2.6,2.4-3.9c0.7-1.2,1.4-2.4,2-3.6C116.6,104.8,116.4,104.7,116.4,104.8L116.4,104.8z"/>
		<path class="st1" d="M115.6,105.7c-1.5,1.9-3.2,4.5-3.6,7c0,0.2,0.3,0.3,0.3,0.1c0.5-1.1,0.9-2.3,1.4-3.4c0.6-1.2,1.3-2.4,2-3.5
			C115.9,105.7,115.7,105.6,115.6,105.7z"/>
		<path class="st1" d="M119.2,98.6c-2.7,3.5-5.3,7.2-7.8,10.9c-0.1,0.2,0.1,0.4,0.3,0.2c2.8-3.4,5.5-7.1,7.7-10.9
			C119.5,98.6,119.3,98.5,119.2,98.6z"/>
		<path class="st1" d="M121.2,95.3c-1,1.8-1.9,3.6-2.9,5.4c0.2,0.1,0.3,0.1,0.5,0.2c0.1-0.4,0.2-0.8,0.3-1.2c0-0.1-0.1-0.1-0.1-0.1
			c-0.2,0.3-0.4,0.7-0.6,1c-0.2,0.3,0.2,0.6,0.4,0.3c1.1-1.7,2.2-3.6,2.7-5.6C121.4,95.3,121.3,95.2,121.2,95.3L121.2,95.3z"/>
	</g>
</g>
</svg>
