<?xml version="1.0" encoding="utf-8"?>
<!-- Generator: Adobe Illustrator 27.1.1, SVG Export Plug-In . SVG Version: 6.00 Build 0)  -->
<svg version="1.1" id="Слой_1" xmlns="http://www.w3.org/2000/svg" xmlns:xlink="http://www.w3.org/1999/xlink" x="0px" y="0px"
	 viewBox="0 0 313.2 175" style="enable-background:new 0 0 313.2 175;" xml:space="preserve">
<style type="text/css">
	.st0{fill:none;stroke:#AAAAAA;stroke-linecap:round;stroke-linejoin:round;stroke-dasharray:4.01,4.01;}
	.st1{clip-path:url(#SVGID_00000139274692018583776010000011110673208309333178_);}
	.st2{fill:#AAAAAA;}
</style>
<path class="st0" d="M312.6,1.2c-68.7,2-77.5,80.1-65.2,104.3c15.6,30.7,50.9,18.9,38.9-8.8c-6-14-31.5-27.4-63.2-7.1
	c-27.3,17.5-26.8,44.4-56,71.4c-23.3,21.5-54.4,13-70.2,0c-21-17.3-22.4-52.6-5.1-73.3c12.1-14.4,30.5-17.6,41.8-9.4
	c10.2,7.3,10.4,26.4,3.5,37.8c-11.2,18.6-35.5,31.5-57,31.7c-20.6,0.4-47.8-8.5-65.5-26.8"/>
<g>
	<defs>
		<rect id="SVGID_1_" x="0.6" y="72.8" width="30" height="55"/>
	</defs>
	<clipPath id="SVGID_00000120536700430637432340000004643612378289763491_">
		<use xlink:href="#SVGID_1_"  style="overflow:visible;"/>
	</clipPath>
	<g style="clip-path:url(#SVGID_00000120536700430637432340000004643612378289763491_);">
		<path class="st2" d="M0.9,92.9c0.1,0.6,0.2,1.3,0.4,1.9c0.2,0.7,0.4,1.4,0.6,2.1c0.2,0.6,0.4,1.2,0.6,1.8c0.5,1.4,1.1,2.7,1.8,4.1
			c0.6,1.2,1.3,2.3,2,3.5c1.3,2.3,2.9,4.4,4.5,6.6c0.6,0.8,1.2,1.6,1.7,2.5c0.1,0.1,0.1,0.2,0.2,0.2c0,0.1-0.1,0.1-0.1,0.2
			c-0.3,0.5-0.2,1.1,0.2,1.6c0.2,0.2,0.6,0.4,0.9,0.4c0.1,0,0.2,0,0.3,0c0.2-0.1,0.4-0.2,0.6-0.3c0.4-0.3,0.6-0.9,0.9-1.4
			c0.2-0.4,0.5-0.8,0.8-1.2c0.6-0.8,1.1-1.6,1.7-2.3c0.4-0.5,0.8-1,1.1-1.5c0.4-0.5,0.8-1.1,1.1-1.6c0.8-1.1,1.6-2.1,2.4-3.2
			c1.6-2.1,3.3-4.2,4.6-6.5c1.3-2.4,2.4-4.9,3-7.6c0.2-0.9,0.3-1.7,0.4-2.6c0.1-0.8,0.1-1.6,0-2.4c-0.1-0.5-0.1-0.9-0.2-1.4
			c-0.2-1.1-0.5-2.2-1-3.2c-0.3-0.6-0.5-1.2-0.9-1.8c-0.2-0.4-0.4-0.7-0.6-1.1c-0.5-0.8-1.1-1.6-1.7-2.4c-1.1-1.3-2.5-2.4-4.1-3.1
			c-0.8-0.4-1.7-0.8-2.6-1c-0.8-0.3-1.7-0.4-2.6-0.5c-0.2,0-0.3,0-0.5,0c-0.7,0-1.4,0.1-2.1,0.2c-0.7,0.1-1.5,0.2-2.2,0.3
			c-0.3,0.1-0.7,0.1-1,0.2c-0.8,0.2-1.5,0.4-2.3,0.7c-0.8,0.3-1.4,0.9-2.1,1.4c-0.7,0.6-1.3,1.3-1.9,2c-0.6,0.7-1.1,1.4-1.5,2.1
			c-0.3,0.4-0.5,0.9-0.7,1.4c-0.3,0.6-0.6,1.3-0.8,1.9c-0.2,0.6-0.4,1.2-0.6,1.8c-0.3,1.2-0.6,2.4-0.6,3.7c0,0.4,0,0.8,0,1.1
			c0,0.4,0,0.7,0.1,1.1C0.7,91.5,0.8,92.2,0.9,92.9z M3.4,87.3c0.1-0.9,0.4-1.8,0.6-2.7c0.2-0.7,0.5-1.4,0.7-2.1
			c0.1-0.3,0.3-0.6,0.4-0.9c0.3-0.7,0.8-1.3,1.2-2c0.7-0.9,1.5-1.8,2.5-2.5c0.5-0.3,0.9-0.6,1.4-0.9c0.8-0.3,1.8-0.5,2.7-0.7
			c0.7-0.1,1.3-0.2,2-0.3c0.4,0,0.8-0.1,1.2-0.1c0.4,0,0.8,0,1.2,0.1c0.7,0.1,1.5,0.3,2.2,0.6c0.2,0.1,0.3,0.1,0.5,0.2
			c0.3,0.1,0.6,0.3,0.8,0.4c0.6,0.3,1.2,0.6,1.7,1c0.4,0.3,0.8,0.7,1.2,1c0.4,0.4,0.7,0.8,1.1,1.2c0.9,1.2,1.6,2.6,2.2,4
			c0.1,0.3,0.2,0.5,0.3,0.8c0.2,0.6,0.3,1.2,0.4,1.8c0,0.3,0.1,0.6,0.1,0.9c0.1,0.8,0.1,1.6,0,2.4c-0.1,0.5-0.2,1.1-0.3,1.6
			c-0.1,0.6-0.3,1.1-0.5,1.7c-0.3,0.9-0.6,1.8-1,2.7c-0.5,1.1-1.1,2.3-1.8,3.4c-0.7,1.2-1.6,2.3-2.4,3.4c-1.6,2.1-3.2,4.1-4.7,6.2
			c-0.4,0.6-0.8,1.2-1.2,1.7c-0.4,0.6-0.8,1.1-1.2,1.7c-0.3,0.5-0.7,1-1,1.5c-1.4-2.1-2.9-4.1-4.2-6.2c-0.7-1.1-1.3-2.2-1.9-3.4
			c-0.3-0.6-0.6-1.2-0.9-1.8c-0.3-0.6-0.6-1.2-0.9-1.8c-0.3-0.6-0.5-1.2-0.8-1.9c-0.3-0.7-0.5-1.5-0.7-2.2C4,95,3.7,93.5,3.5,92
			C3.4,90.5,3.2,88.9,3.4,87.3L3.4,87.3z"/>
		<path class="st2" d="M7.5,92.3c0.3,0.7,0.7,1.3,1.1,1.9c0,0,0.1,0.1,0.1,0.1c0.1,0.1,0.2,0.3,0.3,0.4c0.1,0.2,0.3,0.5,0.4,0.7
			c0.3,0.5,0.7,0.9,1.1,1.3c0.4,0.4,0.9,0.7,1.4,1c0.3,0.1,0.6,0.3,0.9,0.4c0.3,0.1,0.6,0.2,0.9,0.3c0.4,0.1,0.8,0.1,1.2,0.2
			c0.4,0,0.8,0.1,1.2,0.1c0.5,0,1.1-0.1,1.6-0.3c0.6-0.2,1.1-0.5,1.6-0.8c1.4-0.9,2.4-2.3,3.1-3.8c0.2-0.4,0.4-0.8,0.5-1.2
			c0.1-0.2,0.1-0.4,0.2-0.6c0.1-0.2,0.1-0.4,0.2-0.7c0.1-0.2,0.1-0.4,0.1-0.6c0-0.2,0.1-0.4,0.1-0.5c0.1-0.5,0.1-0.9,0.2-1.4
			c0-0.4,0.1-0.8,0.1-1.2c0-0.4,0-0.8,0-1.2c0-0.4-0.1-0.9-0.1-1.3c0-0.2-0.1-0.4-0.1-0.6c0-0.2-0.1-0.4-0.1-0.6
			c0-0.2-0.1-0.4-0.2-0.6c-0.1-0.3-0.2-0.5-0.3-0.8c0-0.1-0.1-0.2-0.2-0.3c-0.1-0.2-0.2-0.3-0.4-0.4c-0.5-0.5-1.2-1-1.8-1.3
			c-0.5-0.3-1-0.5-1.5-0.6c-0.4-0.1-0.9-0.1-1.3-0.2c-0.4,0-0.8,0-1.2,0h0c-0.2-0.1-0.4-0.1-0.5-0.2c-0.3-0.1-0.5-0.1-0.8-0.1
			c0,0-0.1,0-0.1,0c-0.3,0-0.5,0-0.8,0.1c-0.6,0.1-1.1,0.3-1.6,0.5c-0.5,0.2-1.1,0.5-1.6,0.9c-0.2,0.1-0.4,0.2-0.5,0.4
			c-0.2,0.1-0.4,0.3-0.5,0.4c-0.4,0.3-0.7,0.6-1,0.9c-0.4,0.4-0.8,0.8-1.1,1.3c-0.5,0.7-0.7,1.5-0.9,2.2c-0.3,0.9-0.4,1.8-0.4,2.7
			c0,0.6,0.1,1.2,0.2,1.8C7,91.1,7.3,91.7,7.5,92.3L7.5,92.3z M8.7,87.6c0.1-0.5,0.2-1,0.4-1.5c0.1-0.3,0.2-0.5,0.3-0.8c0,0,0,0,0,0
			c0.2-0.4,0.4-0.7,0.7-1.1c0.1-0.2,0.3-0.3,0.4-0.5c0.2-0.2,0.5-0.5,0.7-0.7c0.3-0.2,0.6-0.4,1-0.6c0.3-0.2,0.6-0.3,1-0.5
			c0.2-0.1,0.4-0.1,0.5-0.2c0.1,0,0.1,0,0.2,0c0.4,0,0.8-0.1,1.2,0c0.3,0,0.6,0.1,0.9,0.2c0.3,0.1,0.7,0.2,1,0.3
			c0.6,0.2,1.1,0.4,1.7,0.6c0.4,0.2,0.8,0.4,1.1,0.7c0.2,0.1,0.3,0.3,0.5,0.4c0.2,0.3,0.4,0.7,0.6,1.1c0.3,0.6,0.4,1.3,0.5,2
			c0.1,1.1,0.1,2.2,0,3.4c0,0.3-0.1,0.5-0.2,0.8c-0.1,0.3-0.2,0.6-0.3,0.9c-0.2,0.4-0.4,0.8-0.7,1.2c-0.2,0.2-0.4,0.4-0.6,0.6
			c-0.1,0.1-0.3,0.2-0.4,0.3c-0.1,0.1-0.3,0.2-0.4,0.3c-0.1,0.1-0.3,0.2-0.4,0.3c-0.3,0.2-0.7,0.5-1.1,0.6c-0.3,0.1-0.5,0.2-0.8,0.3
			c-0.3,0.1-0.6,0.1-0.9,0.2c-0.4,0-0.7,0.1-1.1,0c-0.5-0.1-1-0.2-1.5-0.4c-0.4-0.2-0.8-0.4-1.2-0.7c-0.3-0.3-0.6-0.5-0.9-0.9
			c-0.1-0.1-0.2-0.3-0.3-0.4c-0.2-0.2-0.4-0.5-0.5-0.7c-0.3-0.4-0.5-0.8-0.7-1.2c-0.1-0.3-0.1-0.5-0.2-0.8c-0.2-0.7-0.3-1.4-0.4-2
			C8.7,88.5,8.7,88.1,8.7,87.6L8.7,87.6z"/>
		<path class="st2" d="M12.5,107.6c0,0.1,0.1,0.1,0.2,0c0,0,0.1-0.1,0.1-0.1c0,0,0-0.1,0-0.1c0,0,0.1,0,0.1-0.1c0,0,0-0.1,0-0.1
			c0-0.1,0-0.1-0.1-0.1c-0.2-0.2-0.4-0.3-0.6-0.5c0,0,0-0.1-0.1-0.1c0,0,0,0,0,0c-0.2-0.3-0.4-0.5-0.6-0.8c0,0-0.1-0.1-0.1-0.1
			c-0.1,0-0.1,0-0.1,0.1c0,0-0.1,0.1-0.1,0.1c-0.4-0.3-0.7-0.6-1.1-0.8c0,0-0.1,0-0.1,0c0,0,0,0-0.1,0c0,0-0.1,0-0.1,0.1
			c0,0,0,0.1,0,0.1c0,0.1,0,0.1,0.1,0.1c0.7,0.5,1.4,1,2.1,1.5C12.1,107.1,12.3,107.3,12.5,107.6L12.5,107.6z"/>
		<path class="st2" d="M11.4,108.5C11.4,108.5,11.4,108.4,11.4,108.5c0.1,0,0.1,0.1,0.2,0.1c0.1,0.1,0.2,0.1,0.3,0.1
			c0.1,0.1,0.3,0.1,0.4,0.2c0.1,0.1,0.2,0.2,0.2,0.2c0.1,0.1,0.2,0.1,0.2,0c0,0,0-0.1,0-0.1c0.1,0,0.3,0.1,0.4,0.1
			c0.1,0,0.3,0.1,0.4,0.1c0.1,0,0.2,0,0.3,0.1c0.1,0,0.3,0.1,0.4,0.1c0.1,0,0.2,0,0.2-0.1c0-0.1,0-0.2-0.1-0.2
			c-0.3-0.1-0.6-0.1-0.8-0.2c-0.1,0-0.3-0.1-0.4-0.1c-0.1,0-0.3-0.1-0.4-0.1c-0.1,0-0.2-0.1-0.2-0.1c-0.3-0.3-0.6-0.6-0.8-0.9
			c0-0.1,0-0.2,0-0.2c-0.1-0.1-0.1-0.1-0.2-0.2c-0.1-0.1-0.1-0.1-0.1-0.2c-0.1-0.1-0.1-0.2-0.2-0.3c0,0,0,0,0,0c0,0,0,0,0,0
			c0,0,0,0,0,0c-0.1-0.1-0.1-0.1-0.2-0.2c0,0-0.1-0.1-0.1-0.1c0,0,0,0,0,0c0,0,0,0,0,0c0-0.1-0.1-0.1-0.1-0.2c0,0-0.1-0.1-0.1-0.1
			c0,0,0,0,0,0c0,0-0.1,0-0.1,0c0,0-0.1,0.1-0.1,0.1c0,0,0,0.1,0,0.1c0,0.1,0.1,0.1,0.1,0.2c0,0,0,0,0,0c0.1,0.1,0.1,0.1,0.2,0.2
			c0,0,0,0,0,0.1c0,0,0,0,0,0c0,0,0-0.1-0.1-0.1c0,0,0,0,0,0c0,0-0.1,0-0.1,0c0,0-0.1,0.1-0.1,0.1c0,0,0,0.1,0,0.1
			c0.2,0.2,0.3,0.4,0.5,0.6c0.1,0.2,0.3,0.4,0.4,0.6C11.2,108.5,11.3,108.5,11.4,108.5L11.4,108.5z M10.8,107.4
			c0.3,0.3,0.5,0.6,0.8,0.8c0,0-0.1,0-0.1-0.1c0,0,0,0-0.1,0c0,0,0,0,0,0c0,0,0,0,0,0c-0.1-0.2-0.2-0.3-0.3-0.5
			C11,107.6,10.9,107.5,10.8,107.4L10.8,107.4z"/>
		<path class="st2" d="M11.8,109.4c0.1-0.1,0.1-0.2,0-0.2c-0.1-0.1-0.2-0.2-0.3-0.3c-0.1-0.1-0.2-0.2-0.3-0.3c0,0-0.1,0-0.1,0
			c0,0-0.1,0-0.1,0c-0.1,0.1-0.1,0.2,0,0.2c0.1,0.1,0.2,0.2,0.3,0.3c0.1,0.1,0.2,0.2,0.3,0.3C11.7,109.5,11.8,109.5,11.8,109.4z"/>
		<path class="st2" d="M21.3,100c0,0-0.1,0-0.1,0c-0.8,0.3-1.6,0.5-2.4,0.8c0.1-0.1,0.2-0.3,0.1-0.4c-0.1-0.2-0.3-0.2-0.4-0.1
			c-0.3,0.1-0.5,0.3-0.8,0.4c-0.4,0.2-0.7,0.3-1.1,0.5c-0.1,0.1-0.3,0.1-0.4,0.2c0,0,0,0,0,0c-0.2,0-0.4,0-0.7,0c-0.1,0-0.2,0-0.3,0
			c-0.2,0-0.3,0-0.5,0c-0.3,0-0.5,0-0.8-0.1c-0.4,0-0.9-0.1-1.3-0.1c0,0-0.1,0-0.1,0c-0.3-0.2-0.6-0.4-0.9-0.7
			c-0.4-0.3-0.8-0.6-1.1-0.9c-0.4-0.3-0.8-0.7-1.2-1c-0.1-0.1-0.1-0.1-0.2-0.1c-0.1,0-0.2,0-0.2,0.1c-0.1,0.1-0.1,0.4,0,0.5
			c0.4,0.3,0.7,0.6,1.1,0.9c0.3,0.2,0.5,0.4,0.8,0.6c0,0,0,0-0.1,0c-0.2-0.1-0.4-0.2-0.6-0.4c0,0,0,0,0,0c-0.3-0.2-0.5-0.5-0.8-0.7
			c-0.1-0.1-0.3-0.3-0.4-0.4c-0.1-0.1-0.3-0.3-0.4-0.4c-0.1-0.1-0.2-0.1-0.2-0.1c-0.1,0-0.2,0-0.3,0.1c-0.1,0.1-0.1,0.4,0,0.5
			c0.2,0.2,0.3,0.4,0.5,0.5c0.2,0.2,0.4,0.4,0.6,0.6c0.2,0.2,0.4,0.3,0.5,0.5c0.2,0.2,0.4,0.3,0.7,0.5c0.1,0.1,0.2,0.1,0.2,0.2
			c0,0-0.1,0-0.1,0c0,0,0,0,0,0c-0.1-0.1-0.1-0.1-0.2-0.1c0,0,0,0,0,0c-0.1,0-0.2-0.1-0.3-0.1c-0.6-0.2-1.2-0.5-1.8-0.7
			c0,0-0.1,0-0.1,0c-0.1,0-0.2,0-0.2,0.1c-0.1,0.1-0.2,0.1-0.2,0.2c0,0.1,0,0.2,0,0.3c0.1,0.1,0.1,0.1,0.2,0.2
			c0.7,0.3,1.4,0.6,2,0.8c0.1,0,0.3,0.1,0.4,0.1c0.3,0.3,0.6,0.5,1,0.7c0.3,0.2,0.6,0.3,0.9,0.5c0.2,0.1,0.4,0.2,0.6,0.3
			c0.2,0.1,0.5,0.2,0.8,0.3c0.2,0,0.3-0.1,0.4-0.2c0,0,0,0,0,0c0.1,0,0.2,0,0.2,0c0.1,0,0.2-0.1,0.3-0.1c0.4,0.1,0.8,0.2,1.2,0.3
			c-0.1,0.1-0.3,0.1-0.4,0.2c-0.1,0-0.1,0.2-0.1,0.2c0.1,0.1,0.2,0.1,0.2,0.1c0.2-0.1,0.5-0.2,0.7-0.4c0.2,0.1,0.5,0.1,0.7,0.2
			c0.4,0.1,0.7,0.2,1.1,0.2c0.1,0,0.2,0,0.3,0c0.1-0.1,0.2-0.1,0.2-0.2c0.1-0.2-0.1-0.4-0.3-0.5c-0.3-0.1-0.6-0.1-0.9-0.2
			c0.7-0.3,1.3-0.6,2-1c0.1-0.1,0.2-0.1,0.3-0.2c0.1,0,0.1-0.2,0.1-0.2c0,0-0.1-0.1-0.1-0.1c0,0,0,0,0,0c0,0-0.1,0-0.1,0
			c-0.6,0.3-1.3,0.6-1.9,0.9c-0.2,0.1-0.5,0.2-0.7,0.4c0-0.1-0.1-0.1-0.2-0.1c-0.1,0-0.2,0-0.3-0.1c-0.1,0-0.2-0.1-0.3-0.1
			c0,0,0,0-0.1,0c0.6-0.2,1.3-0.4,1.9-0.7c1.1-0.4,2.2-0.8,3.2-1.3c0.2-0.1,0.4-0.2,0.6-0.2c0.1,0,0.1-0.1,0.2-0.2
			c0.1-0.1,0.1-0.2,0-0.4C21.7,100.1,21.5,99.9,21.3,100L21.3,100z"/>
		<path class="st2" d="M16.9,107.7c-0.8-0.3-1.6-0.6-2.3-0.9c-0.4-0.2-0.8-0.3-1.2-0.5c0,0,0,0-0.1,0c0.2-0.1,0.4-0.1,0.7-0.2
			c0.3-0.1,0.5-0.1,0.8-0.2c0.1,0,0.2-0.1,0.3-0.1c0.2,0.1,0.4,0.2,0.7,0.2c0.1,0,0.3-0.1,0.3-0.2c0-0.1,0-0.1,0-0.2
			c0-0.1-0.1-0.1-0.1-0.1c0.3-0.1,0.5-0.2,0.8-0.3c0.1,0,0.1,0,0.1-0.1c0,0,0-0.1,0-0.2c0-0.1-0.1-0.1-0.2-0.1c0,0,0,0-0.1,0
			c-0.4,0.2-0.9,0.3-1.3,0.4c-0.4-0.1-0.7-0.3-1-0.4c-0.2-0.1-0.4-0.2-0.7-0.3c0,0,0,0,0,0c0-0.1,0-0.2-0.1-0.2
			c-0.5-0.2-1.1-0.4-1.6-0.5c-0.5-0.2-1-0.4-1.5-0.6c-0.4-0.2-0.8-0.4-1.2-0.5c-0.1,0-0.1,0-0.2,0c0,0,0,0-0.1,0
			c-0.1,0-0.1,0.1-0.2,0.1c0,0.1-0.1,0.1,0,0.2c0,0.1,0.1,0.1,0.1,0.2c0.9,0.4,1.8,0.8,2.7,1.2c0.5,0.2,1.1,0.5,1.6,0.7
			c0.4,0.2,0.9,0.4,1.3,0.5c-0.5,0.1-1.1,0.3-1.6,0.4c0,0,0,0,0,0c0,0,0-0.1,0-0.1c0-0.1-0.1-0.1-0.1-0.1c-0.2-0.2-0.4-0.3-0.7-0.5
			c0,0,0,0,0,0c-0.6-0.5-1.2-0.9-1.8-1.4c-0.1,0-0.1-0.1-0.2-0.1c-0.1,0-0.1,0-0.2,0.1c0,0-0.1,0.1-0.1,0.2c0,0.1,0,0.1,0.1,0.2
			c0.1,0.1,0.2,0.2,0.3,0.2c-0.1,0-0.1,0.1-0.1,0.1c-0.1,0.1,0,0.2,0.1,0.3c0.5,0.3,1.1,0.7,1.6,1c0,0,0,0,0,0c0,0.1,0,0.1,0,0.2
			c0,0.1,0.1,0.1,0.1,0.2c0.6,0.3,1.3,0.5,1.9,0.8c0.1,0.1,0.2,0.1,0.3,0.2c0.5,0.3,0.9,0.6,1.4,0.9c0.1,0.1,0.2,0,0.3-0.1
			c0-0.1,0-0.1,0-0.2c0.1,0,0.1,0,0.2,0.1c0.3,0.1,0.5,0.2,0.8,0.3c0.1,0,0.3-0.1,0.3-0.2C17.1,107.9,17,107.7,16.9,107.7
			L16.9,107.7z"/>
		<path class="st2" d="M14.3,109.7c-0.8,0-1.7,0-2.5,0c-0.1,0-0.2,0.1-0.2,0.2s0.1,0.2,0.2,0.2c0.8,0,1.6,0,2.5,0
			c0.1,0,0.2-0.1,0.2-0.2S14.4,109.7,14.3,109.7L14.3,109.7z"/>
	</g>
</g>
</svg>
