<?xml version="1.0" encoding="utf-8"?>
<!-- Generator: Adobe Illustrator 27.1.1, SVG Export Plug-In . SVG Version: 6.00 Build 0)  -->
<svg version="1.1" id="Слой_1" xmlns="http://www.w3.org/2000/svg" xmlns:xlink="http://www.w3.org/1999/xlink" x="0px" y="0px"
	 viewBox="0 0 365.2 90.5" style="enable-background:new 0 0 365.2 90.5;" xml:space="preserve">
<style type="text/css">
	.st0{fill:none;stroke:#AAAAAA;stroke-linecap:round;stroke-linejoin:round;stroke-dasharray:4.01,4.01;}
	.st1{clip-path:url(#SVGID_00000057831086562390600680000010016005015320894364_);}
	.st2{fill:#AAAAAA;}
</style>
<path class="st0" d="M135.7,27c43.5-13.5,77.9-6,89.4,11.3c5.5,8.2,6.4,13.8,1.6,22.5c-7.6,13.7-28.7,8-28.3-9.8
	c0.7-33,52.1-49.1,74.8-50.4c41.8,0,69.6,12.4,91.2,39.3"/>
<g>
	<defs>
		
			<rect id="SVGID_1_" x="1.4" y="22.1" transform="matrix(0.998 -6.375306e-02 6.375306e-02 0.998 -3.4067 4.4432)" width="133" height="67"/>
	</defs>
	<clipPath id="SVGID_00000070800952702841206270000003252895696368130188_">
		<use xlink:href="#SVGID_1_"  style="overflow:visible;"/>
	</clipPath>
	<g style="clip-path:url(#SVGID_00000070800952702841206270000003252895696368130188_);">
		<path class="st2" d="M63.6,43.2c-3.5-3.7-8-6.5-12.1-9.4c-4.1-2.9-8.1-6.2-12.5-8.6c-0.3-0.2-0.5,0.3-0.3,0.5
			c3.9,3.3,8.5,6,12.8,8.9c4.1,2.8,8.2,5.6,12,8.8C63.6,43.5,63.7,43.3,63.6,43.2L63.6,43.2z"/>
		<path class="st2" d="M39.3,25.5c0.7-1.2,1.6-1.6,2.7-1.1c0.5,0.1,0.9,0.2,1.4,0.3c0.9,0.2,1.9,0.4,2.8,0.6c2,0.4,4,0.9,6,1.4
			c3.8,0.9,7.7,1.8,11.5,2.8c7.8,2,15.6,4.2,23.3,6.5c0.5,0.2,0.7-0.7,0.2-0.8c-10.1-3-20.4-5.7-30.7-8.1c-5-1.2-10.2-2.6-15.3-3.3
			c-1-0.1-3.7,0.5-2,1.9C39.2,25.8,39.4,25.6,39.3,25.5L39.3,25.5z"/>
		<path class="st2" d="M39.6,24.5c4.7,2.7,9.5,5.3,13.9,8.6c4.2,3.1,7.9,6.7,11.9,10c0.3,0.3,0.7-0.2,0.4-0.5
			c-3.7-3.9-8.3-7.2-12.8-10.3c-4.3-2.9-8.7-5.8-13.4-8C39.6,24.3,39.5,24.4,39.6,24.5L39.6,24.5z"/>
		<path class="st2" d="M51.2,34.5c-0.9-0.7-2.5,0.5-3.1,1.1c-0.1,0.1,0,0.2,0.1,0.2c1.7,0.1,3.5,0,5.1-0.7c0.2-0.1,0.1-0.3-0.1-0.3
			c-1.7,0.5-3.2,0.8-5,0.7l0.1,0.2c0.6-0.5,1.3-0.9,2-1C50.6,34.8,50.9,34.8,51.2,34.5C51.2,34.6,51.2,34.6,51.2,34.5L51.2,34.5z"/>
		<path class="st2" d="M55.5,36.9c-1.2,0.3-2.2,0.9-3,1.8c-0.1,0.1,0,0.2,0.1,0.2c1.2,0.2,3,0.5,4.1-0.3c0.1-0.1,0-0.2-0.1-0.2
			c-0.6,0-1.2,0.2-1.8,0.3c-0.7,0.1-1.4,0.1-2.1,0c0,0.1,0.1,0.2,0.1,0.2c0.7-0.9,1.7-1.5,2.8-1.8C55.7,37.1,55.6,36.9,55.5,36.9
			L55.5,36.9z"/>
		<path class="st2" d="M57.1,38.5c-0.6,0.2-1.3,0.2-1.9,0.3c-0.1,0-0.1,0.1,0,0.1c0.3,0.1,0.7,0,1,0C56.5,38.9,56.8,38.7,57.1,38.5
			C57.1,38.5,57.1,38.5,57.1,38.5z"/>
		<path class="st2" d="M56.8,38c-0.4,0.4-0.9,0.6-1.4,0.8c-0.1,0-0.1,0.1,0,0.2c0.7,0.2,1.2-0.3,1.5-0.9C56.9,38,56.8,37.9,56.8,38
			L56.8,38z"/>
		<path class="st2" d="M59.4,40.1c-1.2,0-2.2,0.8-2.8,1.8c-0.1,0.1,0,0.3,0.2,0.3c1.6,0.3,3.1,0,4.6-0.8c0.2-0.1,0-0.5-0.2-0.3
			c-1.3,0.7-2.8,0.9-4.3,0.7c0.1,0.1,0.1,0.2,0.2,0.3c0.6-1,1.4-1.5,2.4-1.9C59.5,40.1,59.5,40.1,59.4,40.1L59.4,40.1z"/>
		<path class="st2" d="M87.6,35.1c-10,2.9-19.8,6.7-29.5,10.3c-4.9,1.8-9.8,3.6-14.7,5.4c-4.6,1.7-9.4,3.1-13.7,5.4
			c-0.3,0.2,0,0.6,0.3,0.5c5-1.2,9.9-3.5,14.7-5.3c4.7-1.8,9.5-3.5,14.2-5.3c9.6-3.5,19.4-6.8,28.8-10.8
			C87.9,35.3,87.8,35,87.6,35.1L87.6,35.1z"/>
		<path class="st2" d="M32.1,55.5c-4.3,0.8-8.7,2.8-12.7,4.6c-3.6,1.7-8.3,3.6-10.8,6.8c-0.2,0.2,0.1,0.5,0.3,0.4
			c2-1,3.7-2.6,5.6-3.7c2-1.2,4.1-2.3,6.3-3.2c3.7-1.7,7.8-2.8,11.4-4.7C32.2,55.5,32.1,55.5,32.1,55.5z"/>
		<path class="st2" d="M9,67.1c0,1.2,1,1.5,2,1.5c2,0.1,5.1-0.2,6.8-1.3c0.2-0.1,0.1-0.4-0.1-0.4c-1.4,0-2.8,0.6-4.2,0.8
			C12.4,67.8,9.8,68.5,9,67.1C9.1,67.1,9,67.1,9,67.1z"/>
		<path class="st2" d="M30.4,61.5c-4,0.1-9,2-12.5,3.9c-0.3,0.2,0,0.6,0.3,0.5c2.1-0.7,4-1.6,6.1-2.3c2-0.7,4.2-1,6.2-1.8
			C30.6,61.7,30.6,61.5,30.4,61.5L30.4,61.5z"/>
		<path class="st2" d="M18.2,65.5c-1.8,2.3-3.4,4.8-5,7.3c-1.7,2.7-3.8,5.4-5,8.3c-0.1,0.3,0.3,0.7,0.5,0.4c1.8-2.3,3-5.1,4.6-7.5
			c1.7-2.7,3.5-5.4,5.1-8.2C18.5,65.5,18.3,65.4,18.2,65.5L18.2,65.5z"/>
		<path class="st2" d="M8.4,81.6c1.4-0.4,2.8-1.2,4.2-1.8c1.2-0.6,2.5-1,3.6-1.8c0.2-0.1,0-0.4-0.2-0.3c-1.4,0.4-2.8,1.3-4.1,1.9
			c-1.2,0.6-2.5,1.1-3.5,1.9C8.2,81.5,8.3,81.6,8.4,81.6z"/>
		<path class="st2" d="M15.7,77.8c2.8-2.1,5.2-5.2,7.5-7.8c2.4-2.6,5.3-5.2,7.1-8.2c0.1-0.1-0.1-0.3-0.3-0.2
			c-2.7,2.2-4.9,5.4-7.3,8.1C20.4,72.2,17.6,74.8,15.7,77.8C15.6,77.8,15.7,77.8,15.7,77.8z"/>
		<path class="st2" d="M30.3,61.7c-0.1,0.6-0.2,1.2-0.2,1.8c0,0.3,0.4,0.3,0.5,0c0.1-0.6,0.1-1.2,0.1-1.8
			C30.7,61.5,30.4,61.5,30.3,61.7L30.3,61.7z"/>
		<path class="st2" d="M30.6,63.3c-2.6,1.9-4.9,4.5-7.1,6.8c-2.5,2.5-5.2,5.1-7.3,7.9c-0.1,0.1,0.1,0.3,0.2,0.2
			c2.5-2.3,4.7-5,7.1-7.4C25.8,68.3,28.6,66,30.6,63.3C30.7,63.3,30.6,63.2,30.6,63.3L30.6,63.3z"/>
		<path class="st2" d="M8.5,81.7c0,0.1,0,0.1,0,0.2c0,0,0,0.1,0.1,0.1c1,0.5,2.7-0.7,3.6-1.1c1.7-0.9,3.3-1.8,4.9-3
			c0.3-0.2,0-0.7-0.3-0.5c-0.6,0.4-7.8,4.8-8,4.2C8.7,81.6,8.5,81.6,8.5,81.7L8.5,81.7z"/>
		<path class="st2" d="M79.7,38.1c4.2-0.8,8.4-2.7,12.3-4.3c4.1-1.7,8.3-3.6,12.5-5c8.6-3,17.9-4.1,26.8-1.9
			c0.4,0.1,0.6-0.5,0.1-0.7c-8.4-2.4-17.2-1.1-25.4,1.4c-4.6,1.4-9,3-13.5,4.9c-4.3,1.7-8.8,3.4-12.9,5.4
			C79.5,38,79.6,38.1,79.7,38.1L79.7,38.1z"/>
		<path class="st2" d="M130.6,26.3c1.3,0.3,1.9,1.9,1.5,3.1c-0.4,1.2-1.6,1.7-2.6,2.4c-0.1,0.1-0.1,0.3,0.1,0.2
			c1.5-0.3,3.1-1.7,3.2-3.3c0.1-0.6-0.2-1.4-0.5-1.9c-0.5-0.7-0.9-0.8-1.6-0.8C130.5,26.2,130.5,26.3,130.6,26.3z"/>
		<path class="st2" d="M28.1,66.6c6.4-0.4,13-1.8,19.3-3c6.1-1.1,12.4-2,18.3-3.8c0.4-0.1,0.3-0.9-0.2-0.8
			c-6.4,0.9-12.8,2.7-19.1,3.9C40.3,64.1,34,64.8,28,66.3C27.9,66.4,28,66.6,28.1,66.6L28.1,66.6z"/>
		<path class="st2" d="M102.5,42.5c-2.8-1-6.1-0.1-8.9,0.7c-3.8,1.1-7.5,2.5-11.1,4.1c-3.3,1.5-6.5,3.2-9.6,5.2
			c-2.5,1.6-5.2,3.5-6.4,6.3c-0.1,0.2,0.2,0.4,0.4,0.3c2.3-2.2,4.5-4.4,7.3-6.1c2.9-1.8,5.9-3.4,9-4.8c2.9-1.3,5.9-2.5,8.9-3.5
			c3.5-1.2,6.8-1.5,10.3-1.9C102.5,42.6,102.5,42.5,102.5,42.5L102.5,42.5z"/>
		<path class="st2" d="M68,56.8c-4.3,4.5-7.5,10.4-11.1,15.5c-3.7,5.2-7.4,10.4-11.1,15.5c-0.3,0.5,0.3,1.1,0.7,0.6
			c3.9-5.3,7.7-10.6,11.4-16C61.4,67.6,65.6,62.4,68,56.8C68.1,56.8,68,56.8,68,56.8L68,56.8z"/>
		<path class="st2" d="M46,88.7c0.3,0.3,0.2,0.4,0.5,0.6c0.4,0.2,0.9,0.3,1.4,0.4c0.9,0.1,1.7,0,2.4-0.6c0.1-0.1,0.1-0.3-0.1-0.3
			c-0.7,0.1-1.5,0.3-2.3,0.2c-0.4,0-0.7-0.2-1.1-0.3C46.6,88.7,46.2,88.7,46,88.7C46,88.6,46,88.7,46,88.7L46,88.7z"/>
		<path class="st2" d="M50.1,89.2c4.4-3.6,8.4-7.7,12.6-11.5c4.5-4,8.8-8.2,13.1-12.3c8-7.5,15.7-16,25.5-21.2
			c0.6-0.3,0-1.1-0.6-0.8c-9.6,4.9-17.1,12.9-24.7,20.3c-4.3,4.1-8.7,8.3-13,12.5c-4.4,4.3-9,8.4-13.1,13
			C49.9,89.1,50,89.3,50.1,89.2L50.1,89.2z"/>
		<path class="st2" d="M100.9,42.9c-0.5,0.4-0.9,0.7-1.4,1.1c-0.4,0.3-0.9,0.6-1.1,1c0,0.1,0,0.3,0.2,0.2c0.5-0.1,0.8-0.6,1.1-1
			C100.2,43.8,100.6,43.3,100.9,42.9C101,42.9,101,42.8,100.9,42.9z"/>
		<path class="st2" d="M101.2,42.6c-0.6,0.4-1.2,0.7-1.8,1.2c-0.5,0.4-1.1,0.8-1.5,1.3c-0.2,0.3,0.1,0.6,0.4,0.5
			c0.6-0.3,1-0.8,1.5-1.3C100.3,43.8,100.7,43.2,101.2,42.6C101.3,42.7,101.2,42.6,101.2,42.6L101.2,42.6z"/>
		<path class="st2" d="M101.9,42.9c-0.1,0-0.3,0-0.4,0.1c-0.1,0-0.2,0.1-0.3,0.2c-0.2,0.1-0.4,0.2-0.5,0.4c-0.2,0.2-0.6,0.4-0.6,0.8
			c0,0.1,0,0.1,0.1,0.1c0.4,0.1,0.7-0.2,0.9-0.4c0.2-0.1,0.3-0.3,0.5-0.4c0.1-0.1,0.2-0.1,0.2-0.2c0.1-0.1,0.1-0.3,0.2-0.4
			C102.1,43,102,42.9,101.9,42.9L101.9,42.9z"/>
		<path class="st2" d="M101.6,42.3c-0.3,0.2-0.6,0.4-0.8,0.7c-0.2,0.2-0.5,0.4-0.7,0.7c-0.1,0.1,0.1,0.3,0.2,0.2
			c0.3-0.1,0.5-0.4,0.7-0.6C101.3,42.9,101.5,42.7,101.6,42.3C101.8,42.4,101.7,42.3,101.6,42.3L101.6,42.3z"/>
		<path class="st2" d="M102.1,43c-4.8,3.1-9.2,7.3-13.6,11c-4.3,3.7-8.6,7.5-12.8,11.4c-4.3,3.9-8.6,7.9-12.7,12
			c-2.1,2-4.2,4.1-6.2,6.1c-1.4,1.4-5.9,7.4-8.1,5.6c-0.4-0.3-0.8,0.2-0.5,0.5c1.1,1.1,2.4,0.6,3.6-0.2c2.3-1.6,4.2-4.2,6.2-6.2
			c4.6-4.7,9.4-9.3,14.2-13.8c5-4.7,10.1-9.3,15.4-13.8c2.6-2.2,5.1-4.4,7.7-6.6c2.3-2,4.9-3.8,7.1-6
			C102.5,43.1,102.3,42.9,102.1,43L102.1,43z"/>
		<path class="st2" d="M58.9,70.5c-1-0.2-2.1-0.1-3.1,0.1c-0.6,0.1-1.7,0.2-2.1,0.7c-0.3,0.4,0,0.7,0.3,0.9c0.3,0.2,0.7,0.3,1,0.4
			c0.6,0.2,1.2,0.4,1.8,0.6c0.3,0.1,0.4-0.4,0.1-0.5c-0.5-0.2-1.1-0.3-1.6-0.5c-0.4-0.1-0.5-0.1-0.7-0.5c-0.2-0.5,0.1-0.4,0.6-0.5
			c1.2-0.3,2.5-0.2,3.7-0.4C59,70.8,59.1,70.5,58.9,70.5L58.9,70.5z"/>
		<path class="st2" d="M56,74c-1.3-0.4-2.7,0-3.9,0.7c-0.1,0.1-0.1,0.2,0,0.3c0.6,0.7,1.8,1.5,2.8,1.4c0.1,0,0.2-0.2,0-0.2
			c-0.4-0.2-0.9-0.3-1.3-0.5c-0.5-0.2-0.9-0.5-1.3-0.9c0,0.1,0,0.2,0,0.3c1.1-0.8,2.3-0.8,3.6-0.6C56.1,74.4,56.2,74.1,56,74L56,74z
			"/>
		<path class="st2" d="M16.9,61.2c-1.9-3.6-5.3-6.7-7.9-9.8c-2.5-2.9-4.8-6.3-7.8-8.7c-0.3-0.2-0.6,0.1-0.5,0.4
			c2.2,3.5,5.4,6.5,8.1,9.6c2.4,2.9,4.7,6.5,7.7,8.8C16.8,61.7,17,61.4,16.9,61.2L16.9,61.2z"/>
		<path class="st2" d="M0.6,42.6c0.9-0.1,1.6-0.6,2.4-1c1-0.5,2-1,2.9-1.7c0.3-0.2,0.1-0.7-0.3-0.6c-0.9,0.3-1.8,0.9-2.6,1.4
			c-0.8,0.5-1.8,0.9-2.4,1.7C0.4,42.4,0.5,42.6,0.6,42.6L0.6,42.6L0.6,42.6z"/>
		<path class="st2" d="M5.3,39.2c1.8,1.7,4.1,2.8,6,4.2c1.7,1.2,3.4,2.5,5.2,3.6c4.3,2.9,8.6,5.8,12.9,8.8c0.6,0.4,1.4-0.4,0.8-0.9
			c-3.9-2.8-8-5.5-12-8.1c-2.1-1.4-4.3-2.7-6.5-4c-2.1-1.3-4-2.9-6.3-3.9C5.3,38.9,5.1,39.1,5.3,39.2L5.3,39.2z"/>
		<path class="st2" d="M5.4,39.2C5.4,39.2,5.4,39.2,5.4,39.2c0.1,0.1,0.2,0.1,0.3,0.1c0.3,0,0.7,0,1,0c0.3,0,0.5,0,0.8-0.2
			c0.1-0.1,0.1-0.2,0-0.3c-0.2-0.1-0.5-0.1-0.8-0.1c-0.3,0-0.7,0-1,0.1c-0.1,0-0.2,0.1-0.2,0.2c0,0-0.1,0-0.1,0
			C5.3,39.1,5.3,39.2,5.4,39.2z"/>
		<path class="st2" d="M7.4,39.1c3.5,3,7.5,5.6,11.5,7.9c2.2,1.3,4.5,2.5,6.6,3.9c2.1,1.4,3.9,3,5.9,4.5c0.3,0.2,0.6-0.2,0.4-0.4
			c-3-3.2-7.1-5.5-10.9-7.6C16.1,45,11.9,42,7.4,39.1C7.4,39,7.4,39.1,7.4,39.1z"/>
		<path class="st2" d="M9.1,67.4c2.8,0,6.3,0.1,8.4-2.1c0.1-0.1,0-0.3-0.2-0.3c-2.8,0.4-5.3,1.9-8.2,2C8.9,67.1,8.9,67.4,9.1,67.4
			L9.1,67.4z"/>
		<path class="st2" d="M31.4,61.9c1.8-0.3,3.4-1,5-1.7c1.7-0.6,3.4-1.1,5-1.9c0.1-0.1,0.1-0.3-0.1-0.3
			C38.1,58.4,34.1,59.9,31.4,61.9C31.4,61.9,31.4,61.9,31.4,61.9L31.4,61.9z"/>
		<path class="st2" d="M43.1,57.4c2-0.4,4.1-1.3,6-2c0,0,0-0.1,0-0.1C47,55.8,44.9,56.4,43.1,57.4C43,57.4,43,57.4,43.1,57.4
			L43.1,57.4z"/>
		<path class="st2" d="M40.4,58.5c0.9-0.1,1.7-0.4,2.5-0.7c0.8-0.3,1.7-0.4,2.4-0.9c0.1-0.1,0.1-0.3-0.1-0.3c-0.8,0-1.6,0.4-2.3,0.6
			c-0.9,0.3-1.7,0.5-2.6,0.9C40.1,58.3,40.1,58.6,40.4,58.5L40.4,58.5z"/>
		<path class="st2" d="M99.9,45.5c3.4-0.9,6.6-2.6,9.8-3.9c3.1-1.3,6.2-2.6,9.3-3.9c2.9-1.3,5.9-2.4,8.9-3.8
			c1.9-0.9,3.5-1.9,4.6-3.7c0.2-0.3-0.3-0.6-0.5-0.3c-1.8,2.6-4.7,3.6-7.4,4.8c-2.8,1.2-5.6,2.4-8.4,3.6c-5.4,2.3-11.3,4.2-16.3,7.2
			C99.8,45.4,99.8,45.5,99.9,45.5L99.9,45.5z"/>
		<path class="st2" d="M131.8,29.7c-2.7,3.4-7.9,4.6-11.6,6.6c-0.1,0.1,0,0.2,0.1,0.2c2.8-1.1,5.5-2.5,8.2-3.8
			c1.5-0.7,2.8-1.4,3.5-2.9C132,29.7,131.9,29.6,131.8,29.7z"/>
		<path class="st2" d="M101.4,42.8c5.2-1,10.4-3.7,15.2-6c4.6-2.2,9.4-4.4,13.6-7.3c0.1-0.1,0-0.2-0.1-0.1
			c-4.8,2.5-9.5,5.3-14.4,7.6c-4.7,2.1-9.7,3.5-14.3,5.7C101.3,42.7,101.4,42.8,101.4,42.8z"/>
		<path class="st2" d="M1.9,41.8c3.1,5.3,10.5,7.7,16.2,6.2c0.3-0.1,0.1-0.5-0.1-0.4C11.5,49,6.2,46.6,1.9,41.8
			C1.9,41.8,1.9,41.8,1.9,41.8L1.9,41.8z"/>
		<path class="st2" d="M2.7,41.1c2.9,2.3,7.1,5.1,11,3.9c0.1,0,0.1-0.2,0-0.2c-2.3,0-4.3-0.2-6.4-1.2c-1.6-0.8-3-1.8-4.4-2.8
			C2.7,40.8,2.6,41,2.7,41.1z"/>
		<path class="st2" d="M7.4,49.5c4.4,2.5,9.9,2.7,14.7,1.1c0.3-0.1,0.1-0.5-0.2-0.4C17,51.8,12.3,51.3,7.4,49.5
			C7.4,49.4,7.4,49.5,7.4,49.5L7.4,49.5z"/>
		<path class="st2" d="M9.1,51.5c1.7,2.3,4.6,3,7.3,2.8c2.4-0.2,6.3-0.7,7.7-3.1c0.2-0.3-0.3-0.5-0.4-0.2C22.5,53,18,53.7,16,53.8
			C13.4,53.9,11.2,53.1,9.1,51.5C9.2,51.4,9.1,51.4,9.1,51.5L9.1,51.5z"/>
		<path class="st2" d="M11,77.1c4.6-1,10.3-7.2,9.2-12.2c-0.1-0.2-0.4-0.1-0.4,0.1c1.1,5.3-4.8,10.1-8.9,12
			C10.9,77,10.9,77.1,11,77.1L11,77.1z"/>
		<path class="st2" d="M22.9,64c0,3.6-1.5,7.1-4,9.7c-1,1-2.1,2-3.3,2.7c-1,0.6-4.6,2.8-5.7,1.7c-0.1-0.1-0.2,0-0.2,0.1
			c1.2,2.4,7.3-2.3,8.4-3.3C20.8,72.4,24,67.9,22.9,64C23,63.9,22.9,63.9,22.9,64L22.9,64z"/>
		<path class="st2" d="M25.6,63.3c-0.2,2.3-0.8,4.3-2.3,6.1c0,0,0,0.1,0,0c1.6-1.5,2.8-3.8,2.6-6.1C25.9,63.1,25.7,63.1,25.6,63.3z"
			/>
		<path class="st2" d="M66.4,29.8c0.9-0.2,1.7-0.5,2.5-0.8c0.9-0.3,2-0.5,2.9-0.9c0.1,0,0.1-0.2,0-0.2c-0.9,0-1.9,0.4-2.7,0.7
			C68.1,28.9,67.1,29.2,66.4,29.8C66.3,29.7,66.3,29.8,66.4,29.8z"/>
		<path class="st2" d="M71.4,28c0.2,0.1,0.4,0.3,0.6,0.4c0.2,0.1,0.3,0.3,0.5,0.4c0.2,0.2,0.3,0.4,0.4,0.6c0.1,0.1,0.1,0.3,0.3,0.4
			c0,0,0.1,0,0.1,0c0.2-0.4-0.3-0.9-0.6-1.1c-0.2-0.2-0.4-0.3-0.6-0.5c-0.3-0.1-0.5-0.2-0.7-0.2C71.4,27.8,71.4,27.9,71.4,28
			L71.4,28z"/>
		<path class="st2" d="M73.3,29.6C73.3,29.6,73.3,29.6,73.3,29.6C73.3,29.6,73.3,29.6,73.3,29.6z"/>
		<path class="st2" d="M73.1,29.6c0,0.3-0.1,0.7,0,1c0,0,0.1,0,0.1,0c0.1-0.3,0.1-0.7,0.1-1C73.2,29.5,73.1,29.5,73.1,29.6
			L73.1,29.6z"/>
		<path class="st2" d="M72.9,28.9c0,0.3,0.1,0.7,0.1,1c0.1,0.3,0.1,0.5,0.2,0.8c0,0.1,0.1,0,0.1,0c0-0.3,0-0.5-0.1-0.8
			c-0.1-0.3-0.2-0.6-0.3-1C73.1,28.8,72.9,28.8,72.9,28.9z"/>
		<path class="st2" d="M72.2,28.7c0.3,0.3,0.6,0.6,0.7,1.1c0.1,0.4,0,0.7,0.1,1.1c0,0.1,0.1,0.1,0.1,0c0.4-0.3,0.3-0.9,0.2-1.3
			c-0.2-0.5-0.5-0.9-1-1.1C72.2,28.5,72.1,28.6,72.2,28.7z"/>
		<path class="st2" d="M72.1,28.8c0.3,0.2,0.5,0.5,0.6,0.8c0.1,0.2,0.1,0.6,0.3,0.8c0,0,0.1,0,0.1,0c0.2-0.3,0-0.7-0.2-1
			c-0.2-0.3-0.4-0.6-0.8-0.8C72.1,28.5,72,28.7,72.1,28.8L72.1,28.8z"/>
		<path class="st2" d="M73.1,30.9c-0.3,0.1-0.7,0.1-1,0.3c-0.1,0.1,0,0.2,0.1,0.2c0.3,0,0.7-0.2,1-0.3
			C73.3,31.1,73.2,30.9,73.1,30.9L73.1,30.9z"/>
		<path class="st2" d="M73.7,32.1c0.9-0.5,1.9-0.8,2.9-1.1c0.1,0,0.1-0.3,0-0.2c-1,0.1-2.1,0.6-2.9,1.2C73.5,32,73.6,32.1,73.7,32.1
			L73.7,32.1z"/>
		<path class="st2" d="M76.8,30.8c1,0.2,1.8,0.7,2.4,1.5c0.2,0.3,0.6,0,0.5-0.3c-0.5-1-1.7-1.6-2.9-1.5
			C76.6,30.5,76.6,30.8,76.8,30.8L76.8,30.8z"/>
		<path class="st2" d="M79.5,32.6c-0.1,0.4-0.3,0.6-0.6,0.8c0,0,0,0.1,0,0.1c0.4-0.1,0.7-0.5,0.7-0.9C79.7,32.5,79.5,32.5,79.5,32.6
			z"/>
		<path class="st2" d="M79.3,33c0.1-0.2,0.2-0.4,0.2-0.6c0,0-0.1-0.1-0.1,0c-0.2,0.1-0.2,0.3-0.3,0.5C79,33,79.2,33.2,79.3,33z"/>
		<path class="st2" d="M67.5,74.9c0.7,0,1.6,0,2.2-0.2c0.1,0,0.1-0.2,0-0.2c-0.7-0.2-1.5,0-2.2,0.1C67.3,74.6,67.3,75,67.5,74.9z"/>
		<path class="st2" d="M66.5,74.9c0.4,0,0.8,0,1.3,0c0.4,0,0.9,0,1.3-0.2c0.1-0.1,0.1-0.2,0-0.2c-0.4-0.1-0.9,0-1.3,0
			c-0.4,0-0.8,0.1-1.2,0.2C66.4,74.7,66.4,74.9,66.5,74.9z"/>
		<path class="st2" d="M69.5,72.3c-0.4,0.4-0.8,0.8-1.1,1.2c-0.3,0.3-0.6,0.7-0.8,1.1c0,0.1,0.1,0.1,0.1,0.1c0.4-0.2,0.7-0.7,1-1.1
			c0.3-0.4,0.6-0.8,0.9-1.2C69.7,72.3,69.5,72.2,69.5,72.3L69.5,72.3z"/>
		<path class="st2" d="M69.6,73.1c-0.3,0.2-0.5,0.4-0.7,0.6c-0.2,0.2-0.4,0.5-0.3,0.7c0,0,0.1,0.1,0.1,0c0.2-0.1,0.3-0.4,0.4-0.6
			c0.2-0.2,0.4-0.4,0.6-0.6C69.8,73.2,69.7,73,69.6,73.1L69.6,73.1z"/>
		<path class="st2" d="M69.1,74.4c2.7,3.4,8.6,1.7,11.8,0c0.2-0.1,0-0.4-0.2-0.4c-2.1,0.6-3.9,1.5-6.1,1.7c-2.1,0.1-3.5-0.5-5.3-1.4
			C69.2,74.3,69.1,74.4,69.1,74.4L69.1,74.4z"/>
		<path class="st2" d="M80.6,74.4c0.6-1.4,1.1-3.3,0.5-4.8c0-0.1-0.2-0.1-0.2,0c-0.2,1.6,0,3.2-0.4,4.7
			C80.5,74.5,80.6,74.5,80.6,74.4L80.6,74.4z"/>
		<path class="st2" d="M80.8,69c-2.2-1.2-5.9-1.4-8,0c-0.1,0.1-0.1,0.3,0.1,0.3c1.2-0.1,2.4-0.5,3.7-0.6c1.4-0.1,2.8,0.2,4.2,0.4
			C80.9,69.1,80.9,69,80.8,69L80.8,69z"/>
		<path class="st2" d="M80,69.1c0.1,0.2,0.1,0.6,0.4,0.8c0.1,0,0.2,0,0.2-0.1c0-0.3-0.2-0.6-0.3-0.8C80.2,68.8,80,68.9,80,69.1
			L80,69.1z"/>
		<path class="st2" d="M72.9,69.2c-0.6,0.4-1.2,0.9-1.7,1.4c-0.5,0.4-1,0.8-1.3,1.3c-0.1,0.1,0.1,0.3,0.2,0.2c0.5-0.3,1-0.9,1.4-1.3
			C72,70.4,72.5,69.8,72.9,69.2C72.9,69.3,72.9,69.2,72.9,69.2L72.9,69.2z"/>
		<path class="st2" d="M73.8,68.8c-0.5,0.4-1,0.9-1.5,1.4c-0.5,0.5-1.1,1-1.6,1.6c-0.1,0.1,0,0.3,0.2,0.2c0.5-0.4,1-0.9,1.4-1.4
			c0.5-0.5,1.1-1,1.5-1.6C73.9,68.9,73.8,68.8,73.8,68.8L73.8,68.8z"/>
		<path class="st2" d="M74.5,68.8c-0.9,0.8-1.9,1.5-2.7,2.3c-0.1,0.1,0.1,0.4,0.2,0.3c0.9-0.7,1.7-1.6,2.6-2.4
			C74.7,68.9,74.6,68.7,74.5,68.8L74.5,68.8z"/>
		<path class="st2" d="M74.9,68.7c-0.4,0.5-0.7,0.9-1.2,1.3c-0.4,0.4-0.9,0.7-1.2,1.1c-0.1,0.1,0.1,0.2,0.2,0.2
			c0.5-0.1,0.9-0.6,1.2-1c0.4-0.4,0.8-0.9,1.1-1.4C75.2,68.8,75,68.6,74.9,68.7L74.9,68.7z"/>
		<path class="st2" d="M80,68.6c-1.9-0.7-4.7-0.4-6.5,0.5c-0.1,0.1,0,0.3,0.1,0.3c1.1,0,2.3-0.3,3.4-0.4C78,68.9,79,68.9,80,68.6
			C80,68.7,80,68.6,80,68.6L80,68.6z"/>
		<path class="st2" d="M69.1,73.9c2.8,2.1,8.4,2.4,11.2,0.1c0.1-0.1,0.1-0.4-0.1-0.4c-1.8,0.3-3.4,1-5.2,1c-2.1,0-3.8-0.6-5.8-1.1
			C69.1,73.6,69,73.8,69.1,73.9L69.1,73.9z"/>
		<path class="st2" d="M80.7,73c-0.2,0.1-0.5,0.1-0.7,0.2c-0.2,0.1-0.4,0.2-0.5,0.4c-0.1,0.1,0,0.2,0.1,0.2c0.2,0,0.4-0.1,0.6-0.2
			c0.2-0.1,0.4-0.3,0.6-0.4C80.9,73.1,80.8,73,80.7,73L80.7,73z"/>
		<path class="st2" d="M79.5,62.2c0.8,0.5,2.6,0.6,3.4-0.1c0.1-0.1,0-0.2-0.1-0.3c-0.5,0-1.1,0.2-1.6,0.2c-0.5,0-1.1-0.1-1.6-0.1
			C79.4,61.9,79.4,62.1,79.5,62.2L79.5,62.2z"/>
		<path class="st2" d="M82.9,62.1c2.9,1.6,7.7,0.5,10.4-1.3c0.1-0.1,0-0.2-0.1-0.2c-1.4,0.2-2.8,0.8-4.2,1.2
			c-2.1,0.5-3.9,0.4-6.1,0.1C82.9,61.9,82.8,62.1,82.9,62.1L82.9,62.1z"/>
		<path class="st2" d="M93.5,60.9c0.8-1.6,0.4-4.3-0.8-5.6c-0.1-0.1-0.2,0-0.2,0.1c0,0.8,0.4,1.5,0.6,2.3c0.3,1.1,0.3,2.1,0.1,3.2
			C93.2,60.9,93.4,61,93.5,60.9L93.5,60.9z"/>
		<path class="st2" d="M93,55.8c0.7,1.6,0.7,3.1,0,4.8c-0.1,0.3,0.3,0.5,0.4,0.2c0.9-1.6,0.8-3.7-0.1-5.2
			C93.3,55.4,92.9,55.6,93,55.8L93,55.8z"/>
		<path class="st2" d="M92.4,55.2c-1.4-0.6-3.9-0.6-5.2,0.4c-0.1,0.1,0,0.2,0.1,0.2c0.9-0.1,1.6-0.5,2.5-0.6
			C90.6,55.1,91.5,55.2,92.4,55.2C92.4,55.3,92.4,55.2,92.4,55.2z"/>
		<path class="st2" d="M87.9,55.3c-1.1,0.7-2.1,1.6-3.1,2.5c-0.9,0.7-1.8,1.5-2.6,2.3c-0.1,0.1,0,0.1,0.1,0.1c1.1-0.7,2.1-1.6,3-2.5
			C86.3,57,87.2,56.2,87.9,55.3C88,55.3,88,55.3,87.9,55.3z"/>
		<path class="st2" d="M88.7,55.1c-2.2,1.8-4.3,3.8-6.3,5.8c-0.1,0.1,0,0.2,0.1,0.1c2.2-1.9,4.4-3.8,6.3-5.8
			C88.9,55.1,88.8,55,88.7,55.1L88.7,55.1z"/>
		<path class="st2" d="M88.9,55.6c-1.9,1.1-4.2,3.1-5.2,5c0,0.1,0.1,0.1,0.1,0.1c0.9-0.8,1.6-1.8,2.4-2.7
			C87.1,57.2,88,56.5,88.9,55.6C89,55.6,88.9,55.6,88.9,55.6z"/>
		<path class="st2" d="M88.7,56c-0.5,0.6-1,1.2-1.6,1.8c-0.5,0.6-1.2,1-1.7,1.6c-0.1,0.1,0,0.2,0.1,0.2c1.3-0.7,2.5-2.2,3.3-3.4
			C88.9,56,88.8,55.9,88.7,56L88.7,56z"/>
		<path class="st2" d="M89.4,55.4c-0.5,0.2-0.9,0.4-1.3,0.7c-0.3,0.3-0.7,0.6-0.8,1c0,0.1,0.1,0.1,0.2,0.1c0.4-0.2,0.6-0.6,1-0.9
			c0.3-0.3,0.7-0.6,1.1-0.8C89.6,55.5,89.5,55.4,89.4,55.4L89.4,55.4z"/>
		<path class="st2" d="M89.6,55.4c-0.2,0.2-0.5,0.5-0.7,0.7c-0.2,0.2-0.5,0.4-0.6,0.7c0,0.1,0,0.1,0.1,0.1c0.3-0.1,0.5-0.4,0.7-0.6
			c0.3-0.2,0.5-0.5,0.8-0.7C89.9,55.5,89.7,55.3,89.6,55.4z"/>
		<path class="st2" d="M91.9,55.2c-1.2,0.1-2.7,0.3-3.7,1c-0.1,0.1-0.1,0.3,0.1,0.3c0.6-0.1,1.1-0.4,1.7-0.5
			c0.6-0.2,1.3-0.4,1.9-0.6C92,55.4,92,55.2,91.9,55.2L91.9,55.2z"/>
		<path class="st2" d="M93.4,55.7c-1.1-0.9-3.2-1.6-4.5-1.1c-0.2,0.1-0.1,0.3,0,0.3c0.7,0.2,1.5,0.2,2.2,0.4
			c0.7,0.2,1.4,0.5,2.1,0.7C93.4,56.1,93.5,55.9,93.4,55.7L93.4,55.7z"/>
		<path class="st2" d="M92,56.2c0.2,0.9,0.5,1.7,0.4,2.6c-0.1,0.9-0.5,1.5-0.9,2.3c0,0.1,0.1,0.2,0.1,0.1c1.4-1,1.7-3.8,0.6-5.1
			C92.1,56,92,56.1,92,56.2L92,56.2z"/>
		<path class="st2" d="M93.4,59.5c-0.2,0.3-0.5,0.5-0.8,0.7c-0.2,0.2-0.5,0.5-0.7,0.8c-0.2,0.2,0.1,0.4,0.3,0.3
			c0.2-0.3,0.5-0.5,0.7-0.8C93.1,60.1,93.3,59.8,93.4,59.5C93.5,59.5,93.5,59.5,93.4,59.5L93.4,59.5z"/>
		<path class="st2" d="M92.3,60.8c-0.3,0.1-0.7,0.2-1,0.4c-0.3,0.1-0.6,0.2-0.8,0.5c-0.1,0.1,0,0.3,0.1,0.2c0.3,0,0.6-0.2,0.8-0.4
			C91.7,61.3,92,61.1,92.3,60.8C92.3,60.8,92.3,60.7,92.3,60.8z"/>
		<path class="st2" d="M91.9,60.2c-0.5,0.2-1,0.3-1.4,0.7c-0.1,0.1,0,0.2,0.1,0.2c0.5-0.1,1-0.4,1.5-0.6
			C92.2,60.4,92.1,60.1,91.9,60.2L91.9,60.2z"/>
		<path class="st2" d="M85,60c-0.3,0.3-0.6,0.5-0.9,0.8c-0.3,0.3-0.5,0.5-0.7,0.8c-0.1,0.1,0.1,0.2,0.2,0.1c0.3-0.2,0.5-0.5,0.8-0.8
			c0.3-0.3,0.5-0.6,0.8-0.9C85.2,60,85.1,59.9,85,60L85,60z"/>
		<path class="st2" d="M86,59.9c-0.3,0.3-0.7,0.6-1,1c-0.3,0.3-0.7,0.6-0.8,1c0,0.1,0,0.1,0.1,0.1c0.4-0.2,0.6-0.6,0.9-0.8
			c0.3-0.4,0.6-0.7,0.9-1.1C86.2,59.9,86.1,59.8,86,59.9L86,59.9z"/>
		<path class="st2" d="M86.5,60.3c-0.3,0.3-0.6,0.6-0.9,0.9c-0.2,0.2-0.6,0.5-0.7,0.8c0,0.1,0.1,0.1,0.1,0.1
			c0.3-0.1,0.5-0.5,0.8-0.7c0.3-0.3,0.5-0.6,0.8-1C86.7,60.4,86.6,60.3,86.5,60.3L86.5,60.3z"/>
		<path class="st2" d="M87.3,60.3c-0.2,0.2-0.4,0.4-0.6,0.7c-0.2,0.2-0.3,0.4-0.4,0.6c0,0.1,0.1,0.1,0.1,0.1
			c0.4-0.3,0.7-0.9,0.9-1.3C87.4,60.3,87.3,60.3,87.3,60.3L87.3,60.3z"/>
		<path class="st2" d="M87.9,60.5c-0.2,0.3-0.4,0.5-0.6,0.8c-0.2,0.2-0.4,0.5-0.5,0.8c0,0.1,0.1,0.2,0.1,0.1
			c0.3-0.2,0.4-0.4,0.6-0.7c0.2-0.3,0.4-0.5,0.6-0.8C88.2,60.5,88,60.3,87.9,60.5z"/>
		<path class="st2" d="M88.2,60.8c0,0.3-0.1,0.6-0.3,0.8c-0.1,0.1-0.2,0.2-0.3,0.2c-0.1,0.1-0.2,0.1-0.3,0.2c0,0.1,0,0.1,0,0.2
			c0.3,0.1,0.6-0.2,0.8-0.4c0.2-0.3,0.3-0.6,0.3-1C88.4,60.6,88.2,60.7,88.2,60.8L88.2,60.8z"/>
		<path class="st2" d="M89.2,61.2c0,0.2-0.1,0.4-0.3,0.5c-0.1,0.1-0.3,0.1-0.3,0.3c0,0,0,0.1,0,0.1c0.2,0.1,0.4,0,0.6-0.2
			c0.2-0.2,0.3-0.4,0.4-0.6C89.6,61.1,89.2,61,89.2,61.2L89.2,61.2z"/>
		<path class="st2" d="M91.8,60.2c-1.7,0.2-3.7,0.6-5.4,1.2c-0.1,0-0.1,0.2,0,0.2c1.7-0.2,3.7-0.7,5.4-1.3
			C91.8,60.2,91.8,60.1,91.8,60.2L91.8,60.2z"/>
		<path class="st2" d="M70.4,73.1c2.9,1.8,7,1.5,9.9-0.1c0.1,0,0-0.2-0.1-0.1C76.8,74.5,73.9,74.2,70.4,73.1
			C70.4,73,70.3,73.1,70.4,73.1z"/>
		<path class="st2" d="M70,55.7c-2,1.6-4.1,3.6-5.1,6c0,0.1,0.1,0.1,0.1,0.1c0.8-1,1.4-2.1,2.2-3.1C68,57.7,69,56.7,70,55.7
			C70.1,55.8,70,55.7,70,55.7L70,55.7z"/>
		<path class="st2" d="M70.9,55.4c-1.7,1.8-3.4,3.6-4.9,5.5c0,0.1,0,0.1,0.1,0.1C67.8,59.2,69.4,57.3,70.9,55.4
			C70.9,55.4,70.9,55.4,70.9,55.4L70.9,55.4z"/>
		<path class="st2" d="M72,55c-1.6,1.2-3.5,2.7-4.2,4.6c0,0.1,0.1,0.1,0.1,0.1c0.6-0.8,1.1-1.6,1.8-2.4C70.4,56.5,71.2,55.7,72,55
			C72.1,55,72,54.9,72,55L72,55z"/>
		<path class="st2" d="M72.4,55.1c-1.2,1.1-2.6,2.3-3.5,3.7c0,0.1,0,0.1,0.1,0.1C70.3,57.9,71.4,56.4,72.4,55.1
			C72.5,55.1,72.4,55.1,72.4,55.1L72.4,55.1z"/>
		<path class="st2" d="M72.7,55.4c-0.5,0.5-0.9,1.1-1.4,1.6c-0.4,0.5-0.9,1-1.1,1.5c0,0.1,0,0.1,0.1,0.1c0.5-0.4,0.9-0.9,1.2-1.4
			C71.9,56.6,72.3,56,72.7,55.4C72.8,55.4,72.7,55.3,72.7,55.4L72.7,55.4z"/>
		<path class="st2" d="M79.1,51c-2.7,1.1-5.8,2.6-7.9,4.7c-0.1,0.1,0,0.1,0.1,0.1C73.9,54.2,76.3,52.4,79.1,51
			C79.1,51,79.1,51,79.1,51L79.1,51z"/>
		<path class="st2" d="M82.6,49c-3,1-5.9,2.6-8.4,4.6c-0.1,0.1,0,0.2,0.1,0.1C77,52,79.8,50.5,82.6,49C82.6,49,82.6,49,82.6,49
			L82.6,49z"/>
		<path class="st2" d="M81.9,49.8c-2.7,1.1-5.7,2.5-7.9,4.4c0,0,0,0.1,0.1,0.1C76.8,52.9,79.3,51.2,81.9,49.8
			C82,49.8,82,49.7,81.9,49.8L81.9,49.8z"/>
		<path class="st2" d="M80.8,51.3c-2.9,1-5.8,2.4-8.1,4.4c-0.1,0.1,0,0.3,0.1,0.2C75.4,54.2,77.9,52.6,80.8,51.3
			C80.9,51.4,80.9,51.3,80.8,51.3L80.8,51.3z"/>
		<path class="st2" d="M80.1,52.6c-2.6,0.8-5.5,2-7.4,3.9c0,0,0,0.1,0.1,0.1C75.3,55.3,77.5,53.8,80.1,52.6
			C80.2,52.6,80.2,52.6,80.1,52.6L80.1,52.6z"/>
		<path class="st2" d="M90.8,45.1c-3.3,1.5-6.7,3-9.9,4.7c-0.1,0.1,0,0.2,0.1,0.2C84.4,48.7,87.8,47,90.8,45.1
			C90.8,45.1,90.8,45,90.8,45.1z"/>
		<path class="st2" d="M93.9,44.3c-2.5,0.8-5,1.7-7.2,3.1c-0.1,0.1,0,0.2,0.1,0.2c2.4-1,4.8-2.2,7.2-3.2C94,44.4,94,44.3,93.9,44.3
			L93.9,44.3z"/>
		<path class="st2" d="M68.4,58.6c-1.6,1.9-3.2,3.9-4.7,5.9c-1.4,1.8-2.9,3.5-4.1,5.4c-0.1,0.1,0.1,0.2,0.1,0.1
			c3.4-3.2,6.2-7.5,8.8-11.3C68.6,58.6,68.5,58.5,68.4,58.6L68.4,58.6z"/>
		<path class="st2" d="M68.3,59.6c-2.7,3.1-5.7,6.3-7.9,9.8c0,0.1,0.1,0.1,0.1,0.1C63.5,66.6,65.9,63,68.3,59.6
			C68.4,59.6,68.3,59.6,68.3,59.6L68.3,59.6z"/>
		<path class="st2" d="M67.1,62c-2,2.1-4,4.3-5.6,6.7c-0.1,0.1,0.1,0.2,0.2,0.1C63.7,66.8,65.5,64.4,67.1,62
			C67.2,62.1,67.1,62,67.1,62z"/>
		<path class="st2" d="M60.2,70.1C56.6,77,50,81.6,46.3,88.4c-0.1,0.2,0.2,0.3,0.2,0.1C50.5,81.9,56.8,77.1,60.2,70.1
			C60.2,70.1,60.2,70.1,60.2,70.1z"/>
		<path class="st2" d="M53.3,80.6c-2.4,2.2-5.2,4.9-6.5,7.9c0,0.1,0.1,0.2,0.1,0.1c1.1-1.2,2-2.8,3.1-4.1c1.1-1.3,2.2-2.6,3.4-3.8
			C53.5,80.6,53.4,80.5,53.3,80.6z"/>
		<path class="st2" d="M52.9,81.6c-1.7,2.1-3.5,4.1-5,6.3C47.9,88,48,88,48,88C49.9,86.1,51.4,83.8,52.9,81.6
			C53,81.6,52.9,81.6,52.9,81.6L52.9,81.6z"/>
		<path class="st2" d="M59,72.3c-1.1,1.7-2.3,3.4-3.5,5.1c0,0.1,0.1,0.1,0.1,0.1C56.9,75.9,58,74.1,59,72.3
			C59.1,72.3,59,72.3,59,72.3L59,72.3z"/>
		<path class="st2" d="M32.6,61.1c-0.8,1.3-1.9,2.9-2.5,4.3c0,0.1,0.1,0.2,0.1,0.1c1-1.3,1.8-2.9,2.5-4.3
			C32.8,61.1,32.6,61,32.6,61.1L32.6,61.1z"/>
		<path class="st2" d="M34.3,61c-0.7,0.7-1.2,1.5-1.6,2.3c-0.4,0.8-1,1.7-1.1,2.6c0,0.1,0.1,0.1,0.1,0.1c0.5-0.7,0.7-1.6,1.1-2.4
			c0.5-0.9,1-1.7,1.6-2.5C34.5,61,34.4,60.9,34.3,61L34.3,61z"/>
		<path class="st2" d="M36.7,59.9c-1.2,1.7-2.5,3.6-3.2,5.6c0,0.1,0.1,0.1,0.1,0C34.8,63.7,35.7,61.7,36.7,59.9
			C36.9,59.9,36.8,59.8,36.7,59.9z"/>
		<path class="st2" d="M38.4,59.5c-1.1,1.7-2.2,3.4-3.1,5.2c0,0.1,0.1,0.1,0.1,0.1c1.2-1.6,2.2-3.4,3.3-5.1
			C38.7,59.4,38.5,59.3,38.4,59.5z"/>
		<path class="st2" d="M39.8,59.1c-0.8,1.2-1.7,2.4-2.4,3.7c0,0.1,0.1,0.1,0.1,0.1c0.9-1.1,1.7-2.4,2.4-3.7
			C40,59.1,39.8,59,39.8,59.1L39.8,59.1z"/>
		<path class="st2" d="M41.3,58.3c-0.7,1-1.4,2.1-1.9,3.3c0,0.1,0.1,0.1,0.1,0C40.2,60.6,40.7,59.4,41.3,58.3
			C41.4,58.3,41.3,58.3,41.3,58.3z"/>
		<path class="st2" d="M42.1,58.6c-0.2,0.4-0.4,0.7-0.6,1.1c-0.2,0.3-0.4,0.6-0.5,1c0,0,0.1,0.1,0.1,0c0.2-0.3,0.4-0.6,0.6-1
			C41.8,59.3,42,59,42.1,58.6C42.2,58.5,42.1,58.5,42.1,58.6L42.1,58.6z"/>
		<path class="st2" d="M43,58c-0.4,0.8-1,1.7-1.3,2.6c0,0,0,0.1,0.1,0.1c0.5-0.8,0.9-1.7,1.3-2.6C43.2,58,43,57.9,43,58z"/>
		<path class="st2" d="M102.3,43.6c0.1-0.2,0.6-0.1,0.5,0.2c-0.1,0.2-0.4,0.2-0.5,0c0,0-0.1,0-0.1,0c0.1,0.3,0.6,0.3,0.7,0
			C102.9,43.5,102.4,43.3,102.3,43.6C102.2,43.6,102.3,43.6,102.3,43.6L102.3,43.6z"/>
		<path class="st2" d="M102.6,42.3c-0.3,0.6-0.7,1.3-0.7,2c0,0.1,0.1,0.1,0.1,0.1c0.4-0.6,0.5-1.4,0.7-2
			C102.8,42.3,102.7,42.2,102.6,42.3z"/>
		<path class="st2" d="M103.5,41.5c-0.2,0.7-0.5,1.5-0.6,2.3c0,0.1,0.1,0.2,0.2,0.1c0.3-0.7,0.4-1.5,0.6-2.3
			C103.8,41.3,103.5,41.3,103.5,41.5L103.5,41.5z"/>
		<path class="st2" d="M104.8,42.1c-0.1,0.3-0.3,0.5-0.4,0.8c-0.1,0.1,0.1,0.2,0.2,0.1c0.2-0.2,0.3-0.5,0.5-0.8
			C105.1,42.1,104.8,41.9,104.8,42.1z"/>
		<path class="st2" d="M106.7,41c-0.2,0.1-0.3,0.2-0.5,0.3c-0.1,0.1,0,0.2,0.1,0.2c0.2-0.1,0.3-0.2,0.5-0.3
			C107,41.1,106.9,40.9,106.7,41L106.7,41z"/>
		<path class="st2" d="M107.9,40.2c-0.2,0.3-0.3,0.5-0.4,0.8c0,0.1,0.1,0.1,0.1,0.1c0.2-0.2,0.3-0.5,0.5-0.8
			C108.1,40.2,107.9,40.1,107.9,40.2L107.9,40.2z"/>
		<path class="st2" d="M61,37.8c1.3,1.4,2.8,2.8,4.3,4.1c0.1,0.1,0.2-0.1,0.1-0.1C64,40.4,62.5,39.1,61,37.8
			C61,37.7,61,37.7,61,37.8z"/>
		<path class="st2" d="M61.8,37.9c0.7,0.7,1.5,1.4,2.2,2.1c0.7,0.6,1.3,1.3,2,1.8c0,0,0.1,0,0-0.1c-0.6-0.7-1.3-1.3-2-1.8
			C63.3,39.2,62.6,38.6,61.8,37.9C61.8,37.9,61.8,37.9,61.8,37.9L61.8,37.9z"/>
		<path class="st2" d="M62.7,38.2c1.2,1.2,2.6,2.7,4.1,3.5c0.1,0,0.1,0,0.1-0.1c-0.6-0.6-1.4-1.2-2.1-1.7
			C64.1,39.3,63.4,38.8,62.7,38.2C62.7,38.1,62.7,38.2,62.7,38.2L62.7,38.2z"/>
		<path class="st2" d="M63.7,38.2c1.3,0.9,2.3,2.1,3.5,3.2c0,0,0.1,0,0.1-0.1C66.4,39.9,65,38.9,63.7,38.2
			C63.7,38,63.6,38.1,63.7,38.2z"/>
		<path class="st2" d="M65.9,39c0.8,0.7,1.5,1.5,2.4,2c0.1,0,0.1,0,0.1-0.1c-0.7-0.8-1.6-1.4-2.3-2.1C66,38.8,65.8,38.9,65.9,39
			L65.9,39z"/>
		<path class="st2" d="M41.3,24.6c0.6,0.6,1.4,1.1,2.2,1.5c0.8,0.6,1.6,1.1,2.5,1.6c0.1,0,0.1-0.1,0.1-0.1c-0.2-0.2-0.5-0.3-0.7-0.5
			c0,0,0,0,0,0c0.1,0.1,0.5,0.5,0.4,0.3c0-0.2-0.3-0.3-0.4-0.4c-0.4-0.3-0.8-0.5-1.2-0.8C43.2,25.7,42.3,24.9,41.3,24.6
			C41.2,24.5,41.2,24.5,41.3,24.6L41.3,24.6z"/>
		<path class="st2" d="M41.3,24c0.8,0.6,1.7,1.2,2.5,1.7c0.9,0.6,1.9,1.4,2.9,1.8c0,0,0.1,0,0-0.1c-0.7-0.7-1.7-1.2-2.5-1.7
			C43.3,25.1,42.4,24.5,41.3,24C41.4,23.9,41.3,24,41.3,24L41.3,24z"/>
		<path class="st2" d="M43.3,24.6c1.6,1,2.9,2.1,4.4,3.2c0.1,0,0.1-0.1,0.1-0.1C46.6,26.4,44.9,25.4,43.3,24.6
			C43.3,24.5,43.3,24.6,43.3,24.6z"/>
		<path class="st2" d="M44.9,25.2c0.4,0.3,0.9,0.6,1.3,0.9c0,0,0,0,0,0C45.7,25.8,45.3,25.5,44.9,25.2
			C44.9,25.2,44.8,25.2,44.9,25.2z"/>
		<path class="st2" d="M45.7,27.2c2.5,1.5,4.9,3,7.5,4.4c0.1,0,0.1-0.1,0.1-0.1C50.9,29.8,48.3,28.4,45.7,27.2
			C45.7,27.1,45.7,27.2,45.7,27.2L45.7,27.2z"/>
		<path class="st2" d="M48.3,28.2c2.5,1.9,4.9,3.9,7.5,5.7c0.1,0,0.1,0,0.1-0.1C53.4,31.8,50.9,30,48.3,28.2
			C48.3,28.2,48.3,28.2,48.3,28.2L48.3,28.2z"/>
		<path class="st2" d="M75.8,35.5c1.4,0.6,2.9,1.3,4.3,1.6c0.1,0,0.1-0.1,0-0.1c-1.3-0.7-2.9-1.2-4.3-1.7
			C75.8,35.3,75.7,35.5,75.8,35.5z"/>
		<path class="st2" d="M76.3,35.1c1.6,0.5,3.2,1.1,4.8,1.4c0,0,0.1,0,0-0.1C79.6,35.8,77.9,35.5,76.3,35.1
			C76.3,35.1,76.3,35.1,76.3,35.1z"/>
		<path class="st2" d="M76.5,34.4c1.7,0.6,3.5,1.3,5.3,1.7c0.1,0,0.1-0.1,0-0.1C80.1,35.2,78.3,34.8,76.5,34.4
			C76.5,34.3,76.5,34.3,76.5,34.4z"/>
		<path class="st2" d="M77.7,34.1c0.9,0.3,1.7,0.6,2.6,0.9c0.7,0.3,1.3,0.6,2,0.8c0.1,0,0.1-0.1,0.1-0.1c-1.3-0.9-3.1-1.3-4.6-1.7
			C77.6,33.9,77.6,34.1,77.7,34.1L77.7,34.1z"/>
		<path class="st2" d="M78.9,34.1c1,0.3,2,0.6,3,1c0.1,0,1.2,0.5,1.2,0.5c0.1-0.2-0.7-0.4-0.8-0.4c0,0,0,0,0,0
			c0.4,0.2,0.8,0.3,1.1,0.5c0.1,0,0.1-0.1,0.1-0.1c-1.4-0.8-3-1.2-4.5-1.6C78.8,33.8,78.8,34,78.9,34.1L78.9,34.1z"/>
		<path class="st2" d="M80.7,34.4c1.3,0.5,2.7,1.1,4.1,1.5c0.1,0,0.2-0.2,0.1-0.2c-1.3-0.6-2.7-1-4-1.5
			C80.6,34.1,80.5,34.3,80.7,34.4z"/>
		<path class="st2" d="M67.6,30.8c3.5,0.6,6.8,1.5,10.1,2.6c0,0,0.1-0.1,0-0.1C74.5,32.1,71.1,31.2,67.6,30.8
			C67.6,30.8,67.6,30.8,67.6,30.8L67.6,30.8z"/>
		<path class="st2" d="M66.7,30.8c3.8,0.7,7.4,1.9,11.1,3.2c0,0,0,0,0,0C74.3,32.3,70.5,31.3,66.7,30.8
			C66.6,30.8,66.6,30.8,66.7,30.8L66.7,30.8z"/>
		<path class="st2" d="M68.7,31.4c3,0.7,5.9,1.7,8.8,2.8c0.1,0,0.2-0.1,0.1-0.2C74.7,32.8,71.7,32,68.7,31.4
			C68.7,31.4,68.7,31.4,68.7,31.4L68.7,31.4z"/>
		<path class="st2" d="M58.1,28.1c3.2,1.2,6.5,2.3,9.8,3.2c0.1,0,0.1-0.1,0-0.2C64.7,30,61.4,29.1,58.1,28.1
			C58.1,28,58.1,28.1,58.1,28.1L58.1,28.1z"/>
		<path class="st2" d="M14.9,63.1c-0.8,0.5-1.5,1.1-2.1,1.8c-0.6,0.6-1.4,1.3-1.8,2.1c0,0.1,0,0.2,0.1,0.1c0.7-0.5,1.2-1.3,1.8-1.9
			C13.6,64.5,14.4,63.9,14.9,63.1C15.1,63.1,15,63.1,14.9,63.1L14.9,63.1z"/>
		<path class="st2" d="M16.2,62c-1.2,0.8-2.4,1.6-3.6,2.5c-0.5,0.4-1.9,1-2,1.6c0,0.1,0,0.1,0.1,0.1c0.1,0.1,0.1,0.1,0.3,0
			c0.1,0,0.1-0.1,0.1-0.1l0-0.1c0-0.1-0.2-0.1-0.2,0c0-0.2,1.4-1,1.6-1.1c0.4-0.3,0.8-0.6,1.2-0.9C14.5,63.4,15.4,62.7,16.2,62
			C16.3,62,16.2,61.9,16.2,62L16.2,62z"/>
		<path class="st2" d="M16.6,61.6c-1.2,1-2.5,2-3.7,3c-0.5,0.4-1.8,1.1-1.8,1.9c0,0.1,0.1,0.1,0.1,0.1c0,0,0.1,0,0.1,0
			c0,0,0.1,0,0.1-0.1l0-0.1c0-0.1,0-0.2-0.1-0.1C13.2,64.9,14.9,63.2,16.6,61.6C16.7,61.6,16.6,61.6,16.6,61.6L16.6,61.6z"/>
		<path class="st2" d="M17.7,61.2c-0.9,0.6-1.8,1.3-2.6,2.1c-0.7,0.6-1.4,1.1-1.9,1.9c0,0.1,0,0.1,0.1,0.1c0.8-0.4,1.5-1.2,2.1-1.9
			C16.2,62.6,16.9,61.9,17.7,61.2C17.7,61.2,17.7,61.1,17.7,61.2z"/>
		<path class="st2" d="M18.2,61.4c-1.6,1.2-3.5,2.6-4.6,4.3c0,0.1,0.1,0.1,0.1,0.1c0.7-0.6,1.3-1.3,2-2C16.5,63,17.3,62.2,18.2,61.4
			C18.3,61.4,18.2,61.3,18.2,61.4z"/>
		<path class="st2" d="M19.5,60.7c-1.1,1-2.1,2-3.2,3c-0.6,0.5-1.9,1.3-1.9,2.1c0,0,0,0.1,0.1,0.1c0,0,0.1,0,0.1,0c0,0,0.1,0,0.1,0
			c0,0,0.1-0.1,0.1-0.1c0,0,0-0.1,0-0.1c0,0,0,0-0.1-0.1c0,0-0.1,0-0.1,0c-0.1-0.3,2.1-2.2,2.4-2.4c0.9-0.8,1.7-1.6,2.6-2.4
			C19.7,60.7,19.6,60.6,19.5,60.7L19.5,60.7z"/>
		<path class="st2" d="M20.2,61.1c-1.6,1.4-3.2,2.9-4.6,4.4c-0.1,0.1,0.1,0.3,0.2,0.2c0.2-0.2,0.4-0.3,0.7-0.5c0,0,0-0.1-0.1-0.1
			c-0.3,0.1-0.4,0.2-0.7,0.4c0,0.1,0.1,0.1,0.1,0.2c1.6-1.4,3-3,4.6-4.5C20.5,61.1,20.3,61,20.2,61.1L20.2,61.1z"/>
		<path class="st2" d="M20.8,61.5c-1.4,1.2-3,2.4-4.2,3.8c-0.1,0.1,0,0.2,0.1,0.2c1.5-1.1,2.8-2.5,4.2-3.8
			C21,61.6,20.9,61.5,20.8,61.5L20.8,61.5z"/>
		<path class="st2" d="M26.8,57.6c-2.7,0.9-5.7,1.9-8.2,3.3c-0.1,0,0,0.2,0.1,0.1C21.4,60.2,24.2,58.8,26.8,57.6
			C26.8,57.6,26.8,57.5,26.8,57.6L26.8,57.6z"/>
		<path class="st2" d="M27.5,58c-2.8,0.6-5.8,1.6-8.2,3.3c-0.1,0.1-0.1,0.2,0,0.2c0,0,0.1,0,0.1,0.1c0,0,0.1,0,0.2,0
			c0,0,0.1-0.1,0.1-0.1c0,0,0.1-0.1,0-0.2c0,0,0-0.1-0.1-0.1c0-0.1-0.1,0-0.1,0c0,0.3,2.4-1,2-0.8c0.6-0.3,1.2-0.6,1.9-0.8
			c1.4-0.6,2.8-1,4.2-1.5C27.7,58.2,27.6,58,27.5,58L27.5,58z"/>
		<path class="st2" d="M28,58.1c-2.1,0.8-4.6,1.6-6.5,2.8c-0.1,0.1,0,0.2,0.1,0.2c2.2-0.6,4.5-1.8,6.5-2.9
			C28.1,58.2,28.1,58.1,28,58.1L28,58.1z"/>
		<path class="st2" d="M27.6,58.7c-1.4,0.8-2.9,1.3-4.4,1.9c-0.1,0-0.1,0.2,0,0.2c1.6-0.2,3.1-1,4.4-1.9
			C27.8,58.8,27.7,58.7,27.6,58.7L27.6,58.7z"/>
		<path class="st2" d="M37.7,54.2c-3.8,1.1-7.7,2.6-11.4,4.1c-0.1,0.1-0.1,0.3,0.1,0.2C30.1,57.3,34,55.9,37.7,54.2
			C37.7,54.3,37.7,54.2,37.7,54.2z"/>
		<path class="st2" d="M35.7,55.5c-2.6,0.6-5.7,1.4-7.9,3c-0.1,0,0,0.1,0.1,0.1C30.5,57.7,33.1,56.4,35.7,55.5
			C35.8,55.6,35.8,55.5,35.7,55.5L35.7,55.5z"/>
		<path class="st2" d="M35.8,56.2c-1.7,0.5-3.4,1.1-5.1,1.8c-0.1,0.1-0.1,0.3,0.1,0.2C32.5,57.7,34.2,57.1,35.8,56.2
			C35.9,56.3,35.8,56.2,35.8,56.2z"/>
		<path class="st2" d="M45.6,51.4c-4.4,1.3-9,3.1-13.2,5c-0.1,0,0,0.2,0,0.1C36.8,55.2,41.4,53.4,45.6,51.4
			C45.7,51.4,45.6,51.4,45.6,51.4L45.6,51.4z"/>
		<path class="st2" d="M54.3,48.4C50,49.6,45.8,51,41.9,53c0,0,0,0.1,0,0.1C46.1,51.5,50.1,49.8,54.3,48.4
			C54.3,48.4,54.3,48.4,54.3,48.4z"/>
		<path class="st2" d="M56.2,48.2c-2.9,1.1-5.9,2.1-8.7,3.5c-0.1,0,0,0.1,0,0.1C50.5,50.9,53.4,49.5,56.2,48.2
			C56.3,48.3,56.3,48.2,56.2,48.2z"/>
		<path class="st2" d="M55.8,49.2c-1.8,0.5-3.7,1.2-5.3,2.1c-0.1,0,0,0.1,0.1,0.1c1.8-0.5,3.6-1.3,5.3-2.1
			C55.9,49.2,55.8,49.2,55.8,49.2L55.8,49.2z"/>
		<path class="st2" d="M63.6,44.7c-4,1.3-8.1,2.8-11.8,4.8c-0.1,0,0,0.2,0.1,0.1C55.8,48.1,59.7,46.3,63.6,44.7
			C63.7,44.8,63.7,44.7,63.6,44.7L63.6,44.7z"/>
		<path class="st2" d="M65.1,44.9c-3.4,0.7-6.8,2-9.9,3.6c-0.1,0.1,0,0.3,0.1,0.2C58.5,47.2,61.8,46.1,65.1,44.9
			C65.2,44.9,65.2,44.9,65.1,44.9L65.1,44.9z"/>
		<path class="st2" d="M71.4,42c-4.9,1.5-9.8,3.5-14.3,6c-0.1,0.1,0,0.2,0.1,0.2C61.9,46.1,66.6,44,71.4,42
			C71.5,42,71.4,41.9,71.4,42L71.4,42z"/>
		<path class="st2" d="M70.6,53.4c-4.1,1.1-8.2,2.5-12.2,3.9c-2.6,0.8-5.8,1.7-7.4,4c0,0.1,0,0.2,0.1,0.1
			C56.7,57.1,64.1,56,70.6,53.4C70.6,53.4,70.6,53.4,70.6,53.4L70.6,53.4z"/>
		<path class="st2" d="M55.6,58.4c-1,0.6-2.2,1.5-2.6,2.6c0,0.1,0.1,0.1,0.1,0.1c0.4-0.4,0.8-0.9,1.2-1.3c0.4-0.5,0.9-0.9,1.4-1.2
			C55.8,58.5,55.7,58.3,55.6,58.4z"/>
		<path class="st2" d="M56.8,58c-0.5,0.4-1,0.8-1.5,1.3c-0.5,0.4-1,0.8-1.3,1.4c0,0,0,0.1,0.1,0.1c0.5-0.3,0.9-0.7,1.3-1.1
			c0.5-0.5,1-1,1.5-1.5C56.9,58.1,56.8,58,56.8,58L56.8,58z"/>
		<path class="st2" d="M58,57.7c-1.1,0.7-2.4,1.8-3,3c-0.1,0.1,0.1,0.2,0.2,0.1c0.5-0.5,0.8-1,1.3-1.5c0.5-0.5,1.1-1,1.7-1.4
			C58.2,57.8,58.1,57.6,58,57.7z"/>
		<path class="st2" d="M58.7,57.6c-0.8,1-1.7,1.7-2.8,2.4c-0.1,0.1,0,0.2,0.1,0.2c1.1-0.5,2.1-1.5,2.9-2.4
			C59,57.7,58.8,57.5,58.7,57.6L58.7,57.6z"/>
		<path class="st2" d="M60.4,57c-1,0.8-2.2,1.7-3.1,2.6c-0.1,0.1,0,0.2,0.2,0.2c1.1-0.8,2.1-1.8,3.1-2.7C60.6,57.1,60.5,57,60.4,57z
			"/>
		<path class="st2" d="M62.3,56.4c-0.6,0.4-1.1,0.8-1.6,1.3c-0.5,0.4-1,0.7-1.4,1.2c0,0,0,0.1,0.1,0.1c0.5-0.3,1-0.7,1.5-1.1
			c0.5-0.4,1.1-0.9,1.6-1.3C62.5,56.5,62.4,56.3,62.3,56.4L62.3,56.4z"/>
		<path class="st2" d="M63.8,55.8c-0.6,0.4-1.2,0.9-1.8,1.3c-0.5,0.4-1.1,0.8-1.5,1.3c0,0.1,0,0.2,0.1,0.1c0.6-0.3,1.2-0.8,1.7-1.3
			c0.6-0.4,1.1-0.9,1.6-1.4C63.9,55.9,63.9,55.8,63.8,55.8z"/>
		<path class="st2" d="M65,55.5c-0.6,0.5-1.2,1-1.8,1.5c-0.4,0.3-1.1,0.6-1.4,1.1c0,0,0,0.1,0.1,0.1c0.6-0.1,1.2-0.7,1.7-1
			c0.6-0.5,1.1-1,1.7-1.5C65.3,55.6,65.1,55.4,65,55.5z"/>
		<path class="st2" d="M66.4,54.9c-0.6,0.5-1.3,1-1.9,1.5c-0.6,0.5-1.2,0.9-1.6,1.5c-0.1,0.1,0,0.3,0.2,0.2c0.7-0.3,1.2-0.9,1.8-1.4
			c0.6-0.5,1.2-1,1.7-1.5C66.8,55,66.6,54.8,66.4,54.9z"/>
		<path class="st2" d="M67.7,54.8c-0.7,0.5-1.3,1-2,1.5c-0.6,0.5-1.3,0.9-1.7,1.5c-0.1,0.1,0,0.3,0.2,0.3c0.7-0.3,1.3-0.9,1.8-1.3
			c0.7-0.5,1.3-1.1,2-1.6C68.1,55,67.9,54.6,67.7,54.8L67.7,54.8z"/>
		<path class="st2" d="M69.4,54c-0.9,0.6-1.8,1.3-2.6,1.9c-0.8,0.6-1.6,1.2-2.2,1.9c-0.1,0.1,0,0.4,0.2,0.3c0.9-0.4,1.7-1.2,2.5-1.9
			c0.8-0.7,1.6-1.4,2.3-2.1C69.6,54.1,69.5,53.9,69.4,54z"/>
		<path class="st2" d="M70.7,53.3c-0.9,0.9-1.9,1.8-2.8,2.6c-0.9,0.9-2,1.7-2.7,2.7c-0.1,0.2,0.1,0.4,0.3,0.3c1-0.7,1.8-1.7,2.7-2.5
			c1-0.9,2-1.9,2.9-2.8C71.3,53.4,70.9,53.1,70.7,53.3L70.7,53.3z"/>
		<path class="st2" d="M71.7,52.8c-1,0.3-2.3,0.6-3.1,1.3c-0.1,0.1,0,0.4,0.2,0.3c1-0.3,2.1-1,3-1.5C71.9,52.8,71.8,52.7,71.7,52.8z
			"/>
		<path class="st2" d="M123.6,27.1c-1.2,0.5-1.8,1.8-1.5,3.1c0,0.1,0.1,0.1,0.2,0.1c1.3,0,2.6-1.8,1.6-2.9c-0.1-0.1-0.2,0-0.2,0.1
			c0.2,0.6,0.3,1,0,1.6c-0.3,0.5-0.8,0.9-1.4,0.9c0.1,0,0.1,0.1,0.2,0.1c-0.2-1.1,0.4-2.2,1.3-2.7C123.8,27.2,123.7,27,123.6,27.1z"
			/>
		<path class="st2" d="M123.3,27.5c-0.4,0.4-0.6,0.9-0.8,1.4c0,0.1,0.1,0.2,0.2,0.2c0.6-0.3,0.9-0.9,0.9-1.5
			C123.6,27.5,123.5,27.4,123.3,27.5c-0.7,0.2-1.1,1-1,1.9c0,0.1,0.1,0.2,0.2,0.2c0.6-0.1,1.1-0.6,1-1.3c0-0.2-0.2-0.3-0.3-0.2
			c-0.4,0.2-0.6,0.6-0.4,1c0.1,0.2,0.3,0.2,0.4,0.1c0.2-0.3,0.4-0.5,0.6-0.8c-0.1-0.1-0.3-0.1-0.4-0.2c0,0.3,0,0.4,0.2,0.6
			c0.1,0.2,0.3,0.1,0.3-0.1c0.1-0.2,0.1-0.4,0-0.6c0-0.2-0.3-0.3-0.4-0.2c-0.2,0.3-0.4,0.5-0.6,0.8c0.1,0,0.3,0.1,0.4,0.1
			c-0.1-0.1,0-0.3,0.1-0.4c-0.1-0.1-0.2-0.1-0.3-0.2c0,0.4-0.2,0.7-0.5,0.7c0.1,0.1,0.2,0.1,0.2,0.2c-0.1-0.7,0.2-1.3,0.8-1.6
			c-0.1,0-0.2-0.1-0.3-0.1c0.1,0.5-0.2,1-0.6,1.1l0.2,0.2c0.1-0.5,0.3-0.9,0.6-1.4C123.5,27.5,123.3,27.4,123.3,27.5z"/>
		<path class="st2" d="M124.6,26.6c0,0.4,0,0.8,0.1,1.2c0,0.1,0.1,0.2,0.2,0.2c0.6,0.1,1.2-0.2,1.4-0.7c0.1-0.3-0.3-0.4-0.4-0.2
			c-0.2,0.3-0.5,0.5-0.9,0.4c0.1,0.1,0.1,0.1,0.2,0.2c0-0.4-0.1-0.8-0.1-1.2C125,26.3,124.6,26.3,124.6,26.6L124.6,26.6z"/>
		<path class="st2" d="M124.8,26.6c0.6-0.1,1.1-0.4,1.7-0.6c-0.1-0.1-0.2-0.2-0.3-0.3c-0.1,0.3-0.5,0.9-0.4,1.2
			c0,0.1,0.1,0.1,0.1,0.1c0.4-0.1,0.5-0.8,0.6-1.1c0.1-0.2-0.1-0.4-0.3-0.3c-0.6,0.2-1.1,0.4-1.6,0.7
			C124.5,26.4,124.7,26.6,124.8,26.6z"/>
		<path class="st2" d="M125.8,26.4c-0.4,0-0.6,0.5-0.3,0.8c0.2,0.2,0.7,0.1,0.7-0.3c0-0.1-0.1-0.1-0.1-0.1c-0.1,0-0.1,0.1-0.2,0.1
			c-0.1,0-0.1-0.1,0-0.1C126.1,26.8,126,26.4,125.8,26.4z"/>
		<path class="st2" d="M125.8,26.4c-0.2,0-0.4,0.1-0.5,0.3c-0.1,0.1-0.2,0.4-0.1,0.6c0.1,0.2,0.5,0.2,0.7,0.1
			c0.2-0.1,0.4-0.2,0.5-0.4c0-0.1-0.1-0.2-0.1-0.1c-0.3,0.1-0.6,0.2-0.9,0.1c0,0,0.1,0.1,0.1,0.1c-0.1-0.2,0.1-0.5,0.3-0.5
			C125.9,26.6,125.9,26.4,125.8,26.4L125.8,26.4z"/>
		<path class="st2" d="M125.8,27.5c0.2,0,0.3,0,0.4,0c0,0-0.1,0-0.1,0c0,0,0,0,0,0c0,0,0.1,0.1,0.2,0c0.2-0.2,0.4-0.4,0.4-0.7
			c0-0.3-0.1-0.6-0.4-0.7c-0.1,0-0.1,0-0.2,0.1c-0.1,0.2,0.1,0.3,0.1,0.5c0,0.2,0,0.5-0.2,0.6c0,0-0.1,0.1,0,0.2l0,0l0-0.1
			C126.1,27.4,125.9,27.4,125.8,27.5C125.8,27.4,125.8,27.5,125.8,27.5L125.8,27.5z"/>
		<path class="st2" d="M49.8,53.7c0.1,0.1,0.2,0.2,0.2,0.4l0.6,0c0-0.1,0-0.1,0-0.2c0,0.1,0,0.1,0,0c0,0,0,0,0-0.1
			c0-0.1-0.3,0.1-0.4-0.1c0,0,0,0,0,0c0,0,0-0.1,0-0.1c-0.1,0.5,0.6,0.6,0.7,0.2c0.1-0.4-0.3-0.8-0.7-0.7
			C50,53.2,49.8,53.4,49.8,53.7C49.8,53.7,49.8,53.8,49.8,53.7c0,0.1,0.1,0.3,0.1,0.2c0-0.1,0,0.1,0,0.1c0,0.1,0,0.1,0.1,0.2
			c0.1,0.3,0.6,0.3,0.6,0c0-0.4-0.1-0.7-0.5-0.9C49.8,53.3,49.5,53.6,49.8,53.7L49.8,53.7z"/>
		<path class="st2" d="M52.2,52.7c0,0.2,0.1,0.4,0.2,0.6c0.2,0.4,0.9,0.2,0.7-0.2c-0.1-0.2-0.2-0.5-0.4-0.6
			C52.4,52.3,52.2,52.4,52.2,52.7z"/>
		<path class="st2" d="M54.4,52.1c0,0.1,0.1,0.2,0.3,0.2c-0.1,0.1-0.3,0.2-0.4,0.3c0,0,0,0,0,0c0.1,0,0.3,0,0.4-0.1
			c-0.1,0-0.1,0.1-0.2,0.1c-0.1,0-0.1,0-0.2,0c-0.1-0.2-0.2-0.3-0.1-0.2c0,0,0,0.1,0,0.1l0-0.2C54.2,52.1,54.3,52,54.4,52.1
			c0-0.1,0-0.1,0.1-0.1c0,0,0,0,0,0c0.1,0,0.1,0,0.2,0c0,0,0,0,0,0c-0.5-0.2-0.8,0.6-0.2,0.7c0.2,0,0.3,0,0.4-0.1
			c0.1-0.1,0.2-0.3,0.1-0.4c-0.1-0.4-0.5-0.5-0.8-0.2C54,52,54,52.3,54.2,52.4c-0.1-0.1-0.1-0.2-0.2-0.3c0,0.3,0.2,0.5,0.5,0.5
			c0.3,0,0.5-0.4,0.4-0.7C54.8,51.7,54.4,51.8,54.4,52.1L54.4,52.1z"/>
		<path class="st2" d="M56.7,51.3C56.7,51.3,56.6,51.2,56.7,51.3c0,0,0,0.1,0,0.1C56.7,51.4,56.7,51.3,56.7,51.3
			c-0.1,0.1-0.2,0-0.2-0.1c0,0.1,0,0.1,0,0c-0.1,0.2-0.1,0.4,0,0.5c0.1,0.1,0.4,0.1,0.5,0c0.1-0.2,0.2-0.4,0.1-0.6
			c-0.1-0.2-0.3-0.4-0.5-0.3c-0.2,0-0.4,0.2-0.4,0.4c0,0.2,0.1,0.4,0.2,0.5C56.6,51.7,56.8,51.4,56.7,51.3L56.7,51.3z"/>
		<path class="st2" d="M59.5,50.1c0-0.2-0.1-0.4-0.2-0.6c-0.2-0.3-0.8,0-0.6,0.3c0.1,0.2,0.2,0.3,0.4,0.5
			C59.2,50.4,59.5,50.3,59.5,50.1z"/>
		<path class="st2" d="M61.5,49.2c0,0,0.1,0,0.1,0c0.1,0-0.1,0,0,0c0,0,0,0,0,0c0-0.1,0-0.1,0-0.2c0,0,0,0,0.1,0
			c0,0.1,0.1,0.2,0.1,0.2c0-0.2,0-0.3,0-0.4c0-0.1-0.1-0.2-0.2-0.3c-0.1-0.1-0.2-0.1-0.3,0c-0.2,0.2-0.2,0.3-0.2,0.5
			c0,0.2,0,0.4,0.2,0.5c0.2,0.2,0.6,0.1,0.8-0.1c0.2-0.2,0.2-0.5,0-0.7c-0.2-0.2-0.6-0.2-0.7,0C61.2,48.9,61.3,49.1,61.5,49.2
			L61.5,49.2z"/>
		<path class="st2" d="M64.3,48c0.3,0,0.3-0.6,0-0.5C64,47.5,64,48,64.3,48z"/>
		<path class="st2" d="M63.8,47.7c-0.4,0.4,0.6,1,0.8,0.4c0.1-0.3-0.3-0.4-0.4-0.2c0,0.1,0,0,0,0c0,0-0.1,0-0.1,0c0.1,0,0,0,0-0.1
			C64.1,47.7,63.9,47.6,63.8,47.7z"/>
		<path class="st2" d="M61.8,49.1C61.8,49.1,61.8,49.1,61.8,49.1c0.2-0.2,0.1-0.5-0.1-0.5s-0.3,0.3-0.1,0.4c0,0,0,0,0,0.1
			C61.6,49.2,61.8,49.2,61.8,49.1L61.8,49.1z"/>
		<path class="st2" d="M126.8,31.6c-0.3,0.8-0.8,1.7-1,2.6c0,0,0.1,0.1,0.1,0c0.5-0.7,0.8-1.7,1.1-2.5
			C127,31.5,126.8,31.4,126.8,31.6z"/>
		<path class="st2" d="M127.5,31c-0.3,0.9-0.6,1.9-0.8,2.8c0,0.1,0.1,0.1,0.1,0c0.4-0.9,0.5-1.9,0.8-2.8C127.6,31,127.5,31,127.5,31
			L127.5,31z"/>
		<path class="st2" d="M128.7,30.2c-0.2,0.5-0.3,1.1-0.5,1.6c-0.1,0.5-0.3,0.9-0.3,1.4c0,0.1,0.1,0.1,0.1,0c0.2-0.4,0.3-0.9,0.4-1.4
			C128.6,31.4,128.7,30.8,128.7,30.2C128.8,30.2,128.8,30.2,128.7,30.2z"/>
		<path class="st2" d="M129.9,29.4c-0.2,1-0.5,2-0.5,3c0,0.1,0.1,0.1,0.1,0c0.3-0.9,0.4-2,0.6-3C130,29.4,129.9,29.3,129.9,29.4
			L129.9,29.4z"/>
		<path class="st2" d="M130.8,28.6c-0.2,0.9-0.6,1.9-0.6,2.8c0,0,0.1,0.1,0.1,0c0.4-0.8,0.5-1.9,0.7-2.8
			C131,28.5,130.8,28.5,130.8,28.6L130.8,28.6z"/>
		<path class="st2" d="M131.4,28.6c-0.2,0.7-0.4,1.5-0.4,2.2c0,0.1,0.1,0,0.1,0c0.2-0.7,0.3-1.5,0.4-2.2
			C131.5,28.6,131.4,28.5,131.4,28.6z"/>
		<path class="st2" d="M131.5,27.3c-0.4,0.6-0.9,1.2-1.5,1.7c-0.5,0.5-1.1,0.8-1.6,1.3c-0.1,0.1,0,0.2,0.1,0.1
			C129.9,30.1,131,28.6,131.5,27.3C131.6,27.3,131.5,27.3,131.5,27.3L131.5,27.3z"/>
		<path class="st2" d="M102.3,29.7c-2.8,1.3-5.6,2.4-8.4,3.4c-0.1,0-0.1,0.3,0.1,0.2C96.9,32.5,99.7,31.2,102.3,29.7
			C102.4,29.7,102.4,29.7,102.3,29.7z"/>
		<path class="st2" d="M102.1,30.3c-1.9,0.5-4.1,1.5-5.7,2.5c-0.1,0,0,0.1,0.1,0.1c1-0.3,2-0.9,3-1.4
			C100.4,31.2,101.3,30.8,102.1,30.3C102.1,30.3,102.1,30.3,102.1,30.3L102.1,30.3z"/>
		<path class="st2" d="M102.9,30.4c-1.6,0.8-3.3,1.6-4.8,2.5c0,0,0,0.1,0,0.1C99.8,32.3,101.4,31.4,102.9,30.4
			C103,30.5,102.9,30.4,102.9,30.4z"/>
		<path class="st2" d="M109.6,27c-2.8,0.8-5.7,1.8-8.2,3.2c-0.1,0,0,0.1,0.1,0.1C104.2,29.3,106.8,28.1,109.6,27
			C109.6,27,109.6,27,109.6,27z"/>
		<path class="st2" d="M109.4,27.5c-2.7,0.7-5.5,1.8-7.9,3.2c-0.1,0,0,0.2,0.1,0.1C104.1,29.7,106.7,28.6,109.4,27.5
			C109.4,27.6,109.4,27.5,109.4,27.5L109.4,27.5z"/>
		<path class="st2" d="M110.1,27.8c-3,0.9-6,2-8.9,3.3c-0.1,0,0,0.1,0,0.1C104.2,30.2,107.3,29,110.1,27.8
			C110.2,27.8,110.1,27.8,110.1,27.8z"/>
		<path class="st2" d="M116.9,26.3c-3.2-0.2-6.5,0.6-9.3,2.2c0,0,0,0.1,0,0C110.7,27.3,113.6,26.5,116.9,26.3
			C117,26.3,116.9,26.3,116.9,26.3L116.9,26.3z"/>
		<path class="st2" d="M115.5,26.6c-2.7,0.7-5.5,1.6-7.9,3c-0.1,0,0,0.1,0.1,0.1C110.2,28.7,112.8,27.5,115.5,26.6
			C115.5,26.7,115.5,26.6,115.5,26.6z"/>
		<path class="st2" d="M66,47.5c0,0,0.1,0.1,0.1,0.1c0.3,0.3,0.6-0.2,0.3-0.5L66.3,47C66,46.9,65.8,47.3,66,47.5L66,47.5z"/>
		<path class="st2" d="M67.7,46.9c0.2,0,0.3,0,0.5-0.1c0.3-0.3-0.2-0.7-0.5-0.4C67.6,46.5,67.6,46.6,67.7,46.9
			C67.7,46.9,67.7,46.9,67.7,46.9z"/>
		<path class="st2" d="M69.6,45.7c0.1,0.4,0.8,0.5,0.9,0c0-0.2-0.1-0.4-0.3-0.3c-0.1,0-0.1,0-0.2,0.1c-0.2,0.1,0,0,0,0
			C69.9,45.3,69.5,45.4,69.6,45.7L69.6,45.7z"/>
		<path class="st2" d="M71.6,45.3C71.6,45.3,71.6,45.3,71.6,45.3c0.3,0.1,0.6,0,0.6-0.3c0-0.3-0.3-0.4-0.5-0.3c0,0,0,0-0.1,0
			C71.2,44.9,71.2,45.3,71.6,45.3z"/>
		<path class="st2" d="M73.5,44.6C73.5,44.6,73.6,44.6,73.5,44.6c0.3,0.1,0.5-0.2,0.4-0.4c-0.1-0.2-0.4-0.3-0.5-0.1c0,0,0,0,0,0.1
			C73.3,44.3,73.3,44.5,73.5,44.6L73.5,44.6z"/>
		<path class="st2" d="M75.3,43.6c0.1,0.1,0.2,0.2,0.3,0.2c0-0.1-0.1-0.1-0.1-0.2c0,0.2,0.1,0.3,0.3,0.4c0.2,0.1,0.4,0,0.4-0.2
			c0.1-0.4-0.2-0.6-0.6-0.6C75.5,43.3,75.2,43.4,75.3,43.6L75.3,43.6z"/>
		<path class="st2" d="M77.9,42.8C77.9,42.8,77.9,42.8,77.9,42.8c0.1,0,0.2,0,0.3,0.1c0,0,0-0.1,0-0.1c-0.1-0.1-0.1-0.1,0,0.1
			c0,0.1-0.1,0.1-0.1,0.2c-0.1,0-0.2,0-0.3-0.1c0,0,0,0,0.1,0.1c0-0.2,0-0.3,0-0.5c-0.4,0.2-0.1,0.8,0.3,0.7
			c0.2-0.1,0.3-0.3,0.2-0.5c0-0.1-0.1-0.1-0.1-0.2c0,0-0.1-0.1-0.1-0.1c-0.1,0-0.1,0,0,0c-0.1-0.1-0.2,0-0.3,0
			c-0.2,0.1-0.3,0.4-0.1,0.6c0.1,0.1,0.3,0.1,0.4,0c0.1-0.1,0.1-0.1,0.1-0.2C78.2,42.7,78,42.7,77.9,42.8z"/>
		<path class="st2" d="M79.8,41.8c0,0-0.1,0.1-0.1,0.1c-0.8,0.5,1,1,0.5,0.1c-0.1-0.1-0.1-0.1-0.2-0.1c-1-0.2,0.1,1.4,0.3,0.4
			c0-0.1,0-0.1,0-0.1C80.3,41.8,80,41.7,79.8,41.8L79.8,41.8z"/>
		<path class="st2" d="M82.5,40.7c-0.1,0-0.1,0.1-0.2,0.1c-0.4,0.3,0.2,0.9,0.4,0.5c0.1-0.1,0.1-0.1,0.1-0.2
			C82.9,40.9,82.7,40.6,82.5,40.7L82.5,40.7z"/>
		<path class="st2" d="M84.7,40.2c0-0.2-0.1-0.3-0.3-0.4c-0.3-0.2-0.6,0.2-0.4,0.4c0.1,0.1,0.3,0.2,0.4,0.2
			C84.7,40.4,84.8,40.3,84.7,40.2z"/>
		<path class="st2" d="M87.1,39.2c-0.1-0.1-0.1-0.2-0.2-0.3c-0.3-0.3-0.8,0.3-0.3,0.5c0.1,0,0.2,0.1,0.2,0.1
			C87,39.7,87.3,39.4,87.1,39.2L87.1,39.2z"/>
		<path class="st2" d="M88.5,38.5C88.5,38.5,88.5,38.5,88.5,38.5c0-0.1,0-0.1,0.1-0.2c-0.1,0,0,0,0.1,0c0,0,0,0.1,0,0.1
			c0.1-0.3-0.3-0.6-0.5-0.3c-0.4,0.5,0.4,1.1,0.8,0.7c0.3-0.4-0.3-1-0.7-0.6C88.1,38.4,88.3,38.6,88.5,38.5L88.5,38.5z"/>
		<path class="st2" d="M90.5,37.9c0.3,0.2,0.7-0.2,0.5-0.5c-0.2-0.3-0.7-0.1-0.7,0.3c0,0.4,0.6,0.3,0.6,0c0,0,0,0,0,0
			c0,0.1,0,0.1-0.1,0.2c-0.1,0-0.1,0-0.2,0c0-0.1-0.1-0.1-0.1-0.2c0,0,0,0,0,0c0-0.1,0-0.1,0-0.2c0,0,0,0,0.1,0c0.1,0,0.1,0,0.2,0
			c0,0,0,0,0,0C90.4,37.3,90.2,37.7,90.5,37.9z"/>
		<path class="st2" d="M92.5,37.2c0.1-0.1,0.2-0.2,0.2-0.3c0.2-0.3-0.3-0.6-0.5-0.3c-0.1,0.1-0.1,0.2-0.1,0.4
			C92,37.3,92.3,37.4,92.5,37.2z"/>
		<path class="st2" d="M93.7,36.1C93.7,36.1,93.7,36.2,93.7,36.1c-0.1,0.2,0,0.5,0.3,0.5c0.3,0,0.3-0.3,0.2-0.5c0,0,0,0,0,0
			C94.1,35.9,93.7,35.9,93.7,36.1L93.7,36.1z"/>
		<path class="st2" d="M96.1,35.3c-0.1,0-0.2,0-0.2,0c-0.4,0-0.3,0.7,0,0.6c0.1,0,0.2,0,0.2,0C96.4,35.8,96.4,35.3,96.1,35.3z"/>
		<path class="st2" d="M97.7,35c0.2,0.1,0.5,0.1,0.6-0.2c0.1-0.1,0-0.3-0.2-0.3C97.9,34.5,97.7,34.6,97.7,35
			C97.7,35,97.7,35,97.7,35z"/>
		<path class="st2" d="M100,33.9c-0.1-0.1-0.2-0.1-0.3,0c-0.1,0.1-0.2,0.1-0.3,0.2c-0.3,0.3,0.2,0.7,0.5,0.4
			c0.1-0.1,0.1-0.2,0.2-0.3C100.1,34.1,100.1,34,100,33.9C100,33.9,100,33.9,100,33.9L100,33.9z"/>
		<path class="st2" d="M101.6,33.5c0-0.1,0-0.1,0-0.1c0-0.3-0.4-0.5-0.5-0.2c0,0,0,0.1-0.1,0.1c-0.4,0.7,1.1,0.6,0.6,0
			c0,0,0-0.1-0.1-0.1c-0.2-0.3-0.6-0.1-0.5,0.2c0,0.1,0,0.1,0,0.1C101.2,33.8,101.6,33.8,101.6,33.5L101.6,33.5z"/>
		<path class="st2" d="M103.1,33.2c0.5,0,0.4-0.8,0-0.7C102.5,32.5,102.6,33.3,103.1,33.2z"/>
		<path class="st2" d="M82.4,37.8c-3.7,1.2-7.5,2.6-11.1,4.2c-0.1,0,0,0.1,0,0.1C75.1,40.8,78.8,39.3,82.4,37.8
			C82.4,37.8,82.4,37.8,82.4,37.8z"/>
		<path class="st2" d="M82,38.8c-3,0.5-6,1.4-8.7,2.9c0,0,0,0.1,0,0.1C76.2,40.6,79,39.5,82,38.8C82,38.8,82,38.8,82,38.8z"/>
		<path class="st2" d="M87,36.3c-3.6,1.2-7.3,2.7-10.8,4.2c-0.1,0,0,0.1,0,0.1C79.9,39.6,83.6,38.1,87,36.3C87,36.3,87,36.3,87,36.3
			L87,36.3z"/>
		<path class="st2" d="M75.2,40.7c-2.7,1-5.4,2.3-7.8,3.7c-0.1,0.1,0,0.2,0.1,0.2C70,43.5,72.8,42.2,75.2,40.7
			C75.3,40.8,75.2,40.7,75.2,40.7z"/>
		<path class="st2" d="M102.8,40.5c-0.2,0.3-0.5,0.7-0.7,1c0,0,0,0,0,0C102.4,41.3,102.6,40.9,102.8,40.5
			C102.8,40.5,102.8,40.5,102.8,40.5L102.8,40.5z"/>
		<path class="st2" d="M103.6,38.8c-0.4,1.5-1,2.7-1.7,4c0,0.1,0.1,0.2,0.1,0.1c0.9-1.2,1.4-2.7,1.7-4.1
			C103.7,38.7,103.7,38.7,103.6,38.8z"/>
		<path class="st2" d="M104.4,39.2c-0.3,0.5-0.5,1.1-0.8,1.6c-0.2,0.5-0.5,1-0.6,1.5c0,0.1,0.1,0.1,0.1,0.1c0.3-0.4,0.5-1,0.7-1.5
			c0.2-0.5,0.5-1,0.6-1.6C104.6,39.2,104.5,39.1,104.4,39.2L104.4,39.2z"/>
		<path class="st2" d="M105.4,38.9c-0.4,0.9-0.9,1.8-1.1,2.8c0,0.1,0.1,0.1,0.1,0C104.9,40.9,105.2,39.9,105.4,38.9
			C105.5,38.9,105.4,38.9,105.4,38.9z"/>
		<path class="st2" d="M106.3,38.8c-0.2,0.4-0.4,0.8-0.6,1.2c-0.2,0.3-0.4,0.7-0.5,1.1c0,0.1,0.1,0.1,0.1,0.1
			c0.3-0.3,0.4-0.7,0.6-1.1c0.2-0.4,0.4-0.8,0.6-1.2C106.5,38.8,106.4,38.8,106.3,38.8L106.3,38.8z"/>
		<path class="st2" d="M107.4,38.8c-0.2,0.3-0.4,0.6-0.6,0.8c-0.2,0.3-0.4,0.6-0.6,1c0,0,0,0.1,0.1,0c0.2-0.3,0.4-0.6,0.5-0.8
			C107,39.5,107.2,39.1,107.4,38.8C107.4,38.8,107.4,38.8,107.4,38.8z"/>
		<path class="st2" d="M107.8,38.5c-0.4,0.5-0.6,1.1-0.6,1.8c0,0.1,0.1,0.1,0.1,0C107.4,39.7,107.6,39.1,107.8,38.5
			C107.9,38.5,107.8,38.4,107.8,38.5L107.8,38.5z"/>
		<path class="st2" d="M102.9,39.5c-0.3,0.4-0.5,0.8-0.7,1.3c-0.2,0.4-0.5,0.9-0.6,1.3c0,0.1,0.1,0.1,0.1,0.1
			c0.3-0.4,0.5-0.9,0.7-1.3C102.6,40.4,102.8,40,102.9,39.5C102.9,39.5,102.9,39.5,102.9,39.5z"/>
		<path class="st2" d="M102.2,39.6c-0.4,0.9-1,1.9-1.3,2.8c0,0,0.1,0.1,0.1,0c0.6-0.8,0.9-1.9,1.3-2.8
			C102.4,39.6,102.3,39.5,102.2,39.6z"/>
		<path class="st2" d="M101.2,40.1c-0.2,0.3-0.3,0.6-0.5,1c-0.1,0.3-0.3,0.6-0.4,0.9c0,0.1,0.1,0.1,0.1,0.1c0.2-0.3,0.3-0.6,0.4-0.8
			c0.2-0.3,0.3-0.6,0.5-1C101.4,40.1,101.2,40,101.2,40.1L101.2,40.1z"/>
		<path class="st2" d="M100.7,40.2c-0.4,0.5-0.8,1-1.1,1.6c0,0,0,0,0,0C100.1,41.3,100.4,40.7,100.7,40.2
			C100.7,40.2,100.7,40.1,100.7,40.2L100.7,40.2z"/>
		<path class="st2" d="M99.8,40.7c-0.4,0.5-0.8,1-1.1,1.6c0,0,0,0.1,0.1,0C99.1,41.8,99.5,41.3,99.8,40.7
			C99.9,40.7,99.8,40.7,99.8,40.7L99.8,40.7z"/>
		<path class="st2" d="M99.1,41.2c-0.2,0.3-0.5,0.5-0.6,0.9c0,0,0,0.1,0.1,0c0.3-0.2,0.5-0.5,0.7-0.8C99.2,41.2,99.1,41.2,99.1,41.2
			z"/>
		<path class="st2" d="M98.6,41.5c-0.3,0.3-0.7,0.5-0.9,0.8c-0.1,0.1,0,0.2,0.1,0.1c0.3-0.2,0.6-0.5,0.9-0.8
			C98.8,41.6,98.7,41.4,98.6,41.5z"/>
		<path class="st2" d="M98.8,42.9c-2.2,0.4-4.3,1-6.3,1.9c-0.1,0.1-0.1,0.2,0.1,0.2C94.6,44.2,96.6,43.5,98.8,42.9
			C98.8,43,98.8,42.9,98.8,42.9L98.8,42.9z"/>
		<path class="st2" d="M99.5,42.9c-2,0.5-4.1,1-6,1.7c-0.1,0,0,0.1,0,0.1c2-0.4,4.1-1.1,6-1.7C99.6,43,99.5,42.9,99.5,42.9
			L99.5,42.9z"/>
		<path class="st2" d="M99,43.5c-1.4,0.5-3,0.9-4.3,1.6c0,0,0,0.1,0,0.1c1.5-0.3,2.9-1,4.3-1.6C99.1,43.6,99.1,43.5,99,43.5L99,43.5
			z"/>
		<path class="st2" d="M99.8,43.5c-1.5,0.6-3.2,1.1-4.6,2c-0.1,0,0,0.1,0,0.1C96.8,45.1,98.4,44.3,99.8,43.5
			C99.8,43.5,99.8,43.5,99.8,43.5L99.8,43.5z"/>
		<path class="st2" d="M99.6,44c-1.3,0.4-2.5,0.9-3.6,1.7c-0.1,0,0,0.1,0.1,0.1c1.1-0.7,2.3-1.2,3.6-1.7
			C99.7,44.1,99.6,43.9,99.6,44L99.6,44z"/>
		<path class="st2" d="M92.2,45.1c-2.4,1.3-4.7,2.4-7.2,3.6c-0.1,0.1-0.1,0.3,0.1,0.2C87.6,47.9,90,46.6,92.2,45.1
			C92.3,45.2,92.2,45.1,92.2,45.1z"/>
		<path class="st2" d="M91.1,46.2c-1.8,0.7-3.7,1.6-5.2,2.8c0,0,0,0.1,0,0.1C87.7,48.3,89.4,47.2,91.1,46.2
			C91.2,46.3,91.1,46.2,91.1,46.2L91.1,46.2z"/>
		<path class="st2" d="M90.4,47.2c-1.4,0.7-3.1,1.3-4.1,2.4c0,0,0,0.1,0.1,0.1c0.7-0.3,1.3-0.8,1.9-1.1c0.7-0.4,1.5-0.8,2.2-1.2
			C90.6,47.3,90.5,47.2,90.4,47.2L90.4,47.2z"/>
		<path class="st2" d="M90.2,47.8c-0.8,0.5-1.6,0.9-2.4,1.4c-0.1,0,0,0.2,0.1,0.1c0.8-0.4,1.6-0.9,2.4-1.3
			C90.4,47.9,90.3,47.7,90.2,47.8L90.2,47.8z"/>
		<path class="st2" d="M96.6,43.6c-3.2,0.7-6.3,1.9-9.1,3.6c-0.1,0,0,0.1,0.1,0.1c3-1.3,6-2.6,9.1-3.5
			C96.7,43.7,96.7,43.6,96.6,43.6L96.6,43.6z"/>
		<path class="st2" d="M96.1,44.4c-2.6,0.8-5.3,1.8-7.7,3c-0.1,0,0,0.2,0.1,0.1c2.6-0.7,5.3-1.8,7.7-3
			C96.3,44.5,96.2,44.4,96.1,44.4L96.1,44.4z"/>
		<path class="st2" d="M95.7,45.2c-2,0.3-3.9,0.9-5.6,1.8c-0.1,0,0,0.2,0.1,0.1C92,46.4,93.8,45.7,95.7,45.2
			C95.7,45.2,95.7,45.2,95.7,45.2L95.7,45.2z"/>
		<path class="st2" d="M50.5,83.1c-0.7,0.6-1.2,1.2-1.7,1.9c-0.2,0.4-0.5,0.7-0.7,1.1c0,0.1-0.7,1.3-0.7,1.3c0,0.1,0.2,0,0.1-0.1
			c-0.2-0.7-1.1,0.5-0.1,0.5c0.7,0,0.9-1.2,1.1-1.7c0.6-1.1,1.3-2.1,2-3C50.6,83.2,50.5,83.1,50.5,83.1L50.5,83.1z"/>
		<path class="st2" d="M49.1,85c-0.5,0.6-0.9,1.1-1.3,1.7c-0.4,0.6-0.8,1.3-0.9,2c0,0.1,0.1,0.2,0.2,0.1c0.4-0.5,0.6-1.1,0.9-1.7
			c0.4-0.7,0.8-1.3,1.2-2C49.4,85,49.2,84.8,49.1,85z"/>
		<path class="st2" d="M48.7,86.3c-0.3,0.4-0.6,0.9-0.9,1.3c-0.2,0.3-0.5,0.7-0.7,1.1c0,0.1,0.1,0.1,0.1,0.1c0.3-0.3,0.5-0.7,0.8-1
			c0.3-0.4,0.6-0.9,0.9-1.3C49,86.3,48.8,86.1,48.7,86.3L48.7,86.3z"/>
		<path class="st2" d="M51,84.1c-0.6,0.7-1.1,1.5-1.7,2.2c-0.5,0.6-1.1,1.3-1.5,2c0,0.1,0.1,0.1,0.1,0.1c0.6-0.6,1.1-1.4,1.6-2
			c0.5-0.7,1.1-1.4,1.6-2.1C51.3,84.2,51.1,84,51,84.1L51,84.1z"/>
		<path class="st2" d="M51,84.4c-1,1.4-2.1,2.8-2.9,4.2c-0.1,0.1,0.1,0.3,0.2,0.2c1.1-1.3,1.9-2.8,2.8-4.3
			C51.3,84.4,51.1,84.3,51,84.4L51,84.4z"/>
		<path class="st2" d="M51.4,84.7c-0.9,1.3-2,2.6-2.8,4c-0.1,0.2,0.2,0.3,0.3,0.1c0.2-0.3,0.4-0.5,0.5-0.8c0-0.1-0.1-0.1-0.1-0.1
			c-0.2,0.2-0.5,0.5-0.7,0.7c0.1,0.1,0.1,0.1,0.2,0.2c1-1.2,1.9-2.6,2.8-3.9C51.9,84.8,51.6,84.5,51.4,84.7z"/>
		<path class="st2" d="M51.7,85.2c-0.8,1-1.6,2.1-2.3,3.2c-0.2,0.2,0.2,0.5,0.3,0.2c0.2-0.3,0.3-0.5,0.5-0.8c0-0.1-0.1-0.1-0.1-0.1
			c-0.2,0.2-0.5,0.4-0.7,0.7c0.1,0.1,0.2,0.2,0.3,0.3c0.8-1.1,1.5-2.2,2.3-3.3C52.1,85.2,51.8,85.1,51.7,85.2L51.7,85.2z"/>
		<path class="st2" d="M51.4,86.3c-0.6,0.6-1.1,1.3-1.3,2.1c0,0.2,0.2,0.3,0.3,0.2c0.2-0.3,0.4-0.5,0.6-0.8c0.1-0.1-0.1-0.2-0.1-0.1
			c-0.3,0.2-0.5,0.4-0.7,0.7c0.1,0.1,0.2,0.1,0.3,0.2c0.3-0.7,0.7-1.4,1.2-1.9C51.9,86.4,51.6,86.1,51.4,86.3L51.4,86.3z"/>
		<path class="st2" d="M58.9,78.8c-1.2,1.4-2.5,2.7-3.8,4c-1.3,1.3-2.8,2.4-4,3.8c-0.1,0.1,0,0.2,0.1,0.1c1.5-0.8,2.8-2.2,4-3.4
			c1.4-1.4,2.6-2.8,3.8-4.4C59.1,78.8,59,78.7,58.9,78.8L58.9,78.8z"/>
		<path class="st2" d="M59.2,79.2c-2.1,1.8-4,3.8-5.6,6c-0.1,0.1,0.1,0.3,0.2,0.2C55.6,83.4,57.4,81.3,59.2,79.2
			C59.3,79.3,59.2,79.2,59.2,79.2L59.2,79.2z"/>
		<path class="st2" d="M102.3,41.8c0.9,0.1,1.8-0.3,2.6-0.7c0.8-0.4,1.7-0.8,2.3-1.5c0.1-0.1,0-0.2-0.1-0.2
			c-0.9,0.3-1.7,0.8-2.5,1.2c-0.7,0.3-1.7,0.5-2.3,1C102.3,41.7,102.3,41.8,102.3,41.8L102.3,41.8z"/>
		<path class="st2" d="M101.6,41.7c1.2-0.1,2.5-0.5,3.7-0.9c1.4-0.4,2.8-0.8,4.1-1.4c0.1-0.1,0.1-0.3-0.1-0.3c-1.4,0.2-2.7,0.6-4,1
			c-1.3,0.4-2.6,0.7-3.8,1.4C101.5,41.6,101.5,41.7,101.6,41.7z"/>
		<path class="st2" d="M103.6,41.2c7.4-1.7,14.8-5.5,21.5-9.1c0.1-0.1,0-0.3-0.1-0.2c-3.5,1.6-7,3.3-10.6,4.8
			C110.8,38.2,107,39.4,103.6,41.2C103.5,41.2,103.5,41.2,103.6,41.2z"/>
	</g>
</g>
</svg>
