<svg width="40" height="39" viewBox="0 0 40 39" fill="none" xmlns="http://www.w3.org/2000/svg">
<path d="M39.6933 12.537H0V8.86704L19.8466 0L39.6933 8.8721L39.6933 12.537ZM4.07112 9.97781H35.6285L19.8466 2.92781L4.07112 9.97781ZM21.4369 39H18.2564V11.2573H21.437L21.4369 39ZM39.6933 39H36.5128V33.7449H29.558V39H26.3775V31.1856H39.6933V39ZM39.6933 32.4652H36.5128V22.6718H39.6933V32.4652ZM13.3159 39H10.1354V33.7449H3.18058V39H0V31.1856H13.3159V39ZM3.18053 32.4652H0V22.6718H3.18053V32.4652ZM32.0176 27.2272H7.67573V24.6681H32.0176V27.2272Z" fill="#233038" fill-opacity="0.8"/>
</svg>
