<svg width="53" height="35" viewBox="0 0 53 35" fill="none" xmlns="http://www.w3.org/2000/svg">
<g clip-path="url(#clip0_119_5117)">
<path d="M38.0686 33.9C39.3031 26.9886 36.7365 18.8117 30.0615 15.5361C27.1534 14.11 23.7329 13.8082 20.6589 14.9179C17.5849 16.0277 14.95 18.359 13.2666 21.2209C11.0611 24.9736 10.4512 29.4222 11.1538 33.681C11.2807 34.4597 12.2517 34.8929 12.9543 34.7031C13.7838 34.4743 14.1059 33.6858 13.979 32.9071C13.4618 29.7775 13.9107 26.4483 15.2525 23.713C16.4724 21.2258 18.229 19.2595 20.6833 18.0573C20.776 18.0135 20.8638 17.9697 20.9566 17.9259C20.9566 17.9259 21.181 17.8285 21.059 17.8772C21.0151 17.8967 21.2981 17.7847 21.3762 17.7555C21.708 17.6338 22.0398 17.5267 22.3813 17.4391C23.1523 17.2396 23.4694 17.1909 24.1721 17.1617C24.5088 17.1471 24.8454 17.1471 25.1772 17.1617C25.5871 17.1812 25.7676 17.2006 26.0067 17.2444C26.6752 17.3613 27.3339 17.5365 27.9731 17.7798C28.3635 17.9259 28.9832 18.2325 29.5199 18.5635C30.1737 18.9626 30.4616 19.1767 31.0032 19.6634C32.106 20.6515 32.833 21.5763 33.5552 22.832C35.302 25.874 35.8875 29.5682 35.2532 33.1164C35.1166 33.8903 35.463 34.6885 36.2779 34.9124C36.9854 35.1071 37.9369 34.6739 38.0784 33.8903L38.0686 33.9Z" fill="#CFCFCF" fill-opacity="0.998047"/>
<path d="M17.1759 8.57112C17.21 11.8516 18.8641 15.2635 22.0065 16.5971C25.1488 17.9307 28.4814 16.6458 30.4234 13.9688C32.463 11.1605 32.5704 7.17911 31.0187 4.13711C29.4671 1.09511 26.3589 -0.579203 23.1092 0.165478C19.3326 1.02697 17.2149 4.9402 17.1759 8.57112C17.1564 10.4499 20.084 10.4499 20.1035 8.57112C20.1182 7.36406 20.3963 6.21053 21.0111 5.18356C21.5234 4.32206 22.3041 3.58712 23.1385 3.21234C24.9195 2.41899 26.9639 3.21234 28.0813 4.90613C29.3548 6.83354 29.5207 9.51536 28.4912 11.5255C27.9935 12.499 27.3543 13.2339 26.4906 13.7304C25.627 14.2268 24.6706 14.3485 23.8119 14.1392C22.7725 13.8861 21.8601 13.2242 21.2697 12.3627C20.4743 11.1994 20.1182 9.95341 20.1035 8.56626C20.084 6.68752 17.1564 6.68265 17.1759 8.56626V8.57112Z" fill="#CFCFCF" fill-opacity="0.998047"/>
<path d="M33.5509 10.5521C33.585 13.6282 35.1367 16.8308 38.0838 18.0865C41.031 19.3422 44.2319 18.1352 46.0568 15.5799C47.8817 13.0246 48.0378 9.27201 46.6081 6.42957C45.1785 3.58713 42.2508 1.98582 39.1915 2.64289C35.6051 3.41191 33.5899 7.13045 33.5509 10.5521C33.5314 12.4308 36.459 12.4308 36.4785 10.5521C36.4931 9.43263 36.7371 8.41052 37.2982 7.47115C37.7667 6.68266 38.4644 6.02559 39.211 5.68976C40.021 5.32472 40.8017 5.30525 41.6799 5.59728C42.0117 5.70923 41.8458 5.64108 42.1581 5.81144C42.2899 5.88444 42.4216 5.96232 42.5485 6.04993C42.5631 6.05966 42.7729 6.20568 42.6217 6.09373C43.0559 6.4247 43.4414 6.86275 43.661 7.19372C44.8223 8.94591 44.9931 11.3649 44.0708 13.1998C43.5927 14.1489 42.9974 14.8303 42.1532 15.2927C41.4848 15.6626 40.5723 15.7892 39.8843 15.6334C37.7618 15.1418 36.4931 12.8835 36.4688 10.557C36.4492 8.67822 33.5216 8.67335 33.5411 10.557L33.5509 10.5521Z" fill="#CFCFCF" fill-opacity="0.998047"/>
<path d="M4.14273 16.0034C4.17688 18.8994 5.66998 21.7759 8.44635 22.9051C11.2227 24.0343 13.8918 22.7834 15.4971 20.5786C17.2293 18.1888 17.3122 14.8061 15.985 12.2264C14.6578 9.64683 12.0278 8.25968 9.26609 8.84375C6.01154 9.53489 4.18176 12.9079 4.14273 16.0083C4.11833 17.887 7.04597 17.887 7.07036 16.0083C7.08012 15.0932 7.28994 14.2025 7.73884 13.4238C7.80227 13.3118 7.87546 13.2048 7.94378 13.0977C7.96817 13.0587 8.16335 12.8008 8.0316 12.9663C8.16823 12.791 8.32925 12.6256 8.49027 12.4747C8.5781 12.3919 8.67081 12.3092 8.76351 12.2313C8.71472 12.2703 8.5781 12.3579 8.81719 12.1972C8.89526 12.1437 8.97821 12.0902 9.06116 12.0415C9.11971 12.0074 9.48567 11.8176 9.39784 11.8565C9.22218 11.9344 9.65156 11.7689 9.62229 11.7787C9.715 11.7495 9.80771 11.7251 9.90041 11.7008C9.99312 11.6765 10.0858 11.657 10.1834 11.6424C9.92481 11.6862 10.2322 11.6424 10.3005 11.6424C10.5201 11.6424 10.7397 11.6326 10.9592 11.657C10.7006 11.6229 11.008 11.6716 11.0666 11.6911C11.2032 11.73 11.3447 11.7641 11.4813 11.8079C11.5399 11.8273 11.8131 11.9539 11.5984 11.8468C11.6863 11.8857 11.7692 11.9295 11.8522 11.9782C11.979 12.0464 12.306 12.2654 12.306 12.2654C12.3157 12.2751 12.5987 12.5282 12.7061 12.6402C12.7939 12.7278 12.8768 12.8251 12.9549 12.9176C13.0183 12.9955 13.0183 12.9955 12.9598 12.9176C13.0037 12.9809 13.0476 13.0441 13.0915 13.1074C13.5892 13.8862 13.9015 14.7379 13.9503 15.5799C14.0089 16.5582 13.843 17.556 13.4477 18.325C13.2282 18.7534 13.0281 19.0454 12.8085 19.2887C12.6573 19.4542 12.4963 19.61 12.3304 19.7511C12.1254 19.9263 12.5987 19.5808 12.223 19.8339C12.101 19.9166 11.979 19.9896 11.8522 20.0626C11.3008 20.3693 10.5055 20.4861 9.90041 20.3352C9.80771 20.3109 9.715 20.2865 9.62229 20.2573C9.60277 20.2524 9.20754 20.0821 9.44175 20.194C9.20266 20.0821 8.97333 19.9458 8.75864 19.7949C8.54394 19.644 8.99773 20.014 8.65129 19.7073C8.53906 19.61 8.43172 19.5078 8.32925 19.4007C8.12919 19.1914 8.07552 19.1281 7.98281 18.9967C7.34361 18.0671 7.08012 17.1131 7.06548 16.0229C7.04109 14.1441 4.11345 14.1393 4.13785 16.0229L4.14273 16.0034Z" fill="#CFCFCF" fill-opacity="0.998047"/>
<path d="M52.639 33.9001C53.5319 29.4758 52.7854 24.6037 50.0431 20.9338C47.6474 17.7264 43.9049 15.5215 39.7964 15.8574C37.0249 16.0861 34.5218 17.3224 32.5359 19.2498C31.1794 20.5591 33.2531 22.6228 34.6047 21.3135C35.9563 20.0042 37.6397 19.06 39.5232 18.8069C39.8794 18.7582 40.3283 18.7436 40.7235 18.7485C40.9284 18.7485 41.1334 18.7631 41.3383 18.7777C41.4408 18.7874 41.5432 18.7971 41.6408 18.8069C41.4359 18.7825 41.7043 18.8166 41.7774 18.8312C42.1483 18.8994 42.5191 18.9821 42.8802 19.094C43.0705 19.1525 43.2608 19.2157 43.4511 19.2839C43.5194 19.3082 43.5926 19.3374 43.6609 19.3666C43.7878 19.4201 43.5828 19.3277 43.7975 19.425C46.7056 20.7927 48.6671 23.4258 49.5503 26.5068C50.1651 28.6483 50.2676 30.8824 49.8138 33.1262C49.6577 33.9 50.0383 34.7031 50.8385 34.9222C51.5606 35.1217 52.4828 34.6788 52.639 33.9001Z" fill="#CFCFCF" fill-opacity="0.998047"/>
<path d="M1.48863 34.9708H45.1202C47.1207 34.9708 49.1408 35.0438 51.1414 34.9708C51.1706 34.9708 51.1999 34.9708 51.2292 34.9708C53.1126 34.9708 53.1175 32.0505 51.2292 32.0505H7.59764C5.59709 32.0505 3.57702 31.9775 1.57646 32.0505C1.54719 32.0505 1.51791 32.0505 1.48863 32.0505C-0.394813 32.0505 -0.399692 34.9708 1.48863 34.9708Z" fill="#CFCFCF" fill-opacity="0.998047"/>
<path d="M14.8534 21.4643C11.1694 19.6294 6.9585 20.2962 3.95279 23.0608C1.09347 25.6842 -0.199573 29.7094 0.0248793 33.5106C0.0687939 34.2553 0.659201 35.0292 1.4887 34.9708H1.5131C2.30356 34.9173 2.97691 34.3381 2.97691 33.5106C2.97691 32.7611 2.30844 31.9969 1.5131 32.0505H1.4887C1.97664 32.5372 2.46458 33.0239 2.95252 33.5106C2.77198 30.4638 3.66003 27.4315 5.79233 25.3386C6.6755 24.4723 7.76848 23.8201 8.93954 23.5086C9.67632 23.3139 10.0911 23.2701 10.945 23.3139C11.7989 23.3577 12.6186 23.6059 13.3749 23.9807C14.0824 24.3311 14.9607 24.1705 15.3755 23.455C15.7561 22.8077 15.5609 21.8099 14.8485 21.4595L14.8534 21.4643Z" fill="#CFCFCF" fill-opacity="0.998047"/>
</g>
<defs>
<clipPath id="clip0_119_5117">
<rect width="53" height="35" fill="white"/>
</clipPath>
</defs>
</svg>
