<svg width="43" height="47" viewBox="0 0 43 47" fill="none" xmlns="http://www.w3.org/2000/svg">
<g clip-path="url(#clip0_119_5127)">
<path d="M7.88589 44.053C6.48054 44.053 5.07021 44.0676 3.66485 44.053C3.60526 44.053 3.5407 44.053 3.48111 44.0482C3.68968 44.0676 3.28744 43.9509 3.46125 44.0384C3.40662 44.0141 3.12356 43.8147 3.24771 43.9169C3.11363 43.8099 3.15336 43.8731 3.05404 43.664C3.00935 43.5667 3.00935 43.5862 3.00438 43.4014C3.00438 43.3819 3.00438 43.3576 3.00438 43.3382C3.00438 43.0075 3.00438 42.6817 3.00438 42.351V26.887C3.00438 26.0019 2.93983 24.9223 3.09377 24.2075C3.35696 22.9966 3.93798 22.0192 4.97586 21.2363C5.74061 20.6576 6.84801 20.2977 7.90079 20.288C8.50663 20.2831 9.11248 20.288 9.72329 20.288H34.5976C34.7665 20.288 34.9304 20.288 35.0992 20.288C36.1718 20.2977 37.309 20.6722 38.0837 21.2849C39.4792 22.3936 39.9956 23.8039 39.9956 25.501V40.4593C39.9956 41.4222 40.0055 42.3802 39.9956 43.343C39.9956 43.6056 40.0155 43.5473 39.9062 43.7321C39.8069 43.9071 39.9062 43.7904 39.7523 43.9169C39.8764 43.8147 39.5934 44.0141 39.5387 44.0384C39.7175 43.9509 39.3153 44.0676 39.5189 44.0482C39.4543 44.053 39.3898 44.053 39.3252 44.053C38.5654 44.0579 37.8106 44.053 37.0508 44.053H35.1141C33.1972 44.053 33.1923 46.9708 35.1141 46.9708C36.5492 46.9708 38.0043 47.0388 39.4394 46.9708C41.396 46.8784 42.8758 45.3903 42.9752 43.4841C42.9901 43.2361 42.9752 42.9832 42.9752 42.7303V26.8821C42.9752 25.7247 43.0248 24.5674 42.7815 23.4294C42.1061 20.3123 39.3649 17.876 36.1569 17.4529C35.3078 17.3411 34.4536 17.3703 33.5995 17.3703H8.18882C6.06836 17.3703 4.06709 18.0462 2.50779 19.4856C0.804475 21.0466 0.0248239 23.2203 0.0248239 25.4621V40.9894C0.0248239 41.8404 -0.0298013 42.7109 0.0297898 43.5667C0.16387 45.4779 1.69834 46.9075 3.64499 46.9708C4.37001 46.9951 5.10001 46.9708 5.82503 46.9708H7.88589C9.80274 46.9708 9.80771 44.053 7.88589 44.053Z" fill="#CFCFCF" fill-opacity="0.998047"/>
<path d="M3.00472 28.1465V7.95085C3.00472 7.75147 3.00472 7.54723 3.00472 7.34785C3.03451 6.385 3.46655 5.25194 4.08232 4.55168C4.87191 3.66177 5.66149 3.20466 6.84835 2.9761C7.03705 2.9372 7.46909 2.91774 7.84153 2.91774C8.64601 2.91774 9.45546 2.91774 10.2599 2.91774C17.1179 2.91774 23.9808 2.91774 30.8388 2.91774H34.2752C34.5682 2.91774 34.8612 2.91774 35.1542 2.91774C35.6011 2.91774 35.9735 2.9372 36.2963 3.01014C38.4863 3.49157 39.9562 5.35406 39.981 7.51805C39.986 8.10647 39.981 8.69974 39.981 9.28815V28.1416C39.981 30.0187 42.9606 30.0236 42.9606 28.1416V7.76606C42.9606 5.75768 42.2952 3.86601 40.8997 2.3731C39.5043 0.880186 37.359 0.00972581 35.2237 0C34.4689 0 33.7091 0 32.9542 0H8.56159C7.55351 0 6.56529 0 5.58203 0.277186C2.77132 1.05525 0.571409 3.46239 0.139373 6.2926C0.000327347 7.17765 0.025157 8.05784 0.025157 8.94289V28.1416C0.025157 30.0187 3.00472 30.0236 3.00472 28.1416V28.1465Z" fill="#CFCFCF" fill-opacity="0.998047"/>
<path d="M13.3038 5.00879H6.34154C5.56188 5.00879 4.817 5.67987 4.85176 6.46766C4.88652 7.25545 5.50726 7.92653 6.34154 7.92653H13.3038C14.0834 7.92653 14.8283 7.25545 14.7936 6.46766C14.7588 5.67987 14.138 5.00879 13.3038 5.00879Z" fill="#CFCFCF" fill-opacity="0.998047"/>
<path d="M35.8991 5.00879H31.7576C30.9779 5.00879 30.233 5.67987 30.2678 6.46766C30.3025 7.25545 30.9233 7.92653 31.7576 7.92653H35.8991C36.6788 7.92653 37.4237 7.25545 37.3889 6.46766C37.3542 5.67987 36.7334 5.00879 35.8991 5.00879Z" fill="#CFCFCF" fill-opacity="0.998047"/>
<path d="M25.0882 18.8292C25.0882 17.5503 25.0782 16.2713 25.0882 14.9972C25.0882 14.9486 25.0882 14.9 25.0882 14.8514C25.0981 14.5547 25.0137 14.8659 25.1477 14.6131C25.1179 14.6714 25.1179 14.6763 25.0782 14.7346C25.3116 14.3991 24.9392 14.8465 25.2421 14.5936C25.0782 14.7298 25.4507 14.5936 25.2222 14.6082C25.2471 14.6082 25.2719 14.6082 25.2967 14.6082C25.7685 14.5936 26.2403 14.6082 26.707 14.6082H33.5849C33.6792 14.6082 33.7736 14.6082 33.8679 14.6082C33.7636 14.6033 33.714 14.5304 33.9275 14.6228L33.8481 14.5888C33.997 14.6812 34.0169 14.6909 33.9076 14.6228C33.9325 14.5888 34.0715 14.8222 33.9573 14.6812C33.9275 14.5596 33.9374 14.5839 33.9871 14.759C33.9871 14.6325 33.997 14.6617 33.997 14.8514C34.0467 16.1741 33.997 17.5065 33.997 18.8341C33.997 20.7112 36.9766 20.716 36.9766 18.8341C36.9766 17.5114 37.0213 16.1838 36.9766 14.8659C36.917 13.1396 35.6507 11.7634 33.863 11.6953C33.4458 11.6807 33.0187 11.6953 32.6016 11.6953H27.0845C26.4985 11.6953 25.9175 11.6856 25.3315 11.6953C23.9311 11.7148 22.8038 12.4928 22.2973 13.7718C21.9745 14.5936 22.0987 15.6391 22.0987 16.5047V18.8389C22.0987 20.716 25.0782 20.7209 25.0782 18.8389L25.0882 18.8292Z" fill="#CFCFCF" fill-opacity="0.998047"/>
<path d="M8.79421 18.8292C8.79421 17.5503 8.78428 16.2713 8.79421 14.9972C8.79421 14.9486 8.79421 14.9 8.79421 14.8514C8.80414 14.5547 8.71972 14.8659 8.8538 14.6131C8.824 14.6714 8.82401 14.6763 8.78428 14.7346C9.01768 14.3991 8.64523 14.8465 8.94815 14.5936C8.78428 14.7298 9.15672 14.5936 8.92829 14.6082C8.95312 14.6082 8.97795 14.6082 9.00278 14.6082C9.47454 14.5936 9.9463 14.6082 10.4131 14.6082H17.2909C17.3853 14.6082 17.4796 14.6082 17.574 14.6082C17.4697 14.6033 17.42 14.5304 17.6336 14.6228L17.5541 14.5888C17.7031 14.6812 17.723 14.6909 17.6137 14.6228C17.6385 14.5888 17.7776 14.8222 17.6634 14.6812C17.6336 14.5596 17.6435 14.5839 17.6932 14.759C17.6932 14.6325 17.7031 14.6617 17.7031 14.8514C17.7528 16.1741 17.7031 17.5065 17.7031 18.8341C17.7031 20.7112 20.6827 20.716 20.6827 18.8341C20.6827 17.5114 20.7273 16.1838 20.6827 14.8659C20.6231 13.1396 19.3567 11.7634 17.569 11.6953C17.1519 11.6807 16.7248 11.6953 16.3077 11.6953H10.7905C10.2045 11.6953 9.62352 11.6856 9.03754 11.6953C7.63715 11.7148 6.50988 12.4928 6.00336 13.7718C5.68057 14.5936 5.80472 15.6391 5.80472 16.5047V18.8389C5.80472 20.716 8.78428 20.7209 8.78428 18.8389L8.79421 18.8292Z" fill="#CFCFCF" fill-opacity="0.998047"/>
<path d="M39.3448 30.9476H5.09971C3.88803 30.9476 2.68627 30.8503 1.62356 31.5652C0.426772 32.3675 0.0245318 33.6173 0.0245318 34.9692V37.9988C0.0245318 39.7981 -0.0350593 41.6022 0.0245318 43.4015C0.0890889 45.4342 1.68812 46.9465 3.75395 46.9708C4.82659 46.9854 5.90419 46.9708 6.97684 46.9708H7.8856C8.69008 46.9708 9.37538 46.3046 9.37538 45.512V41.787C9.37538 41.5925 9.37538 41.398 9.37538 41.2034C9.37538 41.1499 9.38531 40.8873 9.37538 41.0186C9.36545 41.1694 9.47966 40.7561 9.38531 40.9554C9.38531 40.9506 9.62368 40.5907 9.50449 40.7415C9.75776 40.4156 9.43994 40.7658 9.62368 40.6248C9.6634 40.5956 9.95639 40.4594 9.76769 40.5421C10.011 40.44 9.76272 40.508 10.021 40.4983C10.0607 40.4983 10.1004 40.4983 10.1401 40.4983C12.1116 40.4789 14.088 40.4983 16.0595 40.4983H32.5613C32.6954 40.4983 32.8344 40.4886 32.9685 40.4983C33.3459 40.5178 32.8742 40.4108 33.2168 40.5421C33.038 40.474 33.4105 40.6588 33.4254 40.6685C33.2416 40.5372 33.5346 40.8387 33.4601 40.7171C33.3757 40.581 33.6637 41.1499 33.5694 40.9019C33.629 41.0527 33.6141 41.1402 33.6141 41.4125V45.5168C33.6141 46.3046 34.2944 46.9757 35.1039 46.9757H38.9326C39.8265 46.9757 40.6806 46.8444 41.4255 46.3144C42.4187 45.6044 42.9302 44.5491 42.96 43.3528C43.0345 40.6831 42.96 38.0036 42.96 35.3339C42.96 34.8233 42.9798 34.3176 42.8805 33.807C42.5577 32.1293 41.0332 31.0156 39.3398 30.9524C38.5353 30.9233 37.85 31.643 37.85 32.4113C37.85 33.2283 38.5304 33.841 39.3398 33.8702C39.5484 33.8799 39.4888 33.8556 39.6626 33.9577C39.757 34.0161 39.8513 34.1279 39.8066 34.0598C39.7768 34.0112 40.0301 34.4537 39.9506 34.2981C39.8811 34.1717 39.9953 34.585 39.9754 34.3565C39.9804 34.4245 39.9804 34.4878 39.9804 34.5558C39.9804 34.8671 39.9804 35.1734 39.9804 35.4847V43.0611C39.9804 43.1632 39.9804 43.2653 39.9804 43.3674C39.9804 43.4355 39.9804 43.4939 39.9754 43.5668C39.9754 43.4696 40.0201 43.4404 39.9357 43.6495C40.0003 43.4793 39.8165 43.8489 39.8116 43.8586C39.901 43.7127 39.7669 43.8926 39.7371 43.9121C39.891 43.7856 39.6427 43.9753 39.5931 43.9996C39.4938 44.0434 39.5285 44.0434 39.3398 44.0531C39.2057 44.058 39.0667 44.0531 38.9276 44.0531H35.0989L36.5887 45.512V41.6216C36.5887 40.7171 36.4745 39.8515 35.9183 39.0929C35.2082 38.1301 34.1504 37.6146 32.9487 37.5806C31.0368 37.5222 29.115 37.5806 27.2031 37.5806C21.5419 37.5806 15.8857 37.5465 10.2246 37.5806C8.05444 37.5952 6.42065 39.1318 6.39582 41.2812C6.38092 42.6915 6.39582 44.1017 6.39582 45.5168L7.8856 44.058H5.2189C4.74713 44.058 4.2704 44.058 3.79864 44.058C3.68939 44.058 3.58014 44.058 3.47585 44.0531C3.59007 44.0628 3.37654 44.0045 3.31694 43.9704C3.32688 43.9704 3.10838 43.8391 3.21266 43.9023C3.32191 43.9753 3.05872 43.7078 3.16797 43.8634C3.10838 43.7759 3.05872 43.6884 3.00906 43.596C3.03389 43.6349 3.05872 43.7224 3.01899 43.5765C2.94947 43.3334 3.01899 43.7467 2.99912 43.4841C2.99416 43.4161 2.99912 43.4306 2.99912 43.4015C2.99912 43.348 2.99912 43.2896 2.99912 43.2361C2.99912 42.9152 2.99912 42.5991 2.99912 42.2781V35.6889C2.99912 35.3631 2.99912 35.0373 2.99912 34.7066C2.99912 34.6482 2.99912 34.585 2.99912 34.5267C2.99912 34.4634 3.00906 34.2689 2.99912 34.3856C2.98919 34.5315 3.09348 34.1717 3.02395 34.2932C2.98423 34.3662 3.163 34.055 3.16797 34.055C3.11831 34.1425 3.25239 33.9917 3.24742 33.9917C3.43613 33.8459 3.3666 33.8945 3.54538 33.8653C3.38647 33.8945 3.57517 33.8653 3.65959 33.8653C3.73408 33.8653 3.80857 33.8653 3.88306 33.8653C4.2704 33.8653 4.65278 33.8653 5.04012 33.8653H30.8431C33.629 33.8653 36.4248 33.9431 39.2107 33.8653C39.2504 33.8653 39.2951 33.8653 39.3348 33.8653C41.2517 33.8653 41.2567 30.9476 39.3348 30.9476H39.3448Z" fill="#CFCFCF" fill-opacity="0.998047"/>
</g>
<defs>
<clipPath id="clip0_119_5127">
<rect width="43" height="47" fill="white"/>
</clipPath>
</defs>
</svg>
