<svg width="26" height="44" viewBox="0 0 26 44" fill="none" xmlns="http://www.w3.org/2000/svg">
<g clip-path="url(#clip0_119_5137)">
<path d="M8.14717 41.2856H4.8874C4.46637 41.2856 4.04967 41.2811 3.62864 41.2856C3.43765 41.2856 3.17288 41.205 3.08173 41.1378C3.01228 41.084 2.93415 41.0079 2.87772 40.9407C2.59558 40.6182 2.91679 41.0213 2.78657 40.8108C2.76487 40.775 2.65201 40.5062 2.70844 40.6675C2.70844 40.6585 2.62597 40.2778 2.64333 40.4345C2.5869 39.8702 2.63899 39.2744 2.63899 38.71V26.8937C2.63899 26.2576 2.61295 25.6126 2.66503 24.981C2.80827 23.2968 3.87171 21.6126 5.33014 20.7167C6.37188 20.0762 7.34851 19.9149 8.57689 19.9149H16.0644C16.8326 19.9149 17.6139 19.8746 18.3779 19.9373C19.9926 20.0672 21.6333 21.1154 22.5144 22.5667C23.1612 23.6417 23.3652 24.6406 23.3652 25.8993V39.9015C23.3652 40.0672 23.3739 40.3315 23.3652 40.4121C23.3044 40.9138 22.8487 41.299 22.3625 41.2901C21.221 41.2767 20.0794 41.2901 18.9422 41.2901H17.8614C16.1859 41.2901 16.1816 43.9777 17.8614 43.9777H21.3121C21.7462 43.9777 22.1846 44.0001 22.6143 43.9642C23.9078 43.8612 25.0841 43.0728 25.6266 41.841C26.0216 40.9407 25.9695 40.0135 25.9695 39.0549V26.7638C25.9695 25.8366 25.9782 24.9362 25.8176 24.0135C25.4226 21.7291 24.0033 19.6865 22.1108 18.4681C19.6974 16.9138 16.837 17.2229 14.1241 17.2229H9.77054C8.76353 17.2229 7.76086 17.1871 6.75819 17.3528C2.79525 18.0068 0.0476717 21.7291 0.0389905 25.7828C0.0389905 28.1882 0.0389905 30.5891 0.0389905 32.9945C0.0389905 35.3998 0.0259688 37.7291 0.0389905 40.0941C0.0476717 42.1412 1.44099 43.8343 3.46804 43.9642C4.62697 44.0404 5.81195 43.9687 6.97522 43.9687H8.15151C9.82697 43.9687 9.83131 41.2811 8.15151 41.2811L8.14717 41.2856Z" fill="#CFCFCF" fill-opacity="0.998047"/>
<path d="M2.64277 26.1192V8.43944C2.64277 7.53462 2.7426 6.697 3.05078 5.97583C3.71923 4.41256 4.93893 3.33306 6.45813 2.89409C7.20036 2.67908 7.89051 2.69252 8.73693 2.69252H12.0444C14.0541 2.69252 16.0638 2.68356 18.0735 2.69252C20.9903 2.70596 23.3429 5.0755 23.3733 8.09005C23.3863 9.49655 23.3733 10.8986 23.3733 12.3051V26.1147C23.3733 27.8437 25.9777 27.8482 25.9777 26.1147V13.6085C25.9777 11.8168 25.9777 10.0296 25.9777 8.23787C25.969 4.64101 23.764 1.39353 20.3913 0.340895C19.4017 0.0363037 18.3903 0.00942801 17.3747 0.00942801H14.0281C11.9837 0.00942801 9.93926 -0.00848912 7.8992 0.00942801C3.87115 0.040783 0.511551 3.18076 0.081835 7.31514C-0.0744254 8.80226 0.0384293 10.3476 0.0384293 11.8347V26.1192C0.0384293 27.8482 2.64277 27.8526 2.64277 26.1192Z" fill="#CFCFCF" fill-opacity="0.998047"/>
<path d="M11.8927 5.63049H7.4653C6.78383 5.63049 6.13275 6.24863 6.16313 6.97428C6.19352 7.69992 6.73609 8.31806 7.4653 8.31806H11.8927C12.5742 8.31806 13.2252 7.69992 13.1949 6.97428C13.1645 6.24863 12.6219 5.63049 11.8927 5.63049Z" fill="#CFCFCF" fill-opacity="0.998047"/>
<path d="M9.44554 18.5666V14.7771C9.44554 14.5755 9.44554 14.3695 9.44554 14.1679C9.44554 14.159 9.44554 14.15 9.44554 14.141C9.44554 14.1276 9.46724 13.9126 9.44554 14.0515C9.42383 14.1903 9.46724 13.9798 9.47158 13.9708C9.47158 13.9619 9.54971 13.7693 9.49328 13.8902C9.43685 14.0111 9.53235 13.8275 9.54103 13.823C9.54537 13.8185 9.66256 13.6438 9.58443 13.7558C9.49762 13.8857 9.73635 13.6394 9.61048 13.729C9.49328 13.8141 9.87091 13.5722 9.74069 13.6349C9.62784 13.6886 10.114 13.5632 9.84921 13.5901C9.90998 13.5856 9.97508 13.5856 10.0402 13.5856C10.2138 13.5856 10.3874 13.5856 10.5611 13.5856H14.9754C15.3661 13.5856 15.7741 13.5498 16.1647 13.5901C15.9607 13.5722 16.2472 13.6214 16.3167 13.6528C16.13 13.5722 16.3904 13.711 16.4425 13.7558C16.2689 13.6125 16.5467 13.8992 16.4078 13.72C16.4469 13.7693 16.4729 13.8275 16.5076 13.8812C16.6162 14.0604 16.4512 13.7155 16.525 13.9126C16.5467 13.9708 16.5641 14.038 16.5771 14.1007C16.5727 14.0739 16.5641 13.9126 16.5684 14.0739C16.5684 14.1052 16.5684 14.1321 16.5684 14.159C16.5684 14.2351 16.5684 14.3068 16.5684 14.3829V18.5711C16.5684 20.3001 19.1727 20.3045 19.1727 18.5711V14.4636C19.1727 13.3572 18.8602 12.3314 17.9834 11.6237C17.2716 11.0459 16.4642 10.907 15.5918 10.907H10.8562C10.2876 10.907 9.67993 10.8622 9.12867 11.0279C7.74837 11.4356 6.87592 12.739 6.84554 14.1903C6.81515 15.6416 6.84554 17.1153 6.84554 18.5755C6.84554 20.3045 9.44988 20.309 9.44988 18.5755L9.44554 18.5666Z" fill="#CFCFCF" fill-opacity="0.998047"/>
<path d="M22.3974 26.7055H6.00309C5.22179 26.7055 4.44049 26.6876 3.66353 26.7055C1.53231 26.7503 0.0391538 28.4703 0.0391538 30.6249V39.6999C0.0391538 40.2419 0.0304727 40.7749 0.182393 41.3035C0.629471 42.8891 2.0445 43.9239 3.62012 43.9687C4.97438 44.0045 6.33298 43.9687 7.68723 43.9687H8.15167C8.85485 43.9687 9.45384 43.355 9.45384 42.6249V38.6831C9.45384 38.4323 9.45384 38.1814 9.45384 37.9306C9.45384 37.6439 9.47555 37.523 9.53197 37.3707C9.73598 36.8242 10.1136 36.766 10.6996 36.766H14.975C15.166 36.766 15.3527 36.766 15.5437 36.766C15.7737 36.766 16.0211 36.8376 16.1253 36.9138C16.3336 37.075 16.3857 37.1646 16.4552 37.3035C16.5333 37.4603 16.5594 37.5902 16.5637 37.7693C16.568 37.9127 16.5637 38.0605 16.5637 38.2038V42.6204C16.5637 43.346 17.1583 43.9642 17.8659 43.9642H21.933C22.8705 43.9642 23.7604 43.8298 24.533 43.2206C25.4662 42.486 25.9567 41.4065 25.9784 40.2016C26.0305 37.2632 25.9784 34.3158 25.9784 31.3774C25.9784 30.8847 26.0001 30.3964 25.935 29.9082C25.6962 28.0582 24.1814 26.7592 22.3974 26.701C20.722 26.6473 20.722 29.3348 22.3974 29.3886C22.9313 29.4065 23.3784 29.8455 23.374 30.4188C23.374 30.7637 23.374 31.1041 23.374 31.4491V39.9239C23.374 40.0314 23.374 40.1389 23.374 40.2464C23.374 40.4703 23.3046 40.7212 23.2308 40.8242C23.0789 41.0347 22.9617 41.1109 22.8532 41.1646C22.6969 41.2452 22.5754 41.2721 22.4018 41.2766C22.2715 41.2811 22.137 41.2766 22.0024 41.2766H17.8702L19.1724 42.6204V38.3113C19.1724 37.3886 19.0856 36.4882 18.556 35.7044C17.8311 34.6338 16.7113 34.0874 15.4568 34.0784C13.942 34.065 12.4228 34.0784 10.9079 34.0784C10.0311 34.0784 9.17171 34.1769 8.42947 34.7145C7.38773 35.467 6.85819 36.6271 6.85384 37.9261C6.84516 39.4894 6.85384 41.0571 6.85384 42.6204L8.15601 41.2766H4.19742C4.01511 41.2766 3.83715 41.2766 3.65485 41.2766C3.34667 41.2766 3.13398 41.2139 2.88657 40.9317C2.71728 40.7391 2.66086 40.5241 2.64783 40.2643C2.64783 40.1523 2.64783 40.0358 2.64783 39.9239V31.1131C2.64783 30.925 2.64783 30.7368 2.64783 30.5487C2.64783 30.4815 2.66086 30.1635 2.64783 30.2934C2.70426 29.8768 2.89959 29.6036 3.29892 29.4334C3.11228 29.514 3.54633 29.3796 3.52897 29.3841C3.36837 29.4065 3.61144 29.3841 3.62446 29.3841C3.63748 29.3841 3.65051 29.3841 3.66353 29.3841C4.37104 29.3886 5.07855 29.3841 5.79041 29.3841H22.4018C24.0772 29.3841 24.0816 26.6965 22.4018 26.6965L22.3974 26.7055Z" fill="#CFCFCF" fill-opacity="0.998047"/>
</g>
<defs>
<clipPath id="clip0_119_5137">
<rect width="26" height="44" fill="white"/>
</clipPath>
</defs>
</svg>
