<svg width="41" height="41" viewBox="0 0 41 41" fill="none" xmlns="http://www.w3.org/2000/svg">
<g clip-path="url(#clip0_119_5145)">
<path d="M34.1985 38.0214H7.77854C7.45443 38.0214 7.12541 38.0214 6.8013 38.0214C5.17584 37.9969 3.65841 36.9566 3.16242 35.4353C2.94635 34.7679 2.95617 34.341 2.95617 33.6344V8.26393C2.95617 7.79774 2.95617 7.33646 2.95617 6.87027C2.96108 6.35011 2.97581 6.14891 3.13787 5.61893C3.35394 4.91228 3.89903 4.15166 4.45395 3.73945C5.29369 3.12114 6.05977 2.9543 7.05666 2.9543H33.948C34.9449 2.9543 35.711 3.12114 36.5507 3.73945C37.1056 4.14675 37.6507 4.91228 37.8668 5.61893C38.0289 6.14891 38.0436 6.35011 38.0485 6.87027C38.0485 7.33646 38.0485 7.79774 38.0485 8.26393V33.6344C38.0485 34.341 38.0583 34.7679 37.8423 35.4353C37.3463 36.9566 35.8288 37.9969 34.2034 38.0214C32.3078 38.0509 32.3029 40.9952 34.2034 40.9658C36.6244 40.9265 38.9079 39.6556 40.111 37.5356C40.7445 36.4119 40.9999 35.1752 40.9999 33.8994V11.2868C40.9999 9.80971 41.0146 8.33263 40.9999 6.86046C40.9655 3.06716 37.9257 0.0344869 34.1297 0.0148579C29.7444 -0.0145855 25.3689 0.00995067 20.9934 0.00995067C16.3429 0.00995067 11.6924 0.000136184 7.04193 0.00995067C3.22135 0.0197651 0.0588145 2.91504 0.00970682 6.80157C-0.00993625 8.0382 0.00970682 9.27973 0.00970682 10.5164V33.6344C0.00970682 34.4784 0.048993 35.3225 0.299442 36.1371C1.00168 38.4042 2.90215 40.2542 5.23968 40.7793C6.67853 41.1032 8.26962 40.9609 9.73303 40.9609H34.2034C36.0989 40.9609 36.1039 38.0165 34.2034 38.0165L34.1985 38.0214Z" fill="#CFCFCF" fill-opacity="0.998047"/>
<path d="M28.0262 8.3619H32.3575C32.4262 8.3619 32.495 8.3619 32.5588 8.3619C32.7209 8.35699 32.7012 8.44532 32.4311 8.32755C32.4655 8.34227 32.6325 8.39134 32.6668 8.38643C32.441 8.28338 32.3968 8.26375 32.5343 8.33245C32.5834 8.35699 32.6276 8.38153 32.6718 8.41097L32.4999 8.27357C32.5392 8.30792 32.5785 8.34227 32.6177 8.37662L32.6718 8.43551C32.77 8.55328 32.7405 8.51402 32.5834 8.32264C32.5834 8.35699 32.6767 8.4993 32.6963 8.52874L32.6079 8.32755C32.6227 8.37662 32.6374 8.4306 32.6521 8.48458C32.7356 8.76429 32.6521 8.12144 32.6325 8.4306C32.6325 8.45514 32.6325 8.47967 32.6325 8.50421C32.6325 9.26483 32.6325 10.0255 32.6325 10.7861V12.9698C32.6325 13.7402 33.3102 14.4763 34.1057 14.442C34.9012 14.4076 35.5789 13.7942 35.5789 12.9698C35.5789 11.4927 35.5789 10.0205 35.5789 8.54347C35.5789 6.83084 34.2923 5.4519 32.5588 5.41755C31.8271 5.40283 31.0954 5.41755 30.3588 5.41755H28.0213C27.2503 5.41755 26.5137 6.09475 26.548 6.88973C26.5824 7.6847 27.1963 8.3619 28.0213 8.3619H28.0262Z" fill="#CFCFCF" fill-opacity="0.998047"/>
<path d="M32.583 6.3353C30.5254 8.39143 28.4629 10.4525 26.4052 12.5086C26.1106 12.803 25.8209 13.0926 25.5262 13.387C24.9811 13.9317 24.9418 14.9328 25.5262 15.4677C26.1106 16.0026 27.0289 16.0516 27.6084 15.4677C29.666 13.4115 31.7285 11.3505 33.7861 9.29436C34.0808 8.99993 34.3705 8.7104 34.6652 8.41597C35.2103 7.87126 35.2495 6.87019 34.6652 6.3353C34.0808 5.80041 33.1625 5.75134 32.583 6.3353Z" fill="#CFCFCF" fill-opacity="0.998047"/>
<path d="M13.4649 32.1277C12.0211 32.1277 10.5773 32.1277 9.13357 32.1277C9.06482 32.1277 8.99607 32.1277 8.93223 32.1277C8.77018 32.1326 8.78982 32.0443 9.05991 32.1621C9.02554 32.1474 8.85857 32.0983 8.82419 32.1032C9.05009 32.2063 9.09429 32.2259 8.95679 32.1572C8.90768 32.1326 8.86348 32.1081 8.81928 32.0787L8.99116 32.2161C8.95187 32.1817 8.91259 32.1474 8.8733 32.113L8.81928 32.0541C8.72107 31.9364 8.75053 31.9756 8.90768 32.167C8.90768 32.1326 8.81437 31.9903 8.79473 31.9609L8.88312 32.1621C8.86839 32.113 8.85366 32.059 8.83893 32.0051C8.75544 31.7253 8.83893 32.3682 8.85857 32.059C8.85857 32.0345 8.85857 32.01 8.85857 31.9854C8.85857 31.2248 8.85857 30.4642 8.85857 29.7036C8.85857 28.9429 8.85857 28.2461 8.85857 27.5198C8.85857 26.7494 8.18088 26.0133 7.38534 26.0477C6.5898 26.082 5.91211 26.6954 5.91211 27.5198C5.91211 28.9969 5.91211 30.4691 5.91211 31.9462C5.91211 33.6588 7.19873 35.0377 8.93223 35.0721C9.66394 35.0868 10.3956 35.0721 11.1323 35.0721C11.9131 35.0721 12.689 35.0721 13.4698 35.0721C14.2506 35.0721 14.9774 34.3949 14.943 33.5999C14.9086 32.8049 14.2948 32.1277 13.4698 32.1277H13.4649Z" fill="#CFCFCF" fill-opacity="0.998047"/>
<path d="M8.90819 34.1544C10.9658 32.0983 13.0283 30.0373 15.0859 27.9811C15.3806 27.6867 15.6703 27.3972 15.965 27.1027C16.5101 26.558 16.5493 25.557 15.965 25.0221C15.3806 24.4872 14.4623 24.4381 13.8828 25.0221C11.8252 27.0782 9.76267 29.1392 7.70505 31.1954C7.41041 31.4898 7.12067 31.7793 6.82603 32.0738C6.28093 32.6185 6.24164 33.6196 6.82603 34.1544C7.41041 34.6893 8.32872 34.7384 8.90819 34.1544Z" fill="#CFCFCF" fill-opacity="0.998047"/>
</g>
<defs>
<clipPath id="clip0_119_5145">
<rect width="41" height="41" fill="white"/>
</clipPath>
</defs>
</svg>
