<svg width="40" height="28" viewBox="0 0 40 28" fill="none" xmlns="http://www.w3.org/2000/svg">
<g clip-path="url(#clip0_119_5153)">
<path d="M7.86595 4.14712C8.48657 3.5932 9.13673 3.26477 9.90019 3.07849C10.6193 2.90202 11.4369 2.89222 12.3038 3.00986C13.8209 3.21575 15.6876 3.93143 17.1653 4.58339C18.9139 5.3579 20.623 6.29418 22.5292 6.6079C24.4353 6.92163 26.5238 6.82849 28.4348 6.22555C30.6316 5.53437 32.6166 4.28437 34.2174 2.64222C35.5423 1.28437 33.4539 -0.798958 32.129 0.563787C29.6317 3.12261 26.0164 4.44614 22.5932 3.63241C20.8052 3.20594 19.1601 2.24516 17.4707 1.53928C15.7812 0.833395 13.88 0.201042 11.9541 0.034375C9.65884 -0.166605 7.48669 0.539277 5.77262 2.06869C5.17663 2.5981 5.23081 3.6079 5.77262 4.14712C6.36368 4.73535 7.26504 4.68143 7.86103 4.14712H7.86595Z" fill="#CFCFCF" fill-opacity="0.998047"/>
<path d="M7.86595 25.3529C8.48657 24.799 9.13673 24.4706 9.90019 24.2843C10.6193 24.1078 11.4369 24.098 12.3038 24.2157C13.8209 24.4216 15.6876 25.1372 17.1653 25.7892C18.9139 26.5637 20.623 27.5 22.5292 27.8137C24.4353 28.1274 26.5238 28.0343 28.4348 27.4314C30.6316 26.7402 32.6166 25.4902 34.2174 23.848C35.5423 22.4902 33.4539 20.4069 32.129 21.7696C29.6317 24.3284 26.0164 25.6519 22.5932 24.8382C20.8052 24.4118 19.1601 23.451 17.4707 22.7451C15.7812 22.0392 13.88 21.4069 11.9541 21.2402C9.65884 21.0392 7.48669 21.7451 5.77262 23.2745C5.17663 23.8039 5.23081 24.8137 5.77262 25.3529C6.36368 25.9412 7.26504 25.8872 7.86103 25.3529H7.86595Z" fill="#CFCFCF" fill-opacity="0.998047"/>
<path d="M2.21646 15.299C4.19159 14.0343 6.38343 13.75 8.7329 13.902C11.0824 14.0539 13.6239 14.7206 15.9931 15.4461C18.3623 16.1716 20.6034 17.0686 23.0169 17.4412C25.7948 17.8677 28.5876 17.7941 31.341 17.2304C34.0943 16.6667 36.9363 15.5049 39.2661 13.799C39.9064 13.3284 40.2315 12.5245 39.798 11.7892C39.4286 11.1569 38.4238 10.7892 37.7786 11.2598C33.7938 14.1765 28.4891 15.3726 23.6079 14.5784C21.2043 14.1863 18.9238 13.2647 16.6038 12.5637C14.1017 11.8039 11.5404 11.1765 8.92499 10.9804C6.0879 10.7696 3.1523 11.2157 0.728957 12.7696C0.0590886 13.1961 -0.21674 14.0735 0.197003 14.7794C0.586117 15.4461 1.54659 15.7402 2.21646 15.3088V15.299Z" fill="#CFCFCF" fill-opacity="0.998047"/>
</g>
<defs>
<clipPath id="clip0_119_5153">
<rect width="40" height="28" fill="white"/>
</clipPath>
</defs>
</svg>
