<svg width="15" height="31" viewBox="0 0 15 31" fill="none" xmlns="http://www.w3.org/2000/svg">
<g clip-path="url(#clip0_36_2650)">
<path d="M14.4086 15.5363H9.87695V31.0037H3.18684V15.5544H0V10.0551H3.14917C3.14917 9.76582 3.14164 9.52719 3.14917 9.29218C3.21321 7.79171 3.1228 6.26232 3.38649 4.79439C3.89879 1.93085 6.08363 0.162831 9.11226 0.0399012C11.0108 -0.0396416 12.9131 0.0254388 14.8644 0.0254388V5.33311C13.9453 5.33311 13.0111 5.33311 12.0768 5.33311C10.1557 5.33311 9.87318 5.60428 9.87318 7.45908C9.87318 8.28704 9.87318 9.1114 9.87318 10.0225H15.0038C14.8041 11.8954 14.612 13.6779 14.4124 15.5363H14.4086Z" fill="rgba(35, 48, 56, 0.8)"/>
</g>
<defs>
<clipPath id="clip0_36_2650">
<rect width="15" height="31" fill="#233038"/>
</clipPath>
</defs>
</svg>
