<svg width="30" height="30" viewBox="0 0 30 30" fill="none" xmlns="http://www.w3.org/2000/svg">
<g clip-path="url(#clip0_123_14492)">
<path d="M29.9671 8.92947C29.913 3.86075 26.0271 0.0290123 20.9292 0.0123526C17.0184 -0.000142244 12.9742 -0.012637 8.93841 0.0123526C3.93216 0.0498369 0.00879633 4.01069 0.00879633 9.03359C0.00879633 10.4122 0.00879633 11.7949 0.00879633 13.1735V14.9478C0.00879633 15.5975 0.00879633 16.2431 0.00879633 16.8928C0.00879633 18.2714 0.00046647 19.7 0.0171262 21.1036C0.0671054 26.039 3.94882 29.9332 8.85095 29.9707C11.0001 29.9874 13.0742 29.9957 15.1025 29.9957C17.1308 29.9957 19.1716 29.9874 21.1625 29.9707C26.0604 29.9291 29.9338 26.0557 29.9755 21.1619C30.013 16.6762 30.013 12.6737 29.9755 8.92947H29.9671ZM2.97423 14.6313V13.0944C2.97423 11.6783 2.97006 10.2581 2.97423 8.84201C2.98672 5.6475 5.56482 3.0236 8.72183 2.99444C12.5994 2.95696 16.6769 2.95696 21.1875 2.99444C24.3778 3.01943 26.9268 5.4934 26.9892 8.62543C27.0767 12.9528 27.0767 17.276 26.9892 21.4784C26.9268 24.498 24.3528 26.9844 21.2499 27.0178C16.8018 27.0677 12.6744 27.0677 8.62604 27.0178C5.56482 26.9803 3.03254 24.4189 2.97839 21.3076C2.9534 19.8583 2.96173 18.3797 2.9659 16.9511C2.9659 16.3014 2.97006 15.6475 2.97006 14.9978V14.6354L2.97423 14.6313Z" fill="rgba(35, 48, 56, 0.8)"/>
<path d="M14.898 23.2153C15.0354 23.2153 15.1729 23.2153 15.3145 23.2028C19.8834 22.9654 23.4236 19.167 23.207 14.7397C22.9821 10.1458 19.1629 6.57226 14.7189 6.78051C12.4532 6.88463 10.3707 7.86756 8.85468 9.54186C7.40112 11.1454 6.66809 13.1903 6.78054 15.2978C7.02211 19.7459 10.6206 23.2153 14.898 23.2153ZM9.70849 15.0229C9.69599 12.1158 12.0575 9.73345 14.973 9.71262H15.0063C16.3849 9.71262 17.6927 10.2582 18.6881 11.2495C19.7168 12.2699 20.2791 13.6235 20.2791 15.0604C20.2791 17.9259 17.8759 20.2707 14.9271 20.2915H14.898C13.5735 20.2915 12.2991 19.7543 11.3078 18.7713C10.2957 17.7718 9.70849 16.4057 9.70432 15.0229H9.70849Z" fill="rgba(35, 48, 56, 0.8)"/>
<path d="M23.2611 8.19248C23.2944 8.19248 23.3236 8.19248 23.3569 8.19248C24.1357 8.14666 24.7397 7.5011 24.7313 6.72226C24.7272 6.33492 24.5564 5.95591 24.2649 5.67686C23.9775 5.40197 23.5985 5.24787 23.2195 5.26453C22.8363 5.27703 22.4781 5.43946 22.2115 5.72267C21.9408 6.01422 21.7951 6.39739 21.8117 6.80556C21.8242 7.20122 21.9908 7.56357 22.2782 7.8218C22.5447 8.06336 22.8904 8.19664 23.2611 8.19664V8.19248Z" fill="rgba(35, 48, 56, 0.8)"/>
</g>
<defs>
<clipPath id="clip0_123_14492">
<rect width="30" height="30" fill="white"/>
</clipPath>
</defs>
</svg>
