<svg width="22" height="24" viewBox="0 0 22 24" fill="none" xmlns="http://www.w3.org/2000/svg">
<path d="M20.9994 17.4712V20.7831C21.0005 21.0906 20.9432 21.3949 20.831 21.6766C20.7188 21.9583 20.5542 22.2112 20.3478 22.419C20.1415 22.6269 19.8978 22.7851 19.6325 22.8836C19.3672 22.9821 19.0861 23.0187 18.8072 22.991C15.7128 22.6219 12.7404 21.4611 10.1289 19.6019C7.69921 17.9069 5.63926 15.6455 4.09534 12.9781C2.39586 10.0981 1.33824 6.81909 1.00816 3.40674C0.983033 3.10146 1.01608 2.79378 1.1052 2.50329C1.19432 2.2128 1.33757 1.94586 1.52581 1.71947C1.71405 1.49308 1.94317 1.31221 2.19858 1.18836C2.45398 1.06451 2.73008 1.0004 3.0093 1.00011H6.02608C6.5141 0.994834 6.98722 1.18456 7.35725 1.53391C7.72727 1.88326 7.96896 2.36841 8.03727 2.89892C8.1646 3.9588 8.40074 4.99946 8.74118 6.00106C8.87648 6.39619 8.90576 6.82562 8.82556 7.23847C8.74536 7.65131 8.55903 8.03026 8.28867 8.33042L7.01156 9.73245C8.44308 12.4963 10.5276 14.7847 13.0451 16.3562L14.3222 14.9542C14.5956 14.6574 14.9408 14.4528 15.3169 14.3648C15.6929 14.2767 16.0841 14.3089 16.444 14.4574C17.3564 14.8312 18.3043 15.0904 19.2698 15.2302C19.7582 15.3058 20.2044 15.576 20.5233 15.9892C20.8422 16.4024 21.0116 16.9298 20.9994 17.4712Z" stroke="#64A4FF" stroke-width="2" stroke-linecap="round" stroke-linejoin="round"/>
</svg>
