<svg width="97" height="97" viewBox="0 0 97 97" fill="none" xmlns="http://www.w3.org/2000/svg">
<g clip-path="url(#clip0_422_91487)">
<path d="M96.2459 40.1148C94.0851 28.135 88.2599 18.2811 78.8193 10.6232C71.3648 4.57382 62.7913 1.00713 53.2529 0.209872C36.7494 -1.17484 22.8473 4.35003 11.8263 16.7495C5.4417 23.9249 1.6375 32.394 0.441696 41.9052C-1.44642 56.9972 2.71442 70.2918 13.0081 81.5164C20.141 89.3002 29.0081 94.1117 39.3718 96.1119C41.134 96.4546 42.9312 96.5944 44.7144 96.8322C45.0221 96.8742 45.3298 96.9441 45.6375 97.0001H51.3228C53.127 96.7553 54.9452 96.5665 56.7424 96.2588C66.134 94.6502 74.3508 90.615 81.3298 84.146C89.8333 76.2643 94.8613 66.5223 96.5326 55.06C96.7144 53.8151 96.8403 52.5633 96.9941 51.3184V45.6327C96.7424 43.7934 96.5676 41.9471 96.2389 40.1218L96.2459 40.1148ZM64.7913 53.4655C57.4627 57.2699 50.155 61.1024 42.8263 64.9068C39.7774 66.4944 37.169 64.9068 37.162 61.48C37.148 57.6686 37.162 53.8571 37.162 50.0456C37.162 46.2342 37.155 42.4926 37.162 38.7231C37.169 35.2474 39.7844 33.6668 42.8892 35.2753C50.1899 39.0518 57.4767 42.8563 64.7843 46.6258C66.2249 47.3671 67.2039 48.4022 67.1829 50.0946C67.169 51.7451 66.183 52.7381 64.7913 53.4655Z" fill="white"/>
</g>
<defs>
<clipPath id="clip0_422_91487">
<rect width="97" height="97" fill="white"/>
</clipPath>
</defs>
</svg>
