<svg width="144" height="144" viewBox="0 0 144 144" fill="none" xmlns="http://www.w3.org/2000/svg">
<path d="M144 72C144 111.765 111.765 144 72 144C32.2355 144 0 111.765 0 72C0 32.2355 32.2355 0 72 0C111.765 0 144 32.2355 144 72Z" fill="url(#paint0_radial_891_117408)"/>
<path d="M144 72C144 111.765 111.765 144 72 144C32.2355 144 0 111.765 0 72C0 32.2355 32.2355 0 72 0C111.765 0 144 32.2355 144 72Z" fill="url(#paint1_radial_891_117408)"/>
<defs>
<radialGradient id="paint0_radial_891_117408" cx="0" cy="0" r="1" gradientUnits="userSpaceOnUse" gradientTransform="translate(72 72) rotate(90) scale(72)">
<stop stop-color="white"/>
<stop offset="0.338542" stop-color="white" stop-opacity="0.92"/>
<stop offset="0.619792" stop-color="white" stop-opacity="0.39"/>
<stop offset="0.885417" stop-color="white" stop-opacity="0"/>
</radialGradient>
<radialGradient id="paint1_radial_891_117408" cx="0" cy="0" r="1" gradientUnits="userSpaceOnUse" gradientTransform="translate(72 72) rotate(90) scale(72)">
<stop stop-color="white"/>
<stop offset="0.338542" stop-color="white" stop-opacity="0.92"/>
<stop offset="0.619792" stop-color="white" stop-opacity="0.39"/>
<stop offset="0.885417" stop-color="white" stop-opacity="0"/>
</radialGradient>
</defs>
</svg>
