<svg width="19" height="20" viewBox="0 0 19 20" fill="none" xmlns="http://www.w3.org/2000/svg">
<path d="M18.9994 14.2969V17.1572C19.0005 17.4227 18.946 17.6856 18.8394 17.9288C18.7328 18.1721 18.5765 18.3905 18.3804 18.57C18.1844 18.7495 17.9529 18.8862 17.7009 18.9713C17.4489 19.0563 17.1818 19.0879 16.9168 19.064C13.9772 18.7453 11.1534 17.7427 8.67246 16.137C6.36425 14.6732 4.4073 12.7201 2.94057 10.4165C1.32607 7.92922 0.321329 5.09735 0.00775401 2.15033C-0.0161188 1.88668 0.015277 1.62095 0.0999423 1.37007C0.184607 1.11919 0.320687 0.888656 0.499518 0.69314C0.678348 0.497623 0.89601 0.341411 1.13865 0.234449C1.38128 0.127487 1.64358 0.0721191 1.90883 0.0718698H4.77478C5.2384 0.0673158 5.68786 0.231166 6.03938 0.53288C6.39091 0.834595 6.62052 1.25359 6.6854 1.71176C6.80637 2.6271 7.0307 3.52586 7.35413 4.39087C7.48266 4.73212 7.51047 5.103 7.43428 5.45954C7.35809 5.81609 7.18108 6.14337 6.92423 6.40259L5.71098 7.61344C7.07093 10.0004 9.0512 11.9767 11.4429 13.334L12.6561 12.1231C12.9159 11.8668 13.2438 11.6901 13.601 11.6141C13.9583 11.538 14.3299 11.5658 14.6718 11.6941C15.5386 12.0169 16.4391 12.2408 17.3563 12.3615C17.8203 12.4268 18.2441 12.6601 18.5471 13.017C18.8501 13.3738 19.011 13.8293 18.9994 14.2969Z" fill="#F8F8F8"/>
</svg>
