<svg width="35" height="22" viewBox="0 0 35 22" fill="none" xmlns="http://www.w3.org/2000/svg">
<g clip-path="url(#clip0_36_2658)">
<path d="M16.2413 -0.00015842C17.0578 -0.00015842 17.8776 -0.00015842 18.6941 -0.00015842C18.8062 0.0280789 18.9151 0.0751411 19.0304 0.0845535C22.4247 0.316727 25.5276 1.38974 28.384 3.18438C28.5825 3.30674 28.8547 3.36322 29.0949 3.36636C30.3597 3.38518 31.6246 3.37577 32.8927 3.37577C33.5491 3.37577 34.2024 3.37577 35.0029 3.37577C33.991 4.45506 33.0784 5.42768 32.169 6.39716C35.8963 9.93937 35.6594 15.1099 32.9727 18.2098C31.599 19.7973 29.873 20.8076 27.7788 21.159C24.9576 21.6328 22.4695 20.8735 20.2888 19.0412C19.3442 20.0421 18.4284 21.0147 17.4965 21.9998C16.5327 20.9739 15.6264 20.0107 14.7106 19.0349C14.5121 19.1918 14.3616 19.311 14.2079 19.4271C9.25727 23.2768 1.89223 20.8798 0.287925 14.8935C0.175848 14.473 0.0989956 14.0432 0.00292969 13.6165C0.00292969 13.0455 0.00292969 12.4713 0.00292969 11.9003C0.0381538 11.756 0.089389 11.6148 0.108602 11.4673C0.319947 9.99899 0.899544 8.68438 1.82498 7.51724C2.13239 7.13133 2.47823 6.77366 2.82406 6.38775C1.90824 5.40885 1.00522 4.44565 0.00292969 3.36949C0.355171 3.36949 0.563314 3.36949 0.771457 3.36949C2.40778 3.36949 4.0441 3.39146 5.67722 3.35381C6.07749 3.34439 6.5258 3.22831 6.86523 3.02437C8.82178 1.84154 10.9032 0.966185 13.1479 0.489288C14.1694 0.272802 15.2134 0.156715 16.2445 -0.0032959L16.2413 -0.00015842ZM26.2321 6.96504C22.9627 6.96504 20.3273 9.54405 20.3273 12.7411C20.3273 15.9257 22.9851 18.5267 26.2385 18.5267C29.4919 18.5267 32.1434 15.9257 32.1434 12.738C32.1434 9.54091 29.5048 6.96504 26.2321 6.96504ZM14.6562 12.8164C14.701 9.64445 12.104 7.01211 8.88582 6.96504C5.57475 6.91798 2.8785 9.4562 2.83367 12.6627C2.79204 15.841 5.42425 18.4859 8.67127 18.5267C11.9279 18.5674 14.6113 16.0073 14.6562 12.8164ZM10.9512 4.08798C12.6996 4.80332 14.1278 5.73202 15.2806 7.03093C16.459 8.35495 17.2115 9.87349 17.4805 11.6493C18.1626 7.92825 20.529 5.59397 24.0194 4.07543C19.6356 2.41884 15.3767 2.40943 10.9544 4.08798H10.9512Z" fill="white"/>
<path d="M23.1328 12.6095C23.1328 10.9184 24.5194 9.57553 26.255 9.58181C27.9873 9.58808 29.3483 10.9435 29.3355 12.644C29.3227 14.3069 27.9457 15.6497 26.2454 15.6528C24.5258 15.6591 23.1296 14.2912 23.1328 12.6063V12.6095Z" fill="white"/>
<path d="M8.74884 9.58191C10.4844 9.58191 11.8614 10.9279 11.8518 12.6221C11.8454 14.3132 10.4492 15.6655 8.72643 15.6529C7.03567 15.6404 5.65552 14.2881 5.64271 12.6315C5.6267 10.953 7.02286 9.58505 8.74884 9.58505V9.58191Z" fill="white"/>
</g>
<defs>
<clipPath id="clip0_36_2658">
<rect width="35" height="22" fill="white"/>
</clipPath>
</defs>
</svg>
