<svg width="40" height="23" viewBox="0 0 40 23" fill="none" xmlns="http://www.w3.org/2000/svg">
<g clip-path="url(#clip0_36_2656)">
<path d="M40 1.82169V2.37444C39.7483 2.97239 39.5379 3.59119 39.2345 4.1648C38.2276 6.06988 36.8759 7.73508 35.6 9.45591C34.9414 10.3459 34.3 11.2532 33.7 12.1884C33.3483 12.7377 33.3897 13.353 33.7759 13.8883C34.0414 14.2568 34.3586 14.5906 34.6759 14.9174C35.7828 16.0437 36.9414 17.1214 37.9966 18.293C38.8793 19.2733 39.7897 20.2711 40 21.6721V21.752C39.8724 22.4508 39.3897 22.7497 38.7517 22.8436C38.4069 22.8923 38.0517 22.9062 37.7 22.9097C36.1138 22.9409 34.5241 22.934 32.9379 22.9966C32.1828 23.0279 31.5 22.854 30.8345 22.5342C29.8966 22.0823 29.2069 21.3279 28.5138 20.5805C27.7586 19.7705 27.0379 18.9187 26.2276 18.1609C25.3 17.2918 24.5586 17.4517 23.931 18.5641C23.8172 18.7658 23.7069 18.9883 23.669 19.2177C23.5552 19.9269 23.4414 20.6396 23.3862 21.3522C23.3034 22.4334 22.8724 22.8784 21.7862 22.8958C20.9138 22.9097 20.0414 22.927 19.169 22.8958C18.5345 22.8749 17.8897 22.8401 17.2724 22.708C13.9517 21.9954 11.2483 20.1876 9.06552 17.6464C6.46897 14.6219 4.36552 11.2393 2.57931 7.66903C1.68276 5.86825 0.858621 4.0327 0 2.21453V1.66178C0.337931 1.09164 0.903448 1.05688 1.46897 1.04993C3.14828 1.03602 4.82759 1.03254 6.5069 1.02212C7.69655 1.01516 8.12759 1.31413 8.6 2.39878C9.64483 4.80098 10.7931 7.15104 12.1862 9.369C12.6241 10.0712 13.1517 10.7109 13.8897 11.1211C14.4586 11.4375 14.9276 11.2915 15.2034 10.7144C15.3207 10.471 15.4241 10.2068 15.469 9.93913C15.5793 9.28209 15.6828 8.61809 15.731 7.9541C15.8414 6.41752 15.8103 4.8879 15.469 3.37565C15.2897 2.58998 14.8414 2.06852 14.0828 1.81822C13.9241 1.76607 13.7586 1.72783 13.5931 1.68611C13.2241 1.59225 13.1862 1.50186 13.431 1.19941C13.7897 0.76486 14.2241 0.420694 14.7862 0.330307C15.5552 0.205156 16.3276 0.0939107 17.1069 0.0487172C18.6793 -0.0416697 20.2552 -0.0486225 21.8138 0.232968C22.8414 0.417218 23.2276 0.803101 23.4103 1.82864C23.4345 1.97118 23.4448 2.11719 23.4448 2.25972C23.4345 3.24355 23.4138 4.22737 23.4035 5.2112C23.3862 6.58786 23.3414 7.968 23.3828 9.34119C23.3966 9.83137 23.5621 10.3528 23.7931 10.7839C24.069 11.2984 24.5862 11.3506 25.0138 10.9577C25.5103 10.4988 26.0138 10.026 26.4138 9.4872C28.0828 7.22405 29.3931 4.75579 30.4241 2.13457C30.7828 1.22375 31.0138 1.08121 31.9759 1.09164C32.0793 1.09164 32.1828 1.09164 32.2897 1.09164C34.3345 1.06731 36.3759 1.02907 38.4207 1.02559C39.0517 1.02559 39.7172 1.0534 40.0034 1.80779L40 1.82169Z" fill="rgba(35, 48, 56, 0.8)"/>
</g>
<defs>
<clipPath id="clip0_36_2656">
<rect width="40" height="23" fill="white"/>
</clipPath>
</defs>
</svg>
