<svg width="23" height="23" viewBox="0 0 23 23" fill="none" xmlns="http://www.w3.org/2000/svg">
<path d="M22.9013 9.75121C22.0894 3.58595 16.2984 -0.778249 10.1181 0.116364C2.7558 1.18375 -1.6573 8.89209 1.35641 15.6159C1.89611 16.8182 1.8579 17.7625 1.4185 18.8843C0.905068 20.1955 0.496713 21.5445 0 23C1.93193 22.3918 3.74684 21.8356 5.54981 21.2439C6.02742 21.0877 6.42622 21.1279 6.8704 21.3504C8.81904 22.3255 10.9134 22.6024 13.0483 22.3492C19.3527 21.6013 23.7204 15.9827 22.9013 9.74884V9.75121ZM10.9635 20.5978C9.59754 20.5126 8.30561 20.1079 7.12831 19.4121C6.6698 19.1399 6.26383 19.1139 5.7719 19.2914C4.87399 19.6133 3.9546 19.8807 3.04475 20.1694C3.00177 20.1292 2.9564 20.089 2.91341 20.0511C3.17848 19.2559 3.40774 18.4465 3.71818 17.6678C3.96654 17.0501 3.92594 16.5697 3.56535 15.9638C0.250745 10.3689 3.4746 3.29721 9.89127 2.00736C15.3097 0.918676 20.5897 4.86633 21.1318 10.3239C21.6691 15.7248 17.256 20.9883 10.9635 20.5978Z" fill="#F8F8F8"/>
<path d="M17.0387 13.8054C16.3796 13.4977 15.7396 13.1521 15.0948 12.8113C14.8082 12.6599 14.5957 12.719 14.3975 12.9604C14.1396 13.2752 13.8674 13.5781 13.5951 13.8811C13.3683 14.132 13.1223 14.1935 12.788 14.042C11.3551 13.3959 10.2113 12.4279 9.36829 11.1097C8.82382 10.2577 8.81665 10.2482 9.49724 9.50979C9.89366 9.07905 10.0584 8.65541 9.77187 8.08267C9.52829 7.59749 9.38023 7.06262 9.18919 6.55141C8.87397 5.70887 7.87576 5.4722 7.18801 6.0757C6.05846 7.06972 5.70503 8.55837 6.43339 10.0825C7.5892 12.5037 9.19396 14.5793 11.6919 15.7886C12.6542 16.2549 13.6978 16.5578 14.3139 16.7898C16.1217 16.7898 17.1844 16.0655 17.4948 14.939C17.6333 14.4396 17.5712 14.0539 17.0387 13.8054Z" fill="#F8F8F8"/>
</svg>
