<svg width="22" height="22" viewBox="0 0 22 22" fill="none" xmlns="http://www.w3.org/2000/svg">
<g clip-path="url(#clip0_1352_6899)">
<path d="M21.9066 9.28018C21.5328 6.4345 20.0467 3.90647 17.7241 2.16156C15.4127 0.427678 12.5784 -0.300288 9.74639 0.112226C6.36263 0.601948 3.47942 2.5851 1.83092 5.55211C0.213571 8.45956 0.0622915 11.8545 1.41046 14.8657C1.86429 15.8782 1.87987 16.6834 1.46385 17.7422C1.13014 18.5915 0.847609 19.4496 0.5495 20.3585C0.418243 20.76 0.282536 21.1681 0.140156 21.5872L0 21.9997L0.418243 21.8674C0.914349 21.7107 1.40378 21.5585 1.88432 21.4085C3.16352 21.0092 4.37152 20.6298 5.58843 20.2305C5.96885 20.1048 6.27586 20.1313 6.64961 20.3166C8.42047 21.2012 10.3982 21.5232 12.5317 21.2695C15.4194 20.9276 17.98 19.5004 19.7419 17.2525C21.515 14.9914 22.2825 12.159 21.9043 9.27797L21.9066 9.28018ZM3.49277 18.3025C3.65517 17.793 3.82202 17.2679 4.02225 16.7694C4.28031 16.1275 4.23359 15.6113 3.86429 14.987C2.43604 12.5759 2.27141 9.73902 3.41046 7.20437C4.5584 4.65208 6.81869 2.86747 9.61068 2.30495C11.9288 1.83949 14.376 2.39098 16.3248 3.81603C18.307 5.26754 19.5795 7.47129 19.8176 9.86255C20.0645 12.3354 19.188 14.7973 17.4171 16.6172C15.6396 18.4437 13.2102 19.3592 10.5806 19.1959C9.35262 19.1187 8.18465 18.7592 7.1079 18.1217C6.82759 17.9562 6.55617 17.8746 6.27141 17.8746C6.07564 17.8746 5.87097 17.9143 5.65517 17.9915C5.06785 18.2011 4.46051 18.3908 3.87319 18.5717C3.70189 18.6246 3.53059 18.6776 3.35929 18.7327C3.40601 18.5893 3.4505 18.4459 3.49722 18.3025H3.49277Z" fill="#64A4FF"/>
<path d="M13.6863 15.8697C13.1124 15.6535 12.1402 15.3712 11.2436 14.9366C8.91658 13.8116 7.42159 11.8747 6.34484 9.61803C5.66631 8.19739 5.99556 6.80764 7.04784 5.88335C7.68855 5.32083 8.61847 5.54142 8.91213 6.32674C9.09011 6.80323 9.22804 7.30178 9.45496 7.754C9.72415 8.29005 9.56842 8.68491 9.19912 9.08419C8.56508 9.77245 8.57176 9.78127 9.07899 10.5754C9.86208 11.8041 10.9277 12.7064 12.2647 13.3086C12.5762 13.4498 12.8076 13.3924 13.0167 13.1586C13.2703 12.8762 13.5239 12.5939 13.7642 12.3005C13.9488 12.0733 14.1468 12.0203 14.4138 12.1615C15.0122 12.4792 15.6107 12.8012 16.2247 13.088C16.7208 13.3196 16.7787 13.6792 16.6496 14.1447C16.3604 15.1947 15.3704 15.8697 13.6863 15.8697Z" fill="#64A4FF"/>
</g>
<defs>
<clipPath id="clip0_1352_6899">
<rect width="22" height="22" fill="white"/>
</clipPath>
</defs>
</svg>
