<svg width="34" height="24" viewBox="0 0 34 24" fill="none" xmlns="http://www.w3.org/2000/svg">
<g clip-path="url(#clip0_36_2648)">
<path d="M34 6.80257V16.3987C33.9769 16.5376 33.9462 16.6765 33.9347 16.8193C33.8578 17.9421 33.7079 19.0495 33.3236 20.1106C32.824 21.4997 31.9362 22.5376 30.5719 23.1473C29.4421 23.6527 28.243 23.8534 27.0286 23.919C25.8026 23.9846 24.5728 23.9961 23.3469 24C18.3316 24.0039 13.3164 24.0077 8.30496 23.9846C6.76387 23.9768 5.23432 23.7762 3.78931 23.1936C2.60179 22.7151 1.65638 21.9511 1.03764 20.809C0.372782 19.5781 0.103764 18.2392 0.0730191 16.8695C0.00384311 14.0759 0 11.29 0 8.50418C0 7.40836 0.0538035 6.30868 0.130666 5.21286C0.195999 4.32154 0.418899 3.46495 0.8647 2.67781C1.59105 1.40064 2.78241 0.818006 4.1275 0.474598C5.56098 0.108039 7.02905 0.00771704 8.5048 0.00771704C13.9735 0 19.4423 0 24.911 0C26.4829 0 28.0547 0.0617363 29.5958 0.405145C30.5912 0.62508 31.525 0.976206 32.2937 1.6746C33.2583 2.55434 33.6311 3.7119 33.804 4.95434C33.8885 5.56785 33.9385 6.18521 34 6.79871V6.80257ZM13.0781 11.8418C13.0781 13.0302 13.0781 14.2186 13.0781 15.4032C13.0781 16.472 13.889 16.9659 14.8383 16.472C17.1134 15.2836 19.3846 14.0913 21.6559 12.9068C22.0902 12.683 22.3938 12.3704 22.3976 11.8572C22.4015 11.3286 22.1017 11.0084 21.6521 10.7768C19.3846 9.60386 17.1211 8.41543 14.8536 7.23859C13.889 6.73698 13.0781 7.22701 13.0743 8.31125C13.0743 9.4881 13.0743 10.665 13.0743 11.8418H13.0781Z" fill="rgba(35, 48, 56, 0.8)"/>
</g>
<defs>
<clipPath id="clip0_36_2648">
<rect width="34" height="24" fill="#233038"/>
</clipPath>
</defs>
</svg>
