<svg width="27" height="44" viewBox="0 0 27 44" fill="none" xmlns="http://www.w3.org/2000/svg">
<path d="M9.02766 42.96C8.10766 42.92 7.44766 42.62 7.04766 42.06C6.68766 41.5 6.52766 40.84 6.56766 40.08C6.60766 39.28 6.82766 38.3 7.22766 37.14C7.66766 35.94 8.22766 34.58 8.90766 33.06C9.62766 31.54 10.3877 29.88 11.1877 28.08C12.0277 26.28 13.0077 24.14 14.1277 21.66C15.2877 19.14 16.5677 16.44 17.9677 13.56C19.3677 10.64 20.8077 7.68 22.2877 4.68H7.46766C5.94766 4.72 4.72766 5.06 3.80766 5.7C2.92766 6.3 2.44766 7.42 2.36766 9.06H0.147656L0.747656 -2.86102e-06H26.0077L25.7677 4.44C24.2077 7.36 22.8477 10.18 21.6877 12.9C20.5277 15.58 19.4677 18.28 18.5077 21C17.5477 23.68 16.6077 26.5 15.6877 29.46C14.8077 32.38 13.8477 35.54 12.8077 38.94C12.5277 39.98 12.0877 40.92 11.4877 41.76C10.9277 42.6 10.1077 43 9.02766 42.96Z" fill="#233038"/>
</svg>
