<svg width="44" height="48" viewBox="0 0 44 48" fill="none" xmlns="http://www.w3.org/2000/svg">
<g clip-path="url(#clip0_891_117270)">
<path d="M21.4747 45.7473V22.6932C21.4747 22.1179 21.4747 21.5425 21.4747 20.9574C21.4747 19.9724 21.465 18.9874 21.4261 18.0025C21.3969 17.2906 21.5039 16.1398 20.9495 15.5742C20.4438 15.0476 19.4128 15.2329 18.7612 15.2329H14.4721C11.7877 15.2329 9.01584 15.0281 6.33149 15.2329C4.81425 15.3499 4.92123 16.7835 4.8726 18.0025C4.82397 19.2215 4.82397 20.3625 4.82397 21.5425V45.7375C4.82397 47.1516 7.0123 47.1516 7.0123 45.7375V22.4299C7.0123 21.9521 7.0123 21.4742 7.0123 20.9964C7.0123 20.3137 7.0123 19.6213 7.03176 18.9387C7.04148 18.4218 7.06093 17.9049 7.09011 17.3783C7.09011 17.2516 7.15819 16.998 7.12901 16.881C7.07066 16.6274 7.4986 16.5104 6.91504 17.0955L6.13697 17.4173H20.152L19.3739 17.0955C18.9363 16.6469 19.1989 16.6567 19.1794 17.1053C19.16 17.5149 19.228 17.944 19.2378 18.3438C19.2669 19.202 19.2767 20.0699 19.2767 20.9281C19.2767 21.2597 19.2767 21.5815 19.2767 21.9131V45.7375C19.2767 47.1516 21.465 47.1516 21.465 45.7375L21.4747 45.7473Z" fill="#CFCFCF" fill-opacity="0.998047"/>
<path d="M16.2812 43.3872V39.1645C16.2812 38.5501 16.2812 37.926 16.2812 37.3116C16.2812 36.2876 16.4855 34.6298 15.0363 34.5908C14.2485 34.5713 13.4607 34.5908 12.6729 34.5908C11.8851 34.5908 10.6791 34.3762 10.222 35.1369C9.89131 35.6928 10.008 36.6387 10.008 37.2531C10.008 37.3701 10.008 37.4872 10.008 37.6042V44.4697C10.008 45.8837 12.1963 45.8837 12.1963 44.4697V37.6432C12.1963 37.5164 12.1963 37.3896 12.1963 37.2629C12.1963 36.9995 12.1963 36.7265 12.1963 36.4632C12.1963 36.3071 12.2061 36.1511 12.2158 35.9853C12.2158 35.9463 12.2255 35.8976 12.2158 35.8586C12.2158 35.7903 12.2158 35.8098 12.2061 35.9171C12.2061 36.0341 12.1574 36.1414 12.0991 36.2389L11.1557 36.785H15.1044L14.161 36.2389C14.0734 36.1219 14.0345 35.6245 14.054 35.9853C14.054 36.1414 14.0637 36.2974 14.0734 36.4632C14.0734 36.7265 14.0734 36.9898 14.0734 37.2629C14.0734 37.3994 14.0734 37.5457 14.0734 37.6822V43.3872C14.0734 44.8013 16.2618 44.8013 16.2618 43.3872H16.2812Z" fill="#CFCFCF" fill-opacity="0.998047"/>
<path d="M15.4935 20.577V22.6639C15.4935 22.742 15.4935 22.82 15.4935 22.898C15.4935 22.9078 15.4935 22.9273 15.4935 22.937C15.4935 23.2003 15.5129 22.937 15.5615 22.8395L15.9506 22.4494L15.9214 22.4689L16.4758 22.3226H9.81353L10.3679 22.4689L10.3387 22.4494L10.7278 22.8395C10.7861 22.937 10.7958 23.2003 10.7958 22.937C10.7958 22.9273 10.7958 22.9078 10.7958 22.898C10.7958 22.82 10.7958 22.742 10.7958 22.6639V20.577C10.7958 20.0016 10.2901 19.4555 9.70655 19.4848C9.12299 19.514 8.61724 19.9626 8.61724 20.577C8.61724 21.4157 8.55889 22.2739 8.61724 23.1125C8.6756 23.8342 9.03546 24.4486 9.82326 24.4974C9.89134 24.4974 9.96915 24.4974 10.0372 24.4974H16.0381C16.4466 24.4974 16.8259 24.5169 17.176 24.2438C17.818 23.7464 17.6915 22.781 17.6915 22.0496V20.5672C17.6915 19.9919 17.1858 19.4457 16.6022 19.475C16.0187 19.5043 15.5129 19.9529 15.5129 20.5672L15.4935 20.577Z" fill="#CFCFCF" fill-opacity="0.998047"/>
<path d="M12.0114 1.62865C14.4624 5.60752 16.9036 9.58639 19.3545 13.5555C19.9964 14.599 20.6481 15.6522 21.29 16.6957L22.2334 15.0476H3.67635L4.61976 16.6957C7.07069 12.7168 9.51189 8.73796 11.9628 4.76884C12.6047 3.72536 13.2564 2.67213 13.8983 1.62865C14.6374 0.419386 12.7506 -0.682605 12.0114 0.516908C9.56052 4.49578 7.11932 8.47465 4.66839 12.4438C4.02648 13.4872 3.37484 14.5405 2.73293 15.584C2.29527 16.2959 2.85937 17.2321 3.67635 17.2321H22.2334C23.0504 17.2321 23.6145 16.2959 23.1768 15.584C20.7259 11.6051 18.2847 7.62621 15.8337 3.65709C15.1918 2.61362 14.5402 1.56039 13.8983 0.516908C13.1591 -0.682605 11.2626 0.419386 12.0114 1.62865Z" fill="#CFCFCF" fill-opacity="0.998047"/>
<path d="M20.1909 27.7058H6.08833L7.17763 28.798V23.5904L6.08833 24.6826H20.1909L19.1016 23.5904V28.798C19.1016 30.2121 21.2899 30.2121 21.2899 28.798V23.5904C21.2899 22.9955 20.7842 22.4982 20.2006 22.4982H6.08833C5.49504 22.4982 4.99902 23.0053 4.99902 23.5904V28.798C4.99902 29.3929 5.50477 29.8903 6.08833 29.8903H20.1909C21.6011 29.8903 21.6011 27.6961 20.1909 27.6961V27.7058Z" fill="#CFCFCF" fill-opacity="0.998047"/>
<path d="M33.3697 43.4847C31.7941 42.5973 30.5881 41.2515 29.6933 39.6814C28.5456 37.6627 28.1566 35.3514 27.1256 33.2742C25.7543 30.5436 23.3812 28.3982 20.3272 27.8423C19.1698 27.6375 18.0222 27.618 16.8551 27.696C15.4545 27.7935 15.4448 29.9878 16.8551 29.8902C18.9364 29.744 20.8427 29.8805 22.6128 31.119C25.9099 33.4303 26.0363 37.8577 27.9815 41.0857C29.0416 42.8411 30.4713 44.3624 32.2609 45.3669C33.4864 46.0593 34.5951 44.1674 33.3697 43.475V43.4847Z" fill="#CFCFCF" fill-opacity="0.998047"/>
<path d="M20.9398 24.6826C23.2546 24.429 25.3846 25.1702 27.0574 26.8086C29.3625 29.0808 29.9558 32.0942 31.2396 34.9321C32.1733 36.9995 33.6224 38.9695 35.7232 39.9642C37.3572 40.7346 39.137 40.8419 40.9071 40.6663L39.9637 39.0182C38.7091 40.8126 37.4642 42.607 36.2095 44.4014C35.4023 45.5619 37.2988 46.6639 38.0963 45.5131C39.351 43.7188 40.5959 41.9244 41.8505 40.13C42.2979 39.4766 41.7047 38.3941 40.9071 38.4819C39.2926 38.6476 37.649 38.6184 36.2192 37.7602C33.8364 36.3364 33.0194 33.5375 32.1344 31.0897C30.3837 26.2819 26.4836 21.8935 20.9398 22.4981C19.5588 22.6541 19.5393 24.8484 20.9398 24.6923V24.6826Z" fill="#CFCFCF" fill-opacity="0.998047"/>
<path d="M0.136149 44.1479C1.71175 47.1418 5.18389 47.8635 8.21838 46.781C11.0583 45.757 14.6472 42.9874 17.4094 45.5815C18.45 46.5567 19.5102 47.4832 20.9399 47.805C22.3696 48.1268 23.8674 47.8635 25.2484 47.4344C26.9797 46.8883 28.672 46.1081 30.4615 45.7668C31.9982 45.4742 33.3209 45.796 34.702 46.508C35.9858 47.1711 37.2697 47.9123 38.748 48C40.6251 48.1171 42.2201 47.0833 43.6304 45.9618C44.7294 45.0841 43.1733 43.5336 42.084 44.4112C40.9947 45.2889 39.6525 46.0886 38.1644 45.6985C37.0168 45.3962 36.0053 44.6648 34.9257 44.1869C32.1733 42.9679 29.6056 43.6116 26.8824 44.5673C25.4332 45.0744 23.9063 45.7668 22.3501 45.7765C20.9204 45.7765 19.9575 44.9769 18.9752 44.0407C16.6896 41.8562 13.8302 42.061 11.0778 43.1727C8.32536 44.2845 4.04596 46.8493 2.05215 43.0459C1.39079 41.7977 -0.496035 42.8997 0.165326 44.1577H0.136149V44.1479Z" fill="#CFCFCF" fill-opacity="0.998047"/>
</g>
<defs>
<clipPath id="clip0_891_117270">
<rect width="44" height="48" fill="white"/>
</clipPath>
</defs>
</svg>
