<svg width="34" height="48" viewBox="0 0 34 48" fill="none" xmlns="http://www.w3.org/2000/svg">
<g clip-path="url(#clip0_891_117293)">
<path d="M20.8948 38.15C19.8556 37.1118 18.8255 36.0827 17.7863 35.0444C17.3909 34.6493 16.7195 34.6493 16.324 35.0444C15.2756 36.0918 14.2272 37.1393 13.1788 38.1868C12.7925 38.5727 12.7649 39.271 13.1788 39.6477C13.5926 40.0245 14.2364 40.052 14.6411 39.6477C15.6895 38.6003 16.7379 37.5528 17.7863 36.5053H16.324C17.3633 37.5436 18.3933 38.5727 19.4325 39.611C19.8188 39.9969 20.5177 40.0245 20.8948 39.611C21.2718 39.1975 21.2994 38.5543 20.8948 38.15Z" fill="#CFCFCF" fill-opacity="0.998047"/>
<path d="M25.9896 25.7366C26.0448 23.6325 25.9896 21.5375 25.8609 19.4334C25.8241 18.8637 25.4194 18.4135 24.8308 18.4043C22.081 18.34 19.7083 17.0904 17.2252 16.0796C14.7421 15.0689 12.2682 14.2512 9.61957 14.2328C9.21492 14.2328 8.68152 14.5544 8.62634 14.9954C8.31365 17.2098 8.11132 19.4334 8.02855 21.6662C8.01016 22.2542 8.52517 22.6585 9.05858 22.6953C14.6317 23.0996 19.2393 27.464 24.9596 26.7657C25.5206 26.7014 25.9896 26.343 25.9896 25.7366C25.9896 25.2313 25.5114 24.634 24.9596 24.7075C22.081 25.0567 19.6347 24.0184 17.0413 22.925C14.4478 21.8316 11.8636 20.8392 9.05858 20.6371L10.0886 21.6662C10.1622 19.6172 10.3277 17.5774 10.6128 15.5467L9.61957 16.3094C15.0456 16.3369 19.4416 20.3522 24.8308 20.4809L23.8008 19.4518C23.9388 21.5467 23.9847 23.6509 23.9296 25.755C23.8928 27.0873 25.962 27.0873 25.9988 25.755L25.9896 25.7366Z" fill="#CFCFCF" fill-opacity="0.998047"/>
<path d="M19.7636 19.3782C21.3822 20.0398 23.0743 20.4165 24.8217 20.4624C25.3551 20.4716 25.8977 19.9755 25.8517 19.4333C25.5942 15.9142 25.0976 12.3767 24.1136 8.97699C23.4054 6.54208 22.4582 4.03365 20.812 2.06735C19.6532 0.689091 17.9702 -0.321629 16.1217 0.0918476C14.0616 0.551266 12.6453 2.52676 11.7165 4.29093C9.97832 7.58955 9.15062 11.3384 8.61722 14.9954C8.52525 15.6477 8.87472 16.3001 9.61045 16.3001C13.1052 16.3277 16.3608 17.9448 19.5152 19.2771C20.7292 19.7917 21.7868 18.0092 20.5637 17.4946C17.0597 16.0153 13.5006 14.2603 9.61965 14.2327L10.6129 15.5375C11.0451 12.5788 11.6705 9.6018 12.8017 6.81773C13.4547 5.21895 14.4479 3.03212 16.1309 2.2603C19.2945 0.799351 21.373 7.075 22.0075 9.14238C23.0284 12.4778 23.5342 15.9601 23.7917 19.4333L24.8217 18.4043C23.2491 18.3675 21.7684 17.9816 20.3154 17.3935C19.083 16.8882 18.5496 18.8912 19.7636 19.3874V19.3782Z" fill="#CFCFCF" fill-opacity="0.998047"/>
<path d="M19.2853 30.2573C16.0021 28.8698 12.7465 27.317 9.14144 27.023C8.60804 26.977 8.07463 27.5283 8.11142 28.052C8.35053 31.6906 8.83795 35.3568 9.84039 38.8667C10.5577 41.366 11.5234 43.9571 13.2248 45.9602C14.3927 47.3384 16.1125 48.3399 17.961 47.8805C20.0395 47.3568 21.4466 45.3354 22.3662 43.5436C24.1228 40.1164 24.9413 36.2297 25.4563 32.4349C25.5391 31.8193 25.208 31.075 24.4631 31.1301C22.5685 31.2496 20.7844 30.8637 19.037 30.1562C17.8047 29.66 17.2713 31.6539 18.4852 32.1501C20.3889 32.9219 22.403 33.3354 24.4631 33.1975L23.4698 31.8928C23.056 34.9617 22.4306 38.049 21.2902 40.9433C20.6372 42.6064 19.6532 44.8116 17.961 45.6845C14.7054 47.366 12.5626 40.7596 11.9556 38.7197C10.9164 35.2557 10.4106 31.6539 10.1807 28.052L9.15064 29.0811C12.3511 29.3476 15.3308 30.8086 18.2461 32.0398C19.4601 32.5543 20.5177 30.7718 19.2945 30.2573H19.2853Z" fill="#CFCFCF" fill-opacity="0.998047"/>
<path d="M19.2854 23.8713C15.9838 22.4747 12.6914 20.8851 9.05868 20.6278C8.48849 20.5819 8.03785 21.1332 8.02866 21.6569C7.95508 23.7886 7.98267 25.9203 8.11143 28.0428C8.14821 28.6309 8.56206 29.026 9.14145 29.0719C14.5215 29.5038 18.9635 33.5558 24.4631 33.1883C25.0792 33.1424 25.4195 32.7473 25.4931 32.1592C25.769 30.0275 25.9253 27.8774 25.9897 25.7273C26.0081 25.222 25.5023 24.6247 24.9597 24.6983C22.9088 24.9463 20.9407 24.5421 19.037 23.7702C18.5128 23.5589 17.9059 23.9999 17.7679 24.4961C17.6024 25.0842 17.9794 25.562 18.4944 25.7641C20.5361 26.6002 22.7617 27.0321 24.9689 26.7656L23.9389 25.7365C23.8745 27.8866 23.7181 30.0275 23.4422 32.1684L24.4723 31.1393C21.7133 31.3231 19.3681 30.2848 16.885 29.2373C14.4019 28.1898 11.8637 27.2434 9.15065 27.0229L10.1807 28.052C10.0519 25.9203 10.0243 23.7978 10.0979 21.6661L9.06788 22.6952C12.3051 22.9341 15.3124 24.4134 18.2553 25.6538C18.7703 25.8744 19.3589 25.8009 19.6716 25.2863C19.9291 24.8545 19.8188 24.0918 19.3037 23.8713H19.2854Z" fill="#CFCFCF" fill-opacity="0.998047"/>
<path d="M15.9653 8.36142V46.6493C15.9653 47.9816 18.0346 47.9816 18.0346 46.6493V8.36142C18.0346 7.0291 15.9653 7.0291 15.9653 8.36142Z" fill="#CFCFCF" fill-opacity="0.998047"/>
<path d="M6.38247 36.7626C6.38247 36.8821 6.38247 37.0015 6.36408 37.1118C6.38247 36.928 6.36408 37.0842 6.34569 37.1761C6.32729 37.2588 6.3089 37.3415 6.28131 37.4242C6.27211 37.4517 6.16175 37.7366 6.21693 37.6171C6.27211 37.4977 6.13416 37.7733 6.12497 37.7917C6.08818 37.8652 6.0422 37.9387 5.99621 38.003C5.95023 38.0765 5.83987 38.1868 5.95943 38.0582C5.88585 38.1409 5.81228 38.2236 5.72951 38.3063C5.67433 38.3614 5.60076 38.4165 5.54558 38.4716C5.70192 38.3154 5.53638 38.4716 5.4904 38.5084C5.40763 38.5635 5.32486 38.6095 5.24209 38.6554C5.19611 38.683 4.92021 38.8024 5.15012 38.7105C4.99378 38.7749 4.82824 38.8208 4.6627 38.8576C4.60752 38.8667 4.55234 38.8851 4.49716 38.8943C4.62591 38.8759 4.63511 38.8759 4.51555 38.8943C4.42359 38.8943 4.34082 38.9035 4.24885 38.9035C4.15688 38.9035 4.07411 38.9035 3.98215 38.8943C3.77062 38.8851 4.13849 38.9311 3.87179 38.8759C3.68786 38.8392 3.51312 38.784 3.33838 38.7197C3.5591 38.8116 3.32919 38.7105 3.2832 38.683C3.18204 38.6278 3.09007 38.5727 2.99811 38.5084C2.95212 38.4808 2.76819 38.3154 2.94293 38.4716C2.87855 38.4165 2.81417 38.3614 2.75899 38.3063C2.69462 38.2419 2.63024 38.1501 2.55667 38.0949C2.51068 38.0398 2.51988 38.0582 2.58426 38.1409C2.54747 38.0949 2.51988 38.049 2.49229 38.003C2.40032 37.8652 2.31755 37.7182 2.24398 37.562C2.35434 37.7917 2.21639 37.4609 2.198 37.415C2.17041 37.3323 2.15202 37.2496 2.13362 37.1669C2.12443 37.121 2.09684 36.8545 2.11523 37.1026C2.10603 36.9831 2.09684 36.8637 2.09684 36.7534C2.09684 36.2113 1.62781 35.6968 1.06681 35.7243C0.505816 35.7519 0 36.1746 0 36.7626C0.0275899 38.5543 1.13119 40.1072 2.80498 40.7412C4.3868 41.3384 6.32729 40.8331 7.4125 39.5375C8.07466 38.7473 8.44252 37.8009 8.45172 36.7626C8.45172 36.2205 7.97349 35.7059 7.42169 35.7335C6.86989 35.7611 6.39167 36.1837 6.39167 36.7626H6.38247Z" fill="#CFCFCF" fill-opacity="0.998047"/>
<path d="M13.05 44.3522C12.9488 44.4808 12.8293 44.6095 12.7097 44.7289C12.6453 44.784 12.5809 44.8392 12.5166 44.8943C12.6269 44.8024 12.5718 44.8484 12.489 44.9035C12.3602 44.9862 12.2131 45.0505 12.0843 45.1332C12.2775 45.0229 12.0659 45.1332 12.0108 45.1608C11.928 45.1883 11.8452 45.2159 11.7624 45.2343C11.6889 45.2526 11.6153 45.2618 11.5509 45.2802C11.4773 45.2894 11.4957 45.2894 11.6061 45.2802C11.5601 45.2802 11.5141 45.2802 11.4682 45.2894C11.3118 45.2986 11.1555 45.2894 11.0083 45.2894C10.7508 45.2894 11.2198 45.3353 10.9715 45.2894C10.898 45.271 10.8244 45.2618 10.7416 45.2435C10.6772 45.2251 10.6221 45.2067 10.5577 45.1883C10.5301 45.1791 10.2818 45.1056 10.4289 45.1516C10.5761 45.1975 10.3738 45.124 10.3462 45.1148C10.2818 45.0781 10.2174 45.0505 10.1438 45.0046C10.0703 44.9586 10.0151 44.9219 9.95071 44.8851C9.78517 44.784 10.0335 44.977 9.95071 44.8851C9.84954 44.7932 9.74838 44.7105 9.64722 44.6095C9.59204 44.5543 9.54605 44.4992 9.50007 44.4441C9.34373 44.2603 9.61043 44.6278 9.48168 44.4165C9.4081 44.2971 9.33453 44.1868 9.27015 44.0673C9.25176 44.0306 9.16899 43.8009 9.21497 43.9479C9.26096 44.0949 9.19658 43.8928 9.18738 43.856C9.1414 43.709 9.10461 43.562 9.07702 43.4058C9.03104 43.1945 9.07702 43.6079 9.07702 43.369C9.07702 43.2863 9.07702 43.2128 9.07702 43.1301C9.07702 42.588 8.608 42.0735 8.047 42.101C7.486 42.1286 7.00778 42.5513 7.01698 43.1301C7.03537 44.8484 8.0562 46.3644 9.63802 47.026C11.3118 47.7335 13.3719 47.2373 14.5122 45.8039C14.8433 45.3813 14.9537 44.7473 14.5122 44.343C14.1352 44.003 13.4086 43.8928 13.05 44.343V44.3522Z" fill="#CFCFCF" fill-opacity="0.998047"/>
<path d="M24.9045 43.1393C24.9045 43.222 24.9045 43.2955 24.9045 43.3782C24.8953 43.6355 24.9505 43.1577 24.9045 43.415C24.8769 43.5528 24.8493 43.6906 24.8033 43.8285C24.7849 43.8744 24.7757 43.9755 24.7389 44.003C24.7941 43.8744 24.8033 43.856 24.7573 43.9663L24.7205 44.0306C24.6562 44.1684 24.5734 44.2879 24.4906 44.4165C24.3895 44.5819 24.5826 44.3338 24.4906 44.4165C24.4355 44.4717 24.3987 44.5268 24.3435 44.5819C24.2515 44.683 24.1504 44.7749 24.0492 44.8576C23.8653 45.0138 24.2331 44.7473 24.0216 44.8759C23.9572 44.9127 23.8929 44.9586 23.8285 44.9954C23.7733 45.023 23.7181 45.0597 23.6629 45.0873C23.6261 45.1057 23.3962 45.1883 23.5434 45.1424C23.6905 45.0965 23.4882 45.1608 23.4514 45.17C23.3778 45.1975 23.3043 45.2159 23.2307 45.2343C23.1571 45.2527 23.0835 45.271 23.0008 45.2802C22.8076 45.317 23.1387 45.2802 23.0008 45.2802C22.8444 45.2802 22.6973 45.2986 22.5409 45.2802C22.4582 45.2802 22.2742 45.2435 22.4582 45.2802C22.3754 45.2619 22.2834 45.2435 22.2007 45.2251C22.1179 45.2067 22.0351 45.17 21.9524 45.1516C21.7684 45.0965 22.0259 45.1975 21.9156 45.1516C21.7776 45.0781 21.6397 45.0138 21.5017 44.9219C21.4649 44.9035 21.2626 44.7289 21.4373 44.8851C21.373 44.83 21.3086 44.7749 21.2442 44.7197C21.1247 44.6003 21.0051 44.4717 20.9039 44.343C20.5729 43.9112 19.782 43.9663 19.4417 44.343C19.0278 44.8024 19.083 45.3445 19.4417 45.804C20.5729 47.2557 22.6513 47.7611 24.3251 47.0536C25.9069 46.392 26.9277 44.8668 26.9461 43.1577C26.9461 42.6156 26.4679 42.1011 25.9161 42.1286C25.3643 42.1562 24.8861 42.5789 24.8861 43.1577L24.9045 43.1393Z" fill="#CFCFCF" fill-opacity="0.998047"/>
<path d="M10.6128 38.9127C10.4657 38.9127 10.3185 38.9035 10.1714 38.8851L10.4473 38.9218C10.1806 38.8851 9.91388 38.8116 9.66557 38.7105L9.91388 38.8116C9.65638 38.7013 9.41726 38.5635 9.18735 38.3981L9.39887 38.5635C9.17815 38.3889 8.98502 38.196 8.81029 37.9754L8.97583 38.1868C8.81029 37.9663 8.66314 37.7274 8.56198 37.4609L8.66314 37.709C8.56198 37.4609 8.4884 37.1944 8.45162 36.928L8.4884 37.2036C8.47001 37.0566 8.46081 36.9096 8.46081 36.7626C8.46081 36.2205 7.99178 35.7059 7.43079 35.7335C6.86979 35.761 6.39157 36.1837 6.40077 36.7626C6.40077 37.8744 6.8514 38.9586 7.64231 39.7488C8.43322 40.539 9.51843 40.98 10.6312 40.9892C11.1738 40.9892 11.6888 40.5114 11.6612 39.9601C11.6337 39.4088 11.2106 38.931 10.6312 38.931L10.6128 38.9127Z" fill="#CFCFCF" fill-opacity="0.998047"/>
<path d="M25.5483 36.7626C25.5483 36.9097 25.5391 37.0567 25.5207 37.2037L25.5575 36.928C25.5207 37.1945 25.4472 37.461 25.346 37.709L25.4472 37.461C25.3368 37.7182 25.1989 37.9571 25.0333 38.1868L25.1989 37.9755C25.0241 38.196 24.831 38.389 24.6103 38.5636L24.8218 38.3982C24.6011 38.5636 24.362 38.7106 24.0953 38.8117L24.3436 38.7106C24.0953 38.8117 23.8286 38.8852 23.5619 38.9219L23.8378 38.8852C23.6906 38.9035 23.5435 38.9127 23.3963 38.9127C22.8537 38.9127 22.3387 39.3813 22.3663 39.9418C22.3939 40.5023 22.8169 40.9801 23.3963 40.9709C24.5091 40.9709 25.5943 40.5207 26.3852 39.7305C27.1761 38.9403 27.6176 37.8561 27.6268 36.7443C27.6268 36.2022 27.1486 35.6876 26.5968 35.7152C26.045 35.7427 25.5667 36.1654 25.5667 36.7443L25.5483 36.7626Z" fill="#CFCFCF" fill-opacity="0.998047"/>
<path d="M31.9308 36.7626C31.9308 36.8821 31.9308 37.0015 31.9124 37.1118C31.9308 36.928 31.9124 37.0842 31.894 37.1761C31.8756 37.2588 31.8572 37.3415 31.8296 37.4242C31.8204 37.4517 31.7101 37.7366 31.7652 37.6171C31.8204 37.4977 31.6825 37.7733 31.6733 37.7917C31.6365 37.8652 31.5905 37.9387 31.5445 38.003C31.4985 38.0765 31.3882 38.1868 31.5077 38.0582C31.4342 38.1409 31.3606 38.2236 31.2778 38.3063C31.2226 38.3614 31.1491 38.4165 31.0939 38.4716C31.2502 38.3154 31.0847 38.4716 31.0387 38.5084C30.9559 38.5635 30.8732 38.6095 30.7904 38.6554C30.7444 38.683 30.4685 38.8024 30.6984 38.7105C30.5421 38.7749 30.3765 38.8208 30.211 38.8576C30.1558 38.8667 30.1006 38.8851 30.0455 38.8943C30.1742 38.8759 30.1834 38.8759 30.0639 38.8943C29.9719 38.8943 29.8891 38.9035 29.7972 38.9035C29.7052 38.9035 29.6224 38.9035 29.5305 38.8943C29.3189 38.8851 29.6868 38.9311 29.4201 38.8759C29.2362 38.8392 29.0614 38.784 28.8867 38.7197C29.1074 38.8116 28.8775 38.7105 28.8315 38.683C28.7303 38.6278 28.6384 38.5727 28.5464 38.5084C28.5004 38.4808 28.3165 38.3154 28.4912 38.4716C28.4269 38.4165 28.3625 38.3614 28.3073 38.3063C28.2429 38.2419 28.1785 38.1501 28.105 38.0949C28.059 38.0398 28.0682 38.0582 28.1326 38.1409C28.0958 38.0949 28.0682 38.049 28.0406 38.003C27.9486 37.8652 27.8659 37.7182 27.7923 37.562C27.9026 37.7917 27.7647 37.4609 27.7463 37.415C27.7187 37.3323 27.7003 37.2496 27.6819 37.1669C27.6727 37.121 27.6451 36.8545 27.6635 37.1026C27.6543 36.9831 27.6451 36.8637 27.6451 36.7534C27.6451 36.2113 27.1761 35.6968 26.6151 35.7243C26.0541 35.7519 25.5759 36.1746 25.5851 36.7534C25.6127 38.5452 26.7163 40.098 28.3901 40.732C29.9719 41.3292 31.9124 40.8239 32.9976 39.5283C33.6597 38.7381 34.0276 37.7917 34.0368 36.7534C34.0368 36.2113 33.5586 35.6968 33.0068 35.7243C32.455 35.7519 31.9768 36.1746 31.9768 36.7534L31.9308 36.7626Z" fill="#CFCFCF" fill-opacity="0.998047"/>
</g>
<defs>
<clipPath id="clip0_891_117293">
<rect width="34" height="48" fill="white"/>
</clipPath>
</defs>
</svg>
