<svg width="39" height="31" viewBox="0 0 39 31" fill="none" xmlns="http://www.w3.org/2000/svg">
<g clip-path="url(#clip0_36_2851)">
<path d="M29.3003 2.11C32.5403 2.11 36.2403 3.7 36.7403 7.32C37.2403 10.94 33.8803 13.46 30.6003 13.87C29.9003 13.96 29.4403 14.47 29.5903 15.2C30.3103 18.69 29.9103 22.05 27.4303 24.8C25.2303 27.24 22.0103 28.62 18.7203 28.54C15.4303 28.46 12.4403 27.11 10.3403 24.67C8.0203 21.97 7.4003 18.56 8.2903 15.16C8.4403 14.6 8.1103 14.03 7.5603 13.87C5.2303 13.17 3.0003 11.98 2.2803 9.46C1.6503 7.25 2.6403 5.06 4.4003 3.68C8.2303 0.7 14.5503 2.3 15.9303 7.05C16.0503 7.45 16.4903 7.88 16.9403 7.82C18.5203 7.63 20.0603 7.63 21.6203 8C22.1403 8.12 22.8003 7.84 22.9103 7.27C23.5503 4.15 26.2903 2.45 29.3003 2.14C30.6303 2 30.6403 -0.1 29.3003 0.04C25.4003 0.45 21.7203 2.62 20.8903 6.72L22.1803 5.99C20.4403 5.57 18.7103 5.52 16.9403 5.74L17.9503 6.51C16.1503 0.23 7.8603 -1.98 2.9203 2.17C0.620296 4.1 -0.559704 7.04 0.260296 9.99C1.1603 13.23 3.9803 14.96 7.0103 15.87L6.2803 14.58C5.2303 18.58 5.9503 22.65 8.6303 25.86C11.1403 28.87 14.8503 30.51 18.7403 30.63C22.6303 30.75 26.6603 28.97 29.2003 25.97C30.4903 24.44 31.4503 22.59 31.8603 20.63C32.2903 18.56 32.0503 16.67 31.6303 14.64L30.6203 15.97C34.9403 15.44 39.3303 12.3 38.8903 7.46C38.4503 2.62 33.7803 0 29.3003 0C27.9503 0 27.9503 2.1 29.3003 2.1V2.11Z" fill="#233038"/>
</g>
<defs>
<clipPath id="clip0_36_2851">
<rect width="38.91" height="30.63" fill="white"/>
</clipPath>
</defs>
</svg>
