<svg width="34" height="36" viewBox="0 0 34 36" fill="none" xmlns="http://www.w3.org/2000/svg">
<g clip-path="url(#clip0_36_2853)">
<path d="M25.51 30.9541C23.9841 30.8242 22.0571 30.3247 20.678 31.2039C19.5433 31.9233 18.037 34.6211 16.5502 33.6819C15.1906 32.8226 14.3494 31.1839 12.6377 30.9342C11.3661 30.7443 8.52953 32.0133 7.72746 30.6844C6.92539 29.3555 7.31665 27.477 6.30917 26.1681C5.81032 25.5087 5.0865 25.169 4.39202 24.7693C3.78557 24.4296 2.60203 24.0099 2.29881 23.3105C1.99559 22.6111 2.59225 21.6119 2.85635 20.9625C3.14979 20.2531 3.53126 19.5137 3.63885 18.7443C3.87361 16.9358 2.44553 15.7068 2.0934 14.0582C1.74127 12.4096 4.65612 11.6702 5.60491 10.771C6.90583 9.55198 6.65151 7.69352 7.15036 6.12483C7.69812 4.40626 10.075 5.30551 11.4248 5.33549C13.4398 5.37546 14.4179 3.67687 15.8362 2.52783C17.2545 1.37879 18.6337 3.45705 19.6705 4.30635C21.2257 5.58528 23.0157 4.98578 24.8155 4.80593C26.7718 4.61609 26.6642 7.15397 27.0554 8.55281C27.5836 10.4113 29.2269 11.0507 30.743 11.92C31.6722 12.4496 31.9363 13.069 31.5255 14.1082C31.2027 14.9275 30.7919 15.7168 30.5278 16.5561C29.8235 18.7243 31.4179 19.9633 31.8776 21.9017C32.3374 23.8401 28.8748 24.4895 27.9749 25.7485C27.075 27.0074 27.5249 30.9841 25.51 30.9641C24.1895 30.9541 24.1895 33.0524 25.51 33.0624C28.2977 33.0824 28.7867 30.6844 29.2171 28.4562C29.3834 27.5869 29.5203 27.0074 30.2931 26.4779C30.9875 25.9983 31.7407 25.6186 32.4352 25.149C33.5111 24.4196 34.1567 23.2306 33.9708 21.8917C33.8535 21.0224 33.3546 20.1731 33.0025 19.3938C32.621 18.5545 32.2102 17.945 32.5623 17.0158C32.8753 16.1864 33.2568 15.3771 33.5698 14.5578C33.9708 13.5087 33.9219 12.3696 33.3057 11.4104C32.7971 10.6111 31.9265 10.2114 31.1343 9.7618C30.342 9.31218 29.3932 8.97246 29.0508 8.0832C28.7574 7.30385 28.6693 6.39461 28.4737 5.58528C28.2194 4.52616 27.7499 3.60693 26.762 3.06738C25.8621 2.5678 24.9524 2.70768 23.9939 2.82758C23.2211 2.9175 21.93 3.30718 21.2062 2.89752C20.5313 2.51784 19.915 1.78844 19.3379 1.27887C18.5065 0.50951 17.6751 -0.0600149 16.5209 -6.48238e-05C15.4352 0.0598852 14.682 0.739319 13.9386 1.44873C13.3811 1.97829 12.6475 2.99744 11.8748 3.19727C11.102 3.3971 10.0554 3.10735 9.2827 3.0374C7.12102 2.85755 5.51688 3.74681 5.07671 6.03491C4.92021 6.83424 4.85174 7.70352 4.59743 8.47287C4.29421 9.42208 3.28673 9.80177 2.50422 10.2914C1.72171 10.781 0.890293 11.2306 0.401225 12.0899C-0.195438 13.149 -0.0682803 14.278 0.401225 15.3471C0.743572 16.1465 1.23264 16.9458 1.49674 17.7751C1.76083 18.6044 1.27177 19.4138 0.958762 20.1731C0.626196 20.9924 0.156691 21.8417 0.14691 22.751C0.127347 24.0199 0.812042 25.0591 1.84887 25.7085C2.58247 26.1681 3.38454 26.5278 4.11814 27.0074C4.91043 27.517 4.99846 28.1964 5.19409 29.0657C5.38972 29.935 5.49731 30.8342 5.88857 31.5936C6.49501 32.7826 7.71768 33.4221 9.00882 33.3422C9.81089 33.2922 10.6227 33.1423 11.415 33.0524C12.2954 32.9425 12.8138 33.1623 13.4789 33.7418C15.1809 35.2306 17.0882 37.0491 19.3184 35.2406C19.9542 34.731 20.5215 34.1215 21.1181 33.562C21.7637 32.9525 22.2821 32.7726 23.1624 32.8526L25.51 33.0524C26.8305 33.1623 26.8207 31.064 25.51 30.9541Z" fill="#233038"/>
<path d="M13.215 14.6577H11.6109V16.8059H9.46875V18.3546H11.6109V20.5028H13.215V18.3546H15.3669V16.8059H13.215V14.6577Z" fill="#233038"/>
<path d="M24.5911 18.4847H23.1825V16.8261H21.285V18.4847H18.957L22.7424 13.1592H20.6394L16.5508 18.7745V20.1534H21.2263V22.0118H23.1825V20.1534H24.5911V18.4847Z" fill="#233038"/>
</g>
<defs>
<clipPath id="clip0_36_2853">
<rect width="34" height="36" fill="white"/>
</clipPath>
</defs>
</svg>
