<svg width="40" height="38" viewBox="0 0 40 38" fill="none" xmlns="http://www.w3.org/2000/svg">
<g clip-path="url(#clip0_36_2843)">
<path d="M21.2499 28.8393H9.23403C6.92075 28.8393 4.6824 28.6686 3.15582 26.5822C1.62925 24.4959 2.06943 21.7172 2.06943 19.3179C2.06943 18.2179 2.01323 17.1273 2.35976 16.0651C2.94978 14.2633 4.46699 12.8692 6.2839 12.414C7.84793 12.0252 9.69293 12.2528 11.2851 12.2528H18.946C20.9034 12.2528 22.8795 12.0821 24.556 13.3529C27.2532 15.3918 26.785 18.7774 26.785 21.7741C26.785 23.0544 26.8411 24.3157 26.3167 25.5201C25.4176 27.559 23.4321 28.7824 21.2593 28.8393C19.995 28.8677 19.995 30.8592 21.2593 30.8308C25.4082 30.7265 28.658 27.4452 28.7517 23.2346C28.7985 21.006 29.0233 18.5024 28.5925 16.3022C27.8807 12.6985 24.6684 10.3182 21.1282 10.2708C18.8992 10.2328 16.6609 10.2708 14.4319 10.2708C12.2029 10.2708 9.96453 10.2328 7.73555 10.2708C4.20476 10.3277 0.98303 12.708 0.271253 16.3022C-0.159559 18.5024 0.0652122 21.006 0.11204 23.2346C0.205695 27.4357 3.45552 30.736 7.60443 30.8308C12.1467 30.9256 16.7077 30.8308 21.2593 30.8308C22.5237 30.8308 22.5237 28.8393 21.2593 28.8393H21.2499Z" fill="#233038"/>
<path d="M28.6582 18.1321C29.3137 17.7717 29.9787 17.4018 30.6343 17.0415C30.7279 16.9846 30.8216 16.9372 30.9246 16.8803C31.14 16.7664 31.3086 16.5199 31.3741 16.2828C31.4397 16.0457 31.4116 15.7233 31.2711 15.5146C30.9714 15.05 30.4095 14.8887 29.9225 15.1543C29.2669 15.5146 28.602 15.8845 27.9464 16.2449C27.8527 16.3018 27.7591 16.3492 27.6561 16.4061C27.4406 16.5199 27.2721 16.7665 27.2065 17.0035C27.1409 17.2406 27.169 17.5631 27.3095 17.7717C27.6092 18.2364 28.1712 18.3976 28.6582 18.1321Z" fill="#233038"/>
<path d="M30.925 16.8803C33.7909 15.2966 36.6473 13.7128 39.5132 12.1291L38.0334 11.2661V29.8251L39.5132 28.9621C35.8981 26.9611 32.2737 24.9601 28.6586 22.9591C27.5441 22.3427 26.5514 24.0592 27.6658 24.6756C31.2809 26.6766 34.9054 28.6776 38.5204 30.6786C39.1667 31.039 40.0002 30.5933 40.0002 29.8156V11.2756C40.0002 10.5074 39.1667 10.0522 38.5204 10.4126C35.6546 11.9963 32.7981 13.5801 29.9323 15.1638C28.8178 15.7802 29.8105 17.4967 30.925 16.8803Z" fill="#233038"/>
<path d="M6.09726 37.5162C7.22112 35.4299 8.35434 33.3341 9.4782 31.2477C9.63742 30.9442 9.80599 30.6408 9.96521 30.3468C10.2181 29.8726 10.0776 29.2657 9.60932 28.9812C9.14105 28.6967 8.52292 28.8674 8.26069 29.3415C7.13683 31.4279 6.00361 33.5237 4.87975 35.6101C4.72053 35.9135 4.55196 36.217 4.39274 36.511C4.13987 36.9852 4.28036 37.5921 4.74863 37.8766C5.21691 38.1611 5.83503 37.9904 6.09726 37.5162Z" fill="#233038"/>
<path d="M18.8623 30.3374C19.9862 32.4237 21.1194 34.5196 22.2433 36.6059C22.4025 36.9094 22.5711 37.2128 22.7303 37.5068C22.9832 37.981 23.6294 38.1327 24.0789 37.8672C24.5285 37.6017 24.6877 36.9758 24.4348 36.5016C23.311 34.4152 22.1777 32.3194 21.0539 30.2331C20.8947 29.9296 20.7261 29.6261 20.5669 29.3321C20.314 28.858 19.6678 28.7062 19.2182 28.9718C18.7687 29.2373 18.6095 29.8632 18.8623 30.3374Z" fill="#233038"/>
<path d="M10.7979 6.90382C10.7792 8.10821 10.03 9.28416 8.92485 9.65401C8.55959 9.77729 8.33482 9.82471 8.05386 9.84368C7.61368 9.86264 7.4732 9.84368 7.09858 9.73936C6.48982 9.56866 6.03091 9.2557 5.59073 8.72463C5.67502 8.82895 5.572 8.69618 5.56264 8.6867C5.50644 8.60135 5.45025 8.516 5.39406 8.43065C5.3566 8.37375 5.3285 8.30736 5.29104 8.25046C5.29104 8.25046 5.15055 7.947 5.21611 8.10821C5.15055 7.947 5.09436 7.77629 5.0569 7.60559C5.00071 7.37799 4.99134 7.34954 4.98198 7.17884C4.95388 6.81847 4.98198 6.54345 5.0288 6.30637C5.12246 5.87013 5.18802 5.72788 5.38469 5.38648C5.43152 5.31061 5.47835 5.24423 5.52517 5.16836C5.5439 5.13991 5.67502 4.96921 5.58137 5.08301C5.68439 4.95024 5.80614 4.82696 5.92789 4.71315C6.1152 4.54245 6.39616 4.3433 6.74269 4.18208C6.70523 4.20105 6.60221 4.23898 6.78951 4.16312C6.88317 4.12518 6.98619 4.09673 7.08921 4.06828C7.15477 4.04932 7.22033 4.03035 7.29525 4.02087C7.26715 4.02087 7.60431 3.96397 7.4732 3.98293C7.52002 3.98293 7.80099 3.96397 7.9321 3.96397C8.02576 3.96397 8.11005 3.96397 8.2037 3.97345C8.40974 3.98293 8.17561 3.95448 8.36292 3.99242C9.12152 4.1726 9.59916 4.42865 10.1049 5.00714C10.3109 5.24423 10.0206 4.86489 10.1986 5.13042C10.2547 5.21577 10.3109 5.30113 10.3671 5.38648C10.4233 5.47183 10.4702 5.56666 10.517 5.66149C10.6013 5.8322 10.517 5.61408 10.5825 5.80375C10.6481 5.99341 10.7043 6.20205 10.7511 6.41068C10.7511 6.42965 10.7792 6.60035 10.7605 6.46758C10.7792 6.60984 10.7792 6.76157 10.7886 6.90382C10.8073 8.18408 12.7741 8.18408 12.7553 6.90382C12.7272 4.81747 11.4535 3.00614 9.5336 2.26644C7.61368 1.52673 5.41279 2.16212 4.15781 3.7174C2.90284 5.27268 2.61251 7.61508 3.68017 9.42641C4.74784 11.2377 6.80825 12.1102 8.82183 11.7404C11.0976 11.3231 12.7085 9.1988 12.7366 6.90382C12.7553 5.62356 10.7886 5.62356 10.7698 6.90382H10.7979Z" fill="#233038"/>
<path d="M24.2749 5.91751C24.2562 7.52969 23.2728 9.04704 21.7556 9.59707C20.2384 10.1471 18.4027 9.69191 17.3538 8.36423C16.3049 7.03655 16.2487 5.28212 17.0635 3.89755C17.8783 2.51297 19.4985 1.7543 21.0625 2.04828C22.9169 2.38969 24.2468 4.02083 24.2749 5.91751C24.2936 7.19777 26.2604 7.19777 26.2416 5.91751C26.2042 3.43286 24.6963 1.24219 22.4018 0.360237C20.1072 -0.52172 17.4474 0.227469 15.9209 2.11467C14.3943 4.00186 14.0946 6.78999 15.3683 8.94272C16.642 11.0955 19.1051 12.1671 21.5214 11.7214C24.2562 11.2187 26.2042 8.67718 26.2416 5.91751C26.2604 4.63725 24.2936 4.63725 24.2749 5.91751Z" fill="#233038"/>
</g>
<defs>
<clipPath id="clip0_36_2843">
<rect width="40" height="38" fill="white"/>
</clipPath>
</defs>
</svg>
