<svg width="33" height="48" viewBox="0 0 33 48" fill="none" xmlns="http://www.w3.org/2000/svg">
<g clip-path="url(#clip0_891_117281)">
<path d="M15.7627 15.4769V13.8332C15.7627 13.2888 15.7096 12.7124 15.7627 12.1681L15.7202 12.4883C15.7202 12.4883 15.7415 12.4029 15.7521 12.3602C15.7521 12.2535 15.646 12.6057 15.6884 12.499C15.7839 12.2962 15.6036 12.595 15.6036 12.5843C15.6036 12.563 15.6884 12.499 15.699 12.4883C15.7521 12.4136 15.4975 12.6164 15.5823 12.5737C15.6036 12.5737 15.6778 12.499 15.699 12.499C15.699 12.499 15.402 12.595 15.5717 12.5523C15.6248 12.5417 15.6884 12.5203 15.7415 12.5096L15.4232 12.5523C15.8263 12.499 16.2506 12.5417 16.6537 12.5417C17.0568 12.5417 17.4811 12.499 17.8842 12.5523L17.5659 12.5096C17.5659 12.5096 17.6614 12.531 17.7145 12.5417C17.7675 12.5523 17.8948 12.6057 17.7145 12.531C17.5341 12.4563 17.672 12.531 17.7145 12.5523C17.8736 12.6377 17.5447 12.3815 17.6296 12.4776C17.6508 12.499 17.6826 12.531 17.7038 12.5523C17.7993 12.6377 17.5341 12.2962 17.6296 12.4563C17.7145 12.6057 17.5659 12.3175 17.5766 12.3068L17.6084 12.4563L17.5659 12.1361C17.619 12.6804 17.5659 13.2568 17.5659 13.8012V15.4449C17.5659 16.0747 18.1175 16.6724 18.754 16.6404C19.3904 16.6084 19.942 16.1174 19.942 15.4449V13.1821C19.942 12.8725 19.942 12.563 19.942 12.2535C19.9314 11.7304 19.7511 11.3035 19.4329 10.8979C19.051 10.4176 18.4676 10.2041 17.8842 10.1294C17.5341 10.0867 17.1841 10.1187 16.834 10.1187C16.4309 10.1187 16.0279 10.1187 15.6354 10.1187C14.6489 10.1187 13.6412 10.7378 13.4078 11.7625C13.3229 12.1254 13.3442 12.4883 13.3442 12.8512V15.4449C13.3442 16.0747 13.8957 16.6724 14.5322 16.6404C15.1686 16.6084 15.7202 16.1174 15.7202 15.4449L15.7627 15.4769Z" fill="#CFCFCF" fill-opacity="0.998047"/>
<path d="M30.6133 31.4022C30.539 37.3689 26.8158 42.8765 21.1408 44.8298C15.4658 46.7831 9.3134 44.99 5.55834 40.4216C1.80327 35.8532 1.33654 29.1928 4.33847 24.1227C7.3404 19.0527 13.323 16.3095 19.0723 17.4196C25.7444 18.7004 30.5284 24.603 30.6027 31.4022C30.6239 32.9499 33.0106 32.9499 32.9894 31.4022C32.9045 24.4429 28.6085 18.1988 22.0955 15.7758C15.5824 13.3529 8.10414 15.4769 3.74445 20.8138C-0.615241 26.1507 -1.27291 33.9106 2.2594 39.8879C5.82352 45.8972 12.8775 49.0246 19.6876 47.7011C27.3886 46.2068 32.8833 39.2048 32.9788 31.4022C33 29.8545 30.6133 29.8545 30.5921 31.4022H30.6133Z" fill="#CFCFCF" fill-opacity="0.998047"/>
<path d="M15.7521 17.2275C20.4406 20.1415 23.5168 25.2009 23.7078 30.7832C23.8987 36.3656 21.1726 41.8413 16.5371 45.0648C15.2854 45.94 16.4734 48.0214 17.7463 47.1355C23.0607 43.4317 26.3172 37.3369 26.0945 30.7832C25.8717 24.2295 22.3818 18.5191 16.9614 15.1568C15.646 14.3456 14.4474 16.4163 15.7521 17.2275Z" fill="#CFCFCF" fill-opacity="0.998047"/>
<path d="M15.8794 15.1568C10.459 18.519 6.9691 24.3469 6.74634 30.7832C6.52358 37.2195 9.78009 43.4423 15.0945 47.1354C16.3568 48.0213 17.5554 45.94 16.3037 45.0647C11.6682 41.8412 8.9421 36.4616 9.13303 30.7832C9.32397 25.1047 12.3895 20.1414 17.0887 17.2275C18.3934 16.4163 17.1947 14.3349 15.8794 15.1568Z" fill="#CFCFCF" fill-opacity="0.998047"/>
<path d="M17.6828 46.0467V16.3629C17.6828 14.8152 15.2961 14.8152 15.2961 16.3629V46.0467C15.2961 47.5944 17.6828 47.5944 17.6828 46.0467Z" fill="#CFCFCF" fill-opacity="0.998047"/>
<path d="M1.15625 32.982H31.8014C33.3395 32.982 33.3395 30.5804 31.8014 30.5804H1.15625C-0.381837 30.5804 -0.381837 32.982 1.15625 32.982Z" fill="#CFCFCF" fill-opacity="0.998047"/>
<path d="M4.22168 24.8912H29.51C31.0481 24.8912 31.0481 22.4896 29.51 22.4896H4.22168C2.68359 22.4896 2.68359 24.8912 4.22168 24.8912Z" fill="#CFCFCF" fill-opacity="0.998047"/>
<path d="M4.60376 41.0834H27.5903C29.1284 41.0834 29.1284 38.6818 27.5903 38.6818H4.60376C3.06567 38.6818 3.06567 41.0834 4.60376 41.0834Z" fill="#CFCFCF" fill-opacity="0.998047"/>
<path d="M17.6828 11.3569V1.16346C17.6828 -0.384239 15.2961 -0.384239 15.2961 1.16346V11.3569C15.2961 12.9046 17.6828 12.9046 17.6828 11.3569Z" fill="#CFCFCF" fill-opacity="0.998047"/>
</g>
<defs>
<clipPath id="clip0_891_117281">
<rect width="33" height="48" fill="white"/>
</clipPath>
</defs>
</svg>
