<svg width="28" height="38" viewBox="0 0 28 38" fill="none" xmlns="http://www.w3.org/2000/svg">
<g clip-path="url(#clip0_1337_25249)">
<path d="M14.8831 27.2167C15.2714 24.0176 17.6695 21.7454 19.718 19.503C21.7666 17.2607 23.8054 15.138 25.8928 12.9953C26.3976 12.4771 26.9122 11.9489 27.4171 11.4406C28.3491 10.4939 26.9122 9.00895 25.9802 9.96568C24.5239 11.4406 23.087 12.9256 21.6598 14.4204C19.6209 16.5531 17.5141 18.6759 15.6986 21.0179C14.2132 22.9413 13.1355 24.765 12.8345 27.2266C12.7666 27.7947 13.3491 28.2631 13.854 28.273C14.4656 28.273 14.8054 27.7847 14.8734 27.2266L14.8831 27.2167Z" fill="#233038"/>
<path d="M14.8837 27.2167C14.6022 24.9246 13.6799 23.2303 12.3303 21.4166C11.5634 20.3901 10.709 19.4234 9.85461 18.4766C7.73811 16.1346 5.55364 13.8624 3.35947 11.6101C2.81578 11.052 2.2818 10.5039 1.73811 9.95576C0.806071 9.009 -0.640531 10.484 0.301217 11.4307C3.68957 14.859 7.175 18.2972 10.2333 22.0444C11.3595 23.4297 12.6022 25.1737 12.8449 27.2167C12.9129 27.7848 13.2624 28.2532 13.8643 28.2631C14.3595 28.2631 14.9517 27.7748 14.8837 27.2167Z" fill="#233038"/>
<path d="M7.79649 38.0001H19.379C20.6897 38.0001 20.6897 35.9072 19.379 35.9072H7.79649C6.48581 35.9072 6.48581 38.0001 7.79649 38.0001Z" fill="#233038"/>
<path d="M1.18418 11.4908H27.0094C28.3201 11.4908 28.3201 9.39795 27.0094 9.39795H1.18418C-0.126498 9.39795 -0.126498 11.4908 1.18418 11.4908Z" fill="#233038"/>
<path d="M7.17519 16.0752C8.3985 14.969 10.049 15.4474 11.3208 16.2147C12.4179 16.8825 13.1752 17.8492 14.4373 18.2478C17.1655 19.0949 20.7286 18.1282 22.7674 16.1151C23.7189 15.1783 22.2723 13.7033 21.3305 14.6401C19.68 16.2745 15.8451 17.3608 13.9325 15.6467C11.6412 13.5937 8.32083 12.2682 5.72859 14.6003C4.7383 15.4972 6.1849 16.9722 7.16549 16.0752H7.17519Z" fill="#233038"/>
<path d="M15.1169 25.2534C15.68 18.9051 16.2431 12.5569 16.8062 6.20858C16.8839 5.30168 16.9615 4.40475 17.0489 3.49786L16.3014 4.50441C18.5247 3.69717 20.748 2.88994 22.9713 2.0827C24.2043 1.63423 23.6703 -0.388847 22.4276 0.0695843C20.2043 0.876823 17.981 1.68406 15.7577 2.4913C15.2916 2.66072 15.0489 3.00953 15.0101 3.49786C14.447 9.84614 13.8839 16.1944 13.3208 22.5427C13.2431 23.4496 13.1654 24.3465 13.078 25.2534C12.9615 26.5988 15.0004 26.5889 15.1169 25.2534Z" fill="#233038"/>
<path d="M12.8447 26.8977V36.8537C12.8447 38.1991 14.8836 38.1991 14.8836 36.8537V26.8977C14.8836 25.5523 12.8447 25.5523 12.8447 26.8977Z" fill="#233038"/>
</g>
<defs>
<clipPath id="clip0_1337_25249">
<rect width="28" height="38" fill="white"/>
</clipPath>
</defs>
</svg>
