<svg width="35" height="48" viewBox="0 0 35 48" fill="none" xmlns="http://www.w3.org/2000/svg">
<g clip-path="url(#clip0_891_117309)">
<path d="M34.8 18.69C34.74 11.08 30.8 3.85998 23.47 1.07998C16.68 -1.49002 8.62003 0.629979 4.09003 6.31998C1.29003 9.83998 0.0400332 14.23 3.32347e-05 18.69C-0.00996676 20.14 2.24003 20.14 2.25003 18.69C2.30003 12.04 5.68003 5.46998 12.21 3.13998C18.18 1.00998 25.05 2.78998 29.02 7.78998C31.47 10.88 32.52 14.79 32.55 18.69C32.56 20.14 34.81 20.14 34.8 18.69Z" fill="#CFCFCF" fill-opacity="0.998047"/>
<path d="M2.36008 19.08C2.36008 18.93 2.36008 18.79 2.38008 18.64C2.36008 18.84 2.40008 18.56 2.41008 18.51C2.43008 18.41 2.46008 18.3 2.49008 18.2C2.50008 18.16 2.62008 17.85 2.58008 17.94C2.54008 18.03 2.69008 17.74 2.71008 17.7C2.76008 17.61 2.82008 17.52 2.87008 17.43C2.90008 17.39 3.07008 17.18 2.94008 17.33C3.03008 17.22 3.12008 17.12 3.22008 17.03C3.29008 16.96 3.37008 16.89 3.45008 16.82C3.29008 16.96 3.54008 16.76 3.55008 16.75C3.65008 16.68 3.75008 16.62 3.86008 16.56C3.90008 16.54 4.22008 16.39 4.02008 16.47C4.22008 16.39 4.42008 16.33 4.63008 16.28C4.70008 16.26 4.77008 16.25 4.84008 16.24C4.72008 16.25 4.73008 16.25 4.86008 16.24C4.97008 16.24 5.08008 16.23 5.19008 16.23C5.30008 16.23 5.41008 16.23 5.52008 16.24C5.66008 16.25 5.67008 16.25 5.54008 16.24C5.59008 16.24 5.65008 16.26 5.70008 16.27C5.92008 16.32 6.15008 16.38 6.36008 16.47C6.16008 16.39 6.43008 16.51 6.47008 16.53C6.59008 16.59 6.71008 16.67 6.83008 16.74C6.87008 16.77 7.10008 16.95 6.93008 16.81C7.01008 16.88 7.09008 16.95 7.16008 17.02C7.25008 17.1 7.33008 17.19 7.41008 17.28C7.46008 17.34 7.46008 17.33 7.40008 17.25C7.44008 17.31 7.48008 17.36 7.52008 17.42C7.64008 17.59 7.74008 17.78 7.83008 17.96C7.74008 17.76 7.89008 18.14 7.91008 18.18C7.94008 18.28 7.97008 18.38 7.99008 18.49C7.99008 18.51 8.05008 18.85 8.02008 18.62C8.04008 18.77 8.04008 18.91 8.04008 19.06C8.04008 19.67 8.55008 20.18 9.16008 20.18C9.77008 20.18 10.2901 19.67 10.2801 19.06C10.2501 16.9 8.92008 15.02 6.90008 14.26C4.88008 13.5 2.64008 14.14 1.33008 15.72C0.530078 16.67 0.100078 17.82 0.0800781 19.06C0.0800781 19.67 0.600078 20.18 1.20008 20.18C1.80008 20.18 2.32008 19.67 2.32008 19.06L2.36008 19.08Z" fill="#CFCFCF" fill-opacity="0.998047"/>
<path d="M10.31 19.08C10.31 18.93 10.31 18.79 10.33 18.64C10.31 18.84 10.35 18.56 10.36 18.51C10.38 18.41 10.41 18.3 10.44 18.2C10.45 18.16 10.57 17.85 10.53 17.94C10.49 18.03 10.64 17.74 10.66 17.7C10.71 17.61 10.77 17.52 10.82 17.43C10.85 17.39 11.02 17.18 10.89 17.33C10.98 17.22 11.07 17.12 11.17 17.03C11.24 16.96 11.32 16.89 11.4 16.82C11.24 16.96 11.49 16.76 11.5 16.75C11.6 16.68 11.7 16.62 11.81 16.56C11.85 16.54 12.17 16.39 11.97 16.47C12.17 16.39 12.37 16.33 12.58 16.28C12.65 16.26 12.72 16.25 12.79 16.24C12.67 16.25 12.68 16.25 12.81 16.24C12.92 16.24 13.03 16.23 13.14 16.23C13.25 16.23 13.36 16.23 13.47 16.24C13.61 16.25 13.62 16.25 13.49 16.24C13.54 16.24 13.6 16.26 13.65 16.27C13.87 16.32 14.1 16.38 14.31 16.47C14.11 16.39 14.38 16.51 14.42 16.53C14.54 16.59 14.66 16.67 14.78 16.74C14.82 16.77 15.05 16.95 14.88 16.81C14.96 16.88 15.04 16.95 15.11 17.02C15.2 17.1 15.28 17.19 15.36 17.28C15.41 17.34 15.41 17.33 15.35 17.25C15.39 17.31 15.43 17.36 15.47 17.42C15.59 17.59 15.69 17.78 15.78 17.96C15.69 17.76 15.84 18.14 15.86 18.18C15.89 18.28 15.92 18.38 15.94 18.49C15.94 18.51 16 18.85 15.97 18.62C15.99 18.77 15.99 18.91 15.99 19.06C15.99 19.67 16.5 20.18 17.11 20.18C17.72 20.18 18.24 19.67 18.23 19.06C18.2 16.9 16.87 15.02 14.85 14.26C12.83 13.5 10.59 14.14 9.28003 15.72C8.48003 16.67 8.05003 17.82 8.03003 19.06C8.03003 19.67 8.55003 20.18 9.15003 20.18C9.75003 20.18 10.27 19.67 10.27 19.06L10.31 19.08Z" fill="#CFCFCF" fill-opacity="0.998047"/>
<path d="M18.26 19.08C18.26 18.93 18.26 18.79 18.28 18.64C18.26 18.84 18.3 18.56 18.31 18.51C18.33 18.41 18.36 18.3 18.39 18.2C18.4 18.16 18.52 17.85 18.48 17.94C18.44 18.03 18.59 17.74 18.61 17.7C18.66 17.61 18.72 17.52 18.77 17.43C18.8 17.39 18.97 17.18 18.84 17.33C18.93 17.22 19.02 17.12 19.12 17.03C19.19 16.96 19.27 16.89 19.35 16.82C19.19 16.96 19.44 16.76 19.45 16.75C19.55 16.68 19.65 16.62 19.76 16.56C19.8 16.54 20.12 16.39 19.92 16.47C20.12 16.39 20.32 16.33 20.53 16.28C20.6 16.26 20.67 16.25 20.74 16.24C20.62 16.25 20.63 16.25 20.76 16.24C20.87 16.24 20.98 16.23 21.09 16.23C21.2 16.23 21.31 16.23 21.42 16.24C21.56 16.25 21.57 16.25 21.44 16.24C21.49 16.24 21.55 16.26 21.6 16.27C21.82 16.32 22.05 16.38 22.26 16.47C22.06 16.39 22.33 16.51 22.37 16.53C22.49 16.59 22.61 16.67 22.73 16.74C22.77 16.77 23 16.95 22.83 16.81C22.91 16.88 22.99 16.95 23.06 17.02C23.15 17.1 23.23 17.19 23.31 17.28C23.36 17.34 23.36 17.33 23.3 17.25C23.34 17.31 23.38 17.36 23.42 17.42C23.54 17.59 23.64 17.78 23.73 17.96C23.64 17.76 23.79 18.14 23.81 18.18C23.84 18.28 23.87 18.38 23.89 18.49C23.89 18.51 23.95 18.85 23.92 18.62C23.94 18.77 23.94 18.91 23.94 19.06C23.94 19.67 24.45 20.18 25.06 20.18C25.67 20.18 26.19 19.67 26.18 19.06C26.15 16.9 24.82 15.02 22.8 14.26C20.78 13.5 18.54 14.14 17.23 15.72C16.43 16.67 16 17.82 15.98 19.06C15.98 19.67 16.5 20.18 17.1 20.18C17.7 20.18 18.22 19.67 18.22 19.06L18.26 19.08Z" fill="#CFCFCF" fill-opacity="0.998047"/>
<path d="M26.2099 19.08C26.2099 18.93 26.2099 18.79 26.2299 18.64C26.2099 18.84 26.2499 18.56 26.2599 18.51C26.2799 18.41 26.3099 18.3 26.3399 18.2C26.3499 18.16 26.4699 17.85 26.4299 17.94C26.3899 18.03 26.5399 17.74 26.5599 17.7C26.6099 17.61 26.6699 17.52 26.7199 17.43C26.7499 17.39 26.9199 17.18 26.7899 17.33C26.8799 17.22 26.9699 17.12 27.0699 17.03C27.1399 16.96 27.2199 16.89 27.2999 16.82C27.1399 16.96 27.3899 16.76 27.3999 16.75C27.4999 16.68 27.5999 16.62 27.7099 16.56C27.7499 16.54 28.0699 16.39 27.8699 16.47C28.0699 16.39 28.2699 16.33 28.4799 16.28C28.5499 16.26 28.6199 16.25 28.6899 16.24C28.5699 16.25 28.5799 16.25 28.7099 16.24C28.8199 16.24 28.9299 16.23 29.0399 16.23C29.1499 16.23 29.2599 16.23 29.3699 16.24C29.5099 16.25 29.5199 16.25 29.3899 16.24C29.4399 16.24 29.4999 16.26 29.5499 16.27C29.7699 16.32 29.9999 16.38 30.2099 16.47C30.0099 16.39 30.2799 16.51 30.3199 16.53C30.4399 16.59 30.5599 16.67 30.6799 16.74C30.7199 16.77 30.9499 16.95 30.7799 16.81C30.8599 16.88 30.9399 16.95 31.0099 17.02C31.0999 17.1 31.1799 17.19 31.2599 17.28C31.3099 17.34 31.3099 17.33 31.2499 17.25C31.2899 17.31 31.3299 17.36 31.3699 17.42C31.4899 17.59 31.5899 17.78 31.6799 17.96C31.5899 17.76 31.7399 18.14 31.7599 18.18C31.7899 18.28 31.8199 18.38 31.8399 18.49C31.8399 18.51 31.8999 18.85 31.8699 18.62C31.8899 18.77 31.8899 18.91 31.8899 19.06C31.8899 19.67 32.3999 20.18 33.0099 20.18C33.6199 20.18 34.1399 19.67 34.1299 19.06C34.0999 16.9 32.7699 15.02 30.7499 14.26C28.7299 13.5 26.4899 14.14 25.1799 15.72C24.3799 16.67 23.9499 17.82 23.9299 19.06C23.9299 19.67 24.4499 20.18 25.0499 20.18C25.6499 20.18 26.1699 19.67 26.1699 19.06L26.2099 19.08Z" fill="#CFCFCF" fill-opacity="0.998047"/>
<path d="M0.559951 20.6299C5.03995 26.0499 9.51995 31.4599 14.01 36.8799C14.65 37.6499 15.28 38.4199 15.92 39.1899C16.84 40.3099 18.43 38.7099 17.51 37.5999C13.03 32.1799 8.54995 26.7699 4.05995 21.3499C3.41995 20.5799 2.78995 19.8099 2.14995 19.0399C1.22995 17.9199 -0.360049 19.5199 0.559951 20.6299Z" fill="#CFCFCF" fill-opacity="0.998047"/>
<path d="M32.56 18.4C27.71 24 22.86 29.6 18 35.2C17.31 36 16.61 36.8 15.92 37.6C14.98 38.69 16.56 40.29 17.51 39.19C22.36 33.59 27.21 27.99 32.07 22.39C32.76 21.59 33.46 20.79 34.15 19.99C35.09 18.9 33.51 17.3 32.56 18.4Z" fill="#CFCFCF" fill-opacity="0.998047"/>
<path d="M17.28 45.42C16.08 44.68 14.91 43.89 13.89 42.91C13.71 42.73 13.53 42.55 13.36 42.36C13.29 42.29 13.23 42.21 13.16 42.13C13.12 42.08 13.08 42.03 13.04 41.98C13.1 42.05 13.11 42.08 13.04 41.98C12.82 41.66 12.63 41.33 12.44 40.99C12.31 40.75 12.49 41.15 12.44 40.97C12.42 40.9 12.39 40.83 12.36 40.75C12.31 40.6 12.27 40.46 12.24 40.31C12.23 40.24 12.22 40.18 12.2 40.11C12.15 39.88 12.21 40.35 12.2 40.16C12.2 40.03 12.18 39.9 12.17 39.77C12.16 39.29 12.21 38.99 12.49 38.6C12.71 38.28 13.06 38.04 13.52 37.93C14.56 37.68 15.54 38.54 15.57 39.59C15.6 41.04 17.85 41.04 17.82 39.59C17.78 37.81 16.59 36.17 14.82 35.76C13.05 35.35 11.17 36.16 10.37 37.78C9.35 39.85 10.23 42.14 11.63 43.78C12.87 45.23 14.52 46.35 16.13 47.34C17.37 48.1 18.5 46.16 17.27 45.4L17.28 45.42Z" fill="#CFCFCF" fill-opacity="0.998047"/>
<path d="M17.2799 47.36C19.5999 45.93 22.2899 44.12 23.2099 41.4C23.5099 40.51 23.5899 39.44 23.3399 38.54C22.8599 36.83 21.1899 35.58 19.4099 35.67C17.2799 35.77 15.6399 37.5 15.5899 39.61C15.5599 41.06 17.8099 41.06 17.8399 39.61C17.8599 38.68 18.5799 37.91 19.5399 37.91C20.4999 37.91 21.2099 38.65 21.2399 39.54C21.2399 39.67 21.2399 39.81 21.2399 39.94C21.2399 40 21.2299 40.06 21.2299 40.13C21.2099 40.4 21.2699 39.95 21.2299 40.1C21.1599 40.39 21.0999 40.67 20.9999 40.95C20.9199 41.18 21.0899 40.79 20.9999 40.97C20.9599 41.04 20.9299 41.12 20.8899 41.2C20.7999 41.38 20.6999 41.54 20.5899 41.71C20.5299 41.79 20.4799 41.88 20.4199 41.96C20.2699 42.17 20.4699 41.91 20.3399 42.06C20.1899 42.24 20.0299 42.42 19.8699 42.59C18.7899 43.72 17.4899 44.6 16.1699 45.41C14.9399 46.17 16.0699 48.11 17.3099 47.35L17.2799 47.36Z" fill="#CFCFCF" fill-opacity="0.998047"/>
</g>
<defs>
<clipPath id="clip0_891_117309">
<rect width="34.8" height="47.54" fill="white"/>
</clipPath>
</defs>
</svg>
