<svg width="34" height="36" viewBox="0 0 34 36" fill="none" xmlns="http://www.w3.org/2000/svg">
<g clip-path="url(#clip0_1337_25257)">
<path d="M25.51 30.9541C23.9841 30.8242 22.0571 30.3247 20.678 31.2039C19.5433 31.9233 18.037 34.6211 16.5502 33.6819C15.1906 32.8226 14.3494 31.1839 12.6377 30.9342C11.3661 30.7443 8.52953 32.0133 7.72746 30.6844C6.92539 29.3555 7.31665 27.477 6.30917 26.1681C5.81032 25.5087 5.0865 25.169 4.39202 24.7693C3.78557 24.4296 2.60203 24.0099 2.29881 23.3105C1.99559 22.6111 2.59225 21.6119 2.85635 20.9625C3.14979 20.2531 3.53126 19.5137 3.63885 18.7443C3.87361 16.9358 2.44553 15.7068 2.0934 14.0582C1.74127 12.4096 4.65612 11.6702 5.60491 10.771C6.90583 9.55198 6.65151 7.69352 7.15036 6.12483C7.69812 4.40626 10.075 5.30551 11.4248 5.33549C13.4398 5.37546 14.4179 3.67687 15.8362 2.52783C17.2545 1.37879 18.6337 3.45705 19.6705 4.30635C21.2257 5.58528 23.0157 4.98578 24.8155 4.80593C26.7718 4.61609 26.6642 7.15397 27.0554 8.55281C27.5836 10.4113 29.2269 11.0507 30.743 11.92C31.6722 12.4496 31.9363 13.069 31.5255 14.1082C31.2027 14.9275 30.7919 15.7168 30.5278 16.5561C29.8235 18.7243 31.4179 19.9633 31.8776 21.9017C32.3374 23.8401 28.8748 24.4895 27.9749 25.7485C27.075 27.0074 27.5249 30.9841 25.51 30.9641C24.1895 30.9541 24.1895 33.0524 25.51 33.0624C28.2977 33.0824 28.7867 30.6844 29.2171 28.4562C29.3834 27.5869 29.5203 27.0074 30.2931 26.4779C30.9875 25.9983 31.7407 25.6186 32.4352 25.149C33.5111 24.4196 34.1567 23.2306 33.9708 21.8917C33.8535 21.0224 33.3546 20.1731 33.0025 19.3938C32.621 18.5545 32.2102 17.945 32.5623 17.0158C32.8753 16.1864 33.2568 15.3771 33.5698 14.5578C33.9708 13.5087 33.9219 12.3696 33.3057 11.4104C32.7971 10.6111 31.9265 10.2114 31.1343 9.7618C30.342 9.31218 29.3932 8.97246 29.0508 8.0832C28.7574 7.30385 28.6693 6.39461 28.4737 5.58528C28.2194 4.52616 27.7499 3.60693 26.762 3.06738C25.8621 2.5678 24.9524 2.70768 23.9939 2.82758C23.2211 2.9175 21.93 3.30718 21.2062 2.89752C20.5313 2.51784 19.915 1.78844 19.3379 1.27887C18.5065 0.50951 17.6751 -0.0600149 16.5209 -6.48238e-05C15.4352 0.0598852 14.682 0.739319 13.9386 1.44873C13.3811 1.97829 12.6475 2.99744 11.8748 3.19727C11.102 3.3971 10.0554 3.10735 9.2827 3.0374C7.12102 2.85755 5.51688 3.74681 5.07671 6.03491C4.92021 6.83424 4.85174 7.70352 4.59743 8.47287C4.29421 9.42208 3.28673 9.80177 2.50422 10.2914C1.72171 10.781 0.890293 11.2306 0.401225 12.0899C-0.195438 13.149 -0.0682803 14.278 0.401225 15.3471C0.743572 16.1465 1.23264 16.9458 1.49674 17.7751C1.76083 18.6044 1.27177 19.4138 0.958762 20.1731C0.626196 20.9924 0.156691 21.8417 0.14691 22.751C0.127347 24.0199 0.812042 25.0591 1.84887 25.7085C2.58247 26.1681 3.38454 26.5278 4.11814 27.0074C4.91043 27.517 4.99846 28.1964 5.19409 29.0657C5.38972 29.935 5.49731 30.8342 5.88857 31.5936C6.49501 32.7826 7.71768 33.4221 9.00882 33.3422C9.81089 33.2922 10.6227 33.1423 11.415 33.0524C12.2954 32.9425 12.8138 33.1623 13.4789 33.7418C15.1809 35.2306 17.0882 37.0491 19.3184 35.2406C19.9542 34.731 20.5215 34.1215 21.1181 33.562C21.7637 32.9525 22.2821 32.7726 23.1624 32.8526L25.51 33.0524C26.8305 33.1623 26.8207 31.064 25.51 30.9541Z" fill="#233038"/>
<path d="M9.0082 14.7079C9.13536 14.568 9.32121 14.4981 9.55596 14.4981C9.68312 14.4981 9.80049 14.518 9.91787 14.548C10.0255 14.588 10.1331 14.6379 10.2211 14.6979L10.6515 13.4789C10.495 13.369 10.3091 13.2891 10.0842 13.2391C9.85918 13.1892 9.63421 13.1592 9.39946 13.1592C8.6952 13.1592 8.15722 13.359 7.77575 13.7487C7.39428 14.1384 7.20843 14.6579 7.20843 15.3074V15.5672H6.33789V16.8561H7.20843V21.2225H8.8517V16.8561H10.2602V15.5672H8.81257V15.3174C8.81257 15.0376 8.88104 14.8278 9.0082 14.6879V14.7079Z" fill="#233038"/>
<path d="M12.6959 16.2465V15.4471H11.1309V21.2323H12.7741V18.5046C12.7741 17.955 12.9111 17.5454 13.1849 17.2856C13.4588 17.0258 13.8207 16.8959 14.2707 16.8959C14.3294 16.8959 14.3881 16.8959 14.4467 16.8959C14.5054 16.8959 14.5641 16.8959 14.6326 16.9159V15.3672C14.0946 15.3672 13.6447 15.4771 13.273 15.6869C13.0284 15.8268 12.8426 16.0266 12.6861 16.2564L12.6959 16.2465Z" fill="#233038"/>
<path d="M19.6606 15.7269C19.2106 15.4871 18.7118 15.3672 18.164 15.3672C17.6163 15.3672 17.0783 15.4971 16.6186 15.7469C16.1588 15.9967 15.8067 16.3564 15.5426 16.796C15.2785 17.2356 15.1514 17.7552 15.1514 18.3347C15.1514 18.9142 15.2883 19.4138 15.5524 19.8634C15.8165 20.3131 16.198 20.6628 16.687 20.9226C17.1761 21.1823 17.7434 21.3122 18.389 21.3122C18.8976 21.3122 19.3574 21.2323 19.7486 21.0724C20.1399 20.9126 20.4626 20.6828 20.7267 20.383L19.8562 19.4138C19.6704 19.6037 19.4552 19.7435 19.2302 19.8335C19.0052 19.9234 18.7411 19.9733 18.4379 19.9733C18.1053 19.9733 17.8119 19.9134 17.5576 19.7835C17.313 19.6536 17.1174 19.4738 16.9805 19.234C16.9022 19.1041 16.8533 18.9642 16.824 18.8043H21.0984C21.0984 18.7344 21.1082 18.6544 21.118 18.5745C21.1278 18.4946 21.1278 18.4146 21.1278 18.3547C21.1278 17.7352 21.0006 17.1957 20.7365 16.746C20.4724 16.2964 20.1203 15.9567 19.6801 15.7169L19.6606 15.7269ZM17.4304 16.826C17.6456 16.6961 17.8901 16.6361 18.1738 16.6361C18.4575 16.6361 18.702 16.6961 18.9074 16.826C19.1226 16.9559 19.2791 17.1257 19.4063 17.3455C19.4845 17.4954 19.5236 17.6553 19.553 17.8351H16.7849C16.8142 17.6553 16.8533 17.4854 16.9316 17.3455C17.049 17.1157 17.2152 16.9459 17.4304 16.816V16.826Z" fill="#233038"/>
<path d="M27.3576 16.756C27.0935 16.3064 26.7414 15.9667 26.3012 15.7269C25.8513 15.4871 25.3524 15.3672 24.8047 15.3672C24.2569 15.3672 23.7091 15.4971 23.2592 15.7469C22.7995 15.9967 22.4473 16.3564 22.1832 16.796C21.9191 17.2456 21.792 17.7552 21.792 18.3347C21.792 18.9142 21.9289 19.4138 22.193 19.8634C22.4571 20.3131 22.8386 20.6628 23.3277 20.9226C23.8167 21.1823 24.3841 21.3122 25.0296 21.3122C25.5383 21.3122 25.998 21.2323 26.3892 21.0724C26.7805 20.9126 27.1033 20.6828 27.3674 20.383L26.4968 19.4138C26.311 19.6037 26.0958 19.7435 25.8708 19.8335C25.6458 19.9234 25.3817 19.9733 25.0785 19.9733C24.746 19.9733 24.4525 19.9134 24.1982 19.7835C23.9537 19.6536 23.758 19.4738 23.6211 19.234C23.5429 19.1041 23.4939 18.9642 23.4646 18.8043H27.7391C27.7391 18.7344 27.7488 18.6544 27.7586 18.5745C27.7586 18.4946 27.7684 18.4146 27.7684 18.3547C27.7684 17.7352 27.6412 17.1957 27.3771 16.746L27.3576 16.756ZM24.071 16.816C24.2862 16.6861 24.5308 16.6261 24.8144 16.6261C25.0981 16.6261 25.3426 16.6861 25.548 16.816C25.7632 16.9459 25.9197 17.1157 26.0469 17.3355C26.1251 17.4854 26.1643 17.6453 26.1936 17.8251H23.4255C23.4548 17.6453 23.4939 17.4754 23.5722 17.3355C23.6896 17.1057 23.8559 16.9359 24.071 16.806V16.816Z" fill="#233038"/>
</g>
<defs>
<clipPath id="clip0_1337_25257">
<rect width="34" height="36" fill="white"/>
</clipPath>
</defs>
</svg>
