<svg width="31" height="48" viewBox="0 0 31 48" fill="none" xmlns="http://www.w3.org/2000/svg">
<g clip-path="url(#clip0_891_117265)">
<path d="M16.0299 47.06C18.8399 41.43 21.6399 35.8 24.4499 30.16C25.7399 27.56 27.0399 24.97 28.3299 22.37C30.3099 18.39 30.7599 13.87 29.1099 9.68001C27.1299 4.64001 22.6199 0.900015 17.2199 0.150015C11.8199 -0.599985 6.16993 1.70001 2.86993 6.23001C-0.430072 10.76 -0.870072 16.59 1.38993 21.57C2.30993 23.59 3.36993 25.56 4.35993 27.55C7.52993 33.9 10.5599 40.35 13.8699 46.63C13.9399 46.77 14.0099 46.91 14.0799 47.06C14.7299 48.36 16.6699 47.22 16.0199 45.92C13.4299 40.72 10.8299 35.51 8.23993 30.31L4.07993 21.97C2.52993 18.86 1.71993 15.63 2.55993 12.16C3.78993 7.16001 7.88993 3.20001 13.0099 2.39001C18.1299 1.58001 23.5699 4.12001 26.1999 8.77001C28.3699 12.61 28.3899 17.18 26.4499 21.11C25.3499 23.34 24.2299 25.56 23.1199 27.79C20.1099 33.84 17.0899 39.88 14.0799 45.93C13.4399 47.22 15.3799 48.36 16.0199 47.07L16.0299 47.06Z" fill="#CFCFCF" fill-opacity="0.998047"/>
<path d="M19.1801 11.84C19.5901 11.84 20.1601 11.89 20.6601 12.17C21.1901 12.47 21.5101 12.89 21.6101 13.5C21.6101 13.5 21.6301 13.69 21.6201 13.55C21.6201 13.46 21.5901 13.81 21.5701 13.89C21.5001 14.15 21.4001 14.37 21.2301 14.58C20.8601 15.02 20.2801 15.28 19.7201 15.35C18.9701 15.44 18.4701 15.99 18.6401 16.77C18.8701 17.91 18.8001 18.98 18.0601 19.94C17.3201 20.9 16.1701 21.41 15.0001 21.45C12.4801 21.53 10.4401 19.29 11.1101 16.75C11.2701 16.15 10.9101 15.54 10.3201 15.37C9.48011 15.12 8.71011 14.71 8.55011 13.76C8.54011 13.68 8.52011 13.55 8.52011 13.71C8.52011 13.51 8.58011 13.28 8.65011 13.09C8.78011 12.77 9.03011 12.48 9.31011 12.28C10.5401 11.39 12.5201 11.91 12.9601 13.38C13.0901 13.81 13.5501 14.26 14.0401 14.21C14.6401 14.14 15.2101 14.12 15.8001 14.26C16.3901 14.4 17.0501 14.09 17.1801 13.47C17.3901 12.49 18.2001 11.94 19.1801 11.84C19.7901 11.78 20.3001 11.37 20.3001 10.72C20.3001 10.16 19.7801 9.52995 19.1801 9.59995C17.2601 9.79995 15.4401 10.87 15.0101 12.88L16.3901 12.09C15.6001 11.91 14.8301 11.87 14.0301 11.96L15.1101 12.79C14.1801 9.69995 10.1501 8.61995 7.70011 10.7C6.65011 11.59 6.11011 12.92 6.35011 14.28C6.66011 16.04 8.10011 17.06 9.71011 17.55L8.92011 16.17C7.90011 20.05 10.9501 23.85 14.9801 23.72C16.7901 23.66 18.5501 22.88 19.7001 21.46C20.9701 19.91 21.1801 18.1 20.7901 16.19L19.7101 17.61C21.9501 17.33 24.0601 15.71 23.8301 13.29C23.6001 10.87 21.3601 9.59995 19.1701 9.59995C17.7201 9.59995 17.7201 11.85 19.1701 11.85L19.1801 11.84Z" fill="#CFCFCF" fill-opacity="0.998047"/>
</g>
<defs>
<clipPath id="clip0_891_117265">
<rect width="30.12" height="47.63" fill="white"/>
</clipPath>
</defs>
</svg>
