<svg width="53" height="50" viewBox="0 0 53 50" fill="none" xmlns="http://www.w3.org/2000/svg">
<path d="M25.6346 1.49241C27.9616 6.15527 30.2886 10.8181 32.6156 15.481C32.9082 16.0663 33.1475 16.7437 33.5132 17.2896C33.9121 17.8815 34.7033 17.842 35.3482 17.9341L44.4102 19.2363L51.7569 20.2951L51.3181 18.6444C47.555 22.2747 43.7919 25.905 40.0222 29.5353C39.5435 29.9957 38.985 30.4363 38.5595 30.9427C38.0675 31.5281 38.3866 32.4291 38.5063 33.1196C39.0249 36.0923 39.5368 39.0715 40.0554 42.0442C40.4743 44.4578 40.8931 46.8714 41.312 49.2785L42.7747 48.167C38.1207 45.7468 33.4667 43.3266 28.8126 40.9064C28.2209 40.5973 27.6292 40.2224 27.0042 39.9659C26.2463 39.6502 25.5482 40.1895 24.89 40.5381L16.7853 44.7537C14.5979 45.8915 12.4039 47.0293 10.2165 48.167L11.6792 49.2785C12.5701 44.1553 13.4544 39.0255 14.3453 33.9022C14.4583 33.2446 14.6179 32.5803 14.691 31.9161C14.7841 31.0611 14.1059 30.6271 13.5475 30.0878L6.99195 23.7676C5.22343 22.0577 3.44825 20.3543 1.67973 18.6444L1.24092 20.2951C6.44677 19.5454 11.646 18.8022 16.8518 18.0525C17.4967 17.9604 18.2414 17.9538 18.8663 17.7631C19.5179 17.5592 19.7506 16.7569 20.0232 16.2044C21.3729 13.4948 22.7225 10.7918 24.0722 8.08223C25.1692 5.88563 26.2596 3.6956 27.3566 1.49899C27.9217 0.361224 26.1997 -0.63843 25.6346 0.505911C23.3342 5.11616 21.0338 9.73298 18.7267 14.3432C18.4009 15.0009 18.0752 15.652 17.7427 16.3096L18.3411 15.8559C13.1951 16.5924 8.04908 17.3356 2.90307 18.0722C2.17172 18.1774 1.44038 18.2826 0.709031 18.3879C-0.0223146 18.4931 -0.221772 19.5651 0.270223 20.0386C3.99344 23.6295 7.71665 27.2203 11.4465 30.8112C11.9784 31.3242 12.5036 31.8306 13.0355 32.3436L12.7762 31.3834C11.8986 36.454 11.021 41.5246 10.1367 46.5952L9.76442 48.7589C9.61815 49.6007 10.416 50.2979 11.2271 49.8704C15.8279 47.4765 20.4354 45.0826 25.0362 42.6887C25.6878 42.3467 26.346 42.0113 26.9976 41.6693H25.9936C30.5945 44.0632 35.2019 46.4571 39.8028 48.851C40.4543 49.193 41.1125 49.5284 41.7641 49.8704C42.5819 50.2979 43.3731 49.6007 43.2268 48.7589C42.3492 43.6883 41.4716 38.6177 40.5873 33.5471L40.215 31.3834L39.9557 32.3436C43.6789 28.7527 47.4021 25.1618 51.132 21.571C51.6639 21.058 52.1891 20.5516 52.721 20.0386C53.213 19.5651 53.0468 18.4997 52.2822 18.3879C47.1362 17.6513 41.9902 16.9081 36.8441 16.1715C36.1128 16.0663 35.3815 15.9611 34.6501 15.8559L35.2485 16.3096C32.9481 11.6994 30.6477 7.08258 28.3406 2.47234C28.0148 1.81467 27.689 1.16358 27.3566 0.505911C26.7915 -0.631853 25.0695 0.367801 25.6346 1.49899V1.49241Z" fill="#233038"/>
</svg>
