<svg width="31" height="32" viewBox="0 0 31 32" fill="none" xmlns="http://www.w3.org/2000/svg">
<g clip-path="url(#clip0_36_5101)">
<path d="M9.12008 31.4302H21.6801C22.6501 31.4302 22.6501 29.9302 21.6801 29.9302H9.12008C8.15008 29.9302 8.15008 31.4302 9.12008 31.4302Z" fill="white"/>
<path d="M15.4 19.31C15.11 16.75 14.37 15.59 12.51 13.15C10.07 9.93 0 0 0 0H0.17H30.17H30.79C30.79 0 20.72 9.92 18.28 13.14C16.42 15.59 15.68 16.75 15.39 19.3L15.4 19.31Z" fill="white"/>
<path d="M14.9199 5.51021V30.5102C14.9199 31.4802 16.4199 31.4802 16.4199 30.5102V5.51021C16.4199 4.54021 14.9199 4.54021 14.9199 5.51021Z" fill="white"/>
</g>
<defs>
<clipPath id="clip0_36_5101">
<rect width="30.8" height="31.43" fill="white"/>
</clipPath>
</defs>
</svg>
