<svg width="31" height="36" viewBox="0 0 31 36" fill="none" xmlns="http://www.w3.org/2000/svg">
<g clip-path="url(#clip0_1337_25264)">
<path d="M29.0264 0.538549C27.0232 3.33079 26.4439 6.7114 26.218 10.082C25.9922 13.4527 26.1395 16.8732 24.8728 19.9746C23.5177 23.2854 20.3656 25.3297 17.0369 26.1474C14.307 26.8255 11.4594 26.6261 8.71978 27.2643C4.81164 28.1718 2.14075 31.0438 0.157221 34.4444C-0.520321 35.6012 1.257 36.6582 1.93454 35.5014C3.74132 32.41 6.05871 29.9369 9.63299 29.2089C12.4021 28.6405 15.2497 28.82 17.9992 28.0621C21.2199 27.1746 24.3229 25.21 26.0511 22.2482C27.7793 19.2865 27.9561 15.9956 28.1328 12.7646C28.339 8.86542 28.4667 4.8765 30.8135 1.59561C31.5991 0.508632 29.8021 -0.53846 29.0362 0.538549H29.0264Z" fill="#233038"/>
<path d="M29.6447 0.0597588C24.627 1.73511 19.3932 2.55283 14.8174 5.41488C12.3527 6.95062 10.0549 9.02486 8.55256 11.5578C7.05018 14.0908 6.41192 17.0127 6.20571 19.8847C5.9995 22.7567 6.17625 25.6487 7.36441 28.1717C7.93394 29.3883 9.71126 28.3213 9.14173 27.1146C7.9143 24.5019 8.01249 21.0714 8.43473 18.2891C8.98462 14.7091 10.4772 11.7174 13.1284 9.27416C17.9203 4.86641 24.2735 4.04868 30.175 2.07416C31.4319 1.65533 30.8918 -0.36905 29.6251 0.0597588H29.6447Z" fill="#233038"/>
<path d="M16.2901 14.5297C15.2296 19.7851 11.4393 23.5746 7.53115 26.8954C6.50993 27.763 7.97302 29.2389 8.98443 28.3713C13.1577 24.8311 17.1444 20.6727 18.2736 15.0782C18.5388 13.7619 16.5552 13.2034 16.2901 14.5198V14.5297Z" fill="#233038"/>
</g>
<defs>
<clipPath id="clip0_1337_25264">
<rect width="31" height="36" fill="white"/>
</clipPath>
</defs>
</svg>
