<svg width="54" height="40" viewBox="0 0 54 40" fill="none" xmlns="http://www.w3.org/2000/svg">
<g clip-path="url(#clip0_36_5062)">
<path d="M23.1959 10.0127H19.0386C18.8744 10.0127 18.7402 10.1842 18.7402 10.4025C18.7402 10.6208 18.869 10.7774 19.0322 10.7849C19.4154 10.8008 19.731 10.8711 19.9725 10.9925C20.1603 11.0852 20.3042 11.2215 20.3997 11.3951C20.4952 11.5709 20.5425 11.769 20.5425 12.0011C20.5425 12.211 20.506 12.473 20.4351 12.7786C20.3621 13.0907 20.1614 13.7233 19.8394 14.6574L17.2847 21.9636C17.2664 22.0147 17.231 22.02 17.216 22.02C17.2041 22.0158 17.1644 22.0147 17.1462 21.9625L14.3714 13.6978C14.0612 12.7786 13.8777 12.2088 13.8251 12.0022C13.7746 11.8052 13.7488 11.6348 13.7488 11.4952C13.7488 11.2918 13.8068 11.148 13.9345 11.0426C14.1321 10.8701 14.5217 10.7817 15.0938 10.7817H15.4298V10.3961C15.4298 10.1852 15.2956 10.0138 15.1314 10.0138H8.8863C8.72207 10.0138 8.58789 10.1852 8.58789 10.3961V10.4302C8.58789 10.6198 8.6963 10.7785 8.84444 10.8083C9.26307 10.8924 9.55396 11.0543 9.70853 11.2897C9.89423 11.5719 10.2742 12.5603 10.8367 14.2282L15.5232 28.0844C15.5704 28.225 15.6778 28.3145 15.7969 28.3145H15.8892C16.0062 28.3145 16.1136 28.2261 16.1619 28.0897L20.8688 14.7756C21.4248 13.194 21.8477 12.1779 22.1236 11.7594C22.4606 11.2631 22.8428 10.9457 23.2603 10.8168C23.3988 10.7742 23.4954 10.6208 23.4954 10.444V10.3961C23.4954 10.1852 23.3612 10.0138 23.197 10.0138L23.1959 10.0127Z" fill="white"/>
<path d="M29.4936 11.5911C29.5849 11.328 29.7083 11.1416 29.865 11.0341C30.0915 10.8658 30.3974 10.7806 30.7764 10.7806H31.0479C31.2122 10.7806 31.3463 10.6091 31.3463 10.395C31.3463 10.181 31.2122 10.0127 31.0479 10.0127H24.2017C24.0375 10.0127 23.9033 10.1842 23.9033 10.3982C23.9033 10.6123 24.0375 10.7806 24.2017 10.7806H24.4733C24.8383 10.7806 25.1302 10.8594 25.3395 11.0149C25.5446 11.1672 25.6809 11.3429 25.7464 11.5378C25.7936 11.6795 25.8494 12.0778 25.8494 13.1695V24.754C25.8494 25.8223 25.7936 26.2004 25.7464 26.3356C25.6605 26.6008 25.5446 26.7819 25.3868 26.8894C25.1603 27.0577 24.8544 27.1429 24.4754 27.1429H24.2039C24.0396 27.1429 23.9055 27.3144 23.9055 27.5285C23.9055 27.7425 24.0396 27.9108 24.2039 27.9108H31.0501C31.2143 27.9108 31.3485 27.7393 31.3485 27.5253C31.3485 27.3112 31.2143 27.1429 31.0501 27.1429H30.7785C30.4135 27.1429 30.1216 27.0641 29.9123 26.9086C29.7062 26.7563 29.5677 26.5795 29.5001 26.3835C29.4507 26.2419 29.3927 25.8446 29.3927 24.754V13.1695C29.3927 12.1013 29.4475 11.7221 29.4947 11.5911H29.4936Z" fill="white"/>
<path d="M39.3729 27.5227C39.3729 27.3161 39.2419 27.1447 39.082 27.1404C38.5742 27.1276 38.2168 27.0584 38.0225 26.9359C37.8121 26.8038 37.6651 26.6281 37.5856 26.4119C37.5277 26.2564 37.459 25.8283 37.459 24.6748V20.0291C37.459 19.9769 37.4933 19.9353 37.5363 19.9343C39.0079 19.9258 40.077 19.8203 40.7136 19.619C41.7097 19.3187 42.504 18.7446 43.0729 17.9118C43.6461 17.0746 43.9359 16.0554 43.9359 14.8817C43.9359 13.4918 43.4872 12.3181 42.6017 11.3937C41.7226 10.4767 40.2638 10.0112 38.264 10.0112H32.4322C32.268 10.0112 32.1338 10.1827 32.1338 10.401C32.1338 10.6194 32.2626 10.777 32.4268 10.7813C32.9399 10.794 33.2974 10.8622 33.4895 10.9847C33.6988 11.1178 33.8405 11.2893 33.9221 11.5087C33.9801 11.6642 34.0488 12.0913 34.0488 13.2458V24.6748C34.0488 25.8283 33.9801 26.2521 33.9232 26.4044C33.8427 26.6175 33.6977 26.7943 33.4927 26.9306C33.3049 27.0563 32.9464 27.1265 32.429 27.1393C32.2637 27.1436 32.1338 27.3119 32.1338 27.527C32.1338 27.7421 32.268 27.9094 32.4322 27.9094H39.0755C39.2398 27.9094 39.3739 27.7379 39.3739 27.5217L39.3729 27.5227ZM37.4579 18.554V11.4075C37.4579 11.3553 37.4923 11.3127 37.533 11.3127H37.7638C38.6172 11.3127 39.2644 11.6035 39.6895 12.1775C40.1157 12.7537 40.3314 13.6856 40.3314 14.9488C40.3314 16.2119 40.1146 17.1694 39.6884 17.7669C39.2644 18.3612 38.6483 18.6615 37.8561 18.6615C37.7746 18.6615 37.6672 18.6573 37.532 18.6488C37.4912 18.6466 37.459 18.604 37.459 18.554H37.4579Z" fill="white"/>
<path d="M6.32298 5.72571C5.82599 5.61601 5.23776 5.92168 4.81162 6.48722C4.82879 6.48296 4.84597 6.47977 4.86314 6.47444C4.81269 6.52983 4.76332 6.58947 4.71609 6.65124C4.79552 6.62887 4.87602 6.61077 4.95546 6.59373C5.04455 6.57562 5.13257 6.56071 5.21952 6.54793C5.15833 6.56604 5.09607 6.58521 5.03382 6.60651C4.95009 6.63527 4.86529 6.66615 4.78371 6.70023C4.78156 6.70023 4.77834 6.70236 4.7762 6.70343C4.79981 6.73857 4.82665 6.77159 4.85348 6.80248C4.79874 6.82271 4.74292 6.84188 4.68818 6.86425C4.68603 6.86425 4.68281 6.86638 4.68066 6.86745C4.83738 7.09856 5.0628 7.24447 5.33866 7.27962C5.87966 7.34778 6.42173 6.98247 6.95736 6.51704C6.9477 6.49787 6.9359 6.47977 6.92516 6.4606C6.9681 6.42545 7.00996 6.38924 7.0529 6.35196C6.90799 6.07079 6.62997 5.78962 6.32405 5.72358L6.32298 5.72571Z" fill="white"/>
<path d="M8.3533 2.75743C7.90784 2.57637 7.30565 2.77127 6.81081 3.2335C6.84731 3.23031 6.88381 3.22924 6.92137 3.22605C6.8516 3.27824 6.7829 3.33575 6.71635 3.39752C6.79471 3.39007 6.872 3.38581 6.94928 3.38261C6.96646 3.38261 6.98256 3.38261 6.99866 3.38261C6.99866 3.38261 6.99866 3.38261 6.99759 3.38261C6.91386 3.39646 6.83121 3.41137 6.74856 3.43054C6.74641 3.43054 6.74319 3.4316 6.74104 3.43267C6.76144 3.47953 6.78612 3.5232 6.81189 3.56473C6.75929 3.57432 6.70562 3.58284 6.65302 3.59456C6.65087 3.59456 6.64765 3.59562 6.64551 3.59669C6.75178 3.83952 6.93533 4.01312 7.18651 4.09193C7.67813 4.24423 8.24703 3.98756 8.8299 3.6297C8.82131 3.59988 8.81057 3.57006 8.79877 3.5413C8.84063 3.51681 8.88249 3.49125 8.92436 3.46568C8.83848 3.17706 8.62809 2.86819 8.35223 2.75743H8.3533Z" fill="white"/>
<path d="M16.0973 37.3339C16.2755 37.0687 16.3668 36.7534 16.3603 36.4041C16.3388 35.4732 15.6808 34.6286 14.9563 33.8064C14.6997 33.9939 14.4464 34.2729 14.2811 34.5914C14.1437 34.8065 14.0428 35.0461 14.0117 35.29C13.9355 35.8747 14.1673 36.5138 14.6407 37.0612C13.7798 36.6639 12.9598 36.2102 12.1837 35.7065C12.3329 35.5787 12.4542 35.4242 12.5433 35.2453C12.6603 35.0706 12.7419 34.8683 12.7859 34.6414C12.9479 33.7691 12.5154 32.8596 12.0033 31.9564C11.6448 32.1268 11.2595 32.4527 11.0609 32.85C10.9879 32.9608 10.9289 33.0779 10.8881 33.2015C10.7099 33.7361 10.8054 34.3773 11.1317 34.9748C10.3793 34.4135 9.6719 33.8043 9.01175 33.1503C9.25649 33.0119 9.454 32.8021 9.58925 32.5316C9.64829 32.441 9.70088 32.343 9.74382 32.2365C10.054 31.4527 9.82325 30.5229 9.50552 29.5824C9.08797 29.6911 8.60064 29.9861 8.372 30.4068C8.35912 30.4291 8.34839 30.4536 8.33765 30.4771C8.31726 30.508 8.29472 30.5388 8.27754 30.5708C8.01671 31.0437 7.99416 31.6667 8.19382 32.2898C7.55621 31.5826 6.96906 30.8317 6.43343 30.0457C6.72969 29.9499 6.98194 29.7528 7.16764 29.461C7.19769 29.4131 7.2256 29.3641 7.25136 29.313C7.25566 29.3077 7.25995 29.3023 7.26317 29.2959C7.68932 28.6239 7.63564 27.7101 7.49288 26.7696C7.08499 26.7931 6.58048 26.9805 6.2971 27.332C6.2284 27.4161 6.17044 27.5088 6.11999 27.6068C5.85379 28.003 5.75933 28.5472 5.83983 29.1245C5.32674 28.2852 4.86947 27.4108 4.46909 26.5076C4.76964 26.4789 5.04551 26.3404 5.27307 26.0976C5.38256 25.9804 5.47272 25.8473 5.54679 25.7025C5.90209 25.1582 5.98045 24.402 5.99333 23.6118C5.6069 23.5575 5.10562 23.6405 4.7836 23.9174C4.63547 24.0442 4.51417 24.205 4.41864 24.3903C4.20718 24.7109 4.09232 25.1305 4.08481 25.5917C3.70804 24.6353 3.3946 23.6522 3.1445 22.6511C3.43861 22.6884 3.72951 22.6138 3.98927 22.4242C4.20718 22.2645 4.3757 22.0472 4.50988 21.7927C4.78145 21.3645 4.92851 20.799 5.03692 20.2026C4.68377 20.0801 4.20181 20.0652 3.85724 20.2643C3.61358 20.4049 3.41393 20.6318 3.26902 20.9161C3.1123 21.1622 3.00174 21.4636 2.94807 21.7991C2.7248 20.7436 2.5713 19.6711 2.49079 18.5911C2.76881 18.6945 3.06292 18.6838 3.3463 18.5507C3.70482 18.3813 3.97103 18.0586 4.18678 17.6603C4.37141 17.361 4.52061 17.0074 4.65371 16.6346C4.3435 16.4536 3.89589 16.3503 3.54381 16.4749C3.20676 16.592 2.9223 16.8711 2.72158 17.2502C2.60672 17.427 2.51441 17.6326 2.44571 17.8584C2.39955 16.821 2.41888 15.7794 2.50582 14.741C2.757 14.9018 3.04467 14.9508 3.34093 14.8731C3.90662 14.7218 4.31881 14.1733 4.68055 13.5311C4.731 13.4459 4.78038 13.3596 4.82975 13.2702C4.56784 13.0454 4.16639 12.8729 3.81967 12.9293C3.38924 12.9975 2.99959 13.3373 2.73875 13.8314C2.67327 13.9348 2.61531 14.0455 2.56271 14.1648C2.69582 12.9443 2.92338 11.7301 3.24969 10.5373C3.31195 10.5074 3.37528 10.4787 3.43754 10.452C3.60392 10.3828 3.76922 10.3253 3.92594 10.2795C3.8025 10.337 3.67584 10.4009 3.55025 10.4733C3.46867 10.5202 3.38709 10.5692 3.30873 10.6214C3.30659 10.6235 3.30444 10.6246 3.30122 10.6267C3.32376 10.6491 3.34737 10.6693 3.37206 10.6896C3.31947 10.7215 3.2658 10.7524 3.2132 10.7865C3.21105 10.7886 3.2089 10.7897 3.20568 10.7918C3.415 10.9974 3.67906 11.0996 3.9721 11.0794C4.54852 11.0378 5.03907 10.5543 5.50063 9.97384C5.49419 9.96638 5.48668 9.95893 5.48024 9.95041C5.51888 9.90355 5.55752 9.85668 5.59509 9.80876C5.389 9.55102 5.04336 9.31777 4.71168 9.31032C4.19537 9.29647 3.66832 9.69373 3.33449 10.3179C3.31839 10.3434 3.30336 10.37 3.28726 10.3967C3.78318 8.62549 4.49592 6.90118 5.43408 5.27059C6.11248 4.11395 6.90573 3.00523 7.81705 1.96149C7.8192 1.96149 7.82134 1.96149 7.82349 1.96149C7.78163 2.0158 7.73869 2.06906 7.6979 2.12337C7.69576 2.12657 7.69361 2.1287 7.69146 2.13189C7.90936 2.1074 8.16162 1.99663 8.43533 1.7996C8.97097 1.41512 9.40999 0.825081 9.82325 0.192443C9.81896 0.191378 9.81467 0.190313 9.81037 0.189248C9.84687 0.135995 9.88229 0.0816777 9.91771 0.0273603C9.67298 -0.0429329 9.28011 0.00286418 8.94628 0.209483C8.562 0.442729 8.22602 0.834666 7.98987 1.27027C7.84711 1.50139 7.73225 1.74954 7.65389 1.99557C7.72044 1.91569 7.78807 1.83688 7.85784 1.76019C8.07038 1.52482 8.2915 1.315 8.48901 1.1446C8.32799 1.30861 8.15732 1.49606 7.99524 1.69629C7.99094 1.70162 7.98665 1.70801 7.98128 1.71333C6.92397 2.88914 6.01909 4.15336 5.26234 5.48147C4.36926 7.01727 3.67584 8.63934 3.17563 10.3104C3.20461 9.93337 3.17885 9.55741 3.08117 9.21766C2.87829 8.50088 2.41136 8.19521 1.85104 8.10149C1.83816 8.15793 1.82635 8.21758 1.81562 8.27722C1.7963 8.27296 1.7759 8.2687 1.75658 8.2655C1.64065 8.75969 1.62241 9.4083 1.75229 9.82793C1.96268 10.5138 2.44034 10.8078 2.94485 10.7343C2.90728 10.6842 2.87078 10.632 2.83429 10.5788C2.90191 10.582 2.97061 10.5799 3.03931 10.5692C2.98671 10.5 2.93519 10.4265 2.88581 10.3519C2.88366 10.3487 2.88152 10.3455 2.88044 10.3434C2.88474 10.3487 2.88903 10.353 2.89225 10.3583C2.95021 10.4265 3.00925 10.4925 3.06829 10.5554C3.07044 10.5575 3.07151 10.5586 3.07366 10.5607C3.08224 10.4776 3.08654 10.3945 3.08976 10.3115C3.11122 10.3349 3.13269 10.3583 3.15523 10.3818C2.79457 11.6002 2.53588 12.8441 2.37701 14.0977C2.32978 13.7622 2.24069 13.4406 2.10115 13.1562C1.7598 12.4565 1.2188 12.2307 0.617695 12.2445C0.614474 12.2978 0.612328 12.3532 0.612328 12.4096C0.582272 12.4096 0.55329 12.4096 0.523235 12.4096C0.491032 12.9443 0.588713 13.6206 0.799101 14.0306C1.14152 14.6995 1.69325 14.9061 2.20741 14.7271C2.1677 14.6909 2.12691 14.6526 2.08719 14.6143C2.15911 14.6047 2.23103 14.5876 2.30187 14.5631C2.23425 14.5024 2.1677 14.4375 2.10222 14.3704C2.09471 14.3629 2.08719 14.3544 2.07968 14.3469C2.08075 14.348 2.0829 14.3491 2.08397 14.3512C2.15696 14.4098 2.22996 14.4673 2.30402 14.5184C2.30617 14.5205 2.30831 14.5216 2.31046 14.5227C2.30402 14.4375 2.29436 14.3523 2.28255 14.2681C2.30509 14.2852 2.32764 14.3022 2.35018 14.3182C2.21278 15.4897 2.16233 16.6698 2.19561 17.8445C2.09363 17.5495 1.95946 17.2737 1.78878 17.0362C1.31648 16.3758 0.715375 16.2438 0.0906506 16.3726C0.0949443 16.4195 0.101385 16.4685 0.107825 16.5164C0.0702558 16.5218 0.0326865 16.5292 -0.00488281 16.5367C0.0498611 17.1001 0.26347 17.786 0.552217 18.1715C1.0213 18.802 1.63099 18.9075 2.13657 18.621C2.099 18.5975 2.0625 18.5741 2.02601 18.5485C2.09256 18.5262 2.15696 18.4974 2.22137 18.4612C2.28363 19.6061 2.42639 20.7447 2.64644 21.8662C2.50045 21.6169 2.32871 21.3922 2.13335 21.2026C1.52902 20.6147 0.881753 20.5998 0.255956 20.8618C0.26669 20.9002 0.277424 20.9385 0.289231 20.9769C0.246295 20.9918 0.203359 21.0088 0.160422 21.0258C0.314993 21.601 0.657411 22.2709 1.02559 22.6117C1.62455 23.1698 2.27504 23.1506 2.74734 22.747C2.71836 22.7363 2.69045 22.7246 2.66147 22.7129C2.71084 22.6831 2.75807 22.649 2.80423 22.6128C3.05111 23.6863 3.36884 24.7418 3.75849 25.7674C3.57601 25.564 3.37743 25.384 3.16167 25.2413C2.43283 24.7546 1.76088 24.8696 1.15869 25.269C1.17157 25.2956 1.18445 25.3233 1.19734 25.351C1.15225 25.3776 1.10717 25.4043 1.06316 25.4341C1.32292 26.0017 1.79737 26.6301 2.23854 26.9092C2.95773 27.3661 3.62861 27.2095 4.04509 26.693C4.02792 26.6898 4.01182 26.6866 3.99464 26.6834C4.02684 26.6536 4.0569 26.6216 4.08695 26.5886C4.50022 27.5663 4.98003 28.5131 5.52425 29.4216C5.31171 29.2629 5.08844 29.1298 4.85552 29.0318C4.01504 28.675 3.33986 28.9285 2.7892 29.4642C2.79994 29.4802 2.81174 29.4962 2.82248 29.5111C2.77847 29.5484 2.73553 29.5878 2.69367 29.6282C3.06399 30.1671 3.67047 30.7252 4.17927 30.9244C5.01009 31.2524 5.67453 30.95 6.00836 30.328C6.00621 30.328 6.00299 30.328 6.00084 30.328C6.01694 30.3045 6.03412 30.2811 6.04915 30.2566C6.61591 31.115 7.24385 31.933 7.92976 32.7041C7.68931 32.5912 7.4435 32.5049 7.19662 32.4527C6.25739 32.2525 5.60583 32.6487 5.1346 33.3165C5.13997 33.3218 5.14641 33.3271 5.15178 33.3335C5.11313 33.3815 5.07556 33.4305 5.04014 33.4816C5.52532 33.9683 6.26275 34.4252 6.83273 34.5285C7.65175 34.6798 8.23997 34.3464 8.52121 33.7766C8.57917 33.6882 8.62962 33.5934 8.67041 33.4912C9.38101 34.2101 10.1463 34.8789 10.9664 35.4924C10.697 35.4274 10.4287 35.3901 10.1657 35.3869C9.22107 35.371 8.63606 35.8321 8.26788 36.5223C8.2024 36.6277 8.14122 36.7396 8.08755 36.8578C8.69188 37.2657 9.55919 37.5905 10.1786 37.5809C10.9396 37.5724 11.4516 37.2316 11.6942 36.731C11.8048 36.5628 11.8821 36.371 11.9207 36.1634C12.7655 36.7214 13.6628 37.221 14.6096 37.6555C14.3101 37.6438 14.0181 37.6608 13.739 37.7109C12.9361 37.8515 12.4434 38.2572 12.1526 38.8153C12.0012 39.0539 11.8939 39.3255 11.8209 39.6216C12.5465 39.9219 13.5415 40.0806 14.2017 39.9443C14.8801 39.8058 15.3202 39.4639 15.5327 39.0262C15.7034 38.7685 15.785 38.4671 15.7775 38.1475C16.6974 38.5011 17.6602 38.7972 18.6649 39.0251C18.6767 38.9655 18.6885 38.9059 18.7003 38.8462C18.7207 38.8505 18.7401 38.8558 18.7605 38.8601C18.7873 38.7259 18.8141 38.5906 18.8399 38.4564C17.8234 38.2359 16.8498 37.9463 15.9202 37.5937C15.9868 37.5107 16.0447 37.4212 16.092 37.3264L16.0973 37.3339ZM15.4683 37.4201C15.4383 37.3392 15.4103 37.2572 15.3835 37.1762C15.2665 36.8109 15.186 36.4509 15.1313 36.1293C15.2311 36.4925 15.3728 36.9174 15.5671 37.3392C15.5896 37.3892 15.6143 37.4382 15.639 37.4883C15.5821 37.4659 15.5252 37.4425 15.4683 37.4191V37.4201ZM11.7887 35.4423C11.7769 35.3561 11.7661 35.2698 11.7575 35.1835C11.7135 34.7319 11.7189 34.2985 11.7414 33.9395C11.7543 34.34 11.7983 34.864 11.9143 35.3976C11.925 35.4487 11.9379 35.4988 11.9497 35.5499C11.896 35.5137 11.8423 35.4775 11.7887 35.4413V35.4423ZM8.68115 32.8138C8.68651 32.7265 8.69188 32.6391 8.70047 32.5529C8.75306 32.0182 8.87007 31.5208 8.97311 31.1587C8.97848 31.1417 8.98277 31.1257 8.98814 31.1086C8.97311 31.1832 8.95809 31.2663 8.94306 31.3589C8.87973 31.7413 8.81854 32.2642 8.82713 32.8106C8.82713 32.8628 8.83035 32.916 8.8325 32.9693C8.78205 32.9182 8.7316 32.866 8.68115 32.8149V32.8138ZM6.17151 29.6538C6.19191 29.5675 6.21445 29.4823 6.23914 29.3992C6.38083 28.9104 6.57404 28.4673 6.73291 28.1489C6.80483 28.0051 6.86816 27.8869 6.91646 27.7995C6.91109 27.8123 6.81234 28.0232 6.69212 28.3587C6.5676 28.7038 6.42269 29.1809 6.33467 29.6921C6.32501 29.7475 6.31642 29.804 6.30784 29.8604C6.26275 29.7922 6.2166 29.7241 6.17259 29.6549L6.17151 29.6538ZM4.28339 26.0795C4.31881 25.9985 4.35531 25.9165 4.39395 25.8377C4.44118 25.7419 4.49056 25.6503 4.54101 25.5608C4.68806 25.3148 4.83727 25.0986 4.965 24.9271C5.09381 24.7535 5.20008 24.6257 5.25912 24.5565C5.21403 24.6289 5.16144 24.7141 5.10347 24.8153C5.09274 24.8334 5.08093 24.8547 5.0702 24.8739C5.0498 24.9069 5.02941 24.9431 5.00794 24.9793C4.83512 25.2786 4.62151 25.6971 4.45513 26.1572C4.43366 26.2169 4.41327 26.2765 4.39288 26.3372C4.35531 26.252 4.31881 26.1658 4.28339 26.0795ZM3.04253 22.2283C3.06077 22.2038 3.07688 22.1772 3.09512 22.1527C3.3624 21.7927 3.65974 21.4859 3.88837 21.2719C3.94526 21.2186 3.99786 21.1707 4.04509 21.1292C4.03543 21.1409 4.02577 21.1526 4.01504 21.1643C3.80679 21.4125 3.53952 21.7639 3.31088 22.1612C3.30122 22.1793 3.29156 22.1974 3.2819 22.2144C3.25936 22.2506 3.23789 22.2879 3.21535 22.3252C3.17885 22.3891 3.1445 22.4551 3.11015 22.5201C3.08654 22.4232 3.06399 22.3252 3.04145 22.2283H3.04253ZM2.46503 18.2194C2.49509 18.1896 2.52514 18.1577 2.55627 18.1289C2.85146 17.8541 3.16275 17.6305 3.40641 17.4728C3.19924 17.6539 2.95987 17.885 2.7366 18.1491C2.66791 18.2312 2.60028 18.3153 2.53588 18.4016C2.53373 18.4048 2.53158 18.4069 2.53051 18.4101C2.5391 18.4143 2.54876 18.4165 2.55735 18.4197C2.53266 18.4495 2.50797 18.4804 2.48435 18.5113C2.47791 18.4143 2.4704 18.3174 2.46503 18.2194ZM2.53588 14.4343C2.58096 14.4023 2.62497 14.3704 2.67113 14.3405C2.90835 14.185 3.15094 14.0594 3.3624 13.9603C3.18744 14.0753 2.99959 14.2106 2.81818 14.3629C2.74197 14.4279 2.66576 14.495 2.59277 14.5642C2.59062 14.5663 2.58847 14.5685 2.58633 14.5706C2.6035 14.5823 2.62175 14.5919 2.63892 14.6025C2.59599 14.6409 2.55198 14.6782 2.51012 14.7176C2.5187 14.6228 2.52729 14.528 2.53588 14.4343ZM7.95982 1.74954C7.904 1.81984 7.84818 1.89013 7.79666 1.96149C7.79451 1.96468 7.79236 1.96681 7.79129 1.97001C7.7988 1.97001 7.80739 1.96681 7.8149 1.96575C7.41774 2.412 7.04312 2.87104 6.68997 3.34072C7.08499 2.79648 7.50791 2.26503 7.96089 1.74954H7.95982ZM1.99488 18.2993C1.96268 18.2759 1.93047 18.2525 1.89935 18.229C1.91652 18.2386 1.93262 18.2482 1.9498 18.2578C2.03567 18.3046 2.12154 18.3494 2.20634 18.3888C2.20956 18.3898 2.21171 18.3909 2.21385 18.392C2.19453 18.3089 2.17092 18.228 2.1473 18.147C2.16877 18.1577 2.18917 18.1683 2.21063 18.179C2.21493 18.2706 2.21922 18.3611 2.22352 18.4527C2.1473 18.4048 2.07002 18.3526 1.99488 18.2993ZM2.77525 22.4711C2.74627 22.4061 2.71621 22.3412 2.68508 22.2783C2.70226 22.2837 2.71943 22.289 2.7366 22.2932C2.74949 22.3529 2.76237 22.4115 2.77525 22.4711ZM2.56915 22.4722C2.49616 22.4392 2.42317 22.4029 2.35232 22.3657C2.39741 22.3816 2.44356 22.3976 2.48972 22.4125C2.5874 22.4434 2.68401 22.4711 2.77954 22.4945C2.77954 22.4945 2.78169 22.4945 2.78276 22.4945C2.78813 22.519 2.79457 22.5446 2.79994 22.5691C2.72372 22.5393 2.64751 22.5063 2.5713 22.4722H2.56915ZM3.99249 26.3532C3.96673 26.3159 3.94204 26.2797 3.91521 26.2435C3.92594 26.2435 3.93775 26.2456 3.94848 26.2467C3.96244 26.2819 3.97747 26.3181 3.99142 26.3532H3.99249ZM3.83685 26.4693C3.70375 26.4373 3.57064 26.399 3.43969 26.3575C3.532 26.3734 3.62431 26.3873 3.71663 26.3979C3.8186 26.4097 3.92058 26.4182 4.0204 26.4224C4.03328 26.4544 4.04616 26.4853 4.06012 26.5172C3.98605 26.5034 3.91199 26.4874 3.83685 26.4704V26.4693ZM5.85271 29.9509C5.8409 29.9403 5.83017 29.9286 5.81944 29.9169C5.82373 29.9169 5.82695 29.9169 5.83124 29.9158C5.83876 29.9275 5.84627 29.9392 5.85379 29.9509H5.85271ZM5.77865 30.1682C5.57148 30.1597 5.36216 30.1384 5.16144 30.1096C5.31171 30.1096 5.46414 30.1054 5.61442 30.0926C5.71854 30.0841 5.82158 30.0724 5.92141 30.0564C5.9461 30.0947 5.97079 30.1331 5.99548 30.1703C5.92356 30.1703 5.85164 30.1703 5.77865 30.1671V30.1682ZM8.37308 33.4432C8.08218 33.489 7.78378 33.5103 7.50576 33.5167C7.72152 33.4805 7.94371 33.4347 8.1584 33.3729C8.26144 33.3431 8.36234 33.3112 8.45895 33.2771C8.49974 33.3197 8.5416 33.3623 8.58347 33.4049C8.51369 33.4187 8.44285 33.4315 8.372 33.4432H8.37308ZM11.5987 36.1708C11.2219 36.3082 10.8215 36.4062 10.4684 36.4733C10.7496 36.3785 11.0491 36.2592 11.3303 36.1176C11.4291 36.0675 11.5246 36.0153 11.618 35.961C11.6813 36.0047 11.7436 36.0473 11.8069 36.0899C11.7382 36.1176 11.6695 36.1442 11.5997 36.1698L11.5987 36.1708ZM15.434 38.2242C14.9745 38.4948 14.4668 38.711 14.0503 38.8611C14.3874 38.6843 14.7663 38.4596 15.1055 38.2019C15.1967 38.1326 15.2837 38.0613 15.3674 37.9889C15.4576 38.0261 15.5477 38.0623 15.639 38.0975C15.5714 38.1401 15.5037 38.1827 15.434 38.2242Z" fill="white"/>
<path d="M4.45033 6.76928C4.42028 6.70751 4.39237 6.64254 4.36446 6.57863C4.42243 6.59354 4.48361 6.60207 4.54479 6.60526C4.5083 6.53071 4.47395 6.45296 4.44067 6.37308C4.43209 6.35178 4.4235 6.32941 4.41491 6.30811C4.43209 6.34219 4.45033 6.37521 4.46751 6.40823C4.50937 6.48278 4.55123 6.55627 4.59524 6.6255C4.59632 6.62763 4.59846 6.62976 4.59954 6.63189C4.62101 6.55733 4.64033 6.48278 4.6575 6.40716C4.66824 6.42527 4.67897 6.44337 4.69078 6.46041C4.69185 6.46254 4.694 6.46467 4.69507 6.4668C4.80563 6.09297 4.85716 5.70743 4.82603 5.34531C4.76592 4.63599 4.38808 4.26429 3.88572 4.07471C3.86103 4.13009 3.83742 4.18867 3.81488 4.24938C3.80629 4.24618 3.79877 4.24298 3.79019 4.23979C3.59483 4.68072 3.4628 5.28354 3.50788 5.69997C3.5798 6.37947 3.96945 6.74478 4.45033 6.76928Z" fill="white"/>
<path d="M6.44756 3.46345C6.42824 3.39422 6.41214 3.32286 6.39604 3.25151C6.4422 3.27068 6.49157 3.28772 6.54202 3.29943C6.52163 3.22381 6.50231 3.145 6.48513 3.06512C6.47011 2.99483 6.45722 2.92347 6.44542 2.85211C6.46903 2.94477 6.49587 3.03743 6.52592 3.12796C6.55168 3.20464 6.57852 3.28133 6.6075 3.35268C6.63863 3.29198 6.66761 3.2302 6.69552 3.16843C6.69767 3.17482 6.69981 3.18228 6.70304 3.18867C6.87263 2.8617 6.98749 2.50704 7.02076 2.16196C7.08732 1.48459 6.7975 1.07668 6.36169 0.817871C6.30695 0.898815 6.25435 0.988279 6.2039 1.08094C5.97312 1.45477 5.78098 1.9415 5.75414 2.30681C5.70584 2.95649 6.00425 3.36334 6.44649 3.46451L6.44756 3.46345Z" fill="white"/>
<path d="M53.7387 20.8675C53.114 20.6066 52.4667 20.6204 51.8613 21.2083C51.666 21.3968 51.4942 21.6226 51.3482 21.8718C51.5683 20.7503 51.7121 19.6118 51.7733 18.4669C51.8366 18.502 51.9021 18.5308 51.9687 18.5542C51.9322 18.5787 51.8946 18.6032 51.8581 18.6266C52.3626 18.9131 52.9723 18.8077 53.4425 18.1772C53.7312 17.7916 53.9448 17.1058 53.9996 16.5423C53.962 16.5349 53.9244 16.5274 53.8868 16.5221C53.8933 16.4731 53.8997 16.4252 53.904 16.3783C53.2804 16.2495 52.6782 16.3815 52.2059 17.0418C52.0352 17.2794 51.9 17.5552 51.7991 17.8502C51.8334 16.6744 51.7819 15.4954 51.6445 14.3238C51.667 14.3068 51.6896 14.2908 51.7121 14.2738C51.7003 14.3579 51.6907 14.4431 51.6842 14.5283C51.6864 14.5262 51.6885 14.5251 51.6907 14.5241C51.7636 14.4719 51.8377 14.4154 51.9107 14.3569C51.9118 14.3558 51.9139 14.3547 51.915 14.3526C51.9075 14.3601 51.9 14.3686 51.8925 14.376C51.827 14.4431 51.7604 14.5081 51.6928 14.5688C51.7636 14.5933 51.8356 14.6103 51.9075 14.6199C51.8678 14.6583 51.828 14.6966 51.7873 14.7328C52.3003 14.9118 52.8521 14.7051 53.1956 14.0363C53.407 13.6262 53.5036 12.9499 53.4714 12.4153C53.4414 12.4153 53.4113 12.4153 53.3823 12.4153C53.3823 12.3588 53.3802 12.3045 53.377 12.2502C52.7759 12.2364 52.2349 12.4621 51.8935 13.1619C51.754 13.4462 51.6638 13.7679 51.6177 14.1034C51.4588 12.8498 51.2001 11.6058 50.8394 10.3874C50.8609 10.3651 50.8824 10.3416 50.9049 10.3171C50.9081 10.4002 50.9124 10.4833 50.921 10.5664C50.9232 10.5642 50.9242 10.5632 50.9264 10.561C50.9865 10.4993 51.0445 10.4332 51.1024 10.364C51.1067 10.3587 51.111 10.3544 51.1142 10.3491C51.1121 10.3523 51.1099 10.3555 51.1089 10.3576C51.0584 10.4322 51.008 10.5056 50.9554 10.5749C51.0251 10.5855 51.0928 10.5877 51.1604 10.5845C51.1239 10.6366 51.0874 10.6899 51.0498 10.74C51.5554 10.8145 52.0331 10.5206 52.2424 9.8336C52.3723 9.41291 52.354 8.7643 52.2381 8.27118C52.2177 8.27437 52.1984 8.27863 52.1791 8.28289C52.1683 8.22219 52.1565 8.16361 52.1436 8.10716C51.5833 8.20088 51.1164 8.50655 50.9135 9.22333C50.8158 9.56308 50.7901 9.93798 50.819 10.3161C50.3188 8.64501 49.6243 7.02294 48.7323 5.48714C47.9756 4.15903 47.0707 2.89482 46.0134 1.719C46.0091 1.71368 46.0048 1.70729 45.9994 1.70196C45.8374 1.50173 45.6667 1.31429 45.5057 1.15027C45.7032 1.32174 45.9243 1.53156 46.1368 1.76587C46.2055 1.84255 46.2742 1.92136 46.3408 2.00124C46.2624 1.75415 46.1465 1.50599 46.0048 1.27594C45.7687 0.840339 45.4327 0.447336 45.0484 0.215156C44.7135 0.00960177 44.3206 -0.0372603 44.077 0.0330328C44.1124 0.0873503 44.1489 0.141668 44.1843 0.19492C44.18 0.195985 44.1757 0.195985 44.1714 0.198115C44.5847 0.830754 45.0237 1.42079 45.5593 1.80527C45.8331 2.00231 46.0853 2.11307 46.3032 2.13757C46.3011 2.13437 46.2989 2.13224 46.2968 2.12905C46.2571 2.07473 46.2141 2.02041 46.1712 1.96716C46.1733 1.96716 46.1755 1.96716 46.1776 1.96716C47.0889 3.01091 47.8811 4.11962 48.5606 5.27626C49.4987 6.90685 50.2115 8.63116 50.7074 10.4023C50.6924 10.3757 50.6763 10.3491 50.6602 10.3235C50.3253 9.69941 49.7982 9.30215 49.283 9.31599C48.9513 9.32345 48.6067 9.55669 48.3996 9.81443C48.4382 9.86236 48.4758 9.90922 48.5144 9.95608C48.508 9.96354 48.5005 9.97099 48.494 9.97951C48.9556 10.56 49.4462 11.0435 50.0226 11.085C50.3167 11.1053 50.5807 11.002 50.789 10.7975C50.7868 10.7953 50.7847 10.7943 50.7815 10.7921C50.7299 10.7581 50.6763 10.7272 50.6226 10.6952C50.6462 10.675 50.6698 10.6548 50.6935 10.6324C50.6913 10.6303 50.6892 10.6292 50.6859 10.6271C50.6065 10.5749 50.526 10.5259 50.4444 10.479C50.3188 10.4077 50.1922 10.3427 50.0687 10.2852C50.2244 10.332 50.3908 10.3885 50.5571 10.4577C50.6205 10.4843 50.6827 10.5131 50.745 10.5429C51.0713 11.7358 51.2989 12.9499 51.432 14.1705C51.3804 14.0523 51.3214 13.9404 51.2559 13.8371C50.9951 13.3429 50.6054 13.0043 50.175 12.935C49.8283 12.8786 49.4268 13.0511 49.1649 13.2758C49.2132 13.3642 49.2626 13.4516 49.3141 13.5368C49.6769 14.1801 50.0881 14.7275 50.6537 14.8787C50.95 14.9565 51.2377 14.9075 51.4888 14.7467C51.5769 15.7851 51.5962 16.8267 51.549 17.8641C51.4803 17.6383 51.388 17.4327 51.2731 17.2559C51.0734 16.8768 50.7879 16.5967 50.4509 16.4806C50.0988 16.356 49.6512 16.4593 49.341 16.6403C49.4751 17.0131 49.6243 17.3667 49.8079 17.666C50.0247 18.0643 50.2909 18.387 50.6484 18.5563C50.9318 18.6895 51.2259 18.6991 51.5039 18.5968C51.4223 19.6768 51.2699 20.7493 51.0466 21.8047C50.9929 21.4703 50.8824 21.1678 50.7257 20.9218C50.5807 20.6374 50.3811 20.4095 50.1374 20.27C49.7929 20.0698 49.3109 20.0847 48.9578 20.2082C49.0662 20.8047 49.2132 21.3702 49.4848 21.7984C49.619 22.0529 49.7864 22.2691 50.0054 22.4299C50.2652 22.6195 50.555 22.6941 50.8502 22.6568C50.6001 23.6579 50.2866 24.642 49.9099 25.5974C49.9024 25.1362 49.7875 24.7166 49.576 24.396C49.4805 24.2107 49.3592 24.0488 49.2111 23.9231C48.8891 23.6462 48.3878 23.5631 48.0013 23.6175C48.0142 24.4088 48.0926 25.165 48.4479 25.7081C48.523 25.8519 48.6121 25.9851 48.7216 26.1033C48.9492 26.3461 49.225 26.4835 49.5256 26.5133C49.1252 27.4154 48.6669 28.2898 48.1548 29.1301C48.2353 28.5529 48.1409 28.0086 47.8747 27.6124C47.8242 27.5134 47.7663 27.4207 47.6976 27.3377C47.4142 26.9862 46.9097 26.7987 46.5018 26.7753C46.359 27.7158 46.3054 28.6285 46.7315 29.3016C46.7347 29.308 46.739 29.3123 46.7433 29.3187C46.7691 29.3687 46.7959 29.4188 46.827 29.4667C47.0127 29.7585 47.2661 29.9556 47.5612 30.0514C47.0256 30.8374 46.4385 31.5872 45.8009 32.2955C45.9994 31.6713 45.978 31.0483 45.7171 30.5765C45.6989 30.5435 45.6774 30.5136 45.657 30.4827C45.6452 30.4593 45.6345 30.4348 45.6227 30.4125C45.393 29.9918 44.9067 29.6967 44.4891 29.5881C44.1703 30.5285 43.9396 31.4583 44.2509 32.2422C44.2938 32.3487 44.3464 32.4467 44.4054 32.5372C44.5407 32.8078 44.7382 33.0176 44.9829 33.156C44.3228 33.8089 43.6154 34.4192 42.8629 34.9804C43.1893 34.3819 43.2837 33.7418 43.1066 33.2071C43.0669 33.0847 43.0068 32.9664 42.9338 32.8557C42.7352 32.4584 42.3498 32.1325 41.9913 31.9621C41.4793 32.8653 41.0467 33.7748 41.2088 34.6471C41.2517 34.8739 41.3344 35.0763 41.4514 35.251C41.5405 35.4299 41.6618 35.5843 41.811 35.7121C41.0349 36.2159 40.2148 36.6696 39.354 37.0669C39.8273 36.5194 40.0592 35.8804 39.983 35.2957C39.9529 35.0518 39.852 34.8122 39.7136 34.597C39.5493 34.2796 39.2949 33.9995 39.0384 33.8121C38.3149 34.6354 37.6558 35.48 37.6344 36.4097C37.6279 36.7591 37.7192 37.0743 37.8973 37.3395C37.9446 37.4343 38.0025 37.5238 38.0691 37.6069C37.1395 37.9594 36.1659 38.2491 35.1494 38.4695C35.1762 38.6037 35.2031 38.739 35.2288 38.8732C35.2492 38.8689 35.2686 38.8636 35.289 38.8594C35.3008 38.919 35.3126 38.9786 35.3244 39.0383C36.3291 38.8093 37.2919 38.5143 38.2119 38.1607C38.2043 38.4791 38.2859 38.7805 38.4566 39.0393C38.6691 39.4781 39.1092 39.819 39.7876 39.9574C40.4478 40.0948 41.4428 39.9351 42.1684 39.6347C42.0954 39.3386 41.9881 39.067 41.8368 38.8285C41.5459 38.2704 41.0532 37.8646 40.2503 37.724C39.9712 37.674 39.6792 37.6569 39.3797 37.6686C40.3265 37.2341 41.2238 36.7346 42.0686 36.1765C42.1083 36.3842 42.1845 36.5759 42.2951 36.7442C42.5377 37.2447 43.0497 37.5856 43.8108 37.5941C44.4312 37.6037 45.2985 37.2788 45.9018 36.8709C45.847 36.7527 45.7869 36.6409 45.7214 36.5354C45.3532 35.8453 44.7693 35.3841 43.8236 35.4001C43.5606 35.4033 43.2923 35.4405 43.0229 35.5055C43.843 34.8931 44.6083 34.2232 45.3189 33.5043C45.3597 33.6065 45.4091 33.7013 45.4681 33.7897C45.7493 34.3595 46.3376 34.6929 47.1566 34.5416C47.7255 34.4383 48.4629 33.9814 48.9492 33.4947C48.9127 33.4436 48.8751 33.3946 48.8375 33.3467C48.8429 33.3413 48.8493 33.336 48.8547 33.3296C48.3835 32.6629 47.7319 32.2656 46.7927 32.4659C46.5447 32.517 46.3 32.6033 46.0595 32.7172C46.7455 31.9472 47.3734 31.1282 47.9402 30.2697C47.9552 30.2942 47.9724 30.3177 47.9885 30.3411C47.9863 30.3411 47.9831 30.3411 47.9809 30.3411C48.3148 30.9631 48.9803 31.2656 49.81 30.9375C50.3188 30.7384 50.9253 30.1803 51.2956 29.6414C51.2538 29.6009 51.2108 29.5615 51.1668 29.5242C51.1776 29.5082 51.1894 29.4923 51.2001 29.4773C50.6484 28.9406 49.9743 28.6881 49.1338 29.0449C48.9019 29.1429 48.6787 29.2761 48.4651 29.4347C49.0082 28.5263 49.488 27.5784 49.9024 26.6017C49.9324 26.6347 49.9625 26.6667 49.9947 26.6965C49.9775 26.6997 49.9614 26.7029 49.9442 26.7061C50.3607 27.2226 51.0305 27.3792 51.7508 26.9223C52.1919 26.6433 52.6664 26.0149 52.9261 25.4472C52.8821 25.4174 52.8371 25.3908 52.792 25.3641C52.8049 25.3364 52.8188 25.3098 52.8306 25.2821C52.2284 24.8827 51.5565 24.7688 50.8276 25.2544C50.6119 25.3971 50.4133 25.5761 50.2308 25.7806C50.6205 24.7549 50.9382 23.6995 51.1851 22.6259C51.2312 22.6632 51.2785 22.6973 51.3278 22.726C51.2989 22.7377 51.2709 22.7494 51.242 22.7601C51.7143 23.1637 52.3658 23.1829 52.9637 22.6248C53.3319 22.284 53.6743 21.6141 53.8289 21.039C53.7859 21.0209 53.743 21.0049 53.7001 20.99C53.7119 20.9516 53.7226 20.9122 53.7333 20.875L53.7387 20.8675ZM51.3139 22.2787C51.2828 22.3415 51.2516 22.4065 51.2237 22.4715C51.2366 22.4129 51.2495 22.3532 51.2624 22.2936C51.2795 22.2883 51.2967 22.2829 51.3139 22.2787ZM51.8517 18.1484C51.827 18.2294 51.8044 18.3103 51.7851 18.3934C51.7873 18.3923 51.7905 18.3913 51.7926 18.3902C51.8774 18.3508 51.9633 18.3061 52.0492 18.2592C52.0663 18.2496 52.0824 18.24 52.0996 18.2304C52.0674 18.2539 52.0363 18.2784 52.0041 18.3007C51.9279 18.3551 51.8517 18.4062 51.7755 18.4541C51.7808 18.3625 51.7851 18.272 51.7883 18.1804C51.8098 18.1697 51.8302 18.1591 51.8517 18.1484ZM46.1851 1.96609C46.1926 1.96716 46.2012 1.96929 46.2087 1.97035C46.2066 1.96716 46.2045 1.96503 46.2023 1.96183C46.1497 1.89048 46.0939 1.82018 46.0392 1.74989C46.4911 2.26537 46.9151 2.79577 47.3101 3.34107C46.9569 2.87139 46.5823 2.41235 46.1851 1.96609ZM51.36 14.604C51.3772 14.5933 51.3955 14.5837 51.4126 14.572C51.4105 14.5699 51.4083 14.5677 51.4062 14.5656C51.3332 14.4964 51.257 14.4293 51.1808 14.3643C50.9983 14.2109 50.8105 14.0757 50.6366 13.9617C50.848 14.0597 51.0906 14.1865 51.3278 14.342C51.3729 14.3718 51.418 14.4048 51.4631 14.4357C51.4727 14.5305 51.4813 14.6253 51.4888 14.719C51.447 14.6796 51.403 14.6412 51.36 14.604ZM51.4416 18.4211C51.4502 18.4179 51.4599 18.4147 51.4685 18.4115C51.4663 18.4094 51.4642 18.4062 51.4631 18.403C51.3987 18.3167 51.3311 18.2326 51.2624 18.1506C51.0391 17.8875 50.7997 17.6564 50.5926 17.4743C50.8362 17.6319 51.1475 17.8555 51.4427 18.1303C51.4738 18.1591 51.5028 18.191 51.5339 18.2209C51.5286 18.3178 51.5221 18.4158 51.5146 18.5127C51.491 18.4818 51.4663 18.452 51.4416 18.4211ZM50.7825 22.3266C50.7611 22.2893 50.7385 22.2521 50.716 22.2158C50.7063 22.1977 50.6967 22.1796 50.687 22.1626C50.4573 21.7653 50.1911 21.4139 49.9829 21.1657C49.9721 21.1529 49.9625 21.1423 49.9528 21.1306C50 21.1721 50.0526 21.22 50.1095 21.2733C50.3382 21.4874 50.6355 21.7941 50.9028 22.1541C50.921 22.1786 50.9382 22.2052 50.9554 22.2297C50.9328 22.3266 50.9103 22.4246 50.8867 22.5215C50.8523 22.4566 50.818 22.3905 50.7815 22.3266H50.7825ZM49.5438 26.1576C49.3775 25.6975 49.1628 25.2789 48.991 24.9796C48.9696 24.9424 48.9492 24.9072 48.9288 24.8742C48.918 24.855 48.9062 24.8348 48.8955 24.8156C48.8375 24.7145 48.7849 24.6282 48.7399 24.5568C48.7989 24.6261 48.9041 24.7539 49.034 24.9275C49.1617 25.0989 49.3109 25.3162 49.458 25.5612C49.5084 25.6506 49.5578 25.7433 49.605 25.8381C49.6437 25.9169 49.6802 25.9978 49.7156 26.0798C49.6791 26.1661 49.6426 26.2513 49.6061 26.3376C49.5857 26.2769 49.5653 26.2172 49.5438 26.1576ZM47.6654 29.6914C47.5773 29.1813 47.4324 28.7031 47.3079 28.358C47.1866 28.0236 47.0889 27.8127 47.0836 27.7988C47.1319 27.8862 47.1952 28.0033 47.2671 28.1482C47.4249 28.4677 47.6192 28.9107 47.7609 29.3985C47.7845 29.4827 47.8071 29.5679 47.8285 29.6531C47.7834 29.7223 47.7384 29.7905 47.6933 29.8586C47.6847 29.8022 47.6761 29.7457 47.6664 29.6904L47.6654 29.6914ZM45.0559 31.3593C45.0409 31.2677 45.0248 31.1836 45.0108 31.109C45.0162 31.126 45.0205 31.1409 45.0259 31.1591C45.13 31.5212 45.2459 32.0186 45.2985 32.5532C45.3071 32.6395 45.3125 32.7268 45.3178 32.8141C45.2674 32.8663 45.218 32.9174 45.1675 32.9686C45.1697 32.9153 45.1718 32.8631 45.1718 32.8099C45.1804 32.2635 45.1203 31.7406 45.0559 31.3582V31.3593ZM42.0858 35.399C42.2017 34.8654 42.2457 34.3414 42.2586 33.941C42.2811 34.2988 42.2865 34.7334 42.2425 35.1849C42.2339 35.2712 42.2232 35.3575 42.2114 35.4437C42.1577 35.48 42.104 35.5162 42.0504 35.5524C42.0622 35.5013 42.075 35.4512 42.0858 35.4001V35.399ZM38.4319 37.3406C38.6262 36.9188 38.7679 36.4939 38.8677 36.1307C38.813 36.4523 38.7335 36.8123 38.6155 37.1776C38.5886 37.2586 38.5607 37.3406 38.5307 37.4215C38.4738 37.445 38.4169 37.4673 38.36 37.4908C38.3847 37.4407 38.4083 37.3917 38.4319 37.3417V37.3406ZM38.6326 37.9892C38.7164 38.0616 38.8044 38.133 38.8945 38.2022C39.2337 38.46 39.6126 38.6857 39.9497 38.8615C39.5321 38.7113 39.0255 38.4951 38.5661 38.2246C38.4963 38.183 38.4287 38.1404 38.3611 38.0978C38.4523 38.0616 38.5425 38.0265 38.6326 37.9892ZM42.382 35.9624C42.4744 36.0167 42.571 36.0689 42.6697 36.119C42.951 36.2606 43.2504 36.3799 43.5317 36.4747C43.1774 36.4076 42.7781 36.3086 42.4014 36.1722C42.3316 36.1467 42.2618 36.12 42.1942 36.0924C42.2575 36.0498 42.3209 36.0072 42.3831 35.9635L42.382 35.9624ZM45.5389 33.2785C45.6366 33.3136 45.7375 33.3456 45.8395 33.3744C46.0542 33.4351 46.2774 33.4819 46.4921 33.5181C46.2141 33.5117 45.9157 33.4904 45.6248 33.4446C45.554 33.4329 45.4831 33.4202 45.4134 33.4063C45.4552 33.3637 45.4971 33.3211 45.5379 33.2785H45.5389ZM48.0776 30.0578C48.1774 30.0727 48.2804 30.0844 48.3846 30.094C48.5348 30.1068 48.6873 30.111 48.8375 30.111C48.6368 30.1398 48.4275 30.1622 48.2203 30.1696C48.1473 30.1718 48.0754 30.1728 48.0035 30.1728C48.0282 30.1345 48.0529 30.0972 48.0776 30.0589V30.0578ZM48.1795 29.9183C48.1677 29.9289 48.157 29.9406 48.1463 29.9524C48.1538 29.9406 48.1613 29.9289 48.1688 29.9172C48.1731 29.9172 48.1763 29.9172 48.1806 29.9183H48.1795ZM49.9775 26.4239C50.0773 26.4196 50.1782 26.4111 50.2813 26.3994C50.3736 26.3887 50.4659 26.3749 50.5582 26.3589C50.4283 26.4004 50.2952 26.4388 50.161 26.4707C50.0859 26.4888 50.0118 26.5037 49.9378 26.5176C49.9507 26.4856 49.9635 26.4547 49.9775 26.4228V26.4239ZM50.0827 26.2449C50.0569 26.2811 50.0312 26.3173 50.0054 26.3546C50.0204 26.3195 50.0344 26.2833 50.0483 26.2481C50.0591 26.2481 50.0709 26.246 50.0816 26.2449H50.0827ZM51.2173 22.496C51.2173 22.496 51.2194 22.496 51.2205 22.496C51.316 22.4725 51.4126 22.4448 51.5103 22.4139C51.5565 22.399 51.6016 22.3841 51.6477 22.3671C51.5758 22.4044 51.5039 22.4406 51.4309 22.4736C51.3547 22.5087 51.2785 22.5407 51.2023 22.5705C51.2076 22.546 51.2141 22.5205 51.2194 22.496H51.2173Z" fill="white"/>
<path d="M49.3073 6.46041C49.318 6.44337 49.3288 6.4242 49.3406 6.40716C49.3577 6.48278 49.3771 6.55733 49.3985 6.63189C49.3996 6.62976 49.4018 6.62763 49.4028 6.6255C49.4468 6.55627 49.4898 6.48384 49.5306 6.40823C49.5488 6.37521 49.566 6.34219 49.5832 6.30811C49.5746 6.32941 49.566 6.35178 49.5574 6.37308C49.5241 6.45189 49.4898 6.52964 49.4533 6.60526C49.5155 6.60207 49.5756 6.59354 49.6336 6.57863C49.6057 6.6436 49.5778 6.70857 49.5477 6.76928C50.0286 6.74478 50.4172 6.37947 50.4902 5.69997C50.5353 5.28354 50.4032 4.68072 50.2079 4.23979C50.1993 4.24298 50.1918 4.24618 50.1832 4.24938C50.1607 4.18867 50.137 4.13115 50.1124 4.07471C49.61 4.26429 49.2311 4.63599 49.172 5.34531C49.1409 5.70743 49.1924 6.09297 49.303 6.4668C49.3041 6.46467 49.3062 6.46254 49.3073 6.46041Z" fill="white"/>
<path d="M47.6761 5.72586C47.3691 5.79189 47.0911 6.07413 46.9473 6.35424C46.9902 6.39152 47.0321 6.42666 47.075 6.46287C47.0643 6.48205 47.0525 6.50015 47.0428 6.51932C47.5774 6.98475 48.1205 7.35006 48.6615 7.2819C48.9374 7.24569 49.1628 7.10084 49.3195 6.86972C49.3174 6.86972 49.3141 6.86759 49.312 6.86653C49.2572 6.84416 49.2025 6.82499 49.1467 6.80475C49.1735 6.77387 49.2004 6.74085 49.224 6.70571C49.2218 6.70571 49.2186 6.70358 49.2165 6.70251C49.1338 6.66843 49.0501 6.63754 48.9663 6.60879C48.9041 6.58749 48.8418 6.56831 48.7807 6.55021C48.8665 6.56299 48.9556 6.5779 49.0447 6.59601C49.1241 6.61305 49.2046 6.63115 49.2841 6.65352C49.2368 6.59068 49.1875 6.5321 49.137 6.47672C49.1542 6.48098 49.1714 6.48418 49.1885 6.4895C48.7613 5.92396 48.1731 5.61723 47.6772 5.72799L47.6761 5.72586Z" fill="white"/>
<path d="M47.2941 3.18778C47.2963 3.18139 47.2984 3.17393 47.3016 3.16754C47.3295 3.22932 47.3585 3.29109 47.3897 3.3518C47.4186 3.28044 47.4455 3.20376 47.4712 3.12707C47.5013 3.03654 47.5271 2.94388 47.5517 2.85122C47.5399 2.92258 47.5271 2.99394 47.512 3.06423C47.4949 3.14411 47.4766 3.22293 47.4551 3.29854C47.5056 3.28683 47.555 3.27085 47.6011 3.25062C47.585 3.32198 47.5689 3.3944 47.5496 3.46256C47.9918 3.36032 48.2902 2.95347 48.2419 2.30485C48.2151 1.93954 48.023 1.45282 47.7922 1.07898C47.7417 0.986326 47.6891 0.896862 47.6344 0.815918C47.1986 1.07472 46.9088 1.48264 46.9753 2.16001C47.0086 2.50615 47.1234 2.86081 47.293 3.18671L47.2941 3.18778Z" fill="white"/>
<path d="M45.6453 2.75739C45.3705 2.86815 45.159 3.17702 45.0742 3.46565C45.1161 3.49121 45.1579 3.51677 45.1998 3.54126C45.188 3.57109 45.1773 3.60091 45.1687 3.62966C45.7515 3.98752 46.3204 4.2442 46.8121 4.09189C47.0622 4.01308 47.2468 3.83948 47.3531 3.59665C47.3509 3.59665 47.3477 3.59558 47.3455 3.59452C47.293 3.5828 47.2404 3.57428 47.1867 3.5647C47.2135 3.52316 47.2371 3.47949 47.2575 3.43263C47.2554 3.43263 47.2522 3.43156 47.25 3.4305C47.1674 3.41133 47.0836 3.39642 47.001 3.38257C47.001 3.38257 47.001 3.38257 46.9999 3.38257C47.016 3.38257 47.0332 3.38257 47.0493 3.38257C47.1266 3.38577 47.2039 3.39003 47.2822 3.39748C47.2157 3.33571 47.147 3.2782 47.0772 3.22601C47.1137 3.22814 47.1502 3.22921 47.1878 3.23347C46.6929 2.77123 46.0907 2.57527 45.6453 2.75739Z" fill="white"/>
</g>
<defs>
<clipPath id="clip0_36_5062">
<rect width="54" height="40" fill="white"/>
</clipPath>
</defs>
</svg>
