<svg width="28" height="29" viewBox="0 0 28 29" fill="none" xmlns="http://www.w3.org/2000/svg">
<mask id="path-1-inside-1_636_119051" fill="white">
<path d="M1.43681 7.25979H6.53113C7.9416 7.25979 9.09351 8.31636 9.16544 9.64547L9.16574 9.65161V11.5147C9.16574 11.8136 9.41962 12.056 9.73284 12.056C10.0461 12.056 10.3 11.8137 10.3 11.5147V9.65161C10.3721 8.31636 11.524 7.25985 12.9345 7.25985H21.6954V25.3405C21.6954 26.3514 21.2677 27.267 20.5755 27.9314L20.5757 27.9312C19.8874 28.5914 18.9347 29 17.882 29H5.25023C4.19753 29 3.24481 28.5914 2.55667 27.9314L2.55652 27.9312C1.8645 27.267 1.43678 26.3514 1.43678 25.3404V25.3326V25.333L1.43681 7.25979ZM6.52787 9.77746H4.07468V25.3515C4.07468 25.6656 4.20769 25.95 4.42291 26.1563C4.6365 26.3615 4.93245 26.4886 5.2595 26.4886H17.864C18.5196 26.4886 19.0511 25.9813 19.0511 25.3556V9.77746H12.9379V11.5147C12.9379 13.2041 11.503 14.5736 9.7329 14.5736C7.96281 14.5736 6.52793 13.2041 6.52793 11.5147L6.52787 9.77746ZM24.1632 9.66416C26.2477 9.66416 27.944 11.2501 27.9999 13.2268L28 13.2317V18.0732C27.9977 20.0955 26.2807 21.7343 24.1622 21.7365H19.0577V9.66413L24.1632 9.66416ZM25.3621 13.2846C25.3445 12.672 24.82 12.1818 24.1756 12.1818C24.1712 12.1818 24.1669 12.1818 24.1626 12.1819H21.6956V19.2188H24.162C24.8245 19.2181 25.3615 18.7056 25.3622 18.0733V18.0733L25.3621 13.2846ZM10.366 24.1408H7.72813V13.3274H10.366V24.1408ZM15.4043 24.1408H12.7664V13.3274H15.4042L15.4043 24.1408ZM3.22529 9.78379H3.21818C1.44084 9.78379 0 8.40859 0 6.71222C0 5.11363 1.27953 3.80021 2.91444 3.65417L2.92718 3.65324C3.48658 2.24713 4.88245 1.26419 6.52011 1.25514H6.54274C7.03895 1.25514 7.51255 1.3476 7.94563 1.5155L7.92066 1.50693C8.84443 0.577964 10.1475 0 11.5921 0C12.9109 0 14.1118 0.481716 15.0122 1.27089L15.0086 1.26773C15.1201 1.25438 15.2513 1.24576 15.3843 1.24383H15.4491C17.0529 1.28752 18.4063 2.26399 18.9383 3.62293L18.947 3.64823H19.8715C21.5296 3.78463 22.8213 5.10288 22.8213 6.70911C22.8213 8.31534 21.5295 9.63357 19.8835 9.76917L19.8715 9.76996H12.8324V7.2523H19.6908C19.9716 7.21045 20.1839 6.98123 20.1839 6.7047C20.1839 6.42817 19.9716 6.19898 19.6941 6.1575L19.6908 6.1571H16.5452V4.89823C16.544 4.28371 16.0399 3.78194 15.4049 3.74779L15.4017 3.74762C15.2782 3.75299 15.1626 3.77844 15.0559 3.82048L15.0627 3.81813L14.1276 4.17943L13.517 3.41279C13.0716 2.85826 12.3773 2.50426 11.5963 2.50426C10.666 2.50426 9.85865 3.00656 9.45573 3.74253L9.44939 3.75525L8.61452 5.30612L7.33516 4.08253C7.13354 3.8904 6.85519 3.77159 6.54775 3.77159H6.5436H6.54381C5.87972 3.77504 5.34148 4.28436 5.3304 4.91615V4.91714L5.31721 6.16341H3.28341C3.26907 6.16219 3.2524 6.16151 3.23554 6.16151C2.91506 6.16151 2.6552 6.40948 2.6552 6.71542C2.6552 7.02135 2.91506 7.26932 3.23554 7.26932C3.25243 7.26932 3.2691 7.26864 3.28561 7.26728L3.28344 7.26742H6.52793V9.78501H3.43633C3.36603 9.78418 3.2957 9.78376 3.22535 9.78376L3.22529 9.78379Z"/>
</mask>
<path d="M1.43681 7.25979H6.53113C7.9416 7.25979 9.09351 8.31636 9.16544 9.64547L9.16574 9.65161V11.5147C9.16574 11.8136 9.41962 12.056 9.73284 12.056C10.0461 12.056 10.3 11.8137 10.3 11.5147V9.65161C10.3721 8.31636 11.524 7.25985 12.9345 7.25985H21.6954V25.3405C21.6954 26.3514 21.2677 27.267 20.5755 27.9314L20.5757 27.9312C19.8874 28.5914 18.9347 29 17.882 29H5.25023C4.19753 29 3.24481 28.5914 2.55667 27.9314L2.55652 27.9312C1.8645 27.267 1.43678 26.3514 1.43678 25.3404V25.3326V25.333L1.43681 7.25979ZM6.52787 9.77746H4.07468V25.3515C4.07468 25.6656 4.20769 25.95 4.42291 26.1563C4.6365 26.3615 4.93245 26.4886 5.2595 26.4886H17.864C18.5196 26.4886 19.0511 25.9813 19.0511 25.3556V9.77746H12.9379V11.5147C12.9379 13.2041 11.503 14.5736 9.7329 14.5736C7.96281 14.5736 6.52793 13.2041 6.52793 11.5147L6.52787 9.77746ZM24.1632 9.66416C26.2477 9.66416 27.944 11.2501 27.9999 13.2268L28 13.2317V18.0732C27.9977 20.0955 26.2807 21.7343 24.1622 21.7365H19.0577V9.66413L24.1632 9.66416ZM25.3621 13.2846C25.3445 12.672 24.82 12.1818 24.1756 12.1818C24.1712 12.1818 24.1669 12.1818 24.1626 12.1819H21.6956V19.2188H24.162C24.8245 19.2181 25.3615 18.7056 25.3622 18.0733V18.0733L25.3621 13.2846ZM10.366 24.1408H7.72813V13.3274H10.366V24.1408ZM15.4043 24.1408H12.7664V13.3274H15.4042L15.4043 24.1408ZM3.22529 9.78379H3.21818C1.44084 9.78379 0 8.40859 0 6.71222C0 5.11363 1.27953 3.80021 2.91444 3.65417L2.92718 3.65324C3.48658 2.24713 4.88245 1.26419 6.52011 1.25514H6.54274C7.03895 1.25514 7.51255 1.3476 7.94563 1.5155L7.92066 1.50693C8.84443 0.577964 10.1475 0 11.5921 0C12.9109 0 14.1118 0.481716 15.0122 1.27089L15.0086 1.26773C15.1201 1.25438 15.2513 1.24576 15.3843 1.24383H15.4491C17.0529 1.28752 18.4063 2.26399 18.9383 3.62293L18.947 3.64823H19.8715C21.5296 3.78463 22.8213 5.10288 22.8213 6.70911C22.8213 8.31534 21.5295 9.63357 19.8835 9.76917L19.8715 9.76996H12.8324V7.2523H19.6908C19.9716 7.21045 20.1839 6.98123 20.1839 6.7047C20.1839 6.42817 19.9716 6.19898 19.6941 6.1575L19.6908 6.1571H16.5452V4.89823C16.544 4.28371 16.0399 3.78194 15.4049 3.74779L15.4017 3.74762C15.2782 3.75299 15.1626 3.77844 15.0559 3.82048L15.0627 3.81813L14.1276 4.17943L13.517 3.41279C13.0716 2.85826 12.3773 2.50426 11.5963 2.50426C10.666 2.50426 9.85865 3.00656 9.45573 3.74253L9.44939 3.75525L8.61452 5.30612L7.33516 4.08253C7.13354 3.8904 6.85519 3.77159 6.54775 3.77159H6.5436H6.54381C5.87972 3.77504 5.34148 4.28436 5.3304 4.91615V4.91714L5.31721 6.16341H3.28341C3.26907 6.16219 3.2524 6.16151 3.23554 6.16151C2.91506 6.16151 2.6552 6.40948 2.6552 6.71542C2.6552 7.02135 2.91506 7.26932 3.23554 7.26932C3.25243 7.26932 3.2691 7.26864 3.28561 7.26728L3.28344 7.26742H6.52793V9.78501H3.43633C3.36603 9.78418 3.2957 9.78376 3.22535 9.78376L3.22529 9.78379Z" fill="#233038" fill-opacity="0.8" stroke="#233038" stroke-opacity="0.8" stroke-width="0.167798" mask="url(#path-1-inside-1_636_119051)"/>
</svg>
