<svg width="24" height="29" viewBox="0 0 24 29" fill="none" xmlns="http://www.w3.org/2000/svg">
<g clip-path="url(#clip0_643_114216)">
<path d="M23.9462 0.770023C23.8222 0.353923 23.5272 0.0779827 23.1921 0.0736027C22.1464 0.0473227 21.0371 0.0298027 19.7467 0.0210427L19.7568 0.00352265H17.8096C14.7028 -0.00961736 11.5054 0.0166627 8.68684 0.0385627L7.8121 0.0473227C5.52639 0.0648427 3.16359 0.0823627 0.87117 0.0779827C0.75722 0.0692227 0.646621 0.0911227 0.552779 0.134923C0.274606 0.248803 0.0735164 0.551023 0.0265956 0.888283C-0.0337312 1.18174 0.00648665 1.49272 0.123789 1.71172C0.133843 1.73362 0.143898 1.7599 0.17071 1.80808L0.214279 1.88254C1.99057 4.38791 3.88081 6.75749 5.70737 9.04823L6.50837 10.0512C7.14515 10.8528 7.79199 11.6981 8.36174 12.4427L8.49245 12.6136C8.72371 12.9158 8.95831 13.2224 9.18956 13.5246C9.21302 13.5553 9.25994 13.621 9.32697 13.7129C9.89673 14.5013 10.4665 15.2635 10.8016 15.5263C10.8687 15.5788 10.9357 15.6358 10.996 15.6839C11.0329 15.7146 11.0697 15.7453 11.1066 15.7759V23.1562C10.748 23.165 10.4464 23.1781 10.1984 23.1956C7.73502 23.2964 6.15311 23.8526 5.49622 24.8381C5.20464 25.2761 5.08064 25.8149 5.14096 26.3843C5.37557 28.675 8.68684 28.8415 10.4933 28.9291C10.6273 28.9378 10.7447 28.9422 10.8351 28.9466C11.2105 28.9729 11.5993 28.986 11.9881 28.986C13.2214 28.986 14.4883 28.8458 15.7551 28.5699C17.032 28.2896 18.5335 27.799 18.7949 26.4719C18.9055 25.9069 18.8251 25.3637 18.557 24.9082C17.9436 23.8614 16.3517 23.2832 13.7007 23.1431C13.637 23.1343 13.5633 23.1299 13.4828 23.1299H12.8829V15.8635C13.0706 15.7409 13.2717 15.5788 13.4862 15.3773L13.6705 15.2153L13.7074 15.1802C13.7409 15.1452 13.8883 14.9919 14.0224 14.8561C14.1464 14.7291 14.257 14.6152 14.2704 14.5977C15.1619 13.5596 15.7551 12.7274 16.3819 11.8514C16.6165 11.5229 16.8544 11.1901 17.1158 10.8353C17.7962 9.91547 18.4698 8.98253 19.1602 8.01893C20.6349 5.96909 22.1598 3.85355 23.7484 1.89568C23.9864 1.60222 24.0601 1.15546 23.9428 0.752503L23.9462 0.770023ZM15.725 3.36298C14.314 3.35422 12.893 3.30604 11.5188 3.26224C9.99727 3.20968 8.42542 3.15712 6.85358 3.15712C5.61017 3.15712 4.50083 3.19216 3.46522 3.25786C3.21386 2.91622 2.95915 2.56582 2.69773 2.21104C4.68851 2.20666 6.6793 2.18914 8.67008 2.176H9.12253C11.7166 2.1541 14.3944 2.1322 17.0287 2.14096H18.262C19.2541 2.1541 20.2394 2.16286 21.208 2.18038C20.9499 2.51764 20.6952 2.8549 20.4405 3.19216C19.3814 3.28852 18.2419 3.34546 16.9617 3.3586H15.725V3.36298ZM11.5088 5.40845C12.417 5.43911 16.8041 5.46539 18.7983 5.42597C18.5469 5.77637 18.2922 6.12677 18.0408 6.47717L17.8867 6.69179C17.5616 7.14731 17.2331 7.59845 16.9047 8.04959C16.0601 9.21467 15.1519 10.4542 14.2235 11.6368C13.7945 12.1843 13.4191 12.6486 13.0739 13.0647C12.3433 13.9407 12.1255 14.0765 11.492 13.5246C11.0061 13.0997 10.5134 12.3989 10.0375 11.72C9.77942 11.3521 9.53476 11.0061 9.28675 10.6907C9.00188 10.3316 8.7237 9.95927 8.42877 9.56945C7.97632 8.96501 7.50711 8.33867 7.00774 7.76051C6.37096 7.02029 5.71742 6.22313 5.02701 5.33399C7.18537 5.26391 9.37054 5.33399 11.5121 5.40845H11.5088ZM12.0015 26.5332C12.4908 26.5332 12.8896 26.012 12.8896 25.3725V25.3156C13.0974 25.3156 13.2918 25.3068 13.4862 25.3024C14.4413 25.355 15.2423 25.482 15.9395 25.6922C15.9931 25.7098 16.0668 25.7273 16.154 25.7492C16.6332 25.8718 16.8142 25.9507 16.8812 25.9945C16.7907 26.0645 16.6098 26.1521 16.3416 26.2485L16.2143 26.2967C14.4615 26.9887 12.3433 26.9274 10.8988 26.8267C10.7178 26.8135 10.5201 26.8048 10.2788 26.7916C9.26329 26.7434 7.87578 26.6777 7.14515 26.1127C7.30603 26.0032 7.58755 25.8587 8.04 25.7229C8.67678 25.5302 9.394 25.4119 10.2252 25.3594C10.5536 25.3506 10.8485 25.3418 11.1133 25.3375V25.3725C11.1133 26.012 11.5121 26.5332 12.0015 26.5332Z" fill="#233038" fill-opacity="0.8"/>
<path d="M14.6168 11.9456C15.5514 10.7549 16.4644 9.50885 17.3095 8.34305C17.6374 7.89271 17.9668 7.44015 18.2932 6.98289C18.2933 6.98268 18.2935 6.98246 18.2937 6.98224L18.4469 6.76887L18.4471 6.76861C18.5723 6.59416 18.6983 6.4196 18.8249 6.24429L18.8262 6.24256C18.9522 6.06804 19.0788 5.89278 19.2046 5.71741L19.7864 4.90634L18.7884 4.92606C16.8037 4.9653 12.4354 4.9391 11.5295 4.90886L14.6168 11.9456ZM14.6168 11.9456C14.1851 12.4964 13.807 12.9642 13.4587 13.3839L13.4579 13.3849C13.2751 13.6041 13.1087 13.7963 12.9532 13.945C12.8011 14.0905 12.6211 14.2328 12.4036 14.3048C11.8908 14.4745 11.4768 14.1745 11.1636 13.9016L11.1629 13.901C10.6276 13.433 10.1039 12.6858 9.64424 12.0301L9.62814 12.0072M14.6168 11.9456L9.62814 12.0072M9.62814 12.0072C9.36964 11.6386 9.13253 11.3035 8.89436 11.0006C8.89415 11.0004 8.89394 11.0001 8.89373 10.9998L9.62814 12.0072ZM7.89572 25.2442C7.40709 25.3909 7.07641 25.5547 6.86381 25.6994L6.29447 26.0869L6.83928 26.5082C7.30547 26.8688 7.93662 27.0426 8.52389 27.1393C9.11746 27.2371 9.74179 27.2667 10.2427 27.2905L10.2516 27.2909C10.2522 27.2909 10.2527 27.2909 10.2533 27.291C10.3258 27.2949 10.393 27.2984 10.4563 27.3017C10.6094 27.3096 10.7391 27.3164 10.8626 27.3253L10.864 27.3254C12.3084 27.4262 14.5271 27.4992 16.3945 26.7631L16.5148 26.7176C16.786 26.6199 17.0305 26.5112 17.1874 26.3898L17.7424 25.9599L17.1547 25.5759C17.01 25.4813 16.7531 25.3864 16.2779 25.2648L16.2758 25.2643C16.2568 25.2595 16.2397 25.2552 16.2242 25.2513C16.157 25.2345 16.1207 25.2255 16.0947 25.217L16.0948 25.2168L16.0838 25.2135C15.3389 24.9889 14.4967 24.8573 13.5136 24.8032L13.4943 24.8021L13.4749 24.8025C13.4043 24.8041 13.3377 24.8061 13.2727 24.8081C13.1447 24.8119 13.023 24.8156 12.8896 24.8156H12.3896V25.3156V25.3725C12.3896 25.5916 12.3207 25.7728 12.2319 25.8888C12.1433 26.0046 12.057 26.0332 12.0015 26.0332C11.9459 26.0332 11.8596 26.0046 11.771 25.8888C11.6822 25.7728 11.6133 25.5916 11.6133 25.3725V25.3375V24.8291L11.105 24.8375C10.8916 24.8411 10.6584 24.8474 10.4077 24.8542C10.3435 24.856 10.2783 24.8578 10.2118 24.8595L10.2027 24.8598L10.1936 24.8604C9.33422 24.9147 8.57767 25.0378 7.89572 25.2442ZM7.89572 25.2442C7.89591 25.2441 7.8961 25.2441 7.89628 25.244L8.04 25.7229M7.89572 25.2442C7.89554 25.2442 7.89535 25.2443 7.89516 25.2443L8.04 25.7229M8.04 25.7229C8.67678 25.5302 9.394 25.4119 10.2252 25.3594L10.8988 26.8267C10.7698 26.8173 10.6324 26.8102 10.4767 26.8021C10.4139 26.7988 10.3481 26.7954 10.2788 26.7916L10.2781 26.7916C9.46733 26.7531 8.41974 26.7034 7.65855 26.3974C7.5517 26.4477 7.47628 26.4922 7.4265 26.5261L7.14515 26.1127L7.45103 25.7172C7.51332 25.7654 7.58469 25.81 7.6645 25.8514C7.77401 25.8086 7.89867 25.7653 8.04 25.7229ZM23.467 0.912825L23.4684 0.912488C23.538 1.17509 23.4771 1.43648 23.3601 1.58077C21.7609 3.55168 20.2277 5.67892 18.7544 7.72694L18.7538 7.72772C18.064 8.69049 17.392 9.6211 16.7138 10.5379L16.7133 10.5387C16.4494 10.8968 16.2095 11.2325 15.975 11.5608L15.9509 11.5945C15.3335 12.4575 14.7554 13.2656 13.8911 14.2719L13.8876 14.276L13.8788 14.2855C13.8669 14.2982 13.8497 14.3162 13.8278 14.339C13.7845 14.3839 13.7272 14.4427 13.6656 14.5059C13.5384 14.6347 13.4003 14.778 13.3544 14.8259L13.3331 14.8462L13.156 15.0018L13.1498 15.0073L13.1438 15.0129C12.9445 15.2002 12.7664 15.3424 12.6094 15.445L12.3829 15.593V15.8635V23.1299V23.6299H12.8829H13.4828C13.5464 23.6299 13.5966 23.6335 13.6325 23.6384L13.6533 23.6413L13.6743 23.6424C14.9747 23.7111 15.9809 23.8862 16.7222 24.1556C17.4625 24.4246 17.8977 24.7721 18.1256 25.161L18.1261 25.1618C18.3253 25.5003 18.394 25.9166 18.3043 26.3754C18.2109 26.8493 17.8984 27.1997 17.4082 27.4791C16.9092 27.7635 16.2762 27.9436 15.6479 28.0815C14.4144 28.3501 13.1835 28.486 11.9881 28.486C11.6103 28.486 11.2332 28.4732 10.8701 28.4478L10.8701 28.4477L10.8593 28.4472C10.834 28.4459 10.808 28.4448 10.7811 28.4436C10.7047 28.4401 10.6209 28.4363 10.5259 28.4301L10.5259 28.4301L10.5175 28.4296C9.60291 28.3853 8.38854 28.3222 7.37702 28.0057C6.36138 27.6878 5.72475 27.1769 5.63837 26.3333L5.63818 26.3316C5.58901 25.8675 5.69124 25.4475 5.91243 25.1152C6.16048 24.7432 6.61158 24.4102 7.335 24.157C8.05761 23.9042 9.01559 23.7444 10.2188 23.6952L10.2262 23.6949L10.2336 23.6944C10.4715 23.6776 10.765 23.6647 11.1188 23.6561L11.6066 23.6442V23.1562V15.7759V15.5414L11.4263 15.3915L11.371 15.3455L11.3157 15.2995L11.3158 15.2994L11.308 15.2932C11.2959 15.2835 11.2741 15.2657 11.2485 15.2448C11.2038 15.2082 11.1475 15.162 11.1102 15.1328C10.9948 15.0423 10.8015 14.8304 10.5439 14.5058C10.2959 14.1934 10.0166 13.8136 9.73223 13.4201L9.73106 13.4185C9.71156 13.3917 9.69261 13.3656 9.67492 13.3411C9.63749 13.2895 9.60575 13.2457 9.58665 13.2207L9.2381 12.7652L8.88954 12.3097L8.75883 12.1389L8.75771 12.1374C8.18868 11.3938 7.53953 10.5454 6.89987 9.74023L6.89907 9.73924L6.0983 8.73651L6.09807 8.73622L6.08223 8.71635C4.26369 6.43567 2.39274 4.08926 0.634781 1.61115L0.605389 1.56092C0.599669 1.55045 0.596481 1.54382 0.59442 1.53939L0.589112 1.52756C0.588885 1.52705 0.588612 1.52643 0.5883 1.52572C0.586155 1.52084 0.582158 1.51175 0.578188 1.50311L0.571788 1.48917L0.564545 1.47564C0.510203 1.37419 0.476039 1.18508 0.516354 0.988963L0.519603 0.973161L0.521826 0.957181C0.55054 0.750785 0.667325 0.628306 0.742212 0.597649L0.753347 0.59309L0.764251 0.588001C0.781233 0.580074 0.805896 0.57444 0.832846 0.576512L0.851503 0.577946L0.870215 0.577982C3.16539 0.582367 5.53053 0.564826 7.81593 0.547309L7.81711 0.547298L8.69072 0.538548C8.69091 0.538546 8.6911 0.538545 8.6913 0.538543C8.79124 0.537767 8.89166 0.536985 8.99253 0.536199C11.7368 0.514827 14.8144 0.490859 17.8075 0.503523H17.8096H18.8933L18.8866 0.515215L19.7434 0.521031C21.031 0.529773 22.1373 0.547251 23.1795 0.573445L23.1795 0.573481L23.1855 0.57356C23.2247 0.574072 23.3801 0.621441 23.467 0.912825ZM13.8899 14.2735L13.8897 14.2737C13.8905 14.2729 13.891 14.2723 13.8912 14.272C13.8915 14.2718 13.8915 14.2718 13.8912 14.272C13.891 14.2723 13.8906 14.2728 13.8899 14.2735ZM15.7219 3.86298L16.225 3.8661V3.8586L16.9617 3.85863L16.9668 3.85858C18.259 3.84532 19.412 3.78781 20.4858 3.69011L20.7062 3.67006L20.8395 3.4935C21.0944 3.15604 21.3481 2.82003 21.6051 2.48423L22.2064 1.69836L21.217 1.68047C20.5611 1.6686 19.8963 1.66073 19.2288 1.65283C18.9091 1.64904 18.5889 1.64525 18.2687 1.64101V1.64096H18.262H17.0295C14.3928 1.6322 11.7132 1.65412 9.12041 1.676L8.67008 1.67599L8.66678 1.67601C8.16849 1.6793 7.67043 1.68287 7.17253 1.68643C5.67974 1.6971 4.18839 1.70776 2.69663 1.71105L1.70984 1.71322L2.2952 2.50764C2.43641 2.69928 2.57163 2.88413 2.70609 3.06793C2.8243 3.22952 2.94191 3.39031 3.06248 3.55418L3.22433 3.77415L3.49688 3.75686C4.52098 3.69189 5.61971 3.65712 6.85358 3.65712C8.41557 3.65712 9.97918 3.70936 11.5016 3.76195L11.5029 3.76199C11.5975 3.765 11.6923 3.76804 11.7874 3.77109C13.0717 3.81221 14.4009 3.85477 15.7219 3.86298Z" stroke="#233038" stroke-opacity="0.8"/>
</g>
<defs>
<clipPath id="clip0_643_114216">
<rect width="24" height="29" fill="white"/>
</clipPath>
</defs>
</svg>
