<svg width="25" height="31" viewBox="0 0 25 31" fill="none" xmlns="http://www.w3.org/2000/svg">
<path d="M1.54243 7.89467H23.4545L22.4446 15.6268L20.4074 31H4.59541L3.43128 22.2015L2.57271 15.6281L1.54243 7.89467ZM20.9866 9.96132H4.01624L4.7351 15.3705L5.59363 21.9452L6.52057 28.9333H18.4778L20.2793 15.3704L20.9866 9.96132ZM24.9999 9.96132H0V7.89464H25L24.9999 9.96132ZM6.48867 0H18.5099L23.312 4.54667V9.96132H1.68794V4.54528L6.48867 0ZM17.6063 2.06668H7.39371L3.87072 5.40227V7.89467H21.1291V5.40227L17.6063 2.06668ZM12.4694 23.1715H12.4674C9.92698 23.1715 7.86758 21.2216 7.86758 18.8163C7.86758 16.411 9.92697 14.4612 12.4674 14.4612C15.0078 14.4612 17.0672 16.411 17.0672 18.8163C17.0672 20.9058 15.5132 22.6515 13.4397 23.074L13.4095 23.0791C13.1269 23.1378 12.8023 23.1714 12.4695 23.1715H12.4694ZM12.4694 16.5306C11.1353 16.5306 10.0538 17.5546 10.0538 18.8177C10.0538 20.0808 11.1353 21.1048 12.4694 21.1048C13.8043 21.1048 14.8865 20.0802 14.8865 18.8163V18.8061V18.8067V18.797C14.8855 18.165 14.6068 17.5948 14.1597 17.1899L14.1588 17.1891C13.7251 16.7825 13.1283 16.531 12.4695 16.5306H12.4694L12.4694 16.5306Z" fill="#233038" fill-opacity="0.8"/>
<path d="M0.0705237 7.96517H1.48067L1.61741 8.99159V9.8908H0.0705237V7.96517ZM1.75846 8.98223V7.9652H3.8002H3.87072H21.1291H21.1997H23.2415V8.98117L23.1227 9.8908H21.0669H20.9866H4.01624H3.93572H1.8795L1.75846 8.98223ZM3.95446 10.0318L4.66517 15.3796L4.66519 15.3798L5.5237 21.9543L5.52372 21.9545L6.45066 28.9426L6.45879 29.0038H6.52057H18.4778H18.5396L18.5477 28.9426L20.3492 15.3797L20.3492 15.3796L21.0485 10.0318H23.1043L22.3747 15.6175L22.3747 15.6177L20.3456 30.9295H4.65722L3.50121 22.1924L3.50119 22.1923L2.64264 15.619L2.64262 15.6188L1.8983 10.0318H3.95446ZM23.2415 4.57702V7.82412H21.1997V5.40227V5.37192L21.1776 5.35106L17.6547 2.01547L17.6343 1.99615H17.6063H7.39371H7.36562L7.34522 2.01547L3.82224 5.35106L3.8002 5.37192V5.40227V7.82412H1.75846V4.57563L6.51676 0.0705237H18.4818L23.2415 4.57702ZM23.3826 9.8908V8.99032L23.5164 7.96517H24.9295L24.9294 9.8908H23.3826ZM13.3976 23.0096L13.3976 23.0096L13.3951 23.0101C13.1176 23.0677 12.7978 23.1008 12.4694 23.1009H12.4694H12.4674C9.96224 23.1009 7.9381 21.1791 7.9381 18.8163C7.9381 16.4536 9.96224 14.5317 12.4674 14.5317C14.9726 14.5317 16.9967 16.4536 16.9967 18.8163C16.9967 20.8687 15.4701 22.5878 13.4267 23.0046L13.3976 23.0096ZM12.6446 16.466L12.651 16.46H12.4694C11.1 16.46 9.98327 17.512 9.98327 18.8177C9.98327 20.1233 11.1001 21.1753 12.4694 21.1753C13.8396 21.1753 14.957 20.1227 14.957 18.8163V18.8067V18.8061L14.957 18.797L14.957 18.7969C14.956 18.1436 14.6678 17.5549 14.2071 17.1376L14.2071 17.1376L14.2057 17.1364C13.798 16.7548 13.2512 16.5066 12.6446 16.466Z" stroke="#233038" stroke-opacity="0.8" stroke-width="0.141047"/>
</svg>
