<svg width="30" height="47" viewBox="0 0 30 47" fill="none" xmlns="http://www.w3.org/2000/svg">
<g clip-path="url(#clip0_449_118282)">
<path d="M15.9658 46.4373C18.7646 40.8818 21.5534 35.3263 24.3522 29.7609C25.6371 27.1952 26.9319 24.6395 28.2167 22.0739C30.1889 18.1465 30.6371 13.6863 28.9936 9.55175C27.0215 4.57841 22.5295 0.887878 17.151 0.147798C11.7725 -0.592282 6.14503 1.6773 2.85818 6.14738C-0.428672 10.6175 -0.866919 16.3703 1.38408 21.2845C2.30041 23.2778 3.35619 25.2217 4.34224 27.1854C7.49961 33.4514 10.5175 39.8161 13.8144 46.013C13.8841 46.1512 13.9538 46.2893 14.0235 46.4373C14.6709 47.7201 16.6032 46.5952 15.9558 45.3124C13.3761 40.1812 10.7865 35.0401 8.20679 29.9089L4.06336 21.6792C2.51953 18.6103 1.71276 15.423 2.54942 11.9989C3.77452 7.06508 7.85818 3.15746 12.9578 2.35817C18.0574 1.55888 23.4757 4.06529 26.0952 8.65378C28.2566 12.443 28.2765 16.9525 26.3442 20.8306C25.2486 23.0311 24.1331 25.2217 23.0275 27.4222C20.0295 33.3922 17.0215 39.3523 14.0235 45.3223C13.3861 46.5952 15.3183 47.7201 15.9558 46.4472L15.9658 46.4373Z" fill="#CFCFCF" fill-opacity="0.998047"/>
<path d="M19.1036 11.6824C19.512 11.6824 20.0797 11.7318 20.5777 12.0081C21.1056 12.3041 21.4243 12.7186 21.5239 13.3205C21.5239 13.3205 21.5439 13.508 21.5339 13.3698C21.5339 13.281 21.504 13.6264 21.4841 13.7053C21.4144 13.9619 21.3148 14.179 21.1455 14.3862C20.7769 14.8204 20.1992 15.0769 19.6415 15.146C18.8945 15.2348 18.3965 15.7776 18.5658 16.5472C18.7949 17.6722 18.7251 18.728 17.9881 19.6753C17.251 20.6226 16.1056 21.1259 14.9403 21.1653C12.4303 21.2443 10.3984 19.0339 11.0658 16.5275C11.2251 15.9354 10.8666 15.3335 10.2789 15.1658C9.44227 14.9191 8.67534 14.5145 8.51597 13.5771C8.50601 13.4981 8.48609 13.3698 8.48609 13.5277C8.48609 13.3304 8.54585 13.1034 8.61558 12.9159C8.74506 12.6001 8.99406 12.314 9.27295 12.1166C10.498 11.2384 12.4702 11.7515 12.9084 13.2021C13.0379 13.6264 13.4961 14.0704 13.9841 14.0211C14.5817 13.952 15.1494 13.9323 15.7371 14.0704C16.3247 14.2086 16.9821 13.9027 17.1116 13.2909C17.3208 12.3239 18.1275 11.7811 19.1036 11.6824C19.7112 11.6232 20.2192 11.2187 20.2192 10.5773C20.2192 10.0247 19.7012 9.403 19.1036 9.47208C17.1913 9.66943 15.3785 10.7253 14.9502 12.7087L16.3247 11.9291C15.5379 11.7515 14.771 11.7121 13.9741 11.8009L15.0498 12.6199C14.1235 9.57075 10.1096 8.50504 7.66936 10.5575C6.62354 11.4358 6.0857 12.7482 6.32474 14.0902C6.6335 15.8269 8.06777 16.8334 9.67135 17.3169L8.8845 15.9552C7.86856 19.7839 10.9064 23.5336 14.9204 23.4053C16.7231 23.3461 18.4761 22.5764 19.6216 21.1752C20.8865 19.6457 21.0957 17.8596 20.7072 15.9749L19.6315 17.3761C21.8626 17.0998 23.9642 15.5013 23.7351 13.1133C23.506 10.7253 21.2749 9.47208 19.0937 9.47208C17.6494 9.47208 17.6494 11.6923 19.0937 11.6923L19.1036 11.6824Z" fill="#CFCFCF" fill-opacity="0.998047"/>
</g>
<defs>
<clipPath id="clip0_449_118282">
<rect width="30" height="47" fill="white"/>
</clipPath>
</defs>
</svg>
