<svg width="27" height="36" viewBox="0 0 27 36" fill="none" xmlns="http://www.w3.org/2000/svg">
<g clip-path="url(#clip0_643_114251)">
<path d="M24.1977 21.5849C26.0038 20.1122 27.0002 18.1392 27.0002 16.0294C27.0002 15.4158 26.9153 14.8022 26.7398 14.2074C26.5926 13.6929 26.0434 13.3342 25.4093 13.3342H13.8541C13.3332 13.3295 12.8633 13.5702 12.6312 13.962C12.2462 14.6133 12.048 15.3119 12.048 16.0388C12.048 18.6301 14.5731 20.7353 17.6813 20.7353C20.7895 20.7353 23.3145 18.6301 23.3145 16.0388C23.3145 15.8972 23.3089 15.7509 23.2919 15.6093H24.243C24.2544 15.7462 24.26 15.8878 24.26 16.0247C24.26 17.5162 23.558 18.9086 22.2785 19.9518C20.9989 20.9949 19.3005 21.5519 17.5227 21.5188C14.0352 21.4575 11.1422 19.0408 11.0742 16.1379C11.0516 15.3355 11.2384 14.5614 11.6177 13.8345C11.8499 13.3861 12.0367 12.9519 12.1726 12.6215L15.1279 5.44696C15.6431 4.19615 15.4053 2.799 14.4882 1.71339C13.5823 0.64665 12.1612 0.0188803 10.5987 0C10.5251 0 10.4458 0 10.3722 0C7.76787 0.066081 5.6278 1.81251 5.49192 3.97902C5.44663 4.69647 5.63346 5.41864 6.03544 6.07945C6.03544 6.07945 6.02977 6.07945 6.02411 6.07945C4.86349 5.90009 4.03124 6.27298 3.43678 6.61282C3.11973 6.79691 2.87062 7.03291 2.67813 7.25003C2.43468 6.75443 2.52527 6.25882 2.6385 6.05113C3.00084 5.41392 3.66324 5.45641 3.7425 5.46112C4.97672 5.59329 5.20319 4.97024 5.24848 4.69175C5.34472 4.0687 4.8182 3.49757 4.07087 3.41733C3.17635 3.31821 1.22877 3.60142 0.277624 5.35256C-0.373456 6.55618 0.124762 8.08549 1.68169 9.67143L1.71 9.69975C2.01572 10.101 2.62151 10.3134 3.17635 10.2048C3.75949 10.0915 4.1841 9.68087 4.2294 9.18054C4.24638 9.01062 4.43321 8.72742 4.7446 8.51973C4.89746 8.42061 5.19752 8.26485 5.53156 8.31677C7.09981 8.55749 8.18117 8.31677 8.74732 7.60876C9.20025 7.04235 9.20025 6.3013 8.74166 5.51777C8.71902 5.44696 8.67939 5.35256 8.60012 5.25816C8.32837 4.9136 8.19815 4.51239 8.2208 4.09702C8.28308 3.10581 9.26253 2.30812 10.4515 2.27508H10.559C11.2384 2.2798 11.8555 2.55828 12.2575 3.03029C12.6764 3.5259 12.784 4.1395 12.5462 4.71535L9.5909 11.8899C9.472 12.1825 9.30782 12.5601 9.11533 12.933C8.57748 13.9667 8.31705 15.0618 8.34535 16.1946C8.39631 18.2006 9.36443 20.0934 11.0799 21.5235C11.9574 22.2551 13.0048 22.8357 14.1428 23.2275L10.2986 26.7251C9.99853 26.9988 9.87398 27.3764 9.97022 27.7352C10.0665 28.0939 10.3665 28.396 10.7742 28.5423L16.1696 30.4492V34.8719C16.1696 35.4997 16.7811 36.0094 17.5341 36.0094C18.2871 36.0094 18.8985 35.4997 18.8985 34.8719V31.4168L19.6855 31.6953C20.3649 31.936 21.1914 31.6528 21.4745 31.0911C21.6161 30.8126 21.6217 30.5011 21.4802 30.2179C21.3443 29.9347 21.0839 29.7129 20.7498 29.5949L18.8928 28.9388V23.7373C20.9027 23.5201 22.7257 22.7838 24.1864 21.5896L24.1977 21.5849ZM20.597 16.0435C20.597 17.3793 19.2948 18.4649 17.6926 18.4649C16.0904 18.4649 14.7882 17.3793 14.7882 16.0435C14.7882 15.8972 14.8052 15.7556 14.8335 15.614H20.5517C20.58 15.7556 20.597 15.8972 20.597 16.0435ZM16.1753 24.7521V27.9664L13.6276 27.0649L16.1753 24.7473V24.7521Z" fill="#233038" fill-opacity="0.8"/>
<path d="M4.75463 4.61352C4.79324 4.35471 4.57016 3.97382 4.01749 3.91448L4.0158 3.91429C3.22604 3.82678 1.53194 4.09131 0.717209 5.59082C0.231275 6.48963 0.522693 7.77643 2.03694 9.31957L2.06363 9.34628L2.08736 9.37001L2.10769 9.3967C2.28413 9.62824 2.68879 9.79072 3.08033 9.7141L3.081 9.71397C3.50159 9.63227 3.71091 9.3622 3.73143 9.13547L3.73185 9.13081L3.73188 9.13081C3.75319 8.91754 3.86241 8.71784 3.97538 8.56593C4.09763 8.40154 4.26417 8.23915 4.46716 8.10376L4.47254 8.10018L4.47257 8.10021C4.65469 7.98212 5.08722 7.74188 5.60788 7.82263M4.75463 4.61352L13.0085 4.90579L13.0084 4.90619M4.75463 4.61352C4.74265 4.68529 4.71172 4.7735 4.6281 4.84071C4.54735 4.90562 4.32983 5.02116 3.79574 4.96397L3.784 4.96271L3.77222 4.96201C3.7713 4.96195 3.77029 4.96189 3.76919 4.96183C3.66102 4.95527 2.71892 4.89818 2.20385 5.80398L2.20378 5.80394L2.1995 5.81179C2.01172 6.15622 1.91142 6.82325 2.22935 7.47048L2.5579 8.13935L3.05226 7.58173C3.22281 7.38936 3.4312 7.1945 3.68643 7.04604C4.2341 6.73312 4.94716 6.41896 5.94775 6.57359L5.9857 6.57945H6.02411H6.02415H6.02418H6.02421H6.02424H6.02428H6.02431H6.02434H6.02438H6.02441H6.02444H6.02448H6.02451H6.02454H6.02458H6.02461H6.02464H6.02468H6.02471H6.02474H6.02478H6.02481H6.02484H6.02487H6.02491H6.02494H6.02497H6.02501H6.02504H6.02507H6.02511H6.02514H6.02517H6.02521H6.02524H6.02527H6.0253H6.02534H6.02537H6.0254H6.02544H6.02547H6.0255H6.02554H6.02557H6.0256H6.02563H6.02567H6.0257H6.02573H6.02577H6.0258H6.02583H6.02586H6.0259H6.02593H6.02596H6.026H6.02603H6.02606H6.02609H6.02613H6.02616H6.02619H6.02622H6.02626H6.02629H6.02632H6.02635H6.02639H6.02642H6.02645H6.02648H6.02652H6.02655H6.02658H6.02661H6.02665H6.02668H6.02671H6.02674H6.02678H6.02681H6.02684H6.02687H6.02691H6.02694H6.02697H6.027H6.02703H6.02707H6.0271H6.02713H6.02716H6.0272H6.02723H6.02726H6.02729H6.02732H6.02736H6.02739H6.02742H6.02745H6.02748H6.02751H6.02755H6.02758H6.02761H6.02764H6.02767H6.02771H6.02774H6.02777H6.0278H6.02783H6.02786H6.02789H6.02793H6.02796H6.02799H6.02802H6.02805H6.02808H6.02811H6.02815H6.02818H6.02821H6.02824H6.02827H6.0283H6.02833H6.02836H6.02839H6.02842H6.02846H6.02849H6.02852H6.02855H6.02858H6.02861H6.02864H6.02867H6.0287H6.02873H6.02876H6.02879H6.02882H6.02885H6.02888H6.02892H6.02895H6.02898H6.02901H6.02904H6.02907H6.0291H6.02913H6.02916H6.02919H6.02922H6.02925H6.02928H6.02931H6.02934H6.02937H6.0294H6.02943H6.02946H6.02949H6.02951H6.02954H6.02957H6.0296H6.02963H6.02966H6.02969H6.02972H6.02975H6.02978H6.02981H6.02984H6.02987H6.0299H6.02992H6.02995H6.02998H6.03001H6.03004H6.03007H6.0301H6.03013H6.03015H6.03018H6.03021H6.03024H6.03027H6.0303H6.03032H6.03035H6.03038H6.03041H6.03044H6.03047H6.03049H6.03052H6.03055H6.03058H6.0306H6.03063H6.03066H6.03069H6.03072H6.03074H6.03077H6.0308H6.03083H6.03085H6.03088H6.03091H6.03093H6.03096H6.03099H6.03101H6.03104H6.03107H6.0311H6.03112H6.03115H6.03118H6.0312H6.03123H6.03126H6.03128H6.03131H6.03133H6.03136H6.03139H6.03141H6.03144H6.03146H6.03149H6.03152H6.03154H6.03157H6.03159H6.03162H6.03164H6.03167H6.0317H6.03172H6.03175H6.03177H6.0318H6.03182H6.03185H6.03187H6.0319H6.03192H6.03195H6.03197H6.032H6.03202H6.03204H6.03207H6.03209H6.03212H6.03214H6.03217H6.03219H6.03221H6.03224H6.03226H6.03229H6.03231H6.03233H6.03236H6.03238H6.0324H6.03243H6.03245H6.03247H6.0325H6.03252H6.03254H6.03257H6.03259H6.03261H6.03264H6.03266H6.03268H6.0327H6.03273H6.03275H6.03277H6.03279H6.03282H6.03284H6.03286H6.03288H6.0329H6.03293H6.03295H6.03297H6.03299H6.03301H6.03303H6.03305H6.03308H6.0331H6.03312H6.03314H6.03316H6.03318H6.0332H6.03322H6.03324H6.03326H6.03328H6.0333H6.03333H6.03335H6.03337H6.03339H6.03341H6.03343H6.03345H6.03346H6.03348H6.0335H6.03352H6.03354H6.03356H6.03358H6.0336H6.03362H6.03364H6.03366H6.03368H6.0337H6.03371H6.03373H6.03375H6.03377H6.03379H6.03381H6.03382H6.03384H6.03386H6.03388H6.0339H6.03391H6.03393H6.03395H6.03397H6.03398H6.034H6.03402H6.03404H6.03405H6.03407H6.03409H6.0341H6.03412H6.03414H6.03415H6.03417H6.03419H6.0342H6.03422H6.03423H6.03425H6.03427H6.03428H6.0343H6.03431H6.03433H6.03434H6.03436H6.03437H6.03439H6.0344H6.03442H6.03443H6.03445H6.03446H6.03448H6.03449H6.03451H6.03452H6.03453H6.03455H6.03456H6.03457H6.03459H6.0346H6.03462H6.03463H6.03464H6.03466H6.03467H6.03468H6.03469H6.03471H6.03472H6.03473H6.03475H6.03476H6.03477H6.03478H6.03479H6.03481H6.03482H6.03483H6.03484H6.03485H6.03486H6.03488H6.03489H6.0349H6.03491H6.03492H6.03493H6.03494H6.03495H6.03496H6.03497H6.03498H6.03499H6.035H6.03501H6.03502H6.03503H6.03504H6.03505H6.03506H6.03507H6.03508H6.03509H6.0351H6.03511H6.03512H6.03512H6.03513H6.03514H6.03515H6.03516H6.03517H6.03517H6.03518H6.03519H6.0352H6.0352H6.03521H6.03522H6.03523H6.03523H6.03524H6.03525H6.03525H6.03526H6.03527H6.03527H6.03528H6.03528H6.03529H6.0353H6.0353H6.03531H6.03531H6.03532H6.03532H6.03533H6.03533H6.03534H6.03534H6.03535H6.03535H6.03536H6.03536H6.03537H6.03537H6.03537H6.03538H6.03538H6.03539H6.0354H6.0354H6.03541H6.03541H6.03542H6.03542H6.03543H6.03543H6.03544H6.92483L6.46261 5.8196C6.10961 5.2393 5.95259 4.61794 5.99093 4.01052L5.99094 4.01032C6.10605 2.17506 7.95849 0.564078 10.3787 0.5H10.3791H10.3795H10.38H10.3804H10.3808H10.3813H10.3817H10.3821H10.3826H10.383H10.3834H10.3839H10.3843H10.3848H10.3852H10.3856H10.3861H10.3865H10.3869H10.3874H10.3878H10.3882H10.3887H10.3891H10.3895H10.39H10.3904H10.3908H10.3913H10.3917H10.3922H10.3926H10.393H10.3935H10.3939H10.3943H10.3948H10.3952H10.3957H10.3961H10.3965H10.397H10.3974H10.3978H10.3983H10.3987H10.3992H10.3996H10.4H10.4005H10.4009H10.4014H10.4018H10.4022H10.4027H10.4031H10.4035H10.404H10.4044H10.4049H10.4053H10.4057H10.4062H10.4066H10.4071H10.4075H10.4079H10.4084H10.4088H10.4093H10.4097H10.4101H10.4106H10.411H10.4115H10.4119H10.4124H10.4128H10.4132H10.4137H10.4141H10.4146H10.415H10.4154H10.4159H10.4163H10.4168H10.4172H10.4176H10.4181H10.4185H10.419H10.4194H10.4199H10.4203H10.4207H10.4212H10.4216H10.4221H10.4225H10.423H10.4234H10.4238H10.4243H10.4247H10.4252H10.4256H10.4261H10.4265H10.4269H10.4274H10.4278H10.4283H10.4287H10.4292H10.4296H10.4301H10.4305H10.4309H10.4314H10.4318H10.4323H10.4327H10.4332H10.4336H10.4341H10.4345H10.4349H10.4354H10.4358H10.4363H10.4367H10.4372H10.4376H10.4381H10.4385H10.4389H10.4394H10.4398H10.4403H10.4407H10.4412H10.4416H10.4421H10.4425H10.443H10.4434H10.4438H10.4443H10.4447H10.4452H10.4456H10.4461H10.4465H10.447H10.4474H10.4479H10.4483H10.4487H10.4492H10.4496H10.4501H10.4505H10.451H10.4514H10.4519H10.4523H10.4528H10.4532H10.4537H10.4541H10.4546H10.455H10.4554H10.4559H10.4563H10.4568H10.4572H10.4577H10.4581H10.4586H10.459H10.4595H10.4599H10.4604H10.4608H10.4613H10.4617H10.4621H10.4626H10.463H10.4635H10.4639H10.4644H10.4648H10.4653H10.4657H10.4662H10.4666H10.4671H10.4675H10.468H10.4684H10.4689H10.4693H10.4698H10.4702H10.4706H10.4711H10.4715H10.472H10.4724H10.4729H10.4733H10.4738H10.4742H10.4747H10.4751H10.4756H10.476H10.4765H10.4769H10.4774H10.4778H10.4783H10.4787H10.4792H10.4796H10.4801H10.4805H10.4809H10.4814H10.4818H10.4823H10.4827H10.4832H10.4836H10.4841H10.4845H10.485H10.4854H10.4859H10.4863H10.4868H10.4872H10.4877H10.4881H10.4886H10.489H10.4895H10.4899H10.4903H10.4908H10.4912H10.4917H10.4921H10.4926H10.493H10.4935H10.4939H10.4944H10.4948H10.4953H10.4957H10.4962H10.4966H10.4971H10.4975H10.498H10.4984H10.4989H10.4993H10.4998H10.5002H10.5006H10.5011H10.5015H10.502H10.5024H10.5029H10.5033H10.5038H10.5042H10.5047H10.5051H10.5056H10.506H10.5065H10.5069H10.5074H10.5078H10.5083H10.5087H10.5091H10.5096H10.51H10.5105H10.5109H10.5114H10.5118H10.5123H10.5127H10.5132H10.5136H10.5141H10.5145H10.515H10.5154H10.5159H10.5163H10.5167H10.5172H10.5176H10.5181H10.5185H10.519H10.5194H10.5199H10.5203H10.5208H10.5212H10.5217H10.5221H10.5225H10.523H10.5234H10.5239H10.5243H10.5248H10.5252H10.5257H10.5261H10.5266H10.527H10.5275H10.5279H10.5283H10.5288H10.5292H10.5297H10.5301H10.5306H10.531H10.5315H10.5319H10.5323H10.5328H10.5332H10.5337H10.5341H10.5346H10.535H10.5355H10.5359H10.5364H10.5368H10.5372H10.5377H10.5381H10.5386H10.539H10.5395H10.5399H10.5404H10.5408H10.5412H10.5417H10.5421H10.5426H10.543H10.5435H10.5439H10.5443H10.5448H10.5452H10.5457H10.5461H10.5466H10.547H10.5474H10.5479H10.5483H10.5488H10.5492H10.5497H10.5501H10.5505H10.551H10.5514H10.5519H10.5523H10.5528H10.5532H10.5536H10.5541H10.5545H10.555H10.5554H10.5558H10.5563H10.5567H10.5572H10.5576H10.5581H10.5585H10.5589H10.5594H10.5598H10.5603H10.5607H10.5611H10.5616H10.562H10.5625H10.5629H10.5633H10.5638H10.5642H10.5647H10.5651H10.5655H10.566H10.5664H10.5669H10.5673H10.5677H10.5682H10.5686H10.5691H10.5695H10.5699H10.5704H10.5708H10.5712H10.5717H10.5721H10.5726H10.573H10.5734H10.5739H10.5743H10.5748H10.5752H10.5756H10.5761H10.5765H10.5769H10.5774H10.5778H10.5783H10.5787H10.5791H10.5796H10.58H10.5804H10.5809H10.5813H10.5817H10.5822H10.5826H10.583H10.5835H10.5839H10.5844H10.5848H10.5852H10.5857H10.5861H10.5865H10.587H10.5874H10.5878H10.5883H10.5887H10.5891H10.5896H10.59H10.5904H10.5909H10.5913H10.5917H10.5922H10.5926H10.593H10.5935H10.5939H10.5943H10.5948H10.5952H10.5956C12.0303 0.518104 13.3061 1.09416 14.1066 2.03653C14.9101 2.9879 15.1055 4.1885 14.6656 5.25653C14.6656 5.25653 14.6656 5.25654 14.6656 5.25654L11.7103 12.431L11.7101 12.4313C11.5768 12.7555 11.3964 13.1743 11.1742 13.6038C10.7579 14.4017 10.5494 15.2593 10.5744 16.1508C10.6512 19.3976 13.8423 21.9539 17.5135 22.0187C19.3988 22.0538 21.2152 21.4637 22.5944 20.3393C23.9764 19.2126 24.76 17.6836 24.76 16.0247C24.76 15.8744 24.7538 15.7191 24.7413 15.5681L24.7034 15.1093H24.243H23.2919H22.7283L22.7954 15.6688C22.8093 15.7843 22.8145 15.9094 22.8145 16.0388C22.8145 18.2727 20.6023 20.2353 17.6813 20.2353C14.7602 20.2353 12.548 18.2727 12.548 16.0388C12.548 15.4066 12.7194 14.7954 13.0614 14.2166C13.1879 14.0035 13.4757 13.8308 13.8495 13.8342V13.8342H13.8541H25.4093C25.8776 13.8342 26.1877 14.0956 26.2591 14.345L26.259 14.345L26.2602 14.3489C26.4217 14.896 26.5002 15.4619 26.5002 16.0294C26.5002 17.9506 25.6052 19.7682 23.9372 21.1518L23.9265 21.1563L23.8699 21.2025C22.4904 22.3304 20.7607 23.0326 18.8391 23.2401L18.3928 23.2884V23.7373V28.9388V29.2924L18.7263 29.4102L20.5833 30.0663L20.5833 30.0663C20.8104 30.1465 20.9584 30.2863 21.0294 30.4342L21.0293 30.4342L21.0329 30.4414C21.1016 30.5788 21.1006 30.7233 21.0288 30.8646L21.028 30.8661C20.9588 31.0034 20.8019 31.1412 20.568 31.2206C20.3371 31.2989 20.0765 31.3034 19.8525 31.224L19.8523 31.2239L19.0653 30.9455L18.3985 30.7095V31.4168V34.8719C18.3985 35.1422 18.0999 35.5094 17.5341 35.5094C16.9682 35.5094 16.6696 35.1422 16.6696 34.8719V30.4492V30.0956L16.3362 29.9778L10.9431 28.0717C10.9428 28.0716 10.9425 28.0715 10.9421 28.0713C10.6608 27.97 10.4996 27.7787 10.4531 27.6056C10.4114 27.4501 10.4553 27.2589 10.6356 27.0944L14.4793 23.5973L15.1035 23.0294L14.3056 22.7547C13.2211 22.3814 12.2279 21.8297 11.4001 21.1395C9.78187 19.7904 8.89214 18.0277 8.8452 16.1821L4.75463 4.61352ZM5.60788 7.82263C5.60804 7.82266 5.6082 7.82268 5.60835 7.8227L5.53156 8.31675L5.60742 7.82256C5.60757 7.82258 5.60773 7.82261 5.60788 7.82263ZM5.60788 7.82263C7.13202 8.0565 7.96659 7.7845 8.35682 7.2965C8.64493 6.9362 8.69624 6.43002 8.31014 5.77033L8.28225 5.72268L8.26543 5.6701C8.25567 5.63959 8.24218 5.60943 8.2172 5.57967L8.21227 5.57381L8.20753 5.56779C7.86424 5.13253 7.69194 4.61274 7.72154 4.0698L7.72177 4.06567L7.72178 4.06567C7.80478 2.74465 9.06878 1.81331 10.4376 1.77527L10.4515 1.77488V1.77508H10.559H10.5625V1.77509C11.375 1.78073 12.1344 2.11454 12.6382 2.70611L12.6393 2.7075C13.171 3.33641 13.3221 4.14644 13.0084 4.90619M13.0084 4.90619L10.0541 12.0781M13.0084 4.90619L10.0541 12.0781M10.0541 12.0781C10.054 12.0785 10.0538 12.0789 10.0536 12.0793C9.93132 12.3803 9.76104 12.7722 9.55962 13.1624L9.55888 13.1638C9.05854 14.1254 8.81912 15.137 8.84519 16.1819L10.0541 12.0781ZM14.8335 15.114H14.4236L14.3432 15.516C14.3098 15.683 14.2882 15.858 14.2882 16.0435C14.2882 17.7368 15.9032 18.9649 17.6926 18.9649C19.482 18.9649 21.097 17.7368 21.097 16.0435C21.097 15.858 21.0754 15.683 21.042 15.516L20.9616 15.114H20.5517H14.8335ZM16.0085 28.4378L16.6753 28.6737V27.9664V24.7521V24.7473V23.6166L15.8388 24.3775L13.2911 26.695L12.6729 27.2574L13.4608 27.5363L16.0085 28.4378Z" stroke="#233038" stroke-opacity="0.8"/>
<path d="M11.7081 4.28614C11.7081 3.71029 11.1419 3.23828 10.4512 3.23828C9.76049 3.23828 9.19434 3.70557 9.19434 4.28614C9.19434 4.86671 9.75483 5.33399 10.4512 5.33399C11.1476 5.33399 11.7081 4.86671 11.7081 4.28614Z" fill="#233038" fill-opacity="0.8"/>
</g>
<defs>
<clipPath id="clip0_643_114251">
<rect width="27" height="36" fill="white"/>
</clipPath>
</defs>
</svg>
