<svg width="35" height="25" viewBox="0 0 35 25" fill="none" xmlns="http://www.w3.org/2000/svg">
<g clip-path="url(#clip0_643_114202)">
<path d="M34.701 16.8446C33.8549 16.8446 33.1116 16.2834 32.8257 15.4374C32.6809 15.0102 32.3607 14.6626 31.949 14.6249C31.4726 14.5788 31.0533 14.8845 30.9085 15.3746C30.7827 15.7934 30.5426 16.141 30.2338 16.3965C30.3672 15.584 30.4396 14.7547 30.4396 13.9213C30.4396 9.60742 28.6482 5.59093 25.5265 2.90629C23.6473 1.29384 21.387 0.30961 18.9971 0.0625062C14.568 -0.394008 10.3143 1.67078 7.61944 5.57837C6.45308 7.2704 5.65645 9.26398 5.31341 11.3497C5.02372 13.1004 5.03897 14.8887 5.34009 16.6059C4.90556 16.363 4.5587 15.9525 4.38718 15.4374C4.24615 15.0102 3.92216 14.6668 3.51051 14.6291C3.03405 14.583 2.61477 14.8887 2.46612 15.3788C2.19931 16.2583 1.44079 16.8488 0.571744 16.8488C0.255379 16.8488 0 17.1294 0 17.477V18.4194C0 18.767 0.255379 19.0476 0.571744 19.0476C1.65425 19.0476 2.67576 18.5785 3.41522 17.7618C4.15848 18.5785 5.17619 19.0476 6.25869 19.0476C7.34119 19.0476 8.36271 18.5785 9.10216 17.7618C9.84543 18.5785 10.8631 19.0476 11.9456 19.0476C13.0281 19.0476 14.0496 18.5785 14.7891 17.7618C15.5324 18.5785 16.5501 19.0476 17.6326 19.0476C18.7151 19.0476 19.7366 18.5785 20.476 17.7618C21.2193 18.5785 22.237 19.0476 23.3195 19.0476C24.402 19.0476 25.4235 18.5785 26.163 17.7618C26.9063 18.5785 27.924 19.0476 29.0065 19.0476C30.089 19.0476 31.1067 18.5785 31.8499 17.7618C32.5932 18.5785 33.6109 19.0476 34.6934 19.0476C35.0098 19.0476 35.2652 18.767 35.2652 18.4194V17.477C35.2652 17.1294 35.0098 16.8488 34.6934 16.8488L34.701 16.8446ZM26.1706 14.6207C25.7323 14.6207 25.3587 14.9181 25.2215 15.3746C24.9547 16.2541 24.1962 16.8446 23.3271 16.8446C22.4581 16.8446 21.6996 16.2541 21.4328 15.3746C21.2955 14.9181 20.922 14.6207 20.4837 14.6207C20.0453 14.6207 19.6718 14.9181 19.5346 15.3746C19.2678 16.2541 18.5093 16.8446 17.6402 16.8446C16.7711 16.8446 16.0126 16.2541 15.7458 15.3746C15.6086 14.9181 15.2351 14.6207 14.7967 14.6207C14.3584 14.6207 13.9849 14.9181 13.8476 15.3746C13.5808 16.2541 12.8223 16.8446 11.9533 16.8446C11.0842 16.8446 10.3257 16.2541 10.0589 15.3746C9.92166 14.9181 9.54812 14.6207 9.10978 14.6207C8.67145 14.6207 8.29791 14.9181 8.16069 15.3746C8.01966 15.8436 7.73379 16.2248 7.36787 16.4844C7.19635 15.6468 7.10868 14.7882 7.10868 13.9171C7.10868 10.6628 8.29791 7.63477 10.4629 5.39409C12.6241 3.1534 15.4485 2.02677 18.414 2.21524C23.7045 2.55449 28.0002 7.18245 28.4119 12.9747C28.4995 14.2186 28.4119 15.4416 28.1565 16.6268C27.6762 16.3797 27.2989 15.9358 27.1273 15.3704C26.9901 14.9139 26.6166 14.6165 26.1782 14.6165L26.1706 14.6207Z" fill="#233038" fill-opacity="0.8"/>
<path d="M34.6923 17.3446L34.6934 17.3488C34.6979 17.3488 34.7105 17.3497 34.7281 17.3691C34.7466 17.3894 34.7652 17.426 34.7652 17.477V18.4194C34.7652 18.4704 34.7466 18.507 34.7281 18.5273C34.7105 18.5467 34.6979 18.5476 34.6934 18.5476C33.7592 18.5476 32.8734 18.1435 32.2197 17.4253L31.8499 17.019L31.4802 17.4253C30.8265 18.1435 29.9407 18.5476 29.0065 18.5476C28.0722 18.5476 27.1864 18.1435 26.5328 17.4253L26.162 17.0179L25.7923 17.4263C25.1434 18.143 24.2545 18.5476 23.3195 18.5476C22.3853 18.5476 21.4995 18.1435 20.8458 17.4253L20.4751 17.0179L20.1054 17.4263C19.4564 18.143 18.5676 18.5476 17.6326 18.5476C16.6983 18.5476 15.8125 18.1435 15.1589 17.4253L14.7882 17.0179L14.4185 17.4263C13.7695 18.143 12.8806 18.5476 11.9456 18.5476C11.0114 18.5476 10.1256 18.1435 9.47195 17.4253L9.10121 17.0179L8.73151 17.4263C8.08254 18.143 7.19368 18.5476 6.25869 18.5476C5.32443 18.5476 4.43866 18.1435 3.785 17.4253L3.41426 17.0179L3.04457 17.4263C2.3956 18.143 1.50673 18.5476 0.571744 18.5476C0.567233 18.5476 0.554698 18.5467 0.537022 18.5273C0.518569 18.507 0.5 18.4704 0.5 18.4194V17.477C0.5 17.426 0.51857 17.3894 0.537022 17.3691C0.554699 17.3497 0.567233 17.3488 0.571744 17.3488C1.67923 17.3488 2.61929 16.5962 2.94459 15.5239C3.03298 15.2325 3.25224 15.1064 3.46238 15.1268L3.46491 15.127C3.60986 15.1403 3.8089 15.2807 3.91238 15.5941L3.91279 15.5953C4.12313 16.2271 4.55118 16.7377 5.0961 17.0423L6.01426 17.5556L5.83257 16.5195C5.54106 14.8572 5.52635 13.1256 5.8067 11.4313L5.80678 11.4309C6.13821 9.41574 6.90779 7.49173 8.03111 5.86214C10.6309 2.09248 14.7131 0.123653 18.9457 0.559855L34.6923 17.3446ZM34.6923 17.3446C33.6177 17.3408 32.7 16.6266 32.3522 15.5979M34.6923 17.3446L32.3522 15.5979M32.8257 15.4374C32.6809 15.0102 32.3607 14.6626 31.949 14.6249C31.4726 14.5788 31.0533 14.8845 30.9085 15.3746C30.8923 15.4284 30.8742 15.4811 30.8544 15.5325C30.8211 15.8497 30.7785 16.1649 30.7272 16.4775L30.2338 16.3965L29.915 16.0113C30.1043 15.8546 30.2603 15.6522 30.3643 15.4105L18.9459 0.559871C21.2311 0.796183 23.3962 1.73735 25.2004 3.28539C28.2058 5.86998 29.9396 9.74514 29.9396 13.9213C29.9396 14.7258 29.8697 15.528 29.7404 16.3155L29.5241 17.6327L30.5526 16.7817C30.9356 16.4648 31.2325 16.0339 31.3873 15.5184L31.388 15.5163C31.473 15.2286 31.6903 15.1022 31.9009 15.1226L31.9034 15.1228C32.0439 15.1357 32.2427 15.275 32.3522 15.5979M32.8257 15.4374L32.352 15.5975C32.3521 15.5976 32.3521 15.5978 32.3522 15.5979M32.8257 15.4374L32.3522 15.5979M32.8257 15.4374L32.3522 15.5979M26.1706 15.1207H26.2385C26.4098 15.1446 26.5755 15.2714 26.6485 15.5143L26.6489 15.5155C26.8588 16.2077 27.3246 16.7611 27.9277 17.0714L28.5078 17.3699L28.6453 16.7322C28.9107 15.5003 29.0016 14.2301 28.9106 12.9396L28.9106 12.9393C28.4838 6.93388 24.0209 2.07375 18.446 1.71627L18.4457 1.71625C15.3265 1.51801 12.3612 2.70594 10.1033 5.04666C7.84363 7.38536 6.60868 10.54 6.60868 13.9171C6.60868 14.8219 6.69974 15.714 6.87804 16.5847L7.03187 17.336L7.65723 16.8922C8.1119 16.5696 8.46575 16.0965 8.63952 15.5185L8.63953 15.5185C8.72107 15.2472 8.91829 15.1207 9.10978 15.1207C9.30128 15.1207 9.4985 15.2472 9.58004 15.5185L9.58041 15.5197C9.90571 16.592 10.8458 17.3446 11.9533 17.3446C13.0607 17.3446 14.0008 16.592 14.3261 15.5197L14.3265 15.5185C14.408 15.2472 14.6052 15.1207 14.7967 15.1207C14.9882 15.1207 15.1854 15.2472 15.267 15.5185L15.2674 15.5197C15.5927 16.592 16.5327 17.3446 17.6402 17.3446C18.7477 17.3446 19.6877 16.592 20.013 15.5197L20.0134 15.5185C20.095 15.2472 20.2922 15.1207 20.4837 15.1207C20.6752 15.1207 20.8724 15.2472 20.9539 15.5185L20.9543 15.5197C21.2796 16.592 22.2197 17.3446 23.3271 17.3446C24.4346 17.3446 25.3747 16.592 25.7 15.5197L25.7004 15.5185C25.7819 15.2472 25.9791 15.1207 26.1706 15.1207Z" stroke="#233038" stroke-opacity="0.8"/>
<path d="M32.8143 21.0503C32.6656 20.5228 32.2502 20.1936 31.7699 20.2432C31.3582 20.2838 31.0342 20.658 30.8932 21.1179C30.6112 22.0243 29.8641 22.633 29.0179 22.633C28.1717 22.633 27.4246 22.0288 27.1426 21.1179C26.9977 20.658 26.6776 20.2838 26.2659 20.2432C25.7895 20.1936 25.3702 20.5228 25.2215 21.0503C24.9547 21.9972 24.1962 22.633 23.3271 22.633C22.4581 22.633 21.7339 22.0288 21.4518 21.1179C21.307 20.658 20.9868 20.2838 20.5752 20.2432C20.0987 20.1936 19.6794 20.5228 19.5346 21.0503C19.2678 21.9972 18.5093 22.633 17.6402 22.633C16.7711 22.633 16.0469 22.0288 15.7649 21.1179C15.62 20.658 15.2999 20.2838 14.8882 20.2432C14.4118 20.1936 13.9925 20.5228 13.8438 21.0503C13.577 21.9972 12.8185 22.633 11.9494 22.633C11.0804 22.633 10.3562 22.0288 10.0741 21.1179C9.92928 20.658 9.60911 20.2838 9.19745 20.2432C8.721 20.1936 8.30172 20.5228 8.15307 21.0503C7.88625 21.9972 7.12774 22.633 6.25869 22.633C5.38964 22.633 4.66543 22.0288 4.38337 21.1179C4.23853 20.658 3.91835 20.2838 3.5067 20.2432C3.03024 20.1936 2.61096 20.5228 2.46612 21.0503C2.19931 21.9972 1.44079 22.633 0.571744 22.633C0.255379 22.633 0 22.9351 0 23.3093V24.3238C0 24.6981 0.255379 25.0002 0.571744 25.0002C1.65425 25.0002 2.67576 24.4952 3.41522 23.6159C4.15848 24.4952 5.17619 25.0002 6.25869 25.0002C7.34119 25.0002 8.36271 24.4952 9.10216 23.6159C9.84543 24.4952 10.8631 25.0002 11.9456 25.0002C13.0281 25.0002 14.0496 24.4952 14.7891 23.6159C15.5324 24.4952 16.5501 25.0002 17.6326 25.0002C18.7151 25.0002 19.7366 24.4952 20.476 23.6159C21.2193 24.4952 22.237 25.0002 23.3195 25.0002C24.402 25.0002 25.4235 24.4952 26.163 23.6159C26.9063 24.4952 27.924 25.0002 29.0065 25.0002C30.089 25.0002 31.1067 24.4952 31.8499 23.6159C32.5932 24.4952 33.6109 25.0002 34.6934 25.0002C35.0098 25.0002 35.2652 24.6981 35.2652 24.3238V23.3093C35.2652 22.9351 35.0098 22.633 34.6934 22.633C33.8282 22.633 33.0658 21.9972 32.799 21.0503H32.8143Z" fill="#233038" fill-opacity="0.8"/>
</g>
<defs>
<clipPath id="clip0_643_114202">
<rect width="35" height="25" fill="white"/>
</clipPath>
</defs>
</svg>
