<svg width="24" height="31" viewBox="0 0 24 31" fill="none" xmlns="http://www.w3.org/2000/svg">
<path d="M15.2 20.7631C14.4697 20.7881 13.8325 21.1505 13.4477 21.6927L13.4428 21.7C13.0409 21.1401 12.3785 20.778 11.6283 20.778C10.4238 20.778 9.44531 21.7117 9.42855 22.8696V22.8711C9.42855 26.04 13.4428 27.1009 13.4428 27.1009C13.4428 27.1009 17.4713 26.0399 17.4713 22.871V22.8694C17.4713 21.7052 16.4928 20.7614 15.2856 20.7614C15.2555 20.7614 15.2255 20.762 15.1956 20.7632L15.1999 20.7631L15.2 20.7631ZM23.9999 31H2.75715V16.8226H4.90001V28.9334H21.857V12.5929H3.82856V10.5262H24L23.9999 31ZM18.8285 17.9111H3.82856C1.74478 17.9066 0.0543036 16.2888 0.0285643 14.2843V14.282C0.027246 14.2463 0.0264926 14.2044 0.0264926 14.1623C0.0264926 13.1544 0.459603 12.2441 1.15607 11.5949L1.15714 11.594C1.83879 10.9343 2.78173 10.5262 3.82348 10.5262H16.0999V12.5929H3.82856C3.38142 12.5938 2.97722 12.7701 2.68583 13.0542L2.65997 13.0792C2.36167 13.3535 2.17616 13.7398 2.17616 14.1678C2.17616 14.1866 2.17648 14.2054 2.17723 14.2241L2.17717 14.2213V14.2599C2.18759 15.1338 2.92179 15.839 3.82806 15.8444H18.8285L18.8285 17.9111ZM3.82856 17.9111C1.71411 17.9111 0 16.258 0 14.2186C0 12.1793 1.71411 10.5262 3.82856 10.5262V12.5929H3.828C2.91278 12.5929 2.17086 13.3084 2.17086 14.1911C2.17086 14.2056 2.17101 14.2202 2.17142 14.2346V14.2325V14.26C2.18188 15.1358 2.91927 15.8422 3.82831 15.8445H3.82853L3.82856 17.9111ZM18.8285 17.9111C16.7338 17.9111 15.0357 16.2734 15.0357 14.2531C15.0357 12.2328 16.7338 10.5951 18.8285 10.5951V12.6618C17.9173 12.6618 17.1785 13.3742 17.1785 14.2531C17.1785 15.132 17.9172 15.8444 18.8285 15.8444V17.9111ZM4.12855 0H22.6285V12.5929H4.12855V0ZM20.4856 2.06668H6.27141V10.5262H20.4856V2.06668ZM21.5571 7.32977H5.19996V5.2631H21.5571V7.32977ZM14.4428 11.5596H12.2999V1.03329H14.4428V11.5596Z" fill="#233038" fill-opacity="0.8"/>
<path d="M2.79557 17.8149V30.9616H23.9615L23.9616 10.5647H22.6669V12.5929V12.6313H22.6285H21.8955V28.9334V28.9718H21.857H4.90001H4.86158V28.9334V17.9495H3.86699H3.82856L2.79557 17.8149ZM2.79557 17.8149C3.12442 17.9026 3.47081 17.9495 3.82848 17.9495L2.79557 17.8149ZM15.2013 20.8015L15.2013 20.8014C15.2293 20.8004 15.2574 20.7999 15.2856 20.7999C16.4729 20.7999 17.4329 21.7277 17.4329 22.8694V22.871C17.4329 24.4367 16.4382 25.484 15.436 26.1422C14.9352 26.471 14.4342 26.7015 14.0581 26.8498C13.8702 26.924 13.7136 26.9775 13.6042 27.0125C13.5495 27.03 13.5065 27.0428 13.4773 27.0513L13.4441 27.0607L13.4428 27.0611L13.4415 27.0607L13.4084 27.0513C13.3793 27.0428 13.3366 27.03 13.282 27.0125C13.173 26.9775 13.017 26.924 12.8297 26.8499C12.455 26.7016 11.9558 26.4711 11.4568 26.1422C10.4581 25.4841 9.46698 24.4369 9.46698 22.8711V22.8699C9.48356 21.7343 10.4436 20.8164 11.6283 20.8164C12.3658 20.8164 13.0168 21.1724 13.4116 21.7224L13.4439 21.7675L13.4748 21.7213L13.479 21.7149C13.4791 21.7148 13.4792 21.7146 13.4793 21.7145C13.8573 21.1823 14.4833 20.8261 15.2013 20.8015ZM3.79012 16.8611L3.79014 17.8724C3.44545 17.8683 3.11197 17.8197 2.79557 17.7322V16.8611H3.79012ZM3.79012 16.7842H2.75715H2.71872V16.8226V17.7101C1.19623 17.2549 0.0877877 15.8951 0.0669902 14.2841V14.282H0.0670164L0.0669641 14.2806C0.0656649 14.2454 0.0649185 14.204 0.0649185 14.1623C0.0649185 13.1657 0.493102 12.2654 1.18227 11.623L1.18295 11.6224L1.18297 11.6224L1.18386 11.6216C1.73558 11.0877 2.46039 10.7201 3.27042 10.6039C3.44024 10.5798 3.61374 10.5665 3.79014 10.5648V12.5548C2.87244 12.5743 2.13243 13.2981 2.13243 14.1911C2.13243 14.2057 2.13259 14.2204 2.133 14.2351L2.13299 14.26L2.133 14.2605C2.14357 15.1462 2.87885 15.8607 3.7901 15.8824L3.79012 16.7842ZM3.86697 16.7842L3.86696 15.8828H15.3887C15.9025 16.8903 16.8777 17.6389 18.0477 17.8727H4.93843V16.8226V16.7842H4.90001H3.86697ZM18.7901 17.8725C17.3402 17.8585 16.0882 17.0525 15.4753 15.8828H18.7901V17.8725ZM18.3147 15.806H15.4362C15.204 15.3353 15.0741 14.8087 15.0741 14.2531C15.0741 13.6702 15.2171 13.1193 15.4712 12.6313H18.6604C17.8079 12.7127 17.1401 13.4066 17.1401 14.2531C17.1401 14.9811 17.6341 15.5963 18.3147 15.806ZM18.7901 10.6337V12.5545H16.1383V11.7283C16.8119 11.0613 17.7501 10.6438 18.7901 10.6337ZM18.5748 10.5647C17.6277 10.6244 16.774 11.0164 16.1383 11.6212V10.5647H18.5748ZM14.4812 10.5647H16.0615V11.6964C15.8092 11.9504 15.5942 12.2391 15.4248 12.5544H4.16698V10.5647H6.23298H6.27141H12.2615V11.5596V11.598H12.2999H14.4428H14.4812V11.5596V10.5647ZM20.4856 10.5647H20.5241H22.5901V12.5545H21.8955H21.857H18.8669V10.5951V10.5647H20.4856ZM22.5901 0.0384259V10.4878H20.5241V7.3682H21.5571H21.5955V7.32977V5.2631V5.22467H21.5571H20.5241V2.06668V2.02825H20.4856H14.4812V1.03329V0.994867H14.4428H12.2999H12.2615V1.03329V2.02825H6.27141H6.23298V2.06668V5.22467H5.19996H5.16154V5.2631V7.32977V7.3682H5.19996H6.23298V10.4878H4.16698V0.0384259H22.5901ZM21.5186 7.29135H20.5241V5.30152H21.5186V7.29135ZM14.4044 1.07172V2.02825H12.3384V1.07172H14.4044ZM5.23839 5.30152H6.23298V7.29135H5.23839V5.30152ZM12.3384 11.5212V10.5647H14.4044V11.5212H12.3384ZM14.4044 10.4878H12.3384V7.3682H14.4044V10.4878ZM20.4472 7.29135H14.4812V5.30152H20.4472V7.29135ZM14.4044 2.1051V5.22467H12.3384V2.1051H14.4044ZM14.4044 7.29135H12.3384V5.30152H14.4044V7.29135ZM6.30983 5.30152H12.2615V7.29135H6.30983V5.30152ZM16.0615 11.8066V12.5544H15.5124C15.6625 12.2827 15.8474 12.0316 16.0615 11.8066ZM4.09012 12.5544H3.86699V10.5647H4.09012V12.5544ZM3.86697 16.8611H4.86158V17.8727H3.86699L3.86697 16.8611Z" stroke="#233038" stroke-opacity="0.8" stroke-width="0.0768518"/>
</svg>
