<svg width="33" height="29" viewBox="0 0 33 29" fill="none" xmlns="http://www.w3.org/2000/svg">
<path d="M0 8.11015H23.4155V18.6575C23.4082 24.3669 18.2222 28.9934 11.8233 29H11.593C5.1933 28.9935 0.00736467 24.3668 0 18.6581V8.11015ZM20.546 10.6701H2.86959V18.6575C2.8753 22.9536 6.7775 26.4349 11.5924 26.44H11.8226C16.6381 26.4349 20.5402 22.9535 20.5459 18.6579L20.546 10.6701ZM26.7729 9.7486C30.22 9.78173 33 12.2824 33 15.3624C33 15.3778 32.9999 15.3932 32.9998 15.4086V15.4062C32.9999 15.4193 33 15.4346 33 15.4501C33 18.5301 30.22 21.0308 26.7764 21.0639H26.7729C23.3258 21.0308 20.5458 18.5301 20.5458 15.4501C20.5458 15.4347 20.5459 15.4193 20.546 15.404V15.4063C20.5459 15.3933 20.5458 15.3779 20.5458 15.3625C20.5458 12.2825 23.3259 9.78179 26.7694 9.74863L26.7729 9.7486ZM26.7729 18.5039C28.6348 18.4725 30.1307 17.1185 30.1307 15.4529C30.1307 15.4364 30.1305 15.4201 30.1302 15.4038V15.4062C30.1305 15.3924 30.1307 15.376 30.1307 15.3596C30.1307 13.694 28.6348 12.34 26.7762 12.3086L26.7729 12.3086C24.911 12.34 23.4152 13.694 23.4152 15.3596C23.4152 15.376 23.4153 15.3923 23.4156 15.4086V15.4062C23.4153 15.4201 23.4152 15.4364 23.4152 15.4528C23.4152 17.1184 24.911 18.4724 26.7696 18.5038L26.7729 18.5039ZM23.3438 29H0.0573937V26.44H23.3437L23.3438 29ZM4.45214 7.78249C3.67799 7.04417 3.20259 6.04908 3.20259 4.9549C3.20259 4.46552 3.29766 3.99603 3.47225 3.56021L3.4621 3.58915C3.57853 3.37774 3.64663 3.129 3.64663 2.86608C3.64663 2.40077 3.43337 1.97988 3.08929 1.67699L5.26136 0.00252053C6.03548 0.740832 6.51088 1.73595 6.51088 2.83014C6.51088 3.31951 6.41581 3.78901 6.24121 4.22483L6.25131 4.19588C6.13576 4.40664 6.06814 4.6545 6.06814 4.91641C6.06814 5.38302 6.28261 5.80493 6.62837 6.10802L4.45214 7.78249ZM11.296 7.78249C10.5218 7.04417 10.0464 6.04908 10.0464 4.9549C10.0464 4.46552 10.1415 3.99603 10.3161 3.56021L10.3059 3.58915C10.4215 3.37845 10.4891 3.13056 10.4891 2.86868C10.4891 2.40205 10.2747 1.98013 9.92892 1.67705L12.1052 0.00252053C12.8793 0.740832 13.3547 1.73595 13.3547 2.83014C13.3547 3.31951 13.2597 3.78901 13.0851 4.22483L13.0952 4.19588C12.9788 4.40732 12.9107 4.65609 12.9107 4.91899C12.9107 5.38429 13.1239 5.80519 13.468 6.10807L11.296 7.78249ZM18.2259 7.79656C17.4172 7.05352 16.9185 6.03843 16.9185 4.91936C16.9185 4.44131 17.0095 3.98215 17.1769 3.55505L17.1671 3.58402C17.2792 3.37601 17.3447 3.13175 17.3447 2.87389C17.3447 2.40595 17.129 1.98293 16.7815 1.67968L18.9462 0C19.7266 0.739727 20.2062 1.73887 20.2062 2.83804C20.2062 3.31682 20.1151 3.77663 19.9478 4.20449L19.9576 4.17538C19.7338 5.01635 19.6405 5.36455 20.3694 6.09542L18.2259 7.79656Z" fill="#233038" fill-opacity="0.8"/>
<path d="M26.7697 9.78677L26.7698 9.78676L26.7725 9.78674C26.7726 9.78674 26.7728 9.78674 26.7729 9.78674C30.2031 9.81989 32.9619 12.3074 32.9619 15.3624L32.9616 15.4062L32.9616 15.4067V15.4082L32.9616 15.4086L32.9619 15.4501C32.9619 18.5052 30.203 20.9927 26.7763 21.0258C26.7762 21.0258 26.7761 21.0258 26.7761 21.0258H26.7733C26.7732 21.0258 26.7732 21.0258 26.7731 21.0258C25.5028 21.0135 24.3246 20.6647 23.3445 20.0751L23.4537 10.6289C24.4129 10.0818 25.5495 9.76037 26.7694 9.74863L26.7697 9.78677ZM26.7697 9.78677C25.5479 9.79854 24.4109 10.1224 23.4537 10.6727M26.7697 9.78677L23.4537 10.6727M23.4537 10.6727C23.4409 10.68 23.4282 10.6874 23.4155 10.6948L23.4537 10.6727ZM23.4537 10.6727V14.7094M23.4537 10.6727L23.4155 14.8968C23.4261 14.8337 23.4389 14.7712 23.4537 14.7094M23.4537 14.7094C23.7838 13.3316 25.1417 12.298 26.7723 12.2704L26.7735 12.2704L26.7769 12.2705C28.6521 12.3022 30.1688 13.6692 30.1688 15.3596C30.1688 15.3755 30.1687 15.3914 30.1684 15.4053M0.0381406 18.658L0.0381406 8.14829H23.3774V10.629C21.9114 11.4851 20.8665 12.8696 20.5841 14.4813L20.5841 10.6701V10.632H20.546H2.86959H2.83145V10.6701V18.6575L2.83145 18.6575C2.8367 22.6091 6.11825 25.8693 10.3746 26.4019H3.97868C1.56563 24.513 0.0421206 21.7432 0.0381406 18.658ZM20.5841 15.3272C20.5974 13.405 21.7029 11.7111 23.3774 10.7173V15.3153C23.3772 15.3301 23.3771 15.3448 23.3771 15.3596C23.3771 15.3742 23.3772 15.3887 23.3774 15.4032V15.4103C23.3772 15.4234 23.3771 15.4381 23.3771 15.4528C23.3771 15.4675 23.3772 15.4823 23.3774 15.497V18.6574C23.3768 19.1235 23.3415 19.5823 23.2738 20.032C21.657 19.0304 20.5971 17.3672 20.5841 15.4852V15.425L20.5842 15.4063L20.5842 15.4058V15.4044L20.5842 15.404L20.5841 15.3864V15.3272ZM20.5841 18.6579L20.5841 16.3311C20.8589 17.8997 21.8559 19.253 23.2611 20.1135C22.8626 22.6077 21.4634 24.8155 19.4369 26.4019H13.0405C17.2973 25.8693 20.5788 22.6091 20.5841 18.658V18.6579Z" stroke="#233038" stroke-opacity="0.8" stroke-width="0.0762813"/>
</svg>
