<svg width="30" height="31" viewBox="0 0 30 31" fill="none" xmlns="http://www.w3.org/2000/svg">
<path d="M6.28696 3.02568e-05H23.713C27.1837 0.00387498 29.9963 2.91012 30 6.49616V31H0V23.1556H17.4261V10.4187H0V6.49653C0.0037207 2.91013 2.81625 0.003875 6.28658 0H6.28693L6.28696 3.02568e-05ZM27.3913 28.3044V6.49656C27.3891 4.39831 25.7436 2.698 23.7133 2.69573H6.28696C4.2564 2.698 2.61094 4.39831 2.60874 6.49635V7.72312H20.0348V25.8513H2.60871V28.3044H27.3913ZM2.45215 14.1522H15V20.0557C14.9963 23.2624 12.4816 25.861 9.3786 25.8648H8.07393C4.97057 25.8609 2.45584 23.2624 2.45215 20.056V20.0556V14.1522ZM12.3913 16.8479H5.06089V20.0557C5.06312 21.7743 6.41077 23.1669 8.07372 23.1692H9.37831C11.0414 23.1669 12.3891 21.7743 12.3913 20.0559V20.0557V16.8479ZM10.0826 11.6452H7.47393V9.07089H10.0826V11.6452ZM24.9652 25.8513H22.4739V23.1557H24.9652V25.8513ZM24.9652 20.7026H22.4739V18.007H24.9652V20.7026ZM24.9652 15.5674H22.4739V12.8718H24.9652V15.5674Z" fill="#233038" fill-opacity="0.8"/>
<path d="M29.9473 30.9473L29.9473 6.49622L29.9473 6.49616M29.9473 30.9473L23.713 3.02568e-05C27.1837 0.00387498 29.9963 2.91012 30 6.49616H29.9473M29.9473 30.9473H0.0526781V23.2083H3.29224C4.10504 24.5202 5.40929 25.4762 6.93746 25.7987H2.60871H2.55603V25.8513V28.3044V28.3571H2.60871H27.3913H27.444V28.3044V6.49656L27.444 6.4965C27.4417 4.37084 25.7743 2.64536 23.7133 2.64305H23.7133H6.28696H6.2869C4.22568 2.64536 2.55829 4.37084 2.55606 6.49629V6.49635V7.72312V7.7758H2.60874H19.9821V25.7987H10.515C12.043 25.4762 13.3471 24.5202 14.1599 23.2083H17.4261H17.4788V23.1556V10.4187V10.366H17.4261H10.1353V9.07089V9.01821H10.0826H7.47393H7.42125V9.07089L29.9473 30.9473ZM29.9473 6.49616C29.9436 2.93758 27.153 0.056536 23.713 0.0527084L29.9473 6.49616ZM8.07399 25.8122H9.37854H8.07399ZM8.07399 25.8122L8.07393 25.8122C8.07395 25.8122 8.07397 25.8122 8.07399 25.8122ZM14.9473 20.0556C14.946 21.1751 14.6361 22.2195 14.101 23.103H10.2101C11.4988 22.7273 12.4421 21.5046 12.444 20.056V20.0559V20.0557V16.8479V16.7952H12.3913H5.06089H5.00821V16.8479V20.0557V20.0558C5.01009 21.5045 5.95336 22.7273 7.242 23.103H3.35115C2.816 22.2195 2.50612 21.1753 2.50483 20.0559V20.0556V14.2048H14.9473V20.0556ZM7.69617 25.7987C5.90601 25.6725 4.34711 24.6729 3.41652 23.2083H7.79222C7.88489 23.2171 7.97876 23.2217 8.07365 23.2218H8.07372H9.37831L9.37838 23.2218C9.47326 23.2217 9.56713 23.2171 9.65979 23.2083H14.0356C13.105 24.673 11.5463 25.6725 9.75636 25.7987H7.69617ZM24.9125 25.7987H22.5266V23.2084H24.9125V25.7987ZM24.9125 20.65H22.5266V18.0597H24.9125V20.65ZM24.9125 15.5147H22.5266V12.9244H24.9125V15.5147Z" stroke="#233038" stroke-opacity="0.8" stroke-width="0.105356"/>
</svg>
