<svg width="40" height="40" viewBox="0 0 40 40" fill="none" xmlns="http://www.w3.org/2000/svg">
<g clip-path="url(#clip0_1358_130286)">
<path d="M21.1577 38.8656V5.78135C21.1577 4.25582 21.2164 2.71857 21.1577 1.19695C21.1577 1.17348 21.1577 1.15393 21.1577 1.13046C21.1577 -0.37942 18.8107 -0.383331 18.8107 1.13046V34.2108C18.8107 35.7364 18.7521 37.2736 18.8107 38.7952C18.8107 38.8187 18.8107 38.8383 18.8107 38.8617C18.8107 40.3716 21.1577 40.3755 21.1577 38.8617V38.8656Z" fill="#535D64"/>
<path d="M23.6259 2.3354C22.1043 3.85702 20.5827 5.37863 19.0611 6.90024H20.7196C19.2684 5.44904 17.8172 3.99783 16.366 2.54663C15.2981 1.47876 13.6357 3.13728 14.7075 4.20515C16.1587 5.65635 17.6099 7.10755 19.0611 8.55876C19.5109 9.00859 20.2698 9.00859 20.7196 8.55876C22.2412 7.03714 23.7628 5.51553 25.2844 3.99392C26.3523 2.92606 24.6938 1.26363 23.6259 2.3354Z" fill="#535D64"/>
<path d="M25.2887 36.2333C23.7671 34.7117 22.2455 33.19 20.7239 31.6684C20.274 31.2186 19.5152 31.2186 19.0654 31.6684C17.6141 33.1196 16.1629 34.5708 14.7117 36.022C13.6439 37.0899 15.3024 38.7523 16.3703 37.6806C17.8215 36.2294 19.2727 34.7781 20.7239 33.3269H19.0654C20.587 34.8486 22.1086 36.3702 23.6302 37.8918C24.6981 38.9597 26.3605 37.3011 25.2887 36.2333Z" fill="#535D64"/>
<path d="M1.13436 21.1577H4.88559C7.88969 21.1577 10.8899 21.1577 13.894 21.1577H24.7917C27.9327 21.1577 31.0737 21.1577 34.2147 21.1577C35.7403 21.1577 37.2775 21.2164 38.7991 21.1577C38.8226 21.1577 38.8422 21.1577 38.8656 21.1577C40.3755 21.1577 40.3794 18.8107 38.8656 18.8107H35.1144C32.1103 18.8107 29.1101 18.8107 26.106 18.8107H15.2083C12.0673 18.8107 8.92627 18.8107 5.78525 18.8107C4.25973 18.8107 2.72247 18.7521 1.20086 18.8107C1.17739 18.8107 1.15783 18.8107 1.13436 18.8107C-0.375514 18.8107 -0.379425 21.1577 1.13436 21.1577Z" fill="#535D64"/>
<path d="M7.73726 9.38002C10.315 11.9578 12.8927 14.5355 15.4705 17.1133C19.5777 21.2204 23.6809 25.3237 27.7881 29.4309L30.6045 32.2472C31.6723 33.3151 33.3348 31.6566 32.263 30.5887C29.6852 28.011 27.1075 25.4332 24.5297 22.8555C20.4226 18.7483 16.3193 14.645 12.2121 10.5379L9.39578 7.72151C8.32791 6.65364 6.66548 8.31216 7.73726 9.38002Z" fill="#535D64"/>
<path d="M9.39565 32.2474L17.1289 24.5141C21.2361 20.4069 25.3393 16.3037 29.4465 12.1965L32.2628 9.38015C33.3307 8.31229 31.6722 6.64986 30.6043 7.72163L22.8711 15.4549C18.7639 19.562 14.6607 23.6653 10.5535 27.7725L7.73713 30.5888C6.66927 31.6567 8.32778 33.3191 9.39565 32.2474Z" fill="#535D64"/>
<path d="M37.6647 23.6259C36.1431 22.1043 34.6215 20.5827 33.0999 19.0611V20.7196C34.5511 19.2684 36.0023 17.8172 37.4535 16.366C38.5214 15.2981 36.8629 13.6357 35.795 14.7075C34.3438 16.1587 32.8926 17.6099 31.4414 19.0611C30.9915 19.5109 30.9915 20.2698 31.4414 20.7196C32.963 22.2412 34.4846 23.7628 36.0062 25.2844C37.0741 26.3523 38.7365 24.6938 37.6647 23.6259Z" fill="#535D64"/>
<path d="M3.76284 25.2887C5.28445 23.7671 6.80606 22.2455 8.32767 20.7239C8.77751 20.274 8.77751 19.5152 8.32767 19.0654C6.87647 17.6141 5.42527 16.1629 3.97406 14.7117C2.9062 13.6439 1.24377 15.3024 2.31555 16.3703C3.76675 17.8215 5.21795 19.2727 6.66915 20.7239V19.0654C5.14754 20.587 3.62593 22.1086 2.10432 23.6302C1.03645 24.6981 2.69497 26.3605 3.76284 25.2887Z" fill="#535D64"/>
</g>
<defs>
<clipPath id="clip0_1358_130286">
<rect width="40" height="40" fill="white"/>
</clipPath>
</defs>
</svg>
