<svg width="40" height="39" viewBox="0 0 40 39" fill="none" xmlns="http://www.w3.org/2000/svg">
<path d="M1.99334 21.5107H37.6827V39H1.99334V21.5107ZM35.0827 24.1107H4.59335V36.4H35.0827V24.1107ZM39.6933 24.1107H0V21.5107H39.6933L39.6933 24.1107ZM12.8786 37.7H10.2786V22.8107H12.8787L12.8786 37.7ZM21.1466 37.7H18.5467V22.8107H21.1467L21.1466 37.7ZM29.4146 37.7H26.8146V22.8107H29.4146V37.7ZM31.0786 19.5H28.4786V11.232C28.4786 6.46467 24.6139 2.60001 19.8466 2.60001C15.0793 2.60001 11.2147 6.46471 11.2147 11.232V19.5H8.61466V11.232C8.61466 5.02875 13.6434 0 19.8467 0C26.0499 0 31.0787 5.02875 31.0787 11.232L31.0786 19.5ZM31.0786 14.1786H9.91464V11.5787H31.0787L31.0786 14.1786ZM21.1466 19.5H18.5467V1.29999H21.1467L21.1466 19.5Z" fill="#233038" fill-opacity="0.8"/>
</svg>
