<svg width="42" height="41" viewBox="0 0 42 41" fill="none" xmlns="http://www.w3.org/2000/svg">
<g clip-path="url(#clip0_1358_130243)">
<path d="M1.98178e-05 26.1336C0.0198817 30.5003 1.99018 34.773 5.42629 37.5575C9.04911 40.4948 13.8438 41.654 18.4358 40.6475C21.2403 40.0326 23.8264 38.5797 25.8483 36.5745C26.3012 36.1241 26.3051 35.3644 25.8483 34.914C23.6317 32.7287 21.4151 30.5434 19.1985 28.3581C15.6671 24.8765 12.1396 21.3988 8.60817 17.9172C7.80178 17.1221 6.99539 16.3271 6.19296 15.536C5.73614 15.0856 4.9655 15.0856 4.50867 15.536C1.64061 18.3401 0.0238541 22.1507 1.98178e-05 26.1336C-0.00792495 27.6453 2.3755 27.6492 2.38345 26.1336C2.40331 22.7616 3.76584 19.5738 6.18899 17.1965H4.5047C6.72129 19.3819 8.93788 21.5672 11.1545 23.7525C14.6859 27.2341 18.2134 30.7118 21.7448 34.1934C22.5512 34.9884 23.3576 35.7834 24.16 36.5745V34.914C22.6227 36.4374 20.7359 37.5732 18.6345 38.1724C16.5331 38.7716 14.3642 38.8107 12.4256 38.3917C8.78296 37.6045 5.70833 35.333 3.92076 32.1256C2.9078 30.3006 2.38742 28.2327 2.37948 26.1375C2.3755 24.6219 -0.00792495 24.618 1.98178e-05 26.1336Z" fill="#535D64"/>
<path d="M8.29059 32.58C9.43861 33.516 10.6224 34.3424 12.0127 34.8907C13.403 35.4389 14.9165 35.5604 16.3823 35.4037C16.9981 35.3371 17.6058 34.9102 17.574 34.2288C17.5462 33.6492 17.0457 32.9834 16.3823 33.0539C15.7189 33.1244 15.0238 33.1087 14.3366 33.0735C14.1419 33.0617 14.5034 33.1048 14.3167 33.0735C14.2253 33.0578 14.134 33.0461 14.0426 33.0265C13.8996 32.9991 13.7566 32.9677 13.6136 32.9325C13.3196 32.8581 13.0296 32.768 12.7476 32.6623C12.7277 32.6544 12.5251 32.5722 12.6443 32.6231C12.7635 32.674 12.5649 32.5879 12.545 32.5761C12.4179 32.5174 12.2908 32.4547 12.1637 32.392C11.8935 32.2511 11.6314 32.0983 11.3732 31.9378C11.115 31.7772 10.8806 31.6127 10.6462 31.4404C10.6264 31.4247 10.396 31.2524 10.4953 31.3307C10.5787 31.3934 10.4039 31.2602 10.388 31.2485C10.249 31.1388 10.1139 31.0292 9.97885 30.9195C9.49819 30.5279 8.75536 30.4221 8.29456 30.9195C7.89335 31.3503 7.78212 32.161 8.29456 32.58H8.29059Z" fill="#535D64"/>
<path d="M20.009 19.4483C18.3287 21.1049 16.6444 22.7654 14.9641 24.422C14.7257 24.657 14.4834 24.8959 14.2451 25.1309C13.8041 25.5656 13.7724 26.3645 14.2451 26.7914C14.7178 27.2183 15.4606 27.2574 15.9294 26.7914C17.6097 25.1348 19.294 23.4743 20.9743 21.8177C21.2126 21.5827 21.4549 21.3438 21.6933 21.1088C22.1342 20.6741 22.166 19.8752 21.6933 19.4483C21.2206 19.0214 20.4777 18.9822 20.009 19.4483Z" fill="#535D64"/>
<path d="M24.1757 21.771C25.0695 20.8428 24.7239 19.4564 24.0644 18.5009C23.6632 17.9173 23.1826 17.4435 22.6145 17.0205C22.1855 16.7033 21.6731 16.433 21.1447 16.3234C20.5052 16.1902 19.8418 16.2294 19.3055 16.6367C18.809 17.0166 18.5309 17.6236 18.5706 18.2463C18.6104 18.869 18.813 19.4016 19.1268 19.9029C19.4406 20.4042 19.8537 20.8898 20.3264 21.2658C20.8548 21.6887 21.4506 22.0804 22.1259 22.2292C22.8568 22.3898 23.6116 22.2958 24.1717 21.771C24.6246 21.348 24.6365 20.5334 24.1717 20.1105C23.7069 19.6875 22.9681 19.6562 22.4874 20.1105C22.4676 20.1301 22.4437 20.1496 22.4199 20.1692L22.6622 19.9851C22.6225 20.0126 22.5788 20.0361 22.5311 20.0596L22.8171 19.9421C22.7456 19.9695 22.6781 19.9891 22.6026 19.9969L22.9204 19.9538C22.8131 19.9656 22.7059 19.9616 22.5986 19.9538L22.9164 19.9969C22.7337 19.9695 22.5589 19.9186 22.3881 19.852L22.6741 19.9695C22.3722 19.8442 22.0981 19.6758 21.8399 19.4799L22.0822 19.664C21.7764 19.429 21.5062 19.1588 21.2639 18.8572L21.4506 19.0961C21.252 18.8416 21.0812 18.5674 20.9541 18.2737L21.0732 18.5557C21.0057 18.3873 20.9501 18.215 20.9263 18.0348L20.97 18.3481C20.958 18.2424 20.9541 18.1366 20.97 18.0309L20.9263 18.3442C20.9382 18.2698 20.9541 18.2032 20.9819 18.1327L20.8627 18.4147C20.8826 18.3677 20.9064 18.3285 20.9382 18.2855L20.7515 18.5244C20.7872 18.4774 20.8309 18.4382 20.8786 18.399L20.6363 18.5831C20.676 18.5557 20.7197 18.5322 20.7674 18.5087L20.4814 18.6262C20.5529 18.5988 20.6204 18.5792 20.6959 18.5714L20.3781 18.6144C20.4853 18.6027 20.5926 18.6066 20.6998 18.6144L20.3821 18.5714C20.5648 18.5988 20.7396 18.6497 20.9104 18.7163L20.6244 18.5988C20.9263 18.7241 21.2004 18.8925 21.4586 19.0883L21.2162 18.9042C21.5221 19.1392 21.7922 19.4094 22.0346 19.711L21.8479 19.4721C22.0465 19.7267 22.2173 20.0008 22.3444 20.2945L22.2252 20.0126C22.2928 20.181 22.3484 20.3533 22.3722 20.5334L22.3285 20.2201C22.3404 20.3259 22.3444 20.4316 22.3285 20.5373L22.3722 20.224C22.3603 20.2985 22.3444 20.365 22.3166 20.4355L22.4358 20.1535C22.4159 20.2005 22.3921 20.2397 22.3603 20.2828L22.547 20.0439C22.5271 20.0674 22.5112 20.087 22.4874 20.1105C22.0584 20.5569 22.0068 21.3363 22.4874 21.771C22.9681 22.2057 23.7149 22.2449 24.1717 21.771H24.1757Z" fill="#535D64"/>
<path d="M28.4503 12.5712C26.325 10.4917 23.5126 8.55699 20.426 8.36117C19.8024 8.32201 19.2065 8.92904 19.2343 9.53607C19.2661 10.2058 19.7587 10.6679 20.426 10.711C20.4936 10.7149 20.5611 10.7227 20.6326 10.7266C20.6684 10.7266 20.863 10.7501 20.6843 10.7266C20.4896 10.7031 20.7399 10.7384 20.7836 10.7423C20.8432 10.754 20.8988 10.7619 20.9583 10.7736C21.2324 10.8285 21.5026 10.899 21.7687 10.9851C21.9077 11.0282 22.0508 11.0791 22.1858 11.13C22.2454 11.1535 22.6426 11.318 22.4242 11.2201C22.734 11.3611 23.0439 11.506 23.3458 11.6666C23.9654 11.9994 24.5573 12.3793 25.1214 12.7945C25.1413 12.8062 25.3041 12.9315 25.2485 12.8884C25.177 12.8336 25.3995 13.0099 25.4233 13.0255C25.5703 13.143 25.7173 13.2644 25.8603 13.3897C26.1741 13.66 26.476 13.938 26.7699 14.2278C27.2149 14.6625 28.0173 14.6978 28.4542 14.2278C28.8912 13.7579 28.9269 13.0294 28.4542 12.5673L28.4503 12.5712Z" fill="#535D64"/>
<path d="M32.7166 20.3804C32.4584 17.3727 30.5516 14.6587 28.4542 12.5752C28.0133 12.1365 27.2029 12.1091 26.7699 12.5752C26.3369 13.0412 26.3012 13.7696 26.7699 14.2357C27.8504 15.3088 28.5932 16.2252 29.3361 17.5489C29.491 17.827 29.634 18.1089 29.7691 18.3948C29.777 18.4144 29.8684 18.6141 29.8128 18.4849C29.7492 18.34 29.8565 18.5946 29.8684 18.622C29.92 18.7551 29.9717 18.8922 30.0193 19.0293C30.1067 19.2877 30.1862 19.5541 30.2458 19.8204C30.2736 19.9457 30.2974 20.0749 30.3212 20.2003C30.353 20.3687 30.3411 20.1768 30.3133 20.1337C30.3371 20.1728 30.3332 20.3295 30.3371 20.3765C30.3888 20.9874 30.8496 21.5827 31.5288 21.5514C32.1287 21.524 32.7762 21.0305 32.7206 20.3765L32.7166 20.3804Z" fill="#535D64"/>
<path d="M41.9998 23.2393C41.98 20.6272 41.0425 18.0815 39.8389 15.7866C38.3214 12.8924 36.2438 10.2763 33.916 7.96959C32.8316 6.89652 31.1473 8.55704 32.2317 9.63011C34.3887 11.7684 36.2875 14.1613 37.7136 16.8362C38.3015 17.9406 38.7504 18.9666 39.1119 20.1729C39.4734 21.3791 39.6124 22.1232 39.6204 23.2393C39.6323 24.751 42.0157 24.755 42.0038 23.2393H41.9998Z" fill="#535D64"/>
<path d="M33.9122 7.96976C31.5764 5.67871 28.9229 3.62656 25.9873 2.13052C23.6595 0.947794 21.0774 0.0196255 18.4279 4.39121e-05C16.8945 -0.0117051 16.8906 2.33809 18.4279 2.34984C19.564 2.35767 20.3584 2.50649 21.5382 2.85113C22.718 3.19576 23.7985 3.65006 24.9187 4.22967C27.6319 5.63563 30.059 7.50372 32.2279 9.63029C33.3163 10.6994 35.0006 9.03892 33.9122 7.96976Z" fill="#535D64"/>
</g>
<defs>
<clipPath id="clip0_1358_130243">
<rect width="42" height="41" fill="white"/>
</clipPath>
</defs>
</svg>
