<svg width="58" height="38" viewBox="0 0 58 38" fill="none" xmlns="http://www.w3.org/2000/svg">
<g clip-path="url(#clip0_1358_130219)">
<path d="M42.3917 34.4687V18.0251C42.3917 16.6022 40.1226 16.5985 40.1226 18.0251V34.4687C40.1226 35.8916 42.3917 35.8953 42.3917 34.4687Z" fill="#535D64"/>
<path d="M25.3654 36.8317V31.6379C25.3654 31.0592 24.8435 30.5063 24.2308 30.5321C23.6181 30.5579 23.0962 31.0187 23.0962 31.6379V36.8317C23.0962 37.4104 23.6181 37.9633 24.2308 37.9375C24.8435 37.9117 25.3654 37.4509 25.3654 36.8317Z" fill="#535D64"/>
<path d="M7.65821 36.7207C8.92517 33.5507 10.1959 30.3769 11.4629 27.2069C11.6444 26.7535 11.8259 26.3001 12.0075 25.8467C12.2306 25.2901 11.7616 24.634 11.2132 24.4866C10.5703 24.3133 10.0408 24.7004 9.81771 25.2606C8.55075 28.4307 7.28002 31.6044 6.01307 34.7745C5.83153 35.2279 5.65 35.6812 5.46846 36.1346C5.24533 36.6912 5.71429 37.3474 6.26267 37.4948C6.90561 37.6681 7.43508 37.281 7.65821 36.7207Z" fill="#535D64"/>
<path d="M29.9454 30.3514V23.967C29.9454 23.3883 29.4235 22.8354 28.8109 22.8612C28.1982 22.887 27.6763 23.3478 27.6763 23.967V30.3514C27.6763 30.9301 28.1982 31.483 28.8109 31.4572C29.4235 31.4314 29.9454 30.9706 29.9454 30.3514Z" fill="#535D64"/>
<path d="M12.155 25.0398C13.3879 23.617 14.6208 22.1941 15.8537 20.7713C16.0277 20.5686 16.2054 20.3658 16.3794 20.1631C16.7614 19.7208 16.8559 19.0278 16.3794 18.6002C15.9596 18.2242 15.1843 18.1284 14.7759 18.6002C13.5429 20.023 12.31 21.4459 11.0771 22.8687C10.9031 23.0714 10.7254 23.2742 10.5514 23.4769C10.1694 23.9192 10.0749 24.6122 10.5514 25.0398C10.9712 25.4158 11.7465 25.5116 12.155 25.0398Z" fill="#535D64"/>
<path d="M6.5391 17.424C8.01028 16.2371 9.48524 15.0465 10.9564 13.8596C11.1644 13.69 11.3762 13.5204 11.5842 13.3546C12.0418 12.986 12.0078 12.1677 11.5842 11.7917C11.0963 11.3567 10.4685 11.3973 9.98067 11.7917C8.5095 12.9786 7.03453 14.1692 5.56336 15.3561C5.35535 15.5257 5.14356 15.6952 4.93555 15.8611C4.47794 16.2297 4.51197 17.048 4.93555 17.424C5.42342 17.859 6.05123 17.8184 6.5391 17.424Z" fill="#535D64"/>
<path d="M20.8195 28.8437C21.4851 27.1001 22.147 25.3566 22.8126 23.6131C22.9071 23.3624 23.0055 23.1118 23.1 22.8611C23.308 22.3193 22.8693 21.6263 22.3058 21.5009C21.6629 21.3572 21.1334 21.6926 20.9103 22.275C20.2446 24.0186 19.5828 25.7621 18.9172 27.5056C18.8226 27.7563 18.7243 28.0069 18.6297 28.2576C18.4217 28.7994 18.8604 29.4924 19.424 29.6177C20.0669 29.7615 20.5964 29.4261 20.8195 28.8437Z" fill="#535D64"/>
<path d="M2.83652 8.54065C4.41738 7.4938 6.00202 6.44326 7.58287 5.39641C7.80601 5.24897 8.02914 5.10152 8.25228 4.95408C8.74393 4.6297 9.00867 3.9662 8.66073 3.44278C8.34683 2.96727 7.63204 2.69819 7.11013 3.04468C5.52927 4.09153 3.94463 5.14207 2.36378 6.18892C2.14064 6.33637 1.91751 6.48381 1.69437 6.63125C1.20272 6.95563 0.937984 7.61913 1.28592 8.14255C1.59983 8.61806 2.31461 8.88715 2.83652 8.54065Z" fill="#535D64"/>
<path d="M44.3852 35.7256C44.4003 35.5229 44.4646 35.3828 44.5138 35.3164C44.5327 35.2943 44.6953 35.1874 44.5819 35.2353C44.5365 35.2538 44.302 35.3828 44.4192 35.3275C44.5478 35.2685 44.4041 35.3349 44.3814 35.3422C44.2982 35.368 44.2188 35.3975 44.1356 35.4233C43.5569 35.6003 42.9783 35.6887 42.4035 35.7366C41.023 35.8472 39.5972 35.8362 38.2811 35.486C38.1563 35.4528 38.0353 35.4196 37.9143 35.3754C37.8538 35.3533 37.7895 35.3312 37.729 35.3091C37.7403 35.3127 37.9029 35.3902 37.797 35.3312C37.7176 35.2869 37.6382 35.239 37.5588 35.1985C37.5852 35.2132 37.7479 35.3717 37.6382 35.2501C37.6533 35.2685 37.7819 35.4713 37.7138 35.3459C37.8349 35.5708 37.8349 35.7883 37.7517 36.0205C37.6987 36.1716 37.7101 36.1126 37.7403 36.0647C37.6193 36.2601 37.6117 36.238 37.6798 36.1642C37.5474 36.3043 37.5663 36.2564 37.7176 36.1606C37.7517 36.1384 37.7933 36.1237 37.8311 36.1053C37.6193 36.2158 37.8008 36.1126 37.8651 36.0942C39.1321 35.685 40.4255 35.6261 41.7643 35.6777C42.5169 35.7072 43.1863 35.7735 43.9162 35.9652C44.0562 36.002 44.1923 36.0463 44.3285 36.0905C44.3738 36.1053 44.4192 36.1237 44.4646 36.1421C44.3322 36.0868 44.3701 36.0979 44.4722 36.1569C44.5024 36.1753 44.5403 36.2011 44.5743 36.2158C44.7672 36.2859 44.476 36.1237 44.5327 36.1827C44.6159 36.2675 44.4419 36.0537 44.4495 36.0647C44.4911 36.1347 44.4873 36.12 44.4381 36.0205C44.389 35.9283 44.3663 35.8325 44.3701 35.7256C44.4117 36.3227 44.8617 36.8314 45.5047 36.8314C46.0871 36.8314 46.6808 36.3227 46.6392 35.7256C46.5144 33.9784 44.1583 33.6909 42.7703 33.5397C41.7567 33.4292 40.7243 33.4218 39.7069 33.5102C38.8522 33.584 37.9672 33.6946 37.1579 33.9931C36.4847 34.2438 35.7775 34.6308 35.5846 35.3644C35.3728 36.1642 35.9061 36.8572 36.5982 37.2185C37.2903 37.5797 38.1034 37.7382 38.8825 37.8451C39.9414 37.9889 41.0079 38.0331 42.0744 37.9667C43.5607 37.8783 46.4955 37.6719 46.6355 35.7219C46.6771 35.1248 46.0833 34.6161 45.5009 34.6161C44.8504 34.6161 44.4079 35.1248 44.3663 35.7219L44.3852 35.7256Z" fill="#535D64"/>
<path d="M55.7308 11.6073C55.7308 11.6552 55.7194 11.9206 55.7308 11.7142C55.7459 11.5225 55.727 11.7363 55.7118 11.7879C55.6929 11.8616 55.6702 11.9317 55.6513 12.0054C55.5795 12.2524 55.7118 11.9317 55.64 12.0459C55.5606 12.1713 55.4849 12.3076 55.4055 12.433C55.292 12.6173 55.4471 12.3961 55.4055 12.444C55.3374 12.5214 55.2694 12.5989 55.1975 12.6726C55.0727 12.8016 54.9441 12.9232 54.808 13.0375C54.7664 13.0744 54.5508 13.2402 54.6491 13.1702C54.7474 13.1002 54.4676 13.2955 54.426 13.3213C54.0478 13.5757 53.6469 13.7968 53.2347 13.9959C52.327 14.4382 51.321 14.7737 50.2091 15.0722C48.9421 15.4113 47.6487 15.6583 46.3515 15.8279C43.2692 16.2297 40.1113 16.2518 37.0139 15.9532C35.6562 15.8242 34.306 15.6104 32.9785 15.3081C32.3545 15.1681 31.7381 15.0022 31.1292 14.8142C30.8644 14.7331 30.6035 14.6446 30.3425 14.5525C30.2064 14.5046 30.074 14.4566 29.9416 14.405C29.8925 14.3866 29.5899 14.265 29.7185 14.3203C29.2495 14.1249 28.7919 13.9037 28.3532 13.6568C28.1679 13.5536 27.9864 13.4393 27.8124 13.325C27.7216 13.266 27.6346 13.2034 27.5477 13.1407C27.7254 13.266 27.5287 13.1223 27.4645 13.0707C27.3245 12.9564 27.1921 12.8348 27.0673 12.7094C27.0031 12.6431 26.9425 12.5767 26.882 12.5104C26.7118 12.3261 26.9577 12.6505 26.8291 12.444C26.7497 12.315 26.6778 12.1823 26.5946 12.057C26.5001 11.9059 26.6589 12.2892 26.5946 12.0459C26.5757 11.9722 26.5454 11.9022 26.5303 11.8285C26.5152 11.7695 26.4925 11.5336 26.5038 11.7252C26.519 11.9317 26.5038 11.6589 26.5038 11.6183C26.5038 11.5557 26.5152 11.4893 26.5114 11.4267C26.519 11.6478 26.4849 11.5631 26.5227 11.4082C26.5379 11.3456 26.5606 11.2829 26.5757 11.2239C26.587 11.1834 26.6097 11.1428 26.6211 11.1023C26.6211 11.1134 26.5076 11.2977 26.5757 11.2129C26.6702 11.0949 26.7421 10.9254 26.8215 10.7927C26.9577 10.5678 26.7156 10.8922 26.848 10.7521C26.9123 10.6858 26.969 10.6157 27.0295 10.5531C27.1619 10.413 27.3056 10.284 27.4531 10.1623C27.4985 10.1255 27.7443 9.94486 27.5363 10.0923C27.6119 10.037 27.6876 9.98541 27.7632 9.9338C27.9523 9.80479 28.1452 9.68683 28.3419 9.57625C30.2631 8.48148 32.6117 7.9175 34.9376 7.54152C37.9367 7.05496 41.0227 6.97755 44.0521 7.18397C46.7032 7.36459 49.3771 7.78849 51.8845 8.67684C52.7203 8.97173 53.6091 9.36246 54.4562 9.9338C54.5319 9.98541 54.6075 10.0407 54.6832 10.0923C54.5054 9.96329 54.7021 10.1107 54.7664 10.1623C54.9139 10.284 55.0576 10.4167 55.1899 10.5531C55.2542 10.6194 55.311 10.6895 55.3715 10.7521C55.5114 10.8996 55.2769 10.5936 55.3752 10.7632C55.4547 10.8996 55.5454 11.0876 55.6438 11.2129C55.6778 11.2534 55.5757 10.9954 55.6324 11.1944C55.6513 11.2682 55.6816 11.3382 55.6967 11.4119C55.7118 11.4746 55.7194 11.5373 55.7345 11.5999C55.6513 11.2903 55.7156 11.5078 55.7194 11.622C55.7421 13.0449 58.0113 13.0486 57.9886 11.622C57.9583 9.68315 56.2754 8.31192 54.6567 7.47149C52.2665 6.22927 49.5435 5.62106 46.8772 5.2672C43.4999 4.81381 40.0659 4.74746 36.6773 5.10501C33.7917 5.40727 30.8985 5.96019 28.2473 7.14342C26.6249 7.86959 24.6923 9.07863 24.3065 10.9217C23.8981 12.879 25.3125 14.4198 26.8934 15.4003C29.0529 16.7383 31.6813 17.3945 34.1774 17.8073C37.5396 18.3676 40.9811 18.504 44.3811 18.246C47.2932 18.0248 50.2696 17.5677 52.9926 16.5061C54.8647 15.7763 56.9712 14.7257 57.7541 12.7868C57.9054 12.4182 57.9772 12.0201 57.981 11.622C58.0037 10.1992 55.7345 10.1992 55.7118 11.622L55.7308 11.6073Z" fill="#535D64"/>
<path d="M48.9727 10.5387C46.0833 11.3165 42.7211 11.851 39.8771 11.4086C39.272 11.3165 38.6555 11.5597 38.4815 12.1827C38.334 12.7098 38.6668 13.447 39.2757 13.5429C42.706 14.0737 46.2572 13.5687 49.5778 12.673C50.9847 12.2933 50.3871 10.159 48.9727 10.5387Z" fill="#535D64"/>
<path d="M-8.4866e-05 5.51086C0.181449 9.6614 1.46731 13.8267 3.41123 17.5054C6.22501 22.8282 10.8125 27.1188 16.4817 29.4705C20.8082 31.2656 25.494 31.9807 30.1799 31.9881C31.6397 31.9881 31.6435 29.7801 30.1799 29.7764C26.1445 29.7691 22.2983 29.2715 18.4747 27.8855C18.2667 27.8118 18.0625 27.7343 17.8583 27.6533C17.7562 27.6127 17.6541 27.5722 17.5557 27.5316C17.2267 27.3989 17.7524 27.6164 17.4271 27.48C17.0376 27.3141 16.6481 27.1409 16.2661 26.9566C15.5286 26.6027 14.81 26.2157 14.1142 25.7955C13.475 25.4084 12.8548 24.9956 12.2534 24.5532C12.227 24.5348 11.9736 24.3395 12.1778 24.498C12.1022 24.439 12.0265 24.3837 11.9547 24.3247C11.8072 24.2104 11.6597 24.0925 11.516 23.9745C11.2285 23.7386 10.9487 23.499 10.6726 23.2521C10.1355 22.7692 9.6212 22.2679 9.13333 21.7408C8.91397 21.5048 8.6984 21.2652 8.49039 21.022C8.37694 20.8893 8.26726 20.7566 8.1538 20.6239C8.10464 20.5649 7.77939 20.1594 7.95336 20.3806C7.13646 19.3374 6.39898 18.2353 5.74848 17.0852C5.45349 16.5618 5.17362 16.0273 4.91267 15.4854C4.7803 15.209 4.65171 14.9325 4.52691 14.6561C4.49665 14.586 4.4664 14.5197 4.43614 14.4496C4.44749 14.4754 4.53447 14.6856 4.46262 14.5086C4.39832 14.3501 4.33025 14.1879 4.26217 14.0294C3.84994 13.0121 3.49822 11.9763 3.19945 10.922C2.90067 9.86782 2.67375 8.85046 2.50357 7.79624C2.48466 7.67091 2.46575 7.54927 2.44684 7.42394C2.43927 7.37234 2.43171 7.32073 2.42415 7.26912C2.39389 7.07745 2.46575 7.58982 2.42793 7.30967C2.40145 7.09956 2.37498 6.88946 2.35229 6.67935C2.31069 6.29231 2.28043 5.90527 2.2653 5.51454C2.23883 4.91739 1.7623 4.40871 1.13072 4.40871C0.540734 4.40503 -0.0265585 4.91371 -8.4866e-05 5.51086Z" fill="#535D64"/>
<path d="M7.53765 1.106C7.6738 4.67783 8.62307 8.24966 10.1056 11.5045C12.11 15.9131 15.4797 19.7724 19.9651 21.9177C23.1874 23.4585 26.7462 24.0999 30.3163 24.111C31.7762 24.111 31.78 21.903 30.3163 21.8993C29.4767 21.8993 28.6334 21.8624 27.7976 21.785C27.0147 21.7113 26.4852 21.6376 25.6608 21.4754C24.9649 21.339 24.2728 21.1658 23.592 20.963C23.2744 20.8672 22.9604 20.764 22.6503 20.6534C22.499 20.5981 22.344 20.5428 22.1927 20.4838C22.1246 20.458 22.0603 20.4322 21.9923 20.4064C21.7464 20.3069 22.0906 20.4507 21.8712 20.3548C20.6875 19.8498 19.5567 19.2306 18.5091 18.497C18.4032 18.4233 18.2973 18.3459 18.1914 18.2722C18.1952 18.2722 17.9418 18.0879 18.0742 18.1874C18.2065 18.2869 17.9569 18.0952 17.9607 18.0989C17.7224 17.9146 17.4917 17.7229 17.261 17.5239C16.8261 17.1479 16.4063 16.7535 16.0092 16.337C15.6121 15.9204 15.2339 15.4818 14.8633 15.0395C14.7309 14.881 14.8482 15.021 14.8709 15.0505C14.8255 14.9915 14.7801 14.9326 14.7347 14.8736C14.6515 14.7667 14.5721 14.6598 14.4927 14.5529C14.3187 14.317 14.1447 14.0737 13.9821 13.8304C13.377 12.9384 12.8399 11.9984 12.3672 11.0327C12.2575 10.8078 12.1516 10.5793 12.0457 10.3544C11.9928 10.2402 11.9436 10.1296 11.8945 10.0153C12.0117 10.2807 11.8491 9.90472 11.815 9.82731C11.6222 9.35918 11.4406 8.88367 11.2742 8.40816C10.9641 7.5235 10.7031 6.62409 10.4838 5.71731C10.2644 4.81053 10.1132 3.93324 9.96945 3.03015C9.94675 2.8827 10.0073 3.33609 9.98079 3.1223C9.97323 3.06701 9.96566 3.00803 9.9581 2.95274C9.94675 2.86059 9.93541 2.76843 9.92406 2.67628C9.90137 2.49198 9.88246 2.30767 9.86733 2.12337C9.83708 1.78793 9.81439 1.4525 9.80304 1.11706C9.78035 0.519912 9.29626 0.0112305 8.66846 0.0112305C8.07091 0.0112305 7.51118 0.516226 7.53387 1.11706L7.53765 1.106Z" fill="#535D64"/>
</g>
<defs>
<clipPath id="clip0_1358_130219">
<rect width="58" height="38" fill="white"/>
</clipPath>
</defs>
</svg>
