<svg width="41" height="44" viewBox="0 0 41 44" fill="none" xmlns="http://www.w3.org/2000/svg">
<g clip-path="url(#clip0_1358_130187)">
<path d="M22.192 2.23142C22.1504 1.03146 21.0472 0.299973 19.944 0.0945C19.2863 -0.0287839 18.6661 -0.0328933 18.0042 0.0698432C17.5254 0.143814 17.0176 0.295864 16.6138 0.567088C16.0976 0.912283 15.7063 1.37254 15.6188 2.00129C15.5397 2.59305 15.7604 3.19303 16.2141 3.59987C17.0259 4.32314 18.2456 4.5697 19.3113 4.45875C19.9399 4.393 20.581 4.26971 21.1263 3.92863C21.7424 3.54645 22.1629 2.97112 22.1878 2.23553C22.2086 1.59034 21.5967 0.973925 20.939 1.00269C20.2438 1.03146 19.7151 1.54514 19.6901 2.23553C19.6901 2.26019 19.6901 2.28073 19.686 2.30539L19.7317 1.97663C19.7234 2.02595 19.7109 2.06704 19.6943 2.11225L19.8192 1.81636C19.79 1.88212 19.6651 2.04649 19.8192 1.85335C19.994 1.62733 19.7859 1.84513 19.7692 1.87801C19.7734 1.86979 20.044 1.69308 19.9107 1.76705C19.8816 1.78349 19.8566 1.80404 19.8275 1.82047C19.7526 1.86568 19.6735 1.90266 19.5902 1.93554L19.8899 1.81225C19.6402 1.91088 19.3862 1.97663 19.1198 2.01362L19.4528 1.96841C19.0823 2.01773 18.7118 2.01773 18.3413 1.96841L18.6744 2.01362C18.408 1.97252 18.154 1.91088 17.9042 1.81225L18.204 1.93554C18.129 1.90266 18.0583 1.86979 17.9875 1.8328C17.9584 1.81636 17.9292 1.79993 17.9042 1.78349C17.8085 1.72596 17.7794 1.63144 18.025 1.88212C17.9917 1.84924 17.9417 1.78349 17.9001 1.76294C17.9251 1.77527 18.0874 2.05471 18.0125 1.90266C18 1.8739 17.9833 1.84924 17.9709 1.82047L18.0957 2.11635C18.0791 2.07115 18.0666 2.02595 18.0583 1.98074L18.1041 2.3095C18.0999 2.26019 18.0999 2.21498 18.1041 2.16978L18.0583 2.49853C18.0666 2.44922 18.0791 2.40813 18.0957 2.36292L17.9709 2.6588C18 2.59305 18.1249 2.42867 17.9709 2.62182C17.796 2.84784 18.0042 2.63004 18.0208 2.59716C18.0166 2.60538 17.7461 2.78209 17.8793 2.70812C17.9084 2.69168 17.9334 2.67113 17.9625 2.65469C18.0375 2.60949 18.1166 2.5725 18.1998 2.53963L17.9001 2.66291C18.1499 2.56429 18.4038 2.49853 18.6702 2.46155L18.3372 2.50675C18.7077 2.45744 19.0782 2.45744 19.4487 2.50675L19.1156 2.46155C19.3821 2.50264 19.636 2.56429 19.8858 2.66291L19.586 2.53963C19.661 2.5725 19.7317 2.60538 19.8025 2.64237C19.8317 2.6588 19.8608 2.67524 19.8858 2.69168C19.9815 2.74921 20.0107 2.84373 19.765 2.59305C19.7983 2.62593 19.8483 2.69168 19.8899 2.71223C19.865 2.6999 19.7026 2.42046 19.7775 2.57251C19.79 2.60127 19.8067 2.62593 19.8192 2.65469L19.6943 2.35881C19.7109 2.40402 19.7234 2.44922 19.7317 2.49443L19.686 2.16567C19.686 2.19033 19.6901 2.21087 19.6901 2.23553C19.7109 2.88071 20.2479 3.49713 20.939 3.46837C21.63 3.4396 22.2128 2.92592 22.1878 2.23553L22.192 2.23142Z" fill="#535D64"/>
<path d="M29.9727 35.3702H7.07698L8.32584 36.603V15.2338L7.07698 16.4667H29.9727L28.7239 15.2338V36.603C28.7239 38.1893 31.2216 38.1934 31.2216 36.603V15.2338C31.2216 14.5681 30.6513 14.001 29.9727 14.001H7.07698C6.4026 14.001 5.82812 14.564 5.82812 15.2338V36.603C5.82812 37.2687 6.39844 37.8358 7.07698 37.8358H29.9727C31.5796 37.8358 31.5837 35.3702 29.9727 35.3702Z" fill="#535D64"/>
<path d="M14.57 31.1827V22.8364C14.57 22.1706 13.9955 21.6035 13.3211 21.6035C12.6467 21.6035 12.0723 22.1665 12.0723 22.8364V31.1827C12.0723 31.8484 12.6467 32.4155 13.3211 32.4155C13.9955 32.4155 14.57 31.8525 14.57 31.1827Z" fill="#535D64"/>
<path d="M7.28483 11.535H30.1806C31.7874 11.535 31.7916 9.06934 30.1806 9.06934H7.28483C5.67797 9.06934 5.67381 11.535 7.28483 11.535Z" fill="#535D64"/>
<path d="M29.9726 41.5342H7.07683C5.46996 41.5342 5.4658 43.9999 7.07683 43.9999H29.9726C31.5794 43.9999 31.5836 41.5342 29.9726 41.5342Z" fill="#535D64"/>
<path d="M7.07686 14.001C5.13281 14.001 3.19291 14.001 1.24886 14.001C0.574475 14.001 0 14.564 0 15.2338C0 17.4529 0 19.6761 0 21.8953C0 22.2076 0 22.524 0 22.8363C0 23.4815 0.574475 24.0979 1.24886 24.0692C1.92324 24.0404 2.49772 23.5267 2.49772 22.8363C2.49772 20.6172 2.49772 18.394 2.49772 16.1749C2.49772 15.8626 2.49772 15.5461 2.49772 15.2338L1.24886 16.4667C3.19291 16.4667 5.13281 16.4667 7.07686 16.4667C7.73043 16.4667 8.35486 15.8995 8.32572 15.2338C8.29658 14.5681 7.77622 14.001 7.07686 14.001Z" fill="#535D64"/>
<path d="M7.72606 10.7174C9.52441 8.02154 12.3219 6.06544 15.5231 5.30519C18.7243 4.54494 22.346 5.07917 25.2392 6.81747C26.792 7.75032 28.1615 9.03658 29.1814 10.5078C29.5603 11.0584 30.2804 11.305 30.8882 10.9516C31.4377 10.6352 31.7166 9.81738 31.3378 9.26671C29.1023 6.04078 25.7096 3.66552 21.8173 2.84773C17.9251 2.02995 13.654 2.71623 10.2488 4.87781C8.3713 6.06955 6.79358 7.63937 5.5697 9.47629C5.1992 10.0311 5.4573 10.8406 6.01929 11.1612C6.62706 11.5146 7.35556 11.2762 7.72606 10.7174Z" fill="#535D64"/>
<path d="M30.9884 28.0225C33.9065 24.3568 36.8663 20.7241 39.8303 17.0954C40.1009 16.7666 40.3714 16.4338 40.6379 16.105C40.9584 15.7105 41.1166 15.2503 40.896 14.7571C40.6962 14.3092 40.2632 14.001 39.7553 14.001H27.2668C25.6599 14.001 25.6557 16.4667 27.2668 16.4667H39.7553L38.8728 14.3626C36.5375 17.2146 34.2146 20.0707 31.9 22.9391C31.005 24.0486 30.11 25.1623 29.2233 26.28C28.807 26.8019 28.7071 27.5129 29.2233 28.0225C29.6562 28.4498 30.5721 28.5485 30.9884 28.0225Z" fill="#535D64"/>
</g>
<defs>
<clipPath id="clip0_1358_130187">
<rect width="41" height="44" fill="white"/>
</clipPath>
</defs>
</svg>
