<svg width="43" height="39" viewBox="0 0 43 39" fill="none" xmlns="http://www.w3.org/2000/svg">
<g clip-path="url(#clip0_1358_130212)">
<path d="M34.3895 2.53866C35.741 3.08501 37.0925 3.94215 38.1233 4.99559C38.6932 5.58119 39.0544 6.04575 39.4406 6.67062C39.6243 6.96833 39.7925 7.27258 39.9482 7.58665C40.1413 7.97923 40.2347 8.19842 40.3437 8.50268C41.4866 11.627 41.2811 14.9869 40.4527 18.2093C39.5745 21.6248 38.0206 24.9454 36.0867 27.8375C35.3019 29.0119 34.349 30.1897 33.2279 31.2104C33.0909 31.3347 32.9507 31.4591 32.8075 31.5768C32.8013 31.5801 32.5677 31.7731 32.711 31.6586C32.6393 31.7175 32.5677 31.7731 32.493 31.8287C32.2033 32.0512 31.9044 32.2573 31.5961 32.4536C31.3158 32.6303 31.0293 32.7938 30.7366 32.9443C30.3317 33.1504 30.2944 33.1668 29.8927 33.3206C28.2889 33.9291 26.8439 34.0665 25.1031 33.8375C25.2619 33.8571 24.9225 33.808 24.9381 33.8113C24.8322 33.7949 24.7294 33.7753 24.6235 33.7557C24.3744 33.7099 24.1253 33.6543 23.8761 33.5921C23.3903 33.4711 22.9108 33.3238 22.4374 33.157C21.363 32.7742 20.3354 32.2737 19.3388 31.7077C18.28 31.109 17.3365 32.8037 18.3953 33.4024C21.7274 35.29 25.5765 36.5169 29.3539 35.5387C32.4151 34.747 34.9469 32.5747 36.859 30.0098C39.0794 27.0294 40.8108 23.5158 41.9163 19.9203C43.0219 16.3249 43.4547 12.4285 42.4177 8.81347C41.8977 7.00431 41.0039 5.33256 39.7738 3.95524C38.4254 2.44379 36.7188 1.38381 34.8908 0.644443C34.4206 0.454693 33.8663 0.853821 33.7417 1.33147C33.5954 1.88436 33.9223 2.34891 34.3957 2.53866H34.3895Z" fill="#535D64"/>
<path d="M36.4227 10.5115C36.5348 10.6358 36.2982 10.2792 36.3885 10.4657C36.4165 10.5213 36.4507 10.5769 36.4788 10.6325C36.4975 10.6685 36.513 10.7078 36.5317 10.7437C36.5971 10.8681 36.5068 10.662 36.5006 10.6587C36.5411 10.6783 36.5753 10.8681 36.594 10.9171C36.6656 11.1331 36.7248 11.3555 36.7715 11.5813C36.7964 11.7023 36.8213 11.8233 36.84 11.9477C36.8525 12.0196 36.8618 12.0916 36.8743 12.1636C36.8525 12.0164 36.8712 12.1407 36.8805 12.2192C37.0269 13.6554 36.84 14.9182 36.3386 16.2628C36.1549 16.7568 36.5411 17.3392 36.9926 17.47C37.522 17.6238 37.958 17.2803 38.1417 16.783C38.6992 15.2879 38.9203 13.6292 38.7272 12.036C38.6088 11.0611 38.4189 9.86697 37.7431 9.12106C37.3943 8.73829 36.7715 8.75137 36.4227 9.12106C36.0739 9.49074 36.0739 10.1254 36.4227 10.5082V10.5115Z" fill="#535D64"/>
<path d="M29.1328 11.6497C29.8989 11.9638 30.447 12.3302 30.9484 12.8929C30.9795 12.9256 31.0916 13.0827 30.9857 12.9355C31.0325 13.0042 31.0792 13.0729 31.1228 13.1481C31.1664 13.2233 31.2037 13.2921 31.2411 13.364C31.2567 13.3935 31.3657 13.6421 31.2785 13.4229C31.3283 13.5472 31.3657 13.6715 31.3999 13.8024C31.4186 13.8777 31.4342 13.9562 31.4529 14.0347C31.4622 14.087 31.4715 14.1394 31.4809 14.1917C31.4684 14.0739 31.4653 14.0543 31.4715 14.1296C31.4996 14.4404 31.4996 14.7479 31.4715 15.0587C31.4653 15.1143 31.4622 15.1699 31.456 15.2223C31.484 14.9769 31.4466 15.255 31.4404 15.2942C31.4062 15.4905 31.3657 15.6835 31.319 15.8766C31.1601 16.5309 30.9328 17.1656 30.6868 17.7871C30.665 17.8428 30.6432 17.8951 30.6214 17.9507C30.7024 17.7512 30.5934 18.0162 30.584 18.0391C30.5186 18.1961 30.4532 18.3564 30.3878 18.5134C30.2788 18.7751 30.173 19.0369 30.0671 19.2986C29.8771 19.7697 29.684 20.2375 29.466 20.6955C29.3539 20.9311 29.2325 21.1634 29.1017 21.3891C29.0425 21.4938 28.9802 21.5952 28.9148 21.6966C28.8775 21.7555 28.837 21.8144 28.7965 21.8766C28.7685 21.9158 28.7436 21.9551 28.7155 21.9943C28.7903 21.8929 28.7965 21.8831 28.7342 21.9682C28.5661 22.1677 28.4041 22.3673 28.2173 22.5472C28.1612 22.5996 27.8996 22.8024 28.0865 22.6683C27.9526 22.7632 27.8218 22.858 27.6785 22.9398C27.6162 22.9758 27.554 23.0052 27.4917 23.038C27.3017 23.1459 27.6661 22.9954 27.4543 23.051C27.2893 23.0969 27.1304 23.1557 26.9654 23.195C26.9592 23.195 26.7163 23.2343 26.8657 23.2146C26.9996 23.1983 26.7069 23.2244 26.6789 23.2244C26.4827 23.2343 26.2896 23.2244 26.0934 23.2048C25.8972 23.1852 26.0374 23.195 26.0748 23.2048C25.9502 23.1819 25.8287 23.159 25.7042 23.1263C25.4706 23.0674 25.2402 22.9954 25.0159 22.9071C24.58 22.7403 24.1191 22.4851 23.6893 22.2233C22.6461 21.5887 21.7056 23.2833 22.7457 23.918C24.2623 24.8439 26.1682 25.6028 27.9183 24.9551C29.2231 24.4709 30.1636 23.3978 30.8363 22.1612C31.4155 21.0914 31.839 19.9202 32.2937 18.7882C32.8667 17.3684 33.4584 15.8209 33.3431 14.2473C33.2715 13.2593 32.9476 12.376 32.3466 11.6105C31.6428 10.7174 30.6338 10.1743 29.6249 9.76206C29.1546 9.56904 28.6003 9.97471 28.4757 10.4491C28.3294 11.0052 28.6564 11.4633 29.1297 11.6563L29.1328 11.6497Z" fill="#535D64"/>
<path d="M33.0535 6.90636C32.6206 7.59993 32.0289 8.30985 31.4341 8.76132C31.1569 8.9707 30.8611 9.16045 30.5497 9.3044C30.7023 9.23242 30.422 9.35347 30.422 9.35347C30.3504 9.37964 30.2788 9.40254 30.204 9.42544C30.1293 9.44835 30.0608 9.45816 29.9891 9.48106C29.8148 9.53341 30.0919 9.49088 29.8615 9.50069C29.7867 9.50069 29.3725 9.47779 29.5937 9.51378C29.466 9.49088 29.3445 9.45816 29.2262 9.41236C29.4224 9.48433 29.0985 9.3273 29.0425 9.28477C29.2075 9.40909 29.002 9.22915 28.9833 9.2128C28.8463 9.09175 29.0238 9.31421 28.921 9.14082C28.8899 9.08848 28.7217 8.73515 28.7809 8.89218C28.7186 8.72534 28.6781 8.55194 28.6438 8.37855C28.6096 8.19535 28.6594 8.61083 28.6283 8.28368C28.6189 8.17572 28.6127 8.06776 28.6127 7.96307C28.6096 7.73733 28.6189 7.50505 28.647 7.28259C28.8618 5.637 29.8802 3.89982 31.1538 2.80712C31.6646 2.36874 32.169 2.09393 32.8012 1.94998C32.9569 1.91399 32.5863 1.95652 32.8448 1.94017C32.9258 1.9369 33.0067 1.93035 33.0877 1.93035C33.1407 1.93035 33.1936 1.9369 33.2465 1.9369C33.0254 1.92708 33.2528 1.9369 33.3026 1.95325C33.3649 1.97288 33.424 1.98924 33.4863 2.00887C33.6109 2.0514 33.3244 1.88455 33.505 2.02196C33.5673 2.07103 33.642 2.10374 33.7043 2.15282C33.5735 2.05467 33.723 2.1888 33.7635 2.22479C33.9379 2.37855 33.7043 2.09066 33.8258 2.29676C33.8725 2.37201 33.9161 2.44726 33.9566 2.52577C34.078 2.76787 33.9254 2.3622 34.0002 2.63046C34.0251 2.72534 34.0562 2.81367 34.0749 2.90854C34.1216 3.11792 34.1216 3.09175 34.1309 3.36329C34.1403 3.58902 34.1309 3.81476 34.1123 4.03722C34.0188 4.9827 33.5704 6.04268 33.0535 6.90309C32.4088 7.97288 34.0251 8.96089 34.6666 7.89436C35.7441 6.10811 36.6285 3.41236 35.5105 1.41672C34.4579 -0.461142 32.2313 -0.251763 30.6805 0.759142C28.7871 1.99905 27.3203 4.24333 26.8844 6.53995C26.5262 8.41781 26.9217 10.9729 29.058 11.3982C31.3999 11.866 33.4957 9.7755 34.6666 7.89436C34.9437 7.44944 34.7507 6.80822 34.3303 6.55304C33.8756 6.27495 33.3306 6.46143 33.0535 6.90636Z" fill="#535D64"/>
<path d="M22.154 28.8253C21.7212 29.5189 21.1295 30.2288 20.5347 30.6803C20.2575 30.8896 19.9617 31.0794 19.6503 31.2233C19.8029 31.1514 19.5226 31.2724 19.5226 31.2724C19.451 31.2986 19.3793 31.3215 19.3046 31.3444C19.2299 31.3673 19.1614 31.3771 19.0897 31.4C18.9153 31.4524 19.1925 31.4098 18.9621 31.4196C18.8873 31.4196 18.4731 31.3967 18.6942 31.4327C18.5666 31.4098 18.4451 31.3771 18.3268 31.3313C18.523 31.4033 18.1991 31.2462 18.143 31.2037C18.3081 31.328 18.1026 31.1481 18.0839 31.1317C17.9468 31.0107 18.1244 31.2332 18.0216 31.0598C17.9904 31.0074 17.8223 30.6541 17.8814 30.8111C17.8192 30.6443 17.7787 30.4709 17.7444 30.2975C17.7102 30.1143 17.76 30.5298 17.7289 30.2026C17.7195 30.0947 17.7133 29.9867 17.7133 29.882C17.7102 29.6563 17.7195 29.424 17.7475 29.2015C17.9624 27.5559 18.9807 25.8188 20.2544 24.7261C20.7651 24.2877 21.2696 24.0129 21.9018 23.8689C22.0575 23.8329 21.6869 23.8755 21.9454 23.8591C22.0264 23.8558 22.1073 23.8493 22.1883 23.8493C22.2412 23.8493 22.2942 23.8558 22.3471 23.8558C22.126 23.846 22.3533 23.8558 22.4032 23.8722C22.4655 23.8918 22.5246 23.9082 22.5869 23.9278C22.7115 23.9703 22.425 23.8035 22.6056 23.9409C22.6679 23.99 22.7426 24.0227 22.8049 24.0718C22.6741 23.9736 22.8236 24.1077 22.8641 24.1437C23.0385 24.2975 22.8049 24.0096 22.9264 24.2157C22.9731 24.291 23.0167 24.3662 23.0571 24.4447C23.1786 24.6868 23.026 24.2811 23.1007 24.5494C23.1257 24.6443 23.1568 24.7326 23.1755 24.8275C23.2222 25.0369 23.2222 25.0107 23.2315 25.2822C23.2409 25.508 23.2315 25.7337 23.2129 25.9562C23.1194 26.9016 22.671 27.9616 22.154 28.822C21.5094 29.8918 23.1257 30.8798 23.7672 29.8133C24.8447 28.027 25.7291 25.3313 24.6111 23.3357C23.5585 21.4578 21.3319 21.6672 19.7811 22.6781C17.8877 23.918 16.4209 26.1623 15.9849 28.4589C15.6268 30.3368 16.0223 32.8918 18.1586 33.3171C20.5004 33.785 22.5963 31.6944 23.7672 29.8133C24.0443 29.3684 23.8512 28.7272 23.4308 28.472C22.9762 28.1939 22.4312 28.3804 22.154 28.8253Z" fill="#535D64"/>
<path d="M21.3195 34.4787C21.0423 34.8517 20.7247 35.1886 20.3666 35.4798C20.5254 35.3489 20.2887 35.5321 20.2451 35.5648C20.161 35.627 20.0738 35.6859 19.9835 35.7448C19.7811 35.8756 19.5725 35.9967 19.3576 36.1079C19.2486 36.1635 19.1365 36.2159 19.0244 36.2682C18.8936 36.3304 19.1552 36.2159 19.0213 36.2682C18.9559 36.2944 18.8936 36.3206 18.8282 36.3467C18.5915 36.4416 18.3517 36.5234 18.1057 36.5987C17.6292 36.7426 17.1403 36.8473 16.6514 36.9258C16.368 36.9716 16.7604 36.9127 16.5891 36.9356C16.53 36.9422 16.4708 36.9487 16.4085 36.9585C16.2715 36.9749 16.1376 36.988 16.0005 36.9978C15.7265 37.0207 15.4493 37.0305 15.1753 37.037C14.6303 37.0436 14.0854 37.0174 13.5435 36.9585C13.2227 36.9225 13.2414 36.9258 12.9051 36.8702C12.6248 36.8211 12.3477 36.7655 12.0736 36.7001C11.5411 36.5725 11.0179 36.4122 10.5041 36.2192C9.99026 36.0261 9.7131 35.8985 9.17747 35.5976C8.75706 35.362 8.21832 34.9989 7.92248 34.7666C7.62663 34.5343 7.18131 34.0959 6.87301 33.7328C6.518 33.3108 6.16922 32.771 5.82043 32.1297C5.47165 31.4885 5.20072 30.88 4.98896 30.2061C4.799 29.5976 4.63706 28.8484 4.58724 28.3315C4.46578 27.0654 4.55609 26.0905 4.89554 24.9324C4.96716 24.6903 5.04813 24.4482 5.13844 24.2126C5.20695 24.0294 5.16335 24.1505 5.14778 24.1864C5.17892 24.1145 5.20695 24.0458 5.2412 23.9738C5.29726 23.8495 5.35643 23.7252 5.41871 23.6041C5.54016 23.3653 5.66784 23.133 5.81109 22.9073C5.87337 22.8091 5.93566 22.711 6.00105 22.6161C6.0322 22.5703 6.06645 22.5212 6.09759 22.4754C6.25641 22.2497 5.97925 22.6161 6.15365 22.4035C6.44949 22.037 6.75779 21.6903 7.10657 21.3827C7.14394 21.35 7.18443 21.3173 7.2218 21.2846C7.32768 21.193 7.09723 21.3795 7.20622 21.2977C7.29342 21.2322 7.38062 21.1668 7.47093 21.1014C7.64532 20.9803 7.82282 20.8724 8.00967 20.7742C8.09375 20.7317 8.28372 20.6466 8.08753 20.7284C8.17784 20.6924 8.26815 20.6532 8.35846 20.6237C8.52662 20.5648 8.74149 20.5583 8.8972 20.4831C9.00308 20.4307 8.71035 20.4863 8.82558 20.4929C8.87229 20.4929 8.92523 20.4831 8.97194 20.4798C9.04979 20.4765 9.12765 20.4732 9.2055 20.4732C9.28335 20.4732 9.35809 20.4929 9.43283 20.4896C9.1619 20.4994 9.41415 20.4896 9.51691 20.5158C9.58854 20.5354 9.66016 20.5681 9.73179 20.5845C9.87504 20.6172 9.68819 20.5616 9.66639 20.5518C9.70999 20.5747 9.75359 20.591 9.79407 20.6172C9.86258 20.6565 9.92798 20.6957 9.99338 20.7382C10.0339 20.7644 10.0743 20.7971 10.1148 20.8233C10.037 20.771 9.99026 20.7055 10.0899 20.8069C10.1678 20.8855 10.2456 20.9607 10.3204 21.0458C10.3515 21.0818 10.3826 21.121 10.4107 21.1603C10.3826 21.1243 10.3204 20.9967 10.3858 21.1374C10.4231 21.2192 10.4761 21.3075 10.5228 21.3827C10.6069 21.5201 10.5228 21.3762 10.5103 21.3402C10.5321 21.4056 10.557 21.4711 10.5757 21.5365C10.6006 21.6248 10.6162 21.7164 10.638 21.8048C10.6941 22.024 10.6287 21.6379 10.638 21.7819C10.638 21.8277 10.6442 21.8735 10.6473 21.9193C10.6505 22.024 10.6473 22.1286 10.6411 22.2333C10.6411 22.2791 10.6318 22.3282 10.6287 22.374C10.6411 22.2562 10.6536 22.2268 10.6224 22.3576C10.5757 22.5605 10.5228 22.7568 10.4512 22.9531C10.5321 22.7273 10.4262 23.0021 10.3951 23.061C10.339 23.1755 10.2768 23.2868 10.2114 23.3947C10.1833 23.4373 10.1553 23.4798 10.1304 23.5256C10.1304 23.5256 9.98404 23.735 10.0712 23.6172C10.1335 23.5354 9.95289 23.7611 9.92487 23.7939C9.75982 23.9836 9.5792 24.1635 9.38612 24.3238C9.53871 24.1963 9.29581 24.386 9.25533 24.4154C9.16502 24.4776 9.07471 24.5365 8.98128 24.5921C8.88786 24.6477 8.78821 24.6968 8.69167 24.7491C8.46122 24.8735 8.79755 24.7099 8.65118 24.7688C8.58579 24.7949 8.5235 24.8211 8.45811 24.844C8.23078 24.9258 8.00033 24.9847 7.76366 25.0272C7.60172 25.0567 7.98787 25.0141 7.71071 25.0338C7.65155 25.037 7.59549 25.0436 7.53632 25.0469C7.38684 25.0567 7.23737 25.0567 7.08789 25.0469C7.02872 25.0469 6.72976 25.0141 6.87613 25.0338C6.75156 25.0141 6.62388 24.988 6.49932 24.9585C6.26264 24.8996 5.88894 24.772 5.76127 24.7132C5.15089 24.4318 4.59658 24.0261 4.10766 23.555C3.67479 23.1395 3.29798 22.6848 3.02705 22.2628C2.87446 22.024 2.73432 21.7786 2.60353 21.5267C2.45717 21.2355 2.37931 21.0523 2.3108 20.8626C2.12084 20.3391 1.99005 19.796 1.90908 19.2431C1.88417 19.0828 1.92153 19.3838 1.90908 19.2235C1.90285 19.145 1.89351 19.0665 1.88728 18.988C1.87794 18.8636 1.86859 18.7393 1.86548 18.6117C1.85614 18.3304 1.85925 18.0523 1.87794 17.771C1.88728 17.6466 1.89974 17.5256 1.90908 17.4013C1.92776 17.205 1.91531 17.3457 1.90908 17.3849C1.91842 17.3097 1.93088 17.2312 1.94333 17.1559C1.99005 16.8844 2.0461 16.6128 2.11773 16.3478C2.18312 16.0959 2.26409 15.8506 2.35129 15.6085C2.37308 15.5529 2.39488 15.494 2.41668 15.4383C2.3544 15.5954 2.41668 15.4482 2.42602 15.422C2.48519 15.2846 2.54748 15.1472 2.61599 15.013C2.7281 14.784 2.85266 14.5616 2.98657 14.3457C3.05819 14.2312 3.13293 14.1199 3.20767 14.0087C3.22324 13.9858 3.31355 13.8582 3.21702 13.9891C3.26061 13.9302 3.30733 13.8713 3.35092 13.8124C4.03915 12.9422 4.64329 12.4383 5.64916 11.9803C5.48722 12.0523 5.80486 11.9214 5.836 11.9084C5.94811 11.8658 6.06022 11.8266 6.17545 11.7906C6.43703 11.7088 6.70173 11.6466 6.96955 11.5976C7.46781 11.506 7.74497 10.8647 7.62352 10.3904C7.48027 9.83748 6.97266 9.61501 6.4744 9.70334C4.06717 10.1417 1.99627 11.892 0.925011 14.1788C-0.146252 16.4656 -0.31753 19.3282 0.663424 21.7655C1.74714 24.4678 4.27582 26.9247 7.1782 27.0065C9.4702 27.0719 11.8245 25.4133 12.3913 23.0218C12.6622 21.8735 12.4535 20.6892 11.7311 19.7731C11.1082 18.9847 10.174 18.5398 9.2055 18.5169C7.10346 18.4678 5.27857 20.1854 4.19797 21.9225C1.11497 26.8756 3.03951 34.0272 7.76988 37.0207C9.89373 38.362 12.438 38.9934 14.9044 39.0131C17.3708 39.0327 19.75 38.4831 21.634 36.9324C22.0108 36.6216 22.3503 36.278 22.6461 35.8822C22.9575 35.4634 23.0323 34.9007 22.6461 34.4951C22.3222 34.1548 21.6371 34.0763 21.3257 34.4951L21.3195 34.4787Z" fill="#535D64"/>
</g>
<defs>
<clipPath id="clip0_1358_130212">
<rect width="43" height="39" fill="white"/>
</clipPath>
</defs>
</svg>
