<svg width="32" height="43" viewBox="0 0 32 43" fill="none" xmlns="http://www.w3.org/2000/svg">
<g clip-path="url(#clip0_1358_130196)">
<path d="M26.668 35.8655H15.9615C12.4248 35.8655 8.88421 35.9156 5.35134 35.8655C3.85652 35.8462 2.53506 34.7394 2.35014 33.2238C2.31932 32.9654 2.33473 32.5604 2.33473 32.2365V27.5161C2.33473 22.4448 2.33473 17.3697 2.33473 12.2984V6.71031C2.33473 6.29381 2.33473 5.88117 2.33473 5.46466C2.33473 4.46969 2.6622 3.65982 3.44814 2.98879C4.02603 2.49516 4.75803 2.31776 5.60562 2.31776H26.4484C27.3152 2.31776 28.0703 2.52601 28.6675 3.07363C29.3918 3.73309 29.6846 4.51596 29.6884 5.48009C29.6884 6.71803 29.6884 7.95596 29.6884 9.1939V32.2674C29.6884 32.4216 29.6884 32.5797 29.6884 32.734C29.6884 32.7648 29.6884 32.7995 29.6884 32.8304C29.6884 32.8343 29.6884 32.842 29.6884 32.8458C29.6884 32.8767 29.6884 32.9538 29.6884 32.9808C29.6884 33.0695 29.6807 33.1582 29.673 33.2469C29.6846 33.1813 29.6846 33.1852 29.673 33.2662C29.4188 34.8126 28.1667 35.8423 26.6795 35.8655C25.1924 35.8886 25.1886 38.2025 26.6795 38.1794C28.8678 38.1447 30.8019 36.8373 31.6263 34.8088C31.9307 34.0645 32.0077 33.2816 32.0077 32.4872V6.70646C32.0077 6.28224 32.0077 5.85803 32.0077 5.43381C32.0039 4.04161 31.5185 2.7304 30.5784 1.70072C29.5459 0.578475 28.0742 0.007713 26.5755 0C26.0708 0 25.5661 0 25.0653 0H5.59406C4.44212 0 3.30174 0.258386 2.34628 0.93713C0.889987 1.96296 0.0424071 3.58269 0.023144 5.36439C0.011586 6.45964 0.023144 7.55874 0.023144 8.65399V30.3892C0.023144 31.5346 -0.0731719 32.7456 0.127165 33.8794C0.481608 35.8886 2.14595 37.5855 4.12235 38.0328C4.75033 38.1755 5.3706 38.1755 6.00629 38.1755H26.668C28.1551 38.1755 28.159 35.8616 26.668 35.8616V35.8655Z" fill="#535D64"/>
<path d="M8.49908 12.0362V7.30044C8.49908 6.69497 7.96742 6.11649 7.34329 6.14349C6.71916 6.17048 6.1875 6.65255 6.1875 7.30044V12.0362C6.1875 12.6417 6.71916 13.2202 7.34329 13.1932C7.96742 13.1662 8.49908 12.6841 8.49908 12.0362Z" fill="#535D64"/>
<path d="M25.0653 36.8296V6.89927C25.0653 5.51093 25.1154 4.11487 25.0653 2.73039C25.0653 2.71111 25.0653 2.69182 25.0653 2.66869C25.0653 1.18008 22.7537 1.17622 22.7537 2.66869V32.599C22.7537 33.9873 22.7036 35.3834 22.7537 36.7679C22.7537 36.7872 22.7537 36.8064 22.7537 36.8296C22.7537 38.3182 25.0653 38.322 25.0653 36.8296Z" fill="#535D64"/>
<path d="M22.9463 17.767H29.7423C30.3472 17.767 30.9251 17.2348 30.8981 16.6101C30.8711 15.9853 30.3895 15.4531 29.7423 15.4531H22.9463C22.3414 15.4531 21.7635 15.9853 21.7905 16.6101C21.8174 17.2348 22.299 17.767 22.9463 17.767Z" fill="#535D64"/>
<path d="M22.9463 23.5517H29.7423C30.3472 23.5517 30.9251 23.0195 30.8981 22.3947C30.8711 21.77 30.3895 21.2378 29.7423 21.2378H22.9463C22.3414 21.2378 21.7635 21.77 21.7905 22.3947C21.8174 23.0195 22.299 23.5517 22.9463 23.5517Z" fill="#535D64"/>
<path d="M8.49908 31.3184V26.5827C8.49908 25.9772 7.96742 25.3987 7.34329 25.4257C6.71916 25.4527 6.1875 25.9348 6.1875 26.5827V31.3184C6.1875 31.9239 6.71916 32.5024 7.34329 32.4754C7.96742 32.4484 8.49908 31.9663 8.49908 31.3184Z" fill="#535D64"/>
<path d="M5.8023 41.0716V37.3771C5.8023 36.7716 5.27064 36.1932 4.64651 36.2201C4.02239 36.2471 3.49072 36.7292 3.49072 37.3771V41.0716C3.49072 41.6771 4.02239 42.2556 4.64651 42.2286C5.27064 42.2016 5.8023 41.7195 5.8023 41.0716Z" fill="#535D64"/>
<path d="M29.6885 41.8431V38.1486C29.6885 37.5431 29.1569 36.9646 28.5327 36.9916C27.9086 37.0186 27.377 37.5007 27.377 38.1486V41.8431C27.377 42.4486 27.9086 43.0271 28.5327 43.0001C29.1569 42.9731 29.6885 42.491 29.6885 41.8431Z" fill="#535D64"/>
<path d="M10.04 19.6683C10.0746 22.5992 11.8931 25.1638 14.6246 26.1974C17.2636 27.1962 20.4652 26.3362 22.2567 24.1611C24.0481 21.9861 24.4565 18.6733 22.9424 16.128C21.4283 13.5827 18.4888 12.3332 15.6147 12.8616C12.3862 13.4555 10.0785 16.4327 10.04 19.6644C10.0245 21.1531 12.3361 21.1531 12.3515 19.6644C12.3631 18.6579 12.6366 17.7902 13.2415 16.9225C13.3532 16.7644 13.4264 16.6795 13.6152 16.479C13.7 16.3903 13.7924 16.3016 13.8849 16.2167C13.9273 16.1782 14.1584 15.9776 14.0814 16.0355C14.2779 15.8812 14.4936 15.7462 14.7094 15.6228C14.9636 15.4801 15.1062 15.4107 15.295 15.3413C17.2367 14.6394 19.2478 15.1793 20.5769 16.7566C21.7712 18.172 21.9138 20.3972 20.9391 22.0323C20.6655 22.4913 20.469 22.7265 20.0568 23.1044C19.7563 23.3821 19.3171 23.6752 18.8355 23.8989C18.7854 23.922 18.7816 23.9259 18.6429 23.976C18.5235 24.0184 18.4002 24.0609 18.2769 24.0956C18.1536 24.1303 18.0265 24.165 17.9032 24.192C17.8454 24.2036 17.5295 24.2614 17.6296 24.246C17.3677 24.2807 17.098 24.2884 16.8322 24.2807C16.6973 24.2807 16.5663 24.2691 16.4315 24.2575C16.2735 24.2421 16.3544 24.2575 16.1541 24.2151C13.908 23.7755 12.3669 21.8896 12.34 19.6529C12.3246 18.1643 10.013 18.1604 10.0284 19.6529L10.04 19.6683Z" fill="#535D64"/>
</g>
<defs>
<clipPath id="clip0_1358_130196">
<rect width="32" height="43" fill="white"/>
</clipPath>
</defs>
</svg>
