<svg width="43" height="48" viewBox="0 0 43 48" fill="none" xmlns="http://www.w3.org/2000/svg">
<g clip-path="url(#clip0_37_51)">
<path d="M7.88589 44.9903C6.48054 44.9903 5.07021 45.0052 3.66485 44.9903C3.60526 44.9903 3.5407 44.9903 3.48111 44.9854C3.68968 45.0052 3.28744 44.886 3.46125 44.9754C3.40662 44.9506 3.12356 44.747 3.24771 44.8513C3.11363 44.742 3.15336 44.8066 3.05404 44.593C3.00935 44.4937 3.00935 44.5135 3.00438 44.3248C3.00438 44.305 3.00438 44.2801 3.00438 44.2603C3.00438 43.9226 3.00438 43.5898 3.00438 43.2521V27.459C3.00438 26.5551 2.93983 25.4526 3.09377 24.7226C3.35696 23.4859 3.93798 22.4877 4.97586 21.6881C5.74061 21.0971 6.84801 20.7296 7.90079 20.7197C8.50663 20.7147 9.11248 20.7197 9.72329 20.7197H34.5976C34.7665 20.7197 34.9304 20.7197 35.0992 20.7197C36.1718 20.7296 37.309 21.112 38.0837 21.7378C39.4792 22.8701 39.9956 24.3103 39.9956 26.0436V41.3202C39.9956 42.3035 40.0055 43.2819 39.9956 44.2652C39.9956 44.5334 40.0155 44.4738 39.9062 44.6625C39.8069 44.8413 39.9062 44.7221 39.7523 44.8513C39.8764 44.747 39.5934 44.9506 39.5387 44.9754C39.7175 44.886 39.3153 45.0052 39.5189 44.9854C39.4543 44.9903 39.3898 44.9903 39.3252 44.9903C38.5654 44.9953 37.8106 44.9903 37.0508 44.9903H35.1141C33.1972 44.9903 33.1923 47.9701 35.1141 47.9701C36.5492 47.9701 38.0043 48.0397 39.4394 47.9701C41.396 47.8758 42.8758 46.3561 42.9752 44.4093C42.9901 44.156 42.9752 43.8977 42.9752 43.6395V27.4541C42.9752 26.2721 43.0248 25.0901 42.7815 23.9279C42.1061 20.7445 39.3649 18.2563 36.1569 17.8243C35.3078 17.71 34.4536 17.7398 33.5995 17.7398H8.18882C6.06836 17.7398 4.06709 18.4302 2.50779 19.9002C0.804475 21.4944 0.0248239 23.7144 0.0248239 26.0039V41.8615C0.0248239 42.7306 -0.0298013 43.6196 0.0297898 44.4937C0.16387 46.4455 1.69834 47.9056 3.64499 47.9701C4.37001 47.995 5.10001 47.9701 5.82503 47.9701H7.88589C9.80274 47.9701 9.80771 44.9903 7.88589 44.9903Z" fill="#3D515E"/>
<path d="M3.00423 28.7454V8.12002C3.00423 7.9164 3.00423 7.70781 3.00423 7.50419C3.03402 6.52085 3.46606 5.36368 4.08183 4.64853C4.87142 3.73968 5.661 3.27284 6.84786 3.03942C7.03656 2.99969 7.4686 2.97982 7.84104 2.97982C8.64553 2.97982 9.45497 2.97982 10.2595 2.97982C17.1174 2.97982 23.9803 2.97982 30.8383 2.97982H34.2747C34.5677 2.97982 34.8607 2.97982 35.1537 2.97982C35.6006 2.97982 35.973 2.99969 36.2958 3.07419C38.4858 3.56586 39.9557 5.46798 39.9806 7.67801C39.9855 8.27894 39.9806 8.88484 39.9806 9.48577V28.7404C39.9806 30.6574 42.9601 30.6624 42.9601 28.7404V7.9313C42.9601 5.88019 42.2947 3.94827 40.8993 2.42359C39.5038 0.898914 37.3585 0.00993275 35.2232 0C34.4684 0 33.7086 0 32.9538 0H8.5611C7.55302 0 6.5648 0 5.58155 0.283083C2.77083 1.0777 0.570921 3.53606 0.138885 6.42649C-0.000160934 7.33037 0.0246687 8.22928 0.0246687 9.13316V28.7404C0.0246687 30.6574 3.00423 30.6624 3.00423 28.7404V28.7454Z" fill="#3D515E"/>
<path d="M13.3038 5.11548H6.34154C5.56188 5.11548 4.817 5.80084 4.85176 6.60539C4.88652 7.40994 5.50726 8.0953 6.34154 8.0953H13.3038C14.0834 8.0953 14.8283 7.40994 14.7936 6.60539C14.7588 5.80084 14.138 5.11548 13.3038 5.11548Z" fill="#3D515E"/>
<path d="M35.8987 5.11548H31.7571C30.9774 5.11548 30.2325 5.80084 30.2673 6.60539C30.302 7.40994 30.9228 8.0953 31.7571 8.0953H35.8987C36.6783 8.0953 37.4232 7.40994 37.3884 6.60539C37.3537 5.80084 36.7329 5.11548 35.8987 5.11548Z" fill="#3D515E"/>
<path d="M25.0877 19.2298C25.0877 17.9236 25.0777 16.6175 25.0877 15.3163C25.0877 15.2666 25.0877 15.217 25.0877 15.1673C25.0976 14.8644 25.0132 15.1822 25.1473 14.9239C25.1175 14.9835 25.1175 14.9885 25.0777 15.0481C25.3111 14.7054 24.9387 15.1623 25.2416 14.9041C25.0777 15.0431 25.4502 14.9041 25.2217 14.919C25.2466 14.919 25.2714 14.919 25.2962 14.919C25.768 14.9041 26.2398 14.919 26.7066 14.919H33.5844C33.6787 14.919 33.7731 14.919 33.8674 14.919C33.7631 14.914 33.7135 14.8395 33.927 14.9339L33.8476 14.8991C33.9965 14.9935 34.0164 15.0034 33.9072 14.9339C33.932 14.8991 34.071 15.1375 33.9568 14.9935C33.927 14.8693 33.937 14.8941 33.9866 15.0729C33.9866 14.9438 33.9965 14.9736 33.9965 15.1673C34.0462 16.5182 33.9965 17.8789 33.9965 19.2348C33.9965 21.1518 36.9761 21.1567 36.9761 19.2348C36.9761 17.8839 37.0208 16.5281 36.9761 15.1822C36.9165 13.4191 35.6502 12.0137 33.8625 11.9441C33.4453 11.9292 33.0183 11.9441 32.6011 11.9441H27.084C26.498 11.9441 25.917 11.9342 25.331 11.9441C23.9306 11.964 22.8033 12.7586 22.2968 14.0648C21.974 14.9041 22.0982 15.9719 22.0982 16.8559V19.2397C22.0982 21.1567 25.0777 21.1617 25.0777 19.2397L25.0877 19.2298Z" fill="#3D515E"/>
<path d="M8.7947 19.2298C8.7947 17.9236 8.78477 16.6175 8.7947 15.3163C8.7947 15.2666 8.7947 15.217 8.7947 15.1673C8.80463 14.8644 8.72021 15.1822 8.85429 14.9239C8.82449 14.9835 8.82449 14.9885 8.78477 15.0481C9.01817 14.7054 8.64572 15.1623 8.94864 14.9041C8.78477 15.0431 9.15721 14.9041 8.92878 14.919C8.95361 14.919 8.97844 14.919 9.00327 14.919C9.47503 14.9041 9.94679 14.919 10.4136 14.919H17.2914C17.3858 14.919 17.4801 14.919 17.5745 14.919C17.4702 14.914 17.4205 14.8395 17.6341 14.9339L17.5546 14.8991C17.7036 14.9935 17.7234 15.0034 17.6142 14.9339C17.639 14.8991 17.7781 15.1375 17.6639 14.9935C17.6341 14.8693 17.644 14.8941 17.6936 15.0729C17.6936 14.9438 17.7036 14.9736 17.7036 15.1673C17.7532 16.5182 17.7036 17.8789 17.7036 19.2348C17.7036 21.1518 20.6831 21.1567 20.6831 19.2348C20.6831 17.8839 20.7278 16.5281 20.6831 15.1822C20.6235 13.4191 19.3572 12.0137 17.5695 11.9441C17.1524 11.9292 16.7253 11.9441 16.3082 11.9441H10.791C10.205 11.9441 9.62401 11.9342 9.03803 11.9441C7.63764 11.964 6.51037 12.7586 6.00384 14.0648C5.68106 14.9041 5.80521 15.9719 5.80521 16.8559V19.2397C5.80521 21.1567 8.78477 21.1617 8.78477 19.2397L8.7947 19.2298Z" fill="#3D515E"/>
<path d="M39.3453 31.6061H5.1002C3.88852 31.6061 2.68676 31.5068 1.62405 32.2368C0.427261 33.0563 0.0250201 34.3326 0.0250201 35.7133V38.8073C0.0250201 40.6449 -0.0345711 42.4874 0.0250201 44.325C0.0895772 46.4009 1.68861 47.9455 3.75444 47.9703C4.82708 47.9852 5.90468 47.9703 6.97732 47.9703H7.88609C8.69057 47.9703 9.37587 47.2899 9.37587 46.4804V42.6762C9.37587 42.4775 9.37587 42.2788 9.37587 42.0802C9.37587 42.0256 9.3858 41.7574 9.37587 41.8915C9.36594 42.0454 9.48015 41.6233 9.3858 41.8269C9.3858 41.8219 9.62417 41.4544 9.50498 41.6084C9.75825 41.2756 9.44043 41.6332 9.62417 41.4892C9.66389 41.4594 9.95688 41.3203 9.76818 41.4048C10.0115 41.3005 9.76321 41.37 10.0214 41.3601C10.0612 41.3601 10.1009 41.3601 10.1406 41.3601C12.1121 41.3402 14.0885 41.3601 16.06 41.3601H32.5618C32.6959 41.3601 32.8349 41.3501 32.969 41.3601C33.3464 41.3799 32.8747 41.2707 33.2173 41.4048C33.0385 41.3352 33.411 41.524 33.4259 41.5339C33.2421 41.3998 33.5351 41.7077 33.4606 41.5836C33.3762 41.4445 33.6642 42.0256 33.5699 41.7723C33.6295 41.9262 33.6146 42.0156 33.6146 42.2937V46.4854C33.6146 47.2899 34.2949 47.9753 35.1044 47.9753H38.9331C39.827 47.9753 40.6811 47.8412 41.426 47.2998C42.4192 46.5748 42.9307 45.4971 42.9605 44.2753C43.035 41.5488 42.9605 38.8123 42.9605 36.0858C42.9605 35.5643 42.9803 35.0478 42.881 34.5263C42.5582 32.8129 41.0337 31.6756 39.3403 31.6111C38.5358 31.5813 37.8505 32.3163 37.8505 33.101C37.8505 33.9353 38.5309 34.5611 39.3403 34.5909C39.5489 34.6008 39.4893 34.576 39.6631 34.6803C39.7574 34.7399 39.8518 34.8541 39.8071 34.7846C39.7773 34.7349 40.0306 35.1869 39.9511 35.0279C39.8816 34.8988 39.9958 35.321 39.9759 35.0875C39.9809 35.1571 39.9809 35.2216 39.9809 35.2912C39.9809 35.609 39.9809 35.9219 39.9809 36.2397V43.9773C39.9809 44.0816 39.9809 44.1859 39.9809 44.2902C39.9809 44.3598 39.9809 44.4193 39.9759 44.4938C39.9759 44.3945 40.0206 44.3647 39.9362 44.5783C40.0008 44.4045 39.817 44.7819 39.8121 44.7918C39.9015 44.6428 39.7674 44.8266 39.7376 44.8465C39.8915 44.7173 39.6432 44.911 39.5936 44.9359C39.4942 44.9806 39.529 44.9805 39.3403 44.9905C39.2062 44.9954 39.0672 44.9905 38.9281 44.9905H35.0994L36.5892 46.4804V42.5073C36.5892 41.5835 36.475 40.6995 35.9188 39.9248C35.2086 38.9414 34.1509 38.415 32.9491 38.3802C31.0373 38.3206 29.1154 38.3802 27.2036 38.3802C21.5424 38.3802 15.8862 38.3455 10.225 38.3802C8.05493 38.3951 6.42114 39.9645 6.39631 42.1596C6.38141 43.5999 6.39631 45.0401 6.39631 46.4854L7.88609 44.9954H5.21938C4.74762 44.9954 4.27089 44.9954 3.79913 44.9954C3.68988 44.9954 3.58063 44.9954 3.47634 44.9905C3.59056 45.0004 3.37702 44.9408 3.31743 44.9061C3.32736 44.9061 3.10886 44.772 3.21315 44.8365C3.3224 44.911 3.0592 44.6379 3.16846 44.7968C3.10886 44.7074 3.0592 44.618 3.00955 44.5236C3.03437 44.5634 3.0592 44.6528 3.01948 44.5038C2.94995 44.2555 3.01948 44.6776 2.99961 44.4094C2.99465 44.3399 2.99961 44.3548 2.99961 44.325C2.99961 44.2704 2.99961 44.2108 2.99961 44.1561C2.99961 43.8284 2.99961 43.5055 2.99961 43.1778V36.4483C2.99961 36.1156 2.99961 35.7828 2.99961 35.4451C2.99961 35.3855 2.99961 35.321 2.99961 35.2614C2.99961 35.1968 3.00955 34.9981 2.99961 35.1173C2.98968 35.2663 3.09397 34.8988 3.02444 35.023C2.98472 35.0975 3.16349 34.7796 3.16846 34.7796C3.1188 34.869 3.25288 34.7151 3.24791 34.7151C3.43662 34.5661 3.36709 34.6157 3.54587 34.5859C3.38696 34.6157 3.57566 34.5859 3.66008 34.5859C3.73457 34.5859 3.80906 34.5859 3.88355 34.5859C4.27089 34.5859 4.65327 34.5859 5.04061 34.5859H30.8436C33.6295 34.5859 36.4253 34.6654 39.2112 34.5859C39.2509 34.5859 39.2956 34.5859 39.3353 34.5859C41.2522 34.5859 41.2572 31.6061 39.3353 31.6061H39.3453Z" fill="#3D515E"/>
</g>
<defs>
<clipPath id="clip0_37_51">
<rect width="43" height="48" fill="white"/>
</clipPath>
</defs>
</svg>
