<svg width="49" height="44" viewBox="0 0 49 44" fill="none" xmlns="http://www.w3.org/2000/svg">
<g clip-path="url(#clip0_1358_130260)">
<path d="M42.2576 21.1136C38.556 22.0314 34.8193 22.6563 31.0166 22.9063C26.9261 23.1718 22.7618 23.1679 18.6908 22.668C17.4349 22.5157 15.8446 22.2267 14.4798 21.84C13.8965 21.676 13.3172 21.4846 12.7534 21.262C12.6873 21.2347 12.2985 21.0706 12.5706 21.1917C12.4501 21.1409 12.3296 21.0863 12.209 21.0316C11.968 20.9183 11.7308 20.8012 11.4936 20.6723C11.062 20.4379 10.6537 20.1724 10.2532 19.8873C10.016 19.7193 10.3349 19.9615 10.2027 19.8482C10.1133 19.7701 10.0199 19.6998 9.9305 19.6217C9.7672 19.4811 9.60778 19.3327 9.45613 19.1764C9.31616 19.0358 9.18395 18.8874 9.05564 18.7351C8.99343 18.6609 8.9351 18.5789 8.87289 18.5086C9.11785 18.7781 8.88845 18.5242 8.82623 18.4383C8.60071 18.1141 8.39852 17.7744 8.22355 17.4189C8.18856 17.3447 8.15356 17.2705 8.11857 17.1963C8.09524 17.1495 8.07968 17.1026 8.05635 17.0557C7.98637 16.919 8.16523 17.3486 8.09135 17.1377C8.02525 16.9542 7.95137 16.7745 7.89305 16.5871C7.7764 16.2239 7.67919 15.8528 7.60532 15.4779C7.56643 15.2943 7.53921 15.1069 7.50811 14.9194C7.45367 14.6069 7.53144 15.1576 7.50422 14.8842C7.49256 14.7671 7.477 14.6499 7.46534 14.5366C7.42646 14.1383 7.40313 13.736 7.39146 13.3376C7.36813 12.5175 7.38368 11.6934 7.46534 10.8771C7.47311 10.7912 7.48478 10.7092 7.49256 10.6233C7.49644 10.5725 7.50811 10.5178 7.512 10.4671C7.52366 10.3069 7.46145 10.7873 7.50033 10.5569C7.53533 10.3616 7.56254 10.1624 7.60143 9.96715C7.6753 9.59221 7.76862 9.22119 7.88527 8.85406C7.9436 8.67831 8.0097 8.50647 8.07191 8.33072C8.17689 8.04171 7.97081 8.53771 8.08357 8.29948C8.13023 8.19793 8.17689 8.09248 8.22744 7.99094C8.39463 7.65506 8.58127 7.3309 8.79513 7.02236C8.85734 6.93644 8.91955 6.85051 8.98176 6.76459C8.84956 6.95206 8.89622 6.87004 8.99732 6.74897C9.13729 6.58103 9.28505 6.417 9.43669 6.25687C9.58056 6.10846 9.72831 5.96786 9.88384 5.83507C9.96161 5.76477 10.0433 5.69837 10.1249 5.63198C10.1716 5.59292 10.2182 5.55777 10.2649 5.51872C10.1405 5.62026 10.121 5.62417 10.261 5.52653C10.6382 5.25705 11.0231 5.00709 11.4314 4.78057C11.6491 4.6595 11.8746 4.54624 12.1002 4.43688C12.2324 4.37439 12.3646 4.31581 12.4968 4.25722C12.5473 4.23379 12.7028 4.17521 12.4657 4.26894C12.5512 4.23379 12.6329 4.19864 12.7184 4.1674C13.9199 3.69092 15.1758 3.36285 16.4395 3.10899C18.1192 2.77702 19.6045 2.61299 21.362 2.49582C23.4811 2.35522 25.6041 2.32397 27.7271 2.36694C31.6854 2.44505 35.6048 2.85122 39.4814 3.65967C40.3873 3.84714 41.2894 4.05804 42.1876 4.27675C43.6457 4.63606 44.2678 2.37475 42.8097 2.01544C38.8398 1.03905 34.796 0.390724 30.7133 0.140768C26.4634 -0.116999 22.1513 -0.077943 17.9287 0.500079C13.706 1.0781 8.22744 2.53097 6.1511 6.92472C5.38122 8.55334 5.09738 10.3226 5.05072 12.1152C5.00406 13.9079 5.11293 15.6302 5.65729 17.2744C6.27164 19.1257 7.40701 20.6567 8.95455 21.8244C10.8987 23.2929 13.3327 24.0623 15.689 24.5388C19.5967 25.3316 23.6405 25.4605 27.6144 25.3863C31.8137 25.3082 35.9975 24.8668 40.1113 24.0037C41.0367 23.8084 41.9582 23.5975 42.8719 23.371C44.33 23.0117 43.7118 20.7504 42.2498 21.1097L42.2576 21.1136Z" fill="#535D64"/>
<path d="M21.3779 16.6144C20.919 16.6144 20.4641 16.591 20.0092 16.548C19.8964 16.5363 19.7876 16.5246 19.6748 16.5129C19.5776 16.5011 19.6826 16.5168 19.5232 16.4894C19.3054 16.4543 19.0916 16.4152 18.8777 16.3684C18.4617 16.2785 18.0495 16.1692 17.6412 16.0364C17.198 15.8919 17.0113 15.8138 16.6692 15.6497C16.327 15.4857 15.977 15.2865 15.6543 15.0678C15.5921 15.0249 15.5299 14.9819 15.4677 14.9389C15.4599 14.935 15.1838 14.7163 15.3472 14.8491C15.2188 14.7436 15.0944 14.6343 14.9739 14.521C14.8417 14.3961 14.7173 14.2672 14.5967 14.1305C14.5384 14.0641 14.4801 13.9938 14.4217 13.9274C14.5539 14.0875 14.4023 13.9 14.379 13.8649C14.169 13.5564 13.9863 13.2361 13.8346 12.8963C13.5819 12.3183 12.7381 12.1816 12.2404 12.4745C11.6455 12.8221 11.5677 13.4978 11.8205 14.0758C13.3913 17.6572 17.8084 18.9343 21.3817 18.9538C22.8826 18.9617 22.8865 16.6183 21.3817 16.6105L21.3779 16.6144Z" fill="#535D64"/>
<path d="M33.4312 12.7085C33.4506 16.4813 34.8543 21.1054 38.4509 22.9489C39.9712 23.7261 41.7443 23.8745 43.3385 23.2262C45.0377 22.5349 46.3558 21.1836 47.2618 19.6018C49.4042 15.8681 49.5208 10.9432 47.8528 7.0181C46.488 3.81164 43.3307 0.933248 39.6291 1.99556C35.2237 3.26096 33.4545 8.58814 33.4312 12.7085C33.4234 14.216 35.7564 14.22 35.7641 12.7085C35.7719 10.9979 36.0946 9.18569 36.7984 7.70158C37.1328 6.99467 37.58 6.27605 37.9999 5.79957C38.2332 5.53399 38.4859 5.28404 38.7542 5.05752C38.7737 5.03799 38.9253 4.91692 38.7853 5.02627C38.8436 4.9794 38.9059 4.93644 38.9681 4.89348C39.1197 4.78803 39.2752 4.68649 39.4386 4.59666C39.5163 4.5537 39.598 4.51074 39.6796 4.46778C39.7263 4.44434 39.944 4.3428 39.7457 4.42872C39.8779 4.37404 40.014 4.32718 40.1501 4.28422C40.3212 4.22954 40.4923 4.19829 40.6672 4.15533C40.71 4.14362 40.8967 4.12018 40.675 4.14752C40.78 4.1358 40.8889 4.12409 40.9939 4.12018C41.1377 4.11237 41.2816 4.11237 41.4255 4.12018C41.5149 4.12409 41.6043 4.1319 41.6937 4.13971C41.8959 4.15924 41.4293 4.07332 41.7521 4.15143C42.0748 4.22954 42.3742 4.29984 42.6736 4.42482C42.4753 4.33889 42.693 4.43653 42.7397 4.46387C42.8213 4.50683 42.903 4.54589 42.9808 4.59275C43.1091 4.66696 43.2335 4.74117 43.3579 4.82709C43.4357 4.87786 43.5135 4.93254 43.5873 4.99112C43.7584 5.12 43.389 4.81537 43.6651 5.05361C43.8129 5.18249 43.9567 5.31138 44.0928 5.44807C44.2056 5.56133 44.3144 5.6785 44.4194 5.79567C44.5711 5.97142 44.6333 6.04562 44.6994 6.13545C44.9405 6.46352 45.1543 6.80721 45.3487 7.16652C46.974 10.1386 47.0751 14.0989 45.8037 17.3014C45.5665 17.9029 45.1349 18.6801 44.6994 19.2776C44.5944 19.4182 44.3261 19.7346 44.0967 19.965C43.9878 20.0744 43.8712 20.1837 43.7545 20.2853C43.7779 20.2658 43.4862 20.5079 43.6068 20.4142C43.6729 20.3595 43.4435 20.5313 43.4085 20.5587C42.7669 21 42.5181 21.0781 41.7598 21.2656C41.5421 21.3203 41.7015 21.2812 41.7521 21.2734C41.6626 21.2851 41.5732 21.2929 41.4838 21.2968C41.3205 21.3046 41.1611 21.3085 40.9977 21.2968C40.9394 21.2968 40.535 21.2382 40.7761 21.2812C40.5817 21.246 40.3951 21.2031 40.2045 21.1484C39.6641 20.9883 39.0108 20.5938 38.587 20.2072C37.9182 19.6018 37.5527 19.1058 37.1095 18.3052C36.1841 16.6375 35.7836 14.6613 35.7719 12.7085C35.7641 11.201 33.4312 11.1971 33.4389 12.7085H33.4312Z" fill="#535D64"/>
<path d="M36.7635 20.3988C39.4814 19.9028 41.616 17.7235 42.4131 15.1146C43.253 12.3534 42.5531 9.20551 40.5662 7.11213C39.5319 6.02248 38.1399 5.24527 36.6585 5.00313C36.0364 4.90159 35.4026 5.16326 35.2237 5.8233C35.0721 6.38179 35.4142 7.1629 36.0403 7.26445C38.6493 7.68625 40.4068 9.99053 40.434 12.6385C40.4457 13.9312 40.0296 15.2591 39.2986 16.2199C38.4665 17.3095 37.4556 17.9032 36.1491 18.1414C35.527 18.2547 35.1771 19.0124 35.3326 19.5826C35.5114 20.2387 36.1452 20.516 36.7674 20.4027L36.7635 20.3988Z" fill="#535D64"/>
<path d="M20.2501 24.3982C21.2688 28.0265 22.2914 31.6587 23.3102 35.2869C23.4579 35.8064 23.6018 36.3258 23.7495 36.8413L24.8733 35.3572H15.5414L16.6651 36.2164C15.6425 32.0414 14.6238 27.8625 13.6012 23.6874C13.4573 23.0938 13.3095 22.504 13.1657 21.9104C12.8079 20.4458 10.5566 21.0668 10.9144 22.5353C11.937 26.7103 12.9557 30.8893 13.9783 35.0643C14.1222 35.6579 14.2699 36.2477 14.4138 36.8413C14.5343 37.3373 15.0359 37.7006 15.5375 37.7006H24.8694C25.6237 37.7006 26.1992 36.9507 25.9931 36.2164C24.9743 32.5882 23.9517 28.956 22.933 25.3277C22.7853 24.8083 22.6414 24.2889 22.4936 23.7733C22.0854 22.3244 19.8341 22.9415 20.2423 24.3982H20.2501Z" fill="#535D64"/>
<path d="M19.0836 37.6262C19.1108 37.7199 19.1303 37.8175 19.1497 37.9152C19.0953 37.634 19.1458 37.9503 19.1497 38.0011C19.1497 38.1027 19.1458 38.2042 19.1458 38.3057C19.1458 38.626 19.2042 38.0909 19.1381 38.4073C19.0953 38.6182 19.0447 38.8291 18.9748 39.0322C18.9709 39.0478 18.8348 39.3837 18.9281 39.165C18.8659 39.3056 18.7998 39.4384 18.7259 39.5711C18.3099 40.321 17.7499 40.8873 16.9956 41.2974C16.6612 41.481 16.3152 41.6177 15.8058 41.6801C16.0313 41.6528 15.6308 41.6801 15.6308 41.6801C15.5064 41.6801 15.382 41.6801 15.2576 41.6723C14.8765 41.6528 15.4481 41.7231 15.0632 41.6489C14.8921 41.6177 14.721 41.5708 14.5538 41.5161C14.3322 41.4419 14.2116 41.3911 13.9978 41.2662C13.9317 41.2271 13.5351 40.9576 13.7256 41.106C13.5778 40.9889 13.4379 40.8561 13.3095 40.7194C13.2473 40.653 13.189 40.5827 13.1307 40.5124C13.3251 40.7389 13.084 40.4421 13.049 40.3913C12.2169 39.1376 11.9059 37.6379 10.5722 36.767C9.76344 36.2358 8.75249 36.0796 7.80375 36.1069C7.2555 36.1225 6.71114 36.1889 6.1629 36.2006C5.92182 36.2046 5.68464 36.2046 5.44357 36.2006C5.33081 36.1967 5.22194 36.1889 5.10918 36.1811C5.05863 36.1811 4.61537 36.1264 4.9031 36.1655C4.68535 36.1343 4.46372 36.0913 4.24987 36.0288C4.16433 36.0054 4.07878 35.978 3.99713 35.9468C3.86493 35.9038 3.79105 35.8452 3.95825 35.9351C3.78716 35.8452 3.62386 35.7476 3.46055 35.6461C3.7094 35.8023 3.49554 35.6773 3.44111 35.6265C3.36334 35.5484 3.28558 35.4703 3.20781 35.3922C3.16504 35.3492 3.00562 35.1227 3.1767 35.3649C3.10672 35.2672 3.04061 35.1696 2.9784 35.068C2.86175 34.8767 2.76066 34.6736 2.67512 34.4666C2.7801 34.7126 2.6479 34.3807 2.64012 34.3533C2.58958 34.2127 2.54292 34.0682 2.50015 33.9237C2.41849 33.6464 2.3485 33.3652 2.2824 33.084C2.14242 32.4669 1.43476 32.1037 0.84763 32.2638C0.21773 32.4396 -0.108885 33.0879 0.0310925 33.705C0.482132 35.6929 1.3881 37.5207 3.41778 38.2159C4.38596 38.5479 5.47079 38.5713 6.48174 38.5284C7.09219 38.501 7.70654 38.419 8.32089 38.4502C8.3831 38.4502 8.66694 38.4854 8.46864 38.4542C8.58918 38.4737 8.70583 38.4971 8.82248 38.5284C8.91579 38.5518 9.00522 38.5869 9.09854 38.6143C9.22686 38.6494 9.04022 38.5869 9.02855 38.5791C9.0791 38.6026 9.13354 38.626 9.18408 38.6572C9.26963 38.7041 9.34739 38.7588 9.43293 38.8096C9.48737 38.8408 9.28907 38.6651 9.44849 38.8252C9.51459 38.8916 9.5768 38.9541 9.6429 39.0166C9.67012 39.0439 9.69345 39.079 9.72067 39.1064C9.82565 39.2118 9.59624 38.9267 9.68178 39.0517C9.88397 39.3524 10.0589 39.661 10.2145 39.989C10.5878 40.7584 10.9377 41.5044 11.4859 42.1683C13.0762 44.0899 15.8486 44.4687 18.0182 43.3908C20.1879 42.3128 22.0115 39.5165 21.3427 36.9896C20.9578 35.5328 18.7065 36.1499 19.0914 37.6145L19.0836 37.6262Z" fill="#535D64"/>
</g>
<defs>
<clipPath id="clip0_1358_130260">
<rect width="49" height="44" fill="white"/>
</clipPath>
</defs>
</svg>
