<svg width="569" height="1184" viewBox="0 0 569 1184" fill="none" xmlns="http://www.w3.org/2000/svg">
<g clip-path="url(#clip0_37_20)">
<path d="M321.381 68.1482C321.381 68.1482 424.048 112.774 352.63 228.798C313.911 291.703 299.062 389.448 428.509 393.906C557.955 398.365 620.443 438.532 745.43 563.474C870.416 688.425 973.074 692.884 1008.78 679.498C1044.49 666.112 888.266 777.668 794.528 737.51C700.791 697.352 728.319 635.62 667.686 677.642C607.054 719.665 495.466 706.279 406.189 652.726C316.912 599.173 232.104 496.544 249.963 380.521C267.822 264.497 348.161 139.555 299.062 152.941C249.963 166.327 236.574 184.181 209.785 175.254C183.015 166.327 0 376.062 0 376.062C0 376.062 156.226 184.181 178.545 144.014C200.865 103.856 191.935 81.5434 263.353 54.7622C334.771 27.9904 348.161 32.4493 361.551 5.67739C374.94 -21.0945 352.621 54.7622 321.381 68.1482Z" fill="#FAFAFA"/>
<path d="M500 692.164C506.326 742.006 518.533 857.632 507 951.528C495.466 1045.42 468.687 1134.67 473.147 1183.75" stroke="#FAFAFA" stroke-width="6" stroke-miterlimit="10"/>
<path d="M531.397 698.626C633.436 788.626 723.12 813.376 647.232 853.534C571.354 893.691 370.48 991.87 370.48 1014.18C370.48 1036.5 357.091 1049.15 370.48 1060.67" stroke="#FAFAFA" stroke-width="6" stroke-miterlimit="10"/>
</g>
<defs>
<clipPath id="clip0_37_20">
<rect width="1014" height="1184" fill="white"/>
</clipPath>
</defs>
</svg>
