<svg width="40" height="40" viewBox="0 0 40 40" fill="none" xmlns="http://www.w3.org/2000/svg">
<g clip-path="url(#clip0_1358_130156)">
<path d="M8.5531 32.4184C9.36878 31.6021 10.1845 30.7859 11.0002 29.9697C12.9492 28.0193 14.8982 26.0689 16.8472 24.1186C19.2158 21.7483 21.5845 19.3781 23.9531 17.0078C25.9923 14.9672 28.0315 12.9266 30.0707 10.886C31.0668 9.88921 32.11 8.91992 33.0707 7.88391C33.0864 7.86821 33.0982 7.85644 33.1139 7.84074C34.1845 6.76942 32.5217 5.10161 31.4511 6.17686C30.6355 6.9931 29.8198 7.80935 29.0041 8.6256C27.0551 10.576 25.106 12.5263 23.157 14.4767C20.7884 16.8469 18.4198 19.2172 16.0511 21.5874C14.0119 23.628 11.9727 25.6687 9.93349 27.7093C8.93741 28.706 7.89428 29.6753 6.93349 30.7113C6.9178 30.727 6.90604 30.7388 6.89035 30.7545C5.81977 31.8258 7.48251 33.4936 8.5531 32.4184Z" fill="#535D64"/>
<path d="M17.9843 21.4264C18.1726 21.8777 18.2902 22.3486 18.3647 22.8273C18.3255 22.588 18.3765 22.9372 18.3804 23C18.3922 23.1295 18.4039 23.2551 18.4118 23.3846C18.4275 23.6632 18.4353 23.9458 18.4353 24.2244C18.4392 25.2918 18.3608 26.3592 18.3843 27.4226C18.4079 28.4861 18.5412 29.5378 19.0157 30.4914C19.5177 31.5 20.4549 32.1828 21.5177 32.5085C23.7334 33.1874 25.7334 31.9002 26.8667 30.0441C28.2118 27.8425 28.5647 25.021 28.2981 22.4938C27.7373 17.1646 24.4196 11.8669 19.5138 9.51232C17.8039 8.69215 15.8941 8.18199 13.9922 8.51163C12.3608 8.79418 11.0628 9.92436 10.6824 11.5529C10.4588 12.5065 10.5334 13.464 10.9961 14.3352C11.4236 15.1319 12.1373 15.7166 12.8432 16.2542C13.2039 16.5289 13.5765 16.7879 13.949 17.0469C14.1294 17.1725 14.3059 17.2981 14.4863 17.4276C14.5843 17.4982 14.6824 17.5728 14.7804 17.6434C14.8236 17.6748 14.8667 17.7062 14.9059 17.7376C15.1765 17.9416 14.8079 17.6591 14.9647 17.7847C15.3765 18.1104 15.7765 18.4557 16.149 18.8246C16.5687 19.2406 16.9138 19.6487 17.1804 20.0372C17.5412 20.563 17.8432 21.1242 18.0981 21.705C18.353 22.2858 19.2039 22.4231 19.7059 22.1288C20.3059 21.7756 20.3843 21.1007 20.1294 20.5199C19.2118 18.4322 17.651 16.8507 15.8392 15.5164C15.4902 15.2574 15.1334 15.0102 14.7765 14.7591C14.6236 14.6492 14.4706 14.5432 14.3177 14.4333C14.2432 14.3784 14.1726 14.3235 14.0981 14.2724C13.9255 14.1469 14.0981 14.2724 14.1255 14.296C14.0824 14.2607 14.0353 14.2254 13.9922 14.19C13.7216 13.9664 13.4706 13.7348 13.2353 13.4758C13.1334 13.362 13.1412 13.3345 13.2353 13.4837C13.1961 13.4209 13.153 13.3659 13.1138 13.3032C13.0745 13.2404 13.0432 13.1776 13.0079 13.1187C12.8706 12.8754 13.0157 13.2168 12.9843 13.0755C12.9726 13.0088 12.9451 12.9343 12.9255 12.8715C12.8785 12.7106 12.9138 12.7263 12.9138 12.895C12.9138 12.7106 12.902 12.5301 12.9098 12.3456C12.9137 12.1337 12.8549 12.534 12.9177 12.3182C12.9451 12.2318 12.9569 12.1376 12.9804 12.0474C13.0079 11.9532 13.0392 11.859 13.0667 11.7648C13.149 11.5058 12.9922 11.8629 13.0667 11.7491C13.1334 11.651 13.2039 11.5333 13.2549 11.4274C13.3334 11.2704 13.0863 11.5843 13.2196 11.4705C13.2785 11.4195 13.3334 11.3489 13.3883 11.2939C13.4275 11.2547 13.4941 11.2194 13.5255 11.1723C13.4588 11.2743 13.3255 11.3057 13.4863 11.2076C13.6039 11.133 13.7255 11.0702 13.8432 10.9996C14.0706 10.8623 13.651 11.0546 13.8353 10.9996C13.8981 10.98 13.9608 10.9525 14.0275 10.9329C14.1726 10.8858 14.3177 10.8505 14.4667 10.8191C14.549 10.8034 14.6353 10.7916 14.7177 10.7759C14.5451 10.8112 14.5373 10.7956 14.702 10.7838C14.8667 10.772 15.0392 10.7642 15.2079 10.7642C15.3765 10.7642 15.5647 10.7759 15.7412 10.7916C15.8275 10.7995 15.9098 10.8112 15.9961 10.8191C15.749 10.7916 15.953 10.8191 16.0706 10.8348C16.4667 10.9054 16.8549 11.0035 17.2392 11.1291C17.4432 11.1958 17.6432 11.2665 17.8432 11.3449C17.9138 11.3724 18.1216 11.4627 17.9373 11.3803C18.0471 11.4313 18.1569 11.4784 18.2667 11.5294C18.6902 11.7295 19.1059 11.9571 19.5059 12.2083C19.7138 12.3378 19.9216 12.4751 20.1255 12.6203C20.2196 12.687 20.3138 12.7577 20.4079 12.8244C20.4079 12.8244 20.5608 12.9421 20.4785 12.8754C20.4079 12.8205 20.5765 12.9539 20.5922 12.9657C21.0079 13.3032 21.4079 13.6603 21.7843 14.0409C23.4706 15.7362 24.7883 17.8985 25.4785 20.2687C25.8432 21.5206 26.0236 22.7606 26.0157 24.0635C26.0079 25.2368 25.8824 26.2022 25.5138 27.3481C25.4549 27.5247 25.3294 27.8779 25.302 27.9446C25.2667 28.0348 25.0902 28.3959 24.9922 28.5803C24.8941 28.7647 24.7765 28.957 24.6549 29.1336C24.6275 29.1729 24.4667 29.3926 24.5334 29.3063C24.6157 29.2043 24.5098 29.3338 24.4981 29.3455C24.4432 29.4083 24.3922 29.4711 24.3334 29.53C24.2039 29.6713 24.0628 29.7968 23.9216 29.9263C23.8236 30.0166 23.9687 29.891 23.9804 29.8871C23.9451 29.9146 23.9059 29.942 23.8706 29.9656C23.7687 30.0284 23.6706 30.0951 23.5687 30.1539C23.5294 30.1736 23.2863 30.2913 23.4353 30.2285C23.5843 30.1657 23.3373 30.2599 23.2941 30.2756C23.2118 30.3031 23.1294 30.3188 23.0471 30.3423C22.7883 30.409 23.1726 30.358 22.9804 30.358C22.8785 30.358 22.7804 30.3658 22.6785 30.3658C22.6314 30.3658 22.3647 30.3345 22.5255 30.358C22.6863 30.3815 22.4 30.3266 22.3569 30.3148C22.2275 30.2834 22.1059 30.2403 21.9804 30.201C21.7922 30.1461 22.051 30.2599 21.8353 30.1343C21.753 30.0872 21.6667 30.0401 21.5843 29.9891C21.5451 29.9656 21.5059 29.9381 21.4667 29.9106C21.4785 29.9185 21.6196 30.0401 21.5255 29.9538C21.451 29.8832 21.3804 29.8007 21.302 29.734C21.1569 29.6085 21.3765 29.8792 21.2432 29.6595C21.1961 29.5849 21.149 29.5104 21.1059 29.4358C21.0863 29.3966 20.9687 29.1572 21.0314 29.2945C21.0902 29.4279 20.9804 29.1454 20.9647 29.0944C20.902 28.8982 20.8549 28.698 20.8196 28.4979C20.8118 28.4547 20.7726 28.1761 20.7883 28.3135C20.8039 28.439 20.7726 28.1251 20.7687 28.0662C20.6118 26.0766 20.9451 24.091 20.6157 22.1092C20.5412 21.6618 20.4236 21.2302 20.251 20.8103C20.0079 20.2256 19.4706 19.8057 18.8039 19.9862C18.251 20.1392 17.7373 20.8456 17.9804 21.4342L17.9843 21.4264Z" fill="#535D64"/>
<path d="M15.2354 6.40838C15.2433 6.94993 15.2472 7.49148 15.255 8.03303C15.255 8.11151 15.255 8.19 15.255 8.26848C15.255 8.57065 15.3845 8.88459 15.6001 9.10043C15.8041 9.30449 16.1374 9.45753 16.4315 9.44576C16.7256 9.43399 17.0511 9.33196 17.2629 9.10043C17.4746 8.8689 17.6119 8.58635 17.608 8.26848C17.6001 7.72694 17.5962 7.18539 17.5884 6.64384C17.5884 6.56535 17.5884 6.48687 17.5884 6.40838C17.5884 6.10622 17.459 5.79227 17.2433 5.57644C17.0394 5.37238 16.706 5.21933 16.4119 5.2311C16.1178 5.24288 15.7923 5.34491 15.5805 5.57644C15.3688 5.80797 15.2315 6.09052 15.2354 6.40838Z" fill="#535D64"/>
<path d="M16.4117 11.1174C16.4195 11.6589 16.4235 12.2005 16.4313 12.742C16.4313 12.8205 16.4313 12.899 16.4313 12.9775C16.4313 13.2796 16.5607 13.5936 16.7764 13.8094C16.9803 14.0135 17.3137 14.1665 17.6078 14.1547C17.9019 14.143 18.2274 14.0409 18.4392 13.8094C18.6509 13.5779 18.7882 13.2953 18.7843 12.9775C18.7764 12.4359 18.7725 11.8944 18.7646 11.3528C18.7646 11.2743 18.7646 11.1959 18.7646 11.1174C18.7646 10.8152 18.6352 10.5013 18.4195 10.2854C18.2156 10.0814 17.8823 9.92832 17.5882 9.94009C17.2941 9.95186 16.9686 10.0539 16.7568 10.2854C16.545 10.517 16.4078 10.7995 16.4117 11.1174Z" fill="#535D64"/>
<path d="M21.1178 32.7009C21.1256 33.2424 21.1295 33.784 21.1374 34.3255C21.1374 34.404 21.1374 34.4825 21.1374 34.561C21.1374 34.8631 21.2668 35.1771 21.4825 35.3929C21.6864 35.597 22.0197 35.75 22.3138 35.7382C22.608 35.7265 22.9334 35.6244 23.1452 35.3929C23.357 35.1614 23.4942 34.8788 23.4903 34.561C23.4825 34.0194 23.4785 33.4779 23.4707 32.9363C23.4707 32.8578 23.4707 32.7793 23.4707 32.7009C23.4707 32.3987 23.3413 32.0848 23.1256 31.8689C22.9217 31.6649 22.5883 31.5118 22.2942 31.5236C22.0001 31.5354 21.6746 31.6374 21.4629 31.8689C21.2511 32.1005 21.1138 32.383 21.1178 32.7009Z" fill="#535D64"/>
<path d="M18.5413 28.6234C18.0354 28.8196 17.5334 29.0158 17.0275 29.212L16.8118 29.2944C16.6589 29.3297 16.5256 29.4004 16.4118 29.5063C16.2824 29.5887 16.1844 29.6986 16.1099 29.836C16.0236 29.9694 15.9766 30.1185 15.9687 30.2755C15.9334 30.4324 15.9413 30.5894 15.9883 30.7464C16.0785 31.0329 16.255 31.3076 16.5295 31.4488C16.804 31.5901 17.1452 31.6804 17.4354 31.5666C17.9413 31.3703 18.4432 31.1741 18.9491 30.9779L19.1648 30.8955C19.3177 30.8602 19.4511 30.7896 19.5648 30.6836C19.6942 30.6012 19.7922 30.4913 19.8668 30.354C19.953 30.2205 20.0001 30.0714 20.0079 29.9144C20.0432 29.7575 20.0354 29.6005 19.9883 29.4435C19.8981 29.1571 19.7217 28.8824 19.4471 28.7411C19.1726 28.5998 18.8315 28.5096 18.5413 28.6234Z" fill="#535D64"/>
<path d="M21.6785 25.4842C21.1726 25.6804 20.6706 25.8766 20.1647 26.0728L19.9491 26.1553C19.7961 26.1906 19.6628 26.2612 19.5491 26.3672C19.4196 26.4496 19.3216 26.5594 19.2471 26.6968C19.1608 26.8302 19.1138 26.9793 19.1059 27.1363C19.0706 27.2933 19.0785 27.4503 19.1255 27.6072C19.2157 27.8937 19.3922 28.1684 19.6667 28.3097C19.9412 28.4509 20.2824 28.5412 20.5726 28.4274C21.0785 28.2312 21.5804 28.035 22.0863 27.8388L22.302 27.7564C22.4549 27.721 22.5883 27.6504 22.702 27.5444C22.8314 27.462 22.9294 27.3521 23.004 27.2148C23.0902 27.0814 23.1373 26.9323 23.1451 26.7753C23.1804 26.6183 23.1726 26.4613 23.1255 26.3044C23.0353 26.0179 22.8589 25.7432 22.5843 25.6019C22.3098 25.4607 21.9687 25.3704 21.6785 25.4842Z" fill="#535D64"/>
<path d="M21.7331 8.20193C21.3527 8.58651 20.9684 8.96716 20.588 9.35174C20.5331 9.40668 20.4782 9.46162 20.4233 9.51656C20.3096 9.62251 20.2272 9.74809 20.1802 9.89721C20.1057 10.0385 20.0743 10.1876 20.0782 10.3524C20.0704 10.5133 20.1057 10.6664 20.1802 10.8076C20.2272 10.9528 20.3096 11.0784 20.4233 11.1883C20.6468 11.3924 20.941 11.5454 21.2547 11.5336C21.5684 11.5219 21.8625 11.4159 22.0861 11.1883C22.4665 10.8037 22.8508 10.4231 23.2312 10.0385C23.2861 9.98354 23.341 9.9286 23.3959 9.87366C23.5096 9.76771 23.5919 9.64213 23.639 9.49301C23.7135 9.35174 23.7449 9.20261 23.741 9.0378C23.7488 8.8769 23.7135 8.72386 23.639 8.58258C23.5919 8.43738 23.5096 8.31181 23.3959 8.20193C23.1723 7.99787 22.8782 7.84482 22.5645 7.85659C22.2508 7.86837 21.9567 7.97432 21.7331 8.20193Z" fill="#535D64"/>
<path d="M29.1608 17.3414C28.6392 17.4787 28.1137 17.62 27.5922 17.7573L27.3686 17.8162C27.0824 17.8908 26.8118 18.1027 26.6667 18.3578C26.5216 18.6128 26.4549 18.9817 26.549 19.2643C26.6431 19.5468 26.8157 19.8254 27.0902 19.9667C27.3647 20.108 27.6824 20.1668 27.9961 20.0844C28.5177 19.9471 29.0431 19.8058 29.5647 19.6685L29.7882 19.6096C30.0745 19.535 30.3451 19.3231 30.4902 19.0681C30.6353 18.813 30.702 18.4441 30.6079 18.1615C30.5137 17.879 30.3412 17.6004 30.0667 17.4591C29.7922 17.3178 29.4745 17.259 29.1608 17.3414Z" fill="#535D64"/>
<path d="M26.0236 20.4805C25.502 20.6179 24.9765 20.7592 24.455 20.8965L24.2314 20.9554C23.9452 21.0299 23.6746 21.2418 23.5295 21.4969C23.3844 21.752 23.3177 22.1209 23.4118 22.4034C23.5059 22.686 23.6785 22.9646 23.953 23.1059C24.2275 23.2471 24.5452 23.306 24.8589 23.2236C25.3805 23.0862 25.9059 22.945 26.4275 22.8076L26.651 22.7488C26.9373 22.6742 27.2079 22.4623 27.353 22.2072C27.4981 21.9521 27.5648 21.5833 27.4706 21.3007C27.3765 21.0182 27.204 20.7395 26.9295 20.5983C26.655 20.457 26.3373 20.3981 26.0236 20.4805Z" fill="#535D64"/>
<path d="M13.4983 16.8352C13.1179 17.2198 12.7336 17.6005 12.3532 17.985C12.2983 18.04 12.2434 18.0949 12.1885 18.1499C12.0747 18.2558 11.9924 18.3814 11.9453 18.5305C11.8708 18.6718 11.8394 18.8209 11.8434 18.9857C11.8355 19.1466 11.8708 19.2997 11.9453 19.4409C11.9924 19.5861 12.0747 19.7117 12.1885 19.8216C12.412 20.0257 12.7061 20.1787 13.0198 20.1669C13.3336 20.1552 13.6277 20.0492 13.8512 19.8216C14.2316 19.437 14.6159 19.0564 14.9963 18.6718C15.0512 18.6168 15.1061 18.5619 15.161 18.507C15.2747 18.401 15.3571 18.2754 15.4041 18.1263C15.4787 17.985 15.51 17.8359 15.5061 17.6711C15.5139 17.5102 15.4787 17.3572 15.4041 17.2159C15.3571 17.0707 15.2747 16.9451 15.161 16.8352C14.9375 16.6312 14.6434 16.4781 14.3296 16.4899C14.0159 16.5017 13.7218 16.6076 13.4983 16.8352Z" fill="#535D64"/>
<path d="M11.0666 12.3301C10.5294 12.3928 9.99214 12.4556 9.45096 12.5184C9.37645 12.5263 9.29802 12.538 9.22351 12.5459C9.06272 12.538 8.90978 12.5734 8.76861 12.6479C8.62351 12.695 8.49802 12.7774 8.38821 12.8912C8.18429 13.0953 8.03135 13.4288 8.04312 13.7232C8.05488 14.0175 8.15684 14.3432 8.38821 14.5551C8.6039 14.7513 8.91763 14.9358 9.21959 14.9004C9.75684 14.8377 10.2941 14.7749 10.8353 14.7121C10.9098 14.7042 10.9882 14.6925 11.0627 14.6846C11.2235 14.6925 11.3764 14.6571 11.5176 14.5826C11.6627 14.5355 11.7882 14.4531 11.898 14.3393C12.1019 14.1352 12.2549 13.8017 12.2431 13.5073C12.2314 13.213 12.1294 12.8873 11.898 12.6754C11.6823 12.4792 11.3686 12.2947 11.0666 12.3301Z" fill="#535D64"/>
<path d="M30.9802 23.6164C30.4468 23.5301 29.9096 23.4398 29.3763 23.3535L29.1488 23.3182C28.9919 23.2672 28.8351 23.2632 28.6782 23.2986C28.5214 23.3064 28.3763 23.3535 28.239 23.4398C27.9959 23.5811 27.7606 23.8637 27.6978 24.1423C27.6312 24.4444 27.6429 24.7819 27.8155 25.0488C27.9723 25.2921 28.2233 25.5432 28.5174 25.5903C29.0508 25.6767 29.588 25.7669 30.1214 25.8533L30.3488 25.8886C30.5057 25.9396 30.6625 25.9435 30.8194 25.9082C30.9763 25.9003 31.1214 25.8533 31.2586 25.7669C31.5017 25.6256 31.737 25.3431 31.7998 25.0645C31.8664 24.7623 31.8547 24.4248 31.6821 24.158C31.5253 23.9147 31.2743 23.6635 30.9802 23.6164Z" fill="#535D64"/>
<path d="M29.1607 30.374C28.7098 30.0757 28.2588 29.7775 27.8078 29.4832L27.6117 29.3537C27.4784 29.2673 27.3294 29.2202 27.1725 29.2124C27.0156 29.1771 26.8588 29.1849 26.7019 29.232C26.549 29.2673 26.4156 29.338 26.3019 29.4439C26.1725 29.5263 26.0745 29.6362 26 29.7735C25.8549 30.0482 25.7843 30.3779 25.8823 30.6801L26 30.9626C26.1058 31.1392 26.247 31.2805 26.4235 31.3864C26.8745 31.6847 27.3255 31.9829 27.7764 32.2772L27.9725 32.4067C28.1058 32.4931 28.2549 32.5402 28.4117 32.548C28.5686 32.5833 28.7255 32.5755 28.8823 32.5284C29.0353 32.4931 29.1686 32.4224 29.2823 32.3165C29.4117 32.2341 29.5098 32.1242 29.5843 31.9868C29.7294 31.7121 29.8 31.3825 29.7019 31.0803L29.5843 30.7978C29.4784 30.6212 29.3372 30.4799 29.1607 30.374Z" fill="#535D64"/>
<path d="M37.6471 19.9979C37.6353 23.7142 36.5138 27.246 34.3255 30.3187C32.353 33.0932 29.3334 35.3967 26.1294 36.5662C19.0706 39.1444 11.153 36.9821 6.34905 31.2017C1.54512 25.4213 1.07454 17.1921 4.89414 10.8662C5.84316 9.29646 6.91375 8.01715 8.31375 6.76531C9.60395 5.6155 11.1451 4.61874 12.8157 3.85744C16.0392 2.39369 19.9726 1.96987 23.4589 2.68016C30.6941 4.15568 36.2824 10.0107 37.4471 17.3255C37.5647 18.0672 37.6392 19.111 37.6392 20.0018C37.6432 21.5166 39.9961 21.5205 39.9922 20.0018C39.9765 15.8853 38.7138 11.7923 36.3138 8.44097C33.9255 5.10928 30.6039 2.57028 26.749 1.16539C18.9569 -1.67185 9.85493 0.820057 4.60003 7.2323C1.9765 10.4384 0.388261 14.347 0.0588492 18.4871C-0.266641 22.5919 0.733359 26.7987 2.86277 30.3227C4.99218 33.8466 8.00787 36.5308 11.6314 38.1751C15.5334 39.9489 19.8863 40.4473 24.0902 39.5918C32.0706 37.9632 38.5177 31.237 39.7451 23.1687C39.9059 22.117 40 21.0614 40.004 19.9979C40.0079 18.4832 37.6549 18.4792 37.651 19.9979H37.6471Z" fill="#535D64"/>
</g>
<defs>
<clipPath id="clip0_1358_130156">
<rect width="40" height="40" fill="white"/>
</clipPath>
</defs>
</svg>
