<svg width="44" height="45" viewBox="0 0 44 45" fill="none" xmlns="http://www.w3.org/2000/svg">
<g clip-path="url(#clip0_1358_130233)">
<path d="M24.925 13.2648C24.8977 8.84453 22.5377 4.67049 18.7172 2.44276C14.8967 0.218949 10.0286 0.218949 6.20806 2.44667C2.42261 4.65094 0.0274947 8.80545 0.000233283 13.1984C-0.0270282 17.5952 2.33693 21.7731 6.09901 24.0243C10.862 26.8735 17.027 26.1074 21.0539 22.3281C22.156 21.2963 20.5009 19.6392 19.4026 20.671C17.8565 22.121 15.8703 23.0941 13.7595 23.3599C13.2415 23.4263 12.7119 23.442 12.1861 23.4303C11.7188 23.4185 11.2281 23.3755 10.8853 23.3169C10.4531 23.2427 10.0208 23.145 9.60016 23.0199C9.17956 22.8948 8.65769 22.7111 8.35782 22.5704C6.72603 21.8044 5.30843 20.6945 4.32312 19.3305C4.07387 18.9826 3.8402 18.6231 3.6299 18.2479C3.52475 18.0603 3.42349 17.8688 3.33003 17.6773C3.22098 17.4584 3.12751 17.2434 3.08078 17.1262C2.75364 16.2976 2.47713 15.2307 2.39924 14.492C2.20062 12.6512 2.46155 10.783 3.16646 9.208C3.34171 8.81718 3.54033 8.43416 3.76232 8.06288C3.95704 7.73458 4.30754 7.21869 4.45164 7.035C4.73983 6.66762 5.05918 6.31978 5.39021 5.99149C5.6823 5.70227 6.09512 5.34662 6.3171 5.17856C6.97138 4.69003 7.8749 4.16632 8.49413 3.90446C8.9342 3.72077 9.38986 3.56835 9.8533 3.44719C10.2466 3.34167 10.8542 3.22051 11.1073 3.18925C12.9416 2.95866 14.811 3.2127 16.3883 3.88883C20.1815 5.51858 22.5649 9.21973 22.5883 13.2687C22.5961 14.7773 24.9328 14.7812 24.925 13.2687V13.2648Z" fill="#535D64"/>
<path d="M32.694 42.698C32.2267 42.6316 31.7555 42.573 31.292 42.4831C31.0973 42.444 30.9026 42.401 30.7156 42.3502C30.63 42.3268 30.5404 42.2994 30.4547 42.2681C30.4002 42.2486 30.3418 42.2251 30.2872 42.2056C30.0847 42.1431 30.5287 42.3424 30.3496 42.229C30.186 42.1274 30.0068 42.0297 29.8394 41.932C29.6875 41.8421 29.9212 41.9946 29.9329 42.0063C29.89 41.9633 29.8394 41.9281 29.7926 41.8851C29.7109 41.803 29.633 41.7171 29.5512 41.635C29.3798 41.463 29.668 41.8304 29.5122 41.5803C29.4499 41.4787 29.3837 41.377 29.3253 41.2715C29.263 41.1582 29.2085 41.0409 29.154 40.9237C29.2786 41.1816 29.1851 41.0058 29.1617 40.9354C29.1267 40.8377 29.0916 40.74 29.0566 40.6423C28.4997 38.9461 28.523 37.2577 28.523 35.3778C28.523 33.6152 28.488 31.8369 28.6321 30.0782C28.6438 29.9297 28.6594 29.7812 28.6749 29.6326C28.6827 29.5467 28.6944 29.4646 28.7061 29.3786C28.7061 29.406 28.6632 29.6561 28.6983 29.449C28.745 29.1793 28.7918 28.9057 28.858 28.6399C28.9125 28.4289 28.9748 28.2178 29.0449 28.0146C29.08 27.9208 29.115 27.827 29.154 27.7332C29.0138 28.1045 29.189 27.6707 29.2279 27.5847C29.4421 27.147 29.7031 26.7366 29.9796 26.338C30.1432 26.1035 30.3106 25.869 30.4781 25.6384C30.5715 25.5094 30.6689 25.3843 30.7624 25.2554C30.8091 25.1928 30.8558 25.1342 30.8987 25.0717C30.9337 25.0209 30.7079 25.3101 30.8792 25.0951C32.5616 23.0237 34.4505 21.1165 36.3081 19.2053C37.8231 17.6498 39.3497 16.1061 40.892 14.5779C41.9629 13.5149 40.3117 11.8578 39.2407 12.9208C37.8815 14.2653 36.534 15.6254 35.1982 16.9933C33.212 19.0256 31.1713 21.054 29.372 23.2582C28.6321 24.165 27.8882 25.1225 27.3313 26.1543C26.7744 27.1861 26.494 28.2882 26.3538 29.4568C26.1552 31.1295 26.1863 32.8335 26.1863 34.518C26.1863 36.605 26.1396 38.7624 26.6693 40.7986C27.012 42.1274 27.6935 43.4054 28.9086 44.1128C29.8783 44.6756 30.9883 44.7968 32.0787 44.9531C32.7018 45.043 33.3327 44.8007 33.5158 44.1324C33.6677 43.5813 33.3289 42.7801 32.6979 42.6902L32.694 42.698Z" fill="#535D64"/>
<path d="M21.077 44.9569C22.074 44.8162 23.0632 44.6951 23.9823 44.2534C25.065 43.7336 25.766 42.7683 26.1983 41.674C26.8565 40.0208 26.9343 38.1213 26.9616 36.3626C26.9889 34.385 27.0083 32.3879 26.8837 30.4103C26.8019 29.1518 26.6189 27.9285 26.1165 26.7678C25.6803 25.7555 25.0144 24.8683 24.3523 23.9968C22.6738 21.7769 20.6681 19.7915 18.7325 17.7983C17.1436 16.1607 15.5352 14.5348 13.9151 12.9285C12.8441 11.8694 11.1889 13.5265 12.2638 14.5856C15.5274 17.8178 18.8572 21.0539 21.8326 24.5635C21.9844 24.7394 22.1324 24.9231 22.2765 25.1028C22.479 25.353 22.1013 24.8683 22.3349 25.181C22.4518 25.3334 22.5647 25.4859 22.6816 25.6422C23.0009 26.076 23.3164 26.5137 23.5968 26.9788C23.7175 27.1781 23.8304 27.3814 23.9317 27.5885C23.9823 27.6901 24.0252 27.7917 24.0719 27.8934C23.9473 27.6237 24.0524 27.8504 24.103 27.9872C24.2744 28.464 24.3679 28.9564 24.4613 29.4528C24.473 29.5192 24.4886 29.6794 24.4536 29.3824C24.4652 29.4684 24.473 29.5505 24.4847 29.6365C24.5003 29.7693 24.512 29.9022 24.5237 30.0351C24.5548 30.3868 24.5704 30.7347 24.586 31.0864C24.621 31.9697 24.6288 32.853 24.6327 33.7362C24.6366 34.8892 24.6561 36.046 24.6093 37.199C24.5704 38.137 24.5159 38.8756 24.3523 39.6729C24.2744 40.0598 24.177 40.4429 24.0446 40.8141C24.0252 40.8689 24.0018 40.9236 23.9823 40.9783C23.8966 41.2245 24.0836 40.7985 23.9706 41.0017C23.8966 41.1346 23.8382 41.2753 23.7564 41.4043C23.7019 41.4981 23.4137 41.8342 23.663 41.5645C23.5812 41.6505 23.5111 41.7443 23.4254 41.8264C23.328 41.9241 23.0554 42.0765 23.3631 41.9046C23.2618 41.9632 23.1684 42.0413 23.0671 42.1C22.9736 42.1547 22.8646 42.1899 22.7789 42.2485C22.6621 42.3306 23.071 42.1508 22.8685 42.2094C22.8101 42.225 22.7556 42.2524 22.701 42.2719C22.4674 42.354 22.2298 42.4126 21.9883 42.4634C21.4821 42.569 20.9719 42.6315 20.4617 42.7019C19.8347 42.7917 19.492 43.589 19.6439 44.144C19.8269 44.8201 20.4539 45.0507 21.0809 44.9647L21.077 44.9569Z" fill="#535D64"/>
<path d="M20.6406 44.9998H31.9658C33.4691 44.9998 33.473 42.6548 31.9658 42.6548H20.6406C19.1374 42.6548 19.1335 44.9998 20.6406 44.9998Z" fill="#535D64"/>
<path d="M13.0894 14.6951H39.9341C41.4374 14.6951 41.4413 12.3501 39.9341 12.3501H13.0894C11.5861 12.3501 11.5822 14.6951 13.0894 14.6951Z" fill="#535D64"/>
<path d="M27.6079 26.8657C28.266 24.1846 28.9242 21.4996 29.5785 18.8185C30.6261 14.5389 31.6737 10.2633 32.7252 5.98371C32.9667 4.99882 33.2082 4.01002 33.4496 3.02513L32.6318 3.84587C35.7045 3.3886 38.7773 2.93134 41.85 2.47407L43.1469 2.28256C43.77 2.18876 44.1166 1.39929 43.9647 0.840402C43.7817 0.168177 43.1547 -0.0702283 42.5277 0.0196623C39.4549 0.476932 36.3822 0.934201 33.3094 1.39147L32.0125 1.58298C31.6309 1.63769 31.2843 2.04415 31.1947 2.40372C30.5365 5.0848 29.8784 7.76979 29.2241 10.4509C28.1765 14.7304 27.1288 19.0061 26.0773 23.2857C25.8359 24.2706 25.5944 25.2594 25.353 26.2443C24.9947 27.7099 27.2457 28.3352 27.6079 26.8696V26.8657Z" fill="#535D64"/>
<path d="M14.7991 12.8738V7.79304C14.7991 7.17944 14.2617 6.59319 13.6308 6.62055C12.9998 6.64791 12.4624 7.13644 12.4624 7.79304V12.8738C12.4624 13.4874 12.9998 14.0736 13.6308 14.0463C14.2617 14.0189 14.7991 13.5304 14.7991 12.8738Z" fill="#535D64"/>
<path d="M9.86863 18.5528C11.0409 17.6578 12.217 16.7628 13.3893 15.8639C13.5606 15.7349 13.7281 15.6059 13.8994 15.477C14.1526 15.2855 14.3473 15.0979 14.4369 14.7774C14.5148 14.496 14.4797 14.1247 14.32 13.8746C14.1604 13.6244 13.9189 13.4056 13.6229 13.3352C13.3269 13.2649 12.9686 13.2688 12.7233 13.4525C11.5511 14.3475 10.3749 15.2425 9.20267 16.1414C9.03132 16.2703 8.86385 16.3993 8.6925 16.5283C8.43935 16.7198 8.24463 16.9074 8.15506 17.2279C8.07717 17.5093 8.11222 17.8806 8.27189 18.1307C8.43156 18.3808 8.67302 18.5997 8.96901 18.67C9.26499 18.7404 9.62328 18.7365 9.86863 18.5528Z" fill="#535D64"/>
<path d="M8.13969 12.0454C9.75201 12.8935 11.3604 13.7377 12.9728 14.5858C13.2025 14.707 13.4323 14.8281 13.6621 14.9454C14.2034 15.2307 14.9551 15.1017 15.2588 14.5233C15.5431 13.984 15.4185 13.2218 14.8382 12.9209C13.2259 12.0728 11.6175 11.2286 10.0052 10.3805C9.77538 10.2594 9.54561 10.1382 9.31583 10.021C8.7745 9.73565 8.02286 9.86463 7.71909 10.4431C7.43479 10.9824 7.55941 11.7445 8.13969 12.0454Z" fill="#535D64"/>
</g>
<defs>
<clipPath id="clip0_1358_130233">
<rect width="44" height="45" fill="white"/>
</clipPath>
</defs>
</svg>
