<svg width="44" height="42" viewBox="0 0 44 42" fill="none" xmlns="http://www.w3.org/2000/svg">
<g clip-path="url(#clip0_1358_130252)">
<path d="M25.6103 2.15358C25.5709 0.983522 24.4708 0.301587 23.4244 0.107774C22.3781 -0.0860388 21.0487 -0.0465583 20.117 0.581539C19.6368 0.90815 19.2642 1.34602 19.1853 1.93464C19.1065 2.52326 19.3251 3.05804 19.7443 3.43849C20.5506 4.16708 21.7725 4.39678 22.826 4.28552C24.0408 4.15631 25.5601 3.6 25.6103 2.15358C25.6282 1.59008 25.1015 1.05172 24.5353 1.07684C23.9369 1.10196 23.4818 1.5506 23.4603 2.15358C23.4567 2.30432 23.4889 1.95977 23.4854 1.9813C23.4854 2.00283 23.4746 2.03155 23.4639 2.05308C23.4567 2.06744 23.5857 1.76236 23.5248 1.90234C23.5176 1.91311 23.4889 1.97053 23.4818 1.97053C23.4603 1.97771 23.6896 1.74442 23.5678 1.85209C23.5499 1.86645 23.5355 1.88439 23.5212 1.89875C23.4925 1.93105 23.3958 2.00283 23.5391 1.89157C23.6932 1.77313 23.5642 1.87004 23.5248 1.89157C23.4639 1.93105 23.3994 1.95977 23.3349 1.99566C23.2524 2.03873 23.2166 1.99566 23.4316 1.95618C23.3958 1.96335 23.3528 1.98848 23.3169 1.99925C23.1521 2.05667 22.9837 2.09256 22.8117 2.12845C22.6182 2.17152 22.8762 2.10692 22.8905 2.12128C22.8834 2.1141 22.7436 2.13563 22.7472 2.13563C22.6504 2.14281 22.5501 2.14999 22.4534 2.14999C22.3674 2.14999 22.2778 2.14999 22.1918 2.14999C22.1488 2.14999 21.8908 2.09974 21.8657 2.12487C21.88 2.1141 22.138 2.17511 21.9445 2.13204C21.9015 2.12128 21.8549 2.1141 21.8119 2.10692C21.7367 2.09256 21.665 2.07103 21.5898 2.04949C21.5109 2.02796 21.4321 1.99925 21.3568 1.97053C21.2278 1.92746 21.5647 2.0818 21.4536 2.01001C21.4142 1.98489 21.3712 1.97053 21.3318 1.949C21.2995 1.93105 21.1669 1.87363 21.1562 1.83773C21.1526 1.82338 21.3748 2.03514 21.2601 1.9167C21.2458 1.90234 21.2278 1.88439 21.2099 1.87004C21.1741 1.84132 21.106 1.74442 21.2243 1.89875C21.3425 2.05308 21.2708 1.96335 21.2493 1.92387C21.2243 1.8808 21.1848 1.78749 21.2601 1.96335C21.3425 2.15358 21.2852 2.02796 21.278 1.98489C21.278 1.96694 21.3103 2.3115 21.3031 2.15717C21.3031 2.07103 21.3569 1.97412 21.278 2.32945C21.2816 2.3115 21.2888 2.29355 21.2923 2.27561C21.3282 2.16435 21.1562 2.51967 21.2279 2.42635C21.2422 2.40482 21.2601 2.37969 21.2709 2.35816C21.321 2.25407 21.0881 2.54838 21.1813 2.4766C21.1992 2.46224 21.2135 2.4443 21.2279 2.42994C21.3139 2.34739 21.3784 2.36175 21.1562 2.4766C21.2171 2.4443 21.2708 2.40123 21.3318 2.36534C21.3712 2.3438 21.5862 2.25048 21.407 2.32227C21.2279 2.39405 21.4966 2.29355 21.5324 2.28279C21.6256 2.25407 21.7188 2.22895 21.8155 2.20742C21.8657 2.19665 22.1165 2.16076 21.9445 2.1787C21.7582 2.20024 22.0843 2.16793 22.1237 2.16435C22.3351 2.14999 22.5465 2.15358 22.7544 2.17152C22.7902 2.17152 22.826 2.1787 22.8619 2.18229C23.0016 2.19306 22.6218 2.13922 22.8189 2.18229C22.9264 2.20383 23.0374 2.22536 23.1414 2.25407C23.2202 2.27561 23.299 2.30432 23.3779 2.32945C23.5427 2.38328 23.299 2.29714 23.2847 2.28638C23.3169 2.3115 23.3743 2.32945 23.4101 2.34739C23.4782 2.38328 23.5391 2.43353 23.6108 2.46942C23.3814 2.35098 23.4424 2.32945 23.5069 2.39046C23.5319 2.41558 23.5606 2.4443 23.5857 2.46942C23.6753 2.54838 23.4459 2.2469 23.4961 2.35098C23.4961 2.35457 23.5499 2.43712 23.5463 2.43712C23.5391 2.43712 23.4388 2.15717 23.4782 2.28638C23.5284 2.44071 23.4531 1.97771 23.4603 2.14999C23.4782 2.71348 23.9404 3.25185 24.5353 3.22673C25.1301 3.2016 25.6318 2.75296 25.6103 2.14999V2.15358Z" fill="#535D64"/>
<path d="M35.479 33.3429H8.60381L9.67882 34.4196V26.1646L8.60381 27.2414H35.479L34.404 26.1646V34.4196C34.404 35.805 36.554 35.8086 36.554 34.4196V26.1646C36.554 25.5832 36.0631 25.0879 35.479 25.0879H8.60381C8.02331 25.0879 7.52881 25.5796 7.52881 26.1646V34.4196C7.52881 35.0011 8.01973 35.4964 8.60381 35.4964H35.479C36.8621 35.4964 36.8657 33.3429 35.479 33.3429Z" fill="#535D64"/>
<path d="M29.3869 29.0359H14.6951L15.7701 30.1127V26.1646L14.6951 27.2414H29.3869L28.3119 26.1646V30.1127C28.3119 31.4981 30.4619 31.5017 30.4619 30.1127V26.1646C30.4619 25.5832 29.971 25.0879 29.3869 25.0879H14.6951C14.1146 25.0879 13.6201 25.5796 13.6201 26.1646V30.1127C13.6201 30.6941 14.111 31.1894 14.6951 31.1894H29.3869C30.7701 31.1894 30.7736 29.0359 29.3869 29.0359Z" fill="#535D64"/>
<path d="M24.8791 21.2478C26.6636 19.3958 27.5809 16.8798 27.5953 14.3207C27.5953 13.7573 27.0972 13.2189 26.5203 13.244C25.9433 13.2691 25.4488 13.7178 25.4452 14.3207C25.4452 14.6151 25.4309 14.9094 25.4058 15.2037C25.3987 15.2719 25.3915 15.3401 25.3843 15.4083C25.37 15.5841 25.4094 15.2539 25.3843 15.4262C25.3628 15.559 25.3413 15.6918 25.3162 15.8246C25.2123 16.3737 25.0582 16.9121 24.854 17.4289C24.8468 17.4469 24.7716 17.6335 24.8182 17.5223C24.8647 17.411 24.7859 17.594 24.7752 17.612C24.7214 17.7268 24.6677 17.8417 24.6103 17.9565C24.4885 18.1934 24.3559 18.4267 24.2126 18.6492C24.1445 18.7533 24.0764 18.8574 24.0047 18.9579C23.9689 19.0082 23.9331 19.0584 23.8972 19.1086C23.8327 19.1912 23.8399 19.1912 23.8972 19.1086C23.7252 19.324 23.5461 19.5286 23.3561 19.726C22.9656 20.1315 22.9226 20.8494 23.3561 21.2478C23.7897 21.6462 24.4598 21.6821 24.8755 21.2478H24.8791Z" fill="#535D64"/>
<path d="M34.4038 32.9841C34.2461 36.1713 34.6618 40.6146 38.2308 41.8026C40.1909 42.4523 42.2191 41.4042 43.3514 39.7927C44.2723 38.4791 44.2293 36.7061 43.097 35.536C41.9646 34.3659 40.0834 34.1793 39.0191 35.457C38.6465 35.9021 38.5819 36.541 39.0191 36.9788C39.4025 37.3629 40.1658 37.4275 40.5385 36.9788C40.5815 36.925 40.6925 36.7599 40.7714 36.7419C40.6639 36.7671 40.5958 36.8424 40.7069 36.7994C40.7355 36.7886 40.8359 36.7025 40.8681 36.7132C40.8932 36.7204 40.585 36.7778 40.7785 36.7599C40.8036 36.7599 40.8645 36.7419 40.8932 36.7312C41.0795 36.6558 40.6388 36.7168 40.8395 36.7384C40.8968 36.7455 40.9613 36.7384 41.0186 36.7384C41.1906 36.7312 40.9255 36.7419 40.9111 36.7204C40.9219 36.7348 41.033 36.7455 41.058 36.7527C41.1082 36.7635 41.1548 36.785 41.205 36.7958C41.3913 36.8389 41.1082 36.7742 41.119 36.7563C41.1261 36.7419 41.377 36.8963 41.3949 36.907C41.4092 36.9142 41.488 36.9573 41.4988 36.9788C41.3662 36.8747 41.3447 36.8568 41.4307 36.9286L41.4773 36.9717C41.5346 37.0327 41.6708 37.126 41.6995 37.2085C41.6314 37.0111 41.6135 37.0793 41.6672 37.1762C41.6923 37.2229 41.7245 37.2731 41.7532 37.3198C41.7675 37.3413 41.8141 37.4203 41.8141 37.4382C41.8213 37.2875 41.7568 37.2588 41.7926 37.4023C41.807 37.4562 41.8249 37.5136 41.8392 37.5674L41.8536 37.6356C41.8751 37.7541 41.8715 37.7254 41.8464 37.5567C41.8392 37.5603 41.8536 37.9012 41.8536 37.9192C41.8536 38.0017 41.7998 38.0735 41.8643 37.8582C41.85 37.9084 41.8428 37.9623 41.8321 38.0125C41.8141 38.0915 41.7855 38.1668 41.7604 38.2458C41.7425 38.3068 41.6708 38.4001 41.7711 38.2278C41.6851 38.3786 41.6099 38.5293 41.5131 38.6729C41.4092 38.8272 41.6816 38.4899 41.463 38.7411C41.4164 38.7949 41.3662 38.8524 41.316 38.9062C41.1799 39.0498 41.033 39.1933 40.8789 39.3189C40.8466 39.3441 40.6424 39.484 40.5456 39.5415C40.4632 39.5917 40.3808 39.6348 40.2948 39.6779C40.0296 39.8107 40.4238 39.6599 40.1479 39.7353C39.9795 39.7819 39.8218 39.8322 39.6498 39.8573C39.8684 39.825 39.4599 39.8573 39.3954 39.8573C39.3165 39.8573 39.2341 39.8501 39.1553 39.843C39.2019 39.8465 39.356 39.886 39.1553 39.8394C38.9833 39.7963 38.8185 39.7532 38.6536 39.6922C38.4888 39.6312 38.8686 39.8107 38.607 39.6671C38.5533 39.6384 38.4959 39.6097 38.4386 39.5774C38.3024 39.4984 38.1663 39.4123 38.0409 39.3154C38.1949 39.4338 38.0624 39.3297 38.0373 39.3046C37.9692 39.2364 37.8975 39.1754 37.8294 39.1108C37.7614 39.0462 37.4711 38.6801 37.6574 38.9349C37.5177 38.7411 37.3923 38.5437 37.2812 38.3319C37.2239 38.2243 37.1737 38.113 37.1235 38.0017C37.2239 38.2243 37.1414 38.0412 37.1199 37.9838C37.0841 37.8869 37.0483 37.79 37.016 37.6931C36.9049 37.3593 36.8154 37.0183 36.7437 36.6738C36.6577 36.261 36.6254 36.0277 36.5968 35.7478C36.5 34.8361 36.4929 33.9173 36.5394 32.9985C36.5681 32.435 36.0234 31.8966 35.4644 31.9217C34.8588 31.9505 34.4181 32.3955 34.3894 32.9985L34.4038 32.9841Z" fill="#535D64"/>
<path d="M7.4391 32.9839C7.47852 33.8058 7.47852 34.6278 7.40685 35.4497C7.39252 35.6184 7.3746 35.787 7.3531 35.9521C7.32802 36.1603 7.3961 35.7045 7.33877 36.0419C7.32802 36.1101 7.31727 36.1818 7.30652 36.25C7.24918 36.5802 7.1811 36.9069 7.0951 37.2299C7.01627 37.5206 6.91952 37.8077 6.80843 38.0877C6.89802 37.858 6.76543 38.1738 6.7296 38.2456C6.6651 38.3712 6.59701 38.4968 6.52176 38.6189C6.45726 38.7229 6.38918 38.8199 6.31751 38.9204C6.47876 38.6978 6.28526 38.9455 6.21001 39.028C6.09893 39.1429 5.98426 39.2506 5.86243 39.3546C6.00218 39.2326 5.88751 39.3367 5.85526 39.3618C5.76209 39.4228 5.67251 39.4874 5.57576 39.5413C5.51842 39.5736 5.16009 39.7423 5.36434 39.6633C5.21742 39.7207 5.06692 39.771 4.91284 39.8069C4.85192 39.8212 4.78742 39.832 4.7265 39.8463C4.94509 39.8069 4.73725 39.8428 4.67992 39.8463C4.5975 39.8499 4.51867 39.8535 4.43625 39.8499C4.41117 39.8499 4.09583 39.8176 4.32875 39.8499C3.65866 39.753 3.19999 39.4587 2.70191 38.9383C2.63741 38.8737 2.57649 38.8019 2.51557 38.7337C2.37224 38.5686 2.46541 38.6691 2.49407 38.7086C2.40091 38.5794 2.32566 38.443 2.24682 38.303C2.15007 38.1307 2.23249 38.2779 2.24682 38.321C2.21816 38.242 2.18949 38.1666 2.16799 38.0841C2.15366 38.0338 2.14291 37.98 2.12857 37.9298C2.06407 37.6929 2.12857 38.1523 2.12499 37.9154C2.12499 37.8939 2.13574 37.5565 2.13215 37.5529C2.19666 37.5888 2.07482 37.7862 2.12499 37.6319C2.1429 37.578 2.15007 37.5206 2.16799 37.4632C2.17874 37.4237 2.19307 37.3268 2.22174 37.3017C2.16441 37.3519 2.12141 37.4883 2.19666 37.3734C2.22532 37.3268 2.25041 37.2765 2.27907 37.2263C2.32924 37.1401 2.38299 36.9463 2.27907 37.2012C2.31491 37.1114 2.43674 37.0325 2.50124 36.9643C2.52274 36.9427 2.69116 36.8099 2.54066 36.9248C2.39016 37.0396 2.61232 36.8817 2.64099 36.8638C2.67682 36.8422 2.71624 36.8243 2.75208 36.8028C2.95991 36.6771 2.73774 36.8458 2.72341 36.8099C2.71983 36.7992 3.03158 36.7274 3.04591 36.7202C3.16774 36.6771 2.76641 36.713 2.96708 36.7346C3.01366 36.7382 3.09608 36.7382 3.14624 36.7346C3.34333 36.713 2.94916 36.6771 3.06383 36.7202C3.11041 36.7382 3.18566 36.7597 3.23583 36.7633C2.89541 36.7382 3.31466 36.6951 3.329 36.8279C3.33616 36.8781 3.14983 36.6413 3.26091 36.7776C3.31825 36.8458 3.38633 36.9033 3.44366 36.9715C3.81633 37.4201 4.57959 37.3555 4.963 36.9715C5.40376 36.53 5.33567 35.8983 4.963 35.4497C3.96683 34.2545 2.24324 34.4052 1.12882 35.3133C-0.0751907 36.2931 -0.308109 37.9405 0.347645 39.3008C1.20048 41.0774 3.25733 42.2295 5.19951 41.9245C6.80126 41.6732 8.10919 40.4493 8.73628 38.9921C9.54253 37.115 9.68228 34.9974 9.58195 32.9768C9.55328 32.4168 9.10894 31.8713 8.50694 31.9C7.94794 31.9251 7.40327 32.3738 7.43193 32.9768L7.4391 32.9839Z" fill="#535D64"/>
<path d="M30.283 14.5002C30.2722 16.5245 29.7956 18.5128 28.7887 20.2464C27.8786 21.8112 26.6495 23.0351 24.9725 23.7889C24.8936 23.8247 24.7324 23.8894 24.5138 23.9611C24.2952 24.0329 24.0945 24.0939 23.8795 24.1442C23.3599 24.2698 23.2381 24.2877 22.74 24.3093C22.5143 24.32 22.2885 24.32 22.0628 24.3093C21.9517 24.3057 21.8406 24.2949 21.7259 24.2877C21.7224 24.2877 21.3604 24.2411 21.5683 24.2734C21.0953 24.2052 20.6294 24.0832 20.1815 23.9252C18.7267 23.412 17.3005 22.1989 16.3939 20.8565C14.1615 17.5438 13.8999 12.9353 15.6629 9.39644C16.4978 7.72391 17.6552 6.38157 19.2355 5.50582C19.9558 5.10743 20.6509 4.85978 21.5683 4.72339C21.3568 4.7557 21.7188 4.70904 21.7259 4.70904C21.837 4.69827 21.9481 4.69109 22.0628 4.6875C22.2885 4.67674 22.5143 4.67674 22.74 4.6875C22.8511 4.69109 22.9622 4.70186 23.0769 4.70904C23.0804 4.70904 23.4424 4.7557 23.2345 4.72339C23.4531 4.7557 23.6717 4.79877 23.8831 4.8526C25.7357 5.30483 27.3375 6.55026 28.4089 8.14384C29.6846 10.0389 30.2758 12.2247 30.2866 14.5002C30.2937 15.8856 32.4437 15.8892 32.4366 14.5002C32.4151 10.0389 30.2328 5.17921 25.9615 3.30569C23.9799 2.43712 21.7295 2.26484 19.6691 2.97908C17.6087 3.69331 15.86 5.14691 14.6094 6.95942C11.8789 10.9182 11.6818 16.4311 13.8139 20.6914C15.7776 24.6251 20.0167 27.3026 24.4564 26.2223C28.8962 25.142 31.7235 20.7417 32.304 16.3988C32.39 15.7671 32.4366 15.1391 32.4402 14.5002C32.4473 13.1148 30.2973 13.1112 30.2901 14.5002H30.283Z" fill="#535D64"/>
</g>
<defs>
<clipPath id="clip0_1358_130252">
<rect width="44" height="42" fill="white"/>
</clipPath>
</defs>
</svg>
