<svg width="316" height="246" viewBox="0 0 316 246" fill="none" xmlns="http://www.w3.org/2000/svg">
<path fill-rule="evenodd" clip-rule="evenodd" d="M17.491 28.2197C33.6506 29.3117 49.0314 38.7877 65.863 31.4077C71.1826 29.1799 76.747 29.3117 81.8782 35.7817C89.3707 45.6595 99.1871 53.6859 108.488 61.8943C126.501 78.2546 126.871 79.4219 113.921 100.263C112.144 102.911 110.247 105.472 108.306 107.919C100.902 117.596 93.497 127.248 86.2494 136.849C86.6387 137.458 86.9025 137.784 87.3421 138.174C90.25 136.849 93.1767 135.299 97.0643 133.511C96.2604 137.295 95.8647 139.868 94.8222 145.673C101.881 139.535 106.642 135.387 111.541 131.088C122.557 121.161 132.838 110.442 144.513 101.43C148.313 98.5686 156.754 97.8783 161.093 100.018C181.963 110.975 201.967 123.244 222.497 134.678C224.739 136.109 228.143 135.142 230.894 136.109C234.625 137.571 238.029 139.761 241.628 141.631C241.891 144.97 242.155 148.434 242.482 152.551C244.893 151.66 246.715 151.051 248.473 150.298C250.521 160.502 252.329 170.323 254.057 180.038C254.879 179.868 255.608 179.762 256.299 179.611C256.719 176.241 257.165 172.771 257.806 167.424C261.197 177.477 263.873 185.579 266.561 193.549C267.415 193.329 268.131 192.99 268.91 192.733C269.004 190.524 269.004 188.598 269.174 186.527C275.705 210.223 297.14 222.316 309.877 240.892C311.183 242.743 313.313 243.873 315.975 246C315.894 243.207 316.22 242.04 315.68 240.892C301.813 203.201 288.649 165.064 273.023 127.863C263.879 105.472 249.29 87.4107 222.88 80.5703C209.754 77.3761 198.355 66.9587 186.492 59.9803C196.986 35.2609 217.749 28.9602 236.289 19.5657C226.027 20.1619 215.495 24.3289 206.212 22.5654C193.35 20.1556 184.017 23.3813 175.168 31.2571C166.595 39.0074 157.099 39.4341 148.325 32.5185C141.775 27.2721 135.231 20.9715 131.82 13.56C127.11 3.47523 120.685 -1.41342 110.096 0.356282C96.1159 2.62803 82.5376 5.7407 68.7458 8.52704C45.8661 13.1333 23.0178 17.5764 0 22.0508C0.150731 22.7725 0.150731 23.5319 0.150731 24.3289C6.07947 25.653 11.7193 27.8495 17.491 28.2197Z" fill="#FAFAFA"/>
</svg>
