<svg width="55" height="43" viewBox="0 0 55 43" fill="none" xmlns="http://www.w3.org/2000/svg">
<g clip-path="url(#clip0_1358_130172)">
<path d="M6.23775 21.3195H26.3515C27.8696 21.3195 27.8736 18.9365 26.3515 18.9365H6.23775C4.71959 18.9365 4.71566 21.3195 6.23775 21.3195Z" fill="#535D64"/>
<path d="M1.25848 2.56164H7.40587C8.02336 2.56164 8.61332 2.01357 8.58579 1.37018C8.55825 0.726785 8.06662 0.178711 7.40587 0.178711H1.25848C0.640992 0.178711 0.0510325 0.726785 0.078564 1.37018C0.106095 2.01357 0.597729 2.56164 1.25848 2.56164Z" fill="#535D64"/>
<path d="M46.8507 40.2637C46.8664 40.0492 46.9333 39.9023 46.9805 39.8388C47.0827 39.6958 47.0159 39.7792 46.9805 39.8109C47.1575 39.6163 47.1181 39.7236 47.0355 39.7593C46.9844 39.7831 46.7445 39.9182 46.8507 39.8666C46.9765 39.807 46.8192 39.8785 46.8035 39.8864C46.713 39.9182 46.6265 39.95 46.536 39.9778C45.9185 40.1763 45.2696 40.2796 44.6246 40.3312C43.1339 40.4583 41.5528 40.4464 40.1015 40.0453C39.9678 40.0095 39.8341 39.9698 39.7004 39.9222C39.6335 39.8983 39.5627 39.8745 39.4998 39.8467C39.5155 39.8546 39.6689 39.9261 39.5588 39.8666C39.4722 39.8189 39.3857 39.7633 39.2992 39.7156C39.3228 39.7315 39.4958 39.8983 39.3739 39.7633C39.3936 39.7871 39.5155 39.9936 39.4486 39.8626C39.5706 40.0969 39.5706 40.3273 39.488 40.5735C39.4329 40.7324 39.4526 40.6688 39.4801 40.6172C39.3897 40.7959 39.3425 40.8038 39.425 40.7165C39.2874 40.8714 39.3307 40.7999 39.4801 40.7045C39.5194 40.6807 39.5627 40.6648 39.602 40.641C39.3897 40.7522 39.5942 40.641 39.6532 40.6211C41.0258 40.1565 42.4968 40.089 43.9323 40.1485C44.7308 40.1803 45.5292 40.2637 46.304 40.4782C46.4574 40.5219 46.6068 40.5695 46.7563 40.6211C46.8074 40.637 46.8585 40.6569 46.9057 40.6807C46.7602 40.6172 46.8349 40.645 46.9293 40.7045C46.9608 40.7244 47.0041 40.7562 47.0395 40.7681C47.2322 40.8436 46.9647 40.6807 47.008 40.7403C47.0867 40.8475 46.9215 40.6013 46.9293 40.6172C46.9765 40.6966 46.9726 40.6807 46.9215 40.5735C46.8703 40.4782 46.8507 40.3749 46.8546 40.2637C46.8979 40.9071 47.3659 41.4552 48.0345 41.4552C48.6402 41.4552 49.2577 40.9071 49.2145 40.2637C49.0807 38.3296 46.5203 38.0158 45.0454 37.849C43.9363 37.7219 42.8075 37.714 41.6984 37.8172C40.7662 37.9006 39.8066 38.0237 38.9256 38.3613C38.2097 38.6354 37.4546 39.0643 37.2501 39.8705C37.0259 40.7522 37.5962 41.5068 38.3317 41.904C39.0671 42.3011 39.9678 42.4878 40.8174 42.6069C41.9697 42.7658 43.13 42.8174 44.2903 42.7459C45.8713 42.6466 49.0689 42.4242 49.2145 40.2677C49.2577 39.6243 48.6402 39.0762 48.0345 39.0762C47.358 39.0762 46.8979 39.6243 46.8546 40.2677L46.8507 40.2637Z" fill="#535D64"/>
<path d="M44.247 39.5964V28.7382C44.247 27.2051 41.8872 27.2012 41.8872 28.7382V39.5964C41.8872 41.1294 44.247 41.1334 44.247 39.5964Z" fill="#535D64"/>
<path d="M7.29991 20.7634C6.74142 18.5791 6.17899 16.3947 5.62049 14.2104C4.72769 10.7233 3.83488 7.2403 2.93814 3.75327C2.73362 2.94705 2.52517 2.14479 2.32065 1.33857C1.93914 -0.146792 -0.338103 0.480713 0.0434048 1.97005C0.6019 4.1544 1.16433 6.33875 1.72282 8.52311C2.61563 12.0101 3.50844 15.4932 4.40518 18.9802C4.60969 19.7864 4.81815 20.5887 5.02267 21.3949C5.40417 22.8803 7.68142 22.2488 7.29991 20.7595V20.7634Z" fill="#535D64"/>
<path d="M13.0816 18.9324C12.5742 16.9585 12.0629 14.9846 11.5555 13.0148C10.7375 9.84943 9.92332 6.6841 9.10525 3.51877C8.91646 2.79198 8.73161 2.06519 8.54282 1.33839C8.16131 -0.142997 5.88407 0.484508 6.26557 1.97384C6.77294 3.9477 7.28424 5.92156 7.7916 7.89145C8.60968 11.0568 9.42383 14.2221 10.2419 17.3874C10.4307 18.1142 10.6155 18.841 10.8043 19.5678C11.1858 21.0492 13.4631 20.4217 13.0816 18.9324Z" fill="#535D64"/>
<path d="M7.33933 41.4669V21.0809C7.33933 19.5479 4.97949 19.544 4.97949 21.0809V41.4669C4.97949 42.9999 7.33933 43.0039 7.33933 41.4669Z" fill="#535D64"/>
<path d="M32.5224 16.3907H53.6115C55.1297 16.3907 55.1336 14.0078 53.6115 14.0078H32.5224C31.0043 14.0078 31.0003 16.3907 32.5224 16.3907Z" fill="#535D64"/>
<path d="M6.23775 43.0001H22.6583C24.1765 43.0001 24.1804 40.6172 22.6583 40.6172H6.23775C4.71959 40.6172 4.71566 43.0001 6.23775 43.0001Z" fill="#535D64"/>
<path d="M16.7982 33.4165C18.2731 35.9384 19.7441 38.4603 21.219 40.9823L21.8443 42.0506C22.1668 42.6027 22.9062 42.8052 23.4569 42.4795C24.0075 42.1539 24.2042 41.4072 23.8817 40.8512C22.4068 38.3293 20.9358 35.8073 19.4609 33.2854C19.2524 32.928 19.044 32.5705 18.8355 32.217C18.513 31.665 17.7736 31.4625 17.223 31.7881C16.6723 32.1138 16.4757 32.8604 16.7982 33.4165Z" fill="#535D64"/>
<path d="M31.1382 15.5884C31.1618 20.9023 33.7969 26.5737 38.8155 28.7938C41.1714 29.8344 43.8459 30.0329 46.3002 29.1989C48.7544 28.3649 50.8271 26.6531 52.3256 24.5085C54.1309 21.923 54.9883 18.7259 55.004 15.5844C55.0119 14.0514 52.6521 14.0474 52.6442 15.5844C52.6324 17.9912 52.0621 20.3463 50.8625 22.4115C49.7652 24.294 48.2628 25.7754 46.249 26.6849C46.1232 26.7405 46.2254 26.6968 46.249 26.6849C46.194 26.7087 46.135 26.7326 46.0799 26.7524C45.9658 26.7961 45.8518 26.8398 45.7338 26.8795C45.4624 26.9748 45.191 27.0543 44.9118 27.1218C44.3179 27.2687 44.1094 27.3005 43.5155 27.3283C43.2442 27.3402 42.9688 27.3442 42.6975 27.3283C42.5716 27.3243 42.4497 27.3164 42.3238 27.3045C42.2491 27.2965 41.8715 27.2528 42.021 27.2727C41.4939 27.1933 40.9748 27.0662 40.4714 26.8954C39.9404 26.7167 39.7123 26.6134 39.1852 26.3195C38.9493 26.1885 38.7211 26.0495 38.497 25.9025C38.3947 25.835 38.2924 25.7635 38.1902 25.692C38.1469 25.6603 37.8834 25.4656 37.9817 25.5411C37.1125 24.862 36.3416 24.0121 35.7831 23.1939C34.2374 20.9341 33.5177 18.3089 33.502 15.5805C33.4941 14.0474 31.1343 14.0435 31.1421 15.5805L31.1382 15.5884Z" fill="#535D64"/>
<path d="M44.888 4.76186C44.9864 2.55368 43.6137 0.563931 41.4269 0.103231C40.2903 -0.135062 39.0002 0.0357148 37.9816 0.631448C35.9324 1.83086 35.8066 4.63874 35.7043 6.75558C35.5903 9.13851 35.6335 11.5334 35.6453 13.9163C35.6532 15.4493 38.013 15.4533 38.0052 13.9163C37.9973 11.9146 37.9737 9.91297 38.0248 7.9113C38.0445 7.18451 38.072 6.46169 38.1271 5.73489C38.1507 5.46483 38.1782 5.19873 38.2097 4.92867C38.2333 4.71023 38.2058 4.96838 38.2018 5.00016C38.2136 4.92073 38.2254 4.84129 38.2372 4.76583C38.2569 4.64272 38.2805 4.5196 38.3041 4.39648C38.3473 4.18599 38.3945 3.9755 38.4575 3.77295C38.485 3.68557 38.5165 3.5982 38.544 3.51082C38.6581 3.15736 38.4693 3.62997 38.5637 3.45125C38.6423 3.3043 38.7171 3.16133 38.8036 3.01835C38.9216 2.81977 38.8468 2.99849 38.78 3.04615C38.8429 3.00247 38.898 2.91112 38.957 2.85552C38.9884 2.82772 39.0946 2.70063 39.13 2.70063C39.075 2.69666 38.8508 2.87935 39.0789 2.75226C39.1458 2.71254 39.2166 2.67283 39.2834 2.63311C39.3109 2.61722 39.3424 2.60531 39.3699 2.58942C39.5823 2.46233 39.2244 2.62914 39.2913 2.6212C39.6217 2.58148 39.9914 2.42659 40.3296 2.35907C40.5145 2.32333 40.2116 2.37496 40.1998 2.37496C40.2785 2.37496 40.3611 2.36304 40.4397 2.36304C40.5538 2.36304 40.6718 2.37099 40.7819 2.38687C40.5735 2.35907 40.8684 2.41468 40.9196 2.42659C41.3365 2.52588 41.4741 2.56559 41.8753 2.87538C41.7416 2.77211 42.0877 3.09381 42.1428 3.15736C42.0208 3.01438 42.1782 3.20501 42.2018 3.24473C42.2647 3.34799 42.3276 3.45125 42.3787 3.56245C42.5046 3.82855 42.5597 4.31308 42.5361 4.76186C42.5085 5.40525 43.0985 5.95333 43.716 5.95333C44.3807 5.95333 44.8684 5.40923 44.8959 4.76186H44.888Z" fill="#535D64"/>
<path d="M41.8282 12.0378C41.8361 12.5859 41.84 13.134 41.8479 13.682V13.9203C41.8557 14.2261 41.9816 14.5439 42.1979 14.7623C42.4024 14.9688 42.7367 15.1237 43.0317 15.1118C43.3267 15.0999 43.6532 14.9966 43.8655 14.7623C44.0779 14.528 44.2156 14.242 44.2116 13.9203C44.2038 13.3723 44.1998 12.8242 44.192 12.2761V12.0378C44.1841 11.732 44.0583 11.4143 43.8419 11.1958C43.6374 10.9893 43.3031 10.8344 43.0081 10.8463C42.7131 10.8583 42.3867 10.9615 42.1743 11.1958C41.9619 11.4302 41.8243 11.7161 41.8282 12.0378Z" fill="#535D64"/>
<path d="M12.5939 33.7739C15.3116 33.7739 18.0254 33.7739 20.7432 33.7739C21.8562 33.7739 22.9889 33.8215 24.102 33.7341C25.3095 33.6388 26.5798 33.3926 27.4844 32.5069C28.2711 31.7404 28.5031 30.6721 28.507 29.6077C28.507 28.9206 28.5424 28.2216 28.5031 27.5346C28.4126 25.9936 27.3232 24.6075 25.7972 24.3017C25.0459 24.1508 24.2239 24.2223 23.4649 24.2223C20.2319 24.2223 16.9989 24.2223 13.7698 24.2223C11.2802 24.2223 8.78271 24.1627 6.29702 24.2223C6.25375 24.2223 6.21049 24.2223 6.16722 24.2223C5.53007 24.2223 4.9873 24.7664 4.9873 25.4137V29.7904C4.9873 31.3234 7.34714 31.3274 7.34714 29.7904V25.4137L6.16722 26.6052C8.12196 26.6052 10.0728 26.6052 12.0275 26.6052H21.9231C22.8788 26.6052 23.8306 26.6052 24.7864 26.6052C25.1285 26.6052 25.2505 26.5734 25.5533 26.7045C25.4078 26.641 25.7972 26.8673 25.7146 26.8038C25.7146 26.8038 25.8719 26.9507 25.927 27.0143C26.0174 27.1175 25.9545 27.05 25.9387 27.0262C25.9741 27.0778 26.0095 27.1374 26.0371 27.193C26.1315 27.3797 26.0017 27.0659 26.0764 27.2645C26.1079 27.3479 26.1315 27.4313 26.1472 27.5187C26.1551 27.5544 26.1551 27.6259 26.1551 27.757C26.1551 27.9118 26.1551 28.0667 26.1551 28.2216V29.4052C26.1551 29.5203 26.1551 29.6395 26.1551 29.7546C26.1551 29.8103 26.1551 29.8698 26.1551 29.9254C26.1551 29.989 26.1511 30.0565 26.1433 30.12C26.1236 30.3305 26.1747 29.9771 26.1354 30.1677C26.1079 30.2948 26.0764 30.4219 26.0331 30.545C26.1 30.3583 26.0056 30.5648 25.9781 30.6363C25.8994 30.8151 26.0685 30.5807 25.9309 30.7118C25.864 30.7753 25.6162 30.9779 25.809 30.8468C25.7264 30.9024 25.6438 30.958 25.5572 31.0057C25.514 31.0295 25.4668 31.0533 25.4196 31.0732C25.2623 31.1566 25.5887 31.0176 25.4117 31.0732C25.16 31.1566 24.9122 31.2241 24.6566 31.2758C24.5976 31.2877 24.5386 31.2956 24.4796 31.3075C24.5071 31.3036 24.633 31.2877 24.4914 31.3075C24.3655 31.3234 24.2397 31.3353 24.1138 31.3433C23.807 31.3671 23.4963 31.375 23.1856 31.379C23.0597 31.379 22.9378 31.379 22.812 31.379C22.3479 31.379 21.8798 31.379 21.4157 31.379C18.5485 31.379 15.6852 31.379 12.818 31.379H12.6057C11.0875 31.379 11.0836 33.7619 12.6057 33.7619L12.5939 33.7739Z" fill="#535D64"/>
</g>
<defs>
<clipPath id="clip0_1358_130172">
<rect width="55" height="43" fill="white"/>
</clipPath>
</defs>
</svg>
