<svg width="29" height="48" viewBox="0 0 29 48" fill="none" xmlns="http://www.w3.org/2000/svg">
<g clip-path="url(#clip0_37_59)">
<path d="M9.0873 45.0388H5.45141C4.98179 45.0388 4.51702 45.0339 4.0474 45.0388C3.83438 45.0388 3.53906 44.9508 3.43739 44.8775C3.35993 44.8189 3.27278 44.7358 3.20984 44.6625C2.89515 44.3107 3.25341 44.7505 3.10817 44.5208C3.08397 44.4817 2.95809 44.1885 3.02103 44.3644C3.02103 44.3546 2.92904 43.9393 2.94841 44.1103C2.88547 43.4946 2.94356 42.8447 2.94356 42.229V29.3385C2.94356 28.6446 2.91452 27.9409 2.97261 27.2519C3.13238 25.4146 4.31852 23.5773 5.94523 22.6C7.10717 21.9012 8.19649 21.7253 9.5666 21.7253H17.918C18.7749 21.7253 19.6464 21.6813 20.4985 21.7497C22.2995 21.8914 24.1295 23.0349 25.1123 24.6181C25.8337 25.7909 26.0613 26.8806 26.0613 28.2537V43.5288C26.0613 43.7096 26.0709 43.9979 26.0613 44.0859C25.9935 44.6332 25.4851 45.0534 24.9429 45.0436C23.6696 45.029 22.3963 45.0436 21.1279 45.0436H19.9224C18.0536 45.0436 18.0487 47.9755 19.9224 47.9755H23.7713C24.2554 47.9755 24.7444 48 25.2237 47.9609C26.6664 47.8485 27.9785 46.9885 28.5836 45.6447C29.0242 44.6625 28.9661 43.651 28.9661 42.6053V29.1968C28.9661 28.1852 28.9758 27.2031 28.7967 26.1964C28.3561 23.7043 26.7729 21.4761 24.6621 20.147C21.9703 18.4514 18.7798 18.7885 15.7539 18.7885H10.898C9.77478 18.7885 8.65642 18.7494 7.53805 18.9302C3.11785 19.6437 0.0532474 23.7043 0.0435646 28.1266C0.0435646 30.7507 0.0435646 33.3698 0.0435646 35.9939C0.0435646 38.6179 0.0290404 41.1589 0.0435646 43.739C0.0532474 45.9721 1.60734 47.8192 3.86827 47.9609C5.16093 48.0439 6.48263 47.9658 7.78013 47.9658H9.09215C10.9609 47.9658 10.9658 45.0339 9.09215 45.0339L9.0873 45.0388Z" fill="#3D515E"/>
<path d="M2.94831 28.4933V9.20628C2.94831 8.21921 3.05966 7.30544 3.4034 6.51871C4.14897 4.81333 5.50941 3.63568 7.2039 3.15681C8.03178 2.92226 8.80156 2.93692 9.74563 2.93692H13.4348C15.6764 2.93692 17.9179 2.92714 20.1595 2.93692C23.4129 2.95158 26.037 5.53653 26.0708 8.82514C26.0854 10.3595 26.0708 11.889 26.0708 13.4233V28.4884C26.0708 30.3746 28.9757 30.3794 28.9757 28.4884V14.8453C28.9757 12.8907 28.9757 10.941 28.9757 8.98639C28.966 5.06254 26.5066 1.51983 22.7448 0.371508C21.641 0.0392267 20.5129 0.0099078 19.38 0.0099078H15.6473C13.367 0.0099078 11.0867 -0.00963816 8.81124 0.0099078C4.31842 0.0441132 0.571177 3.46954 0.0918785 7.97977C-0.082412 9.60209 0.0434645 11.2879 0.0434645 12.9102V28.4933C0.0434645 30.3794 2.94831 30.3843 2.94831 28.4933Z" fill="#3D515E"/>
<path d="M13.2653 6.14233H8.3271C7.567 6.14233 6.84079 6.81667 6.87468 7.60828C6.90857 8.39989 7.51374 9.07423 8.3271 9.07423H13.2653C14.0254 9.07423 14.7516 8.39989 14.7177 7.60828C14.6839 6.81667 14.0787 6.14233 13.2653 6.14233Z" fill="#3D515E"/>
<path d="M10.5347 20.2545V16.1205C10.5347 15.9006 10.5347 15.6759 10.5347 15.456C10.5347 15.4462 10.5347 15.4364 10.5347 15.4266C10.5347 15.412 10.5589 15.1774 10.5347 15.3289C10.5105 15.4804 10.5589 15.2507 10.5637 15.241C10.5637 15.2312 10.6509 15.0211 10.5879 15.153C10.525 15.2849 10.6315 15.0846 10.6412 15.0797C10.646 15.0748 10.7768 14.8842 10.6896 15.0064C10.5928 15.1481 10.8591 14.8794 10.7187 14.9771C10.5879 15.0699 11.0091 14.8061 10.8639 14.8745C10.738 14.9331 11.2803 14.7963 10.9849 14.8256C11.0527 14.8207 11.1253 14.8207 11.198 14.8207C11.3916 14.8207 11.5853 14.8207 11.7789 14.8207H16.7026C17.1384 14.8207 17.5935 14.7816 18.0292 14.8256C17.8016 14.8061 18.1212 14.8598 18.1986 14.894C17.9905 14.8061 18.2809 14.9575 18.339 15.0064C18.1454 14.85 18.4552 15.1628 18.3003 14.9673C18.3439 15.0211 18.3729 15.0846 18.4117 15.1432C18.5327 15.3387 18.3487 14.9624 18.431 15.1774C18.4552 15.241 18.4746 15.3143 18.4891 15.3827C18.4843 15.3533 18.4746 15.1774 18.4794 15.3533C18.4794 15.3875 18.4794 15.4169 18.4794 15.4462C18.4794 15.5293 18.4794 15.6074 18.4794 15.6905V20.2594C18.4794 22.1456 21.3843 22.1505 21.3843 20.2594V15.7785C21.3843 14.5715 21.0357 13.4525 20.0577 12.6804C19.2637 12.0501 18.3632 11.8986 17.3901 11.8986H12.1081C11.4739 11.8986 10.7961 11.8497 10.1813 12.0305C8.6417 12.4752 7.66858 13.8972 7.63469 15.4804C7.6008 17.0636 7.63469 18.6713 7.63469 20.2643C7.63469 22.1505 10.5395 22.1553 10.5395 20.2643L10.5347 20.2545Z" fill="#3D515E"/>
<path d="M24.9816 29.1333H6.69565C5.82419 29.1333 4.95274 29.1138 4.08613 29.1333C1.709 29.1822 0.0435589 31.0586 0.0435589 33.409V43.309C0.0435589 43.9003 0.0338761 44.4818 0.203325 45.0584C0.70199 46.7882 2.28029 47.917 4.03772 47.9658C5.54823 48.0049 7.06359 47.9658 8.57411 47.9658H9.09214C9.87645 47.9658 10.5446 47.2964 10.5446 46.4999V42.1998C10.5446 41.9261 10.5446 41.6525 10.5446 41.3789C10.5446 41.0661 10.5688 40.9342 10.6317 40.768C10.8593 40.1719 11.2805 40.1084 11.934 40.1084H16.7028C16.9158 40.1084 17.124 40.1084 17.337 40.1084C17.5936 40.1084 17.8696 40.1866 17.9858 40.2696C18.2182 40.4455 18.2763 40.5433 18.3537 40.6947C18.4409 40.8658 18.4699 41.0075 18.4748 41.2029C18.4796 41.3593 18.4748 41.5206 18.4748 41.6769V46.495C18.4748 47.2866 19.138 47.961 19.9272 47.961H24.4636C25.5093 47.961 26.5018 47.8144 27.3636 47.1498C28.4045 46.3484 28.9516 45.1708 28.9758 43.8563C29.0339 40.6508 28.9758 37.4355 28.9758 34.2299C28.9758 33.6924 29 33.1598 28.9274 32.6271C28.6611 30.609 26.9714 29.1919 24.9816 29.1284C23.1128 29.0698 23.1128 32.0017 24.9816 32.0603C25.5771 32.0799 26.0758 32.5587 26.0709 33.1842C26.0709 33.5605 26.0709 33.9318 26.0709 34.3081V43.5533C26.0709 43.6706 26.0709 43.7879 26.0709 43.9052C26.0709 44.1495 25.9935 44.4231 25.9112 44.5355C25.7417 44.7652 25.611 44.8483 25.49 44.9069C25.3157 44.9949 25.1801 45.0242 24.9865 45.0291C24.8412 45.034 24.6911 45.0291 24.5411 45.0291H19.932L21.3845 46.495V41.7942C21.3845 40.7876 21.2876 39.8054 20.697 38.9503C19.8885 37.7824 18.6394 37.1862 17.2402 37.1765C15.5506 37.1618 13.8561 37.1765 12.1664 37.1765C11.1885 37.1765 10.2299 37.284 9.40199 37.8704C8.24005 38.6913 7.6494 39.9569 7.64456 41.374C7.63488 43.0794 7.64456 44.7896 7.64456 46.495L9.09698 45.0291H4.68162C4.47828 45.0291 4.27979 45.0291 4.07645 45.0291C3.73271 45.0291 3.49548 44.9607 3.21952 44.6528C3.0307 44.4427 2.96777 44.2081 2.95324 43.9247C2.95324 43.8026 2.95324 43.6755 2.95324 43.5533V33.9416C2.95324 33.7364 2.95324 33.5311 2.95324 33.3259C2.95324 33.2526 2.96777 32.9057 2.95324 33.0474C3.01618 32.5929 3.23404 32.2949 3.67945 32.1092C3.47127 32.1971 3.95541 32.0505 3.93605 32.0554C3.75691 32.0799 4.02803 32.0554 4.04256 32.0554C4.05708 32.0554 4.07161 32.0554 4.08613 32.0554C4.87528 32.0603 5.66443 32.0554 6.45842 32.0554H24.9865C26.8552 32.0554 26.8601 29.1235 24.9865 29.1235L24.9816 29.1333Z" fill="#3D515E"/>
</g>
<defs>
<clipPath id="clip0_37_59">
<rect width="29" height="48" fill="white"/>
</clipPath>
</defs>
</svg>
