<svg width="46" height="37" viewBox="0 0 46 37" fill="none" xmlns="http://www.w3.org/2000/svg">
<g clip-path="url(#clip0_1358_130295)">
<path d="M2.26673 27.0003V4.17166C2.26673 3.95153 2.26299 3.72779 2.26673 3.50766C2.28169 2.74983 2.87652 2.18326 3.66214 2.16883C6.74851 2.1147 9.83862 2.16883 12.925 2.16883H20.4707C20.9944 2.16883 21.2713 2.16161 21.6304 2.37092C22.0457 2.60909 22.2701 3.03131 22.2776 3.50044C22.2776 3.54735 22.2776 3.59787 22.2776 3.64479C22.2776 3.98761 22.2776 4.33405 22.2776 4.67688V9.05062C22.2776 13.0924 22.2776 17.1305 22.2776 21.1722V26.7946C22.2776 27.3648 22.214 27.6535 21.7875 28.0216C21.5519 28.2236 21.2414 28.3247 20.8822 28.3319C20.7737 28.3319 20.669 28.3319 20.5605 28.3319H13.2505C10.0631 28.3319 6.87197 28.3788 3.68459 28.3319C2.884 28.3211 2.28169 27.7689 2.26299 27.0003C2.22558 25.6109 -0.0190549 25.6037 0.0183557 27.0003C0.0669894 28.866 1.52226 30.3456 3.4489 30.4899C3.76315 30.5116 4.08488 30.4971 4.39913 30.4971H9.41962C13.1233 30.4971 16.8269 30.4971 20.5306 30.4971C21.2713 30.4971 21.9896 30.4069 22.6555 30.0569C23.8339 29.4398 24.4998 28.2236 24.5223 26.9534C24.5372 26.0584 24.5223 25.1635 24.5223 24.2721C24.5223 20.2953 24.5223 16.3221 24.5223 12.3454C24.5223 9.44036 24.5335 6.53896 24.5223 3.63396C24.5185 1.54091 22.8687 0.0072174 20.7139 0C19.3521 0 17.9866 0 16.6212 0H4.71712C4.3692 0 4.02128 0 3.66962 0C2.09464 0.0324783 0.688004 0.974349 0.194185 2.43587C-0.0938759 3.29835 0.0220967 4.34127 0.0220967 5.23261C0.0220967 9.02175 0.0220967 12.8109 0.0220967 16.6V27.0003C0.0220967 28.3933 2.26673 28.3969 2.26673 27.0003Z" fill="#535D64"/>
<path d="M7.13037 14.5286V6.03728C7.13037 4.64433 4.88574 4.64072 4.88574 6.03728V14.5286C4.88574 15.9215 7.13037 15.9251 7.13037 14.5286Z" fill="#535D64"/>
<path d="M22.2819 19.2812C22.2707 19.689 22.0799 20.0752 21.7432 20.3278C21.3503 20.6237 20.9388 20.7319 20.4787 20.7392C20.2318 20.7428 19.9849 20.7392 19.738 20.7392H5.18151C4.81863 20.7392 4.45949 20.7428 4.09661 20.7392C3.7038 20.7355 3.34092 20.6489 3.01544 20.4613C2.52162 20.1762 2.2822 19.7504 2.27097 19.2812C2.23356 17.8919 -0.0110692 17.8847 0.0263414 19.2812C0.071234 20.9521 1.30204 22.3559 2.97429 22.7672C3.49056 22.8935 4.00682 22.9008 4.53431 22.9008H19.7005C20.0971 22.9008 20.5011 22.9188 20.8977 22.8755C22.858 22.6698 24.4816 21.2372 24.534 19.2776C24.5714 17.8847 22.3268 17.8847 22.2894 19.2776L22.2819 19.2812Z" fill="#535D64"/>
<path d="M23.4042 4.33398H30.2952C30.572 4.33398 30.8563 4.31954 31.1332 4.33398C31.425 4.35202 31.7355 4.48554 31.9787 4.72011C32.2592 4.99076 32.3752 5.27946 32.3827 5.66198C32.3902 5.95067 32.3827 6.24298 32.3827 6.53167V20.8835C32.3827 25.0371 32.3976 29.1907 32.3827 33.3407C32.3827 33.5392 32.3715 33.7052 32.3453 33.8062C32.1732 34.4233 31.642 34.8094 30.9985 34.8203C30.4673 34.8311 29.9398 34.8203 29.4085 34.8203H14.2423C14.0814 34.8203 13.9206 34.8203 13.7597 34.8203C13.1611 34.8094 12.615 34.4486 12.4429 33.9181C12.3718 33.7052 12.3718 33.6222 12.3718 33.366C12.3718 33.1458 12.3718 32.9293 12.3718 32.7092V29.4036C12.3718 28.0107 10.1272 28.007 10.1272 29.4036V32.8463C10.1272 33.4598 10.1122 34.0733 10.3404 34.6579C10.7893 35.7982 11.8031 36.7076 13.0714 36.9169C13.726 37.0252 14.4107 36.9819 15.0728 36.9819H30.5608C30.7067 36.9819 30.8563 36.9819 31.0022 36.9819C32.2555 36.9566 33.404 36.3576 34.0811 35.3327C34.8967 34.0949 34.6273 32.2292 34.6273 30.8254V7.33281C34.6273 6.81676 34.6273 6.30072 34.6273 5.78467C34.6198 4.14993 33.5237 2.59819 31.8066 2.25176C30.774 2.04606 29.6218 2.16515 28.578 2.16515H23.4042C21.9601 2.16515 21.9564 4.33037 23.4042 4.33037V4.33398Z" fill="#535D64"/>
<path d="M32.1957 25.4053C32.177 26.2208 31.5224 26.9642 30.718 27.0544C30.329 27.1014 29.9137 27.0653 29.5246 27.0653H23.4043C21.9602 27.0653 21.9565 29.2305 23.4043 29.2305H29.7117C30.3364 29.2305 30.9649 29.2521 31.5747 29.0753C33.2694 28.5881 34.3992 27.0941 34.4366 25.4017C34.4703 24.0087 32.2257 24.0087 32.192 25.4017L32.1957 25.4053Z" fill="#535D64"/>
<path d="M34.2529 7.39081H44.9149C46.3589 7.39081 46.3627 5.22559 44.9149 5.22559H34.2529C32.8088 5.22559 32.8051 7.39081 34.2529 7.39081Z" fill="#535D64"/>
<path d="M34.2529 13.1647H44.9149C46.3589 13.1647 46.3627 10.9995 44.9149 10.9995H34.2529C32.8088 10.9995 32.8051 13.1647 34.2529 13.1647Z" fill="#535D64"/>
</g>
<defs>
<clipPath id="clip0_1358_130295">
<rect width="46" height="37" fill="white"/>
</clipPath>
</defs>
</svg>
