<svg width="44" height="38" viewBox="0 0 44 38" fill="none" xmlns="http://www.w3.org/2000/svg">
<g clip-path="url(#clip0_1358_130206)">
<path d="M38.9263 26.703H5.48825C4.88335 26.703 4.49475 26.7137 3.91184 26.4721C2.88168 26.0458 2.21446 24.9765 2.21079 23.8291C2.21079 23.2678 2.21079 22.7101 2.21079 22.1488C2.21079 19.7332 2.21079 17.3211 2.21079 14.9055C2.21079 12.4899 2.21079 9.87174 2.21079 7.35309V5.24297C2.21079 5.13284 2.21079 5.02627 2.21079 4.91614C2.22179 4.19146 2.48941 3.50584 3.00999 2.99074C3.63689 2.36552 4.36643 2.13462 5.27562 2.13462H28.8704C32.2065 2.13462 35.5462 2.10265 38.886 2.13462C38.9007 2.13462 38.9153 2.13462 38.9337 2.13462C39.2966 2.13817 39.7879 2.23053 40.0628 2.35131C40.4881 2.53604 40.708 2.6959 41.005 2.99074C41.2543 3.23941 41.5036 3.61241 41.6099 3.89305C41.8335 4.48275 41.8042 4.95522 41.8042 5.61597V11.9144C41.8042 15.9144 41.8629 19.9215 41.8042 23.9215C41.7822 25.4597 40.5247 26.6817 38.9337 26.703C37.5186 26.7243 37.5149 28.8558 38.9337 28.8344C41.2396 28.7989 43.3549 27.2678 43.8682 25.0511C44.0185 24.4046 44.0038 23.7616 44.0038 23.108C44.0038 20.9019 44.0038 18.6959 44.0038 16.4899C44.0038 13.8007 44.0038 11.108 44.0038 8.41881V5.69057C44.0038 5.00851 44.0185 4.3371 43.8389 3.66925C43.2596 1.5165 41.1956 0.0315973 38.9263 -0.000374281C38.6807 -0.000374281 38.4314 -0.000374281 38.1821 -0.000374281H16.4681C12.7287 -0.000374281 8.98933 -0.00392668 5.24629 -0.000374281C2.30978 0.0102829 0.0148261 2.19856 0.007494 5.05469C0.000161884 6.80957 0.007494 8.56801 0.007494 10.3229C0.007494 14.8167 -0.00717023 19.3105 0.007494 23.8007C0.0111601 25.4419 0.755369 26.9268 2.11914 27.9073C3.03566 28.568 4.14647 28.838 5.27562 28.838H25.4096C29.6842 28.838 33.9625 28.838 38.2371 28.838H38.9227C40.3378 28.838 40.3414 26.7066 38.9227 26.7066L38.9263 26.703Z" fill="#535D64"/>
<path d="M18.3045 20.6641H7.58858C6.17348 20.6641 6.16981 22.7955 7.58858 22.7955H18.3045C19.7196 22.7955 19.7232 20.6641 18.3045 20.6641Z" fill="#535D64"/>
<path d="M19.2434 7.81894H36.7304C38.1455 7.81894 38.1492 5.6875 36.7304 5.6875H19.2434C17.8283 5.6875 17.8246 7.81894 19.2434 7.81894Z" fill="#535D64"/>
<path d="M8.35518 37.9893H35.649C37.0641 37.9893 37.0677 35.8579 35.649 35.8579H8.35518C6.94008 35.8579 6.93642 37.9893 8.35518 37.9893Z" fill="#535D64"/>
<path d="M24.2838 35.8578H20.1668C20.0385 35.8578 19.9065 35.8578 19.7782 35.8578C19.5803 35.8578 19.4959 35.8471 19.342 35.7583C19.056 35.5949 18.9717 35.3959 18.968 35.0158C18.968 34.6641 18.968 34.3125 18.968 33.9608V30.6535C18.968 30.3196 18.968 29.9821 18.968 29.6482C18.9717 29.2716 19.0634 29.0407 19.4446 28.8773C19.5106 28.8489 19.6206 28.8347 19.7782 28.8347C19.9175 28.8347 20.0569 28.8347 20.1962 28.8347H21.7762C22.6084 28.8347 23.4516 28.7991 24.2875 28.8347C24.7054 28.8524 25.0427 29.1508 25.039 29.5736C25.039 29.8329 25.039 30.0922 25.039 30.3515V33.9999C25.039 34.3622 25.039 34.7245 25.039 35.0833C25.039 35.2752 25.0244 35.3498 24.9364 35.4954C24.7934 35.7334 24.5624 35.8471 24.2875 35.8578C22.8761 35.9039 22.8687 38.0354 24.2875 37.9892C25.5339 37.9501 26.6081 37.2503 27.0554 36.11C27.2277 35.673 27.2387 35.2148 27.2387 34.7565V31.2716C27.2387 30.2414 27.3963 29.0443 26.8354 28.1171C26.2745 27.1899 25.3213 26.7281 24.2765 26.6997C23.8842 26.689 23.492 26.6997 23.1033 26.6997C21.9962 26.6997 20.8891 26.6855 19.7819 26.6997C18.0369 26.721 16.7794 28.0354 16.7721 29.7014C16.7684 30.7707 16.7721 31.84 16.7721 32.9128C16.7721 33.8293 16.6401 34.8666 16.8491 35.7725C17.1387 37.0194 18.2971 37.911 19.5986 37.9821C20.0055 38.0034 20.4198 37.9856 20.8267 37.9856H24.2875C25.7026 37.9856 25.7062 35.8542 24.2875 35.8542L24.2838 35.8578Z" fill="#535D64"/>
</g>
<defs>
<clipPath id="clip0_1358_130206">
<rect width="44" height="38" fill="white"/>
</clipPath>
</defs>
</svg>
