<svg width="43" height="30" viewBox="0 0 43 30" fill="none" xmlns="http://www.w3.org/2000/svg">
<g clip-path="url(#clip0_37_172)">
<path d="M8.45585 4.44316C9.12301 3.84967 9.82194 3.49778 10.6427 3.2982C11.4157 3.10913 12.2947 3.09862 13.2266 3.22467C14.8574 3.44526 16.8642 4.21207 18.4527 4.9106C20.3323 5.74043 22.1697 6.74358 24.2188 7.07971C26.2679 7.41585 28.513 7.31606 30.5674 6.67005C32.9289 5.9295 35.0628 4.59022 36.7836 2.83076C38.208 1.37593 35.9629 -0.85621 34.5386 0.603874C31.8541 3.34547 27.9676 4.76354 24.2876 3.89169C22.3656 3.43476 20.5971 2.40534 18.7809 1.64904C16.9648 0.89274 14.9209 0.215219 12.8506 0.0366472C10.3832 -0.178689 8.04814 0.577613 6.20551 2.21627C5.56483 2.7835 5.62307 3.86543 6.20551 4.44316C6.8409 5.07341 7.80987 5.01564 8.45056 4.44316H8.45585Z" fill="#233038" fill-opacity="0.8"/>
<path d="M8.45585 27.1639C9.12301 26.5704 9.82194 26.2185 10.6427 26.0189C11.4157 25.8298 12.2947 25.8193 13.2266 25.9454C14.8574 26.166 16.8642 26.9328 18.4527 27.6313C20.3323 28.4611 22.1697 29.4643 24.2188 29.8004C26.2679 30.1366 28.513 30.0368 30.5674 29.3908C32.9289 28.6502 35.0628 27.3109 36.7836 25.5515C38.208 24.0966 35.9629 21.8645 34.5386 23.3246C31.8541 26.0662 27.9676 27.4842 24.2876 26.6124C22.3656 26.1555 20.5971 25.126 18.7809 24.3697C16.9648 23.6134 14.9209 22.9359 12.8506 22.7574C10.3832 22.542 8.04814 23.2983 6.20551 24.937C5.56483 25.5042 5.62307 26.5861 6.20551 27.1639C6.8409 27.7941 7.80987 27.7363 8.45056 27.1639H8.45585Z" fill="#233038" fill-opacity="0.8"/>
<path d="M2.38255 16.3918C4.50581 15.0367 6.86204 14.7321 9.38772 14.8949C11.9134 15.0577 14.6456 15.772 17.1924 16.5493C19.7393 17.3266 22.1485 18.2878 24.743 18.6869C27.7293 19.1439 30.7315 19.0651 33.6914 18.4611C36.6512 17.8571 39.7064 16.6124 42.2109 14.7846C42.8992 14.2804 43.2487 13.4191 42.7827 12.6313C42.3856 11.9537 41.3055 11.5598 40.6118 12.064C36.3282 15.189 30.6256 16.4705 25.3784 15.6197C22.7944 15.1995 20.3429 14.2121 17.849 13.4611C15.1592 12.647 12.4058 11.9747 9.59422 11.7647C6.54435 11.5388 3.38858 12.0168 0.783482 13.6817C0.0633737 14.1386 -0.233141 15.0787 0.211631 15.835C0.62993 16.5493 1.66244 16.8645 2.38255 16.4023V16.3918Z" fill="#233038" fill-opacity="0.8"/>
</g>
<defs>
<clipPath id="clip0_37_172">
<rect width="43" height="30" fill="white"/>
</clipPath>
</defs>
</svg>
