<svg width="38" height="37" viewBox="0 0 38 37" fill="none" xmlns="http://www.w3.org/2000/svg">
<g clip-path="url(#clip0_1358_130267)">
<path d="M17.7793 27.3599C17.7793 29.8741 17.7793 32.3882 17.7793 34.9024V35.9707C17.7793 37.3453 19.8838 37.3488 19.8838 35.9707C19.8838 33.4565 19.8838 30.9424 19.8838 28.4283V27.3599C19.8838 25.9853 17.7793 25.9818 17.7793 27.3599Z" fill="#535D64"/>
<path d="M21.8513 26.21C21.8128 25.0491 20.736 24.3725 19.7118 24.1802C18.6876 23.9879 17.3863 24.0271 16.4744 24.6503C16.0044 24.9743 15.6396 25.4088 15.5624 25.9928C15.4853 26.5768 15.6992 27.1075 16.1096 27.4849C16.8988 28.2078 18.0948 28.4357 19.126 28.3254C20.3151 28.1972 21.8022 27.6452 21.8513 26.21C21.8689 25.651 21.3533 25.1168 20.7991 25.1417C20.2134 25.1666 19.7679 25.6118 19.7469 26.21C19.7434 26.3596 19.7749 26.0178 19.7714 26.0391C19.7714 26.0605 19.7609 26.089 19.7504 26.1103C19.7434 26.1246 19.8696 25.8219 19.81 25.9608C19.803 25.9715 19.7749 26.0284 19.7679 26.0284C19.7469 26.0356 19.9713 25.8041 19.8521 25.9109C19.8345 25.9252 19.8205 25.943 19.8065 25.9572C19.7784 25.9893 19.6837 26.0605 19.824 25.9501C19.9748 25.8326 19.8486 25.9287 19.81 25.9501C19.7504 25.9893 19.6872 26.0178 19.6241 26.0534C19.5434 26.0961 19.5084 26.0534 19.7188 26.0142C19.6837 26.0213 19.6416 26.0462 19.6066 26.0569C19.4452 26.1139 19.2804 26.1495 19.112 26.1851C18.9226 26.2279 19.1751 26.1638 19.1892 26.178C19.1822 26.1709 19.0454 26.1922 19.0489 26.1922C18.9542 26.1994 18.856 26.2065 18.7613 26.2065C18.6771 26.2065 18.5894 26.2065 18.5052 26.2065C18.4631 26.2065 18.2106 26.1566 18.186 26.1816C18.2001 26.1709 18.4526 26.2314 18.2632 26.1887C18.2211 26.178 18.1755 26.1709 18.1334 26.1638C18.0598 26.1495 17.9896 26.1281 17.916 26.1068C17.8388 26.0854 17.7616 26.0569 17.688 26.0284C17.5617 25.9857 17.8914 26.1388 17.7827 26.0676C17.7441 26.0427 17.702 26.0284 17.6634 26.0071C17.6319 25.9893 17.5021 25.9323 17.4916 25.8967C17.488 25.8824 17.7055 26.0925 17.5933 25.975C17.5792 25.9608 17.5617 25.943 17.5442 25.9287C17.5091 25.9002 17.4425 25.8041 17.5582 25.9572C17.6739 26.1103 17.6038 26.0213 17.5828 25.9821C17.5582 25.9394 17.5196 25.8468 17.5933 26.0213C17.6739 26.21 17.6178 26.0854 17.6108 26.0427C17.6108 26.0249 17.6424 26.3667 17.6354 26.2136C17.6354 26.1281 17.688 26.032 17.6108 26.3845C17.6143 26.3667 17.6213 26.3489 17.6248 26.3311C17.6599 26.2207 17.4916 26.5733 17.5617 26.4807C17.5757 26.4593 17.5933 26.4344 17.6038 26.413C17.6529 26.3098 17.4249 26.6018 17.5161 26.5305C17.5336 26.5163 17.5477 26.4985 17.5617 26.4843C17.6459 26.4024 17.709 26.4166 17.4916 26.5305C17.5512 26.4985 17.6038 26.4558 17.6634 26.4202C17.702 26.3988 17.9125 26.3062 17.7371 26.3774C17.5617 26.4486 17.8248 26.3489 17.8598 26.3382C17.951 26.3098 18.0422 26.2848 18.1369 26.2635C18.186 26.2528 18.4316 26.2172 18.2632 26.235C18.0808 26.2563 18.4 26.2243 18.4386 26.2207C18.6455 26.2065 18.8525 26.21 19.0559 26.2279C19.091 26.2279 19.126 26.235 19.1611 26.2385C19.2979 26.2492 18.9261 26.1958 19.119 26.2385C19.2242 26.2599 19.333 26.2813 19.4347 26.3098C19.5119 26.3311 19.589 26.3596 19.6662 26.3845C19.8275 26.438 19.589 26.3525 19.575 26.3418C19.6066 26.3667 19.6627 26.3845 19.6978 26.4023C19.7644 26.438 19.824 26.4878 19.8942 26.5234C19.6697 26.4059 19.7293 26.3845 19.7925 26.4451C19.817 26.47 19.8451 26.4985 19.8696 26.5234C19.9573 26.6018 19.7328 26.3026 19.7819 26.4059C19.7819 26.4095 19.8346 26.4914 19.831 26.4914C19.824 26.4914 19.7258 26.2136 19.7644 26.3418C19.8135 26.4949 19.7398 26.0356 19.7469 26.2065C19.7644 26.7656 20.2169 27.2997 20.7991 27.2748C21.3813 27.2499 21.8724 26.8048 21.8513 26.2065V26.21Z" fill="#535D64"/>
<path d="M18.723 16.5982C16.2397 16.6088 13.4303 17.2855 11.6695 19.1871C11.2907 19.5931 11.2416 20.2982 11.6695 20.697C12.0974 21.0959 12.7533 21.1315 13.1567 20.697C13.3075 20.5332 13.4723 20.3801 13.6407 20.2341C13.6828 20.1985 13.8406 20.0916 13.6512 20.2234C13.6968 20.1913 13.7424 20.1557 13.7845 20.1237C13.8757 20.0596 13.9704 19.9955 14.0686 19.9349C14.2826 19.7996 14.5 19.6785 14.728 19.5681C14.7982 19.5325 14.8648 19.5005 14.935 19.4684C15.0191 19.4293 15.0367 19.4221 14.9385 19.4649C15.0718 19.4079 15.205 19.358 15.3383 19.3082C15.875 19.1123 16.4327 18.9699 16.9938 18.8702C17.064 18.8595 17.1341 18.8452 17.2008 18.8345C17.2183 18.8345 17.4183 18.8025 17.3236 18.8167C17.2113 18.831 17.4814 18.7989 17.5059 18.7989C17.5796 18.7918 17.6497 18.7847 17.7234 18.7776C18.0566 18.7491 18.3898 18.7384 18.723 18.7348C19.2737 18.7348 19.7998 18.247 19.7753 17.6665C19.7507 17.086 19.3123 16.5946 18.723 16.5982Z" fill="#535D64"/>
<path d="M25.7134 19.1194C23.9351 17.2748 21.1887 16.6088 18.723 16.5981C18.1723 16.5981 17.6462 17.0896 17.6707 17.6665C17.6953 18.2434 18.1337 18.7313 18.723 18.7348C19.0316 18.7348 19.3438 18.7455 19.6525 18.7704C19.8138 18.7847 19.9717 18.7989 20.1295 18.8167C20.1996 18.8238 20.2768 18.8381 20.1611 18.8203C20.2312 18.831 20.2978 18.8416 20.368 18.8523C20.9397 18.9485 21.5044 19.0909 22.0516 19.2868C22.1708 19.3295 22.2866 19.3794 22.4023 19.4185C22.5567 19.472 22.262 19.3509 22.4058 19.4185C22.476 19.4506 22.5426 19.4791 22.6128 19.5147C22.8373 19.6215 23.0582 19.739 23.2722 19.8708C23.3669 19.9278 23.4651 19.9919 23.5563 20.0524C23.6159 20.0916 23.8965 20.3053 23.7071 20.1521C23.8895 20.2981 24.0614 20.4584 24.2262 20.6258C24.612 21.0246 25.3311 21.0495 25.7134 20.6258C26.0957 20.202 26.1238 19.5432 25.7134 19.1159V19.1194Z" fill="#535D64"/>
<path d="M31.2832 12.4959C27.8915 9.76092 23.4405 8.71396 19.1754 8.69971C17.8215 8.69615 17.818 10.8328 19.1754 10.8364C21.2448 10.8435 23.2967 11.1141 25.2784 11.7267C26.1413 11.9937 26.9375 12.3036 27.7337 12.7095C28.1195 12.9054 28.4983 13.1191 28.8631 13.3541C29.1787 13.5535 29.6031 13.8562 29.7961 14.0093C30.2415 14.369 30.8518 14.4509 31.2832 14.0093C31.648 13.639 31.7322 12.8591 31.2832 12.4994V12.4959Z" fill="#535D64"/>
<path d="M30.5395 14.3193C31.8934 14.3193 31.8969 12.1826 30.5395 12.1826C29.1821 12.1826 29.1821 14.3193 30.5395 14.3193Z" fill="#535D64"/>
<path d="M19.1756 8.69971C14.7982 8.71396 10.1193 9.81434 6.73804 12.7772C6.30663 13.1547 6.35573 13.9025 6.73804 14.2871C7.16596 14.7216 7.7938 14.6646 8.22522 14.2871C9.46686 13.201 11.1715 12.3392 12.82 11.805C14.8789 11.1355 17.0185 10.8435 19.1756 10.8364C20.5294 10.8328 20.533 8.69615 19.1756 8.69971Z" fill="#535D64"/>
<path d="M37.4775 5.16362C33.486 2.32897 28.6457 0.886718 23.8545 0.28845C22.3007 0.092589 20.7398 0 19.172 0C17.8181 0 17.8146 2.13311 19.172 2.13667C24.0018 2.14735 28.9754 3.01627 33.3212 5.16718C34.398 5.69779 35.4327 6.3103 36.4148 7.00828C36.8813 7.33946 37.5827 7.09374 37.8528 6.62368C38.1615 6.08951 37.944 5.4948 37.474 5.16362H37.4775Z" fill="#535D64"/>
<path d="M19.1722 0C13.8865 0.0106833 8.51301 1.01848 3.76038 3.42223C2.62747 3.99557 1.54015 4.65794 0.519476 5.42002C0.0635042 5.76189 -0.164482 6.34591 0.140669 6.88008C0.403729 7.33946 1.11925 7.60654 1.57873 7.26468C5.32121 4.47988 9.91951 2.99134 14.5003 2.42512C16.0506 2.23282 17.6114 2.14379 19.1722 2.14023C20.5296 2.13311 20.5296 0 19.1722 0Z" fill="#535D64"/>
</g>
<defs>
<clipPath id="clip0_1358_130267">
<rect width="38" height="37" fill="white"/>
</clipPath>
</defs>
</svg>
